G04 Layer_Color=8388736*
%FSLAX44Y44*%
%MOMM*%
G71*
G01*
G75*
%ADD71C,0.8000*%
%ADD73C,0.5000*%
%ADD74C,0.6000*%
%ADD87C,0.7000*%
%ADD114R,0.2900X0.9500*%
%ADD115R,0.9500X0.2900*%
%ADD117R,1.8000X0.4000*%
%ADD120R,1.1000X1.1000*%
%ADD121R,1.1000X1.1000*%
%ADD122R,0.9000X1.1000*%
%ADD124R,1.1000X0.9000*%
%ADD126R,0.9000X2.6000*%
%ADD128R,1.5500X2.1000*%
%ADD129R,0.9000X1.6000*%
%ADD130R,0.4000X1.6000*%
%ADD131R,2.6000X3.3000*%
%ADD132R,1.6000X5.1000*%
%ADD133R,5.1000X1.6000*%
%ADD134R,3.3000X0.9000*%
%ADD135R,0.9000X3.3000*%
%ADD136R,1.7000X0.4500*%
%ADD137R,2.1000X1.1000*%
%ADD138R,1.1000X2.1000*%
%ADD139R,0.8000X1.7000*%
%ADD140C,0.5516*%
%ADD141R,3.8000X3.8000*%
%ADD142R,1.3400X0.5400*%
%ADD143R,1.2446X1.3716*%
%ADD144R,0.9016X1.3016*%
%ADD145R,0.5900X0.4900*%
%ADD146R,1.6000X0.7000*%
%ADD147R,1.8000X0.8000*%
%ADD148R,2.1000X0.8000*%
%ADD149R,1.8200X0.5200*%
%ADD150R,1.6000X0.8000*%
%ADD151R,1.5400X0.8400*%
%ADD152R,0.7000X1.6000*%
%ADD153R,3.4000X1.0000*%
%ADD154R,1.0000X3.4000*%
%ADD155R,1.3000X1.3000*%
%ADD156C,0.1000*%
%ADD157C,2.1000*%
%ADD158C,2.6000*%
%ADD159C,1.8000*%
%ADD160C,2.4000*%
%ADD161C,2.8000*%
%ADD162C,0.9000*%
%ADD163C,1.3000*%
%ADD164C,1.1000*%
G36*
X1075500Y1093500D02*
X1066000D01*
Y1096500D01*
X1075500D01*
Y1093500D01*
D02*
G37*
G36*
X1016000Y1097500D02*
X1006500D01*
Y1100500D01*
X1016000D01*
Y1097500D01*
D02*
G37*
G36*
X1075500D02*
X1066000D01*
Y1100500D01*
X1075500D01*
Y1097500D01*
D02*
G37*
G36*
X1016000Y1089500D02*
X1006500D01*
Y1092500D01*
X1016000D01*
Y1089500D01*
D02*
G37*
G36*
X1075500D02*
X1066000D01*
Y1092500D01*
X1075500D01*
Y1089500D01*
D02*
G37*
G36*
X1016000Y1093500D02*
X1006500D01*
Y1096500D01*
X1016000D01*
Y1093500D01*
D02*
G37*
G36*
Y1105500D02*
X1006500D01*
Y1108500D01*
X1016000D01*
Y1105500D01*
D02*
G37*
G36*
Y1109500D02*
X1006500D01*
Y1112500D01*
X1016000D01*
Y1109500D01*
D02*
G37*
G36*
X1075500D02*
X1066000D01*
Y1112500D01*
X1075500D01*
Y1109500D01*
D02*
G37*
G36*
X1016000Y1101500D02*
X1006500D01*
Y1104500D01*
X1016000D01*
Y1101500D01*
D02*
G37*
G36*
X1075500D02*
X1066000D01*
Y1104500D01*
X1075500D01*
Y1101500D01*
D02*
G37*
G36*
Y1105500D02*
X1066000D01*
Y1108500D01*
X1075500D01*
Y1105500D01*
D02*
G37*
G36*
X1032500Y1078500D02*
X1029500D01*
Y1088000D01*
X1032500D01*
Y1078500D01*
D02*
G37*
G36*
X1036500D02*
X1033500D01*
Y1088000D01*
X1036500D01*
Y1078500D01*
D02*
G37*
G36*
X1040500D02*
X1037500D01*
Y1088000D01*
X1040500D01*
Y1078500D01*
D02*
G37*
G36*
X1020500D02*
X1017500D01*
Y1088000D01*
X1020500D01*
Y1078500D01*
D02*
G37*
G36*
X1024500D02*
X1021500D01*
Y1088000D01*
X1024500D01*
Y1078500D01*
D02*
G37*
G36*
X1028500D02*
X1025500D01*
Y1088000D01*
X1028500D01*
Y1078500D01*
D02*
G37*
G36*
X1056500D02*
X1053500D01*
Y1088000D01*
X1056500D01*
Y1078500D01*
D02*
G37*
G36*
X1060500D02*
X1057500D01*
Y1088000D01*
X1060500D01*
Y1078500D01*
D02*
G37*
G36*
X1064500D02*
X1061500D01*
Y1088000D01*
X1064500D01*
Y1078500D01*
D02*
G37*
G36*
X1044500D02*
X1041500D01*
Y1088000D01*
X1044500D01*
Y1078500D01*
D02*
G37*
G36*
X1048500D02*
X1045500D01*
Y1088000D01*
X1048500D01*
Y1078500D01*
D02*
G37*
G36*
X1052500D02*
X1049500D01*
Y1088000D01*
X1052500D01*
Y1078500D01*
D02*
G37*
G36*
X1032500Y1138000D02*
X1029500D01*
Y1147500D01*
X1032500D01*
Y1138000D01*
D02*
G37*
G36*
X1036500D02*
X1033500D01*
Y1147500D01*
X1036500D01*
Y1138000D01*
D02*
G37*
G36*
X1040500D02*
X1037500D01*
Y1147500D01*
X1040500D01*
Y1138000D01*
D02*
G37*
G36*
X1020500D02*
X1017500D01*
Y1147500D01*
X1020500D01*
Y1138000D01*
D02*
G37*
G36*
X1024500D02*
X1021500D01*
Y1147500D01*
X1024500D01*
Y1138000D01*
D02*
G37*
G36*
X1028500D02*
X1025500D01*
Y1147500D01*
X1028500D01*
Y1138000D01*
D02*
G37*
G36*
X1056500D02*
X1053500D01*
Y1147500D01*
X1056500D01*
Y1138000D01*
D02*
G37*
G36*
X1060500D02*
X1057500D01*
Y1147500D01*
X1060500D01*
Y1138000D01*
D02*
G37*
G36*
X1064500D02*
X1061500D01*
Y1147500D01*
X1064500D01*
Y1138000D01*
D02*
G37*
G36*
X1044500D02*
X1041500D01*
Y1147500D01*
X1044500D01*
Y1138000D01*
D02*
G37*
G36*
X1048500D02*
X1045500D01*
Y1147500D01*
X1048500D01*
Y1138000D01*
D02*
G37*
G36*
X1052500D02*
X1049500D01*
Y1147500D01*
X1052500D01*
Y1138000D01*
D02*
G37*
G36*
X1075500Y1117500D02*
X1066000D01*
Y1120500D01*
X1075500D01*
Y1117500D01*
D02*
G37*
G36*
X1016000Y1121500D02*
X1006500D01*
Y1124500D01*
X1016000D01*
Y1121500D01*
D02*
G37*
G36*
X1075500D02*
X1066000D01*
Y1124500D01*
X1075500D01*
Y1121500D01*
D02*
G37*
G36*
X1016000Y1113500D02*
X1006500D01*
Y1116500D01*
X1016000D01*
Y1113500D01*
D02*
G37*
G36*
X1075500D02*
X1066000D01*
Y1116500D01*
X1075500D01*
Y1113500D01*
D02*
G37*
G36*
X1016000Y1117500D02*
X1006500D01*
Y1120500D01*
X1016000D01*
Y1117500D01*
D02*
G37*
G36*
X1075500Y1129500D02*
X1066000D01*
Y1132500D01*
X1075500D01*
Y1129500D01*
D02*
G37*
G36*
X1016000Y1133500D02*
X1006500D01*
Y1136500D01*
X1016000D01*
Y1133500D01*
D02*
G37*
G36*
X1075500D02*
X1066000D01*
Y1136500D01*
X1075500D01*
Y1133500D01*
D02*
G37*
G36*
X1016000Y1125500D02*
X1006500D01*
Y1128500D01*
X1016000D01*
Y1125500D01*
D02*
G37*
G36*
X1075500D02*
X1066000D01*
Y1128500D01*
X1075500D01*
Y1125500D01*
D02*
G37*
G36*
X1016000Y1129500D02*
X1006500D01*
Y1132500D01*
X1016000D01*
Y1129500D01*
D02*
G37*
D71*
X314000Y951250D02*
D03*
X911000Y1225000D02*
D03*
X573000Y1046000D02*
D03*
X573000Y1036000D02*
D03*
X489000Y1060000D02*
D03*
X516000Y1069000D02*
D03*
X610000Y1027000D02*
D03*
X633000Y1143000D02*
D03*
X607000Y1046000D02*
D03*
X1320000Y1112000D02*
D03*
X337000Y969000D02*
D03*
X439000Y890000D02*
D03*
X503000Y917000D02*
D03*
X541000Y906000D02*
D03*
Y888000D02*
D03*
X606000Y906000D02*
D03*
Y888000D02*
D03*
X439000Y910000D02*
D03*
Y900000D02*
D03*
Y920000D02*
D03*
X675000Y1149000D02*
D03*
X671000Y1179000D02*
D03*
X635000Y1128000D02*
D03*
X633000Y1154000D02*
D03*
X379000Y1062000D02*
D03*
X351000Y1062000D02*
D03*
X351000Y1074700D02*
D03*
X379000Y1049300D02*
D03*
D73*
X924798Y841552D02*
D03*
X932798Y785552D02*
D03*
Y793552D02*
D03*
Y801552D02*
D03*
Y809552D02*
D03*
Y817552D02*
D03*
Y825552D02*
D03*
Y833552D02*
D03*
Y841552D02*
D03*
Y849552D02*
D03*
Y857552D02*
D03*
Y865552D02*
D03*
Y873552D02*
D03*
Y881552D02*
D03*
Y889552D02*
D03*
Y897552D02*
D03*
Y905552D02*
D03*
X924798Y785552D02*
D03*
Y793552D02*
D03*
Y801552D02*
D03*
Y809552D02*
D03*
Y817552D02*
D03*
Y825552D02*
D03*
Y833552D02*
D03*
Y849552D02*
D03*
Y857552D02*
D03*
Y865552D02*
D03*
Y873552D02*
D03*
Y881552D02*
D03*
Y889552D02*
D03*
Y897552D02*
D03*
Y905552D02*
D03*
X916798Y785552D02*
D03*
Y793552D02*
D03*
Y801552D02*
D03*
Y809552D02*
D03*
Y817552D02*
D03*
Y825552D02*
D03*
Y849552D02*
D03*
Y857552D02*
D03*
Y865552D02*
D03*
Y873552D02*
D03*
Y881552D02*
D03*
Y889552D02*
D03*
Y897552D02*
D03*
Y905552D02*
D03*
X884798Y785552D02*
D03*
Y793552D02*
D03*
Y801552D02*
D03*
Y809552D02*
D03*
Y817552D02*
D03*
Y825552D02*
D03*
Y833552D02*
D03*
Y841552D02*
D03*
Y849552D02*
D03*
Y873552D02*
D03*
Y881552D02*
D03*
Y889552D02*
D03*
Y897552D02*
D03*
Y905552D02*
D03*
X876798Y785552D02*
D03*
Y793552D02*
D03*
Y801552D02*
D03*
Y809552D02*
D03*
Y817552D02*
D03*
Y825552D02*
D03*
Y833552D02*
D03*
Y841552D02*
D03*
Y849552D02*
D03*
Y857552D02*
D03*
Y865552D02*
D03*
Y873552D02*
D03*
Y881552D02*
D03*
Y889552D02*
D03*
Y897552D02*
D03*
Y905552D02*
D03*
X868798Y785552D02*
D03*
Y793552D02*
D03*
Y801552D02*
D03*
Y809552D02*
D03*
Y817552D02*
D03*
Y825552D02*
D03*
Y833552D02*
D03*
Y841552D02*
D03*
Y849552D02*
D03*
Y857552D02*
D03*
Y865552D02*
D03*
Y873552D02*
D03*
Y881552D02*
D03*
Y889552D02*
D03*
Y897552D02*
D03*
Y905552D02*
D03*
X884798Y865552D02*
D03*
Y857552D02*
D03*
X916798Y841552D02*
D03*
Y833552D02*
D03*
X1263750Y938250D02*
D03*
X1323250Y895000D02*
D03*
X713250Y1031000D02*
D03*
X728250D02*
D03*
X716750Y1091000D02*
D03*
X735250D02*
D03*
X1122000Y1086553D02*
D03*
X839550Y881650D02*
D03*
X541000Y754000D02*
D03*
X562000Y753750D02*
D03*
X598750Y804750D02*
D03*
X637000Y802000D02*
D03*
X598500Y797750D02*
D03*
X591000Y807000D02*
D03*
X827140Y919190D02*
D03*
X852500Y884250D02*
D03*
X801500Y890000D02*
D03*
X844921Y836666D02*
D03*
X855074D02*
D03*
X962000Y864900D02*
D03*
X962500Y875250D02*
D03*
X838700Y869600D02*
D03*
X1123050Y1062800D02*
D03*
X838740Y893630D02*
D03*
X927000Y1134000D02*
D03*
X527000Y1164000D02*
D03*
X980000Y1066000D02*
D03*
X1001000Y803000D02*
D03*
X676000Y1004000D02*
D03*
X687000Y989000D02*
D03*
X921000Y1111000D02*
D03*
X861000Y1109000D02*
D03*
Y1092000D02*
D03*
X842000Y1080000D02*
D03*
X603000Y856000D02*
D03*
X521484Y1049500D02*
D03*
X961500Y896750D02*
D03*
X962000Y885500D02*
D03*
X478000Y1001000D02*
D03*
X522000Y952000D02*
D03*
Y960000D02*
D03*
X601000Y931000D02*
D03*
X584000Y1151000D02*
D03*
X1039000Y916000D02*
D03*
X1070800Y953000D02*
D03*
X1045400Y952000D02*
D03*
X1051750Y956200D02*
D03*
X1058100Y959000D02*
D03*
X1064450Y963200D02*
D03*
X560000Y688000D02*
D03*
X421000D02*
D03*
X399000D02*
D03*
X609000D02*
D03*
X593000D02*
D03*
X527000D02*
D03*
X511000D02*
D03*
X470000Y688000D02*
D03*
X446000Y688000D02*
D03*
X967700Y831000D02*
D03*
X838290Y853480D02*
D03*
X839120Y908140D02*
D03*
X837299Y822696D02*
D03*
X827140Y897617D02*
D03*
X828620Y760466D02*
D03*
X827138Y909554D02*
D03*
X687000Y693000D02*
D03*
X668000D02*
D03*
X649000Y693000D02*
D03*
X645000Y743000D02*
D03*
X428000Y819000D02*
D03*
X494000Y838000D02*
D03*
X439000Y934000D02*
D03*
X1052750Y1133000D02*
D03*
X1040750D02*
D03*
X1028750D02*
D03*
X1021000Y1101250D02*
D03*
Y1113250D02*
D03*
Y1125250D02*
D03*
X634000Y1170000D02*
D03*
X1048000Y1074000D02*
D03*
X443000Y753000D02*
D03*
X450000D02*
D03*
X491000Y1073000D02*
D03*
X493000Y1049000D02*
D03*
X459000Y1069000D02*
D03*
X559000Y1009000D02*
D03*
Y1020600D02*
D03*
X615000Y1086000D02*
D03*
X610000Y1038000D02*
D03*
X574548Y1058700D02*
D03*
X619000Y1006900D02*
D03*
X335502Y958502D02*
D03*
X339000Y946000D02*
D03*
X632000Y1241500D02*
D03*
X633434Y1319907D02*
D03*
X632000Y1180000D02*
D03*
X612000Y1058700D02*
D03*
X521484Y1082000D02*
D03*
X667000Y1155000D02*
D03*
Y1167700D02*
D03*
X276000Y968000D02*
D03*
Y955000D02*
D03*
Y961500D02*
D03*
Y981000D02*
D03*
X373000Y1009000D02*
D03*
X348000Y1042300D02*
D03*
X429000Y1063000D02*
D03*
X376000Y1182000D02*
D03*
X301000Y1094000D02*
D03*
X429000Y1043000D02*
D03*
X381000Y1228000D02*
D03*
X394000Y1146000D02*
D03*
X350000Y1329000D02*
D03*
X367000Y1209000D02*
D03*
X409000Y1284000D02*
D03*
X352000Y1237000D02*
D03*
X310000Y1289000D02*
D03*
X382000Y1101000D02*
D03*
X820696Y1187500D02*
D03*
X1041000Y1092750D02*
D03*
X1053000D02*
D03*
X1029000D02*
D03*
X1061000Y1100750D02*
D03*
Y1112750D02*
D03*
Y1124750D02*
D03*
X1074000Y868000D02*
D03*
X1064000D02*
D03*
X459000Y1082000D02*
D03*
Y1056000D02*
D03*
X521484Y1062500D02*
D03*
X475000Y1290000D02*
D03*
X515000Y1239000D02*
D03*
X543000Y1294000D02*
D03*
X562000Y1255000D02*
D03*
X577000Y1212000D02*
D03*
X506000Y1230000D02*
D03*
X527000Y1144000D02*
D03*
X563000D02*
D03*
X554000Y1222000D02*
D03*
X563000Y1163000D02*
D03*
X342000Y1155000D02*
D03*
X490000Y1144000D02*
D03*
X603000Y1084100D02*
D03*
Y1007900D02*
D03*
X459000Y1062500D02*
D03*
X286000Y717000D02*
D03*
X394000Y1128000D02*
D03*
X421000Y706000D02*
D03*
X399000D02*
D03*
X288000Y867600D02*
D03*
Y816800D02*
D03*
Y791400D02*
D03*
X511000Y706000D02*
D03*
X593000D02*
D03*
X609000D02*
D03*
X560000D02*
D03*
X577000D02*
D03*
X543000D02*
D03*
X527000D02*
D03*
X336000Y952000D02*
D03*
X551000Y1056000D02*
D03*
X673000Y1314000D02*
D03*
X551000Y1244000D02*
D03*
X700000Y1319000D02*
D03*
X691000Y1328000D02*
D03*
X716000Y1322000D02*
D03*
X725000Y1313000D02*
D03*
X578000Y1193000D02*
D03*
X697000Y1288000D02*
D03*
X715000D02*
D03*
X680000Y1086000D02*
D03*
X617000Y1014000D02*
D03*
X603000Y1033300D02*
D03*
X615000Y1072000D02*
D03*
X645000Y779000D02*
D03*
Y786000D02*
D03*
Y772000D02*
D03*
X439000Y882000D02*
D03*
Y876000D02*
D03*
Y870000D02*
D03*
Y864000D02*
D03*
X666000Y1093000D02*
D03*
X656000Y1099000D02*
D03*
X288000Y893000D02*
D03*
X381000Y921000D02*
D03*
X385000Y955000D02*
D03*
X494000Y854000D02*
D03*
X459000Y963000D02*
D03*
X645000Y765000D02*
D03*
X643000Y759000D02*
D03*
X573000Y870000D02*
D03*
X582000Y798000D02*
D03*
X618000Y932000D02*
D03*
X457000Y809000D02*
D03*
X422000Y785000D02*
D03*
X618000Y914000D02*
D03*
X586000Y986000D02*
D03*
Y968000D02*
D03*
X572100Y922400D02*
D03*
X564000Y888000D02*
D03*
X457000Y824000D02*
D03*
X419000Y809000D02*
D03*
X439000Y824000D02*
D03*
X514000Y817000D02*
D03*
X542874Y876000D02*
D03*
X1041000Y1158000D02*
D03*
X1013500Y1141750D02*
D03*
X1088000Y1116000D02*
D03*
X1088000Y1123000D02*
D03*
X1079750Y1144000D02*
D03*
X1150000Y1029000D02*
D03*
X1012000Y1205000D02*
D03*
X1085000Y1140000D02*
D03*
X1143000Y1092000D02*
D03*
X1058000Y1158000D02*
D03*
X1094000Y868000D02*
D03*
X719000Y726000D02*
D03*
X719000Y718000D02*
D03*
X720000Y734000D02*
D03*
X732000Y713000D02*
D03*
X727000Y718000D02*
D03*
X288000Y842200D02*
D03*
X645000Y753000D02*
D03*
X1077150Y957200D02*
D03*
X1089850D02*
D03*
X1102550D02*
D03*
X1115250D02*
D03*
X1127950D02*
D03*
X1140650D02*
D03*
X1153350D02*
D03*
X1166050D02*
D03*
X1178750D02*
D03*
X1191450Y962200D02*
D03*
X1204150Y957200D02*
D03*
X1059000Y916000D02*
D03*
X1084000Y868000D02*
D03*
X1114000D02*
D03*
X1104000D02*
D03*
X1194000D02*
D03*
X1144000D02*
D03*
X1204000D02*
D03*
X1214000D02*
D03*
X1079000Y916000D02*
D03*
X1109000D02*
D03*
X1099000D02*
D03*
X1089000D02*
D03*
X1159000Y916000D02*
D03*
X1179000Y916000D02*
D03*
X1169000D02*
D03*
X1199000D02*
D03*
X1189000Y916000D02*
D03*
X1209000Y916000D02*
D03*
X1049000D02*
D03*
X1054000Y868000D02*
D03*
X1083500Y953000D02*
D03*
X1121600D02*
D03*
X1134300D02*
D03*
X1108900D02*
D03*
X1096200D02*
D03*
X1172400D02*
D03*
X1185100D02*
D03*
X1159700D02*
D03*
X1210500D02*
D03*
X1197800Y956000D02*
D03*
X1007300Y953000D02*
D03*
X994600D02*
D03*
X1020000D02*
D03*
X1013650Y957200D02*
D03*
X1000950D02*
D03*
X1147000Y953000D02*
D03*
X1216350Y957200D02*
D03*
X1069000Y916000D02*
D03*
X680000Y1067000D02*
D03*
X718998Y1020998D02*
D03*
X707750Y1026000D02*
D03*
X711998Y1086002D02*
D03*
X724996Y1081000D02*
D03*
X884000Y1036000D02*
D03*
Y1081000D02*
D03*
X884000Y1028000D02*
D03*
X858000Y1024000D02*
D03*
X694000Y989000D02*
D03*
X701000D02*
D03*
X884000Y1044000D02*
D03*
X858000Y1048000D02*
D03*
X799000Y1073000D02*
D03*
X748000Y1035000D02*
D03*
X773000Y1031000D02*
D03*
X772000Y1040920D02*
D03*
X783000Y1055000D02*
D03*
X1184000Y868000D02*
D03*
X1174000D02*
D03*
X1164000D02*
D03*
X1139000Y916000D02*
D03*
X1149000Y916000D02*
D03*
X1154000Y868000D02*
D03*
X1129000Y916000D02*
D03*
X1119000Y916000D02*
D03*
X1124000Y868000D02*
D03*
X1134000D02*
D03*
X618000Y894000D02*
D03*
X815000Y962000D02*
D03*
X838000Y1024000D02*
D03*
X610000Y875000D02*
D03*
X768000Y1061000D02*
D03*
X584000Y1138000D02*
D03*
X1320000Y852000D02*
D03*
X999000Y816000D02*
D03*
X1034000Y856000D02*
D03*
X1029000Y868000D02*
D03*
X1019000Y859000D02*
D03*
X1329000Y852000D02*
D03*
X1313000Y827000D02*
D03*
X1320000Y751000D02*
D03*
X1330000D02*
D03*
X1015000Y916000D02*
D03*
X1024000Y916000D02*
D03*
X1100000Y1086000D02*
D03*
X999000Y864000D02*
D03*
Y832000D02*
D03*
X978000Y1047000D02*
D03*
X1125000Y1077000D02*
D03*
X988000Y1104000D02*
D03*
X949750Y1150500D02*
D03*
X523000Y1276000D02*
D03*
X429000Y1094000D02*
D03*
X382000Y1093100D02*
D03*
X348000Y1023000D02*
D03*
X338484Y978000D02*
D03*
X465000Y1103000D02*
D03*
X431000Y1070000D02*
D03*
X348000Y1101000D02*
D03*
X310000Y1226000D02*
D03*
X616000Y870000D02*
D03*
X523000Y788000D02*
D03*
X469000Y706000D02*
D03*
X470000Y766000D02*
D03*
X591000Y846000D02*
D03*
X918170Y1026920D02*
D03*
X982419Y1039919D02*
D03*
X1010250Y1028000D02*
D03*
X935750Y1070250D02*
D03*
X822000Y952750D02*
D03*
X832250Y951000D02*
D03*
X757000Y771000D02*
D03*
X765000Y980500D02*
D03*
X901750Y1141500D02*
D03*
X312000Y1065000D02*
D03*
X349250Y1033500D02*
D03*
D74*
X1242750Y1142000D02*
D03*
Y1152000D02*
D03*
Y1161000D02*
D03*
X1234250Y1168500D02*
D03*
X1226000D02*
D03*
X1218250Y1161000D02*
D03*
Y1152000D02*
D03*
X1226000Y1136000D02*
D03*
X1235000D02*
D03*
X1218250Y1142000D02*
D03*
X1195750D02*
D03*
X915000Y1080000D02*
D03*
X1256000Y1223000D02*
D03*
Y1186000D02*
D03*
Y1213000D02*
D03*
X1293000Y1212000D02*
D03*
Y1199000D02*
D03*
Y1187000D02*
D03*
Y1226000D02*
D03*
X1284000Y1231000D02*
D03*
X1273000D02*
D03*
X1263000D02*
D03*
X1273000Y1178000D02*
D03*
X1261000D02*
D03*
X1284000D02*
D03*
X1084000Y1287000D02*
D03*
X1073000D02*
D03*
X1065000Y1318000D02*
D03*
Y1304000D02*
D03*
Y1291000D02*
D03*
X1070000Y1341000D02*
D03*
X1083000D02*
D03*
X1095000D02*
D03*
X1104000Y1334000D02*
D03*
X1179000Y1136000D02*
D03*
X1188000D02*
D03*
X1195750Y1152000D02*
D03*
Y1161000D02*
D03*
X1188000Y1168500D02*
D03*
X1179750D02*
D03*
X1171250Y1161000D02*
D03*
Y1152000D02*
D03*
Y1142000D02*
D03*
X486000Y897000D02*
D03*
X504000D02*
D03*
X382000Y972000D02*
D03*
X543000Y922400D02*
D03*
X495000Y880000D02*
D03*
X712000Y1056000D02*
D03*
Y1075000D02*
D03*
X915000Y1037000D02*
D03*
X879000Y1061000D02*
D03*
X312000Y985000D02*
D03*
D87*
X907000Y1312000D02*
D03*
X950500Y1274500D02*
D03*
X915000Y1091000D02*
D03*
X985000Y729000D02*
D03*
X1015000D02*
D03*
X573000Y1073000D02*
D03*
X631000Y1163000D02*
D03*
X278000Y717200D02*
D03*
X314000Y732000D02*
D03*
Y742000D02*
D03*
X317000Y753000D02*
D03*
Y763000D02*
D03*
X439000Y856000D02*
D03*
X1001000Y1118000D02*
D03*
X1086000Y1132000D02*
D03*
X1069000Y1158000D02*
D03*
X993000Y1112000D02*
D03*
X603000Y923000D02*
D03*
X663000Y993949D02*
D03*
X922250Y1167250D02*
D03*
X812000Y1026000D02*
D03*
X821000D02*
D03*
X830000D02*
D03*
X439000Y942250D02*
D03*
X284000Y933000D02*
D03*
D114*
X1019000Y1142750D02*
D03*
X1023000D02*
D03*
X1027000D02*
D03*
X1031000D02*
D03*
X1035000D02*
D03*
X1039000D02*
D03*
X1043000D02*
D03*
X1047000D02*
D03*
X1051000D02*
D03*
X1055000D02*
D03*
X1059000D02*
D03*
X1063000D02*
D03*
Y1083250D02*
D03*
X1059000D02*
D03*
X1055000D02*
D03*
X1051000D02*
D03*
X1047000D02*
D03*
X1043000D02*
D03*
X1039000D02*
D03*
X1035000D02*
D03*
X1031000D02*
D03*
X1027000D02*
D03*
X1023000D02*
D03*
X1019000D02*
D03*
D115*
X1070750Y1135000D02*
D03*
Y1131000D02*
D03*
Y1127000D02*
D03*
Y1123000D02*
D03*
Y1119000D02*
D03*
Y1115000D02*
D03*
Y1111000D02*
D03*
Y1107000D02*
D03*
Y1103000D02*
D03*
Y1099000D02*
D03*
Y1095000D02*
D03*
Y1091000D02*
D03*
X1011250D02*
D03*
Y1095000D02*
D03*
Y1099000D02*
D03*
Y1103000D02*
D03*
Y1107000D02*
D03*
Y1111000D02*
D03*
Y1115000D02*
D03*
Y1119000D02*
D03*
Y1123000D02*
D03*
Y1127000D02*
D03*
Y1131000D02*
D03*
Y1135000D02*
D03*
D117*
X897000Y1001000D02*
D03*
Y1006000D02*
D03*
Y1011000D02*
D03*
Y1016000D02*
D03*
Y1021000D02*
D03*
Y1026000D02*
D03*
Y1031000D02*
D03*
Y1036000D02*
D03*
Y1041000D02*
D03*
Y1046000D02*
D03*
Y1051000D02*
D03*
Y1056000D02*
D03*
Y1061000D02*
D03*
Y1066000D02*
D03*
Y1071000D02*
D03*
Y1076000D02*
D03*
Y1081000D02*
D03*
Y1086000D02*
D03*
Y1091000D02*
D03*
Y1096000D02*
D03*
Y1101000D02*
D03*
Y1106000D02*
D03*
Y1111000D02*
D03*
Y1116000D02*
D03*
X694000Y1001000D02*
D03*
Y1006000D02*
D03*
Y1011000D02*
D03*
Y1016000D02*
D03*
Y1021000D02*
D03*
Y1026000D02*
D03*
Y1031000D02*
D03*
Y1036000D02*
D03*
Y1041000D02*
D03*
Y1046000D02*
D03*
Y1051000D02*
D03*
Y1056000D02*
D03*
Y1061000D02*
D03*
Y1066000D02*
D03*
Y1071000D02*
D03*
Y1076000D02*
D03*
Y1081000D02*
D03*
Y1086000D02*
D03*
Y1091000D02*
D03*
Y1096000D02*
D03*
Y1101000D02*
D03*
Y1106000D02*
D03*
Y1111000D02*
D03*
Y1116000D02*
D03*
D120*
X949300Y840500D02*
D03*
X967300D02*
D03*
X468000Y984000D02*
D03*
X450000D02*
D03*
X551000Y992000D02*
D03*
X533000D02*
D03*
X489000Y1017000D02*
D03*
X471000D02*
D03*
X1016000Y1181000D02*
D03*
X998000D02*
D03*
X503000Y854000D02*
D03*
X485000D02*
D03*
X468000Y962000D02*
D03*
X450000D02*
D03*
X595000Y986000D02*
D03*
X577000D02*
D03*
X595000Y968000D02*
D03*
X577000D02*
D03*
X466000Y809000D02*
D03*
X448000D02*
D03*
X940750Y1150500D02*
D03*
X958750D02*
D03*
X949100Y821500D02*
D03*
X967100D02*
D03*
X652000Y978750D02*
D03*
X634000D02*
D03*
D121*
X832250Y732750D02*
D03*
Y750750D02*
D03*
X429000Y1034000D02*
D03*
Y1052000D02*
D03*
X301000Y1103000D02*
D03*
Y1085000D02*
D03*
X429000Y1103000D02*
D03*
Y1085000D02*
D03*
X304500Y1037500D02*
D03*
Y1055500D02*
D03*
X562000Y1067000D02*
D03*
Y1085000D02*
D03*
X618000Y903000D02*
D03*
Y885000D02*
D03*
D122*
X450000Y1001000D02*
D03*
X468000D02*
D03*
X533000Y975000D02*
D03*
X551000D02*
D03*
X995000Y1055000D02*
D03*
X1013000D02*
D03*
X1211000Y1183000D02*
D03*
X1193000D02*
D03*
X448000Y824000D02*
D03*
X466000D02*
D03*
X410000Y809000D02*
D03*
X428000D02*
D03*
X1069000Y1169000D02*
D03*
X1051000D02*
D03*
X1064000Y1053000D02*
D03*
X1082000D02*
D03*
D124*
X696000Y711000D02*
D03*
Y693000D02*
D03*
X677000Y711000D02*
D03*
Y693000D02*
D03*
X658000Y711000D02*
D03*
Y693000D02*
D03*
X982000Y1076000D02*
D03*
Y1094000D02*
D03*
X1033000Y1185000D02*
D03*
Y1167000D02*
D03*
X1292000Y1125000D02*
D03*
Y1107000D02*
D03*
X486000Y906000D02*
D03*
Y888000D02*
D03*
X504000Y906000D02*
D03*
Y888000D02*
D03*
X618000Y841000D02*
D03*
Y859000D02*
D03*
Y941000D02*
D03*
Y923000D02*
D03*
X1098000Y1108000D02*
D03*
Y1126000D02*
D03*
X1044000Y1061000D02*
D03*
Y1043000D02*
D03*
X758000Y724000D02*
D03*
Y706000D02*
D03*
D126*
X994600Y935000D02*
D03*
X1197800D02*
D03*
X1210500D02*
D03*
X1185100D02*
D03*
X1172400D02*
D03*
X1159700D02*
D03*
X1147000D02*
D03*
X1134300D02*
D03*
X1121600D02*
D03*
X1108900D02*
D03*
X1096200D02*
D03*
X1083500D02*
D03*
X1070800D02*
D03*
X1058100D02*
D03*
X1045400D02*
D03*
X1032700D02*
D03*
X1020000D02*
D03*
X1007300D02*
D03*
X994600Y989000D02*
D03*
X1007300D02*
D03*
X1020000D02*
D03*
X1032700D02*
D03*
X1045400D02*
D03*
X1058100D02*
D03*
X1070800D02*
D03*
X1083500D02*
D03*
X1096200D02*
D03*
X1108900D02*
D03*
X1121600D02*
D03*
X1134300D02*
D03*
X1147000D02*
D03*
X1159700D02*
D03*
X1172400D02*
D03*
X1197800D02*
D03*
X1210500D02*
D03*
X1185100D02*
D03*
X1223200Y935000D02*
D03*
Y989000D02*
D03*
X1235900D02*
D03*
Y935000D02*
D03*
D128*
X628750Y702000D02*
D03*
X491250D02*
D03*
Y785000D02*
D03*
X628750D02*
D03*
D129*
X592000Y728000D02*
D03*
X515000D02*
D03*
X581000D02*
D03*
X548000D02*
D03*
X559000D02*
D03*
X537000D02*
D03*
X526000D02*
D03*
X570000D02*
D03*
D130*
X1019000Y903000D02*
D03*
X1024000D02*
D03*
X1029000D02*
D03*
X1034000D02*
D03*
X1039000D02*
D03*
X1044000D02*
D03*
X1049000D02*
D03*
X1054000D02*
D03*
X1059000D02*
D03*
X1064000D02*
D03*
X1069000D02*
D03*
X1074000D02*
D03*
X1079000D02*
D03*
X1084000D02*
D03*
X1089000D02*
D03*
X1094000D02*
D03*
X1099000D02*
D03*
X1104000D02*
D03*
X1109000D02*
D03*
X1114000D02*
D03*
X1119000D02*
D03*
X1124000D02*
D03*
X1129000D02*
D03*
X1134000D02*
D03*
X1139000D02*
D03*
X1144000D02*
D03*
X1149000D02*
D03*
X1154000D02*
D03*
X1159000D02*
D03*
X1164000D02*
D03*
X1169000D02*
D03*
X1174000D02*
D03*
X1179000D02*
D03*
X1184000D02*
D03*
X1189000D02*
D03*
X1194000D02*
D03*
X1199000D02*
D03*
X1204000D02*
D03*
X1209000D02*
D03*
X1214000D02*
D03*
D131*
X994870Y887760D02*
D03*
X1238130D02*
D03*
D132*
X1049000Y1326060D02*
D03*
Y1227000D02*
D03*
D133*
X1350530Y1199000D02*
D03*
X1251470D02*
D03*
X1350530Y1044000D02*
D03*
X1251470D02*
D03*
X1156470Y1123000D02*
D03*
X1255530D02*
D03*
D134*
X1359020Y751700D02*
D03*
Y726300D02*
D03*
X1291710D02*
D03*
Y751700D02*
D03*
D135*
X1336300Y905710D02*
D03*
X1361700D02*
D03*
Y973020D02*
D03*
X1336300D02*
D03*
D136*
X409000Y890250D02*
D03*
Y877250D02*
D03*
Y864250D02*
D03*
Y857750D02*
D03*
Y870750D02*
D03*
Y883750D02*
D03*
Y942250D02*
D03*
Y929250D02*
D03*
Y916250D02*
D03*
Y903250D02*
D03*
Y896750D02*
D03*
Y909750D02*
D03*
Y922750D02*
D03*
Y935750D02*
D03*
X465000Y857750D02*
D03*
Y864250D02*
D03*
Y896750D02*
D03*
Y909750D02*
D03*
Y916250D02*
D03*
Y903250D02*
D03*
Y877250D02*
D03*
Y890250D02*
D03*
Y883750D02*
D03*
Y870750D02*
D03*
Y929250D02*
D03*
Y942250D02*
D03*
Y935750D02*
D03*
Y922750D02*
D03*
D137*
X1175400Y1029000D02*
D03*
Y1045000D02*
D03*
X1124600Y1029000D02*
D03*
Y1045000D02*
D03*
D138*
X733000Y748400D02*
D03*
X717000D02*
D03*
X733000Y697600D02*
D03*
X717000D02*
D03*
D139*
X849500Y721500D02*
D03*
X794500D02*
D03*
X849500Y698500D02*
D03*
X794500D02*
D03*
D140*
X791000Y822000D02*
D03*
X783000D02*
D03*
X775000D02*
D03*
X767000D02*
D03*
X759000D02*
D03*
X751000D02*
D03*
X743000D02*
D03*
X735000D02*
D03*
X727000D02*
D03*
X719000D02*
D03*
X711000D02*
D03*
X703000D02*
D03*
X695000D02*
D03*
X687000D02*
D03*
X679000D02*
D03*
X671000D02*
D03*
X663000D02*
D03*
X655000D02*
D03*
X791000Y830000D02*
D03*
X783000D02*
D03*
X775000D02*
D03*
X767000D02*
D03*
X759000D02*
D03*
X751000D02*
D03*
X743000D02*
D03*
X735000D02*
D03*
X727000D02*
D03*
X719000D02*
D03*
X711000D02*
D03*
X703000D02*
D03*
X695000D02*
D03*
X687000D02*
D03*
X679000D02*
D03*
X671000D02*
D03*
X663000D02*
D03*
X655000D02*
D03*
X791000Y838000D02*
D03*
X783000D02*
D03*
X775000D02*
D03*
X767000D02*
D03*
X759000D02*
D03*
X751000D02*
D03*
X743000D02*
D03*
X735000D02*
D03*
X727000D02*
D03*
X719000D02*
D03*
X711000D02*
D03*
X703000D02*
D03*
X695000D02*
D03*
X687000D02*
D03*
X679000D02*
D03*
X671000D02*
D03*
X663000D02*
D03*
X655000D02*
D03*
X791000Y846000D02*
D03*
X783000D02*
D03*
X775000D02*
D03*
X767000D02*
D03*
X759000D02*
D03*
X751000D02*
D03*
X743000D02*
D03*
X735000D02*
D03*
X727000D02*
D03*
X719000D02*
D03*
X711000D02*
D03*
X703000D02*
D03*
X695000D02*
D03*
X687000D02*
D03*
X679000D02*
D03*
X671000D02*
D03*
X663000D02*
D03*
X655000D02*
D03*
X791000Y854000D02*
D03*
X783000D02*
D03*
X775000D02*
D03*
X767000D02*
D03*
X759000D02*
D03*
X751000D02*
D03*
X743000D02*
D03*
X735000D02*
D03*
X727000D02*
D03*
X719000D02*
D03*
X711000D02*
D03*
X703000D02*
D03*
X695000D02*
D03*
X687000D02*
D03*
X679000D02*
D03*
X671000D02*
D03*
X663000D02*
D03*
X655000D02*
D03*
X791000Y862000D02*
D03*
X783000D02*
D03*
X775000D02*
D03*
X767000D02*
D03*
X759000D02*
D03*
X751000D02*
D03*
X743000D02*
D03*
X735000D02*
D03*
X727000D02*
D03*
X719000D02*
D03*
X711000D02*
D03*
X703000D02*
D03*
X695000D02*
D03*
X687000D02*
D03*
X679000D02*
D03*
X671000D02*
D03*
X663000D02*
D03*
X655000D02*
D03*
X791000Y870000D02*
D03*
X783000D02*
D03*
X775000D02*
D03*
X767000D02*
D03*
X759000D02*
D03*
X751000D02*
D03*
X743000D02*
D03*
X735000D02*
D03*
X727000D02*
D03*
X719000D02*
D03*
X711000D02*
D03*
X703000D02*
D03*
X695000D02*
D03*
X687000D02*
D03*
X679000D02*
D03*
X671000D02*
D03*
X663000D02*
D03*
X655000D02*
D03*
X791000Y878000D02*
D03*
X783000D02*
D03*
X775000D02*
D03*
X767000D02*
D03*
X759000D02*
D03*
X751000D02*
D03*
X743000D02*
D03*
X735000D02*
D03*
X727000D02*
D03*
X719000D02*
D03*
X711000D02*
D03*
X703000D02*
D03*
X695000D02*
D03*
X687000D02*
D03*
X679000D02*
D03*
X671000D02*
D03*
X663000D02*
D03*
X655000D02*
D03*
X791000Y886000D02*
D03*
X783000D02*
D03*
X775000D02*
D03*
X767000D02*
D03*
X759000D02*
D03*
X751000D02*
D03*
X743000D02*
D03*
X735000D02*
D03*
X727000D02*
D03*
X719000D02*
D03*
X711000D02*
D03*
X703000D02*
D03*
X695000D02*
D03*
X687000D02*
D03*
X679000D02*
D03*
X671000D02*
D03*
X663000D02*
D03*
X655000D02*
D03*
X791000Y894000D02*
D03*
X783000D02*
D03*
X775000D02*
D03*
X767000D02*
D03*
X759000D02*
D03*
X751000D02*
D03*
X743000D02*
D03*
X735000D02*
D03*
X727000D02*
D03*
X719000D02*
D03*
X711000D02*
D03*
X703000D02*
D03*
X695000D02*
D03*
X687000D02*
D03*
X679000D02*
D03*
X671000D02*
D03*
X663000D02*
D03*
X655000D02*
D03*
X791000Y902000D02*
D03*
X783000D02*
D03*
X775000D02*
D03*
X767000D02*
D03*
X759000D02*
D03*
X751000D02*
D03*
X743000D02*
D03*
X735000D02*
D03*
X727000D02*
D03*
X719000D02*
D03*
X711000D02*
D03*
X703000D02*
D03*
X695000D02*
D03*
X687000D02*
D03*
X679000D02*
D03*
X671000D02*
D03*
X663000D02*
D03*
X655000D02*
D03*
X791000Y910000D02*
D03*
X783000D02*
D03*
X775000D02*
D03*
X767000D02*
D03*
X759000D02*
D03*
X751000D02*
D03*
X743000D02*
D03*
X735000D02*
D03*
X727000D02*
D03*
X719000D02*
D03*
X711000D02*
D03*
X703000D02*
D03*
X695000D02*
D03*
X687000D02*
D03*
X679000D02*
D03*
X671000D02*
D03*
X663000D02*
D03*
X655000D02*
D03*
X791000Y918000D02*
D03*
X783000D02*
D03*
X775000D02*
D03*
X767000D02*
D03*
X759000D02*
D03*
X751000D02*
D03*
X743000D02*
D03*
X735000D02*
D03*
X727000D02*
D03*
X719000D02*
D03*
X711000D02*
D03*
X703000D02*
D03*
X695000D02*
D03*
X687000D02*
D03*
X679000D02*
D03*
X671000D02*
D03*
X663000D02*
D03*
X655000D02*
D03*
X791000Y926000D02*
D03*
X783000D02*
D03*
X775000D02*
D03*
X767000D02*
D03*
X759000D02*
D03*
X751000D02*
D03*
X743000D02*
D03*
X735000D02*
D03*
X727000D02*
D03*
X719000D02*
D03*
X711000D02*
D03*
X703000D02*
D03*
X695000D02*
D03*
X687000D02*
D03*
X679000D02*
D03*
X671000D02*
D03*
X663000D02*
D03*
X655000D02*
D03*
X791000Y934000D02*
D03*
X783000D02*
D03*
X775000D02*
D03*
X767000D02*
D03*
X759000D02*
D03*
X751000D02*
D03*
X743000D02*
D03*
X735000D02*
D03*
X727000D02*
D03*
X719000D02*
D03*
X711000D02*
D03*
X703000D02*
D03*
X695000D02*
D03*
X687000D02*
D03*
X679000D02*
D03*
X671000D02*
D03*
X663000D02*
D03*
X655000D02*
D03*
X791000Y942000D02*
D03*
X783000D02*
D03*
X775000D02*
D03*
X767000D02*
D03*
X759000D02*
D03*
X751000D02*
D03*
X743000D02*
D03*
X735000D02*
D03*
X727000D02*
D03*
X719000D02*
D03*
X711000D02*
D03*
X703000D02*
D03*
X695000D02*
D03*
X687000D02*
D03*
X679000D02*
D03*
X671000D02*
D03*
X663000D02*
D03*
X655000D02*
D03*
X791000Y950000D02*
D03*
X783000D02*
D03*
X775000D02*
D03*
X767000D02*
D03*
X759000D02*
D03*
X751000D02*
D03*
X743000D02*
D03*
X735000D02*
D03*
X727000D02*
D03*
X719000D02*
D03*
X711000D02*
D03*
X703000D02*
D03*
X695000D02*
D03*
X687000D02*
D03*
X679000D02*
D03*
X671000D02*
D03*
X663000D02*
D03*
X655000D02*
D03*
X791000Y958000D02*
D03*
X783000D02*
D03*
X775000D02*
D03*
X767000D02*
D03*
X759000D02*
D03*
X751000D02*
D03*
X743000D02*
D03*
X735000D02*
D03*
X727000D02*
D03*
X719000D02*
D03*
X711000D02*
D03*
X703000D02*
D03*
X695000D02*
D03*
X687000D02*
D03*
X679000D02*
D03*
X671000D02*
D03*
X663000D02*
D03*
X655000D02*
D03*
D141*
X1041000Y1113000D02*
D03*
D142*
X965652Y1040500D02*
D03*
Y1047000D02*
D03*
Y1053500D02*
D03*
X942348D02*
D03*
Y1040500D02*
D03*
D143*
X960169Y747127D02*
D03*
X977949D02*
D03*
X982669Y1028127D02*
D03*
X1000449D02*
D03*
D144*
X954000Y710127D02*
D03*
X976000D02*
D03*
X721000Y796000D02*
D03*
X743000D02*
D03*
D145*
X706827Y780435D02*
D03*
X716987D02*
D03*
X706840Y769000D02*
D03*
X717000D02*
D03*
X767080Y764250D02*
D03*
X756920D02*
D03*
X801670Y748250D02*
D03*
X811830D02*
D03*
X938170Y1029250D02*
D03*
X948330D02*
D03*
D146*
X1299992Y1263000D02*
D03*
X1324008D02*
D03*
D147*
X649226Y1084100D02*
D03*
Y1071400D02*
D03*
Y1058700D02*
D03*
Y1046000D02*
D03*
Y1033300D02*
D03*
Y1020600D02*
D03*
Y1007900D02*
D03*
X588774D02*
D03*
Y1020600D02*
D03*
Y1033300D02*
D03*
Y1046000D02*
D03*
Y1058700D02*
D03*
Y1071400D02*
D03*
Y1084100D02*
D03*
X395226Y1100100D02*
D03*
Y1087400D02*
D03*
Y1074700D02*
D03*
Y1062000D02*
D03*
Y1049300D02*
D03*
Y1036600D02*
D03*
Y1023900D02*
D03*
X334774D02*
D03*
Y1036600D02*
D03*
Y1049300D02*
D03*
Y1062000D02*
D03*
Y1074700D02*
D03*
Y1087400D02*
D03*
Y1100100D02*
D03*
X525774Y935100D02*
D03*
Y922400D02*
D03*
Y909700D02*
D03*
Y897000D02*
D03*
Y884300D02*
D03*
Y871600D02*
D03*
Y858900D02*
D03*
X586226D02*
D03*
Y871600D02*
D03*
Y884300D02*
D03*
Y897000D02*
D03*
Y909700D02*
D03*
Y922400D02*
D03*
Y935100D02*
D03*
D148*
X650060Y1142300D02*
D03*
Y1155000D02*
D03*
Y1167700D02*
D03*
Y1180400D02*
D03*
X705940D02*
D03*
Y1167700D02*
D03*
Y1155000D02*
D03*
Y1142300D02*
D03*
D149*
X535242Y1049500D02*
D03*
Y1056000D02*
D03*
Y1062500D02*
D03*
Y1069000D02*
D03*
Y1075500D02*
D03*
Y1082000D02*
D03*
Y1088500D02*
D03*
X472758Y1088500D02*
D03*
Y1082000D02*
D03*
Y1075500D02*
D03*
Y1069000D02*
D03*
Y1062500D02*
D03*
Y1056000D02*
D03*
Y1049500D02*
D03*
X352242Y948500D02*
D03*
Y955000D02*
D03*
Y961500D02*
D03*
Y968000D02*
D03*
Y974500D02*
D03*
Y981000D02*
D03*
Y987500D02*
D03*
X289758Y987500D02*
D03*
Y981000D02*
D03*
Y974500D02*
D03*
Y968000D02*
D03*
Y961500D02*
D03*
Y955000D02*
D03*
Y948500D02*
D03*
D150*
X1128557Y1168000D02*
D03*
X1105443Y1158475D02*
D03*
Y1177525D02*
D03*
D151*
X1333230Y1127500D02*
D03*
Y1118000D02*
D03*
Y1108500D02*
D03*
X1366770D02*
D03*
Y1127500D02*
D03*
D152*
X1356000Y1299008D02*
D03*
Y1274992D02*
D03*
X1232000Y1343008D02*
D03*
Y1318992D02*
D03*
Y1285008D02*
D03*
Y1260992D02*
D03*
D153*
X359290Y754500D02*
D03*
Y729100D02*
D03*
X290710Y754500D02*
D03*
Y729100D02*
D03*
X359290Y830700D02*
D03*
Y805300D02*
D03*
Y779900D02*
D03*
X290710Y830700D02*
D03*
Y805300D02*
D03*
Y779900D02*
D03*
Y856100D02*
D03*
Y881500D02*
D03*
Y906900D02*
D03*
X359290Y856100D02*
D03*
Y881500D02*
D03*
Y906900D02*
D03*
X1359290Y852400D02*
D03*
Y827000D02*
D03*
Y801600D02*
D03*
X1290710Y852400D02*
D03*
Y827000D02*
D03*
Y801600D02*
D03*
D154*
X459400Y703710D02*
D03*
X434000D02*
D03*
X408600D02*
D03*
X459400Y772290D02*
D03*
X434000D02*
D03*
X408600D02*
D03*
D155*
X902250Y1151250D02*
D03*
X922250D02*
D03*
D156*
X285000Y1340000D02*
D03*
X1365000Y697000D02*
D03*
X285000D02*
D03*
X761750Y1278000D02*
D03*
X641350D02*
D03*
D157*
X1365000Y1340000D02*
D03*
X1318430Y1340910D02*
D03*
X1293030Y1290110D02*
D03*
X1267630D02*
D03*
Y1340910D02*
D03*
X1318430Y1290110D02*
D03*
D158*
X315750Y1179000D02*
D03*
Y1306000D02*
D03*
Y1242500D02*
D03*
X321250Y1338500D02*
D03*
Y1275000D02*
D03*
X435250Y1211500D02*
D03*
Y1275000D02*
D03*
X321250Y1211500D02*
D03*
X435250Y1338500D02*
D03*
X440750Y1179000D02*
D03*
Y1242500D02*
D03*
Y1306000D02*
D03*
X480250Y1179000D02*
D03*
Y1306000D02*
D03*
Y1242500D02*
D03*
X485750Y1338500D02*
D03*
Y1275000D02*
D03*
X599750Y1211500D02*
D03*
Y1275000D02*
D03*
X485750Y1211500D02*
D03*
X599750Y1338500D02*
D03*
X605250Y1179000D02*
D03*
Y1242500D02*
D03*
Y1306000D02*
D03*
D159*
X689050Y1250900D02*
D03*
X714050D02*
D03*
X689050Y1230900D02*
D03*
X714050D02*
D03*
D160*
X834750Y1339500D02*
D03*
X934750D02*
D03*
Y1214500D02*
D03*
X834750D02*
D03*
X809750Y1239500D02*
D03*
X959750D02*
D03*
X884750D02*
D03*
D161*
X1120430Y1277910D02*
D03*
X1170430Y1246910D02*
D03*
Y1308910D02*
D03*
D162*
X1303500Y901500D02*
D03*
X1362300Y948000D02*
D03*
Y931000D02*
D03*
X1341000Y1018000D02*
D03*
X1097000Y1053000D02*
D03*
X1098000Y1141000D02*
D03*
X1044000Y1028000D02*
D03*
X1027000Y1024000D02*
D03*
X1235900Y914000D02*
D03*
X1209000Y1018000D02*
D03*
X1235900Y968000D02*
D03*
D163*
X1231000Y1183000D02*
D03*
X1342000Y1264000D02*
D03*
X1223000Y1221000D02*
D03*
X1278000Y1164000D02*
D03*
X1370000Y1320000D02*
D03*
X1341000Y1063000D02*
D03*
X1274000Y1105000D02*
D03*
X1368000Y1143000D02*
D03*
X1350000Y1109500D02*
D03*
X1199000Y1340000D02*
D03*
X1315000Y1182000D02*
D03*
X1324000Y1308000D02*
D03*
X1316000Y1228000D02*
D03*
X1146000Y1177000D02*
D03*
X1269000Y1067000D02*
D03*
X1274000Y1140000D02*
D03*
X1255000Y1245000D02*
D03*
X1367000Y1225000D02*
D03*
X1364000Y1064000D02*
D03*
X1355000Y1320000D02*
D03*
X1344000Y1335000D02*
D03*
X1078000Y1245000D02*
D03*
X1206000Y1256000D02*
D03*
X1207000Y1273000D02*
D03*
X1178000Y1194000D02*
D03*
X1018000Y1273000D02*
D03*
X1207000Y1131000D02*
D03*
X1193000Y1200992D02*
D03*
X981000Y1342000D02*
D03*
X555000Y775000D02*
D03*
X517000D02*
D03*
D164*
X1083000Y1169000D02*
D03*
X1064000Y1034000D02*
D03*
X1143000Y1158000D02*
D03*
X967000Y1081000D02*
D03*
X962000Y1183000D02*
D03*
M02*
