G04 Layer_Physical_Order=3*
G04 Layer_Color=36540*
%FSLAX44Y44*%
%MOMM*%
G71*
G01*
G75*
%ADD10C,0.1300*%
%ADD12C,0.4000*%
%ADD46C,0.2500*%
%ADD47C,0.4000*%
%ADD51C,0.5000*%
%ADD52C,0.1500*%
%ADD55C,0.8000*%
%ADD57C,1.2000*%
%ADD58C,1.0000*%
%ADD65C,0.1340*%
%ADD69C,1.7000*%
%ADD70C,2.5000*%
%ADD71C,0.6000*%
%ADD72C,0.5000*%
%ADD73C,1.2000*%
%ADD91C,0.2910*%
D10*
X803220Y911900D02*
G03*
X801920Y910600I0J-1300D01*
G01*
X804300Y911900D02*
G03*
X805600Y913200I0J1300D01*
G01*
X801920Y915800D02*
G03*
X803220Y914500I1300J0D01*
G01*
X805600Y913200D02*
G03*
X804300Y914500I-1300J0D01*
G01*
X839251Y941400D02*
G03*
X840551Y942700I0J1300D01*
G01*
X848951Y958005D02*
G03*
X840551Y958005I-4200J0D01*
G01*
X848951Y932915D02*
G03*
X851551Y932915I1300J0D01*
G01*
X855751Y941400D02*
G03*
X851551Y937200I0J-4200D01*
G01*
X846051Y932915D02*
G03*
X854451Y932915I4200J0D01*
G01*
X839251Y938500D02*
G03*
X843451Y942700I0J4200D01*
G01*
X855751Y938500D02*
G03*
X854451Y937200I0J-1300D01*
G01*
X846051Y958005D02*
G03*
X843451Y958005I-1300J0D01*
G01*
X801920Y908362D02*
Y910600D01*
Y908362D02*
X804280Y906002D01*
X801920Y915800D02*
Y917100D01*
Y919700D02*
Y921000D01*
Y917100D02*
Y919700D01*
X803220Y914500D02*
X804300D01*
X803220Y911900D02*
X804300D01*
X801920Y921000D02*
X819420Y938500D01*
X899650Y896100D02*
X918250D01*
X857250Y938500D02*
X899650Y896100D01*
X918250D02*
X920800Y893550D01*
X796660Y906002D02*
X799020Y908362D01*
Y922201D01*
X818219Y941400D01*
X858451D02*
X900851Y899000D01*
X918246D01*
X920796Y901550D01*
X818219Y941400D02*
X839251D01*
X840551Y942700D02*
Y958005D01*
X848951Y932915D02*
Y958005D01*
X851551Y932915D02*
Y937200D01*
X855751Y941400D02*
X858451D01*
X819420Y938500D02*
X839251Y938500D01*
X843451Y942700D02*
Y958005D01*
X846051Y932915D02*
Y958005D01*
X854451Y932915D02*
Y937200D01*
X855751Y938500D02*
X855751D01*
X857250Y938500D01*
D12*
X312000Y1065000D02*
D03*
X466250Y1116250D02*
D03*
X803270Y813030D02*
D03*
X707000Y946000D02*
D03*
X715000D02*
D03*
Y954000D02*
D03*
X699000Y962000D02*
D03*
X691000Y963500D02*
D03*
X674999Y929998D02*
D03*
X591000Y822000D02*
D03*
X880800Y829554D02*
D03*
X920796Y813550D02*
D03*
X803500Y807000D02*
D03*
X310000Y1226000D02*
D03*
X348000Y1101000D02*
D03*
X465000Y1103000D02*
D03*
X523000Y1276000D02*
D03*
X1308000Y792000D02*
D03*
X1100000Y1070000D02*
D03*
X978000Y1047000D02*
D03*
X1024000Y916000D02*
D03*
X1320000Y751000D02*
D03*
X1313000Y827000D02*
D03*
X1303500Y761500D02*
D03*
X1019000Y859000D02*
D03*
X1029000Y868000D02*
D03*
X1034000Y856000D02*
D03*
X1293000Y863000D02*
D03*
X952000Y1048000D02*
D03*
X1134000Y868000D02*
D03*
X1124000D02*
D03*
X1154000D02*
D03*
X1164000Y868000D02*
D03*
X1174000D02*
D03*
X1184000D02*
D03*
X773000Y1031000D02*
D03*
X748000Y1035000D02*
D03*
X701000Y989000D02*
D03*
X694000D02*
D03*
X763000Y938000D02*
D03*
X1216350Y957200D02*
D03*
X788000Y965000D02*
D03*
X787000Y954000D02*
D03*
X1000950Y957200D02*
D03*
X1013650D02*
D03*
X1020000Y953000D02*
D03*
X1007300D02*
D03*
X1054000Y868000D02*
D03*
X1144000D02*
D03*
X1194000D02*
D03*
X1104000D02*
D03*
X1114000D02*
D03*
X1084000D02*
D03*
X1059000Y916000D02*
D03*
X1204150Y957200D02*
D03*
X1191450Y962200D02*
D03*
X1178750Y957200D02*
D03*
X1166050D02*
D03*
X1153350D02*
D03*
X1140650D02*
D03*
X1127950D02*
D03*
X1115250D02*
D03*
X1102550D02*
D03*
X1089850D02*
D03*
X1077150D02*
D03*
X764250Y809000D02*
D03*
X1094000Y868000D02*
D03*
X514000Y817000D02*
D03*
X439000Y824000D02*
D03*
X419000Y809000D02*
D03*
X564000Y888000D02*
D03*
X572100Y922400D02*
D03*
X586000Y968000D02*
D03*
Y986000D02*
D03*
X618000Y914000D02*
D03*
X643000Y759000D02*
D03*
X645000Y765000D02*
D03*
X494000Y854000D02*
D03*
X385000Y955000D02*
D03*
X296000Y867600D02*
D03*
X667000Y890000D02*
D03*
X603000Y1033300D02*
D03*
X617000Y1014000D02*
D03*
X697000Y1288000D02*
D03*
X700000Y1319000D02*
D03*
X551000Y1244000D02*
D03*
X675000Y890000D02*
D03*
X551000Y1056000D02*
D03*
X288000Y816800D02*
D03*
X296000D02*
D03*
X288000Y867600D02*
D03*
X399000Y706000D02*
D03*
X421000D02*
D03*
X394000Y1128000D02*
D03*
X286000Y717000D02*
D03*
X459000Y1062500D02*
D03*
X675000Y850000D02*
D03*
X563000Y1163000D02*
D03*
X554000Y1222000D02*
D03*
X506000Y1230000D02*
D03*
X577000Y1212000D02*
D03*
X543000Y1294000D02*
D03*
X521484Y1062500D02*
D03*
X459000Y1056000D02*
D03*
Y1082000D02*
D03*
X310000Y1289000D02*
D03*
X352000Y1237000D02*
D03*
X409000Y1284000D02*
D03*
X367000Y1209000D02*
D03*
X429000Y1043000D02*
D03*
X521484Y1082000D02*
D03*
X612000Y1058700D02*
D03*
X632000Y1241500D02*
D03*
X574548Y1058700D02*
D03*
X615000Y1086000D02*
D03*
X493000Y1049000D02*
D03*
X491000Y1073000D02*
D03*
X443000Y753000D02*
D03*
X439000Y934000D02*
D03*
X714999Y825998D02*
D03*
X739000Y834000D02*
D03*
X731002Y825996D02*
D03*
X738999Y825998D02*
D03*
X755500Y804000D02*
D03*
X731002Y817999D02*
D03*
X738999Y817998D02*
D03*
X715002Y817999D02*
D03*
X771000Y874000D02*
D03*
X755000Y842000D02*
D03*
X666999Y833999D02*
D03*
X658999D02*
D03*
X747000Y842000D02*
D03*
X739000D02*
D03*
X706999Y825998D02*
D03*
X770999Y913998D02*
D03*
Y945998D02*
D03*
X763000Y842000D02*
D03*
X722999Y849998D02*
D03*
X674999Y881998D02*
D03*
X872800Y893550D02*
D03*
X864796Y829554D02*
D03*
X880796Y789554D02*
D03*
X920800Y869550D02*
D03*
X837299Y822696D02*
D03*
X779000Y898000D02*
D03*
X779002Y938002D02*
D03*
X795000Y971000D02*
D03*
X1064450Y963200D02*
D03*
X1058100Y959000D02*
D03*
X584000Y1151000D02*
D03*
X691000Y834000D02*
D03*
X683000Y826000D02*
D03*
X637000Y955000D02*
D03*
X643000Y949000D02*
D03*
X649000Y885000D02*
D03*
X603000Y856000D02*
D03*
X1001000Y803000D02*
D03*
X527000Y1164000D02*
D03*
X909800Y779804D02*
D03*
X920800Y789554D02*
D03*
X844921Y836666D02*
D03*
X801500Y890000D02*
D03*
X852500Y884250D02*
D03*
X648000Y820000D02*
D03*
X591000Y807000D02*
D03*
X598500Y797750D02*
D03*
X637000Y802000D02*
D03*
X598750Y804750D02*
D03*
X562000Y753750D02*
D03*
X651002Y841999D02*
D03*
X659002D02*
D03*
X796660Y906002D02*
D03*
X804280D02*
D03*
X920800Y893550D02*
D03*
X920796Y901550D02*
D03*
D46*
X755000Y979000D02*
X768000Y992000D01*
X751500Y981500D02*
X766000Y996000D01*
X748000Y984000D02*
X764000Y1000000D01*
X748000Y955000D02*
Y984000D01*
X751500Y959500D02*
Y981500D01*
X755000Y963000D02*
Y979000D01*
X771000Y961000D02*
Y972000D01*
X775000Y970000D02*
X789000Y984000D01*
X775000Y964000D02*
Y970000D01*
X771000Y972000D02*
X787000Y988000D01*
X768000Y992000D02*
X1105850D01*
X743000Y985000D02*
X762000Y1004000D01*
X752000Y750000D02*
Y797000D01*
X748001Y747999D02*
Y790000D01*
X744000Y746000D02*
X770000Y720000D01*
X744000Y746000D02*
Y790000D01*
X770000Y720000D02*
X932000D01*
X1019000Y807000D01*
X772000Y724000D02*
X930000D01*
X748001Y747999D02*
X772000Y724000D01*
X930000D02*
X1013000Y807000D01*
X768000Y716000D02*
X972000D01*
X740000Y744000D02*
X768000Y716000D01*
X972000D02*
X985000Y729000D01*
X751500Y959500D02*
X758000Y953000D01*
X755000Y963000D02*
X756000Y962000D01*
X691000Y965000D02*
X734000Y1008000D01*
X686000Y966000D02*
X732000Y1012000D01*
X691000Y965000D02*
X691000Y965000D01*
X686000Y952000D02*
Y966000D01*
X648000Y901000D02*
X661000D01*
X678000Y943000D02*
Y958000D01*
Y943000D02*
X695000Y926000D01*
X678000Y958000D02*
X682000Y962000D01*
X586000Y827000D02*
X591000Y822000D01*
X596000Y812000D02*
Y976000D01*
X586000Y986000D02*
X596000Y976000D01*
X603000Y856000D02*
Y875000D01*
X613000Y885000D01*
Y909000D01*
X618000Y914000D01*
X312000Y1291000D02*
X402000D01*
X310000Y1289000D02*
X312000Y1291000D01*
X402000D02*
X409000Y1284000D01*
X312125Y1065125D02*
X348000Y1101000D01*
X375000Y1128000D01*
X1000000Y1119000D02*
X1001000Y1118000D01*
X1171000Y1070000D02*
X1335000Y906000D01*
X1100000Y1070000D02*
X1171000D01*
X480250Y1242500D02*
X513750Y1276000D01*
X523000D01*
X1191450Y947450D02*
Y962200D01*
X1174000Y930000D02*
X1191450Y947450D01*
X624000Y1233500D02*
X632000Y1241500D01*
X637000Y906000D02*
Y955000D01*
Y906000D02*
X646000Y897000D01*
X643000Y906000D02*
Y949000D01*
Y906000D02*
X648000Y901000D01*
X723000Y700000D02*
X1261000D01*
X709000Y714000D02*
X723000Y700000D01*
X998000Y712000D02*
X1015000Y729000D01*
X1024000Y916000D02*
Y925000D01*
X736000Y742000D02*
X766000Y712000D01*
X998000D01*
X725000Y747000D02*
X764000Y708000D01*
X692000Y718000D02*
X719000Y691000D01*
X678000Y726000D02*
X716937Y687063D01*
X705000Y711000D02*
X720500Y695500D01*
X725000Y704000D02*
X1258000D01*
X1261000Y700000D02*
X1313000Y752000D01*
X1258000Y704000D02*
X1308000Y754000D01*
X1313000Y752000D02*
Y827000D01*
X1308000Y754000D02*
Y792000D01*
X764000Y708000D02*
X1250000D01*
X1303500Y761500D01*
X720500Y695500D02*
X1264500D01*
X1320000Y751000D01*
X1029000Y885000D02*
Y926000D01*
Y868000D02*
Y884000D01*
X1013000Y807000D02*
Y861000D01*
X1019000Y807000D02*
Y859000D01*
X1013000Y861000D02*
X1020000Y868000D01*
X1029000D01*
X1034000Y856000D02*
Y927000D01*
X1293000Y863000D02*
X1325000Y831000D01*
X978000Y1047000D02*
X1077000D01*
X1100000Y1070000D01*
X495000Y877000D02*
Y880000D01*
X749000Y800000D02*
X752000Y797000D01*
X749000Y800000D02*
Y824000D01*
X739000Y834000D02*
X749000Y824000D01*
X1134000Y868000D02*
Y944000D01*
X1124000Y868000D02*
Y945000D01*
X1114000Y868000D02*
Y948000D01*
X1134000Y944000D02*
X1140650Y950650D01*
X1114000Y948000D02*
X1115250Y949250D01*
X1124000Y945000D02*
X1127950Y948950D01*
X1154000Y868000D02*
Y940000D01*
X1144000Y868000D02*
Y942000D01*
X1154000Y940000D02*
X1166050Y952050D01*
X1144000Y942000D02*
X1153350Y951350D01*
X740011Y1035000D02*
X748000D01*
X760000Y1018000D02*
X773000Y1031000D01*
X694011Y989000D02*
X740011Y1035000D01*
X730000Y1018000D02*
X760000D01*
X701000Y989000D02*
X730000Y1018000D01*
X734000Y1008000D02*
X1153350D01*
X732000Y1012000D02*
X1161550D01*
X1216350Y946350D02*
Y957200D01*
X1194000Y924000D02*
X1216350Y946350D01*
X1079840Y979910D02*
X1102550Y957200D01*
X1013650Y947350D02*
X1034000Y927000D01*
X1013650Y947350D02*
Y957200D01*
X1007300Y947700D02*
Y953000D01*
Y947700D02*
X1029000Y926000D01*
X1000950Y948050D02*
Y957200D01*
Y948050D02*
X1024000Y925000D01*
X1194000Y868000D02*
Y924000D01*
X1184000Y868000D02*
Y926000D01*
X1204150Y946150D01*
Y957200D01*
X1174000Y868000D02*
Y930000D01*
X1164000Y868000D02*
Y934000D01*
X1178750Y948750D01*
Y957200D01*
X1166050Y952050D02*
Y957200D01*
X1153350Y951350D02*
Y957200D01*
X1140650Y950650D02*
Y957200D01*
X1127950Y948950D02*
Y957200D01*
X1115250Y949250D02*
Y957200D01*
X1104000Y868000D02*
Y947000D01*
X1102550Y948450D02*
X1104000Y947000D01*
X1102550Y948450D02*
Y957200D01*
X1094000Y868000D02*
Y945000D01*
X1089850Y949150D02*
X1094000Y945000D01*
X1089850Y949150D02*
Y957200D01*
X1084000Y868000D02*
Y943000D01*
X1077150Y949850D02*
X1084000Y943000D01*
X1077150Y949850D02*
Y957200D01*
X727000Y800000D02*
X731000Y796000D01*
X740000Y744000D02*
Y790000D01*
X631000Y759000D02*
X643000D01*
X613000Y741000D02*
X631000Y759000D01*
X378000Y741000D02*
X613000D01*
X574548Y1058700D02*
Y1059452D01*
X459000Y793000D02*
X517000D01*
X439000Y813000D02*
X459000Y793000D01*
X439000Y813000D02*
Y824000D01*
X517000Y793000D02*
X564000Y840000D01*
X549000Y899300D02*
X572100Y922400D01*
X549000Y841000D02*
Y899300D01*
X495000Y877000D02*
X514000Y858000D01*
X419000Y809000D02*
Y823000D01*
X514000Y817000D02*
Y858000D01*
X564000Y840000D02*
Y888000D01*
X514000Y858000D02*
X514000Y858000D01*
X610000Y746000D02*
X629000Y765000D01*
X374800Y730000D02*
X645000D01*
X439000Y934000D02*
X447000Y926000D01*
Y901000D02*
X494000Y854000D01*
X447000Y901000D02*
Y926000D01*
X288000Y816800D02*
X374800Y730000D01*
X296000Y816800D02*
X377143Y735657D01*
X296000Y867600D02*
X310000Y853600D01*
X288000Y867600D02*
X305000Y850600D01*
X683000Y1288000D02*
X697000D01*
X673000Y1259000D02*
X684000Y1270000D01*
X593000Y1259000D02*
X673000D01*
X684000Y1270000D02*
X698000D01*
X675000Y1296000D02*
X683000Y1288000D01*
X626000Y1296000D02*
X675000D01*
X621000Y1291000D02*
X626000Y1296000D01*
X546000Y1291000D02*
X621000D01*
X543000Y1294000D02*
X546000Y1291000D01*
X700000Y1319000D02*
X705000Y1314000D01*
Y1277000D02*
Y1314000D01*
X698000Y1270000D02*
X705000Y1277000D01*
X578000Y1244000D02*
X593000Y1259000D01*
X551000Y1244000D02*
X578000D01*
X574000Y1212000D02*
X577000D01*
X541000Y1245000D02*
X574000Y1212000D01*
X541000Y1245000D02*
Y1292000D01*
X543000Y1294000D01*
X310000Y816071D02*
X380071Y746000D01*
X305000Y814000D02*
X378000Y741000D01*
X310000Y816071D02*
Y853600D01*
X305000Y814000D02*
Y850600D01*
X295000Y717000D02*
X313000Y699000D01*
X375000Y1128000D02*
X394000D01*
X459000Y1062500D02*
X480500D01*
X491000Y1073000D01*
X554000Y1172000D02*
Y1222000D01*
X482500Y1179000D02*
X506000Y1202500D01*
Y1230000D01*
X342000Y1227000D02*
X352000Y1237000D01*
X310000Y1226000D02*
X311000Y1227000D01*
X367000Y1209000D02*
Y1214000D01*
X354000Y1227000D02*
X367000Y1214000D01*
X311000Y1227000D02*
X342000D01*
X354000D01*
X615000Y1086000D02*
X624000Y1095000D01*
X459000Y1056000D02*
X466000Y1049000D01*
X493000D01*
X380071Y746000D02*
X610000D01*
X365000Y831000D02*
X443000Y753000D01*
X365000Y831000D02*
Y944000D01*
X429000Y1008000D01*
Y1043000D01*
X624000Y1095000D02*
Y1233500D01*
X419000Y823000D02*
X433000Y837000D01*
X465000D01*
X629000Y765000D02*
X645000D01*
X286000Y717000D02*
X295000D01*
X645000Y730000D02*
X654500Y739500D01*
X313000Y699000D02*
X637000D01*
X673000Y735000D01*
Y824000D01*
X678000Y726000D02*
Y821000D01*
X718999Y790001D02*
Y813998D01*
X731002Y834002D02*
X739000Y842000D01*
X731002Y825996D02*
Y834002D01*
X727000Y800000D02*
Y814000D01*
X788000Y965000D02*
Y971000D01*
X1131950Y1004000D02*
X1178750Y957200D01*
X1153350Y1008000D02*
X1204150Y957200D01*
X1161550Y1012000D02*
X1216350Y957200D01*
X1114550Y996000D02*
X1153350Y957200D01*
X1123250Y1000000D02*
X1166050Y957200D01*
X1105850Y992000D02*
X1140650Y957200D01*
X1097150Y988000D02*
X1127950Y957200D01*
X1088450Y984000D02*
X1115250Y957200D01*
X748000Y955000D02*
X756500Y946500D01*
X1054000Y868000D02*
Y943000D01*
X1058100Y947100D01*
X1059000Y916000D02*
Y940000D01*
X1064450Y945450D01*
X795000Y971000D02*
X1063350D01*
X1077150Y957200D01*
X1058100Y947100D02*
Y959000D01*
X1064450Y945450D02*
Y963200D01*
X784000Y969000D02*
Y973000D01*
X790910Y979910D01*
X1079840D01*
X787000Y988000D02*
X1097150D01*
X789000Y984000D02*
X1088450D01*
X766000Y996000D02*
X1114550D01*
X764000Y1000000D02*
X1123250D01*
X762000Y1004000D02*
X1131950D01*
X1020000Y953000D02*
X1044000Y929000D01*
X466000Y1089000D02*
X556948D01*
X459000Y1082000D02*
X466000Y1089000D01*
X556948D02*
X572948Y1073000D01*
X573000D01*
X609000Y1061700D02*
X612000Y1058700D01*
X593000Y1043300D02*
X603000Y1033300D01*
X593000Y1043300D02*
Y1142000D01*
X584000Y1151000D02*
X593000Y1142000D01*
X534000Y1157000D02*
X590000D01*
X609000Y1138000D01*
Y1061700D02*
Y1138000D01*
X586000Y827000D02*
Y968000D01*
X465000Y837000D02*
X491000Y811000D01*
X519000D01*
X549000Y841000D01*
X588000Y1039000D02*
Y1043000D01*
Y1039000D02*
X613000Y1014000D01*
X617000D01*
X521484Y1082000D02*
X543000D01*
X578000Y1053000D02*
X588000Y1043000D01*
X543000Y1082000D02*
X572000Y1053000D01*
X578000D01*
X673000Y824000D02*
X679000Y830000D01*
X678000Y821000D02*
X683000Y826000D01*
X736000Y742000D02*
Y759000D01*
X725000Y747000D02*
Y784000D01*
X718999Y790001D02*
X725000Y784000D01*
X692000Y718000D02*
Y752000D01*
X695000Y755000D01*
Y828750D01*
X702000Y815000D02*
Y828750D01*
X660000Y897000D02*
X667000Y890000D01*
X646000Y897000D02*
X660000D01*
X671997Y885000D02*
X674999Y881998D01*
X649000Y885000D02*
X671997D01*
X1001000Y803000D02*
X1008000Y810000D01*
Y877000D01*
X1024000Y893000D01*
Y916000D01*
X719000Y691000D02*
X1268000D01*
X1325000Y748000D01*
Y831000D01*
X716937Y687000D02*
X1273000D01*
X1335000Y749000D01*
Y906000D01*
X527000Y1164000D02*
X534000Y1157000D01*
X554000Y1172000D02*
X563000Y1163000D01*
X926000Y728000D02*
X1001000Y803000D01*
X752000Y750000D02*
X774000Y728000D01*
X926000D01*
X377143Y735657D02*
X644657D01*
X651000Y742000D01*
X1071050Y976000D02*
X1089850Y957200D01*
X788000Y971000D02*
X793000Y976000D01*
X1071050D01*
X651000Y742000D02*
Y803500D01*
X591000Y807000D02*
X596000Y812000D01*
X654500Y739500D02*
Y806000D01*
X646250Y808250D02*
X651000Y803500D01*
X648750Y811750D02*
X654500Y806000D01*
X598500Y797750D02*
X624000D01*
X634500Y808250D01*
X646250D01*
X598750Y804750D02*
X626050D01*
X633050Y811750D01*
X648750D01*
X713250Y715750D02*
X725000Y704000D01*
X705000Y711000D02*
Y812000D01*
X702000Y815000D02*
X705000Y812000D01*
X709000Y714000D02*
Y812000D01*
X710999Y813998D01*
X713250Y715750D02*
Y809000D01*
X715002Y810752D01*
Y817999D01*
X1044000Y870250D02*
Y929000D01*
Y870250D02*
X1051250Y863000D01*
X1293000D01*
X682000Y962000D02*
Y992000D01*
X787000Y1097000D01*
X954000D01*
X691000Y963000D02*
Y965000D01*
D47*
X459179Y1116250D02*
X466250D01*
X455000Y1103000D02*
X465000D01*
X291000Y939000D02*
X455000Y1103000D01*
X291000Y904000D02*
Y933000D01*
Y939000D01*
X284000Y933000D02*
Y941071D01*
X343000Y933000D02*
X382000Y972000D01*
X291000Y933000D02*
X343000D01*
X284000Y941071D02*
X459179Y1116250D01*
X952000Y1048000D02*
X954000Y1050000D01*
Y1097000D01*
X974000Y1117000D01*
X974000D01*
X976000Y1119000D01*
X1000000D01*
X525500Y1062500D02*
X624000Y964000D01*
X521484Y1062500D02*
X525500D01*
X624000Y869000D02*
Y964000D01*
X648000Y718000D02*
X666999Y736999D01*
X495000Y880000D02*
Y908000D01*
X551000Y1046000D02*
X630000Y967000D01*
X551000Y1046000D02*
Y1056000D01*
X630000Y883000D02*
Y967000D01*
X756250Y780750D02*
Y803250D01*
X755500Y804000D02*
X756250Y803250D01*
X666999Y736999D02*
Y833999D01*
X353400Y718000D02*
X648000D01*
X646364Y724364D02*
X658999Y736999D01*
X356036Y724364D02*
X646364D01*
X385000Y955000D02*
X391000Y949000D01*
X282000Y895000D02*
X291000Y904000D01*
X282000Y750000D02*
X320000Y712000D01*
X276000Y746000D02*
X316000Y706000D01*
X276000Y746000D02*
Y897000D01*
X282000Y750000D02*
Y895000D01*
X276000Y897000D02*
X284000Y905000D01*
Y933000D01*
X317000Y763000D02*
X317400D01*
X356036Y724364D01*
X415000Y712000D02*
X421000Y706000D01*
X320000Y712000D02*
X415000D01*
X318400Y753000D02*
X353400Y718000D01*
X317000Y753000D02*
X318400D01*
X316000Y706000D02*
X399000D01*
X454000Y949000D02*
X495000Y908000D01*
X391000Y949000D02*
X454000D01*
X630000Y883000D02*
X652499Y860501D01*
X915901Y744099D02*
X924000Y736000D01*
X792902Y744099D02*
X915901D01*
X756250Y780750D02*
X792902Y744099D01*
X658999Y736999D02*
Y833999D01*
X652499Y848501D02*
Y860501D01*
Y848501D02*
X659002Y841999D01*
X624000Y869000D02*
X651002Y841999D01*
D51*
X655000Y941000D02*
Y999000D01*
Y941000D02*
X666002Y929998D01*
X655000Y999000D02*
X691300Y1035300D01*
X666002Y929998D02*
X674999D01*
X691300Y1035300D02*
Y1230900D01*
D52*
X743000Y944000D02*
Y985000D01*
X703000Y932000D02*
Y958000D01*
X711000Y936480D02*
Y950000D01*
Y936480D02*
X713480Y934000D01*
X719000Y936000D02*
Y942000D01*
X707000Y946000D02*
Y961000D01*
X702000Y966000D02*
X707000Y961000D01*
X697000Y966000D02*
X702000D01*
X715000Y946000D02*
X719000Y942000D01*
X711000Y950000D02*
X715000Y954000D01*
X695000Y964000D02*
X697000Y966000D01*
X695000Y952000D02*
Y964000D01*
X699000Y962000D02*
X703000Y958000D01*
X695000Y856000D02*
Y926000D01*
X686000Y952000D02*
X688000Y950000D01*
X693000D01*
X759000Y814250D02*
X764250Y809000D01*
X759000Y814250D02*
Y838000D01*
X695000Y828750D02*
Y836000D01*
X702000Y828750D02*
X703000Y829750D01*
X655000Y838000D02*
X693000D01*
X731002Y808943D02*
X736000Y803944D01*
X731002Y808943D02*
Y817999D01*
X736000Y759000D02*
Y803944D01*
X695000Y856000D02*
X697000Y854000D01*
X755000Y842000D02*
X759000Y838000D01*
X748001Y790000D02*
Y794999D01*
X744000Y790000D02*
Y794000D01*
X740000Y790000D02*
Y793000D01*
X745000Y798000D02*
X748001Y794999D01*
X745000Y798000D02*
Y819997D01*
X738999Y825998D02*
X745000Y819997D01*
X742000Y796000D02*
X744000Y794000D01*
X739000Y794000D02*
X740000Y793000D01*
X739000Y794000D02*
Y804480D01*
X738999Y809001D02*
X742000Y806000D01*
X735002Y808478D02*
X739000Y804480D01*
X693000Y838000D02*
X695000Y836000D01*
X648000Y831000D02*
X655000Y838000D01*
X675000Y850000D02*
X679000Y846000D01*
X695000D01*
X703000Y838000D01*
Y829750D02*
Y838000D01*
X710999Y813998D02*
Y821998D01*
X706999Y825998D02*
X710999Y821998D01*
X718999Y813998D02*
Y821998D01*
X714999Y825998D02*
X718999Y821998D01*
X726999Y814000D02*
Y845998D01*
X731002Y825996D02*
X735002Y821996D01*
Y808478D02*
Y821996D01*
X722999Y849998D02*
X726999Y845998D01*
X738999Y809001D02*
Y817998D01*
X742000Y796000D02*
Y806000D01*
X769004Y941996D02*
X775007D01*
X779002Y938002D01*
X771000Y946000D02*
Y948000D01*
X767000Y952000D02*
X771000Y948000D01*
X767000Y952000D02*
Y956000D01*
X765000Y958000D02*
X767000Y956000D01*
X760000Y958000D02*
X765000D01*
X767000Y944000D02*
X769004Y941996D01*
X767000Y944000D02*
Y948000D01*
X765000Y950000D02*
X767000Y948000D01*
X761000Y950000D02*
X765000D01*
X758000Y953000D02*
X761000Y950000D01*
X745000Y942000D02*
X756997D01*
X743000Y944000D02*
X745000Y942000D01*
X765000Y934000D02*
X767000Y936000D01*
Y940000D01*
X765000Y942000D02*
X767000Y940000D01*
X760998Y937999D02*
X762998D01*
X756997Y942000D02*
X760998Y937999D01*
X761000Y942000D02*
X765000D01*
X756500Y946500D02*
X761000Y942000D01*
X783000Y950000D02*
X787000Y954000D01*
X777000Y950000D02*
X783000D01*
X775000Y952000D02*
X777000Y950000D01*
X775000Y952000D02*
Y957000D01*
X713480Y934000D02*
X717000D01*
X725000Y926000D01*
X719000Y936000D02*
X721000Y934000D01*
X765000D01*
X725000Y926000D02*
X781000D01*
X791000Y936000D01*
Y956000D01*
X771000Y961000D02*
X775000Y957000D01*
Y964000D02*
X781000Y958000D01*
X789000D01*
X791000Y956000D01*
X703000Y932000D02*
X709000Y926000D01*
X720000D01*
X728000Y918000D01*
X781000D01*
X799000Y936000D01*
Y957000D01*
X795000Y961000D02*
X799000Y957000D01*
X786000Y961000D02*
X795000D01*
X784000Y963000D02*
X786000Y961000D01*
X784000Y963000D02*
Y969000D01*
X693000Y950000D02*
X695000Y952000D01*
X756000Y962000D02*
X760000Y958000D01*
X735000Y854000D02*
X747000Y842000D01*
X697000Y854000D02*
X735000D01*
X687000Y830000D02*
X691000Y834000D01*
X679000Y830000D02*
X687000D01*
X661910Y901910D02*
X668570D01*
X671000Y899480D01*
Y894000D02*
Y899480D01*
Y894000D02*
X675000Y890000D01*
X661000Y901000D02*
X661910Y901910D01*
X648000Y820000D02*
Y831000D01*
D55*
X1069000Y1158000D02*
X1102000D01*
X1263000Y997000D01*
D57*
X1332000Y1199000D02*
Y1233000D01*
X1324000Y1241000D02*
X1332000Y1233000D01*
X1324000Y1241000D02*
Y1269000D01*
Y1308000D02*
X1330000D01*
X1339000Y1299000D01*
Y1284000D02*
Y1299000D01*
X1324000Y1269000D02*
X1339000Y1284000D01*
X1315000Y1182000D02*
X1332000Y1199000D01*
X1207000Y1273000D02*
X1242000Y1308000D01*
X1324000D01*
D58*
X517000Y775000D02*
X538000D01*
X555000D01*
D65*
X803270Y813030D02*
X808250Y818010D01*
X798750Y804500D02*
Y832250D01*
X773000Y846000D02*
X796000Y823000D01*
Y803000D02*
Y823000D01*
X876492Y825250D02*
X880798Y829556D01*
X894250Y762500D02*
X898750Y767000D01*
X840750Y762500D02*
X894250D01*
X898750Y767000D02*
Y774750D01*
X798750Y804500D02*
X840750Y762500D01*
X791000Y840000D02*
X798750Y832250D01*
X783230Y840000D02*
X791000D01*
X775000Y848230D02*
X783230Y840000D01*
X766996Y846000D02*
X773000D01*
X775000Y848230D02*
Y870004D01*
X920800Y772300D02*
Y789554D01*
X908000Y759500D02*
X920800Y772300D01*
X839500Y759500D02*
X908000D01*
X796000Y803000D02*
X839500Y759500D01*
X917250Y801500D02*
X922250D01*
X914500Y798750D02*
X917250Y801500D01*
X909000Y798750D02*
X914500D01*
X905250Y795000D02*
X909000Y798750D01*
X905250Y790000D02*
Y795000D01*
X920796Y813550D02*
X924750Y809596D01*
Y804000D02*
Y809596D01*
X922250Y801500D02*
X924750Y804000D01*
X901004Y777004D02*
X907000D01*
X898750Y774750D02*
X901004Y777004D01*
X907000D02*
X909800Y779804D01*
X883750Y768500D02*
X905250Y790000D01*
X838750Y768500D02*
X883750D01*
X803500Y803750D02*
X838750Y768500D01*
X803500Y803750D02*
Y807000D01*
X902750Y860250D02*
X906000D01*
X901250Y858750D02*
X902750Y860250D01*
X901250Y855750D02*
Y858750D01*
X892750Y851250D02*
X895250D01*
X890750Y849250D02*
X892750Y851250D01*
X890750Y843500D02*
Y849250D01*
X888750Y841500D02*
X890750Y843500D01*
X886250Y841500D02*
X888750D01*
X884250Y843500D02*
X886250Y841500D01*
X771003Y914000D02*
X775007Y909997D01*
X909750Y868000D02*
X919250D01*
X920800Y869550D01*
X907750Y862000D02*
Y866000D01*
X909750Y868000D01*
X906000Y860250D02*
X907750Y862000D01*
X895250Y851250D02*
X897750Y848750D01*
X900750D01*
X903000Y851000D01*
Y854000D01*
X901250Y855750D02*
X903000Y854000D01*
X876000Y858250D02*
X884250Y850000D01*
Y843500D02*
Y850000D01*
X775007Y896243D02*
Y909997D01*
X860000Y821750D02*
X863500Y825250D01*
X876492D01*
X837299Y804201D02*
Y822696D01*
X860000Y803250D02*
Y821750D01*
X837299Y804201D02*
X843000Y798500D01*
X855250D01*
X860000Y803250D01*
X864796Y829554D02*
Y843704D01*
X836250Y831750D02*
X842250Y825750D01*
X836250Y831750D02*
Y844750D01*
X843500Y852000D01*
X860000Y848500D02*
X864796Y843704D01*
X844921Y836666D02*
X856750Y824837D01*
X843500Y852000D02*
Y859750D01*
X847250Y863500D01*
X855500D01*
X860000Y859000D01*
Y848500D02*
Y859000D01*
X842250Y806500D02*
Y825750D01*
Y806500D02*
X846500Y802250D01*
X852000D01*
X856750Y807000D01*
Y824837D01*
X880796Y789554D02*
X885750Y784600D01*
X881500Y771500D02*
X885750Y775750D01*
Y784600D01*
X825250Y786000D02*
X830250Y781000D01*
X837250D01*
X842500Y786250D01*
X808250Y818010D02*
Y835000D01*
X812000Y838750D01*
X858250Y777250D02*
X864000Y771500D01*
X881500D01*
X812000Y838750D02*
X821250D01*
X825250Y834750D01*
Y786000D02*
Y834750D01*
X842500Y786250D02*
Y791500D01*
X846000Y795000D01*
X854750D01*
X858250Y791500D01*
Y777250D02*
Y791500D01*
X845000Y917750D02*
X847750Y920500D01*
X856000D01*
X858750Y917750D01*
X801500Y886500D02*
X804250Y883750D01*
X811500D01*
X814500Y886750D01*
X858750Y890500D02*
Y917750D01*
X801500Y886500D02*
Y890000D01*
X859250Y864500D02*
X865500Y858250D01*
X876000D01*
X852500Y884250D02*
X858750Y890500D01*
X817500Y902000D02*
X821250Y905750D01*
X845000Y891500D02*
Y917750D01*
X814500Y886750D02*
Y910000D01*
X859250Y864500D02*
Y870250D01*
X822750Y874500D02*
X855000D01*
X859250Y870250D01*
X775007Y896243D02*
X786000Y885250D01*
Y877500D02*
Y885250D01*
Y877500D02*
X792750Y870750D01*
X819000D01*
X822750Y874500D01*
X829000Y877250D02*
X865750D01*
X872800Y884300D01*
Y893550D01*
X811750Y873500D02*
X817500Y879250D01*
Y902000D01*
X789000Y879750D02*
X795250Y873500D01*
X811750D01*
X789000Y879750D02*
Y890000D01*
X808000Y902000D02*
X810000Y900000D01*
X793160Y894160D02*
X808160D01*
X810000Y896000D01*
Y900000D01*
X783000Y902000D02*
X808000D01*
X779000Y898000D02*
X783000Y902000D01*
X789000Y890000D02*
X793160Y894160D01*
X824750Y881500D02*
Y887750D01*
Y881500D02*
X829000Y877250D01*
X762998Y842001D02*
X766996Y846000D01*
X771001Y874002D02*
X775000Y870004D01*
X831250Y894250D02*
Y902230D01*
X824750Y887750D02*
X831250Y894250D01*
X842750Y889250D02*
X845000Y891500D01*
X834000Y891000D02*
X835750Y889250D01*
X842750D01*
X834000Y891000D02*
Y910250D01*
X821250Y905750D02*
X827730D01*
X831250Y902230D01*
X814500Y910000D02*
X819750Y915250D01*
X829000D01*
X834000Y910250D01*
D69*
X689050Y1230900D02*
D03*
D70*
X480250Y1242500D02*
D03*
Y1179000D02*
D03*
D71*
X284000Y933000D02*
D03*
X1263000Y997000D02*
D03*
X1069000Y1158000D02*
D03*
X1001000Y1118000D02*
D03*
X317000Y763000D02*
D03*
Y753000D02*
D03*
X573000Y1073000D02*
D03*
X1015000Y729000D02*
D03*
X985000D02*
D03*
X924000Y736000D02*
D03*
D72*
X495000Y880000D02*
D03*
X382000Y972000D02*
D03*
X731000Y796000D02*
D03*
D73*
X517000Y775000D02*
D03*
X555000D02*
D03*
X1207000Y1273000D02*
D03*
X1324000Y1308000D02*
D03*
X1315000Y1182000D02*
D03*
D91*
X579000Y770750D02*
Y786250D01*
X562000Y753750D02*
X579000Y770750D01*
X553500Y811750D02*
X579000Y786250D01*
X630750Y772000D02*
X637000Y778250D01*
Y802000D01*
X565750Y823250D02*
X617000Y772000D01*
X630750D01*
X557500Y823250D02*
X565750D01*
X553500Y819250D02*
X557500Y823250D01*
X553500Y811750D02*
Y819250D01*
M02*
