G04 Layer_Physical_Order=4*
G04 Layer_Color=128*
%FSLAX44Y44*%
%MOMM*%
G71*
G01*
G75*
%ADD46C,0.2500*%
%ADD70C,2.5000*%
%ADD71C,0.6000*%
%ADD77C,1.0160*%
%ADD78C,2.5000*%
%ADD79C,3.2000*%
%ADD80C,3.0000*%
%ADD81C,2.4000*%
%ADD82C,2.9000*%
%ADD84C,3.0500*%
%ADD85C,0.9000*%
%ADD86C,1.0000*%
%ADD87C,0.7000*%
%ADD88C,1.1000*%
%ADD89C,1.4000*%
%ADD90C,1.6000*%
D46*
X1249000Y957000D02*
Y962000D01*
X759000Y799000D02*
X770000Y788000D01*
X759000Y843500D02*
Y899000D01*
X770000Y677000D02*
Y788000D01*
X759000Y899000D02*
X762000Y902000D01*
X759000Y799000D02*
Y854000D01*
X1048774Y1163774D02*
X1066226D01*
X1060000D02*
Y1186000D01*
X1053000Y1193000D02*
X1060000Y1186000D01*
X1040775Y1163774D02*
X1060000D01*
X1014000Y1131000D02*
X1035725Y1152726D01*
Y1158726D01*
X1042000Y1060000D02*
X1058000D01*
X1063000Y1065000D01*
Y1091000D01*
X1092000Y1120000D01*
Y1126802D01*
X1088000Y1130802D02*
X1092000Y1126802D01*
X1088000Y1130802D02*
Y1142000D01*
X1066226Y1163774D02*
X1088000Y1142000D01*
X770000Y925000D02*
X932000Y1087000D01*
X1207000Y1124000D02*
Y1360000D01*
Y1124000D02*
X1249000Y1082000D01*
Y957000D02*
Y1082000D01*
X1230000Y957000D02*
X1249000D01*
X958000Y1074000D02*
X1034000D01*
X727000Y806000D02*
Y902000D01*
Y806000D02*
X734000Y799000D01*
X759000D01*
X1218000Y969000D02*
X1230000Y957000D01*
X1218000Y969000D02*
Y1068000D01*
X1162000Y1124000D02*
X1218000Y1068000D01*
X1162000Y1124000D02*
Y1215000D01*
X1128000Y1249000D02*
X1162000Y1215000D01*
X501000Y677000D02*
Y705000D01*
X621000Y825000D01*
X932000Y1087000D02*
Y1127000D01*
X958000Y1074000D02*
Y1114000D01*
X932000Y1127000D02*
X964000Y1159000D01*
X992000D01*
X1026000Y1193000D01*
X958000Y1114000D02*
X975000Y1131000D01*
X1014000D01*
X786000Y902000D02*
X952000Y1068000D01*
X958000Y1074000D01*
X1035725Y1158726D02*
X1040775Y1163774D01*
X1026000Y1193000D02*
X1053000D01*
X750000Y925000D02*
X770000D01*
X762000Y902000D02*
X786000D01*
X981000Y677000D02*
Y985000D01*
X1034000Y1074000D02*
X1042000Y1066000D01*
Y1046000D02*
Y1066000D01*
X981000Y985000D02*
X1042000Y1046000D01*
X727000Y902000D02*
X750000Y925000D01*
X621000Y825000D02*
Y1068000D01*
X1249000Y957000D02*
X1281000Y925000D01*
X1385000D01*
X1353000Y1014000D02*
Y1083000D01*
Y1014000D02*
X1363000Y1004000D01*
X1385000D01*
X1337000Y1099000D02*
X1353000Y1083000D01*
X1337000Y1099000D02*
Y1120000D01*
X1347000Y1130000D01*
X1380000D01*
X1207000Y1202000D02*
X1233000D01*
X1248000Y1187000D01*
Y1141000D02*
Y1187000D01*
Y1141000D02*
X1291000Y1098000D01*
Y990000D02*
Y1098000D01*
Y990000D02*
X1313000Y968000D01*
X1385000D01*
X1380000Y1130000D02*
X1385000Y1125000D01*
X337000Y1005000D02*
Y1081000D01*
Y1005000D02*
X445000Y897000D01*
X581000D01*
X621000Y937000D01*
X337000Y1081000D02*
X415000Y1159000D01*
X653000D01*
X682500Y1129500D01*
X621000Y1068000D02*
X913000Y1360000D01*
X900000Y1265000D02*
X923000Y1288000D01*
X954000D01*
X973000Y1307000D01*
Y1360000D01*
X900000Y1247000D02*
Y1265000D01*
Y1224000D02*
X908000Y1216000D01*
X925802D02*
X958802Y1249000D01*
X900000Y1224000D02*
Y1247000D01*
X958802Y1249000D02*
X1128000D01*
X908000Y1216000D02*
X925802D01*
D70*
X285000Y697000D02*
D03*
X1365000D02*
D03*
X1365000Y1340000D02*
D03*
X285000D02*
D03*
D71*
X842500Y1111750D02*
D03*
X760000Y975679D02*
D03*
X765000Y980500D02*
D03*
X836750Y1066500D02*
D03*
X835500Y1073250D02*
D03*
X902250Y1138250D02*
D03*
X663625Y973625D02*
D03*
X822750Y1036000D02*
D03*
X837500Y1043250D02*
D03*
X855750Y1026500D02*
D03*
X880000Y1048000D02*
D03*
X349250Y1033500D02*
D03*
X312000Y1065000D02*
D03*
X466250Y1116250D02*
D03*
X872796Y781554D02*
D03*
X842420Y734750D02*
D03*
X781538Y801462D02*
D03*
X760037Y968297D02*
D03*
X783000Y808000D02*
D03*
X766750Y783750D02*
D03*
X811830Y756420D02*
D03*
X757000Y771000D02*
D03*
X791140Y814710D02*
D03*
X803270Y813030D02*
D03*
X803290Y819380D02*
D03*
X832250Y951000D02*
D03*
X809000Y960000D02*
D03*
X872800Y909550D02*
D03*
X822000Y952750D02*
D03*
X935750Y1070250D02*
D03*
X1010250Y1028000D02*
D03*
X982419Y1039919D02*
D03*
X929000Y1029250D02*
D03*
X934875Y1020750D02*
D03*
X954500Y1029250D02*
D03*
X918170Y1026920D02*
D03*
X929000Y1053625D02*
D03*
X794500Y791750D02*
D03*
X687919Y976169D02*
D03*
X698999Y937998D02*
D03*
X706999D02*
D03*
X715000Y938000D02*
D03*
X691000Y946000D02*
D03*
X699000D02*
D03*
X707000D02*
D03*
X715000D02*
D03*
X699000Y954000D02*
D03*
X722000Y964000D02*
D03*
X715000Y954000D02*
D03*
X699000Y962000D02*
D03*
X691000Y963500D02*
D03*
X682999Y945998D02*
D03*
X648250Y929750D02*
D03*
X707000Y914000D02*
D03*
X715000Y906000D02*
D03*
X707000D02*
D03*
X658800Y913900D02*
D03*
X651000Y906000D02*
D03*
X658999Y905998D02*
D03*
X683000Y922000D02*
D03*
X674999Y929998D02*
D03*
X683000Y914000D02*
D03*
X667000Y938000D02*
D03*
X699000Y922000D02*
D03*
X591000Y822000D02*
D03*
X1264250Y884750D02*
D03*
X936796Y829550D02*
D03*
X779000Y866000D02*
D03*
X591000Y846000D02*
D03*
X880800Y837554D02*
D03*
Y829554D02*
D03*
X911250Y805250D02*
D03*
X920796Y813550D02*
D03*
X707000Y834000D02*
D03*
X674999Y833999D02*
D03*
X910752Y855502D02*
D03*
X803500Y807000D02*
D03*
X888810Y924540D02*
D03*
X470000Y766000D02*
D03*
X469000Y706000D02*
D03*
X523000Y788000D02*
D03*
X616000Y870000D02*
D03*
X310000Y1226000D02*
D03*
X348000Y1101000D02*
D03*
X381000Y1018000D02*
D03*
X431000Y1070000D02*
D03*
X465000Y1103000D02*
D03*
X338484Y978000D02*
D03*
X348000Y1023000D02*
D03*
X382000Y1093100D02*
D03*
X429000Y1094000D02*
D03*
X523000Y1276000D02*
D03*
X971000Y1173000D02*
D03*
X632080Y871000D02*
D03*
X675000Y874000D02*
D03*
X667000Y874000D02*
D03*
X667000Y866000D02*
D03*
X659000Y866000D02*
D03*
X649000Y952000D02*
D03*
Y945000D02*
D03*
X949750Y1150500D02*
D03*
X667000Y702000D02*
D03*
X745000Y715000D02*
D03*
X1308000Y792000D02*
D03*
X1058000Y1074000D02*
D03*
X988000Y1104000D02*
D03*
X1100000Y1070000D02*
D03*
X1125000Y1077000D02*
D03*
X978000Y1047000D02*
D03*
X999000Y832000D02*
D03*
Y848000D02*
D03*
Y864000D02*
D03*
X1100000Y1086000D02*
D03*
X1024000Y916000D02*
D03*
X1015000Y916000D02*
D03*
X1330000Y751000D02*
D03*
X1320000D02*
D03*
X1313000Y827000D02*
D03*
X1329000Y852000D02*
D03*
X1303500Y761500D02*
D03*
X1019000Y859000D02*
D03*
X1029000Y868000D02*
D03*
X1034000Y856000D02*
D03*
X999000Y816000D02*
D03*
X1293000Y863000D02*
D03*
X1320000Y852000D02*
D03*
X952000Y1048000D02*
D03*
X584000Y1138000D02*
D03*
X768000Y1061000D02*
D03*
X610000Y875000D02*
D03*
X769000Y802000D02*
D03*
X815000Y962000D02*
D03*
X618000Y894000D02*
D03*
X1132000Y725974D02*
D03*
X1172000Y830000D02*
D03*
X1069974Y831000D02*
D03*
X1096000Y831000D02*
D03*
X1122000D02*
D03*
X1148000D02*
D03*
X1226000D02*
D03*
X1044000Y787000D02*
D03*
X1069974Y787000D02*
D03*
X1096000Y787000D02*
D03*
X1148000D02*
D03*
X1174000D02*
D03*
X1200000D02*
D03*
X1226000D02*
D03*
X1200000Y742000D02*
D03*
X1044000D02*
D03*
X1134000Y868000D02*
D03*
X1124000D02*
D03*
X1119000Y916000D02*
D03*
X1129000Y916000D02*
D03*
X1154000Y868000D02*
D03*
X1149000Y916000D02*
D03*
X1139000Y916000D02*
D03*
X1164000Y868000D02*
D03*
X1174000D02*
D03*
X1184000D02*
D03*
X783000Y1055000D02*
D03*
X772000Y1040920D02*
D03*
X773000Y1031000D02*
D03*
X748000Y1035000D02*
D03*
X799000Y1073000D02*
D03*
X701000Y989000D02*
D03*
X694000D02*
D03*
X884000Y1028000D02*
D03*
X724996Y1081000D02*
D03*
X711998Y1086002D02*
D03*
X707750Y1026000D02*
D03*
X718998Y1020998D02*
D03*
X680000Y1067000D02*
D03*
X895971Y917460D02*
D03*
X763000Y938000D02*
D03*
X771001Y937998D02*
D03*
X731001D02*
D03*
X755001D02*
D03*
X747001D02*
D03*
X739001D02*
D03*
X723000Y938000D02*
D03*
X738999Y945998D02*
D03*
X731000Y946000D02*
D03*
X1069000Y916000D02*
D03*
X762998Y945998D02*
D03*
X1216350Y957200D02*
D03*
X788000Y965000D02*
D03*
X779000Y954000D02*
D03*
X787000D02*
D03*
X755250Y811000D02*
D03*
X1147000Y953000D02*
D03*
X1000950Y957200D02*
D03*
X1013650D02*
D03*
X1020000Y953000D02*
D03*
X994600D02*
D03*
X1007300D02*
D03*
X1197800Y956000D02*
D03*
X1210500Y953000D02*
D03*
X1159700D02*
D03*
X1185100D02*
D03*
X1172400D02*
D03*
X1096200D02*
D03*
X1108900D02*
D03*
X1134300D02*
D03*
X1121600D02*
D03*
X1083500D02*
D03*
X1054000Y868000D02*
D03*
X1049000Y916000D02*
D03*
X1209000D02*
D03*
X1189000Y916000D02*
D03*
X1169000Y916000D02*
D03*
X1179000D02*
D03*
X1159000Y916000D02*
D03*
X1089000Y916000D02*
D03*
X1099000D02*
D03*
X1109000D02*
D03*
X1079000D02*
D03*
X1214000Y868000D02*
D03*
X1204000D02*
D03*
X1144000D02*
D03*
X1194000D02*
D03*
X1104000D02*
D03*
X1114000D02*
D03*
X1084000D02*
D03*
X1059000Y916000D02*
D03*
X1204150Y957200D02*
D03*
X1191450Y962200D02*
D03*
X1178750Y957200D02*
D03*
X1166050D02*
D03*
X1153350D02*
D03*
X1140650D02*
D03*
X1127950D02*
D03*
X1115250D02*
D03*
X1102550D02*
D03*
X1089850D02*
D03*
X1077150D02*
D03*
X731000Y764000D02*
D03*
X764250Y809000D02*
D03*
X645000Y753000D02*
D03*
X305000Y791000D02*
D03*
X296000Y842200D02*
D03*
X288000D02*
D03*
X727000Y718000D02*
D03*
X732000Y713000D02*
D03*
X720000Y734000D02*
D03*
X719000Y718000D02*
D03*
X719000Y726000D02*
D03*
X1094000Y868000D02*
D03*
X1143000Y1092000D02*
D03*
X1085000Y1140000D02*
D03*
X1012000Y1205000D02*
D03*
X1066000Y1184000D02*
D03*
X1150000Y1029000D02*
D03*
X1079750Y1144000D02*
D03*
X1088000Y1116000D02*
D03*
X976000Y1126000D02*
D03*
X1006500Y1143000D02*
D03*
X1013500Y1141750D02*
D03*
X542874Y876000D02*
D03*
X514000Y817000D02*
D03*
X439000Y824000D02*
D03*
X419000Y809000D02*
D03*
X457000Y824000D02*
D03*
X564000Y888000D02*
D03*
X572100Y922400D02*
D03*
X586000Y968000D02*
D03*
Y986000D02*
D03*
X618000Y914000D02*
D03*
X422000Y785000D02*
D03*
X457000Y809000D02*
D03*
X618000Y932000D02*
D03*
X582000Y798000D02*
D03*
X573000Y854000D02*
D03*
Y870000D02*
D03*
X643000Y759000D02*
D03*
X645000Y765000D02*
D03*
X459000Y963000D02*
D03*
X494000Y854000D02*
D03*
X385000Y955000D02*
D03*
X381000Y921000D02*
D03*
X296000Y867600D02*
D03*
X288000Y893000D02*
D03*
X296000D02*
D03*
X656000Y1099000D02*
D03*
X666000Y1093000D02*
D03*
X439000Y864000D02*
D03*
Y870000D02*
D03*
Y876000D02*
D03*
Y882000D02*
D03*
X653000Y816000D02*
D03*
X667000Y890000D02*
D03*
X645000Y772000D02*
D03*
Y786000D02*
D03*
Y779000D02*
D03*
X667000Y850000D02*
D03*
X659000D02*
D03*
X615000Y1072000D02*
D03*
X603000Y1033300D02*
D03*
X617000Y1014000D02*
D03*
X680000Y1086000D02*
D03*
X715000Y1288000D02*
D03*
X697000D02*
D03*
X578000Y1193000D02*
D03*
X725000Y1313000D02*
D03*
X716000Y1322000D02*
D03*
X691000Y1328000D02*
D03*
X700000Y1319000D02*
D03*
X551000Y1244000D02*
D03*
X673000Y1314000D02*
D03*
X658997Y890000D02*
D03*
X675000Y890000D02*
D03*
X551000Y1056000D02*
D03*
X336000Y952000D02*
D03*
X527000Y706000D02*
D03*
X543000D02*
D03*
X577000D02*
D03*
X560000D02*
D03*
X609000D02*
D03*
X593000D02*
D03*
X511000D02*
D03*
X288000Y791400D02*
D03*
Y816800D02*
D03*
X296000D02*
D03*
X288000Y867600D02*
D03*
X399000Y706000D02*
D03*
X421000D02*
D03*
X394000Y1128000D02*
D03*
X286000Y717000D02*
D03*
X459000Y1062500D02*
D03*
X778998Y945998D02*
D03*
X675000Y850000D02*
D03*
X707000Y874000D02*
D03*
X666999Y897998D02*
D03*
X603000Y1007900D02*
D03*
Y1084100D02*
D03*
X490000Y1144000D02*
D03*
X342000Y1155000D02*
D03*
X563000Y1163000D02*
D03*
X554000Y1222000D02*
D03*
X563000Y1144000D02*
D03*
X527000D02*
D03*
X506000Y1230000D02*
D03*
X577000Y1212000D02*
D03*
X562000Y1255000D02*
D03*
X543000Y1294000D02*
D03*
X515000Y1239000D02*
D03*
X475000Y1290000D02*
D03*
X521484Y1062500D02*
D03*
X459000Y1056000D02*
D03*
Y1082000D02*
D03*
X1074000Y868000D02*
D03*
X1061000Y1124750D02*
D03*
Y1112750D02*
D03*
Y1100750D02*
D03*
X1029000Y1092750D02*
D03*
X1053000D02*
D03*
X1041000D02*
D03*
X844000Y1174500D02*
D03*
X820696D02*
D03*
X382000Y1101000D02*
D03*
X310000Y1289000D02*
D03*
X352000Y1237000D02*
D03*
X409000Y1284000D02*
D03*
X367000Y1209000D02*
D03*
X350000Y1329000D02*
D03*
X394000Y1146000D02*
D03*
X381000Y1228000D02*
D03*
X429000Y1043000D02*
D03*
X301000Y1094000D02*
D03*
X376000Y1182000D02*
D03*
X429000Y1063000D02*
D03*
X301000Y1114000D02*
D03*
X348000Y1042300D02*
D03*
X373000Y1009000D02*
D03*
X276000Y981000D02*
D03*
Y961500D02*
D03*
Y955000D02*
D03*
Y968000D02*
D03*
X667000Y1167700D02*
D03*
Y1155000D02*
D03*
X521484Y1082000D02*
D03*
X612000Y1058700D02*
D03*
X632000Y1180000D02*
D03*
X633434Y1319907D02*
D03*
X632000Y1241500D02*
D03*
X339000Y946000D02*
D03*
X335502Y958502D02*
D03*
X619000Y1006900D02*
D03*
X574548Y1058700D02*
D03*
X610000Y1038000D02*
D03*
X615000Y1086000D02*
D03*
X559000Y1020600D02*
D03*
Y1009000D02*
D03*
X459000Y1069000D02*
D03*
X493000Y1049000D02*
D03*
X491000Y1073000D02*
D03*
X450000Y753000D02*
D03*
X443000D02*
D03*
X1048000Y1074000D02*
D03*
X634000Y1170000D02*
D03*
X1021000Y1125250D02*
D03*
Y1113250D02*
D03*
Y1101250D02*
D03*
X1028750Y1133000D02*
D03*
X1040750D02*
D03*
X1052750D02*
D03*
X439000Y934000D02*
D03*
X494000Y838000D02*
D03*
X477000Y798000D02*
D03*
X428000Y819000D02*
D03*
X645000Y743000D02*
D03*
X714999Y825998D02*
D03*
X649000Y693000D02*
D03*
X668000Y693000D02*
D03*
X687000D02*
D03*
Y742000D02*
D03*
X739000Y834000D02*
D03*
X731002Y825996D02*
D03*
X738999Y825998D02*
D03*
X690000Y759000D02*
D03*
Y765000D02*
D03*
X684000Y756000D02*
D03*
X707002Y817999D02*
D03*
X723002D02*
D03*
X731002D02*
D03*
X738999Y817998D02*
D03*
X715002Y817999D02*
D03*
X755000Y834000D02*
D03*
X779000Y826000D02*
D03*
X771000Y874000D02*
D03*
X747000Y922000D02*
D03*
X755000Y842000D02*
D03*
Y898000D02*
D03*
X739000D02*
D03*
X754999Y865998D02*
D03*
X715000Y914000D02*
D03*
X731000Y906000D02*
D03*
X715000Y858000D02*
D03*
X691000Y882000D02*
D03*
Y858000D02*
D03*
X747000Y850000D02*
D03*
X771000Y866000D02*
D03*
X763000Y914000D02*
D03*
X730999Y921998D02*
D03*
X691000Y906000D02*
D03*
X698999Y897998D02*
D03*
X739000Y882000D02*
D03*
X731000Y898000D02*
D03*
X699000Y906000D02*
D03*
X723000Y826000D02*
D03*
X707000Y882000D02*
D03*
X715000Y842000D02*
D03*
X778999Y929998D02*
D03*
X666999Y833999D02*
D03*
X763000Y834000D02*
D03*
X731000Y930000D02*
D03*
X690999Y889998D02*
D03*
X691000Y850000D02*
D03*
X667000Y922000D02*
D03*
X755000Y826000D02*
D03*
X715000Y834000D02*
D03*
X658999Y833999D02*
D03*
X747000Y842000D02*
D03*
X771000Y834000D02*
D03*
X739000Y842000D02*
D03*
X706999Y841998D02*
D03*
Y825998D02*
D03*
X770999Y913998D02*
D03*
X779000Y834000D02*
D03*
X691000Y842000D02*
D03*
X738999Y857998D02*
D03*
X770999Y945998D02*
D03*
X763000Y826000D02*
D03*
X746998Y865998D02*
D03*
X715000Y874000D02*
D03*
X699000Y882000D02*
D03*
X763000Y842000D02*
D03*
X746999Y945998D02*
D03*
X731000Y842000D02*
D03*
X771000Y882000D02*
D03*
X699000Y866000D02*
D03*
X747000Y858000D02*
D03*
X722999Y849998D02*
D03*
X674999Y881998D02*
D03*
X747000Y914000D02*
D03*
X755000Y882000D02*
D03*
X747000Y898000D02*
D03*
Y882000D02*
D03*
X763000Y818000D02*
D03*
X731000Y914000D02*
D03*
X715000Y922000D02*
D03*
Y898000D02*
D03*
X707000D02*
D03*
X675000D02*
D03*
X731000Y882000D02*
D03*
X739000Y866000D02*
D03*
X731000D02*
D03*
X715000Y866000D02*
D03*
Y890000D02*
D03*
Y882000D02*
D03*
X707000Y866000D02*
D03*
X779000Y858000D02*
D03*
X771000Y930000D02*
D03*
X778999Y913998D02*
D03*
X771000Y858000D02*
D03*
X779000Y850000D02*
D03*
Y922000D02*
D03*
X770999Y921998D02*
D03*
X928800Y877550D02*
D03*
X936800Y861550D02*
D03*
X928800D02*
D03*
X920800Y909550D02*
D03*
X804277Y897990D02*
D03*
X828620Y760466D02*
D03*
X872800Y893550D02*
D03*
X804280Y829050D02*
D03*
X880796Y797554D02*
D03*
X864800Y853550D02*
D03*
X880800Y901550D02*
D03*
Y893550D02*
D03*
X864800Y901550D02*
D03*
X888796Y877550D02*
D03*
X864796Y829554D02*
D03*
X880796Y805554D02*
D03*
X864796Y813554D02*
D03*
X872796D02*
D03*
X880796D02*
D03*
X872796Y805554D02*
D03*
X864796Y797554D02*
D03*
X872796D02*
D03*
X880796Y789554D02*
D03*
X864796Y781554D02*
D03*
X936796Y781550D02*
D03*
Y797550D02*
D03*
X928796Y805550D02*
D03*
X920796D02*
D03*
X928796Y813550D02*
D03*
X936796D02*
D03*
X920800Y869550D02*
D03*
Y877550D02*
D03*
X936800Y901550D02*
D03*
X928800D02*
D03*
X936800Y909550D02*
D03*
X837299Y822696D02*
D03*
X838290Y853480D02*
D03*
X967700Y831000D02*
D03*
X779000Y906000D02*
D03*
X771000D02*
D03*
Y898000D02*
D03*
X779000D02*
D03*
X771000Y842000D02*
D03*
Y850000D02*
D03*
X794999Y953998D02*
D03*
X779002Y938002D02*
D03*
X446000Y688000D02*
D03*
X470000Y688000D02*
D03*
X399000Y688000D02*
D03*
X421000D02*
D03*
X771000Y954000D02*
D03*
X780000Y966000D02*
D03*
X795000Y971000D02*
D03*
X1064450Y963200D02*
D03*
X1058100Y959000D02*
D03*
X1051750Y956200D02*
D03*
X1045400Y952000D02*
D03*
X1070800Y953000D02*
D03*
X1039000Y916000D02*
D03*
X584000Y1151000D02*
D03*
X601000Y931000D02*
D03*
X522000Y960000D02*
D03*
Y952000D02*
D03*
X478000Y1001000D02*
D03*
X438000Y987000D02*
D03*
X962000Y885500D02*
D03*
X961500Y896750D02*
D03*
X872796Y877550D02*
D03*
X837300Y797050D02*
D03*
X521484Y1049500D02*
D03*
X659000Y874000D02*
D03*
X675000Y866000D02*
D03*
X671000Y964500D02*
D03*
X698995Y834005D02*
D03*
X691000Y834000D02*
D03*
X683000D02*
D03*
X683000Y826000D02*
D03*
X637000Y955000D02*
D03*
X643000Y949000D02*
D03*
X649000Y885000D02*
D03*
X603000Y856000D02*
D03*
X921000Y1111000D02*
D03*
X687000Y989000D02*
D03*
X676000Y1004000D02*
D03*
X963000Y1065000D02*
D03*
X941998Y1047998D02*
D03*
X1001000Y803000D02*
D03*
X1350000Y716000D02*
D03*
X1319000Y699010D02*
D03*
X980000Y1066000D02*
D03*
X527000Y1164000D02*
D03*
X480000Y1137000D02*
D03*
X838700Y869600D02*
D03*
X880796Y781554D02*
D03*
X804280Y866000D02*
D03*
X778998Y874002D02*
D03*
X804273Y854006D02*
D03*
X779000Y882001D02*
D03*
X872800Y837554D02*
D03*
X928800Y869550D02*
D03*
X936800D02*
D03*
X962500Y875250D02*
D03*
X962000Y864900D02*
D03*
X928796Y797550D02*
D03*
X920796D02*
D03*
X880796Y821554D02*
D03*
X920796Y821550D02*
D03*
X819750Y773167D02*
D03*
X911800Y789554D02*
D03*
X909800Y779804D02*
D03*
X920800Y789554D02*
D03*
X924798Y779048D02*
D03*
X961750Y853750D02*
D03*
X651000Y922000D02*
D03*
X659000D02*
D03*
X855074Y836666D02*
D03*
X844921D02*
D03*
X801500Y890000D02*
D03*
X852500Y884250D02*
D03*
X648000Y820000D02*
D03*
X591000Y807000D02*
D03*
X598500Y797750D02*
D03*
X645000Y793000D02*
D03*
X645000Y802000D02*
D03*
X637000D02*
D03*
X598750Y804750D02*
D03*
X562000Y753750D02*
D03*
X541000Y754000D02*
D03*
X839550Y881650D02*
D03*
X771000Y890000D02*
D03*
X928796Y837550D02*
D03*
X920796Y845554D02*
D03*
X872796Y789554D02*
D03*
X712500Y970000D02*
D03*
X735250Y1091000D02*
D03*
X716750D02*
D03*
X728250Y1031000D02*
D03*
X713250D02*
D03*
X651002Y841999D02*
D03*
X659002D02*
D03*
X667002D02*
D03*
X675002D02*
D03*
X872800Y869551D02*
D03*
X480750Y937000D02*
D03*
X1323250Y895000D02*
D03*
X1263750Y938250D02*
D03*
X928800Y885550D02*
D03*
Y893550D02*
D03*
X796660Y906002D02*
D03*
X804280D02*
D03*
X827140Y897617D02*
D03*
X838740Y893630D02*
D03*
X827140Y919190D02*
D03*
X839120Y908140D02*
D03*
X827138Y909554D02*
D03*
X920800Y893550D02*
D03*
X920796Y901550D02*
D03*
D77*
X265000Y677000D02*
X1385000Y677000D01*
Y1360000D01*
X265000D02*
X1385000D01*
X265000Y677000D02*
Y1360000D01*
D78*
X1318430Y1290110D02*
D03*
X1267630Y1340910D02*
D03*
Y1290110D02*
D03*
X1293030D02*
D03*
X1318430Y1340910D02*
D03*
D79*
X1170430Y1308910D02*
D03*
Y1246910D02*
D03*
X1120430Y1277910D02*
D03*
D80*
X884750Y1239500D02*
D03*
X959750D02*
D03*
X809750D02*
D03*
X834750Y1214500D02*
D03*
X934750D02*
D03*
Y1339500D02*
D03*
X834750D02*
D03*
D81*
X714050Y1230900D02*
D03*
X689050D02*
D03*
X714050Y1250900D02*
D03*
X689050D02*
D03*
D82*
X641350Y1278000D02*
D03*
X761750D02*
D03*
D84*
X605250Y1306000D02*
D03*
Y1242500D02*
D03*
Y1179000D02*
D03*
X599750Y1338500D02*
D03*
X485750Y1211500D02*
D03*
X599750Y1275000D02*
D03*
Y1211500D02*
D03*
X485750Y1275000D02*
D03*
Y1338500D02*
D03*
X480250Y1242500D02*
D03*
Y1306000D02*
D03*
Y1179000D02*
D03*
X440750Y1306000D02*
D03*
Y1242500D02*
D03*
Y1179000D02*
D03*
X435250Y1338500D02*
D03*
X321250Y1211500D02*
D03*
X435250Y1275000D02*
D03*
Y1211500D02*
D03*
X321250Y1275000D02*
D03*
Y1338500D02*
D03*
X315750Y1242500D02*
D03*
Y1306000D02*
D03*
Y1179000D02*
D03*
D85*
X812000Y1026000D02*
D03*
X662750Y984000D02*
D03*
X284000Y933000D02*
D03*
X439000Y942250D02*
D03*
X830000Y1026000D02*
D03*
X821000D02*
D03*
X922250Y1167250D02*
D03*
X1033000Y1071000D02*
D03*
X1011000Y1083000D02*
D03*
X1263000Y997000D02*
D03*
X603000Y923000D02*
D03*
X1124000Y1179000D02*
D03*
X1069000Y1158000D02*
D03*
X1086000Y1132000D02*
D03*
X1001000Y1118000D02*
D03*
X984000Y1126000D02*
D03*
X439000Y856000D02*
D03*
X317000Y763000D02*
D03*
Y753000D02*
D03*
X314000Y742000D02*
D03*
Y732000D02*
D03*
X278000Y717200D02*
D03*
X631000Y1163000D02*
D03*
X573000Y1073000D02*
D03*
X1015000Y729000D02*
D03*
X985000D02*
D03*
X915000Y1091000D02*
D03*
X924000Y736000D02*
D03*
X950500Y1274500D02*
D03*
X907000Y1312000D02*
D03*
D86*
X379000Y1049300D02*
D03*
X351000Y1074700D02*
D03*
X379000Y1062000D02*
D03*
X633000Y1154000D02*
D03*
X635000Y1128000D02*
D03*
X774000Y1259000D02*
D03*
X671000Y1179000D02*
D03*
X675000Y1149000D02*
D03*
X439000Y900000D02*
D03*
Y910000D02*
D03*
X606000Y888000D02*
D03*
Y906000D02*
D03*
X541000Y888000D02*
D03*
X503000Y917000D02*
D03*
X439000Y890000D02*
D03*
X337000Y969000D02*
D03*
X1320000Y1112000D02*
D03*
X607000Y1046000D02*
D03*
X610000Y1027000D02*
D03*
X516000Y1069000D02*
D03*
X489000Y1060000D02*
D03*
X573000Y1036000D02*
D03*
D87*
X881250Y1061000D02*
D03*
X312000Y985000D02*
D03*
X1006000Y772000D02*
D03*
X915000Y1037000D02*
D03*
X712000Y1075000D02*
D03*
X495000Y880000D02*
D03*
X543000Y922400D02*
D03*
X382000Y972000D02*
D03*
X504000Y897000D02*
D03*
X486000D02*
D03*
X731000Y796000D02*
D03*
X699000Y730000D02*
D03*
Y738000D02*
D03*
Y746000D02*
D03*
D88*
X1235900Y914000D02*
D03*
X1223200D02*
D03*
X1044000Y1028000D02*
D03*
X1098000Y1141000D02*
D03*
X1097000Y1053000D02*
D03*
X1362300Y931000D02*
D03*
D89*
X962000Y1183000D02*
D03*
X961000Y1117000D02*
D03*
X967000Y1081000D02*
D03*
X969000Y1095000D02*
D03*
X1143000Y1158000D02*
D03*
X1113000Y1108000D02*
D03*
X1064000Y1034000D02*
D03*
X1083000Y1169000D02*
D03*
X1031000Y1206000D02*
D03*
D90*
X517000Y775000D02*
D03*
X555000D02*
D03*
X981000Y1342000D02*
D03*
X1193000Y1200992D02*
D03*
X1207000Y1131000D02*
D03*
X1018000Y1273000D02*
D03*
X1099000Y1261000D02*
D03*
X1207000Y1273000D02*
D03*
X1206000Y1256000D02*
D03*
X1078000Y1245000D02*
D03*
X1344000Y1335000D02*
D03*
X1355000Y1320000D02*
D03*
X1364000Y1064000D02*
D03*
X1367000Y1225000D02*
D03*
X1255000Y1245000D02*
D03*
X1274000Y1140000D02*
D03*
X1269000Y1067000D02*
D03*
X1146000Y1177000D02*
D03*
X1316000Y1228000D02*
D03*
X1324000Y1308000D02*
D03*
X1315000Y1182000D02*
D03*
X1199000Y1340000D02*
D03*
X1368000Y1143000D02*
D03*
X1274000Y1105000D02*
D03*
X1341000Y1063000D02*
D03*
X1370000Y1320000D02*
D03*
X1278000Y1164000D02*
D03*
X1223000Y1221000D02*
D03*
X1342000Y1264000D02*
D03*
M02*
