G04 Layer_Physical_Order=1*
G04 Layer_Color=255*
%FSLAX44Y44*%
%MOMM*%
G71*
G01*
G75*
%ADD10C,0.1300*%
%ADD11C,0.4500*%
%ADD12R,0.1900X0.8500*%
%ADD13R,0.8500X0.1900*%
%ADD14R,3.7000X3.7000*%
%ADD15R,1.2000X0.4000*%
%ADD16R,1.7000X0.3000*%
%ADD17R,1.1430X1.2700*%
%ADD18R,0.8000X1.2000*%
%ADD19R,1.0000X1.0000*%
%ADD20R,1.0000X1.0000*%
%ADD21R,0.8000X1.0000*%
%ADD22C,0.4000*%
%ADD23R,0.5500X0.4500*%
%ADD24R,1.0000X0.8000*%
%ADD25R,1.5000X0.6000*%
%ADD26R,1.7000X0.7000*%
%ADD27R,2.0000X0.7000*%
%ADD28R,1.7000X0.4000*%
%ADD29R,0.8000X2.5000*%
%ADD30R,1.5000X0.7000*%
%ADD31R,1.4000X0.7000*%
%ADD32R,0.6000X1.5000*%
%ADD33R,1.4500X2.0000*%
%ADD34R,0.8000X1.5000*%
%ADD35R,0.3000X1.5000*%
%ADD36R,2.5000X3.2000*%
%ADD37R,1.5000X5.0000*%
%ADD38R,5.0000X1.5000*%
%ADD39R,3.2000X0.8000*%
%ADD40R,0.8000X3.2000*%
%ADD41R,1.6000X0.3500*%
%ADD42R,2.0000X1.0000*%
%ADD43R,1.2000X1.2000*%
%ADD44R,1.0000X2.0000*%
%ADD45R,0.7000X1.6000*%
%ADD46C,1.2000*%
%ADD47C,0.2000*%
%ADD48C,0.8000*%
%ADD49C,0.2500*%
%ADD50C,0.4000*%
%ADD51C,0.5000*%
%ADD52C,1.0000*%
%ADD53C,0.1500*%
%ADD54C,0.1840*%
%ADD55C,0.1400*%
%ADD56C,0.3000*%
%ADD57C,0.6000*%
%ADD58C,0.3500*%
%ADD59C,0.3420*%
%ADD60C,0.1340*%
%ADD61C,0.1830*%
%ADD62C,0.1000*%
%ADD63C,0.7000*%
%ADD64C,1.4000*%
%ADD65C,0.2540*%
%ADD66C,2.0000*%
%ADD67C,2.5000*%
%ADD68C,1.7000*%
%ADD69C,2.3000*%
%ADD70C,2.7000*%
%ADD71C,0.8000*%
%ADD72C,0.7000*%
%ADD73C,0.5000*%
%ADD74C,0.6000*%
%ADD75C,1.2000*%
%ADD76C,1.0000*%
G36*
X1005000Y1100000D02*
Y1098000D01*
X1004000Y1095000D01*
X1001000Y1093000D01*
X987000Y1090200D01*
Y1098000D01*
X982800D01*
X982000Y1100000D01*
X993000D01*
X1000000Y1101000D01*
X1005000Y1100000D01*
D02*
G37*
G36*
X1044000Y1071000D02*
X1048000Y1069000D01*
X1048800Y1065000D01*
X1039000D01*
Y1058167D01*
X1037000Y1057000D01*
X1039000Y1071000D01*
X1041000Y1074000D01*
X1042000Y1077000D01*
X1044000D01*
Y1071000D01*
D02*
G37*
G36*
X1067000Y1075000D02*
X1068000Y1072000D01*
X1068000Y1058000D01*
X1060000D01*
Y1051000D01*
X1060000D01*
X1060000Y1062999D01*
X1061000Y1070000D01*
X1062000Y1077000D01*
X1064000Y1079000D01*
X1067000Y1075000D01*
D02*
G37*
G36*
X1054000Y1153000D02*
X1053000Y1152000D01*
X1052000Y1149000D01*
X1050000D01*
X1047000Y1151000D01*
X1046000Y1154000D01*
X1046000Y1174000D01*
X1046000D01*
Y1164000D01*
X1054000D01*
Y1174000D01*
X1054000Y1153000D01*
D02*
G37*
G36*
X1034270Y1163000D02*
X1038000D01*
D01*
X1038000D01*
X1037000Y1158000D01*
X1038000Y1151000D01*
X1035000Y1150000D01*
X1030000Y1154000D01*
X1028000Y1157000D01*
X1026310Y1164762D01*
X1028000Y1164507D01*
Y1163000D01*
X1031730D01*
Y1167000D01*
X1034270D01*
Y1163000D01*
D02*
G37*
G36*
X1103000Y1112000D02*
X1093000D01*
Y1104000D01*
X1103000D01*
Y1104000D01*
X1081000Y1104000D01*
X1080000Y1105000D01*
X1077000Y1106000D01*
Y1108000D01*
X1079000Y1111000D01*
X1083000Y1112000D01*
X1103000Y1112000D01*
D02*
G37*
D10*
X893474Y940876D02*
G03*
X892174Y942176I-1300J0D01*
G01*
Y939576D02*
G03*
X893474Y940876I0J1300D01*
G01*
X881250Y945776D02*
G03*
X884850Y942176I3600J0D01*
G01*
Y939576D02*
G03*
X881250Y935976I0J-3600D01*
G01*
X895774Y940876D02*
G03*
X892174Y944476I-3600J0D01*
G01*
Y937276D02*
G03*
X895774Y940876I0J3600D01*
G01*
X883550Y945776D02*
G03*
X884850Y944476I1300J0D01*
G01*
Y937276D02*
G03*
X883550Y935976I0J-1300D01*
G01*
X860403Y762150D02*
G03*
X859103Y763450I-1300J0D01*
G01*
X860403Y759976D02*
G03*
X861703Y758676I1300J0D01*
G01*
D02*
G03*
X863003Y759976I0J1300D01*
G01*
X864303Y763450D02*
G03*
X863003Y762150I0J-1300D01*
G01*
X865603D02*
G03*
X864303Y763450I-1300J0D01*
G01*
X865603Y759976D02*
G03*
X866903Y758676I1300J0D01*
G01*
D02*
G03*
X868203Y759976I0J1300D01*
G01*
X869503Y763450D02*
G03*
X868203Y762150I0J-1300D01*
G01*
X866250Y765750D02*
G03*
X867250Y766750I0J1000D01*
G01*
X868550Y769479D02*
G03*
X867250Y768179I0J-1300D01*
G01*
X869850D02*
G03*
X868550Y769479I-1300J0D01*
G01*
X869850Y767050D02*
G03*
X871150Y765750I1300J0D01*
G01*
X862450Y955200D02*
G03*
X861150Y956500I-1300J0D01*
G01*
X862450Y954872D02*
G03*
X863750Y953572I1300J0D01*
G01*
D02*
G03*
X865050Y954872I0J1300D01*
G01*
X866350Y956500D02*
G03*
X865050Y955200I0J-1300D01*
G01*
X867650D02*
G03*
X866350Y956500I-1300J0D01*
G01*
X867650Y954872D02*
G03*
X868950Y953572I1300J0D01*
G01*
D02*
G03*
X870250Y954872I0J1300D01*
G01*
X871550Y956500D02*
G03*
X870250Y955200I0J-1300D01*
G01*
X844672Y943631D02*
G03*
X842833Y943631I-919J-919D01*
G01*
X844904Y943399D02*
G03*
X846742Y943399I919J919D01*
G01*
D02*
G03*
X846742Y945237I-919J919D01*
G01*
X846510Y947308D02*
G03*
X846510Y945469I919J-919D01*
G01*
X848349Y947308D02*
G03*
X846510Y947308I-919J-919D01*
G01*
X848581Y947076D02*
G03*
X850419Y947076I919J919D01*
G01*
D02*
G03*
X850419Y948914I-919J919D01*
G01*
X850187Y950985D02*
G03*
X850187Y949146I919J-919D01*
G01*
X852026Y950985D02*
G03*
X850187Y950985I-919J-919D01*
G01*
X852258Y950753D02*
G03*
X854096Y950753I919J919D01*
G01*
D02*
G03*
X854096Y952591I-919J919D01*
G01*
X853864Y954661D02*
G03*
X853864Y952823I919J-919D01*
G01*
X916798Y889620D02*
X920764Y893586D01*
X884850Y942176D02*
X892174D01*
X884850Y939576D02*
X892174D01*
X881250Y945776D02*
X881250Y952000D01*
X881250Y945776D02*
Y945776D01*
Y935976D02*
X881250Y923297D01*
X845000Y765750D02*
X866250D01*
X884850Y944476D02*
X892174D01*
X884850Y937276D02*
X892174D01*
X883550Y945776D02*
Y952953D01*
Y924250D02*
Y935976D01*
X913948Y836402D02*
X916798Y833552D01*
X912500Y836402D02*
X913948D01*
X899250Y823152D02*
X912500Y836402D01*
X899250Y787997D02*
Y823152D01*
X874703Y763450D02*
X899250Y787997D01*
X844047Y763450D02*
X858250D01*
X859103D01*
X860403Y759976D02*
Y762150D01*
X863003Y759976D02*
Y762150D01*
X865603Y759976D02*
Y762150D01*
X868203Y759976D02*
Y762150D01*
X869503Y763450D02*
X870803D01*
X873403D01*
X874703D01*
X814200Y793297D02*
X844047Y763450D01*
X814200Y793297D02*
Y832800D01*
X799500Y847500D02*
X814200Y832800D01*
X795400Y847500D02*
X799500D01*
X793900Y846000D02*
X795400Y847500D01*
X913948Y838702D02*
X916798Y841552D01*
X911547Y838702D02*
X913948D01*
X896950Y824105D02*
X911547Y838702D01*
X896950Y788950D02*
Y824105D01*
X873750Y765750D02*
X896950Y788950D01*
X867250Y766750D02*
Y768179D01*
X869850Y767050D02*
Y768179D01*
X871150Y765750D02*
X872450D01*
X873750D01*
X816500Y794250D02*
X845000Y765750D01*
X816500Y794250D02*
Y833753D01*
X800453Y849800D02*
X816500Y833753D01*
X796250Y849800D02*
X800453D01*
X876750Y956500D02*
X881250Y952000D01*
X855703Y956500D02*
X857250D01*
X859850D01*
X861150D01*
X862450Y954872D02*
Y955200D01*
X865050Y954872D02*
Y955200D01*
X867650Y954872D02*
Y955200D01*
X870250Y954872D02*
Y955200D01*
X871550Y956500D02*
X872850D01*
X875450D01*
X876750D01*
X834703Y935500D02*
X841101Y941899D01*
X841914Y942711D01*
X842833Y943631D01*
X844672D02*
X844904Y943399D01*
X846510Y945469D02*
X846742Y945237D01*
X846510Y947308D02*
X846510Y947308D01*
X848349D02*
X848581Y947076D01*
X850187Y949146D02*
X850419Y948914D01*
X850187Y950985D02*
X850187Y950985D01*
X852026D02*
X852258Y950753D01*
X853864Y952823D02*
X854096Y952591D01*
X853864Y954661D02*
X854783Y955581D01*
X855703Y956500D01*
X812003Y935500D02*
X834703D01*
X802503Y926000D02*
X812003Y935500D01*
X793900Y926000D02*
X802503D01*
X800275Y901999D02*
X804280Y906002D01*
X791001Y901999D02*
X800275D01*
X916798Y897552D02*
X916802D01*
X783000Y902000D02*
X787004Y906004D01*
X796658D01*
X791000Y926000D02*
X793900D01*
X793900Y926000D01*
X783000Y926000D02*
X785900D01*
X787100Y927200D01*
Y927615D01*
X884798Y865552D02*
X887676Y862674D01*
X787100Y927615D02*
X789385Y929900D01*
X792616D01*
X794215Y928300D01*
X884798Y857552D02*
X887620Y860374D01*
X794215Y928300D02*
X801550D01*
X811050Y937800D01*
X833750D01*
X854750Y958800D02*
X877703D01*
X883550Y952953D01*
X881250Y923297D02*
X894950Y909597D01*
X883550Y924250D02*
X897250Y910550D01*
X894950Y886297D02*
Y909597D01*
X897250Y887250D02*
Y910550D01*
X894950Y886297D02*
X897750Y883497D01*
X897250Y887250D02*
X900050Y884450D01*
X897750Y868500D02*
Y883497D01*
X900050Y867547D02*
Y884450D01*
X891924Y862674D02*
X897750Y868500D01*
X892876Y860374D02*
X900050Y867547D01*
X887676Y862674D02*
X891924D01*
X887620Y860374D02*
X892876D01*
X783000Y846000D02*
X785900D01*
X787100Y847200D01*
Y847615D01*
X789385Y849900D01*
X796150D01*
X796250Y849800D01*
X791000Y846000D02*
X793900D01*
X833750Y937800D02*
X854750Y958800D01*
X916798Y897552D02*
X920796Y901550D01*
X916798Y889552D02*
Y889620D01*
D11*
X791000Y822000D02*
D03*
X783000D02*
D03*
X775000D02*
D03*
X767000D02*
D03*
X759000D02*
D03*
X751000D02*
D03*
X743000D02*
D03*
X735000D02*
D03*
X727000D02*
D03*
X719000D02*
D03*
X711000D02*
D03*
X703000D02*
D03*
X695000D02*
D03*
X687000D02*
D03*
X679000D02*
D03*
X671000D02*
D03*
X663000D02*
D03*
X655000D02*
D03*
X791000Y830000D02*
D03*
X783000D02*
D03*
X775000D02*
D03*
X767000D02*
D03*
X759000D02*
D03*
X751000D02*
D03*
X743000D02*
D03*
X735000D02*
D03*
X727000D02*
D03*
X719000D02*
D03*
X711000D02*
D03*
X703000D02*
D03*
X695000D02*
D03*
X687000D02*
D03*
X679000D02*
D03*
X671000D02*
D03*
X663000D02*
D03*
X655000D02*
D03*
X791000Y838000D02*
D03*
X783000D02*
D03*
X775000D02*
D03*
X767000D02*
D03*
X759000D02*
D03*
X751000D02*
D03*
X743000D02*
D03*
X735000D02*
D03*
X727000D02*
D03*
X719000D02*
D03*
X711000D02*
D03*
X703000D02*
D03*
X695000D02*
D03*
X687000D02*
D03*
X679000D02*
D03*
X671000D02*
D03*
X663000D02*
D03*
X655000D02*
D03*
X791000Y846000D02*
D03*
X783000D02*
D03*
X775000D02*
D03*
X767000D02*
D03*
X759000D02*
D03*
X751000D02*
D03*
X743000D02*
D03*
X735000D02*
D03*
X727000D02*
D03*
X719000D02*
D03*
X711000D02*
D03*
X703000D02*
D03*
X695000D02*
D03*
X687000D02*
D03*
X679000D02*
D03*
X671000D02*
D03*
X663000D02*
D03*
X655000D02*
D03*
X791000Y854000D02*
D03*
X783000D02*
D03*
X775000D02*
D03*
X767000D02*
D03*
X759000D02*
D03*
X751000D02*
D03*
X743000D02*
D03*
X735000D02*
D03*
X727000D02*
D03*
X719000D02*
D03*
X711000D02*
D03*
X703000D02*
D03*
X695000D02*
D03*
X687000D02*
D03*
X679000D02*
D03*
X671000D02*
D03*
X663000D02*
D03*
X655000D02*
D03*
X791000Y862000D02*
D03*
X783000D02*
D03*
X775000D02*
D03*
X767000D02*
D03*
X759000D02*
D03*
X751000D02*
D03*
X743000D02*
D03*
X735000D02*
D03*
X727000D02*
D03*
X719000D02*
D03*
X711000D02*
D03*
X703000D02*
D03*
X695000D02*
D03*
X687000D02*
D03*
X679000D02*
D03*
X671000D02*
D03*
X663000D02*
D03*
X655000D02*
D03*
X791000Y870000D02*
D03*
X783000D02*
D03*
X775000D02*
D03*
X767000D02*
D03*
X759000D02*
D03*
X751000D02*
D03*
X743000D02*
D03*
X735000D02*
D03*
X727000D02*
D03*
X719000D02*
D03*
X711000D02*
D03*
X703000D02*
D03*
X695000D02*
D03*
X687000D02*
D03*
X679000D02*
D03*
X671000D02*
D03*
X663000D02*
D03*
X655000D02*
D03*
X791000Y878000D02*
D03*
X783000D02*
D03*
X775000D02*
D03*
X767000D02*
D03*
X759000D02*
D03*
X751000D02*
D03*
X743000D02*
D03*
X735000D02*
D03*
X727000D02*
D03*
X719000D02*
D03*
X711000D02*
D03*
X703000D02*
D03*
X695000D02*
D03*
X687000D02*
D03*
X679000D02*
D03*
X671000D02*
D03*
X663000D02*
D03*
X655000D02*
D03*
X791000Y886000D02*
D03*
X783000D02*
D03*
X775000D02*
D03*
X767000D02*
D03*
X759000D02*
D03*
X751000D02*
D03*
X743000D02*
D03*
X735000D02*
D03*
X727000D02*
D03*
X719000D02*
D03*
X711000D02*
D03*
X703000D02*
D03*
X695000D02*
D03*
X687000D02*
D03*
X679000D02*
D03*
X671000D02*
D03*
X663000D02*
D03*
X655000D02*
D03*
X791000Y894000D02*
D03*
X783000D02*
D03*
X775000D02*
D03*
X767000D02*
D03*
X759000D02*
D03*
X751000D02*
D03*
X743000D02*
D03*
X735000D02*
D03*
X727000D02*
D03*
X719000D02*
D03*
X711000D02*
D03*
X703000D02*
D03*
X695000D02*
D03*
X687000D02*
D03*
X679000D02*
D03*
X671000D02*
D03*
X663000D02*
D03*
X655000D02*
D03*
X791000Y902000D02*
D03*
X783000D02*
D03*
X775000D02*
D03*
X767000D02*
D03*
X759000D02*
D03*
X751000D02*
D03*
X743000D02*
D03*
X735000D02*
D03*
X727000D02*
D03*
X719000D02*
D03*
X711000D02*
D03*
X703000D02*
D03*
X695000D02*
D03*
X687000D02*
D03*
X679000D02*
D03*
X671000D02*
D03*
X663000D02*
D03*
X655000D02*
D03*
X791000Y910000D02*
D03*
X783000D02*
D03*
X775000D02*
D03*
X767000D02*
D03*
X759000D02*
D03*
X751000D02*
D03*
X743000D02*
D03*
X735000D02*
D03*
X727000D02*
D03*
X719000D02*
D03*
X711000D02*
D03*
X703000D02*
D03*
X695000D02*
D03*
X687000D02*
D03*
X679000D02*
D03*
X671000D02*
D03*
X663000D02*
D03*
X655000D02*
D03*
X791000Y918000D02*
D03*
X783000D02*
D03*
X775000D02*
D03*
X767000D02*
D03*
X759000D02*
D03*
X751000D02*
D03*
X743000D02*
D03*
X735000D02*
D03*
X727000D02*
D03*
X719000D02*
D03*
X711000D02*
D03*
X703000D02*
D03*
X695000D02*
D03*
X687000D02*
D03*
X679000D02*
D03*
X671000D02*
D03*
X663000D02*
D03*
X655000D02*
D03*
X791000Y926000D02*
D03*
X783000D02*
D03*
X775000D02*
D03*
X767000D02*
D03*
X759000D02*
D03*
X751000D02*
D03*
X743000D02*
D03*
X735000D02*
D03*
X727000D02*
D03*
X719000D02*
D03*
X711000D02*
D03*
X703000D02*
D03*
X695000D02*
D03*
X687000D02*
D03*
X679000D02*
D03*
X671000D02*
D03*
X663000D02*
D03*
X655000D02*
D03*
X791000Y934000D02*
D03*
X783000D02*
D03*
X775000D02*
D03*
X767000D02*
D03*
X759000D02*
D03*
X751000D02*
D03*
X743000D02*
D03*
X735000D02*
D03*
X727000D02*
D03*
X719000D02*
D03*
X711000D02*
D03*
X703000D02*
D03*
X695000D02*
D03*
X687000D02*
D03*
X679000D02*
D03*
X671000D02*
D03*
X663000D02*
D03*
X655000D02*
D03*
X791000Y942000D02*
D03*
X783000D02*
D03*
X775000D02*
D03*
X767000D02*
D03*
X759000D02*
D03*
X751000D02*
D03*
X743000D02*
D03*
X735000D02*
D03*
X727000D02*
D03*
X719000D02*
D03*
X711000D02*
D03*
X703000D02*
D03*
X695000D02*
D03*
X687000D02*
D03*
X679000D02*
D03*
X671000D02*
D03*
X663000D02*
D03*
X655000D02*
D03*
X791000Y950000D02*
D03*
X783000D02*
D03*
X775000D02*
D03*
X767000D02*
D03*
X759000D02*
D03*
X751000D02*
D03*
X743000D02*
D03*
X735000D02*
D03*
X727000D02*
D03*
X719000D02*
D03*
X711000D02*
D03*
X703000D02*
D03*
X695000D02*
D03*
X687000D02*
D03*
X679000D02*
D03*
X671000D02*
D03*
X663000D02*
D03*
X655000D02*
D03*
X791000Y958000D02*
D03*
X783000D02*
D03*
X775000D02*
D03*
X767000D02*
D03*
X759000D02*
D03*
X751000D02*
D03*
X743000D02*
D03*
X735000D02*
D03*
X727000D02*
D03*
X719000D02*
D03*
X711000D02*
D03*
X703000D02*
D03*
X695000D02*
D03*
X687000D02*
D03*
X679000D02*
D03*
X671000D02*
D03*
X663000D02*
D03*
X655000D02*
D03*
D12*
X1019000Y1142750D02*
D03*
X1023000D02*
D03*
X1027000D02*
D03*
X1031000D02*
D03*
X1035000D02*
D03*
X1039000D02*
D03*
X1043000D02*
D03*
X1047000D02*
D03*
X1051000D02*
D03*
X1055000D02*
D03*
X1059000D02*
D03*
X1063000D02*
D03*
Y1083250D02*
D03*
X1059000D02*
D03*
X1055000D02*
D03*
X1051000D02*
D03*
X1047000D02*
D03*
X1043000D02*
D03*
X1039000D02*
D03*
X1035000D02*
D03*
X1031000D02*
D03*
X1027000D02*
D03*
X1023000D02*
D03*
X1019000D02*
D03*
D13*
X1070750Y1135000D02*
D03*
Y1131000D02*
D03*
Y1127000D02*
D03*
Y1123000D02*
D03*
Y1119000D02*
D03*
Y1115000D02*
D03*
Y1111000D02*
D03*
Y1107000D02*
D03*
Y1103000D02*
D03*
Y1099000D02*
D03*
Y1095000D02*
D03*
Y1091000D02*
D03*
X1011250D02*
D03*
Y1095000D02*
D03*
Y1099000D02*
D03*
Y1103000D02*
D03*
Y1107000D02*
D03*
Y1111000D02*
D03*
Y1115000D02*
D03*
Y1119000D02*
D03*
Y1123000D02*
D03*
Y1127000D02*
D03*
Y1131000D02*
D03*
Y1135000D02*
D03*
D14*
X1041000Y1113000D02*
D03*
D15*
X965652Y1040500D02*
D03*
Y1047000D02*
D03*
Y1053500D02*
D03*
X942348D02*
D03*
Y1040500D02*
D03*
D16*
X897000Y1001000D02*
D03*
Y1006000D02*
D03*
Y1011000D02*
D03*
Y1016000D02*
D03*
Y1021000D02*
D03*
Y1026000D02*
D03*
Y1031000D02*
D03*
Y1036000D02*
D03*
Y1041000D02*
D03*
Y1046000D02*
D03*
Y1051000D02*
D03*
Y1056000D02*
D03*
Y1061000D02*
D03*
Y1066000D02*
D03*
Y1071000D02*
D03*
Y1076000D02*
D03*
Y1081000D02*
D03*
Y1086000D02*
D03*
Y1091000D02*
D03*
Y1096000D02*
D03*
Y1101000D02*
D03*
Y1106000D02*
D03*
Y1111000D02*
D03*
Y1116000D02*
D03*
X694000Y1001000D02*
D03*
Y1006000D02*
D03*
Y1011000D02*
D03*
Y1016000D02*
D03*
Y1021000D02*
D03*
Y1026000D02*
D03*
Y1031000D02*
D03*
Y1036000D02*
D03*
Y1041000D02*
D03*
Y1046000D02*
D03*
Y1051000D02*
D03*
Y1056000D02*
D03*
Y1061000D02*
D03*
Y1066000D02*
D03*
Y1071000D02*
D03*
Y1076000D02*
D03*
Y1081000D02*
D03*
Y1086000D02*
D03*
Y1091000D02*
D03*
Y1096000D02*
D03*
Y1101000D02*
D03*
Y1106000D02*
D03*
Y1111000D02*
D03*
Y1116000D02*
D03*
D17*
X960169Y747127D02*
D03*
X977949D02*
D03*
X982669Y1028127D02*
D03*
X1000449D02*
D03*
D18*
X954000Y710127D02*
D03*
X976000D02*
D03*
X721000Y796000D02*
D03*
X743000D02*
D03*
D19*
X949300Y840500D02*
D03*
X967300D02*
D03*
X468000Y984000D02*
D03*
X450000D02*
D03*
X551000Y992000D02*
D03*
X533000D02*
D03*
X489000Y1017000D02*
D03*
X471000D02*
D03*
X1016000Y1181000D02*
D03*
X998000D02*
D03*
X503000Y854000D02*
D03*
X485000D02*
D03*
X468000Y962000D02*
D03*
X450000D02*
D03*
X595000Y986000D02*
D03*
X577000D02*
D03*
X595000Y968000D02*
D03*
X577000D02*
D03*
X466000Y809000D02*
D03*
X448000D02*
D03*
X940750Y1150500D02*
D03*
X958750D02*
D03*
X949100Y821500D02*
D03*
X967100D02*
D03*
X652000Y978750D02*
D03*
X634000D02*
D03*
D20*
X832250Y732750D02*
D03*
Y750750D02*
D03*
X429000Y1034000D02*
D03*
Y1052000D02*
D03*
X301000Y1103000D02*
D03*
Y1085000D02*
D03*
X429000Y1103000D02*
D03*
Y1085000D02*
D03*
X304500Y1037500D02*
D03*
Y1055500D02*
D03*
X562000Y1067000D02*
D03*
Y1085000D02*
D03*
X618000Y903000D02*
D03*
Y885000D02*
D03*
D21*
X450000Y1001000D02*
D03*
X468000D02*
D03*
X533000Y975000D02*
D03*
X551000D02*
D03*
X995000Y1055000D02*
D03*
X1013000D02*
D03*
X1211000Y1183000D02*
D03*
X1193000D02*
D03*
X448000Y824000D02*
D03*
X466000D02*
D03*
X410000Y809000D02*
D03*
X428000D02*
D03*
X1069000Y1169000D02*
D03*
X1051000D02*
D03*
X1064000Y1053000D02*
D03*
X1082000D02*
D03*
D22*
X924798Y841552D02*
D03*
X932798Y785552D02*
D03*
Y793552D02*
D03*
Y801552D02*
D03*
Y809552D02*
D03*
Y817552D02*
D03*
Y825552D02*
D03*
Y833552D02*
D03*
Y841552D02*
D03*
Y849552D02*
D03*
Y857552D02*
D03*
Y865552D02*
D03*
Y873552D02*
D03*
Y881552D02*
D03*
Y889552D02*
D03*
Y897552D02*
D03*
Y905552D02*
D03*
X924798Y785552D02*
D03*
Y793552D02*
D03*
Y801552D02*
D03*
Y809552D02*
D03*
Y817552D02*
D03*
Y825552D02*
D03*
Y833552D02*
D03*
Y849552D02*
D03*
Y857552D02*
D03*
Y865552D02*
D03*
Y873552D02*
D03*
Y881552D02*
D03*
Y889552D02*
D03*
Y897552D02*
D03*
Y905552D02*
D03*
X916798Y785552D02*
D03*
Y793552D02*
D03*
Y801552D02*
D03*
Y809552D02*
D03*
Y817552D02*
D03*
Y825552D02*
D03*
Y849552D02*
D03*
Y857552D02*
D03*
Y865552D02*
D03*
Y873552D02*
D03*
Y881552D02*
D03*
Y889552D02*
D03*
Y897552D02*
D03*
Y905552D02*
D03*
X884798Y785552D02*
D03*
Y793552D02*
D03*
Y801552D02*
D03*
Y809552D02*
D03*
Y817552D02*
D03*
Y825552D02*
D03*
Y833552D02*
D03*
Y841552D02*
D03*
Y849552D02*
D03*
Y873552D02*
D03*
Y881552D02*
D03*
Y889552D02*
D03*
Y897552D02*
D03*
Y905552D02*
D03*
X876798Y785552D02*
D03*
Y793552D02*
D03*
Y801552D02*
D03*
Y809552D02*
D03*
Y817552D02*
D03*
Y825552D02*
D03*
Y833552D02*
D03*
Y841552D02*
D03*
Y849552D02*
D03*
Y857552D02*
D03*
Y865552D02*
D03*
Y873552D02*
D03*
Y881552D02*
D03*
Y889552D02*
D03*
Y897552D02*
D03*
Y905552D02*
D03*
X868798Y785552D02*
D03*
Y793552D02*
D03*
Y801552D02*
D03*
Y809552D02*
D03*
Y817552D02*
D03*
Y825552D02*
D03*
Y833552D02*
D03*
Y841552D02*
D03*
Y849552D02*
D03*
Y857552D02*
D03*
Y865552D02*
D03*
Y873552D02*
D03*
Y881552D02*
D03*
Y889552D02*
D03*
Y897552D02*
D03*
Y905552D02*
D03*
X884798Y865552D02*
D03*
Y857552D02*
D03*
X916798Y841552D02*
D03*
Y833552D02*
D03*
X1263750Y938250D02*
D03*
X1323250Y895000D02*
D03*
X480750Y937000D02*
D03*
X872800Y869551D02*
D03*
X675002Y841999D02*
D03*
X667002D02*
D03*
X659002D02*
D03*
X651002D02*
D03*
X864630Y869720D02*
D03*
X713250Y1031000D02*
D03*
X728250D02*
D03*
X716750Y1091000D02*
D03*
X735250D02*
D03*
X712500Y970000D02*
D03*
X1122000Y1086553D02*
D03*
X872796Y789554D02*
D03*
X864796D02*
D03*
X928800Y893550D02*
D03*
X920799Y861549D02*
D03*
X920796Y845554D02*
D03*
X928796Y837550D02*
D03*
X771000Y890000D02*
D03*
X839550Y881650D02*
D03*
X541000Y754000D02*
D03*
X562000Y753750D02*
D03*
X598750Y804750D02*
D03*
X637000Y802000D02*
D03*
X645000D02*
D03*
X645000Y793000D02*
D03*
X598500Y797750D02*
D03*
X591000Y807000D02*
D03*
X648000Y820000D02*
D03*
X827140Y919190D02*
D03*
X852500Y884250D02*
D03*
X801500Y890000D02*
D03*
X844921Y836666D02*
D03*
X855074D02*
D03*
X659000Y922000D02*
D03*
X651000D02*
D03*
X961750Y853750D02*
D03*
X924798Y779048D02*
D03*
X920800Y789554D02*
D03*
X909800Y779804D02*
D03*
X911800Y789554D02*
D03*
X819750Y773167D02*
D03*
X864800Y909550D02*
D03*
X920796Y821550D02*
D03*
X880796Y821554D02*
D03*
X920796Y797550D02*
D03*
X928796D02*
D03*
X962000Y864900D02*
D03*
X962500Y875250D02*
D03*
X936800Y869550D02*
D03*
X928800D02*
D03*
X872800Y853550D02*
D03*
Y837554D02*
D03*
X779000Y882001D02*
D03*
X804273Y854006D02*
D03*
X778998Y874002D02*
D03*
X804280Y866000D02*
D03*
X880796Y781554D02*
D03*
X838700Y869600D02*
D03*
X1123050Y1062800D02*
D03*
X838740Y893630D02*
D03*
X927000Y1134000D02*
D03*
X480000Y1137000D02*
D03*
X527000Y1164000D02*
D03*
X980000Y1066000D02*
D03*
X1319000Y699010D02*
D03*
X1350000Y716000D02*
D03*
X1001000Y803000D02*
D03*
X941998Y1047998D02*
D03*
X963000Y1065000D02*
D03*
X676000Y1004000D02*
D03*
X687000Y989000D02*
D03*
X921000Y1111000D02*
D03*
X861000Y1109000D02*
D03*
Y1092000D02*
D03*
X842000Y1080000D02*
D03*
X603000Y856000D02*
D03*
X649000Y885000D02*
D03*
X643000Y949000D02*
D03*
X637000Y955000D02*
D03*
X683000Y826000D02*
D03*
X683000Y834000D02*
D03*
X691000D02*
D03*
X698995Y834005D02*
D03*
X671000Y964500D02*
D03*
X675000Y866000D02*
D03*
X683000Y874000D02*
D03*
X659000Y874000D02*
D03*
X683000Y882000D02*
D03*
X521484Y1049500D02*
D03*
X837300Y797050D02*
D03*
X763000Y882000D02*
D03*
X928796Y829550D02*
D03*
X880796Y877554D02*
D03*
X872796Y877550D02*
D03*
X961500Y896750D02*
D03*
X962000Y885500D02*
D03*
X438000Y987000D02*
D03*
X478000Y1001000D02*
D03*
X522000Y952000D02*
D03*
Y960000D02*
D03*
X601000Y931000D02*
D03*
X584000Y1151000D02*
D03*
X1039000Y916000D02*
D03*
X1070800Y953000D02*
D03*
X1045400Y952000D02*
D03*
X1051750Y956200D02*
D03*
X1058100Y959000D02*
D03*
X1064450Y963200D02*
D03*
X795000Y971000D02*
D03*
X780000Y966000D02*
D03*
X771000Y954000D02*
D03*
X560000Y688000D02*
D03*
X421000D02*
D03*
X399000D02*
D03*
X609000D02*
D03*
X593000D02*
D03*
X527000D02*
D03*
X511000D02*
D03*
X470000Y688000D02*
D03*
X446000Y688000D02*
D03*
X779002Y938002D02*
D03*
X794999Y953998D02*
D03*
X771000Y850000D02*
D03*
Y842000D02*
D03*
X779000Y898000D02*
D03*
X771000D02*
D03*
Y906000D02*
D03*
X779000D02*
D03*
X967700Y831000D02*
D03*
X838290Y853480D02*
D03*
X839120Y908140D02*
D03*
X837299Y822696D02*
D03*
X936800Y909550D02*
D03*
X928800Y901550D02*
D03*
X936800D02*
D03*
X920800Y877550D02*
D03*
Y869550D02*
D03*
X936796Y813550D02*
D03*
X928796D02*
D03*
X920796Y805550D02*
D03*
X928796D02*
D03*
X936796D02*
D03*
Y797550D02*
D03*
Y789550D02*
D03*
Y781550D02*
D03*
X864796Y781554D02*
D03*
X880796Y789554D02*
D03*
X872796Y797554D02*
D03*
X864796D02*
D03*
Y805554D02*
D03*
X872796D02*
D03*
X880796Y813554D02*
D03*
X872796D02*
D03*
X864796D02*
D03*
X880796Y805554D02*
D03*
X864796Y829554D02*
D03*
X872796D02*
D03*
X888796Y877550D02*
D03*
X864800Y893550D02*
D03*
Y901550D02*
D03*
X872800D02*
D03*
X880800Y893550D02*
D03*
Y901550D02*
D03*
X864800Y853550D02*
D03*
X880796Y797554D02*
D03*
X804280Y829050D02*
D03*
X827140Y897617D02*
D03*
X872800Y893550D02*
D03*
X828620Y760466D02*
D03*
X804277Y897990D02*
D03*
X920800Y909550D02*
D03*
X928800D02*
D03*
X827138Y909554D02*
D03*
X928800Y861550D02*
D03*
X936800Y853550D02*
D03*
Y861550D02*
D03*
X928800Y885550D02*
D03*
X936800Y877550D02*
D03*
X928800D02*
D03*
X770999Y921998D02*
D03*
X779000Y922000D02*
D03*
Y850000D02*
D03*
X771000Y858000D02*
D03*
X778999Y913998D02*
D03*
X771000Y930000D02*
D03*
X779000Y858000D02*
D03*
X707000Y866000D02*
D03*
X715000Y882000D02*
D03*
Y890000D02*
D03*
Y866000D02*
D03*
X731000Y866000D02*
D03*
X739000D02*
D03*
X731000Y882000D02*
D03*
X675000Y898000D02*
D03*
X707000D02*
D03*
X715000D02*
D03*
Y922000D02*
D03*
X731000Y914000D02*
D03*
X763000Y818000D02*
D03*
X747000Y882000D02*
D03*
Y898000D02*
D03*
X755000Y882000D02*
D03*
X747000Y914000D02*
D03*
X674999Y881998D02*
D03*
X722999Y849998D02*
D03*
X747000Y858000D02*
D03*
X699000Y866000D02*
D03*
X771000Y882000D02*
D03*
X731000Y842000D02*
D03*
X746999Y945998D02*
D03*
X763000Y842000D02*
D03*
X699000Y882000D02*
D03*
X715000Y874000D02*
D03*
X746998Y865998D02*
D03*
X763000Y826000D02*
D03*
X770999Y945998D02*
D03*
X738999Y857998D02*
D03*
X691000Y842000D02*
D03*
X779000Y834000D02*
D03*
X683000Y858000D02*
D03*
Y906000D02*
D03*
X699000Y930000D02*
D03*
X715000Y850000D02*
D03*
Y930000D02*
D03*
X739000D02*
D03*
X747000D02*
D03*
X754998Y929998D02*
D03*
X763000Y930000D02*
D03*
X770999Y913998D02*
D03*
X706999Y825998D02*
D03*
Y841998D02*
D03*
X739000Y842000D02*
D03*
X771000Y834000D02*
D03*
X747000Y842000D02*
D03*
X658999Y833999D02*
D03*
X715000Y834000D02*
D03*
X755000Y826000D02*
D03*
X667000Y922000D02*
D03*
X691000Y850000D02*
D03*
X690999Y889998D02*
D03*
X731000Y930000D02*
D03*
X763000Y834000D02*
D03*
X666999Y833999D02*
D03*
X763000Y898000D02*
D03*
X778999Y929998D02*
D03*
X715000Y842000D02*
D03*
X707000Y882000D02*
D03*
X723000Y826000D02*
D03*
X699000Y906000D02*
D03*
X731000Y898000D02*
D03*
X739000Y882000D02*
D03*
X698999Y897998D02*
D03*
X691000Y906000D02*
D03*
X730999Y921998D02*
D03*
X683000Y890000D02*
D03*
X699000Y858000D02*
D03*
X763000Y914000D02*
D03*
X762999Y857998D02*
D03*
X771000Y866000D02*
D03*
X747000Y850000D02*
D03*
X691000Y858000D02*
D03*
Y882000D02*
D03*
X715000Y858000D02*
D03*
X731000Y906000D02*
D03*
X715000Y914000D02*
D03*
X754999Y865998D02*
D03*
X739000Y898000D02*
D03*
X755000D02*
D03*
Y842000D02*
D03*
Y858000D02*
D03*
Y914000D02*
D03*
X763000Y866000D02*
D03*
X747000Y922000D02*
D03*
X771000Y874000D02*
D03*
X779000Y826000D02*
D03*
X755000Y834000D02*
D03*
X715002Y817999D02*
D03*
X738999Y817998D02*
D03*
X731002Y817999D02*
D03*
X723002D02*
D03*
X707002D02*
D03*
X755500Y804000D02*
D03*
X684000Y756000D02*
D03*
X690000Y765000D02*
D03*
Y759000D02*
D03*
X738999Y825998D02*
D03*
X731002Y825996D02*
D03*
X739000Y834000D02*
D03*
X687000Y742000D02*
D03*
Y693000D02*
D03*
X668000D02*
D03*
X649000Y693000D02*
D03*
X714999Y825998D02*
D03*
X645000Y743000D02*
D03*
X428000Y819000D02*
D03*
X477000Y798000D02*
D03*
X494000Y838000D02*
D03*
X439000Y934000D02*
D03*
X1052750Y1133000D02*
D03*
X1040750D02*
D03*
X1028750D02*
D03*
X1021000Y1101250D02*
D03*
Y1113250D02*
D03*
Y1125250D02*
D03*
X634000Y1170000D02*
D03*
X1048000Y1074000D02*
D03*
X443000Y753000D02*
D03*
X450000D02*
D03*
X491000Y1073000D02*
D03*
X493000Y1049000D02*
D03*
X459000Y1069000D02*
D03*
X559000Y1009000D02*
D03*
Y1020600D02*
D03*
X615000Y1086000D02*
D03*
X610000Y1038000D02*
D03*
X574548Y1058700D02*
D03*
X619000Y1006900D02*
D03*
X335502Y958502D02*
D03*
X339000Y946000D02*
D03*
X632000Y1241500D02*
D03*
X633434Y1319907D02*
D03*
X632000Y1180000D02*
D03*
X612000Y1058700D02*
D03*
X521484Y1082000D02*
D03*
X667000Y1155000D02*
D03*
Y1167700D02*
D03*
X276000Y968000D02*
D03*
Y955000D02*
D03*
Y961500D02*
D03*
Y981000D02*
D03*
X373000Y1009000D02*
D03*
X348000Y1042300D02*
D03*
X301000Y1114000D02*
D03*
X429000Y1063000D02*
D03*
X376000Y1182000D02*
D03*
X301000Y1094000D02*
D03*
X429000Y1043000D02*
D03*
X381000Y1228000D02*
D03*
X394000Y1146000D02*
D03*
X350000Y1329000D02*
D03*
X367000Y1209000D02*
D03*
X409000Y1284000D02*
D03*
X352000Y1237000D02*
D03*
X310000Y1289000D02*
D03*
X382000Y1101000D02*
D03*
X820696Y1174500D02*
D03*
Y1187500D02*
D03*
X844000Y1174500D02*
D03*
X1041000Y1092750D02*
D03*
X1053000D02*
D03*
X1029000D02*
D03*
X1061000Y1100750D02*
D03*
Y1112750D02*
D03*
Y1124750D02*
D03*
X1074000Y868000D02*
D03*
X1064000D02*
D03*
X459000Y1082000D02*
D03*
Y1056000D02*
D03*
X521484Y1062500D02*
D03*
X475000Y1290000D02*
D03*
X515000Y1239000D02*
D03*
X543000Y1294000D02*
D03*
X562000Y1255000D02*
D03*
X577000Y1212000D02*
D03*
X506000Y1230000D02*
D03*
X527000Y1144000D02*
D03*
X563000D02*
D03*
X554000Y1222000D02*
D03*
X563000Y1163000D02*
D03*
X342000Y1155000D02*
D03*
X490000Y1144000D02*
D03*
X603000Y1084100D02*
D03*
Y1007900D02*
D03*
X666999Y897998D02*
D03*
X730999Y857998D02*
D03*
X707000Y874000D02*
D03*
X675000Y850000D02*
D03*
X778998Y945998D02*
D03*
X459000Y1062500D02*
D03*
X286000Y717000D02*
D03*
X394000Y1128000D02*
D03*
X421000Y706000D02*
D03*
X399000D02*
D03*
X288000Y867600D02*
D03*
X296000Y816800D02*
D03*
X288000D02*
D03*
Y791400D02*
D03*
X511000Y706000D02*
D03*
X593000D02*
D03*
X609000D02*
D03*
X560000D02*
D03*
X577000D02*
D03*
X543000D02*
D03*
X527000D02*
D03*
X336000Y952000D02*
D03*
X551000Y1056000D02*
D03*
X675000Y890000D02*
D03*
X658997Y890000D02*
D03*
X673000Y1314000D02*
D03*
X551000Y1244000D02*
D03*
X700000Y1319000D02*
D03*
X691000Y1328000D02*
D03*
X716000Y1322000D02*
D03*
X725000Y1313000D02*
D03*
X578000Y1193000D02*
D03*
X697000Y1288000D02*
D03*
X715000D02*
D03*
X680000Y1086000D02*
D03*
X617000Y1014000D02*
D03*
X603000Y1033300D02*
D03*
X615000Y1072000D02*
D03*
X659000Y850000D02*
D03*
X667000D02*
D03*
X645000Y779000D02*
D03*
Y786000D02*
D03*
Y772000D02*
D03*
X667000Y890000D02*
D03*
X653000Y816000D02*
D03*
X439000Y882000D02*
D03*
Y876000D02*
D03*
Y870000D02*
D03*
Y864000D02*
D03*
X666000Y1093000D02*
D03*
X656000Y1099000D02*
D03*
X296000Y893000D02*
D03*
X288000D02*
D03*
X296000Y867600D02*
D03*
X381000Y921000D02*
D03*
X385000Y955000D02*
D03*
X494000Y854000D02*
D03*
X459000Y963000D02*
D03*
X645000Y765000D02*
D03*
X643000Y759000D02*
D03*
X573000Y870000D02*
D03*
Y854000D02*
D03*
X582000Y798000D02*
D03*
X618000Y932000D02*
D03*
X457000Y809000D02*
D03*
X422000Y785000D02*
D03*
X618000Y914000D02*
D03*
X586000Y986000D02*
D03*
Y968000D02*
D03*
X572100Y922400D02*
D03*
X564000Y888000D02*
D03*
X457000Y824000D02*
D03*
X419000Y809000D02*
D03*
X439000Y824000D02*
D03*
X514000Y817000D02*
D03*
X542874Y876000D02*
D03*
X1041000Y1158000D02*
D03*
X1013500Y1141750D02*
D03*
X1006500Y1143000D02*
D03*
X976000Y1126000D02*
D03*
X1088000Y1116000D02*
D03*
X1088000Y1123000D02*
D03*
X1079750Y1144000D02*
D03*
X1150000Y1029000D02*
D03*
X1066000Y1184000D02*
D03*
X1012000Y1205000D02*
D03*
X1085000Y1140000D02*
D03*
X1143000Y1092000D02*
D03*
X1058000Y1158000D02*
D03*
X1094000Y868000D02*
D03*
X719000Y726000D02*
D03*
X719000Y718000D02*
D03*
X720000Y734000D02*
D03*
X732000Y713000D02*
D03*
X727000Y718000D02*
D03*
X288000Y842200D02*
D03*
X296000D02*
D03*
X305000Y791000D02*
D03*
X645000Y753000D02*
D03*
X764250Y809000D02*
D03*
X731000Y764000D02*
D03*
X1077150Y957200D02*
D03*
X1089850D02*
D03*
X1102550D02*
D03*
X1115250D02*
D03*
X1127950D02*
D03*
X1140650D02*
D03*
X1153350D02*
D03*
X1166050D02*
D03*
X1178750D02*
D03*
X1191450Y962200D02*
D03*
X1204150Y957200D02*
D03*
X1059000Y916000D02*
D03*
X1084000Y868000D02*
D03*
X1114000D02*
D03*
X1104000D02*
D03*
X1194000D02*
D03*
X1144000D02*
D03*
X1204000D02*
D03*
X1214000D02*
D03*
X1079000Y916000D02*
D03*
X1109000D02*
D03*
X1099000D02*
D03*
X1089000D02*
D03*
X1159000Y916000D02*
D03*
X1179000Y916000D02*
D03*
X1169000D02*
D03*
X1199000D02*
D03*
X1189000Y916000D02*
D03*
X1209000Y916000D02*
D03*
X1049000D02*
D03*
X1054000Y868000D02*
D03*
X1083500Y953000D02*
D03*
X1121600D02*
D03*
X1134300D02*
D03*
X1108900D02*
D03*
X1096200D02*
D03*
X1172400D02*
D03*
X1185100D02*
D03*
X1159700D02*
D03*
X1210500D02*
D03*
X1197800Y956000D02*
D03*
X1007300Y953000D02*
D03*
X994600D02*
D03*
X1020000D02*
D03*
X1013650Y957200D02*
D03*
X1000950D02*
D03*
X1147000Y953000D02*
D03*
X755250Y811000D02*
D03*
X787000Y954000D02*
D03*
X779000D02*
D03*
X788000Y965000D02*
D03*
X1216350Y957200D02*
D03*
X762998Y945998D02*
D03*
X1069000Y916000D02*
D03*
X731000Y946000D02*
D03*
X738999Y945998D02*
D03*
X723000Y938000D02*
D03*
X739001Y937998D02*
D03*
X747001D02*
D03*
X755001D02*
D03*
X731001D02*
D03*
X771001D02*
D03*
X763000Y938000D02*
D03*
X895971Y917460D02*
D03*
X680000Y1067000D02*
D03*
X718998Y1020998D02*
D03*
X707750Y1026000D02*
D03*
X711998Y1086002D02*
D03*
X724996Y1081000D02*
D03*
X884000Y1036000D02*
D03*
Y1081000D02*
D03*
X884000Y1028000D02*
D03*
X858000Y1024000D02*
D03*
X694000Y989000D02*
D03*
X701000D02*
D03*
X884000Y1044000D02*
D03*
X858000Y1048000D02*
D03*
X799000Y1073000D02*
D03*
X748000Y1035000D02*
D03*
X773000Y1031000D02*
D03*
X772000Y1040920D02*
D03*
X783000Y1055000D02*
D03*
X1184000Y868000D02*
D03*
X1174000D02*
D03*
X1164000D02*
D03*
X1139000Y916000D02*
D03*
X1149000Y916000D02*
D03*
X1154000Y868000D02*
D03*
X1129000Y916000D02*
D03*
X1119000Y916000D02*
D03*
X1124000Y868000D02*
D03*
X1134000D02*
D03*
X1044000Y742000D02*
D03*
X1069973Y742000D02*
D03*
X1096000Y742000D02*
D03*
X1122000D02*
D03*
X1148000D02*
D03*
X1174000D02*
D03*
X1200000D02*
D03*
X1226000D02*
D03*
X1226000Y787000D02*
D03*
X1200000D02*
D03*
X1174000D02*
D03*
X1148000D02*
D03*
X1122000D02*
D03*
X1096000D02*
D03*
X1069974Y787000D02*
D03*
X1044000Y787000D02*
D03*
X1226000Y831000D02*
D03*
X1200000D02*
D03*
X1148000D02*
D03*
X1122000D02*
D03*
X1096000D02*
D03*
X1069974Y831000D02*
D03*
X1044000Y831000D02*
D03*
X1172000Y830000D02*
D03*
X1053973Y725974D02*
D03*
X1080000Y726046D02*
D03*
X1106000Y725974D02*
D03*
X1132000D02*
D03*
X1157973D02*
D03*
X1183973Y725974D02*
D03*
X1202973Y721973D02*
D03*
X1225974Y721973D02*
D03*
X618000Y894000D02*
D03*
X815000Y962000D02*
D03*
X838000Y1024000D02*
D03*
X769000Y802000D02*
D03*
X610000Y875000D02*
D03*
X768000Y1061000D02*
D03*
X584000Y1138000D02*
D03*
X952000Y1048000D02*
D03*
X1320000Y852000D02*
D03*
X1293000Y863000D02*
D03*
X999000Y816000D02*
D03*
X1034000Y856000D02*
D03*
X1029000Y868000D02*
D03*
X1019000Y859000D02*
D03*
X1303500Y761500D02*
D03*
X1329000Y852000D02*
D03*
X1313000Y827000D02*
D03*
X1320000Y751000D02*
D03*
X1330000D02*
D03*
X1015000Y916000D02*
D03*
X1024000Y916000D02*
D03*
X1100000Y1086000D02*
D03*
X999000Y864000D02*
D03*
Y848000D02*
D03*
Y832000D02*
D03*
X978000Y1047000D02*
D03*
X1125000Y1077000D02*
D03*
X1100000Y1070000D02*
D03*
X988000Y1104000D02*
D03*
X1058000Y1074000D02*
D03*
X1308000Y792000D02*
D03*
X745000Y715000D02*
D03*
X667000Y702000D02*
D03*
X949750Y1150500D02*
D03*
X649000Y945000D02*
D03*
Y952000D02*
D03*
X659000Y866000D02*
D03*
X667000Y866000D02*
D03*
X667000Y874000D02*
D03*
X675000Y874000D02*
D03*
X632080Y871000D02*
D03*
X971000Y1173000D02*
D03*
X761000Y752750D02*
D03*
X523000Y1276000D02*
D03*
X429000Y1094000D02*
D03*
X382000Y1093100D02*
D03*
X348000Y1023000D02*
D03*
X338484Y978000D02*
D03*
X465000Y1103000D02*
D03*
X431000Y1070000D02*
D03*
X381000Y1018000D02*
D03*
X348000Y1101000D02*
D03*
X310000Y1226000D02*
D03*
X616000Y870000D02*
D03*
X523000Y788000D02*
D03*
X469000Y706000D02*
D03*
X470000Y766000D02*
D03*
X888810Y924540D02*
D03*
X803500Y807000D02*
D03*
X910752Y855502D02*
D03*
X674999Y833999D02*
D03*
X707000Y834000D02*
D03*
X920796Y813550D02*
D03*
X911250Y805250D02*
D03*
X880800Y829554D02*
D03*
Y837554D02*
D03*
X591000Y846000D02*
D03*
X779000Y866000D02*
D03*
X936796Y829550D02*
D03*
X1264250Y884750D02*
D03*
X591000Y822000D02*
D03*
X699000Y922000D02*
D03*
X675000Y938000D02*
D03*
X667000D02*
D03*
X683000Y914000D02*
D03*
X674999Y929998D02*
D03*
X675000Y922000D02*
D03*
X691000Y922000D02*
D03*
X683000Y922000D02*
D03*
X658999Y905998D02*
D03*
X651000Y906000D02*
D03*
X658800Y913900D02*
D03*
X707000Y906000D02*
D03*
X715000D02*
D03*
X707000Y914000D02*
D03*
X634000Y993250D02*
D03*
X648250Y929750D02*
D03*
X682999Y945998D02*
D03*
X691000Y963500D02*
D03*
X699000Y962000D02*
D03*
X715000Y954000D02*
D03*
X722000Y964000D02*
D03*
X699000Y954000D02*
D03*
X715000Y946000D02*
D03*
X707000D02*
D03*
X699000D02*
D03*
X691000D02*
D03*
X715000Y938000D02*
D03*
X706999Y937998D02*
D03*
X698999D02*
D03*
X687919Y976169D02*
D03*
X794500Y791750D02*
D03*
X731187Y779563D02*
D03*
X929000Y1053625D02*
D03*
X918170Y1026920D02*
D03*
X954500Y1029250D02*
D03*
X934875Y1020750D02*
D03*
X929000Y1029250D02*
D03*
X982419Y1039919D02*
D03*
X1010250Y1028000D02*
D03*
X935750Y1070250D02*
D03*
X972123Y1028127D02*
D03*
X822000Y952750D02*
D03*
X958000Y1020750D02*
D03*
X936800Y885550D02*
D03*
X872800Y909550D02*
D03*
X936800Y893550D02*
D03*
X809000Y960000D02*
D03*
X832250Y951000D02*
D03*
X796660Y906002D02*
D03*
X804280D02*
D03*
X803290Y819380D02*
D03*
X803270Y813030D02*
D03*
X791140Y814710D02*
D03*
X757000Y771000D02*
D03*
X811830Y756420D02*
D03*
X766750Y783750D02*
D03*
X783000Y808000D02*
D03*
X760000Y975679D02*
D03*
X760037Y968297D02*
D03*
X765000Y980500D02*
D03*
X781538Y801462D02*
D03*
X842420Y734750D02*
D03*
X920796Y901550D02*
D03*
X920800Y893550D02*
D03*
X872796Y781554D02*
D03*
X466250Y1116250D02*
D03*
X901750Y1141500D02*
D03*
X312000Y1065000D02*
D03*
X349250Y1033500D02*
D03*
D23*
X706827Y780435D02*
D03*
X716987D02*
D03*
X706840Y769000D02*
D03*
X717000D02*
D03*
X767080Y764250D02*
D03*
X756920D02*
D03*
X801670Y748250D02*
D03*
X811830D02*
D03*
X938170Y1029250D02*
D03*
X948330D02*
D03*
D24*
X696000Y711000D02*
D03*
Y693000D02*
D03*
X677000Y711000D02*
D03*
Y693000D02*
D03*
X658000Y711000D02*
D03*
Y693000D02*
D03*
X982000Y1076000D02*
D03*
Y1094000D02*
D03*
X1033000Y1185000D02*
D03*
Y1167000D02*
D03*
X1292000Y1125000D02*
D03*
Y1107000D02*
D03*
X486000Y906000D02*
D03*
Y888000D02*
D03*
X504000Y906000D02*
D03*
Y888000D02*
D03*
X618000Y841000D02*
D03*
Y859000D02*
D03*
Y941000D02*
D03*
Y923000D02*
D03*
X1098000Y1108000D02*
D03*
Y1126000D02*
D03*
X1044000Y1061000D02*
D03*
Y1043000D02*
D03*
X758000Y724000D02*
D03*
Y706000D02*
D03*
D25*
X1299992Y1263000D02*
D03*
X1324008D02*
D03*
D26*
X649226Y1084100D02*
D03*
Y1071400D02*
D03*
Y1058700D02*
D03*
Y1046000D02*
D03*
Y1033300D02*
D03*
Y1020600D02*
D03*
Y1007900D02*
D03*
X588774D02*
D03*
Y1020600D02*
D03*
Y1033300D02*
D03*
Y1046000D02*
D03*
Y1058700D02*
D03*
Y1071400D02*
D03*
Y1084100D02*
D03*
X395226Y1100100D02*
D03*
Y1087400D02*
D03*
Y1074700D02*
D03*
Y1062000D02*
D03*
Y1049300D02*
D03*
Y1036600D02*
D03*
Y1023900D02*
D03*
X334774D02*
D03*
Y1036600D02*
D03*
Y1049300D02*
D03*
Y1062000D02*
D03*
Y1074700D02*
D03*
Y1087400D02*
D03*
Y1100100D02*
D03*
X525774Y935100D02*
D03*
Y922400D02*
D03*
Y909700D02*
D03*
Y897000D02*
D03*
Y884300D02*
D03*
Y871600D02*
D03*
Y858900D02*
D03*
X586226D02*
D03*
Y871600D02*
D03*
Y884300D02*
D03*
Y897000D02*
D03*
Y909700D02*
D03*
Y922400D02*
D03*
Y935100D02*
D03*
D27*
X650060Y1142300D02*
D03*
Y1155000D02*
D03*
Y1167700D02*
D03*
Y1180400D02*
D03*
X705940D02*
D03*
Y1167700D02*
D03*
Y1155000D02*
D03*
Y1142300D02*
D03*
D28*
X535242Y1049500D02*
D03*
Y1056000D02*
D03*
Y1062500D02*
D03*
Y1069000D02*
D03*
Y1075500D02*
D03*
Y1082000D02*
D03*
Y1088500D02*
D03*
X472758Y1088500D02*
D03*
Y1082000D02*
D03*
Y1075500D02*
D03*
Y1069000D02*
D03*
Y1062500D02*
D03*
Y1056000D02*
D03*
Y1049500D02*
D03*
X352242Y948500D02*
D03*
Y955000D02*
D03*
Y961500D02*
D03*
Y968000D02*
D03*
Y974500D02*
D03*
Y981000D02*
D03*
Y987500D02*
D03*
X289758Y987500D02*
D03*
Y981000D02*
D03*
Y974500D02*
D03*
Y968000D02*
D03*
Y961500D02*
D03*
Y955000D02*
D03*
Y948500D02*
D03*
D29*
X994600Y935000D02*
D03*
X1197800D02*
D03*
X1210500D02*
D03*
X1185100D02*
D03*
X1172400D02*
D03*
X1159700D02*
D03*
X1147000D02*
D03*
X1134300D02*
D03*
X1121600D02*
D03*
X1108900D02*
D03*
X1096200D02*
D03*
X1083500D02*
D03*
X1070800D02*
D03*
X1058100D02*
D03*
X1045400D02*
D03*
X1032700D02*
D03*
X1020000D02*
D03*
X1007300D02*
D03*
X994600Y989000D02*
D03*
X1007300D02*
D03*
X1020000D02*
D03*
X1032700D02*
D03*
X1045400D02*
D03*
X1058100D02*
D03*
X1070800D02*
D03*
X1083500D02*
D03*
X1096200D02*
D03*
X1108900D02*
D03*
X1121600D02*
D03*
X1134300D02*
D03*
X1147000D02*
D03*
X1159700D02*
D03*
X1172400D02*
D03*
X1197800D02*
D03*
X1210500D02*
D03*
X1185100D02*
D03*
X1223200Y935000D02*
D03*
Y989000D02*
D03*
X1235900D02*
D03*
Y935000D02*
D03*
D30*
X1128557Y1168000D02*
D03*
X1105443Y1158475D02*
D03*
Y1177525D02*
D03*
D31*
X1333230Y1127500D02*
D03*
Y1118000D02*
D03*
Y1108500D02*
D03*
X1366770D02*
D03*
Y1127500D02*
D03*
D32*
X1356000Y1299008D02*
D03*
Y1274992D02*
D03*
X1232000Y1343008D02*
D03*
Y1318992D02*
D03*
Y1285008D02*
D03*
Y1260992D02*
D03*
D33*
X628750Y702000D02*
D03*
X491250D02*
D03*
Y785000D02*
D03*
X628750D02*
D03*
D34*
X592000Y728000D02*
D03*
X515000D02*
D03*
X581000D02*
D03*
X548000D02*
D03*
X559000D02*
D03*
X537000D02*
D03*
X526000D02*
D03*
X570000D02*
D03*
D35*
X1019000Y903000D02*
D03*
X1024000D02*
D03*
X1029000D02*
D03*
X1034000D02*
D03*
X1039000D02*
D03*
X1044000D02*
D03*
X1049000D02*
D03*
X1054000D02*
D03*
X1059000D02*
D03*
X1064000D02*
D03*
X1069000D02*
D03*
X1074000D02*
D03*
X1079000D02*
D03*
X1084000D02*
D03*
X1089000D02*
D03*
X1094000D02*
D03*
X1099000D02*
D03*
X1104000D02*
D03*
X1109000D02*
D03*
X1114000D02*
D03*
X1119000D02*
D03*
X1124000D02*
D03*
X1129000D02*
D03*
X1134000D02*
D03*
X1139000D02*
D03*
X1144000D02*
D03*
X1149000D02*
D03*
X1154000D02*
D03*
X1159000D02*
D03*
X1164000D02*
D03*
X1169000D02*
D03*
X1174000D02*
D03*
X1179000D02*
D03*
X1184000D02*
D03*
X1189000D02*
D03*
X1194000D02*
D03*
X1199000D02*
D03*
X1204000D02*
D03*
X1209000D02*
D03*
X1214000D02*
D03*
D36*
X994870Y887760D02*
D03*
X1238130D02*
D03*
D37*
X1049000Y1326060D02*
D03*
Y1227000D02*
D03*
D38*
X1350530Y1199000D02*
D03*
X1251470D02*
D03*
X1350530Y1044000D02*
D03*
X1251470D02*
D03*
X1156470Y1123000D02*
D03*
X1255530D02*
D03*
D39*
X359290Y754500D02*
D03*
Y729100D02*
D03*
X290710Y754500D02*
D03*
Y729100D02*
D03*
X359290Y830700D02*
D03*
Y805300D02*
D03*
Y779900D02*
D03*
X290710Y830700D02*
D03*
Y805300D02*
D03*
Y779900D02*
D03*
Y856100D02*
D03*
Y881500D02*
D03*
Y906900D02*
D03*
X359290Y856100D02*
D03*
Y881500D02*
D03*
Y906900D02*
D03*
X1359020Y751700D02*
D03*
Y726300D02*
D03*
X1291710D02*
D03*
Y751700D02*
D03*
X1359290Y852400D02*
D03*
Y827000D02*
D03*
Y801600D02*
D03*
X1290710Y852400D02*
D03*
Y827000D02*
D03*
Y801600D02*
D03*
D40*
X459400Y703710D02*
D03*
X434000D02*
D03*
X408600D02*
D03*
X459400Y772290D02*
D03*
X434000D02*
D03*
X408600D02*
D03*
X1336300Y905710D02*
D03*
X1361700D02*
D03*
Y973020D02*
D03*
X1336300D02*
D03*
D41*
X409000Y890250D02*
D03*
Y877250D02*
D03*
Y864250D02*
D03*
Y857750D02*
D03*
Y870750D02*
D03*
Y883750D02*
D03*
Y942250D02*
D03*
Y929250D02*
D03*
Y916250D02*
D03*
Y903250D02*
D03*
Y896750D02*
D03*
Y909750D02*
D03*
Y922750D02*
D03*
Y935750D02*
D03*
X465000Y857750D02*
D03*
Y864250D02*
D03*
Y896750D02*
D03*
Y909750D02*
D03*
Y916250D02*
D03*
Y903250D02*
D03*
Y877250D02*
D03*
Y890250D02*
D03*
Y883750D02*
D03*
Y870750D02*
D03*
Y929250D02*
D03*
Y942250D02*
D03*
Y935750D02*
D03*
Y922750D02*
D03*
D42*
X1175400Y1029000D02*
D03*
Y1045000D02*
D03*
X1124600Y1029000D02*
D03*
Y1045000D02*
D03*
D43*
X902250Y1151250D02*
D03*
X922250D02*
D03*
D44*
X733000Y748400D02*
D03*
X717000D02*
D03*
X733000Y697600D02*
D03*
X717000D02*
D03*
D45*
X849500Y721500D02*
D03*
X794500D02*
D03*
X849500Y698500D02*
D03*
X794500D02*
D03*
D46*
X1355000Y1297000D02*
Y1320000D01*
X1320000Y1264000D02*
X1342000D01*
X1347000Y1282000D02*
X1367000Y1262000D01*
X1261000Y1264000D02*
X1301000D01*
X1357530Y1199000D02*
Y1207470D01*
X1212000Y1183000D02*
X1231000D01*
X981000Y1342000D02*
X1038000D01*
X1199000Y1340000D02*
X1204000D01*
X1215000Y1329000D01*
X1367000Y1225000D02*
Y1262000D01*
X1160000Y1204000D02*
X1206000Y1250000D01*
X1248000Y1277000D02*
Y1304000D01*
X1326540Y1282000D02*
X1347000D01*
X1215000Y1304008D02*
X1232000Y1287008D01*
X1215000Y1304008D02*
Y1329000D01*
X1261530Y1127530D02*
X1274000Y1140000D01*
X1232000Y1285008D02*
Y1287008D01*
X1318430Y1290110D02*
X1326540Y1282000D01*
X1234000Y1318000D02*
X1248000Y1304000D01*
X1215000Y1329000D02*
X1230000Y1344000D01*
X1224000Y1256000D02*
X1229000Y1261000D01*
X1242000Y1232000D02*
X1255000Y1245000D01*
X1242000Y1201000D02*
Y1232000D01*
X1232000Y1284000D02*
Y1285008D01*
X1193000Y1183000D02*
Y1200992D01*
X1206000Y1256000D02*
X1224000D01*
X1206000Y1250000D02*
Y1256000D01*
X1078000Y1245000D02*
X1125000D01*
X1153000Y1273000D01*
X1207000D01*
X1269000Y1046000D02*
Y1067000D01*
X1050000Y1235000D02*
Y1238000D01*
X1057000Y1245000D01*
X1038000Y1342000D02*
X1049000Y1331000D01*
X1057000Y1245000D02*
X1078000D01*
X1160000Y1126530D02*
Y1204000D01*
X1261530Y1123000D02*
Y1127530D01*
X1156470Y1123000D02*
X1160000Y1126530D01*
X1248000Y1277000D02*
X1261000Y1264000D01*
X1301000D02*
X1357530Y1207470D01*
D47*
X1054500Y1111000D02*
X1070750D01*
X1014000Y1141750D02*
X1019000D01*
X1020000Y1151000D02*
X1023000Y1148000D01*
X1014500Y1151000D02*
X1020000D01*
X1075000Y1095000D02*
X1100000Y1070000D01*
X1070750Y1095000D02*
X1075000D01*
X1031000Y1142750D02*
Y1149000D01*
X1070750Y1131000D02*
X1076000D01*
X1070750Y1091000D02*
X1116750Y1045000D01*
X1070750Y1119000D02*
X1084000D01*
X1070750Y1107000D02*
X1077000D01*
X1070750Y1135000D02*
X1079750Y1144000D01*
X1011250Y1091000D02*
X1018000D01*
X1070750Y1115000D02*
X1087000D01*
X1070750Y1103000D02*
X1078000D01*
X1059000Y1075000D02*
Y1083250D01*
X1047000Y1075000D02*
X1048000Y1074000D01*
X1039000Y1077000D02*
Y1080000D01*
X1004000Y1103000D02*
X1011250D01*
X1005000Y1099000D02*
X1011250D01*
X1018000Y1091000D02*
X1026625Y1099625D01*
X1047000Y1128250D02*
Y1142750D01*
X1051000D02*
Y1149000D01*
X1055000Y1142750D02*
Y1150000D01*
X1058000Y1153000D01*
X1027000Y1142750D02*
Y1148480D01*
X1023000Y1142750D02*
Y1148000D01*
X1063000Y1077000D02*
Y1083250D01*
X1043000Y1077000D02*
Y1083250D01*
X1047000Y1075000D02*
Y1083250D01*
X1124600Y1045000D02*
X1175400D01*
X1059000Y1142750D02*
Y1148000D01*
X1061000Y1150000D01*
X1043000Y1142750D02*
Y1151000D01*
X1039000Y1142750D02*
Y1148000D01*
X1037000Y1150000D02*
X1039000Y1148000D01*
X1005000Y1127000D02*
X1008000D01*
X1004000Y1131000D02*
X1011250D01*
X1004000Y1126000D02*
X1005000Y1127000D01*
X1020480Y1155000D02*
X1027000Y1148480D01*
X976000Y1126000D02*
Y1129000D01*
X1002000Y1155000D01*
X1020480D01*
X1070750Y1115000D02*
X1070750Y1115000D01*
X1087000D02*
X1088000Y1116000D01*
X1084000Y1119000D02*
X1088000Y1123000D01*
X1018750Y1083000D02*
X1019000Y1083250D01*
X1116750Y1045000D02*
X1124600D01*
Y1029000D02*
X1150000D01*
X1175400D01*
X1076000Y1131000D02*
X1085000Y1140000D01*
X1058000Y1153000D02*
Y1158000D01*
X1078000Y1103000D02*
X1095000Y1086000D01*
X1100000D01*
X1099000Y1077000D02*
X1125000D01*
X1070750Y1099000D02*
X1077000D01*
X1099000Y1077000D01*
X1003000Y1104000D02*
X1004000Y1103000D01*
X988000Y1104000D02*
X1003000D01*
X1058000Y1074000D02*
X1059000Y1075000D01*
X1038000Y1076000D02*
X1039000Y1077000D01*
X1021000Y1159000D02*
X1031000Y1149000D01*
X959000Y1152000D02*
X966000Y1159000D01*
X1021000D01*
X966000Y1047000D02*
X978000D01*
D48*
X972000Y1076000D02*
X992000Y1056000D01*
X995000D01*
X1362300Y948000D02*
Y973020D01*
X974000Y1076000D02*
X982000D01*
X973000Y1077000D02*
X974000Y1076000D01*
X1349000Y947000D02*
Y1000000D01*
X1335700Y933700D02*
X1349000Y947000D01*
X1362300Y908710D02*
Y931000D01*
X1335700Y908710D02*
Y933700D01*
X1336000Y979000D02*
Y1013000D01*
X1341000Y1018000D01*
X1349000Y1000000D02*
X1367000Y1018000D01*
X972000Y1076000D02*
X974000D01*
X967000Y1081000D02*
X972000Y1076000D01*
X1020000Y989000D02*
Y1017000D01*
X1223200Y914000D02*
Y935000D01*
X1235900Y914000D02*
Y935000D01*
X1223200Y989000D02*
Y1004000D01*
X1209200Y1018000D02*
X1223200Y1004000D01*
X1209000Y1018000D02*
X1209200D01*
X1235900Y968000D02*
Y989000D01*
X1020000Y1017000D02*
X1027000Y1024000D01*
D49*
X718000Y748400D02*
Y756000D01*
Y697600D02*
Y701000D01*
X690000Y765000D02*
X706131Y781131D01*
X695840Y759000D02*
X706340Y769500D01*
X479500Y935750D02*
X480750Y937000D01*
X465000Y935750D02*
X479500D01*
X718250Y719000D02*
X719125Y718125D01*
X676000Y709000D02*
X686000Y719000D01*
X768000Y748000D02*
Y769500D01*
X778499Y882502D02*
X779000D01*
X774000Y776000D02*
X828500Y721500D01*
X696000Y712000D02*
X721000D01*
X909800Y779696D02*
X915656Y785552D01*
X654997Y894000D02*
X658997Y890000D01*
X702750Y853750D02*
Y854250D01*
X734000Y734000D02*
Y748400D01*
X654000Y709000D02*
X664480Y719480D01*
X414000Y942250D02*
Y948000D01*
X765037Y962537D02*
Y980500D01*
X699000Y738000D02*
X706600D01*
X717000Y748400D01*
X759000Y958000D02*
X760037Y959037D01*
X760037Y968297D01*
X755000Y979000D02*
X852000Y1076000D01*
X755000Y962000D02*
X755000Y979000D01*
X852000Y1076000D02*
X897000Y1076000D01*
X872800Y869554D02*
X876798Y873552D01*
X675002Y842002D02*
X679000Y846000D01*
X667002Y842002D02*
X671000Y846000D01*
X659002Y842002D02*
X663000Y846000D01*
X651002Y842002D02*
X655000Y846000D01*
X864630Y869720D02*
X868798Y865552D01*
X694000Y1031000D02*
X713250D01*
X728250D02*
X735000Y1024250D01*
X694000Y1091000D02*
X716750Y1091000D01*
X735250D02*
X743000Y1083250D01*
X739000Y962000D02*
X739000Y1076000D01*
X719000Y1096000D02*
X739000Y1076000D01*
X694000Y1096000D02*
X719000Y1096000D01*
X712500Y959500D02*
Y970000D01*
X1006500Y1143000D02*
X1014500Y1151000D01*
X337484Y978000D02*
X340484Y981000D01*
X619000Y1006900D02*
X649226D01*
X872796Y789554D02*
X876794Y793552D01*
X864796Y789554D02*
X868794Y793552D01*
X924802Y889552D02*
X928800Y893550D01*
X920796Y845554D02*
X924794Y849552D01*
X924798Y841548D02*
X928796Y837550D01*
X767000Y886000D02*
X771000Y890000D01*
X760250Y777250D02*
X768000Y769500D01*
Y748000D02*
X794500Y721500D01*
X598750Y804750D02*
X605750D01*
X641500Y840500D01*
X637000Y802000D02*
Y827000D01*
X645000Y793000D02*
X659000Y807000D01*
X579000Y819000D02*
X591000Y807000D01*
X637000Y827000D02*
X646000Y836000D01*
X645000Y786000D02*
X663000Y804000D01*
X924798Y779048D02*
Y785552D01*
X920800Y789554D02*
X924798Y793552D01*
X864800Y909550D02*
X868798Y905552D01*
X916798Y825548D02*
X920796Y821550D01*
X795000Y938000D02*
X797000D01*
X767000Y878000D02*
X771000Y874000D01*
X880796Y821554D02*
X884794Y825552D01*
X916798Y801548D02*
X920796Y797550D01*
X924798Y801548D02*
X928796Y797550D01*
X932802Y865552D02*
X936800Y869550D01*
X924802Y865552D02*
X928800Y869550D01*
X872800Y853550D02*
X876798Y849552D01*
X872800Y837554D02*
X876798Y841552D01*
X967300Y840500D02*
X967700Y840100D01*
X967100Y821500D02*
X967700Y822100D01*
Y831000D01*
X775000Y886000D02*
X778499Y882502D01*
X775000Y878000D02*
X778998Y874002D01*
X793000Y960000D02*
X809000D01*
X791000Y958000D02*
X793000Y960000D01*
X1291710Y726300D02*
X1319000Y699010D01*
X1350000Y716000D02*
Y724000D01*
X1024000Y903000D02*
Y916000D01*
X897000Y1056000D02*
X908000D01*
X676000Y976000D02*
Y1004000D01*
X667000Y967000D02*
X676000Y976000D01*
X681000Y997000D02*
Y1033000D01*
Y997000D02*
X683000Y995000D01*
X840000Y1086000D02*
X897000Y1086000D01*
X747000Y993000D02*
X840000Y1086000D01*
X747000Y962000D02*
X747000Y993000D01*
X897000Y1091000D02*
X915000D01*
X679000Y785000D02*
Y822000D01*
X647000Y753000D02*
X679000Y785000D01*
X603500Y873500D02*
X603500Y873500D01*
X592700Y884300D02*
X603500Y873500D01*
X586226Y884300D02*
X592700D01*
X603500Y873500D02*
X618000Y859000D01*
X641500Y889500D02*
X650000Y898000D01*
X641500Y840500D02*
Y889500D01*
X717000Y724000D02*
X719000Y726000D01*
X684000Y724000D02*
X717000D01*
X679480Y719480D02*
X684000Y724000D01*
X692000Y739000D02*
Y748000D01*
X677000Y724000D02*
X692000Y739000D01*
X684000Y756000D02*
X692000Y748000D01*
X612000Y724000D02*
X677000D01*
X699000Y781000D02*
Y817500D01*
X652500Y734500D02*
X699000Y781000D01*
X679000Y830000D02*
X683000Y826000D01*
X687000Y838000D02*
X691000Y834000D01*
X683000Y874000D02*
X687000Y878000D01*
X683000Y874000D02*
X687000Y870000D01*
X655000D02*
X659000Y874000D01*
X683000Y882000D02*
X687000Y886000D01*
X521484Y1049500D02*
X535242D01*
Y1075500D02*
X552500D01*
X783137Y808137D02*
Y821863D01*
X783000Y822000D02*
X783137Y821863D01*
X763000Y882000D02*
Y882000D01*
X759000Y878000D02*
X763000Y882000D01*
X759000Y886000D02*
X763000Y882000D01*
X767000Y902000D02*
X767000D01*
X924798Y833548D02*
X928796Y829550D01*
X876798Y881552D02*
X880796Y877554D01*
X868798Y881548D02*
X872796Y877550D01*
X868798Y873552D02*
X872796Y877550D01*
X438000Y987000D02*
X448000D01*
X468000Y1001000D02*
X478000D01*
X607100Y995000D02*
X619000Y1006900D01*
X554000Y995000D02*
X607100D01*
X551000Y992000D02*
X554000Y995000D01*
X533000Y992000D02*
X542000Y1001000D01*
X604000D01*
X617000Y1014000D01*
X642626D01*
X450000Y1069000D02*
X456500Y1075500D01*
X450000Y1026000D02*
Y1069000D01*
Y1026000D02*
X459000Y1017000D01*
X551000Y975000D02*
Y992000D01*
X533000Y975000D02*
Y992000D01*
X468000Y984000D02*
Y1001000D01*
X450000Y984000D02*
Y1001000D01*
X507000Y975000D02*
X522000Y960000D01*
X503000Y971000D02*
X522000Y952000D01*
X444000Y971000D02*
X503000D01*
X441000Y975000D02*
X507000D01*
X414000Y948000D02*
X441000Y975000D01*
X423000Y950000D02*
X444000Y971000D01*
X750000Y707000D02*
X757000D01*
X559000Y1020600D02*
X588774D01*
X559000Y1009000D02*
X587874D01*
X642626Y1014000D02*
X649226Y1020600D01*
X641700Y1033300D02*
X649226D01*
X574548Y1058700D02*
X588774D01*
X612000D02*
X649226D01*
X615000Y1072000D02*
X648626D01*
X596900Y935100D02*
X601000Y931000D01*
X586226Y935100D02*
X596900D01*
X573000Y1073000D02*
X587174D01*
X423000Y941000D02*
Y950000D01*
X1039000Y903000D02*
Y916000D01*
X1214000Y868000D02*
Y903000D01*
X1094000Y868000D02*
Y902000D01*
X1114000Y868000D02*
Y903000D01*
X1144000Y868000D02*
Y903000D01*
X1204000Y868000D02*
Y903000D01*
X1074000Y868000D02*
Y903000D01*
X1064000Y868000D02*
Y903000D01*
X1084000Y868000D02*
Y903000D01*
X1104000Y868000D02*
Y903000D01*
X1194000Y868000D02*
Y903000D01*
X1054000Y868000D02*
Y903000D01*
X1045400Y935000D02*
Y952000D01*
X1064450Y963200D02*
Y971200D01*
X1051750Y956200D02*
Y971200D01*
X1070800Y935000D02*
Y953000D01*
X1045400Y977550D02*
X1051750Y971200D01*
X1045400Y977550D02*
Y989000D01*
X1058100Y935000D02*
Y959000D01*
Y977550D02*
X1064450Y971200D01*
X1058100Y977550D02*
Y989000D01*
X780000Y963000D02*
Y966000D01*
X775000Y958000D02*
X780000Y963000D01*
X767000Y950000D02*
X771000Y954000D01*
X470000Y688000D02*
X475000Y693000D01*
X446000Y688000D02*
Y691710D01*
X779002Y938002D02*
X783000Y942000D01*
X791000Y950000D02*
X794998Y953998D01*
X797000Y938000D02*
X805000Y946000D01*
X808000Y942000D02*
X819000D01*
X800000Y934000D02*
X808000Y942000D01*
X757000Y725000D02*
Y727000D01*
X916802Y857552D02*
X920799Y861549D01*
X791000Y814850D02*
Y822000D01*
X932802Y905552D02*
X936800Y909550D01*
X924802Y897552D02*
X928800Y901550D01*
X932802Y897552D02*
X936800Y901550D01*
X916802Y873552D02*
X920800Y877550D01*
X916802Y865552D02*
X920800Y869550D01*
X932798Y833548D02*
X936796Y829550D01*
X932798Y817548D02*
X936796Y813550D01*
X924798Y817548D02*
X928796Y813550D01*
X916798Y809548D02*
X920796Y805550D01*
X924798Y809548D02*
X928796Y805550D01*
X932798Y809548D02*
X936796Y805550D01*
X932798Y801548D02*
X936796Y797550D01*
X932798Y793548D02*
X936796Y789550D01*
X932798Y785548D02*
X936796Y781550D01*
X880796Y781554D02*
X884794Y785552D01*
X864796Y781554D02*
X868794Y785552D01*
X880796Y789554D02*
X884794Y793552D01*
X872796Y797554D02*
X876794Y801552D01*
X864796Y797554D02*
X868794Y801552D01*
X864796Y805554D02*
X868794Y809552D01*
X872796Y805554D02*
X876794Y809552D01*
X880796Y813554D02*
X884794Y817552D01*
X872796Y813554D02*
X876794Y817552D01*
X864796Y813554D02*
X868794Y817552D01*
X880796Y805554D02*
X884794Y809552D01*
X864796Y829554D02*
X868794Y833552D01*
X872796Y829554D02*
X876794Y833552D01*
X884798Y873552D02*
X888796Y877550D01*
X864800Y893550D02*
X868798Y889552D01*
X864800Y901550D02*
X868798Y897552D01*
X872800Y901550D02*
X876798Y897552D01*
X880800Y901550D02*
X884798Y897552D01*
X864800Y853550D02*
X868798Y849552D01*
X880796Y797554D02*
X884794Y801552D01*
X872800Y893550D02*
X876798Y889552D01*
X916802Y905552D02*
X920800Y909550D01*
X924802Y905552D02*
X928800Y909550D01*
X924802Y857552D02*
X928800Y861550D01*
X932802Y849552D02*
X936800Y853550D01*
X932802Y857552D02*
X936800Y861550D01*
X924802Y881552D02*
X928800Y885550D01*
X932802Y873552D02*
X936800Y877550D01*
X924802Y873552D02*
X928800Y877550D01*
X759000Y846000D02*
X763000Y842000D01*
X775000Y901997D02*
Y902000D01*
Y918000D02*
X779000Y922000D01*
X775000Y838000D02*
X779000Y834000D01*
X767000Y862000D02*
X771000Y858000D01*
X767000Y910000D02*
X770998Y913998D01*
X767000Y870000D02*
X771000Y866000D01*
X775000Y910000D02*
X778998Y913998D01*
X778999D01*
X767000Y926000D02*
X771000Y930000D01*
Y930000D01*
X775000Y862000D02*
X779000Y858000D01*
X775000Y926000D02*
X778998Y929998D01*
X703000Y870000D02*
X707000Y874000D01*
X703000Y878000D02*
Y878000D01*
X707000Y898000D02*
X711000Y894000D01*
X735000Y862000D02*
Y862000D01*
Y862000D02*
X739000Y866000D01*
X731000Y866000D02*
X735000Y870000D01*
X743000Y878000D02*
X743000D01*
X727000Y878000D02*
X731000Y882000D01*
X727000Y886000D02*
X731000Y882000D01*
X715000Y890000D02*
X719000Y886000D01*
X743000Y878000D02*
Y878000D01*
X695000Y902000D02*
X699000Y906000D01*
X703000Y902000D02*
Y902000D01*
X699000Y906000D02*
Y906000D01*
X687000Y910000D02*
Y910000D01*
X715000Y906000D02*
X719000Y902000D01*
X743000Y894000D02*
X747000Y898000D01*
X743000Y894000D02*
X743000D01*
X719000Y910000D02*
Y910000D01*
X735000Y910000D02*
Y910000D01*
X727000Y910000D02*
X731000Y914000D01*
X743000Y910000D02*
X743000D01*
X711000Y918000D02*
Y918000D01*
X715000Y922000D01*
X743000Y918000D02*
X747000Y922000D01*
X751000Y878000D02*
Y878000D01*
X747000Y914000D02*
X751000Y910000D01*
X719000Y846000D02*
Y846000D01*
Y846000D02*
X722999Y849998D01*
X727000Y854000D01*
Y854000D01*
X743000D02*
X747000Y858000D01*
X691000D02*
X695000Y862000D01*
Y870000D02*
X699000Y866000D01*
X695000Y870000D02*
X695000D01*
X691000Y882000D02*
X695000Y878000D01*
X691000Y882000D02*
X695000Y886000D01*
X783000Y822000D02*
Y822000D01*
X671000Y791000D02*
Y822000D01*
X699000Y882000D02*
X703000Y886000D01*
X703000D01*
X699002Y897998D02*
X703000Y894000D01*
X727000Y902000D02*
X731000Y906000D01*
X695000Y910000D02*
Y910000D01*
X703000Y918000D02*
X703000D01*
X711000Y910000D02*
X715000Y914000D01*
Y914000D01*
X727000Y918000D02*
X730998Y921998D01*
X730999D01*
X731002D01*
X743000Y862000D02*
Y862000D01*
X746998Y865998D01*
X751000Y869997D02*
Y870000D01*
X751000D02*
X751000D01*
X735000Y894000D02*
Y894000D01*
X735000Y894000D02*
X735000D01*
Y894000D02*
X739000Y898000D01*
X731000Y906000D02*
X735000Y902000D01*
X751000Y894000D02*
X755000Y898000D01*
X751000Y894000D02*
X751000D01*
Y902000D02*
X755000Y898000D01*
X755000D01*
X759000Y830000D02*
X763000Y826000D01*
X767000Y942000D02*
X770998Y945998D01*
X735000Y854000D02*
X738998Y857998D01*
X791000Y934000D02*
X800000D01*
X738998Y945998D02*
X738999D01*
X695000Y783000D02*
Y822000D01*
X667000Y801000D02*
Y817500D01*
X751000Y838000D02*
X755000Y834000D01*
X775000Y830000D02*
X779000Y826000D01*
X691000Y842000D02*
X695000Y846000D01*
X738999Y825999D02*
X743000Y830000D01*
X743000D01*
X683000Y858000D02*
X687000Y862000D01*
X683000Y890000D02*
X687000Y894000D01*
X687000Y878000D02*
X687000D01*
X699000Y858000D02*
X702750Y854250D01*
Y853750D02*
X703000Y854000D01*
X687000Y870000D02*
Y870000D01*
Y894000D02*
Y894000D01*
X691000Y922000D02*
X695000Y926000D01*
Y926000D01*
X715000Y850000D02*
X719000Y854000D01*
X759000Y918000D02*
X763000Y914000D01*
X751000Y926000D02*
Y926000D01*
X715000Y930000D02*
Y930000D01*
X743000Y926000D02*
X747000Y930000D01*
X759000Y926000D02*
Y926000D01*
X751000D02*
X754998Y929998D01*
X663000Y804000D02*
Y822000D01*
X770998Y913998D02*
X770999D01*
X706999Y825998D02*
Y825999D01*
X738999Y833998D02*
Y833999D01*
X703000Y845997D02*
Y846000D01*
X788000Y963000D02*
Y965000D01*
X783000Y958000D02*
X788000Y963000D01*
X727000Y829997D02*
X731001Y825996D01*
X735000Y846000D02*
Y846000D01*
X714999Y825998D02*
Y825999D01*
X719000Y830000D01*
X727000Y942000D02*
X731000Y946000D01*
X687000Y787000D02*
Y822000D01*
X743000Y846000D02*
X747000Y842000D01*
X658999Y833999D02*
X663000Y838000D01*
X715000Y834000D02*
X719000Y838000D01*
X751000Y830000D02*
X755000Y826000D01*
X690999Y889998D02*
Y889999D01*
X695000Y894000D01*
X687000Y926000D02*
X687000D01*
X706999Y937999D02*
X707000Y938000D01*
X751000Y854000D02*
X755000Y858000D01*
X707000Y938000D02*
X711000Y934000D01*
X751001Y918000D02*
X755000Y914000D01*
X751000Y918000D02*
X751001D01*
X755000Y914000D02*
Y914000D01*
X667000Y850000D02*
X671000Y854000D01*
X759000Y838000D02*
X763000Y834000D01*
X775000Y950000D02*
X779000Y954000D01*
X666999Y833999D02*
X671000Y838000D01*
X759000Y854000D02*
X762998Y857998D01*
X762999D01*
X759000Y862000D02*
X763000Y866000D01*
X759000Y870000D02*
X763000Y866000D01*
X759000Y878000D02*
X759000D01*
X759000Y886000D02*
Y886000D01*
Y894000D02*
X763000Y898000D01*
X675000Y850000D02*
X679000Y854000D01*
X778998Y929998D02*
X778999D01*
X783000Y950000D02*
X787000Y954000D01*
X649000Y743000D02*
X691000Y785000D01*
X675000Y874000D02*
X679000Y870000D01*
X703000Y878000D02*
X707000Y882000D01*
X711000Y886000D01*
X711000Y894000D02*
X711000D01*
Y894000D01*
Y870000D02*
X715000Y866000D01*
Y882000D02*
X719000Y878000D01*
X715000Y898000D02*
X719000Y894000D01*
X727000D02*
X731000Y898000D01*
X715000Y906000D02*
X719000Y910000D01*
X718750Y917750D02*
X719000Y918000D01*
X735000Y870000D02*
X735000D01*
Y878000D02*
Y878000D01*
Y886000D02*
X739000Y882000D01*
X735000Y878000D02*
X739000Y882000D01*
X743000Y878000D02*
X747000Y882000D01*
X743000Y918000D02*
Y918000D01*
X747000Y914000D02*
X747000D01*
X759000Y822000D02*
X763000Y818000D01*
X751000Y878000D02*
X755000Y882000D01*
X678997Y878000D02*
X679000D01*
X674999Y881998D02*
X678997Y878000D01*
X767000Y886000D02*
X771000Y882000D01*
X711000Y878000D02*
X715000Y874000D01*
X743000Y869996D02*
X746998Y865998D01*
X743000Y869996D02*
Y870000D01*
X751000Y862000D02*
X754998Y865998D01*
X735000Y902000D02*
X735000D01*
X731002Y921998D02*
X735000Y918000D01*
X743000Y902000D02*
X743000D01*
X738999Y817999D02*
X743000Y822000D01*
X687000Y878000D02*
Y878000D01*
X687000Y862000D02*
X687000D01*
X699000Y930000D02*
X703000Y926000D01*
X711000D02*
X711000D01*
X743000D02*
Y926000D01*
X715000Y930000D02*
X719000Y926000D01*
X759000Y926000D02*
X763000Y930000D01*
X759000Y894000D02*
Y894000D01*
X759000Y902000D02*
X763000Y898000D01*
X767000Y918000D02*
X770998Y921998D01*
X775000Y854000D02*
X779000Y850000D01*
X767000Y901997D02*
Y902000D01*
X719000Y894000D02*
X719000D01*
X727000Y878000D02*
Y878000D01*
X735000Y886000D02*
Y886000D01*
X703000Y910000D02*
Y910000D01*
X727000Y910000D02*
Y910000D01*
X715000Y922000D02*
X719000Y918000D01*
X743000Y910000D02*
X747000Y914000D01*
X751000Y886000D02*
X755000Y882000D01*
X715000Y858000D02*
X719000Y862000D01*
X703000D02*
X703000D01*
X699000Y866000D02*
X703000Y862000D01*
X743000Y942000D02*
X746998Y945998D01*
X715000Y874000D02*
X719000Y870000D01*
X695000Y918000D02*
X699000Y922000D01*
X731000Y906000D02*
Y906000D01*
X735000Y918000D02*
X735000D01*
X699002Y937998D02*
X703000Y934000D01*
X679000Y918000D02*
X679000D01*
X683000Y890000D02*
X683000D01*
X683000Y906000D02*
X687000Y902000D01*
X711000Y926000D02*
X715000Y930000D01*
X735000Y926000D02*
X739000Y930000D01*
X727000Y861997D02*
Y862000D01*
X711000Y846000D02*
X715000Y842000D01*
X759000Y862000D02*
Y862000D01*
X763000Y866000D02*
X763000D01*
X645000Y779000D02*
X667000Y801000D01*
X703000Y926000D02*
X703000D01*
X711000Y854000D02*
X715000Y850000D01*
X751000Y926000D02*
X751000D01*
X592000Y723000D02*
X609000Y706000D01*
X586000Y713000D02*
X593000Y706000D01*
X727000Y846000D02*
X731000Y842000D01*
X695000Y886000D02*
Y886000D01*
X746998Y945998D02*
X746999D01*
X699000Y922000D02*
X703000Y918000D01*
X751000Y869997D02*
X754999Y865999D01*
X735000Y854000D02*
Y854000D01*
X770998Y945998D02*
X770999D01*
X695000Y854000D02*
X699000Y858000D01*
X675002Y929998D02*
X679000Y926000D01*
X703000Y845997D02*
X706999Y841998D01*
X687000Y854000D02*
X691000Y850000D01*
X667000Y922000D02*
X671000Y918000D01*
X727000Y861997D02*
X730999Y857998D01*
X678997Y886000D02*
X679000D01*
X690000Y759000D02*
X695840D01*
X664480Y719480D02*
X679480D01*
X711000Y822000D02*
X715001Y817999D01*
X673950Y709000D02*
X676000D01*
X674000Y729000D02*
X687000Y742000D01*
X691000Y785000D02*
Y817500D01*
X727000Y822000D02*
X731001Y817999D01*
X719000Y822000D02*
X723001Y817999D01*
X703000Y822000D02*
X707001Y817999D01*
X615000Y729000D02*
X674000D01*
X687000Y693000D02*
X696000D01*
X668000D02*
X677000D01*
X649000Y693000D02*
X658000D01*
X515485Y794515D02*
X563485D01*
X517243Y798757D02*
X565243D01*
X570000Y718000D02*
X575000Y713000D01*
X586000D01*
X527000Y706000D02*
Y727000D01*
X570000Y718000D02*
Y728000D01*
X515000Y710000D02*
Y728000D01*
X592000Y723000D02*
Y728000D01*
X646000Y854000D02*
X650000Y858000D01*
X646000Y836000D02*
Y854000D01*
X347190Y717000D02*
X359290Y729100D01*
X286000Y717000D02*
X347190D01*
X645000Y765000D02*
X671000Y791000D01*
X398250Y929250D02*
X409000D01*
X381000Y912000D02*
X398250Y929250D01*
X381000Y815000D02*
Y912000D01*
X398750Y870750D02*
X409000D01*
X386000Y858000D02*
X398750Y870750D01*
X386000Y816000D02*
Y858000D01*
Y816000D02*
X405000Y797000D01*
X469000D01*
X478000Y788000D01*
X428000Y810000D02*
Y819000D01*
X478000Y776000D02*
Y788000D01*
Y776000D02*
X491000Y763000D01*
X488000Y759000D02*
X577000D01*
X473000Y774000D02*
X488000Y759000D01*
X473000Y774000D02*
Y786000D01*
X581000Y763000D02*
X615000Y729000D01*
X491000Y763000D02*
X581000D01*
X577000Y759000D02*
X612000Y724000D01*
X440757Y837243D02*
X478757D01*
X427000Y851000D02*
X440757Y837243D01*
X427000Y851000D02*
Y876000D01*
X438000Y833000D02*
X477000D01*
X421000Y850000D02*
X438000Y833000D01*
X421000Y850000D02*
Y873500D01*
X433000Y851971D02*
X443485Y841485D01*
X480515D01*
X478757Y837243D02*
X517243Y798757D01*
X480515Y841485D02*
X519000Y803000D01*
X477000Y833000D02*
X515485Y794515D01*
X519000Y803000D02*
X567000D01*
X494000Y838000D02*
Y845000D01*
X659000Y807000D02*
Y817500D01*
X675000Y787000D02*
Y817500D01*
X647000Y759000D02*
X675000Y787000D01*
X643000Y759000D02*
X647000D01*
X647760Y1170000D02*
X650060Y1167700D01*
X634000Y1170000D02*
X647760D01*
X406601Y691999D02*
X408600Y690000D01*
X456500Y1075500D02*
X472758D01*
X587874Y1007000D02*
X588774Y1007900D01*
X489000Y1017000D02*
X492600Y1020600D01*
X459000Y1017000D02*
X471000D01*
X616000Y1086000D02*
X647326D01*
X610000Y1038000D02*
X637000D01*
X641700Y1033300D01*
X388700Y1087400D02*
X395226D01*
X375600Y1036600D02*
X395226D01*
X339000Y946000D02*
X349742D01*
X352242Y948500D01*
X276000Y961500D02*
X289758D01*
X276000Y981000D02*
X289758D01*
X276000Y955000D02*
X289758D01*
X632000Y1180000D02*
X649660D01*
X650060Y1180400D01*
X667000Y1167700D02*
X705940D01*
X667000Y1155000D02*
X705940D01*
X521484Y1082000D02*
X535242D01*
X366000Y1027000D02*
X375600Y1036600D01*
X366000Y981000D02*
Y1027000D01*
X287000Y1089000D02*
X301000Y1103000D01*
X287000Y1015000D02*
Y1089000D01*
Y1015000D02*
X303000Y999000D01*
X299500Y974500D02*
X303000Y978000D01*
X395226Y1023900D02*
X435900D01*
X395226Y1074700D02*
X402700D01*
X395226Y1087400D02*
X406400D01*
X334774Y1023900D02*
X341300D01*
X395226Y1036600D02*
X426400D01*
X341300Y1049300D02*
X348000Y1042600D01*
X422000Y1103000D02*
X429000D01*
X406400Y1087400D02*
X422000Y1103000D01*
X440000Y1028000D02*
Y1074000D01*
X429000Y1085000D02*
X440000Y1074000D01*
X301000Y1103000D02*
X316600Y1087400D01*
X334774D01*
X301000Y1085000D02*
Y1094000D01*
X435900Y1023900D02*
X440000Y1028000D01*
X426400Y1036600D02*
X429000Y1034000D01*
Y1043000D02*
Y1052000D01*
X382000Y1101000D02*
X394326D01*
X388700Y1100100D02*
X395226D01*
X388700Y1062000D02*
X395226D01*
X383000Y1093100D02*
X388700Y1087400D01*
X394326Y1101000D02*
X395226Y1100100D01*
X459000Y1082000D02*
X472758D01*
X459000Y1056000D02*
X472758D01*
X738998Y857998D02*
X738999D01*
X727000Y870000D02*
X731000Y866000D01*
X738999Y833999D02*
X743000Y838000D01*
X711000Y846000D02*
Y846000D01*
X731000Y914000D02*
X735000Y910000D01*
X691000Y906000D02*
X695000Y910000D01*
X695000Y853750D02*
Y854000D01*
X735000Y926000D02*
Y926000D01*
X763000Y898000D02*
X763000D01*
X711000Y862000D02*
X715000Y858000D01*
X751000Y846000D02*
X755000Y842000D01*
X767000Y838000D02*
X771000Y834000D01*
X735000Y846000D02*
X739000Y842000D01*
X735000Y942000D02*
X738998Y945998D01*
X758996Y926000D02*
X759000D01*
X743000Y886000D02*
X747000Y882000D01*
X671000Y878000D02*
X671000D01*
X706999Y825999D02*
X711000Y830000D01*
X775000Y942000D02*
X778998Y945998D01*
X459000Y1062500D02*
X472758D01*
X305600Y893000D02*
X319500Y906900D01*
X406310Y706000D02*
X408600Y703710D01*
X475000Y693000D02*
Y714000D01*
X462000Y727000D02*
X475000Y714000D01*
X441000Y727000D02*
X462000D01*
X434000Y734000D02*
X441000Y727000D01*
X434000Y734000D02*
Y772290D01*
X305600Y867600D02*
X319500Y881500D01*
X305600Y816800D02*
X319500Y830700D01*
X511000Y706000D02*
X515000Y710000D01*
X319300Y805300D02*
X359290D01*
X319500Y906900D02*
X359290D01*
X319500Y830700D02*
X359290D01*
X319500Y881500D02*
X359290D01*
X552500Y1075500D02*
X562000Y1085000D01*
Y1067000D02*
X564000Y1065000D01*
X608000D01*
X615000Y1072000D01*
X659000Y850000D02*
X663000Y854000D01*
X655000Y818000D02*
Y822000D01*
X653000Y816000D02*
X655000Y818000D01*
X443000Y882000D02*
X451250Y890250D01*
X439000Y882000D02*
X443000D01*
X446000Y864000D02*
X452750Y870750D01*
X439000Y864000D02*
X446000D01*
X439000Y870000D02*
X445000D01*
X452250Y877250D01*
X439000Y876000D02*
X444000D01*
X451750Y883750D01*
X289758Y974500D02*
X299500D01*
X352242Y974500D02*
X359500D01*
X296000Y893000D02*
X305600D01*
X288000D02*
Y903000D01*
X296000Y867600D02*
X305600D01*
X296000Y816800D02*
X305600D01*
X288000Y791400D02*
Y803400D01*
Y816800D02*
Y828800D01*
Y867600D02*
Y879600D01*
X434000Y703710D02*
X446000Y691710D01*
X515900Y858900D02*
X525774D01*
X511000Y854000D02*
X515900Y858900D01*
X503000Y854000D02*
X511000D01*
X494000Y845000D02*
X503000Y854000D01*
X485000D02*
X494000D01*
X452000Y934000D02*
X456750Y929250D01*
X439000Y934000D02*
X452000D01*
X452000Y927000D02*
X456250Y922750D01*
X420750Y890250D02*
X433000Y878000D01*
Y851971D02*
Y878000D01*
X417250Y877250D02*
X421000Y873500D01*
X419250Y883750D02*
X427000Y876000D01*
X433000Y932000D02*
X438000Y927000D01*
X452000D01*
X433000Y932000D02*
Y949000D01*
X446000Y962000D01*
X450000D01*
X618000Y932000D02*
Y941000D01*
X572100Y858900D02*
X586226D01*
X564000Y888000D02*
X580400Y871600D01*
X586226D01*
X448000Y809000D02*
X457000D01*
X422000Y784290D02*
Y785000D01*
Y784290D02*
X434000Y772290D01*
X618000Y914000D02*
Y923000D01*
X586000Y986000D02*
X595000D01*
X586000Y968000D02*
X595000D01*
X572100Y922400D02*
X586226D01*
X577000Y944326D02*
X586226Y935100D01*
X577000Y944326D02*
Y966000D01*
X466000Y809000D02*
X491000D01*
X457000Y824000D02*
X466000D01*
X381000Y815000D02*
X404000Y792000D01*
X467000D01*
X473000Y786000D01*
X410000Y809000D02*
X419000D01*
X439000Y824000D02*
X448000D01*
X557000Y874000D02*
Y964000D01*
X542874Y876000D02*
X555000D01*
X572100Y858900D01*
X417750Y935750D02*
X423000Y941000D01*
X557000Y964000D02*
X577000Y984000D01*
X456750Y929250D02*
X465000D01*
X451250Y890250D02*
X465000D01*
X451750Y883750D02*
X465000D01*
X409000Y935750D02*
X417750D01*
X452250Y877250D02*
X465000D01*
X452750Y870750D02*
X465000D01*
X409000Y890250D02*
X420750D01*
X409000Y883750D02*
X419250D01*
X409000Y877250D02*
X417250D01*
X456250Y922750D02*
X465000D01*
X492600Y1020600D02*
X559000D01*
X648626Y1072000D02*
X649226Y1071400D01*
X588774Y1084100D02*
X603000D01*
X588774Y1007900D02*
X603000D01*
X588774Y1033300D02*
X603000D01*
X647326Y1086000D02*
X649226Y1084100D01*
X686000Y719000D02*
X718250D01*
X718000Y701000D02*
X730000Y713000D01*
X732000D01*
X721000Y712000D02*
X727000Y718000D01*
X319500Y856100D02*
X359290D01*
X305600Y842200D02*
X319500Y856100D01*
X288000Y842200D02*
Y854200D01*
X296000Y842200D02*
X305600D01*
X305000Y791000D02*
X319300Y805300D01*
X565243Y798757D02*
X626000Y738000D01*
X650000D01*
X695000Y783000D01*
X563485Y794515D02*
X623500Y734500D01*
X652500D01*
X648000Y748000D02*
X687000Y787000D01*
X567000Y803000D02*
X622000Y748000D01*
X648000D01*
X738000Y702600D02*
Y734000D01*
X718000Y756000D02*
X726000Y764000D01*
X731000D01*
X733000Y697600D02*
X738000Y702600D01*
X1070800Y977550D02*
Y989000D01*
Y977550D02*
X1077150Y971200D01*
X1083500Y977550D02*
Y989000D01*
Y977550D02*
X1089850Y971200D01*
X1096200Y977550D02*
Y989000D01*
Y977550D02*
X1102550Y971200D01*
X1108900Y977550D02*
Y989000D01*
Y977550D02*
X1115250Y971200D01*
X1121600Y977550D02*
Y989000D01*
Y977550D02*
X1127950Y971200D01*
X1134300Y977550D02*
Y989000D01*
Y977550D02*
X1140650Y971200D01*
X1147000Y977550D02*
Y989000D01*
Y977550D02*
X1153350Y971200D01*
X1159700Y977550D02*
Y989000D01*
Y977550D02*
X1166050Y971200D01*
X1172400Y977550D02*
Y989000D01*
Y977550D02*
X1178750Y971200D01*
X1185100Y977550D02*
Y989000D01*
Y977550D02*
X1191450Y971200D01*
X1197800Y977550D02*
Y989000D01*
Y977550D02*
X1204150Y971200D01*
X1059000Y903000D02*
Y916000D01*
X1079000Y903000D02*
Y916000D01*
X1109000Y903000D02*
Y916000D01*
X1099000Y903000D02*
Y916000D01*
X1089000Y903000D02*
Y916000D01*
X1159000Y904000D02*
Y916000D01*
X1179000Y903000D02*
Y916000D01*
X1169000Y903000D02*
Y916000D01*
X1199000Y903000D02*
Y916000D01*
X1189000Y904000D02*
Y916000D01*
X1209000Y903000D02*
Y916000D01*
X1049000Y903000D02*
Y916000D01*
X1083500Y935000D02*
Y953000D01*
X1121600Y935000D02*
Y953000D01*
X1134300Y935000D02*
Y953000D01*
X1108900Y935000D02*
Y953000D01*
X1096200Y935000D02*
Y953000D01*
X1172400Y935000D02*
Y953000D01*
X1185100Y935000D02*
Y953000D01*
X1159700Y935000D02*
Y953000D01*
X1210500Y935000D02*
Y953000D01*
X1197800Y935000D02*
Y953000D01*
X1007300Y935000D02*
Y953000D01*
X994600Y935000D02*
Y953000D01*
X1020000Y935000D02*
Y953000D01*
X1210500Y963050D02*
Y989000D01*
X1077150Y957200D02*
Y971200D01*
X1089850Y957200D02*
Y971200D01*
X1102550Y957200D02*
Y971200D01*
X1115250Y957200D02*
Y971200D01*
X1127950Y957200D02*
Y971200D01*
X1140650Y957200D02*
Y971200D01*
X1153350Y957200D02*
Y971200D01*
X1166050Y957200D02*
Y971200D01*
X1204150Y957200D02*
Y971200D01*
X1013650Y957200D02*
Y971200D01*
X1007300Y977550D02*
Y989000D01*
Y977550D02*
X1013650Y971200D01*
X1000950Y957200D02*
Y971200D01*
X994600Y977550D02*
Y989000D01*
Y977550D02*
X1000950Y971200D01*
X1147000Y935000D02*
Y953000D01*
X1210500Y963050D02*
X1216350Y957200D01*
X770998Y921998D02*
X770999D01*
X759000Y942000D02*
X762998Y945998D01*
X727000Y926000D02*
X731000Y930000D01*
X1069000Y903000D02*
Y916000D01*
X735000Y958000D02*
Y963000D01*
X735000Y963000D01*
X763000Y938000D02*
X767000Y934000D01*
X747001Y937998D02*
X747002D01*
X739001D02*
X739002D01*
X755001D02*
X755002D01*
X759000Y934000D01*
X731001Y937998D02*
X731002D01*
X735000Y934000D01*
X747002Y937998D02*
X751000Y934000D01*
X771001Y937998D02*
X771002D01*
X775000Y934000D01*
X739002Y937998D02*
X743000Y934000D01*
X723002Y937998D02*
X727000Y934000D01*
X680000Y1064000D02*
X683000Y1061000D01*
X680000Y1064000D02*
Y1067000D01*
X683000Y1061000D02*
X694000D01*
X886000D02*
X897000D01*
X731000Y962000D02*
X731000Y978000D01*
X684000Y1036000D02*
X694000D01*
Y1021000D02*
X694002Y1020998D01*
X735000Y963000D02*
X735000Y1024250D01*
X743000Y958000D02*
X743000Y1083250D01*
X699000Y1081000D02*
X724996D01*
X693998Y1086002D02*
X694000D01*
X699000D02*
X711998Y1086002D01*
X683000Y995000D02*
X714000Y995000D01*
X731000Y978000D01*
X681000Y1033000D02*
X684000Y1036000D01*
X884000Y1036000D02*
X897000Y1036000D01*
X884000Y1081000D02*
X897000Y1081000D01*
X694000Y1056000D02*
X705000D01*
X887000Y1031000D02*
X897000Y1031000D01*
X884000Y1028000D02*
X887000Y1031000D01*
X694000Y989000D02*
X707000Y976000D01*
X701000Y989000D02*
X717000Y973000D01*
X884000Y1044000D02*
X887000Y1041000D01*
X897000Y1041000D01*
X694000Y1026000D02*
X707750Y1026000D01*
X694002Y1020998D02*
X718998D01*
X751000Y958000D02*
X751000Y989000D01*
X1184000Y868000D02*
Y903000D01*
X1174000Y868000D02*
Y903000D01*
X1164000Y868000D02*
Y903000D01*
X1139000D02*
Y916000D01*
X1149000Y904000D02*
Y916000D01*
X1154000Y868000D02*
Y903000D01*
X1129000Y903000D02*
Y916000D01*
X1119000Y903000D02*
Y916000D01*
X1124000Y868000D02*
Y902000D01*
X1134000Y868000D02*
Y902000D01*
X618000Y894000D02*
Y903000D01*
X810000Y950000D02*
X815000Y955000D01*
Y962000D01*
X805000Y946000D02*
X815000D01*
X586226Y909700D02*
X599700D01*
X613000Y923000D01*
X618000D01*
X751000Y989000D02*
X842000Y1080000D01*
X739000Y898000D02*
X743000Y902000D01*
X602500Y874500D02*
X614000Y886000D01*
X615000Y885000D02*
X618000D01*
X1293000Y852000D02*
X1320000D01*
X1029000Y868000D02*
Y903000D01*
X1019000Y859000D02*
Y903000D01*
X1293000Y751000D02*
X1320000D01*
X1329000Y852000D02*
X1356000D01*
X1330000Y751000D02*
X1357000D01*
X1015000Y916000D02*
X1019000Y912000D01*
Y903000D02*
Y912000D01*
X745000Y712000D02*
X750000Y707000D01*
X745000Y712000D02*
Y715000D01*
X949750Y1150500D02*
X958750D01*
X645000Y753000D02*
X647000D01*
X645000Y743000D02*
X649000D01*
X1034000Y856000D02*
Y903000D01*
X649000Y952000D02*
X655000Y958000D01*
X666999Y897998D02*
X670999Y901998D01*
X655000Y862000D02*
X659000Y866000D01*
X663000Y870000D02*
X667000Y866000D01*
X667000Y874000D02*
X671000Y870000D01*
X659000Y962500D02*
Y971750D01*
X1178750Y957200D02*
Y971200D01*
X1191450Y962200D02*
Y971200D01*
X359500Y974500D02*
X366000Y981000D01*
X303000Y978000D02*
Y999000D01*
X402700Y1074700D02*
X422000Y1094000D01*
X429000D01*
X382000Y1093100D02*
X383000D01*
X334774Y1023900D02*
X335674Y1023000D01*
X348000D01*
X340484Y981000D02*
X352242D01*
X335674Y1101000D02*
X348000D01*
X1286000Y827000D02*
X1290710D01*
X1313000D01*
X579000Y819000D02*
Y848000D01*
X573000Y854000D02*
X579000Y848000D01*
X491000Y809000D02*
X512000Y788000D01*
X523000D01*
X461000Y706000D02*
X469000D01*
X462000Y766000D02*
X470000D01*
X674999Y833999D02*
X679000Y838000D01*
X707000Y834000D02*
X711000Y838000D01*
X916798Y817548D02*
X920796Y813550D01*
X880800Y829554D02*
X884798Y833552D01*
X915656Y785552D02*
X916798D01*
X880800Y837554D02*
X884798Y841552D01*
X591000Y846000D02*
X611000D01*
X616000Y841000D01*
X911800Y789554D02*
X915798Y793552D01*
X775000Y870000D02*
X779000Y866000D01*
X675000Y938000D02*
X679000Y934000D01*
X667000Y938000D02*
X671000Y934000D01*
X683000Y914000D02*
X687000Y910000D01*
X674999Y929998D02*
X675002D01*
X675000Y922000D02*
X679000Y918000D01*
X691000Y922000D02*
X691000D01*
X683000Y922000D02*
X687000Y926000D01*
X703000Y902000D02*
X707000Y906000D01*
X711000Y902000D01*
X703000Y910000D02*
X707000Y914000D01*
X651000Y922000D02*
X655000Y918000D01*
X659000Y922000D02*
X663000Y918000D01*
X691000Y954000D02*
X695000Y950000D01*
X703000Y966000D02*
Y973000D01*
X687000Y989000D02*
X703000Y973000D01*
X711000Y958000D02*
X712500Y959500D01*
X695000Y958000D02*
X699000Y962000D01*
X715000Y954000D02*
X719000Y950000D01*
X717000Y960000D02*
X719000Y958000D01*
X717000Y960000D02*
Y973000D01*
X707000Y968000D02*
Y976000D01*
X699000Y954000D02*
X703000Y950000D01*
X715000Y946000D02*
X719000Y942000D01*
X707000Y946000D02*
X711000Y942000D01*
X699000Y946000D02*
X703000Y942000D01*
X715000Y938000D02*
X719000Y934000D01*
X706999Y937998D02*
Y937999D01*
X698999Y937998D02*
X699002D01*
X652250Y978500D02*
X659000Y971750D01*
X1000576Y1028000D02*
X1010250D01*
X1000449Y1028127D02*
X1000576Y1028000D01*
X972123Y1028127D02*
X982669D01*
X815000Y946000D02*
X821750Y952750D01*
X822000D01*
X948330Y1029250D02*
X954500D01*
X929000D02*
X938170D01*
X929000Y1029250D02*
X929000Y1029250D01*
X932802Y881552D02*
X936800Y885550D01*
X872800Y909550D02*
X876798Y905552D01*
X932802Y889552D02*
X936800Y893550D01*
X819000Y942000D02*
X828000Y951000D01*
X832250D01*
X776000Y971000D02*
X795000D01*
X967700Y831000D02*
Y840100D01*
X756920Y764250D02*
Y770920D01*
X757000Y771000D01*
X760250Y777250D02*
Y802500D01*
X783000Y808000D02*
X783137Y808137D01*
X783750Y793750D02*
X829000Y748500D01*
X774000Y776000D02*
Y782500D01*
X828500Y721500D02*
X849500D01*
X767000Y958000D02*
X769000Y960000D01*
Y964000D01*
X776000Y971000D01*
X811830Y748250D02*
Y756420D01*
X834250Y734750D02*
X842420D01*
X910752Y855502D02*
X910800D01*
X916750Y849552D01*
X872796Y781554D02*
X876794Y785552D01*
X304500Y1055500D02*
Y1057500D01*
X312000Y1065000D01*
X346150Y1036600D02*
X349250Y1033500D01*
X334774Y1036600D02*
X346150D01*
X304500D02*
X334774D01*
D50*
X278000Y717200D02*
Y730200D01*
X972250Y1119000D02*
X1002000D01*
X741000Y797000D02*
X748000Y804000D01*
X635000Y1128000D02*
X682000D01*
X924000Y736000D02*
X949873Y710127D01*
X941998Y1047998D02*
X942000Y1052750D01*
X963000Y1055000D02*
Y1065000D01*
X716987Y780435D02*
Y791987D01*
X949873Y710127D02*
X954000D01*
X535242Y1056000D02*
X551000D01*
X472758Y1049500D02*
X483500D01*
X472758Y1069000D02*
X483500D01*
X489000Y1063500D01*
Y1060000D02*
Y1063500D01*
X915000Y1063000D02*
Y1080000D01*
X908000Y1056000D02*
X915000Y1063000D01*
X300500Y755500D02*
X314000Y742000D01*
X716987Y770000D02*
Y780435D01*
X932798Y865552D02*
X932798Y865552D01*
X716987Y791987D02*
X721000Y796000D01*
X731000D01*
X537000Y712000D02*
Y728000D01*
X560000Y706000D02*
Y727000D01*
X489000Y1055000D02*
Y1060000D01*
X483500Y1049500D02*
X489000Y1055000D01*
X516000Y1069000D02*
X535242D01*
X299000Y968000D02*
X303000Y964000D01*
X335502Y958502D02*
X338500Y961500D01*
X341000Y955000D02*
X352242D01*
X338500Y961500D02*
X352242D01*
X521484Y1062500D02*
X535242D01*
X338000Y952000D02*
X341000Y955000D01*
X399000Y706000D02*
X406310D01*
X336000Y952000D02*
X338000D01*
X337000Y969000D02*
X338000Y968000D01*
X352242D01*
X314000Y732000D02*
X326000D01*
X348500Y754500D01*
X359290D01*
X317000Y753000D02*
X321600D01*
X348500Y779900D01*
X300500D02*
X317000Y763400D01*
Y763000D02*
Y763400D01*
X289758Y968000D02*
X299000D01*
X289758Y948500D02*
X298500D01*
X290710Y754500D02*
X300500D01*
X408600Y735400D02*
Y772290D01*
Y735400D02*
X421000Y723000D01*
Y706000D02*
Y723000D01*
X525774Y922400D02*
X543000D01*
X494900Y935100D02*
X525774D01*
X468000Y962000D02*
X494900Y935100D01*
X459000Y963000D02*
X466000D01*
X537000Y712000D02*
X543000Y706000D01*
X1041000Y1153000D02*
X1043000Y1151000D01*
X1041000Y1153000D02*
Y1158000D01*
X1008000Y1110000D02*
X1009000Y1109000D01*
X750000Y734000D02*
X757000Y727000D01*
X720000Y734000D02*
X734000D01*
X738000D02*
X750000D01*
X734000D02*
X738000D01*
X705000Y1056000D02*
X712000D01*
X879000Y1061000D02*
X886000D01*
X993000Y1112000D02*
X994000D01*
X996000Y1110000D02*
X1008000D01*
X994000Y1112000D02*
X996000Y1110000D01*
X748000Y804000D02*
X755500D01*
X495000Y880000D02*
X504000Y871000D01*
X945500Y1041500D02*
X952000Y1048000D01*
X940750Y1150500D02*
X972250Y1119000D01*
X303000Y953000D02*
Y964000D01*
X298500Y948500D02*
X303000Y953000D01*
X381000Y1018000D02*
X389326D01*
X394326Y1023000D01*
X634000Y978750D02*
Y993250D01*
X504000Y871000D02*
X532000D01*
D51*
X695300Y1141300D02*
X705940D01*
X985000Y725000D02*
X985000D01*
X973000Y725000D02*
X985000D01*
X971000Y717000D02*
X984000D01*
X976000Y712000D02*
X979000D01*
X682000Y1128000D02*
X695300Y1141300D01*
X501000Y889000D02*
X516000D01*
X1069475Y1158475D02*
X1105443D01*
X979000Y712000D02*
X984000Y717000D01*
X985000Y725000D02*
Y729000D01*
Y725000D02*
Y725000D01*
X971000Y720000D02*
X985000D01*
X971000D02*
X971000D01*
Y727000D01*
Y717000D02*
Y720000D01*
X975000Y729000D02*
X985000D01*
X957000Y741000D02*
X971000Y727000D01*
X962000Y742000D02*
X975000Y729000D01*
X979000Y744000D02*
X1000000D01*
X1015000Y729000D01*
X971000Y717000D02*
X971000D01*
X984000D02*
X985000Y718000D01*
X971000Y717000D02*
X976000Y712000D01*
X985000Y720000D02*
Y725000D01*
Y718000D02*
Y720000D01*
X1052500Y1085000D02*
X1053500D01*
X1053000Y1081000D02*
X1053500D01*
X1013000Y1108500D02*
Y1109500D01*
X1073000Y1125000D02*
Y1125500D01*
X1069000Y1124500D02*
Y1125500D01*
X633000Y1154000D02*
X634000Y1155000D01*
X650060D01*
X516000Y889000D02*
X519000Y886000D01*
X487200Y906600D02*
X495000Y898800D01*
Y895000D02*
Y898800D01*
Y895000D02*
X501000Y889000D01*
X439000Y910000D02*
X450000D01*
X453000Y907000D01*
X503000Y917000D02*
X511000D01*
X518000Y910000D01*
X521000D01*
X1009000Y1108500D02*
Y1109000D01*
X1052500Y1081000D02*
X1053000D01*
X1073000Y1124500D02*
Y1125000D01*
X453000Y907000D02*
X471000D01*
D52*
X1350000Y1109000D02*
X1369000D01*
X1064000Y1034000D02*
Y1054000D01*
X1030000Y1061000D02*
X1045000D01*
X970000Y1095000D02*
X982000D01*
X1292000Y1125000D02*
X1296000D01*
X1341000Y1049000D02*
Y1063000D01*
X1290000Y1105000D02*
X1292000Y1107000D01*
X1274000Y1105000D02*
X1290000D01*
X1368000Y1129000D02*
Y1143000D01*
X1296000Y1125000D02*
X1314000Y1143000D01*
X1368000D01*
X1070000Y1169000D02*
X1083000D01*
X1083000Y1053000D02*
X1097000D01*
X1031000Y1191000D02*
Y1206000D01*
X1098000Y1127000D02*
X1098000Y1127000D01*
Y1141000D01*
X982000Y1181000D02*
X995000D01*
X1100000Y1108000D02*
X1113000D01*
X1050000Y1169000D02*
Y1182000D01*
X1044000Y1028000D02*
Y1040000D01*
X1031000Y1191000D02*
X1034000Y1188000D01*
X1016000Y1181000D02*
X1030000Y1167000D01*
D53*
X286000Y905000D02*
X288000Y903000D01*
X763000Y960500D02*
X765037Y962537D01*
X872800Y861554D02*
Y869551D01*
X648000Y820000D02*
Y831000D01*
X865250Y885750D02*
X880600D01*
X884798Y881552D01*
X787000Y866000D02*
X794000D01*
X650000Y898000D02*
X659000D01*
X767000Y878000D02*
X767000D01*
X924798Y825548D02*
X928796Y821550D01*
X767000Y830000D02*
X771000Y826000D01*
X767000Y814000D02*
X774000Y807000D01*
X767000Y814000D02*
Y822000D01*
X771000Y816000D02*
Y826000D01*
X759000Y950000D02*
X763000Y954000D01*
X783000Y862000D02*
X787000Y866000D01*
X868798Y857552D02*
X872800Y861554D01*
X868798Y881548D02*
Y881552D01*
X791000Y854000D02*
X791006Y854006D01*
X666999Y897998D02*
Y897999D01*
X663000Y830000D02*
X667000Y826000D01*
X695000Y830000D02*
X699000Y826000D01*
X766425Y862000D02*
X767000D01*
X751000Y942000D02*
X755000Y946000D01*
X659000D02*
X663000Y942000D01*
X675000Y890000D02*
X679000Y886000D01*
X667000Y882000D02*
X671000Y878000D01*
X667000Y817500D02*
Y826000D01*
X663000Y950000D02*
X667000Y954000D01*
X659000Y946000D02*
Y962500D01*
X667000Y954000D02*
Y962500D01*
X650000Y858000D02*
X659000D01*
X699000Y817500D02*
Y826000D01*
X687000Y830000D02*
X691000Y826000D01*
Y817500D02*
Y826000D01*
X671000Y830000D02*
X675000Y826000D01*
Y817500D02*
Y826000D01*
X655000Y830000D02*
X659000Y826000D01*
Y817500D02*
Y826000D01*
X659000Y898000D02*
X663000Y902000D01*
X659000Y858000D02*
X663000Y862000D01*
X667000Y882000D02*
Y890000D01*
X648000Y831000D02*
X655000Y838000D01*
X739000Y954000D02*
X743000Y950000D01*
X739000Y954000D02*
Y962000D01*
X755000Y946000D02*
Y962000D01*
X731000Y954000D02*
X735000Y950000D01*
X731000Y954000D02*
Y962000D01*
X747000Y954000D02*
Y962000D01*
Y954000D02*
X751000Y950000D01*
X787000Y938000D02*
X795000D01*
X783000Y934000D02*
X787000Y938000D01*
X751000Y822000D02*
X760250Y812750D01*
Y802500D02*
Y812750D01*
X791000Y942000D02*
X796000D01*
X804000Y950000D01*
X810000D01*
X667000Y962500D02*
Y967000D01*
X651000Y906000D02*
X655000Y902000D01*
X703000Y958000D02*
Y966000D01*
X691000Y954000D02*
Y963000D01*
X707000Y954000D02*
X711000Y950000D01*
X707000Y954000D02*
Y968000D01*
X775000Y822000D02*
X779250Y817750D01*
X771000Y816000D02*
X776750Y810250D01*
X794250Y792000D02*
X794500Y791750D01*
X791000Y814850D02*
X791140Y814710D01*
X774000Y782500D02*
Y807000D01*
X779250Y803750D02*
Y817750D01*
X763000Y954000D02*
Y960500D01*
X779250Y803750D02*
X781538Y801462D01*
X776750Y800500D02*
Y810250D01*
Y800500D02*
X783625Y793625D01*
D54*
X790994Y878007D02*
X811192D01*
X793950Y889950D02*
X801500D01*
X787000Y805680D02*
X819631Y773049D01*
X766997Y846000D02*
X770997Y842000D01*
X790991Y838001D02*
X799500Y829492D01*
X791000Y910750D02*
X818500D01*
X766997Y854000D02*
X770997Y850000D01*
X790997Y885247D02*
X813753D01*
X767000Y894003D02*
X771000Y898003D01*
X775000Y894003D02*
X779000Y898003D01*
X791000Y862005D02*
X808245D01*
X813753Y885247D02*
X815750Y883250D01*
X860000Y792750D02*
Y804750D01*
X849500Y815250D02*
X860000Y804750D01*
X849500Y815250D02*
Y823750D01*
X858250Y791000D02*
X860000Y792750D01*
X845750Y807000D02*
X853250Y799500D01*
Y792750D02*
Y799500D01*
Y792750D02*
X855000Y791000D01*
X794844Y922001D02*
X803224Y921981D01*
X853750Y935000D02*
Y940500D01*
X850250Y931500D02*
X853750Y935000D01*
X814801Y931500D02*
X850250D01*
X853750Y940500D02*
X855750Y942500D01*
X858500D01*
X893250Y874500D02*
Y879750D01*
X888250Y869500D02*
X893250Y874500D01*
X880746Y869500D02*
X888250D01*
X859750Y900500D02*
Y908750D01*
X856000Y896750D02*
X859750Y900500D01*
X842750Y896750D02*
X856000D01*
X856500Y912000D02*
X859750Y908750D01*
X841250Y912000D02*
X856500D01*
X836750Y902750D02*
X842750Y896750D01*
X825250Y902750D02*
X836750D01*
X873250Y915750D02*
X877250D01*
X871250Y917750D02*
X873250Y915750D01*
X871250Y917750D02*
Y925250D01*
X880750Y909600D02*
X884798Y905552D01*
X880750Y909600D02*
Y912250D01*
X828440Y926060D02*
X832250Y922250D01*
Y917000D02*
Y922250D01*
X837500Y915750D02*
X841250Y912000D01*
X819750Y897250D02*
X825250Y902750D01*
X855000Y892750D02*
X858250D01*
X852500Y890250D02*
X855000Y892750D01*
X852500Y884250D02*
Y890250D01*
X858250Y892750D02*
X865250Y885750D01*
X865920Y774750D02*
X872440Y781270D01*
X846500Y842250D02*
X849500Y839250D01*
Y834250D02*
Y839250D01*
X842250Y827000D02*
X849500Y834250D01*
X832750Y842250D02*
X846500D01*
X845750Y825500D02*
X851500Y831250D01*
X845750Y807000D02*
Y825500D01*
X842250Y820500D02*
Y827000D01*
X837750Y816000D02*
X842250Y820500D01*
X851500Y831250D02*
X859000D01*
X837750Y804500D02*
Y816000D01*
Y804500D02*
X841000Y801250D01*
X857000Y826750D02*
X862229Y821521D01*
X852500Y826750D02*
X857000D01*
X849500Y823750D02*
X852500Y826750D01*
X855000Y791000D02*
X858250D01*
X859000Y831250D02*
X863750Y836000D01*
Y839750D01*
X861000Y842500D02*
X863750Y839750D01*
X857250Y842500D02*
X861000D01*
X854500Y845250D02*
X857250Y842500D01*
X854500Y845250D02*
Y848000D01*
X851250Y851250D02*
X854500Y848000D01*
X847750Y851250D02*
X851250D01*
X844750Y854250D02*
X847750Y851250D01*
X844750Y854250D02*
Y858000D01*
X842500Y860250D02*
X844750Y858000D01*
X838250Y860250D02*
X842500D01*
X835410Y857410D02*
X838250Y860250D01*
X831590Y857410D02*
X835410D01*
X828750Y860250D02*
X831590Y857410D01*
X828750Y860250D02*
Y865000D01*
X834500Y846500D02*
X847750D01*
X825250Y855750D02*
X834500Y846500D01*
X825250Y855750D02*
Y863950D01*
X821500Y872250D02*
X828750Y865000D01*
X821250Y853750D02*
X832750Y842250D01*
X821250Y853750D02*
Y863500D01*
X811192Y878007D02*
X825250Y863950D01*
X855074Y836666D02*
Y839176D01*
X847750Y846500D02*
X855074Y839176D01*
X810787Y873963D02*
X821250Y863500D01*
X809360Y849371D02*
X822000Y836731D01*
Y794250D02*
Y836731D01*
Y794250D02*
X825000Y791250D01*
X837299Y822696D02*
Y829201D01*
X828500Y829000D02*
X831000Y831500D01*
X835000D01*
X837299Y829201D01*
X833334Y836666D02*
X844921D01*
X816750Y853250D02*
X833334Y836666D01*
X816750Y853250D02*
Y860500D01*
X807244Y870006D02*
X816750Y860500D01*
X791002Y870006D02*
X807244D01*
X813000Y851500D02*
Y857250D01*
X808245Y862005D02*
X813000Y857250D01*
Y851500D02*
X825250Y839250D01*
X834250Y799750D02*
Y812500D01*
X828500Y818250D02*
X834250Y812500D01*
X828500Y818250D02*
Y829000D01*
X805250Y824250D02*
X807750Y821750D01*
Y817510D02*
Y821750D01*
X832000Y786000D02*
Y789250D01*
X830000Y791250D02*
X832000Y789250D01*
X835750Y784250D02*
X837250Y785750D01*
X833750Y784250D02*
X835750D01*
X832000Y786000D02*
X833750Y784250D01*
X893452Y845548D02*
X895750Y843250D01*
Y840000D02*
Y843250D01*
X892000Y836250D02*
X895750Y840000D01*
X865702Y845548D02*
X893452D01*
X892000Y833500D02*
Y836250D01*
X877250Y915750D02*
X880750Y912250D01*
X837500Y915750D02*
Y925750D01*
X839500Y927750D01*
X842250D01*
X811000Y897250D02*
X819750D01*
X809000Y899250D02*
X811000Y897250D01*
X818500Y904000D02*
X820500Y906000D01*
X818500Y910750D02*
X820500Y908750D01*
Y906000D02*
Y908750D01*
X824696Y909554D02*
X827138D01*
X820248Y914001D02*
X824696Y909554D01*
X794844Y914001D02*
X820248D01*
X811000Y904000D02*
X818500D01*
X809000Y902000D02*
X811000Y904000D01*
X809000Y899250D02*
Y902000D01*
X842250Y927750D02*
X844250Y925750D01*
X829750Y914500D02*
X832250Y917000D01*
X824231Y914500D02*
X829750D01*
X820730Y918000D02*
X824231Y914500D01*
X849000Y916250D02*
X851000Y918250D01*
X844250D02*
Y925750D01*
Y918250D02*
X846250Y916250D01*
X849000D01*
X851000Y918250D02*
Y925250D01*
X855750Y927250D02*
X857750Y925250D01*
X851000D02*
X853000Y927250D01*
X855750D01*
X862500Y915750D02*
X864500Y917750D01*
X857750D02*
Y925250D01*
Y917750D02*
X859750Y915750D01*
X862500D01*
X866500Y927250D02*
X869250D01*
X864500Y925250D02*
X866500Y927250D01*
X864500Y917750D02*
Y925250D01*
X869250Y927250D02*
X871250Y925250D01*
X812773Y921910D02*
X824434D01*
X827137Y919207D01*
X809932Y924750D02*
X812773Y921910D01*
X806006Y924750D02*
X809932D01*
X803224Y921981D02*
X806006Y924750D01*
X794000Y858015D02*
X807066D01*
X794000Y873963D02*
X810787D01*
X807066Y858015D02*
X809360Y855722D01*
X794000Y866000D02*
X804280D01*
X876798Y857552D02*
X880829Y853521D01*
X791006Y854006D02*
X804273D01*
X837300Y785750D02*
Y797050D01*
X791003Y893995D02*
X823518D01*
X767000Y902000D02*
X771000Y906000D01*
X791002Y918000D02*
X820730D01*
X876798Y865552D02*
X880746Y869500D01*
X813171Y927330D02*
Y929870D01*
Y927330D02*
X814441Y926060D01*
X872767Y821521D02*
X876798Y825552D01*
X809360Y849371D02*
Y855722D01*
X791001Y893997D02*
X791003Y893995D01*
X823518D02*
X827140Y897617D01*
X880798Y893553D02*
X880800Y893550D01*
X884798Y889552D01*
X889250Y883750D02*
Y909000D01*
Y883750D02*
X893250Y879750D01*
X880829Y853521D02*
X892271D01*
X884798Y849552D02*
X893302D01*
X908250Y864500D01*
X892271Y853521D02*
X905250Y866500D01*
Y908182D01*
X813171Y929870D02*
X814801Y931500D01*
X814441Y926060D02*
X828440D01*
X860500Y933000D02*
Y940500D01*
X858500Y942500D02*
X860500Y940500D01*
X865250Y931000D02*
X867250Y933000D01*
X860500D02*
X862500Y931000D01*
X865250D01*
X867250Y933000D02*
Y936500D01*
X869750Y939000D01*
X875000D01*
X876750Y937250D01*
Y921500D02*
Y937250D01*
Y921500D02*
X889250Y909000D01*
X895971Y917460D02*
X905250Y908182D01*
X912226Y863476D02*
Y879726D01*
X828620Y760466D02*
Y769880D01*
X825000Y791250D02*
X830000D01*
X792536Y882009D02*
X811741D01*
X850250Y857250D02*
X853000D01*
X854500Y858750D01*
Y867250D01*
X856500Y869250D01*
X859250D01*
X861000Y867500D01*
Y860250D02*
Y867500D01*
X855250Y852000D02*
Y854500D01*
X861250Y850000D02*
X865702Y845548D01*
X855250Y852000D02*
X857250Y850000D01*
X861250D01*
X855250Y854500D02*
X861000Y860250D01*
X848500Y859000D02*
X850250Y857250D01*
X848500Y859000D02*
Y862250D01*
X862229Y821521D02*
X872767D01*
X811741Y882009D02*
X813750Y880000D01*
X818750D01*
X821500Y872250D02*
Y877250D01*
X818750Y880000D02*
X821500Y877250D01*
X825250Y799750D02*
X827750Y797250D01*
X831750D01*
X834250Y799750D01*
X825250Y799750D02*
Y839250D01*
X841000Y801250D02*
X845750D01*
X849500Y797500D01*
Y792250D02*
Y797500D01*
X908250Y864500D02*
Y915250D01*
X888810Y924540D02*
X898960D01*
X908250Y915250D01*
X793500Y841952D02*
X797548D01*
X811000Y828500D01*
Y814500D02*
Y828500D01*
X799500Y827676D02*
Y829492D01*
Y827676D02*
X802926Y824250D01*
X805250D01*
X798875Y822125D02*
Y823875D01*
Y822125D02*
X801620Y819380D01*
X803290D01*
X803500Y807000D02*
X811000Y814500D01*
X803270Y813030D02*
X807750Y817510D01*
X795620Y802880D02*
X828620Y769880D01*
X795620Y802880D02*
Y823000D01*
X787000Y805680D02*
Y818750D01*
X906000Y857250D02*
X912226Y863476D01*
X906000Y850500D02*
Y857250D01*
X893750Y831750D02*
X898500D01*
X903500Y836750D01*
X901500Y843000D02*
Y846000D01*
X906000Y850500D01*
X912226Y879726D02*
X914052Y881552D01*
X916798D01*
X903500Y836750D02*
Y841000D01*
Y841000D01*
X901500Y843000D02*
X903500Y841000D01*
X892000Y833500D02*
X893750Y831750D01*
X846250Y864500D02*
X848500Y862250D01*
X834250Y864500D02*
X846250D01*
X825000Y873750D02*
X834250Y864500D01*
X825000Y873750D02*
Y876500D01*
X828500Y880000D01*
X815750Y883250D02*
X818750D01*
X822250Y886750D01*
X826500D01*
X828500Y884750D01*
Y880000D02*
Y884750D01*
X847500Y774750D02*
X865920D01*
X843250Y779000D02*
X847500Y774750D01*
X843250Y779000D02*
Y786000D01*
X849500Y792250D01*
D55*
X782980Y838007D02*
X786950Y834037D01*
X774995Y846005D02*
X779048Y841952D01*
X786950Y889950D02*
X793950D01*
X783000Y886000D02*
X786950Y889950D01*
X783000Y918000D02*
X787001Y922001D01*
X794844D01*
X787003Y858015D02*
X794000D01*
X783000Y854012D02*
X787003Y858015D01*
X787001Y914001D02*
X794844D01*
X786970Y818780D02*
Y823642D01*
Y818780D02*
X787000Y818750D01*
X783000Y827612D02*
X786970Y823642D01*
X783000Y827612D02*
Y830000D01*
X779048Y841952D02*
X793500D01*
X786963Y873963D02*
X794000D01*
X787009Y882009D02*
X792536D01*
X783000Y878000D02*
X787009Y882009D01*
X783000Y870000D02*
X786963Y873963D01*
X786990Y897990D02*
X804277D01*
X783000Y894000D02*
X786990Y897990D01*
X783000Y910000D02*
X787001Y914001D01*
X786950Y828424D02*
X789337Y826036D01*
X791000Y830000D02*
X792750D01*
X798875Y823875D01*
X786950Y828424D02*
Y834037D01*
X789337Y826036D02*
X792584D01*
X795620Y823000D01*
D56*
X1013000Y1056000D02*
X1017000Y1052000D01*
X1009000Y1109000D02*
X1009000Y1109000D01*
X1011000Y1083000D02*
X1018750D01*
X1053000Y1068000D02*
Y1081000D01*
X1073000Y1125000D02*
X1080000D01*
X1086000Y1131000D01*
Y1132000D01*
X1055000Y1058000D02*
Y1066000D01*
X1049000Y1052000D02*
X1055000Y1058000D01*
X1017000Y1052000D02*
X1049000D01*
X1053000Y1068000D02*
X1055000Y1066000D01*
D57*
X307000Y951000D02*
X313000D01*
X304000Y954000D02*
X307000Y951000D01*
X633000Y1143000D02*
X633700Y1142300D01*
X650060D01*
X607000Y1046000D02*
X643152D01*
X573000D02*
X582700D01*
X334774Y1074700D02*
X351000D01*
X379000Y1049300D02*
X395226D01*
X341300Y1062000D02*
X351000D01*
X379000D02*
X388700D01*
X671000Y1179000D02*
X672400Y1180400D01*
X705940D01*
X301000Y949000D02*
X304000D01*
D58*
X487000Y907000D02*
X487200Y906600D01*
X902250Y1148750D02*
Y1151250D01*
X1069000Y1158000D02*
X1069475Y1158475D01*
X447000Y848000D02*
X453000D01*
X460000Y855000D01*
X1063500Y1142500D02*
X1071000Y1150000D01*
X1001000Y1099000D02*
X1004000D01*
X476750Y896750D02*
X486000Y906000D01*
X487000Y907000D01*
X486000Y909000D02*
X487000Y907000D01*
X486000Y888000D02*
Y897000D01*
X504000D02*
Y906000D01*
X439000Y856000D02*
X446000D01*
X454250Y864250D01*
X460000Y855000D02*
Y857000D01*
X439000Y920000D02*
X451000D01*
X454750Y916250D01*
X397000Y894000D02*
X400750Y890250D01*
X397000Y894000D02*
Y906000D01*
X400750Y909750D01*
X392000Y892000D02*
X400250Y883750D01*
X392000Y892000D02*
Y908000D01*
X400250Y916250D01*
X387000Y890000D02*
X399750Y877250D01*
X387000Y890000D02*
Y910000D01*
X399750Y922750D01*
X422250Y896750D02*
X429000Y890000D01*
X439000D01*
X426750Y903250D02*
X430000Y900000D01*
X439000D01*
X1051000Y1150000D02*
Y1153000D01*
X1078000Y1107000D02*
X1081000D01*
X1035000Y1152000D02*
X1037000Y1150000D01*
X994000Y1136000D02*
X1010250D01*
X454750Y916250D02*
X465000D01*
Y896750D02*
X476750D01*
X409000Y903250D02*
X426750D01*
X400750Y909750D02*
X409000D01*
X400750Y890250D02*
X409000D01*
X454250Y864250D02*
X465000D01*
X400250Y916250D02*
X409000D01*
X400250Y883750D02*
X409000D01*
X399750Y922750D02*
X409000D01*
X399750Y877250D02*
X409000D01*
Y896750D02*
X422250D01*
X1000000Y1131000D02*
X1004000D01*
X984000Y1126000D02*
X994000Y1136000D01*
X1002000Y1124000D02*
X1004000Y1126000D01*
X995000Y1126000D02*
X1000000Y1131000D01*
X1002000Y1119000D02*
Y1124000D01*
X1110000Y1178000D02*
X1117000Y1171000D01*
X1071000Y1150000D02*
X1114000D01*
X1117000Y1153000D01*
Y1171000D01*
X1061000Y1150000D02*
X1069000Y1158000D01*
X1110000Y1178000D02*
X1111000Y1179000D01*
X1124000D01*
X1033000Y1071000D02*
X1038000Y1076000D01*
X922250Y1151250D02*
Y1167250D01*
X439000Y942250D02*
X465000D01*
X901750Y1141500D02*
Y1149250D01*
X902250Y1148750D01*
D59*
X541000Y754000D02*
X548000Y747000D01*
Y728000D02*
Y747000D01*
X581000Y728000D02*
Y738000D01*
X562000Y753750D02*
X565250D01*
X581000Y738000D01*
D60*
X938350Y829550D02*
X949300Y840500D01*
X936796Y829550D02*
X938350D01*
X928796Y821550D02*
X928846Y821500D01*
X949100D01*
D61*
X775000Y902000D02*
X779000Y906000D01*
D62*
X727000Y829997D02*
Y830000D01*
D63*
X527000Y897000D02*
X536000D01*
X1320000Y1112000D02*
Y1115000D01*
X1323000Y1118000D01*
X1333230D01*
X536000Y897000D02*
X541000Y902000D01*
Y906000D01*
X587452Y897000D02*
X597000D01*
X606000Y906000D01*
X494000Y917000D02*
X503000D01*
X486000Y909000D02*
X494000Y917000D01*
D64*
X1293030Y1290110D02*
Y1292970D01*
D65*
X1303500Y761500D02*
X1344000Y802000D01*
X1308000Y792000D02*
X1344000Y828000D01*
D66*
X1365000Y1340000D02*
D03*
X1318430Y1340910D02*
D03*
X1293030Y1290110D02*
D03*
X1267630D02*
D03*
Y1340910D02*
D03*
X1318430Y1290110D02*
D03*
D67*
X315750Y1179000D02*
D03*
Y1306000D02*
D03*
Y1242500D02*
D03*
X321250Y1338500D02*
D03*
Y1275000D02*
D03*
X435250Y1211500D02*
D03*
Y1275000D02*
D03*
X321250Y1211500D02*
D03*
X435250Y1338500D02*
D03*
X440750Y1179000D02*
D03*
Y1242500D02*
D03*
Y1306000D02*
D03*
X480250Y1179000D02*
D03*
Y1306000D02*
D03*
Y1242500D02*
D03*
X485750Y1338500D02*
D03*
Y1275000D02*
D03*
X599750Y1211500D02*
D03*
Y1275000D02*
D03*
X485750Y1211500D02*
D03*
X599750Y1338500D02*
D03*
X605250Y1179000D02*
D03*
Y1242500D02*
D03*
Y1306000D02*
D03*
D68*
X689050Y1250900D02*
D03*
X714050D02*
D03*
X689050Y1230900D02*
D03*
X714050D02*
D03*
D69*
X834750Y1339500D02*
D03*
X934750D02*
D03*
Y1214500D02*
D03*
X834750D02*
D03*
X809750Y1239500D02*
D03*
X959750D02*
D03*
X884750D02*
D03*
D70*
X1120430Y1277910D02*
D03*
X1170430Y1246910D02*
D03*
Y1308910D02*
D03*
D71*
X1303500Y901500D02*
D03*
X1362300Y948000D02*
D03*
Y931000D02*
D03*
X1341000Y1018000D02*
D03*
X1367000D02*
D03*
X1097000Y1053000D02*
D03*
X1098000Y1141000D02*
D03*
X1044000Y1028000D02*
D03*
X1027000Y1024000D02*
D03*
X1223200Y914000D02*
D03*
X1235900D02*
D03*
X1209000Y1018000D02*
D03*
X1235900Y968000D02*
D03*
D72*
X314000Y951250D02*
D03*
X911000Y1225000D02*
D03*
X573000Y1046000D02*
D03*
X573000Y1036000D02*
D03*
X489000Y1060000D02*
D03*
X516000Y1069000D02*
D03*
X610000Y1027000D02*
D03*
X633000Y1143000D02*
D03*
X607000Y1046000D02*
D03*
X1320000Y1112000D02*
D03*
X337000Y969000D02*
D03*
X439000Y890000D02*
D03*
X503000Y917000D02*
D03*
X541000Y906000D02*
D03*
Y888000D02*
D03*
X606000Y906000D02*
D03*
Y888000D02*
D03*
X439000Y910000D02*
D03*
Y900000D02*
D03*
Y920000D02*
D03*
X675000Y1149000D02*
D03*
X671000Y1179000D02*
D03*
X774000Y1259000D02*
D03*
X635000Y1128000D02*
D03*
X633000Y1154000D02*
D03*
X379000Y1062000D02*
D03*
X351000Y1062000D02*
D03*
X351000Y1074700D02*
D03*
X379000Y1049300D02*
D03*
D73*
X1242750Y1142000D02*
D03*
Y1152000D02*
D03*
Y1161000D02*
D03*
X1234250Y1168500D02*
D03*
X1226000D02*
D03*
X1218250Y1161000D02*
D03*
Y1152000D02*
D03*
X1226000Y1136000D02*
D03*
X1235000D02*
D03*
X1218250Y1142000D02*
D03*
X1195750D02*
D03*
X699000Y746000D02*
D03*
Y738000D02*
D03*
Y730000D02*
D03*
X915000Y1080000D02*
D03*
X731000Y796000D02*
D03*
X1256000Y1223000D02*
D03*
Y1186000D02*
D03*
Y1213000D02*
D03*
X1293000Y1212000D02*
D03*
Y1199000D02*
D03*
Y1187000D02*
D03*
Y1226000D02*
D03*
X1284000Y1231000D02*
D03*
X1273000D02*
D03*
X1263000D02*
D03*
X1273000Y1178000D02*
D03*
X1261000D02*
D03*
X1284000D02*
D03*
X1094000Y1287000D02*
D03*
X1084000D02*
D03*
X1073000D02*
D03*
X1065000Y1318000D02*
D03*
Y1304000D02*
D03*
Y1291000D02*
D03*
X1070000Y1341000D02*
D03*
X1083000D02*
D03*
X1095000D02*
D03*
X1104000Y1334000D02*
D03*
Y1323000D02*
D03*
Y1311000D02*
D03*
Y1297000D02*
D03*
X1179000Y1136000D02*
D03*
X1188000D02*
D03*
X1195750Y1152000D02*
D03*
Y1161000D02*
D03*
X1188000Y1168500D02*
D03*
X1179750D02*
D03*
X1171250Y1161000D02*
D03*
Y1152000D02*
D03*
Y1142000D02*
D03*
X486000Y897000D02*
D03*
X504000D02*
D03*
X382000Y972000D02*
D03*
X543000Y922400D02*
D03*
X495000Y880000D02*
D03*
X1065000Y1332000D02*
D03*
X712000Y1056000D02*
D03*
Y1075000D02*
D03*
X915000Y1037000D02*
D03*
X879000Y1061000D02*
D03*
X1006000Y772000D02*
D03*
X312000Y985000D02*
D03*
D74*
X907000Y1312000D02*
D03*
X950500Y1274500D02*
D03*
X924000Y736000D02*
D03*
X915000Y1091000D02*
D03*
X985000Y729000D02*
D03*
X1015000D02*
D03*
X573000Y1073000D02*
D03*
X447000Y848000D02*
D03*
X631000Y1163000D02*
D03*
X278000Y717200D02*
D03*
X314000Y732000D02*
D03*
Y742000D02*
D03*
X317000Y753000D02*
D03*
Y763000D02*
D03*
X439000Y856000D02*
D03*
X984000Y1126000D02*
D03*
X1001000Y1118000D02*
D03*
X995000Y1126000D02*
D03*
X1086000Y1132000D02*
D03*
X1069000Y1158000D02*
D03*
X1124000Y1179000D02*
D03*
X993000Y1112000D02*
D03*
X603000Y923000D02*
D03*
X663000Y993949D02*
D03*
X1263000Y997000D02*
D03*
X1011000Y1083000D02*
D03*
X1033000Y1071000D02*
D03*
X1055000Y1066000D02*
D03*
X922250Y1167250D02*
D03*
X812000Y1026000D02*
D03*
X821000D02*
D03*
X830000D02*
D03*
X439000Y942250D02*
D03*
X284000Y933000D02*
D03*
D75*
X1231000Y1183000D02*
D03*
X1342000Y1264000D02*
D03*
X1223000Y1221000D02*
D03*
X1278000Y1164000D02*
D03*
X1370000Y1320000D02*
D03*
X1341000Y1063000D02*
D03*
X1274000Y1105000D02*
D03*
X1368000Y1143000D02*
D03*
X1350000Y1109500D02*
D03*
X1199000Y1340000D02*
D03*
X1315000Y1182000D02*
D03*
X1324000Y1308000D02*
D03*
X1316000Y1228000D02*
D03*
X1146000Y1177000D02*
D03*
X1269000Y1067000D02*
D03*
X1274000Y1140000D02*
D03*
X1255000Y1245000D02*
D03*
X1367000Y1225000D02*
D03*
X1364000Y1064000D02*
D03*
X1355000Y1320000D02*
D03*
X1344000Y1335000D02*
D03*
X1078000Y1245000D02*
D03*
X1206000Y1256000D02*
D03*
X1207000Y1273000D02*
D03*
X1178000Y1194000D02*
D03*
X1099000Y1261000D02*
D03*
X1018000Y1273000D02*
D03*
X1207000Y1131000D02*
D03*
X1193000Y1200992D02*
D03*
X981000Y1342000D02*
D03*
X555000Y775000D02*
D03*
X517000D02*
D03*
D76*
X1031000Y1206000D02*
D03*
X1083000Y1169000D02*
D03*
X982000Y1181000D02*
D03*
X1064000Y1034000D02*
D03*
X1113000Y1108000D02*
D03*
X1050000Y1182000D02*
D03*
X1143000Y1158000D02*
D03*
X969000Y1095000D02*
D03*
X967000Y1081000D02*
D03*
X961000Y1117000D02*
D03*
X1030000Y1061000D02*
D03*
X962000Y1183000D02*
D03*
M02*
