G04 Layer_Physical_Order=4*
G04 Layer_Color=128*
%FSLAX45Y45*%
%MOMM*%
%TF.FileFunction,Copper,L4,Inr,Plane*%
%TF.Part,Single*%
G01*
G75*
%TA.AperFunction,ViaPad*%
%ADD76C,0.60000*%
%TA.AperFunction,NonConductor*%
%ADD80C,1.01600*%
%TA.AperFunction,ViaPad*%
%ADD81C,2.50000*%
%TA.AperFunction,ComponentPad*%
%ADD82C,3.05000*%
%ADD84C,2.90000*%
%ADD85C,2.40000*%
%ADD86C,3.00000*%
%ADD87C,3.20000*%
%ADD88C,2.50000*%
%TA.AperFunction,ViaPad*%
%ADD89C,1.10000*%
%ADD90C,1.00000*%
%ADD91C,0.70000*%
%ADD92C,0.90000*%
%ADD93C,1.60000*%
%ADD94C,1.40000*%
%TA.AperFunction,NonConductor*%
%ADD96C,0.25000*%
D76*
X8727999Y8695508D02*
D03*
X6750018Y8419987D02*
D03*
X6670018D02*
D03*
X6590018D02*
D03*
X6510018D02*
D03*
X7132500Y10310000D02*
D03*
X7282500D02*
D03*
X7167500Y10910000D02*
D03*
X7352500D02*
D03*
X7125000Y9700000D02*
D03*
X8727963Y7895541D02*
D03*
X9288000Y8935500D02*
D03*
X9207963Y8455542D02*
D03*
X9287961Y8375502D02*
D03*
X7710000Y8900000D02*
D03*
X8395500Y8816500D02*
D03*
X5410000Y7540000D02*
D03*
X5620000Y7537500D02*
D03*
X5987500Y8047500D02*
D03*
X6370000Y8020000D02*
D03*
X6450000D02*
D03*
X6450000Y7930000D02*
D03*
X5985000Y7977500D02*
D03*
X5910000Y8070000D02*
D03*
X6480000Y8200000D02*
D03*
X8271400Y9191900D02*
D03*
X8525000Y8842500D02*
D03*
X8015000Y8900000D02*
D03*
X8449208Y8366661D02*
D03*
X8550736D02*
D03*
X6590000Y9220000D02*
D03*
X6510000D02*
D03*
X9617500Y8537500D02*
D03*
X9247982Y7790482D02*
D03*
X9208003Y7895541D02*
D03*
X9098003Y7798041D02*
D03*
X9118003Y7895541D02*
D03*
X8197500Y7731671D02*
D03*
X9207961Y8215502D02*
D03*
X8807963Y8215541D02*
D03*
X9207961Y7975501D02*
D03*
X9287961D02*
D03*
X9620000Y8649000D02*
D03*
X9625000Y8752500D02*
D03*
X9368000Y8695499D02*
D03*
X9288000D02*
D03*
X8728002Y8375542D02*
D03*
X7790000Y8820015D02*
D03*
X8042726Y8540057D02*
D03*
X7789984Y8740016D02*
D03*
X8042800Y8660000D02*
D03*
X8807963Y7815541D02*
D03*
X8387000Y8696000D02*
D03*
X8387400Y8936300D02*
D03*
X4800000Y11370000D02*
D03*
X5270000Y11640000D02*
D03*
X9800000Y10660000D02*
D03*
X13189999Y6990100D02*
D03*
X13500000Y7160000D02*
D03*
X10010000Y8030000D02*
D03*
X9419981Y10479979D02*
D03*
X9630000Y10650000D02*
D03*
X6760000Y10040000D02*
D03*
X6870000Y9890000D02*
D03*
X9210000Y11110000D02*
D03*
X8610000Y11090000D02*
D03*
X8420000Y10800000D02*
D03*
X6030000Y8560000D02*
D03*
X6490000Y8850000D02*
D03*
X6430000Y9490000D02*
D03*
X6370000Y9550000D02*
D03*
X6830000Y8260000D02*
D03*
X6830000Y8340000D02*
D03*
X6910000D02*
D03*
X6989948Y8340051D02*
D03*
X6710000Y9645000D02*
D03*
X6750000Y8660000D02*
D03*
X6590000Y8740000D02*
D03*
X5214839Y10495000D02*
D03*
X8373000Y7970500D02*
D03*
X8727960Y8775500D02*
D03*
X9615000Y8967500D02*
D03*
X9620000Y8855000D02*
D03*
X4380000Y9870000D02*
D03*
X4780000Y10010000D02*
D03*
X5220000Y9520000D02*
D03*
Y9600000D02*
D03*
X6010000Y9310000D02*
D03*
X5840000Y11510000D02*
D03*
X10390000Y9160001D02*
D03*
X10708000Y9530000D02*
D03*
X10454000Y9520000D02*
D03*
X10517500Y9562000D02*
D03*
X10581000Y9590000D02*
D03*
X10644500Y9632000D02*
D03*
X7950000Y9710000D02*
D03*
X7800000Y9660000D02*
D03*
X7710000Y9540000D02*
D03*
X4210000Y6880000D02*
D03*
X3990000D02*
D03*
X4700000Y6880000D02*
D03*
X4460000Y6880000D02*
D03*
X7790019Y9380018D02*
D03*
X7949986Y9539981D02*
D03*
X7710001Y8500000D02*
D03*
Y8420000D02*
D03*
X7790000Y8980000D02*
D03*
X7710001D02*
D03*
Y9060000D02*
D03*
X7790000D02*
D03*
X9677000Y8310000D02*
D03*
X8382900Y8534800D02*
D03*
X8391200Y9081400D02*
D03*
X8372988Y8226961D02*
D03*
X9368000Y9095500D02*
D03*
X9288000Y9015500D02*
D03*
X9368000D02*
D03*
X9208000Y8775500D02*
D03*
Y8695499D02*
D03*
X9367961Y8135502D02*
D03*
X9287961D02*
D03*
X9207961Y8055502D02*
D03*
X9287961D02*
D03*
X9367961Y7975501D02*
D03*
Y7815501D02*
D03*
X8647963Y7815541D02*
D03*
X8807963Y7895541D02*
D03*
X8727963Y7975541D02*
D03*
X8647963D02*
D03*
X8727963Y8055541D02*
D03*
X8807963Y8135541D02*
D03*
X8727963D02*
D03*
X8647963D02*
D03*
X8807963Y8055541D02*
D03*
X8647963Y8295541D02*
D03*
X8887960Y8775500D02*
D03*
X8648002Y9015500D02*
D03*
X8808002Y8935500D02*
D03*
Y9015500D02*
D03*
X8648002Y8535499D02*
D03*
X8807963Y7975541D02*
D03*
X8042800Y8290500D02*
D03*
X8271401Y8976166D02*
D03*
X8728002Y8935500D02*
D03*
X8286199Y7604661D02*
D03*
X8042765Y8979899D02*
D03*
X9208000Y9095500D02*
D03*
X8271375Y9095540D02*
D03*
X9288000Y8615499D02*
D03*
X9368000D02*
D03*
X9288000Y8855500D02*
D03*
Y8775500D02*
D03*
X7709986Y9219982D02*
D03*
X7790000Y9220000D02*
D03*
Y8500000D02*
D03*
X7710000Y8580000D02*
D03*
X7789986Y9139982D02*
D03*
X7710000Y9300000D02*
D03*
X7790000Y8580000D02*
D03*
X7070000Y8660000D02*
D03*
X7150000Y8820000D02*
D03*
Y8900000D02*
D03*
Y8660000D02*
D03*
X7310000Y8660000D02*
D03*
X7390000D02*
D03*
X7310000Y8820000D02*
D03*
X6750000Y8980000D02*
D03*
X7070000D02*
D03*
X7150000D02*
D03*
Y9220000D02*
D03*
X7310000Y9140000D02*
D03*
X7630000Y8180000D02*
D03*
X7470000Y8820000D02*
D03*
Y8980000D02*
D03*
X7550000Y8820000D02*
D03*
X7470000Y9140000D02*
D03*
X6749988Y8819982D02*
D03*
X7229987Y8499983D02*
D03*
X7470000Y8580000D02*
D03*
X6990000Y8660000D02*
D03*
X7710000Y8820000D02*
D03*
X7310000Y8420000D02*
D03*
X7469986Y9459981D02*
D03*
X7630000Y8420000D02*
D03*
X6990000Y8820000D02*
D03*
X7150000Y8740000D02*
D03*
X7469983Y8659983D02*
D03*
X7630000Y8260000D02*
D03*
X7709986Y9459981D02*
D03*
X7389986Y8579983D02*
D03*
X6910000Y8420000D02*
D03*
X7790000Y8340000D02*
D03*
X7709986Y9139982D02*
D03*
X7069987Y8259983D02*
D03*
Y8419983D02*
D03*
X7390000Y8420000D02*
D03*
X7710000Y8340000D02*
D03*
X7470000Y8420000D02*
D03*
X6589988Y8339987D02*
D03*
X7150000Y8340000D02*
D03*
X7550000Y8260000D02*
D03*
X6670000Y9220000D02*
D03*
X6910000Y8500000D02*
D03*
X6909987Y8899982D02*
D03*
X7310000Y9300000D02*
D03*
X7630000Y8340000D02*
D03*
X6669988Y8339987D02*
D03*
X7789986Y9299981D02*
D03*
X7150000Y8420000D02*
D03*
X7070000Y8820000D02*
D03*
X7230000Y8260000D02*
D03*
X6990000Y9060000D02*
D03*
X7310000Y8980000D02*
D03*
X7390000Y8820000D02*
D03*
X6989987Y8979982D02*
D03*
X6910000Y9060000D02*
D03*
X7309987Y9219982D02*
D03*
X7630000Y9140000D02*
D03*
X7710000Y8660000D02*
D03*
X7470000Y8500000D02*
D03*
X6910000Y8580000D02*
D03*
Y8819999D02*
D03*
X7150000Y8580000D02*
D03*
X7310000Y9060000D02*
D03*
X7150000Y9140000D02*
D03*
X7549986Y8659983D02*
D03*
X7390000Y8980000D02*
D03*
X7550000D02*
D03*
Y8420000D02*
D03*
X7470000Y9220000D02*
D03*
X7710000Y8740000D02*
D03*
X7790000Y8260000D02*
D03*
X7550000Y8340000D02*
D03*
X7150017Y8179987D02*
D03*
X7389987Y8179983D02*
D03*
X7310017Y8179987D02*
D03*
X7230017D02*
D03*
X7070017D02*
D03*
X6840000Y7560000D02*
D03*
X6900000Y7650000D02*
D03*
Y7590000D02*
D03*
X7389987Y8259983D02*
D03*
X7310017Y8259957D02*
D03*
X7390000Y8340000D02*
D03*
X6870000Y7420000D02*
D03*
Y6930000D02*
D03*
X6680000D02*
D03*
X6490000Y6930000D02*
D03*
X7149987Y8259983D02*
D03*
X6450000Y7430000D02*
D03*
X4280000Y8190000D02*
D03*
X4770000Y7980000D02*
D03*
X4940000Y8380000D02*
D03*
X4390000Y9340000D02*
D03*
X10527499Y11329999D02*
D03*
X10407499D02*
D03*
X10287499D02*
D03*
X10210000Y11012500D02*
D03*
Y11132500D02*
D03*
Y11252500D02*
D03*
X6340000Y11700000D02*
D03*
X10480000Y10740000D02*
D03*
X4430000Y7530000D02*
D03*
X4500000D02*
D03*
X4910000Y10730000D02*
D03*
X4930000Y10490000D02*
D03*
X4590000Y10690000D02*
D03*
X5590000Y10090000D02*
D03*
Y10205999D02*
D03*
X6150000Y10860000D02*
D03*
X6100000Y10380000D02*
D03*
X5745480Y10586999D02*
D03*
X6190000Y10068999D02*
D03*
X3355019Y9585019D02*
D03*
X3390000Y9460000D02*
D03*
X6320000Y12415000D02*
D03*
X6334338Y13199071D02*
D03*
X6320000Y11800000D02*
D03*
X6120000Y10586999D02*
D03*
X5214839Y10820000D02*
D03*
X6670000Y11550000D02*
D03*
Y11677000D02*
D03*
X2760000Y9680000D02*
D03*
Y9550000D02*
D03*
Y9615000D02*
D03*
Y9810000D02*
D03*
X3730000Y10090000D02*
D03*
X3479999Y10423000D02*
D03*
X3010000Y11140000D02*
D03*
X4290000Y10630000D02*
D03*
X3760000Y11820000D02*
D03*
X3010000Y10940000D02*
D03*
X4290000Y10430000D02*
D03*
X3810000Y12280000D02*
D03*
X3940000Y11460000D02*
D03*
X3500000Y13289999D02*
D03*
X3670000Y12090000D02*
D03*
X4090000Y12839999D02*
D03*
X3520000Y12370000D02*
D03*
X3100000Y12889999D02*
D03*
X3819999Y11010000D02*
D03*
X8206959Y11745000D02*
D03*
X8440000D02*
D03*
X10409999Y10927499D02*
D03*
X10529999D02*
D03*
X10289999D02*
D03*
X10609999Y11007499D02*
D03*
Y11127499D02*
D03*
Y11247499D02*
D03*
X10740000Y8680000D02*
D03*
X4589999Y10820000D02*
D03*
Y10560000D02*
D03*
X5214839Y10625000D02*
D03*
X4750000Y12900000D02*
D03*
X5150000Y12390000D02*
D03*
X5430000Y12939999D02*
D03*
X5620000Y12550000D02*
D03*
X5770000Y12120000D02*
D03*
X5060000Y12300000D02*
D03*
X5270000Y11440000D02*
D03*
X5630000D02*
D03*
X5540000Y12220000D02*
D03*
X5630000Y11630000D02*
D03*
X3420000Y11550000D02*
D03*
X4900000Y11440000D02*
D03*
X6030000Y10840999D02*
D03*
Y10078999D02*
D03*
X6669988Y8979982D02*
D03*
X7070000Y8740000D02*
D03*
X6750000Y8500000D02*
D03*
X7789982Y9459981D02*
D03*
X4589999Y10625000D02*
D03*
X2860000Y7170000D02*
D03*
X3940000Y11280000D02*
D03*
X4210000Y7060000D02*
D03*
X3990000D02*
D03*
X2880000Y8676000D02*
D03*
X2960000Y8168000D02*
D03*
X2880000D02*
D03*
Y7914000D02*
D03*
X5110000Y7060000D02*
D03*
X5930000D02*
D03*
X6090000D02*
D03*
X5600000D02*
D03*
X5770000D02*
D03*
X5430000D02*
D03*
X5270000D02*
D03*
X3360000Y9520000D02*
D03*
X5510000Y10560000D02*
D03*
X6750000Y8899999D02*
D03*
X6589970Y8900000D02*
D03*
X6730000Y13139999D02*
D03*
X5510000Y12440000D02*
D03*
X7000000Y13189999D02*
D03*
X6910000Y13280000D02*
D03*
X7160000Y13220000D02*
D03*
X7250000Y13130000D02*
D03*
X5780000Y11930000D02*
D03*
X6970000Y12880000D02*
D03*
X7150000D02*
D03*
X6800000Y10860000D02*
D03*
X6170000Y10140000D02*
D03*
X6030000Y10332999D02*
D03*
X6150000Y10720000D02*
D03*
X6590001Y8500000D02*
D03*
X6670001D02*
D03*
X6450000Y7790000D02*
D03*
Y7860000D02*
D03*
Y7720000D02*
D03*
X6670000Y8900000D02*
D03*
X6530000Y8160000D02*
D03*
X4390000Y8820000D02*
D03*
Y8760000D02*
D03*
Y8700000D02*
D03*
Y8640000D02*
D03*
X6660000Y10930000D02*
D03*
X6560000Y10990000D02*
D03*
X2960000Y8930000D02*
D03*
X2880000D02*
D03*
X2960000Y8676000D02*
D03*
X3810000Y9210000D02*
D03*
X3850000Y9550000D02*
D03*
X4940000Y8540000D02*
D03*
X4590000Y9630000D02*
D03*
X6450000Y7650000D02*
D03*
X6430000Y7590000D02*
D03*
X5730000Y8700000D02*
D03*
Y8540000D02*
D03*
X5820000Y7980000D02*
D03*
X6180000Y9320000D02*
D03*
X4570000Y8090000D02*
D03*
X4220000Y7850000D02*
D03*
X6180000Y9140000D02*
D03*
X5860000Y9860000D02*
D03*
Y9680000D02*
D03*
X5721000Y9224000D02*
D03*
X5640000Y8880000D02*
D03*
X4570000Y8240000D02*
D03*
X4190000Y8090000D02*
D03*
X4390000Y8240000D02*
D03*
X5140000Y8170000D02*
D03*
X5428740Y8760000D02*
D03*
X10135000Y11417500D02*
D03*
X10065000Y11430000D02*
D03*
X9760000Y11260000D02*
D03*
X10880000Y11160000D02*
D03*
X10797500Y11440000D02*
D03*
X11500000Y10290000D02*
D03*
X10660000Y11840000D02*
D03*
X10120000Y12050000D02*
D03*
X10850000Y11400000D02*
D03*
X11430000Y10920000D02*
D03*
X10940000Y8680000D02*
D03*
X7190000Y7260000D02*
D03*
X7190000Y7180000D02*
D03*
X7200000Y7340000D02*
D03*
X7320000Y7130000D02*
D03*
X7270000Y7180000D02*
D03*
X2880000Y8422000D02*
D03*
X2960000D02*
D03*
X3050000Y7910000D02*
D03*
X6450000Y7530000D02*
D03*
X7642500Y8090000D02*
D03*
X7310000Y7640000D02*
D03*
X10771500Y9572000D02*
D03*
X10898500D02*
D03*
X11025500D02*
D03*
X11152500D02*
D03*
X11279500D02*
D03*
X11406500D02*
D03*
X11533500D02*
D03*
X11660500D02*
D03*
X11787500D02*
D03*
X11914500Y9622000D02*
D03*
X12041500Y9572000D02*
D03*
X10590000Y9160001D02*
D03*
X10840000Y8680000D02*
D03*
X11140000D02*
D03*
X11040000D02*
D03*
X11940000D02*
D03*
X11440000D02*
D03*
X12040000D02*
D03*
X12140000D02*
D03*
X10790000Y9160001D02*
D03*
X11090000D02*
D03*
X10990000D02*
D03*
X10890000D02*
D03*
X11590000Y9160001D02*
D03*
X11790000Y9160001D02*
D03*
X11690000D02*
D03*
X11890000Y9160001D02*
D03*
X12090000Y9160001D02*
D03*
X10490000D02*
D03*
X10540000Y8680000D02*
D03*
X10835000Y9530000D02*
D03*
X11216000D02*
D03*
X11343000D02*
D03*
X11089000D02*
D03*
X10962000D02*
D03*
X11724000D02*
D03*
X11851000D02*
D03*
X11597000D02*
D03*
X12105000D02*
D03*
X11978000Y9560000D02*
D03*
X10073000Y9530000D02*
D03*
X9946000D02*
D03*
X10200000D02*
D03*
X10136500Y9572000D02*
D03*
X10009500D02*
D03*
X11470000Y9530000D02*
D03*
X7552500Y8110000D02*
D03*
X7870000Y9540000D02*
D03*
X7790000D02*
D03*
X7880000Y9650000D02*
D03*
X12163500Y9572000D02*
D03*
X7629981Y9459981D02*
D03*
X10690000Y9160001D02*
D03*
X7310000Y9460000D02*
D03*
X7389986Y9459981D02*
D03*
X7230000Y9380000D02*
D03*
X7390014Y9379981D02*
D03*
X7470014D02*
D03*
X7550014D02*
D03*
X7310014D02*
D03*
X7710014D02*
D03*
X7630000Y9380000D02*
D03*
X8959712Y9174605D02*
D03*
X6800000Y10670000D02*
D03*
X7189985Y10209980D02*
D03*
X7077500Y10260000D02*
D03*
X7119980Y10860020D02*
D03*
X7249965Y10810000D02*
D03*
X8840000Y10360001D02*
D03*
Y10810000D02*
D03*
X8840000Y10280000D02*
D03*
X8580000Y10240000D02*
D03*
X6940000Y9890000D02*
D03*
X7010000D02*
D03*
X8840000Y10440000D02*
D03*
X7990000Y10730000D02*
D03*
X7480000Y10350000D02*
D03*
X7730000Y10310000D02*
D03*
X7720000Y10409200D02*
D03*
X7830000Y10550000D02*
D03*
X11840000Y8680000D02*
D03*
X11740000D02*
D03*
X11640000D02*
D03*
X11390000Y9160001D02*
D03*
X11490000Y9160001D02*
D03*
X11540000Y8680000D02*
D03*
X11290000Y9160001D02*
D03*
X11190000Y9160001D02*
D03*
X11240000Y8680000D02*
D03*
X11340000D02*
D03*
X10440000Y7420000D02*
D03*
X12000000D02*
D03*
X12260000Y7870000D02*
D03*
X12000000D02*
D03*
X11740000D02*
D03*
X11480000D02*
D03*
X10960000D02*
D03*
X10699735Y7870000D02*
D03*
X10440000Y7870000D02*
D03*
X12260000Y8310000D02*
D03*
X11480000D02*
D03*
X11220000D02*
D03*
X10960000D02*
D03*
X10699735Y8310000D02*
D03*
X11720000Y8300000D02*
D03*
X11320000Y7259735D02*
D03*
X6180000Y8940000D02*
D03*
X8150000Y9620000D02*
D03*
X7690000Y8020000D02*
D03*
X6100000Y8750000D02*
D03*
X7680000Y10610000D02*
D03*
X5840000Y11380000D02*
D03*
X9520000Y10480000D02*
D03*
X13200000Y8520000D02*
D03*
X12930000Y8630000D02*
D03*
X9990000Y8160000D02*
D03*
X10340000Y8560000D02*
D03*
X10290000Y8680000D02*
D03*
X10190000Y8590000D02*
D03*
X13035001Y7615000D02*
D03*
X13289999Y8520000D02*
D03*
X13130000Y8270000D02*
D03*
X13200000Y7510000D02*
D03*
X13300000D02*
D03*
X10150000Y9160000D02*
D03*
X10240000Y9160001D02*
D03*
X11000000Y10860000D02*
D03*
X9990000Y8640000D02*
D03*
Y8480000D02*
D03*
Y8320000D02*
D03*
X9780000Y10470000D02*
D03*
X11250000Y10770000D02*
D03*
X11000000Y10700000D02*
D03*
X9880000Y11040000D02*
D03*
X10580000Y10740000D02*
D03*
X13080000Y7920000D02*
D03*
X7450000Y7150000D02*
D03*
X6670000Y7020000D02*
D03*
X9497500Y11505000D02*
D03*
X6490000Y9450000D02*
D03*
Y9520000D02*
D03*
X6590000Y8659999D02*
D03*
X6670000Y8660000D02*
D03*
X6670001Y8740000D02*
D03*
X6750000Y8740000D02*
D03*
X6320800Y8710000D02*
D03*
X9710000Y11730000D02*
D03*
X5230000Y12760000D02*
D03*
X4290000Y10940000D02*
D03*
X3819999Y10931000D02*
D03*
X3479999Y10230000D02*
D03*
X3384840Y9780000D02*
D03*
X4650000Y11030000D02*
D03*
X4310000Y10700000D02*
D03*
X3810000Y10180000D02*
D03*
X3479999Y11010000D02*
D03*
X3100000Y12260000D02*
D03*
X6160000Y8700000D02*
D03*
X5230000Y7880000D02*
D03*
X4690000Y7060000D02*
D03*
X4700000Y7660000D02*
D03*
X8888100Y9245400D02*
D03*
X8035000Y8070000D02*
D03*
X9107521Y8555019D02*
D03*
X6749988Y8339987D02*
D03*
X7070001Y8340000D02*
D03*
X9207961Y8135502D02*
D03*
X9112500Y8052500D02*
D03*
X8808002Y8295541D02*
D03*
Y8375542D02*
D03*
X5910000Y8460000D02*
D03*
X7790000Y8660000D02*
D03*
X9367961Y8295502D02*
D03*
X13195000Y8965000D02*
D03*
X12642500Y9180000D02*
D03*
Y8847500D02*
D03*
X5910000Y8220000D02*
D03*
X6990000Y9220000D02*
D03*
X6670000Y9380000D02*
D03*
X6830000Y9140000D02*
D03*
X6749988Y9299981D02*
D03*
X6830000Y9220000D02*
D03*
X6589987Y9059982D02*
D03*
X6510000Y9060000D02*
D03*
X6588000Y9139000D02*
D03*
X7070000Y9060000D02*
D03*
X7150000D02*
D03*
X7070000Y9140000D02*
D03*
X6482500Y9297500D02*
D03*
X6829986Y9459981D02*
D03*
X6910000Y9635000D02*
D03*
X6990000Y9620000D02*
D03*
X7150000Y9540000D02*
D03*
X7220000Y9640000D02*
D03*
X6990000Y9540000D02*
D03*
X7150000Y9460000D02*
D03*
X7070000D02*
D03*
X6990000D02*
D03*
X6910000D02*
D03*
X7150000Y9380000D02*
D03*
X7069987Y9379981D02*
D03*
X6989987D02*
D03*
X6879188Y9761688D02*
D03*
X7945000Y7917500D02*
D03*
X9290000Y10536250D02*
D03*
X9181700Y10269200D02*
D03*
X9545000Y10292500D02*
D03*
X9348750Y10207500D02*
D03*
X9290000Y10292500D02*
D03*
X9824188Y10399188D02*
D03*
X10102500Y10280000D02*
D03*
X9357500Y10702500D02*
D03*
X8220000Y9527500D02*
D03*
X8728002Y9095500D02*
D03*
X8090000Y9600000D02*
D03*
X8322500Y9510000D02*
D03*
X7966601Y9060016D02*
D03*
X8042801D02*
D03*
X8032900Y8193800D02*
D03*
X8032700Y8130300D02*
D03*
X7911400Y8147100D02*
D03*
X7570000Y7710000D02*
D03*
X8118300Y7564200D02*
D03*
X7667500Y7837500D02*
D03*
X7830000Y8080000D02*
D03*
X7600000Y9756790D02*
D03*
X7600370Y9682973D02*
D03*
X7650000Y9805000D02*
D03*
X7815381Y8014619D02*
D03*
X8424200Y7347500D02*
D03*
X9207961Y9015500D02*
D03*
X9208000Y8935500D02*
D03*
X8727963Y7815541D02*
D03*
X4662500Y11162500D02*
D03*
X4770000Y9370000D02*
D03*
X9017500Y11415000D02*
D03*
X3120000Y10650000D02*
D03*
X3492500Y10335000D02*
D03*
D80*
X2650000Y6770000D02*
Y13599998D01*
X13850000D01*
Y6770000D02*
Y13599998D01*
X2650000Y6770000D02*
X13850000Y6770000D01*
D81*
X2849999Y13400000D02*
D03*
X13650000D02*
D03*
X13650000Y6969999D02*
D03*
X2849999D02*
D03*
D82*
X3157499Y11790001D02*
D03*
Y13060001D02*
D03*
Y12425001D02*
D03*
X3212500Y13385001D02*
D03*
Y12750001D02*
D03*
X4352499Y12115001D02*
D03*
Y12750001D02*
D03*
X3212500Y12115001D02*
D03*
X4352499Y13385001D02*
D03*
X4407499Y11790001D02*
D03*
Y12425001D02*
D03*
Y13060001D02*
D03*
X4802500Y11790001D02*
D03*
Y13060001D02*
D03*
Y12425001D02*
D03*
X4857500Y13385001D02*
D03*
Y12750001D02*
D03*
X5997500Y12115001D02*
D03*
Y12750001D02*
D03*
X4857500Y12115001D02*
D03*
X5997500Y13385001D02*
D03*
X6052500Y11790001D02*
D03*
Y12425001D02*
D03*
Y13060001D02*
D03*
D84*
X7617501Y12780001D02*
D03*
X6413502D02*
D03*
D85*
X6890501Y12509001D02*
D03*
X7140501D02*
D03*
X6890501Y12309001D02*
D03*
X7140501D02*
D03*
D86*
X8347501Y13395001D02*
D03*
X9347501D02*
D03*
Y12145001D02*
D03*
X8347501D02*
D03*
X8097501Y12395001D02*
D03*
X9597501D02*
D03*
X8847501D02*
D03*
D87*
X11204300Y12779100D02*
D03*
X11704300Y12469100D02*
D03*
Y13089101D02*
D03*
D88*
X13184302Y13409099D02*
D03*
X12930302Y12901099D02*
D03*
X12676302D02*
D03*
Y13409099D02*
D03*
X13184302Y12901099D02*
D03*
D89*
X13623000Y9310000D02*
D03*
X10970000Y10530000D02*
D03*
X10980000Y11410000D02*
D03*
X10439999Y10280000D02*
D03*
X12232000Y9140000D02*
D03*
X12359000D02*
D03*
D90*
X5730000Y10359999D02*
D03*
X4890000Y10600000D02*
D03*
X5160000Y10690000D02*
D03*
X6100000Y10270000D02*
D03*
X6070000Y10459999D02*
D03*
X13200000Y11120000D02*
D03*
X3370000Y9690000D02*
D03*
X4390000Y8900000D02*
D03*
X5030000Y9170000D02*
D03*
X5410000Y8880000D02*
D03*
X6060000Y9060000D02*
D03*
Y8880000D02*
D03*
X4390000Y9100000D02*
D03*
Y9000000D02*
D03*
X6750000Y11490000D02*
D03*
X6710000Y11790000D02*
D03*
X7740000Y12590000D02*
D03*
X6350000Y11280000D02*
D03*
X6330000Y11540000D02*
D03*
X3790000Y10620000D02*
D03*
X3509999Y10747000D02*
D03*
X3790000Y10493000D02*
D03*
D91*
X6990000Y7460000D02*
D03*
Y7380000D02*
D03*
Y7300000D02*
D03*
X7310000Y7960000D02*
D03*
X4860000Y8970000D02*
D03*
X5040000D02*
D03*
X3820000Y9720000D02*
D03*
X5430000Y9224000D02*
D03*
X4950000Y8800000D02*
D03*
X7120000Y10750000D02*
D03*
X9150000Y10370000D02*
D03*
X8790000Y10610000D02*
D03*
X10060000Y7720000D02*
D03*
X3120000Y9850000D02*
D03*
D92*
X9070000Y13120000D02*
D03*
X9505000Y12745000D02*
D03*
X9240000Y7360000D02*
D03*
X9150000Y10910000D02*
D03*
X9850000Y7290000D02*
D03*
X10150000D02*
D03*
X5730000Y10730000D02*
D03*
X6310000Y11630000D02*
D03*
X2780000Y7172000D02*
D03*
X3140000Y7320000D02*
D03*
Y7420000D02*
D03*
X3170000Y7530000D02*
D03*
Y7630000D02*
D03*
X4390000Y8560000D02*
D03*
X9840000Y11260000D02*
D03*
X10010000Y11180000D02*
D03*
X10860000Y11320000D02*
D03*
X10690000Y11580000D02*
D03*
X11240000Y11790000D02*
D03*
X6030000Y9230000D02*
D03*
X6630000Y9939488D02*
D03*
X12630000Y9970000D02*
D03*
X10110000Y10830000D02*
D03*
X10330000Y10710000D02*
D03*
X9222500Y11672500D02*
D03*
X8120000Y10260000D02*
D03*
X8210000D02*
D03*
X8300000D02*
D03*
X4390000Y9422501D02*
D03*
X2840000Y9330000D02*
D03*
D93*
X13420000Y12640000D02*
D03*
X12230000Y12210000D02*
D03*
X12780000Y11640000D02*
D03*
X13700000Y13200000D02*
D03*
X13410001Y10630000D02*
D03*
X12740000Y11050000D02*
D03*
X13680000Y11430000D02*
D03*
X11990000Y13400000D02*
D03*
X13150000Y11820000D02*
D03*
X13239999Y13080000D02*
D03*
X13160001Y12280000D02*
D03*
X11460000Y11770000D02*
D03*
X12690000Y10670000D02*
D03*
X12740000Y11400000D02*
D03*
X12550000Y12450000D02*
D03*
X13670000Y12250000D02*
D03*
X13639999Y10640000D02*
D03*
X13550000Y13200000D02*
D03*
X13439999Y13350000D02*
D03*
X10780000Y12450000D02*
D03*
X12060000Y12560000D02*
D03*
X12070000Y12730000D02*
D03*
X10990000Y12610000D02*
D03*
X10180000Y12730000D02*
D03*
X12070000Y11310000D02*
D03*
X11930000Y12009920D02*
D03*
X9810000Y13420000D02*
D03*
X5550000Y7750000D02*
D03*
X5170000D02*
D03*
D94*
X10310000Y12060000D02*
D03*
X10830000Y11690000D02*
D03*
X10640000Y10340000D02*
D03*
X11130000Y11080000D02*
D03*
X11430000Y11580000D02*
D03*
X9690000Y10950000D02*
D03*
X9670000Y10810000D02*
D03*
X9610000Y11170000D02*
D03*
X9620000Y11830000D02*
D03*
D96*
X9080000Y12160000D02*
X9258024D01*
X9588024Y12490000D02*
X11280000D01*
X9000000Y12240000D02*
Y12470000D01*
X9258024Y12160000D02*
X9588024Y12490000D01*
X9000000Y12240000D02*
X9080000Y12160000D01*
X9000000Y12470000D02*
Y12650000D01*
X9730000Y13070000D02*
Y13600000D01*
X9540000Y12880000D02*
X9730000Y13070000D01*
X9230000Y12880000D02*
X9540000D01*
X9000000Y12650000D02*
X9230000Y12880000D01*
X6210000Y10680000D02*
X9130000Y13600000D01*
X6530000Y11590000D02*
X6825000Y11295000D01*
X4150000Y11590000D02*
X6530000D01*
X3370000Y10810000D02*
X4150000Y11590000D01*
X5810000Y8970000D02*
X6210000Y9370000D01*
X4450000Y8970000D02*
X5810000D01*
X3370000Y10050000D02*
X4450000Y8970000D01*
X3370000Y10050000D02*
Y10810000D01*
X13800000Y11300000D02*
X13850000Y11250000D01*
X13130000Y9680000D02*
X13850000D01*
X12910001Y9900000D02*
X13130000Y9680000D01*
X12910001Y9900000D02*
Y10980000D01*
X12480000Y11410000D02*
X12910001Y10980000D01*
X12480000Y11410000D02*
Y11870000D01*
X12330000Y12020000D02*
X12480000Y11870000D01*
X12070000Y12020000D02*
X12330000D01*
X13470000Y11300000D02*
X13800000D01*
X13370000Y11200000D02*
X13470000Y11300000D01*
X13370000Y10990000D02*
Y11200000D01*
Y10990000D02*
X13530000Y10830000D01*
X13630000Y10040000D02*
X13850000D01*
X13530000Y10140000D02*
X13630000Y10040000D01*
X13530000Y10140000D02*
Y10830000D01*
X12810001Y9250000D02*
X13850000D01*
X12490000Y9570000D02*
X12810001Y9250000D01*
X6210000Y8250000D02*
Y10680000D01*
X7270000Y9020000D02*
X7500000Y9250000D01*
X9810000Y9850000D02*
X10420000Y10460000D01*
Y10660000D01*
X10340000Y10740000D02*
X10420000Y10660000D01*
X9810000Y6770000D02*
Y9850000D01*
X7620000Y9020000D02*
X7860000D01*
X7500000Y9250000D02*
X7700000D01*
X10260000Y11930000D02*
X10530000D01*
X10357255Y11587255D02*
X10407745Y11637745D01*
X9520000Y10680000D02*
X9580000Y10740000D01*
X7860000Y9020000D02*
X9520000Y10680000D01*
X9750000Y11310000D02*
X10140000D01*
X9580000Y11140000D02*
X9750000Y11310000D01*
X9920000Y11590000D02*
X10260000Y11930000D01*
X9640000Y11590000D02*
X9920000D01*
X9320000Y11270000D02*
X9640000Y11590000D01*
X9580000Y10740000D02*
Y11140000D01*
X9320000Y10870000D02*
Y11270000D01*
X5010000Y7050000D02*
X6210000Y8250000D01*
X5010000Y6770000D02*
Y7050000D01*
X11280000Y12490000D02*
X11620000Y12150000D01*
Y11240000D02*
Y12150000D01*
Y11240000D02*
X12180000Y10680000D01*
Y9690000D02*
Y10680000D01*
Y9690000D02*
X12300000Y9570000D01*
X7340000Y7990000D02*
X7590000D01*
X7270000Y8060000D02*
X7340000Y7990000D01*
X7270000Y8060000D02*
Y9020000D01*
X9580000Y10740000D02*
X10340000D01*
X12300000Y9570000D02*
X12490000D01*
Y10820000D01*
X12070000Y11240000D02*
X12490000Y10820000D01*
X12070000Y11240000D02*
Y13600000D01*
X7700000Y9250000D02*
X9320000Y10870000D01*
X10662255Y11637745D02*
X10880000Y11420000D01*
Y11308024D02*
Y11420000D01*
Y11308024D02*
X10920000Y11268024D01*
Y11200000D02*
Y11268024D01*
X10630000Y10910000D02*
X10920000Y11200000D01*
X10630000Y10650000D02*
Y10910000D01*
X10580000Y10600000D02*
X10630000Y10650000D01*
X10420000Y10600000D02*
X10580000D01*
X10357255Y11527255D02*
Y11587255D01*
X10140000Y11310000D02*
X10357255Y11527255D01*
X10407745Y11637745D02*
X10600000D01*
X10530000Y11930000D02*
X10600000Y11860000D01*
Y11637745D02*
Y11860000D01*
X10487745Y11637745D02*
X10662255D01*
X7590000Y7990000D02*
Y8540000D01*
Y8990000D02*
X7620000Y9020000D01*
X7700000Y6770000D02*
Y7880000D01*
X7590000Y8435000D02*
Y8990000D01*
Y7990000D02*
X7700000Y7880000D01*
X12490000Y9570000D02*
Y9620000D01*
%TF.MD5,6129d3609d33ad1d6539f19c4b01abcf*%
M02*
