G04 Layer_Color=255*
%FSLAX45Y45*%
%MOMM*%
%TF.FileFunction,Pads,Top*%
%TF.Part,Single*%
G01*
G75*
%TA.AperFunction,SMDPad,CuDef*%
%ADD11R,1.20000X0.40000*%
%ADD12R,1.70000X0.30000*%
%ADD13R,1.14300X1.27000*%
%ADD14R,0.80000X1.20000*%
%ADD15R,1.00000X1.00000*%
%ADD16R,1.00000X1.00000*%
%ADD17R,0.80000X1.00000*%
%TA.AperFunction,BGAPad,CuDef*%
%ADD18C,0.40000*%
%TA.AperFunction,SMDPad,CuDef*%
%ADD19R,0.55000X0.45000*%
%ADD20R,1.00000X0.80000*%
%ADD21R,1.50000X0.60000*%
%ADD22R,1.70000X0.70000*%
%ADD23R,2.00000X0.70000*%
%ADD24R,1.70000X0.40000*%
%ADD25R,0.80000X2.50000*%
%ADD26R,1.50000X0.70000*%
%ADD27R,3.70000X3.70000*%
%ADD28R,0.85000X0.19000*%
%ADD29R,0.19000X0.85000*%
%ADD30R,1.40000X0.70000*%
%ADD31R,0.60000X1.50000*%
%ADD32R,1.45000X2.00000*%
%ADD33R,0.80000X1.50000*%
%ADD34R,0.30000X1.50000*%
%ADD35R,2.50000X3.20000*%
%ADD36R,1.50000X5.00000*%
%ADD37R,5.00000X1.50000*%
%ADD38R,3.20000X0.80000*%
%ADD39R,0.80000X3.20000*%
%ADD40R,1.60000X0.35000*%
%ADD41R,2.00000X1.00000*%
%ADD42R,1.20000X1.20000*%
%ADD43R,1.00000X2.00000*%
%TA.AperFunction,BGAPad,CuDef*%
%ADD44C,0.45000*%
%TA.AperFunction,SMDPad,CuDef*%
%ADD45R,0.70000X1.60000*%
%TA.AperFunction,ViaPad*%
%ADD66C,2.00000*%
%TA.AperFunction,ComponentPad*%
%ADD67C,2.50000*%
%ADD68C,1.70000*%
%ADD69C,2.30000*%
%ADD70C,2.70000*%
%ADD71C,2.00000*%
D11*
X9656520Y10405000D02*
D03*
Y10470000D02*
D03*
Y10535000D02*
D03*
X9423480D02*
D03*
Y10405000D02*
D03*
D12*
X8970000Y10010000D02*
D03*
Y10060000D02*
D03*
Y10110000D02*
D03*
Y10160000D02*
D03*
Y10210000D02*
D03*
Y10260000D02*
D03*
Y10310000D02*
D03*
Y10360000D02*
D03*
Y10410000D02*
D03*
Y10460000D02*
D03*
Y10510000D02*
D03*
Y10560000D02*
D03*
Y10610000D02*
D03*
Y10660000D02*
D03*
Y10710000D02*
D03*
Y10760000D02*
D03*
Y10810000D02*
D03*
Y10860000D02*
D03*
Y10910000D02*
D03*
Y10960000D02*
D03*
Y11010000D02*
D03*
Y11060000D02*
D03*
Y11110000D02*
D03*
Y11160000D02*
D03*
X6940000Y10010000D02*
D03*
Y10060000D02*
D03*
Y10110000D02*
D03*
Y10160000D02*
D03*
Y10210000D02*
D03*
Y10260000D02*
D03*
Y10310000D02*
D03*
Y10360000D02*
D03*
Y10410000D02*
D03*
Y10460000D02*
D03*
Y10510000D02*
D03*
Y10560000D02*
D03*
Y10610000D02*
D03*
Y10660000D02*
D03*
Y10710000D02*
D03*
Y10760000D02*
D03*
Y10810000D02*
D03*
Y10860000D02*
D03*
Y10910000D02*
D03*
Y10960000D02*
D03*
Y11010000D02*
D03*
Y11060000D02*
D03*
Y11110000D02*
D03*
Y11160000D02*
D03*
D13*
X9601688Y7471270D02*
D03*
X9779488D02*
D03*
X9826688Y10281270D02*
D03*
X10004488D02*
D03*
D14*
X9540000Y7101270D02*
D03*
X9760000D02*
D03*
X7210000Y7960000D02*
D03*
X7430000D02*
D03*
D15*
X9493000Y8405000D02*
D03*
X9673000D02*
D03*
X4680000Y9840000D02*
D03*
X4500000D02*
D03*
X5510000Y9920000D02*
D03*
X5330000D02*
D03*
X4890000Y10170000D02*
D03*
X4710000D02*
D03*
X10160000Y11810000D02*
D03*
X9980000D02*
D03*
X5030000Y8540000D02*
D03*
X4850000D02*
D03*
X4680000Y9620000D02*
D03*
X4500000D02*
D03*
X5950000Y9860000D02*
D03*
X5770000D02*
D03*
X5950000Y9680000D02*
D03*
X5770000D02*
D03*
X4660000Y8090000D02*
D03*
X4480000D02*
D03*
X9407500Y11505000D02*
D03*
X9587500D02*
D03*
X9491000Y8215000D02*
D03*
X9671000D02*
D03*
X6520000Y9787500D02*
D03*
X6340000D02*
D03*
D16*
X8322500Y7327500D02*
D03*
Y7507500D02*
D03*
X4290000Y10340000D02*
D03*
Y10520001D02*
D03*
X3010000Y11030000D02*
D03*
Y10850000D02*
D03*
X4290000Y11030000D02*
D03*
Y10850000D02*
D03*
X3045000Y10375000D02*
D03*
Y10555000D02*
D03*
X5620000Y10670000D02*
D03*
Y10850000D02*
D03*
X6180000Y9030000D02*
D03*
Y8850000D02*
D03*
D17*
X4500000Y10010000D02*
D03*
X4680000D02*
D03*
X5330000Y9750000D02*
D03*
X5510000D02*
D03*
X9950000Y10550000D02*
D03*
X10130000D02*
D03*
X12110000Y11830000D02*
D03*
X11930000D02*
D03*
X4480000Y8240000D02*
D03*
X4660000D02*
D03*
X4100000Y8090000D02*
D03*
X4280000D02*
D03*
X10690000Y11690000D02*
D03*
X10510000D02*
D03*
X10640000Y10530000D02*
D03*
X10820000D02*
D03*
D18*
X9247982Y8415520D02*
D03*
X9327982Y7855520D02*
D03*
Y7935520D02*
D03*
Y8015520D02*
D03*
Y8095520D02*
D03*
Y8175520D02*
D03*
Y8255520D02*
D03*
Y8335520D02*
D03*
Y8415520D02*
D03*
Y8495520D02*
D03*
Y8575521D02*
D03*
Y8655521D02*
D03*
Y8735521D02*
D03*
Y8815521D02*
D03*
Y8895521D02*
D03*
Y8975521D02*
D03*
Y9055521D02*
D03*
X9247982Y7855520D02*
D03*
Y7935520D02*
D03*
Y8015520D02*
D03*
Y8095520D02*
D03*
Y8175520D02*
D03*
Y8255520D02*
D03*
Y8335520D02*
D03*
Y8495520D02*
D03*
Y8575521D02*
D03*
Y8655521D02*
D03*
Y8735521D02*
D03*
Y8815521D02*
D03*
Y8895521D02*
D03*
Y8975521D02*
D03*
Y9055521D02*
D03*
X9167982Y7855520D02*
D03*
Y7935520D02*
D03*
Y8015520D02*
D03*
Y8095520D02*
D03*
Y8175520D02*
D03*
Y8255520D02*
D03*
Y8495520D02*
D03*
Y8575521D02*
D03*
Y8655521D02*
D03*
Y8735521D02*
D03*
Y8815521D02*
D03*
Y8895521D02*
D03*
Y8975521D02*
D03*
Y9055521D02*
D03*
X8847981Y7855520D02*
D03*
Y7935520D02*
D03*
Y8015520D02*
D03*
Y8095520D02*
D03*
Y8175520D02*
D03*
Y8255520D02*
D03*
Y8335520D02*
D03*
Y8415520D02*
D03*
Y8495520D02*
D03*
Y8735521D02*
D03*
Y8815521D02*
D03*
Y8895521D02*
D03*
Y8975521D02*
D03*
Y9055521D02*
D03*
X8767981Y7855520D02*
D03*
Y7935520D02*
D03*
Y8015520D02*
D03*
Y8095520D02*
D03*
Y8175520D02*
D03*
Y8255520D02*
D03*
Y8335520D02*
D03*
Y8415520D02*
D03*
Y8495520D02*
D03*
Y8575521D02*
D03*
Y8655521D02*
D03*
Y8735521D02*
D03*
Y8815521D02*
D03*
Y8895521D02*
D03*
Y8975521D02*
D03*
Y9055521D02*
D03*
X8687981Y7855520D02*
D03*
Y7935520D02*
D03*
Y8015520D02*
D03*
Y8095520D02*
D03*
Y8175520D02*
D03*
Y8255520D02*
D03*
Y8335520D02*
D03*
Y8415520D02*
D03*
Y8495520D02*
D03*
Y8575521D02*
D03*
Y8655521D02*
D03*
Y8735521D02*
D03*
Y8815521D02*
D03*
Y8895521D02*
D03*
Y8975521D02*
D03*
Y9055521D02*
D03*
X8847981Y8655521D02*
D03*
Y8575521D02*
D03*
X9167982Y8415520D02*
D03*
Y8335520D02*
D03*
D19*
X7068270Y7804348D02*
D03*
X7169870D02*
D03*
X7068399Y7690000D02*
D03*
X7170000D02*
D03*
X7670800Y7642500D02*
D03*
X7569200D02*
D03*
X8016700Y7482500D02*
D03*
X8118300D02*
D03*
X9381700Y10292500D02*
D03*
X9483300D02*
D03*
D20*
X6960000Y7110000D02*
D03*
Y6930000D02*
D03*
X6770000Y7110000D02*
D03*
Y6930000D02*
D03*
X6580000Y7110000D02*
D03*
Y6930000D02*
D03*
X9820000Y10760000D02*
D03*
Y10940000D02*
D03*
X10330000Y11850000D02*
D03*
Y11670000D02*
D03*
X12920000Y11250000D02*
D03*
Y11070000D02*
D03*
X4860000Y9060000D02*
D03*
Y8880000D02*
D03*
X5040000Y9060000D02*
D03*
Y8880000D02*
D03*
X6180000Y8410000D02*
D03*
Y8590000D02*
D03*
Y9410000D02*
D03*
Y9230000D02*
D03*
X10980000Y11080000D02*
D03*
Y11260000D02*
D03*
X10439999Y10610000D02*
D03*
Y10430000D02*
D03*
X7580000Y7240000D02*
D03*
Y7060000D02*
D03*
D21*
X12999921Y12630000D02*
D03*
X13240080D02*
D03*
D22*
X6492260Y10840999D02*
D03*
Y10713999D02*
D03*
Y10586999D02*
D03*
Y10459999D02*
D03*
Y10332999D02*
D03*
Y10205999D02*
D03*
Y10078999D02*
D03*
X5887740D02*
D03*
Y10205999D02*
D03*
Y10332999D02*
D03*
Y10459999D02*
D03*
Y10586999D02*
D03*
Y10713999D02*
D03*
Y10840999D02*
D03*
X3952259Y11001000D02*
D03*
Y10874000D02*
D03*
Y10747000D02*
D03*
Y10620000D02*
D03*
Y10493000D02*
D03*
Y10366000D02*
D03*
Y10239000D02*
D03*
X3347739D02*
D03*
Y10366000D02*
D03*
Y10493000D02*
D03*
Y10620000D02*
D03*
Y10747000D02*
D03*
Y10874000D02*
D03*
Y11001000D02*
D03*
X5257740Y9351000D02*
D03*
Y9224000D02*
D03*
Y9097000D02*
D03*
Y8970000D02*
D03*
Y8843000D02*
D03*
Y8716000D02*
D03*
Y8589000D02*
D03*
X5862260D02*
D03*
Y8716000D02*
D03*
Y8843000D02*
D03*
Y8970000D02*
D03*
Y9097000D02*
D03*
Y9224000D02*
D03*
Y9351000D02*
D03*
D23*
X6500600Y11423000D02*
D03*
Y11550000D02*
D03*
Y11677000D02*
D03*
Y11804000D02*
D03*
X7059400D02*
D03*
Y11677000D02*
D03*
Y11550000D02*
D03*
Y11423000D02*
D03*
D24*
X5352420Y10495000D02*
D03*
Y10560000D02*
D03*
Y10625000D02*
D03*
Y10690000D02*
D03*
Y10755000D02*
D03*
Y10820000D02*
D03*
Y10885000D02*
D03*
X4727580Y10885000D02*
D03*
Y10820000D02*
D03*
Y10755000D02*
D03*
Y10690000D02*
D03*
Y10625000D02*
D03*
Y10560000D02*
D03*
Y10495000D02*
D03*
X3522420Y9485000D02*
D03*
Y9550000D02*
D03*
Y9615000D02*
D03*
Y9680000D02*
D03*
Y9745000D02*
D03*
Y9810000D02*
D03*
Y9875000D02*
D03*
X2897580Y9875000D02*
D03*
Y9810000D02*
D03*
Y9745000D02*
D03*
Y9680000D02*
D03*
Y9615000D02*
D03*
Y9550000D02*
D03*
Y9485000D02*
D03*
D25*
X9946000Y9350000D02*
D03*
X11978000D02*
D03*
X12105000D02*
D03*
X11851000D02*
D03*
X11724000D02*
D03*
X11597000D02*
D03*
X11470000D02*
D03*
X11343000D02*
D03*
X11216000D02*
D03*
X11089000D02*
D03*
X10962000D02*
D03*
X10835000D02*
D03*
X10708000D02*
D03*
X10581000D02*
D03*
X10454000D02*
D03*
X10327000D02*
D03*
X10200000D02*
D03*
X10073000D02*
D03*
X9946000Y9890000D02*
D03*
X10073000D02*
D03*
X10200000D02*
D03*
X10327000D02*
D03*
X10454000D02*
D03*
X10581000D02*
D03*
X10708000D02*
D03*
X10835000D02*
D03*
X10962000D02*
D03*
X11089000D02*
D03*
X11216000D02*
D03*
X11343000D02*
D03*
X11470000D02*
D03*
X11597000D02*
D03*
X11724000D02*
D03*
X11978000D02*
D03*
X12105000D02*
D03*
X11851000D02*
D03*
X12232000Y9350000D02*
D03*
Y9890000D02*
D03*
X12359000D02*
D03*
Y9350000D02*
D03*
D26*
X11285570Y11680000D02*
D03*
X11054430Y11584750D02*
D03*
Y11775250D02*
D03*
D27*
X10409999Y11130000D02*
D03*
D28*
X10112499Y11350000D02*
D03*
Y11310000D02*
D03*
Y11270000D02*
D03*
Y11230000D02*
D03*
Y11190000D02*
D03*
Y11150000D02*
D03*
Y11110000D02*
D03*
Y11070000D02*
D03*
Y11030000D02*
D03*
Y10990000D02*
D03*
Y10950000D02*
D03*
Y10910000D02*
D03*
X10707500D02*
D03*
Y10950000D02*
D03*
Y10990000D02*
D03*
Y11030000D02*
D03*
Y11070000D02*
D03*
Y11110000D02*
D03*
Y11150000D02*
D03*
Y11190000D02*
D03*
Y11230000D02*
D03*
Y11270000D02*
D03*
Y11310000D02*
D03*
Y11350000D02*
D03*
D29*
X10189999Y10832500D02*
D03*
X10230000D02*
D03*
X10270000D02*
D03*
X10309999D02*
D03*
X10350000D02*
D03*
X10390000D02*
D03*
X10429999D02*
D03*
X10469999D02*
D03*
X10510000D02*
D03*
X10549999D02*
D03*
X10589999D02*
D03*
X10630000D02*
D03*
Y11427500D02*
D03*
X10589999D02*
D03*
X10549999D02*
D03*
X10510000D02*
D03*
X10469999D02*
D03*
X10429999D02*
D03*
X10390000D02*
D03*
X10350000D02*
D03*
X10309999D02*
D03*
X10270000D02*
D03*
X10230000D02*
D03*
X10189999D02*
D03*
D30*
X13332300Y11275000D02*
D03*
Y11180000D02*
D03*
Y11085000D02*
D03*
X13667700D02*
D03*
Y11275000D02*
D03*
D31*
X13560001Y12990080D02*
D03*
Y12749920D02*
D03*
X12320000Y13430080D02*
D03*
Y13189920D02*
D03*
Y12850079D02*
D03*
Y12609920D02*
D03*
D32*
X6287500Y7020000D02*
D03*
X4912500D02*
D03*
Y7850000D02*
D03*
X6287500D02*
D03*
D33*
X5920000Y7280000D02*
D03*
X5150000D02*
D03*
X5810000D02*
D03*
X5480000D02*
D03*
X5590000D02*
D03*
X5370000D02*
D03*
X5260000D02*
D03*
X5700000D02*
D03*
D34*
X10190000Y9030000D02*
D03*
X10240000D02*
D03*
X10290000D02*
D03*
X10340000D02*
D03*
X10390000D02*
D03*
X10440000D02*
D03*
X10490000D02*
D03*
X10540000D02*
D03*
X10590000D02*
D03*
X10640000D02*
D03*
X10690000D02*
D03*
X10740000D02*
D03*
X10790000D02*
D03*
X10840000D02*
D03*
X10890000D02*
D03*
X10940000D02*
D03*
X10990000D02*
D03*
X11040000D02*
D03*
X11090000D02*
D03*
X11140000D02*
D03*
X11190000D02*
D03*
X11240000D02*
D03*
X11290000D02*
D03*
X11340000D02*
D03*
X11390000D02*
D03*
X11440000D02*
D03*
X11490000D02*
D03*
X11540000D02*
D03*
X11590000D02*
D03*
X11640000D02*
D03*
X11690000D02*
D03*
X11740000D02*
D03*
X11790000D02*
D03*
X11840000D02*
D03*
X11890000D02*
D03*
X11940000D02*
D03*
X11990000D02*
D03*
X12040000D02*
D03*
X12090000D02*
D03*
X12140000D02*
D03*
D35*
X9948700Y8877600D02*
D03*
X12381300D02*
D03*
D36*
X10490000Y13260600D02*
D03*
Y12270000D02*
D03*
D37*
X13505299Y11990000D02*
D03*
X12514700D02*
D03*
X13505299Y10440000D02*
D03*
X12514700D02*
D03*
X11564700Y11230000D02*
D03*
X12555300D02*
D03*
D38*
X3592900Y7545000D02*
D03*
Y7291000D02*
D03*
X2907100Y7545000D02*
D03*
Y7291000D02*
D03*
X3592900Y8307000D02*
D03*
Y8053000D02*
D03*
Y7799000D02*
D03*
X2907100Y8307000D02*
D03*
Y8053000D02*
D03*
Y7799000D02*
D03*
Y8561000D02*
D03*
Y8815000D02*
D03*
Y9069000D02*
D03*
X3592900Y8561000D02*
D03*
Y8815000D02*
D03*
Y9069000D02*
D03*
X13590199Y7517000D02*
D03*
Y7263000D02*
D03*
X12917101D02*
D03*
Y7517000D02*
D03*
X13592900Y8524000D02*
D03*
Y8270000D02*
D03*
Y8016000D02*
D03*
X12907100Y8524000D02*
D03*
Y8270000D02*
D03*
Y8016000D02*
D03*
D39*
X4594000Y7037100D02*
D03*
X4340000D02*
D03*
X4086000D02*
D03*
X4594000Y7722900D02*
D03*
X4340000D02*
D03*
X4086000D02*
D03*
X13363000Y9057100D02*
D03*
X13617000D02*
D03*
Y9730200D02*
D03*
X13363000D02*
D03*
D40*
X4090000Y8902500D02*
D03*
Y8772500D02*
D03*
Y8642499D02*
D03*
Y8577499D02*
D03*
Y8707499D02*
D03*
Y8837500D02*
D03*
Y9422501D02*
D03*
Y9292501D02*
D03*
Y9162500D02*
D03*
Y9032500D02*
D03*
Y8967500D02*
D03*
Y9097500D02*
D03*
Y9227500D02*
D03*
Y9357501D02*
D03*
X4650000Y8577499D02*
D03*
Y8642499D02*
D03*
Y8967500D02*
D03*
Y9097500D02*
D03*
Y9162500D02*
D03*
Y9032500D02*
D03*
Y8772500D02*
D03*
Y8902500D02*
D03*
Y8837500D02*
D03*
Y8707499D02*
D03*
Y9292501D02*
D03*
Y9422501D02*
D03*
Y9357501D02*
D03*
Y9227500D02*
D03*
D41*
X11754000Y10290000D02*
D03*
Y10450000D02*
D03*
X11246000Y10290000D02*
D03*
Y10450000D02*
D03*
D42*
X9022500Y11512500D02*
D03*
X9222500D02*
D03*
D43*
X7330000Y7484000D02*
D03*
X7170000D02*
D03*
X7330000Y6976000D02*
D03*
X7170000D02*
D03*
D44*
X6550000Y9580000D02*
D03*
X6630000D02*
D03*
X6710000D02*
D03*
X6790000D02*
D03*
X6870000D02*
D03*
X6950000D02*
D03*
X7030000D02*
D03*
X7110000D02*
D03*
X7190000D02*
D03*
X7270000D02*
D03*
X7350000D02*
D03*
X7430000D02*
D03*
X7510000D02*
D03*
X7590000D02*
D03*
X7670000D02*
D03*
X7750000D02*
D03*
X7830000D02*
D03*
X7910000D02*
D03*
X6550000Y9500000D02*
D03*
X6630000D02*
D03*
X6710000D02*
D03*
X6790000D02*
D03*
X6870000D02*
D03*
X6950000D02*
D03*
X7030000D02*
D03*
X7110000D02*
D03*
X7190000D02*
D03*
X7270000D02*
D03*
X7350000D02*
D03*
X7430000D02*
D03*
X7510000D02*
D03*
X7590000D02*
D03*
X7670000D02*
D03*
X7750000D02*
D03*
X7830000D02*
D03*
X7910000D02*
D03*
X6550000Y9420000D02*
D03*
X6630000D02*
D03*
X6710000D02*
D03*
X6790000D02*
D03*
X6870000D02*
D03*
X6950000D02*
D03*
X7030000D02*
D03*
X7110000D02*
D03*
X7190000D02*
D03*
X7270000D02*
D03*
X7350000D02*
D03*
X7430000D02*
D03*
X7510000D02*
D03*
X7590000D02*
D03*
X7670000D02*
D03*
X7750000D02*
D03*
X7830000D02*
D03*
X7910000D02*
D03*
X6550000Y9340000D02*
D03*
X6630000D02*
D03*
X6710000D02*
D03*
X6790000D02*
D03*
X6870000D02*
D03*
X6950000D02*
D03*
X7030000D02*
D03*
X7110000D02*
D03*
X7190000D02*
D03*
X7270000D02*
D03*
X7350000D02*
D03*
X7430000D02*
D03*
X7510000D02*
D03*
X7590000D02*
D03*
X7670000D02*
D03*
X7750000D02*
D03*
X7830000D02*
D03*
X7910000D02*
D03*
X6550000Y9260000D02*
D03*
X6630000D02*
D03*
X6710000D02*
D03*
X6790000D02*
D03*
X6870000D02*
D03*
X6950000D02*
D03*
X7030000D02*
D03*
X7110000D02*
D03*
X7190000D02*
D03*
X7270000D02*
D03*
X7350000D02*
D03*
X7430000D02*
D03*
X7510000D02*
D03*
X7590000D02*
D03*
X7670000D02*
D03*
X7750000D02*
D03*
X7830000D02*
D03*
X7910000D02*
D03*
X6550000Y9180000D02*
D03*
X6630000D02*
D03*
X6710000D02*
D03*
X6790000D02*
D03*
X6870000D02*
D03*
X6950000D02*
D03*
X7030000D02*
D03*
X7110000D02*
D03*
X7190000D02*
D03*
X7270000D02*
D03*
X7350000D02*
D03*
X7430000D02*
D03*
X7510000D02*
D03*
X7590000D02*
D03*
X7670000D02*
D03*
X7750000D02*
D03*
X7830000D02*
D03*
X7910000D02*
D03*
X6550000Y9100000D02*
D03*
X6630000D02*
D03*
X6710000D02*
D03*
X6790000D02*
D03*
X6870000D02*
D03*
X6950000D02*
D03*
X7030000D02*
D03*
X7110000D02*
D03*
X7190000D02*
D03*
X7270000D02*
D03*
X7350000D02*
D03*
X7430000D02*
D03*
X7510000D02*
D03*
X7590000D02*
D03*
X7670000D02*
D03*
X7750000D02*
D03*
X7830000D02*
D03*
X7910000D02*
D03*
X6550000Y9020000D02*
D03*
X6630000D02*
D03*
X6710000D02*
D03*
X6790000D02*
D03*
X6870000D02*
D03*
X6950000D02*
D03*
X7030000D02*
D03*
X7110000D02*
D03*
X7190000D02*
D03*
X7270000D02*
D03*
X7350000D02*
D03*
X7430000D02*
D03*
X7510000D02*
D03*
X7590000D02*
D03*
X7670000D02*
D03*
X7750000D02*
D03*
X7830000D02*
D03*
X7910000D02*
D03*
X6550000Y8940000D02*
D03*
X6630000D02*
D03*
X6710000D02*
D03*
X6790000D02*
D03*
X6870000D02*
D03*
X6950000D02*
D03*
X7030000D02*
D03*
X7110000D02*
D03*
X7190000D02*
D03*
X7270000D02*
D03*
X7350000D02*
D03*
X7430000D02*
D03*
X7510000D02*
D03*
X7590000D02*
D03*
X7670000D02*
D03*
X7750000D02*
D03*
X7830000D02*
D03*
X7910000D02*
D03*
X6550000Y8860000D02*
D03*
X6630000D02*
D03*
X6710000D02*
D03*
X6790000D02*
D03*
X6870000D02*
D03*
X6950000D02*
D03*
X7030000D02*
D03*
X7110000D02*
D03*
X7190000D02*
D03*
X7270000D02*
D03*
X7350000D02*
D03*
X7430000D02*
D03*
X7510000D02*
D03*
X7590000D02*
D03*
X7670000D02*
D03*
X7750000D02*
D03*
X7830000D02*
D03*
X7910000D02*
D03*
X6550000Y8780000D02*
D03*
X6630000D02*
D03*
X6710000D02*
D03*
X6790000D02*
D03*
X6870000D02*
D03*
X6950000D02*
D03*
X7030000D02*
D03*
X7110000D02*
D03*
X7190000D02*
D03*
X7270000D02*
D03*
X7350000D02*
D03*
X7430000D02*
D03*
X7510000D02*
D03*
X7590000D02*
D03*
X7670000D02*
D03*
X7750000D02*
D03*
X7830000D02*
D03*
X7910000D02*
D03*
X6550000Y8700000D02*
D03*
X6630000D02*
D03*
X6710000D02*
D03*
X6790000D02*
D03*
X6870000D02*
D03*
X6950000D02*
D03*
X7030000D02*
D03*
X7110000D02*
D03*
X7190000D02*
D03*
X7270000D02*
D03*
X7350000D02*
D03*
X7430000D02*
D03*
X7510000D02*
D03*
X7590000D02*
D03*
X7670000D02*
D03*
X7750000D02*
D03*
X7830000D02*
D03*
X7910000D02*
D03*
X6550000Y8620000D02*
D03*
X6630000D02*
D03*
X6710000D02*
D03*
X6790000D02*
D03*
X6870000D02*
D03*
X6950000D02*
D03*
X7030000D02*
D03*
X7110000D02*
D03*
X7190000D02*
D03*
X7270000D02*
D03*
X7350000D02*
D03*
X7430000D02*
D03*
X7510000D02*
D03*
X7590000D02*
D03*
X7670000D02*
D03*
X7750000D02*
D03*
X7830000D02*
D03*
X7910000D02*
D03*
X6550000Y8540000D02*
D03*
X6630000D02*
D03*
X6710000D02*
D03*
X6790000D02*
D03*
X6870000D02*
D03*
X6950000D02*
D03*
X7030000D02*
D03*
X7110000D02*
D03*
X7190000D02*
D03*
X7270000D02*
D03*
X7350000D02*
D03*
X7430000D02*
D03*
X7510000D02*
D03*
X7590000D02*
D03*
X7670000D02*
D03*
X7750000D02*
D03*
X7830000D02*
D03*
X7910000D02*
D03*
X6550000Y8460000D02*
D03*
X6630000D02*
D03*
X6710000D02*
D03*
X6790000D02*
D03*
X6870000D02*
D03*
X6950000D02*
D03*
X7030000D02*
D03*
X7110000D02*
D03*
X7190000D02*
D03*
X7270000D02*
D03*
X7350000D02*
D03*
X7430000D02*
D03*
X7510000D02*
D03*
X7590000D02*
D03*
X7670000D02*
D03*
X7750000D02*
D03*
X7830000D02*
D03*
X7910000D02*
D03*
X6550000Y8380000D02*
D03*
X6630000D02*
D03*
X6710000D02*
D03*
X6790000D02*
D03*
X6870000D02*
D03*
X6950000D02*
D03*
X7030000D02*
D03*
X7110000D02*
D03*
X7190000D02*
D03*
X7270000D02*
D03*
X7350000D02*
D03*
X7430000D02*
D03*
X7510000D02*
D03*
X7590000D02*
D03*
X7670000D02*
D03*
X7750000D02*
D03*
X7830000D02*
D03*
X7910000D02*
D03*
X6550000Y8300000D02*
D03*
X6630000D02*
D03*
X6710000D02*
D03*
X6790000D02*
D03*
X6870000D02*
D03*
X6950000D02*
D03*
X7030000D02*
D03*
X7110000D02*
D03*
X7190000D02*
D03*
X7270000D02*
D03*
X7350000D02*
D03*
X7430000D02*
D03*
X7510000D02*
D03*
X7590000D02*
D03*
X7670000D02*
D03*
X7750000D02*
D03*
X7830000D02*
D03*
X7910000D02*
D03*
X6550000Y8220000D02*
D03*
X6630000D02*
D03*
X6710000D02*
D03*
X6790000D02*
D03*
X6870000D02*
D03*
X6950000D02*
D03*
X7030000D02*
D03*
X7110000D02*
D03*
X7190000D02*
D03*
X7270000D02*
D03*
X7350000D02*
D03*
X7430000D02*
D03*
X7510000D02*
D03*
X7590000D02*
D03*
X7670000D02*
D03*
X7750000D02*
D03*
X7830000D02*
D03*
X7910000D02*
D03*
D45*
X8495000Y7215000D02*
D03*
X7945000D02*
D03*
X8495000Y6985000D02*
D03*
X7945000D02*
D03*
D66*
X13650000Y13400000D02*
D03*
D67*
X3157499Y11790001D02*
D03*
Y13060001D02*
D03*
Y12425001D02*
D03*
X3212500Y13385001D02*
D03*
Y12750001D02*
D03*
X4352499Y12115001D02*
D03*
Y12750001D02*
D03*
X3212500Y12115001D02*
D03*
X4352499Y13385001D02*
D03*
X4407499Y11790001D02*
D03*
Y12425001D02*
D03*
Y13060001D02*
D03*
X4802500Y11790001D02*
D03*
Y13060001D02*
D03*
Y12425001D02*
D03*
X4857500Y13385001D02*
D03*
Y12750001D02*
D03*
X5997500Y12115001D02*
D03*
Y12750001D02*
D03*
X4857500Y12115001D02*
D03*
X5997500Y13385001D02*
D03*
X6052500Y11790001D02*
D03*
Y12425001D02*
D03*
Y13060001D02*
D03*
D68*
X6890501Y12509001D02*
D03*
X7140501D02*
D03*
X6890501Y12309001D02*
D03*
X7140501D02*
D03*
D69*
X8347501Y13395001D02*
D03*
X9347501D02*
D03*
Y12145001D02*
D03*
X8347501D02*
D03*
X8097501Y12395001D02*
D03*
X9597501D02*
D03*
X8847501D02*
D03*
D70*
X11204300Y12779100D02*
D03*
X11704300Y12469100D02*
D03*
Y13089101D02*
D03*
D71*
X13184302Y13409099D02*
D03*
X12930302Y12901099D02*
D03*
X12676302D02*
D03*
Y13409099D02*
D03*
X13184302Y12901099D02*
D03*
%TF.MD5,7b82631695a9a5690db82a13226ffe15*%
M02*
