G04 Layer_Color=128*
%FSLAX45Y45*%
%MOMM*%
%TF.FileFunction,Paste,Bot*%
%TF.Part,Single*%
G01*
G75*
%TA.AperFunction,SMDPad,CuDef*%
%ADD21R,1.50000X0.60000*%
%ADD31R,0.60000X1.50000*%
%ADD104R,2.70000X1.30000*%
%ADD105R,2.70000X4.10000*%
%ADD109R,0.60000X1.80000*%
%ADD117R,1.30000X0.50000*%
%ADD119R,1.24300X1.37000*%
%ADD121R,1.10000X1.10000*%
%ADD122R,1.10000X1.10000*%
%ADD123R,0.90000X1.10000*%
%ADD125R,0.65000X0.55000*%
%ADD126R,1.10000X0.90000*%
%ADD149R,1.10000X1.60000*%
%ADD150R,0.55000X0.65000*%
%ADD151R,2.60000X1.11600*%
%ADD152R,2.60000X1.37000*%
%ADD153R,3.40000X2.30000*%
%ADD154R,1.50000X2.30000*%
%ADD155R,1.50000X1.10000*%
%ADD156R,1.90000X1.50000*%
%ADD157R,1.30000X0.90000*%
%ADD158R,1.37000X1.24300*%
D21*
X11989840Y12400000D02*
D03*
X12230000D02*
D03*
X12500080Y12750000D02*
D03*
X12259920D02*
D03*
X13240080Y12630000D02*
D03*
X12999921D02*
D03*
D31*
X12920000Y13119920D02*
D03*
Y13360080D02*
D03*
X8000000Y12659920D02*
D03*
Y12900079D02*
D03*
D104*
X10179160Y12920000D02*
D03*
Y13150000D02*
D03*
Y13380000D02*
D03*
X13410840Y12280000D02*
D03*
Y12050000D02*
D03*
Y11820000D02*
D03*
D105*
X10844490Y13150000D02*
D03*
X12745510Y12050000D02*
D03*
D109*
X7365000Y12247760D02*
D03*
X7460000D02*
D03*
X7555000D02*
D03*
Y12532240D02*
D03*
X7460000D02*
D03*
X7365000D02*
D03*
D117*
X8540000Y11875000D02*
D03*
Y11810000D02*
D03*
Y11745000D02*
D03*
X8306960D02*
D03*
Y11875000D02*
D03*
D119*
X6341688Y9808730D02*
D03*
X6519488D02*
D03*
X9824188Y10281230D02*
D03*
X10001988D02*
D03*
D121*
X8700000Y11090000D02*
D03*
X8520000D02*
D03*
X8700000Y10920000D02*
D03*
X8520000D02*
D03*
X5090000Y10820000D02*
D03*
X4910000D02*
D03*
X5410000Y10830000D02*
D03*
X5590000D02*
D03*
X8960000Y12070000D02*
D03*
X8780000D02*
D03*
X5640000Y8700000D02*
D03*
X5820000D02*
D03*
X5640000Y8540000D02*
D03*
X5820000D02*
D03*
X5640000Y8380000D02*
D03*
X5820000D02*
D03*
X5640000Y8220000D02*
D03*
X5820000D02*
D03*
X3760000Y9550000D02*
D03*
X3940000D02*
D03*
X3720000Y9210000D02*
D03*
X3900000D02*
D03*
X5040000Y7900000D02*
D03*
X4860000D02*
D03*
X4500000Y9640000D02*
D03*
X4680000D02*
D03*
X4660000Y8090000D02*
D03*
X4480000D02*
D03*
X4280000D02*
D03*
X4100000D02*
D03*
X4660000Y8240000D02*
D03*
X4480000D02*
D03*
X5950000Y9860000D02*
D03*
X5770000D02*
D03*
X5950000Y9680000D02*
D03*
X5770000D02*
D03*
X10200000Y10460000D02*
D03*
X10020000D02*
D03*
X11250000Y11270000D02*
D03*
X11430000D02*
D03*
X11250000Y11450000D02*
D03*
X11430000D02*
D03*
X8490000Y10070000D02*
D03*
X8670000D02*
D03*
X8490000Y10240000D02*
D03*
X8670000D02*
D03*
X8490000Y10480000D02*
D03*
X8670000D02*
D03*
X8304500Y8815500D02*
D03*
X8124500D02*
D03*
X11320000Y10630000D02*
D03*
X11140000D02*
D03*
X11310000Y10870000D02*
D03*
X11130000D02*
D03*
D122*
X9013000Y8408000D02*
D03*
Y8588000D02*
D03*
X8241000Y8406000D02*
D03*
Y8586000D02*
D03*
X9380000Y11010000D02*
D03*
Y11190000D02*
D03*
X8988000Y8084000D02*
D03*
Y7904000D02*
D03*
X9820000Y10950000D02*
D03*
Y11130000D02*
D03*
X6672500Y12350000D02*
D03*
Y12530000D02*
D03*
X5700000Y10060000D02*
D03*
Y10240000D02*
D03*
X6700000Y10270000D02*
D03*
Y10450000D02*
D03*
X5020000Y10670000D02*
D03*
Y10490000D02*
D03*
X5350000Y10670000D02*
D03*
Y10490000D02*
D03*
X4700000Y6970000D02*
D03*
Y7150000D02*
D03*
X4460000Y6970000D02*
D03*
Y7150000D02*
D03*
X4210000Y6970000D02*
D03*
Y7150000D02*
D03*
X3990000Y6970000D02*
D03*
Y7150000D02*
D03*
X6320000Y12505000D02*
D03*
Y12325000D02*
D03*
X6334338Y13289070D02*
D03*
Y13109070D02*
D03*
X9410000Y11520000D02*
D03*
Y11340000D02*
D03*
X9800000Y12989999D02*
D03*
Y12810001D02*
D03*
X7280000Y11400000D02*
D03*
Y11580000D02*
D03*
X6620000Y11310000D02*
D03*
Y11130000D02*
D03*
X3045000Y10152500D02*
D03*
Y10332500D02*
D03*
X3350000Y11080000D02*
D03*
Y10900000D02*
D03*
X3520000Y12280000D02*
D03*
Y12460000D02*
D03*
X4090000Y12750000D02*
D03*
Y12930000D02*
D03*
X3940000Y12280000D02*
D03*
Y12460000D02*
D03*
X3960000Y13200000D02*
D03*
Y13380000D02*
D03*
X3650000Y11120000D02*
D03*
Y10940000D02*
D03*
X2950000Y12180000D02*
D03*
Y12000000D02*
D03*
X3640000Y10270000D02*
D03*
Y10090000D02*
D03*
X2860000Y9700000D02*
D03*
Y9520000D02*
D03*
X3030001Y9700000D02*
D03*
Y9520000D02*
D03*
X3670000Y12930000D02*
D03*
Y12750000D02*
D03*
X2950000Y12820000D02*
D03*
Y12640000D02*
D03*
X3500000Y13380000D02*
D03*
Y13200000D02*
D03*
X3510000Y9710000D02*
D03*
Y9530000D02*
D03*
X3940000Y10330000D02*
D03*
Y10150000D02*
D03*
X4290000Y11030000D02*
D03*
Y10850000D02*
D03*
X5150000Y13400000D02*
D03*
Y13220000D02*
D03*
X5610000Y13400000D02*
D03*
Y13220000D02*
D03*
X5770000Y12760000D02*
D03*
Y12939999D02*
D03*
X5150000Y12300000D02*
D03*
Y12480000D02*
D03*
X5630000Y11530000D02*
D03*
Y11350000D02*
D03*
X5270000D02*
D03*
Y11530000D02*
D03*
X4900000D02*
D03*
Y11350000D02*
D03*
X5990000D02*
D03*
Y11530000D02*
D03*
X9620000Y12640000D02*
D03*
Y12820000D02*
D03*
X6730000Y13230000D02*
D03*
Y13050000D02*
D03*
X6700000Y10830000D02*
D03*
Y10650000D02*
D03*
X6030000Y8470000D02*
D03*
Y8650000D02*
D03*
X12260000Y7510000D02*
D03*
Y7330000D02*
D03*
X12259735Y6910000D02*
D03*
Y7090001D02*
D03*
X12000000Y8400000D02*
D03*
Y8220000D02*
D03*
X11999732Y6910000D02*
D03*
Y7090000D02*
D03*
X11740000Y7510000D02*
D03*
Y7330000D02*
D03*
X11739733Y6910000D02*
D03*
Y7090000D02*
D03*
X11480000Y7510000D02*
D03*
Y7330000D02*
D03*
X11479733Y6910000D02*
D03*
Y7090000D02*
D03*
X11220000Y7510000D02*
D03*
Y7330000D02*
D03*
X11220000Y7960000D02*
D03*
Y7780000D02*
D03*
X10960000Y7510000D02*
D03*
Y7330000D02*
D03*
Y6910000D02*
D03*
Y7090000D02*
D03*
X10699734Y7510000D02*
D03*
Y7330000D02*
D03*
X10700000Y6910721D02*
D03*
Y7090721D02*
D03*
X10440000Y8400000D02*
D03*
Y8220000D02*
D03*
X10439735Y6910000D02*
D03*
Y7090000D02*
D03*
X12260000Y8220000D02*
D03*
Y8400000D02*
D03*
Y7780000D02*
D03*
Y7960000D02*
D03*
X12000000Y7330000D02*
D03*
Y7510000D02*
D03*
X12000000Y7780000D02*
D03*
Y7960000D02*
D03*
X11720000Y8210000D02*
D03*
Y8390000D02*
D03*
X11740000Y7780000D02*
D03*
Y7960000D02*
D03*
X11480000Y8220000D02*
D03*
Y8400000D02*
D03*
Y7780000D02*
D03*
Y7960000D02*
D03*
X11220000Y8220000D02*
D03*
Y8400000D02*
D03*
X11220000Y7090000D02*
D03*
Y6910000D02*
D03*
X10960000Y8220000D02*
D03*
Y8400000D02*
D03*
Y7780000D02*
D03*
Y7960000D02*
D03*
X10700000Y8220000D02*
D03*
Y8400000D02*
D03*
Y7780000D02*
D03*
Y7960000D02*
D03*
X10440000Y7330000D02*
D03*
Y7510000D02*
D03*
X10440000Y7780000D02*
D03*
Y7960000D02*
D03*
X7512500Y7355000D02*
D03*
Y7535000D02*
D03*
X12642500Y9260000D02*
D03*
Y9080000D02*
D03*
X13227499Y9490000D02*
D03*
Y9670000D02*
D03*
X12632499Y9840000D02*
D03*
Y9660000D02*
D03*
X13197499Y9045000D02*
D03*
Y8865000D02*
D03*
X5270000Y7150000D02*
D03*
Y6970000D02*
D03*
X5110000Y7150000D02*
D03*
Y6970000D02*
D03*
X5930000Y7150000D02*
D03*
Y6970000D02*
D03*
X6090000Y7150000D02*
D03*
Y6970000D02*
D03*
D123*
X5640000Y11160000D02*
D03*
X5820000D02*
D03*
X4812500Y11030000D02*
D03*
X4992500D02*
D03*
X10680000Y11980000D02*
D03*
X10500000D02*
D03*
X10680000Y11690000D02*
D03*
X10500000D02*
D03*
X13110001Y11570000D02*
D03*
X12930000D02*
D03*
X13230000Y13220000D02*
D03*
X13410001D02*
D03*
X13489999Y13030000D02*
D03*
X13670000D02*
D03*
X7240000Y12880000D02*
D03*
X7060000D02*
D03*
X4850000Y8540000D02*
D03*
X5030000D02*
D03*
X4850000Y8380000D02*
D03*
X5030000D02*
D03*
X4850000Y8220000D02*
D03*
X5030000D02*
D03*
X4850000Y8700000D02*
D03*
X5030000D02*
D03*
X3730000Y9380000D02*
D03*
X3910000D02*
D03*
X3730000Y9720000D02*
D03*
X3910000D02*
D03*
X5030000Y8060000D02*
D03*
X4850000D02*
D03*
X4500000Y9810000D02*
D03*
X4680000D02*
D03*
X9950000Y11440000D02*
D03*
X9770000D02*
D03*
Y11630000D02*
D03*
X9950000D02*
D03*
X11430000Y11070000D02*
D03*
X11250000D02*
D03*
X11040000Y11560000D02*
D03*
X10860000D02*
D03*
X10080000Y8320000D02*
D03*
X9900000D02*
D03*
X10080000Y8160000D02*
D03*
X9900000D02*
D03*
X10080000Y8480000D02*
D03*
X9900000D02*
D03*
X10080000Y8640000D02*
D03*
X9900000D02*
D03*
D125*
X7524200Y8897500D02*
D03*
X7625800D02*
D03*
X7524200Y8500000D02*
D03*
X7625800D02*
D03*
X7524200Y9060000D02*
D03*
X7625800D02*
D03*
X7536700Y9220000D02*
D03*
X7638300D02*
D03*
X6659200Y9140000D02*
D03*
X6760800D02*
D03*
X6998300D02*
D03*
X6896700D02*
D03*
X7000800Y8740000D02*
D03*
X6899200D02*
D03*
X6814200Y8660000D02*
D03*
X6915800D02*
D03*
X7083300Y8900000D02*
D03*
X6981700D02*
D03*
X7324200D02*
D03*
X7425800D02*
D03*
X7326700Y8740000D02*
D03*
X7428300D02*
D03*
X6571700Y9297500D02*
D03*
X6673300D02*
D03*
X6816700Y8980000D02*
D03*
X6918300D02*
D03*
X6504200Y9380000D02*
D03*
X6605800D02*
D03*
X6659200Y9060000D02*
D03*
X6760800D02*
D03*
X7405800Y8500000D02*
D03*
X7304200D02*
D03*
X6768300Y8582500D02*
D03*
X6666700D02*
D03*
X8466700Y9015000D02*
D03*
X8568300D02*
D03*
X8464200Y8702500D02*
D03*
X8565800D02*
D03*
X9550800Y8855000D02*
D03*
X9449200D02*
D03*
X9550800Y8535000D02*
D03*
X9449200D02*
D03*
X9550800Y8650000D02*
D03*
X9449200D02*
D03*
X8466700Y9100000D02*
D03*
X8568300D02*
D03*
X8466700Y8930000D02*
D03*
X8568300D02*
D03*
X9545800Y8967500D02*
D03*
X9444200D02*
D03*
X9405800Y9160000D02*
D03*
X9304200D02*
D03*
X8753300Y8607500D02*
D03*
X8651700D02*
D03*
X9553300Y8752500D02*
D03*
X9451700D02*
D03*
X8799200Y8685000D02*
D03*
X8900800D02*
D03*
X8560800Y8535000D02*
D03*
X8459200D02*
D03*
X7559200Y10350000D02*
D03*
X7660800D02*
D03*
X10051601Y7110000D02*
D03*
X9950000D02*
D03*
X10050801Y7230000D02*
D03*
X9949200D02*
D03*
X10050800Y7350000D02*
D03*
X9949200D02*
D03*
X6319200Y8800000D02*
D03*
X6420800D02*
D03*
X6319200Y8900000D02*
D03*
X6420800D02*
D03*
X6319200Y9030000D02*
D03*
X6420800D02*
D03*
X7068270Y7795634D02*
D03*
X7169871D02*
D03*
X9414200Y10207500D02*
D03*
X9515800D02*
D03*
X8141700Y9467500D02*
D03*
X8243300D02*
D03*
X8297800Y8699000D02*
D03*
X8196200D02*
D03*
X6319200Y9150000D02*
D03*
X6420800D02*
D03*
X6816700Y9532500D02*
D03*
X6918300D02*
D03*
X9283300Y10207500D02*
D03*
X9181700D02*
D03*
X9381700Y10292500D02*
D03*
X9483300D02*
D03*
D126*
X9210000Y11200000D02*
D03*
Y11020000D02*
D03*
X7120000Y10470000D02*
D03*
Y10650000D02*
D03*
X10980000Y11170000D02*
D03*
Y10990000D02*
D03*
X10440000Y10610000D02*
D03*
Y10430000D02*
D03*
X6470000Y11910000D02*
D03*
Y11730000D02*
D03*
Y11390000D02*
D03*
Y11570000D02*
D03*
X7100000Y11580000D02*
D03*
Y11400000D02*
D03*
X6220000Y10310000D02*
D03*
Y10490000D02*
D03*
X5850000Y10540000D02*
D03*
Y10360000D02*
D03*
X3349999Y10530000D02*
D03*
Y10710000D02*
D03*
X3010000Y11030000D02*
D03*
Y10850000D02*
D03*
X10310000Y11910000D02*
D03*
Y11730000D02*
D03*
X7250000Y13039999D02*
D03*
Y13220000D02*
D03*
X5480000Y10250000D02*
D03*
Y10070000D02*
D03*
X5890000Y10710000D02*
D03*
Y10890000D02*
D03*
X3949999Y10530000D02*
D03*
Y10710000D02*
D03*
X3250000Y9520000D02*
D03*
Y9700000D02*
D03*
X4290000Y10520001D02*
D03*
Y10340000D02*
D03*
X10660000Y10460000D02*
D03*
Y10640000D02*
D03*
X11650000Y11950000D02*
D03*
Y11770000D02*
D03*
X10840000Y12770000D02*
D03*
Y12590000D02*
D03*
X13680000Y10950000D02*
D03*
Y10770000D02*
D03*
X7740000Y12290000D02*
D03*
Y12470000D02*
D03*
X3670000Y12000000D02*
D03*
Y11820000D02*
D03*
X4120000Y12020000D02*
D03*
Y11840000D02*
D03*
X3940000Y11550000D02*
D03*
Y11370000D02*
D03*
X3510000Y11550000D02*
D03*
Y11370000D02*
D03*
X3349999Y10149000D02*
D03*
Y10329000D02*
D03*
X3952259Y11091000D02*
D03*
Y10911000D02*
D03*
X4730000Y10490000D02*
D03*
Y10670000D02*
D03*
X4605000Y12989999D02*
D03*
Y12810001D02*
D03*
Y12670000D02*
D03*
Y12490000D02*
D03*
X5330000Y12939999D02*
D03*
Y12760000D02*
D03*
Y12020000D02*
D03*
Y11840000D02*
D03*
X5780000D02*
D03*
Y12020000D02*
D03*
X5630000Y12280000D02*
D03*
Y12460000D02*
D03*
X4090000Y8910000D02*
D03*
Y9090000D02*
D03*
X4270000D02*
D03*
Y8910000D02*
D03*
X5040000Y8880000D02*
D03*
Y9060000D02*
D03*
X4860000Y8880000D02*
D03*
Y9060000D02*
D03*
X5530000Y8880000D02*
D03*
Y9060000D02*
D03*
X5940000D02*
D03*
Y8880000D02*
D03*
X5750000D02*
D03*
Y9060000D02*
D03*
X5290000D02*
D03*
Y8880000D02*
D03*
X4520000Y9050000D02*
D03*
Y9230000D02*
D03*
X4700000D02*
D03*
Y9050000D02*
D03*
X7000000Y13100000D02*
D03*
Y13280000D02*
D03*
X6880000Y11500000D02*
D03*
Y11680000D02*
D03*
X6890000Y10860000D02*
D03*
Y11040000D02*
D03*
X5820000Y8070000D02*
D03*
Y7890000D02*
D03*
X10830000Y10720000D02*
D03*
Y10540000D02*
D03*
X9610000Y11340000D02*
D03*
Y11520000D02*
D03*
X9940000Y10610000D02*
D03*
Y10790000D02*
D03*
X10120000Y11910000D02*
D03*
Y11730000D02*
D03*
X9150000Y10650000D02*
D03*
Y10470000D02*
D03*
X7667500Y7755000D02*
D03*
Y7935000D02*
D03*
X12642500Y8767500D02*
D03*
Y8947500D02*
D03*
X6027500Y8312500D02*
D03*
Y8132500D02*
D03*
X5600000Y6970000D02*
D03*
Y7150000D02*
D03*
X5430000D02*
D03*
Y6970000D02*
D03*
X5770000D02*
D03*
Y7150000D02*
D03*
D149*
X12920000Y9799300D02*
D03*
X13014999Y9520700D02*
D03*
X12825000D02*
D03*
X12917500Y8878200D02*
D03*
X12822501Y9156800D02*
D03*
X13012500D02*
D03*
D150*
X7220000Y9451700D02*
D03*
Y9553300D02*
D03*
X7470000Y8353300D02*
D03*
Y8251700D02*
D03*
X9290000Y10703300D02*
D03*
Y10601700D02*
D03*
X6910000Y9393300D02*
D03*
Y9291700D02*
D03*
X7230000Y9159200D02*
D03*
Y9260800D02*
D03*
X7390000Y9129200D02*
D03*
Y9230800D02*
D03*
X7077500Y9209200D02*
D03*
Y9310800D02*
D03*
X7085000Y8593300D02*
D03*
Y8491700D02*
D03*
X7232500Y8961700D02*
D03*
Y9063300D02*
D03*
X6990000Y8401700D02*
D03*
Y8503300D02*
D03*
X7232500Y8860800D02*
D03*
Y8759200D02*
D03*
X6710000Y9560800D02*
D03*
Y9459200D02*
D03*
X6830000Y9390800D02*
D03*
Y9289200D02*
D03*
X6827500Y8401700D02*
D03*
Y8503300D02*
D03*
X7230000Y8673300D02*
D03*
Y8571699D02*
D03*
Y8326700D02*
D03*
Y8428300D02*
D03*
X9445000Y7789200D02*
D03*
Y7890800D02*
D03*
X9352500Y8460800D02*
D03*
Y8359200D02*
D03*
X8562500Y8158300D02*
D03*
Y8056700D02*
D03*
X8585000Y7814200D02*
D03*
Y7915800D02*
D03*
X8907500Y8438300D02*
D03*
Y8336700D02*
D03*
X9112500Y8218300D02*
D03*
Y8116700D02*
D03*
X9445000Y8019200D02*
D03*
Y8120800D02*
D03*
X7830000Y10319200D02*
D03*
Y10420800D02*
D03*
X7885000Y7919200D02*
D03*
Y8020800D02*
D03*
X6860000Y7989200D02*
D03*
Y8090800D02*
D03*
X6750000Y7989200D02*
D03*
Y8090800D02*
D03*
X7720000Y8139200D02*
D03*
Y8240800D02*
D03*
X7550000Y7920800D02*
D03*
Y7819200D02*
D03*
X7732500Y9789200D02*
D03*
Y9890800D02*
D03*
X8042500D02*
D03*
Y9789200D02*
D03*
X7838133Y9891730D02*
D03*
Y9790129D02*
D03*
X7942500Y9789200D02*
D03*
Y9890800D02*
D03*
X9290000Y10369200D02*
D03*
Y10470800D02*
D03*
X7080000Y9630800D02*
D03*
Y9529200D02*
D03*
D151*
X9323500Y13124500D02*
D03*
X8376500D02*
D03*
X9323500Y12362500D02*
D03*
X8376500D02*
D03*
D152*
X9323500Y12870500D02*
D03*
Y12616500D02*
D03*
X8376500Y12870500D02*
D03*
Y12616500D02*
D03*
D153*
X12070000Y10902500D02*
D03*
D154*
X12300000Y11517500D02*
D03*
X12070000D02*
D03*
X11840000D02*
D03*
D155*
X11010000Y12174300D02*
D03*
Y11945700D02*
D03*
D156*
X7990000Y10610000D02*
D03*
X7550000D02*
D03*
X7990000Y10850000D02*
D03*
X7550000D02*
D03*
D157*
X9940000Y7720000D02*
D03*
Y7500000D02*
D03*
D158*
X6761270Y9761688D02*
D03*
Y9939488D02*
D03*
%TF.MD5,9ac2809699173239004fb962268317c5*%
M02*
