G04 Layer_Color=8421504*
%FSLAX45Y45*%
%MOMM*%
%TF.FileFunction,Paste,Top*%
%TF.Part,Single*%
G01*
G75*
%TA.AperFunction,SMDPad,CuDef*%
%ADD21R,1.50000X0.60000*%
%ADD22R,1.70000X0.70000*%
%ADD23R,2.00000X0.70000*%
%ADD26R,1.50000X0.70000*%
%ADD31R,0.60000X1.50000*%
%ADD38R,3.20000X0.80000*%
%ADD39R,0.80000X3.20000*%
%ADD42R,1.20000X1.20000*%
%ADD117R,1.30000X0.50000*%
%ADD118R,1.80000X0.40000*%
%ADD119R,1.24300X1.37000*%
%ADD120R,0.90000X1.30000*%
%ADD121R,1.10000X1.10000*%
%ADD122R,1.10000X1.10000*%
%ADD123R,0.90000X1.10000*%
%TA.AperFunction,BGAPad,CuDef*%
%ADD124C,0.50000*%
%TA.AperFunction,SMDPad,CuDef*%
%ADD125R,0.65000X0.55000*%
%ADD126R,1.10000X0.90000*%
%ADD127R,1.80000X0.50000*%
%ADD128R,0.90000X2.60000*%
%ADD129R,0.95000X0.29000*%
%ADD130R,0.29000X0.95000*%
%ADD131R,1.50000X0.80000*%
%ADD132R,1.55000X2.10000*%
%ADD133R,0.90000X1.60000*%
%ADD134R,0.40000X1.60000*%
%ADD135R,2.60000X3.30000*%
%ADD136R,1.60000X5.10000*%
%ADD137R,5.10000X1.60000*%
%ADD138R,3.30000X0.90000*%
%ADD139R,0.90000X3.30000*%
%ADD140R,1.70000X0.45000*%
%ADD141R,2.10000X1.10000*%
%ADD142R,1.10000X2.10000*%
%ADD143R,0.80000X1.70000*%
G36*
X10747499Y10942500D02*
X10667500D01*
Y10957500D01*
X10747499D01*
Y10942500D01*
D02*
G37*
G36*
X10152499Y10982500D02*
X10072500D01*
Y10997500D01*
X10152499D01*
Y10982500D01*
D02*
G37*
G36*
X10747499D02*
X10667500D01*
Y10997500D01*
X10747499D01*
Y10982500D01*
D02*
G37*
G36*
X10152499Y10902500D02*
X10072500D01*
Y10917500D01*
X10152499D01*
Y10902500D01*
D02*
G37*
G36*
X10747499D02*
X10667500D01*
Y10917500D01*
X10747499D01*
Y10902500D01*
D02*
G37*
G36*
X10152499Y10942500D02*
X10072500D01*
Y10957500D01*
X10152499D01*
Y10942500D01*
D02*
G37*
G36*
X10747499Y11062500D02*
X10667500D01*
Y11077500D01*
X10747499D01*
Y11062500D01*
D02*
G37*
G36*
X10152499Y11102500D02*
X10072500D01*
Y11117500D01*
X10152499D01*
Y11102500D01*
D02*
G37*
G36*
X10747499D02*
X10667500D01*
Y11117500D01*
X10747499D01*
Y11102500D01*
D02*
G37*
G36*
X10152499Y11022500D02*
X10072500D01*
Y11037500D01*
X10152499D01*
Y11022500D01*
D02*
G37*
G36*
X10747499D02*
X10667500D01*
Y11037500D01*
X10747499D01*
Y11022500D01*
D02*
G37*
G36*
X10152499Y11062500D02*
X10072500D01*
Y11077500D01*
X10152499D01*
Y11062500D01*
D02*
G37*
G36*
X10317500Y10792500D02*
X10302500D01*
Y10872500D01*
X10317500D01*
Y10792500D01*
D02*
G37*
G36*
X10357499D02*
X10342500D01*
Y10872500D01*
X10357499D01*
Y10792500D01*
D02*
G37*
G36*
X10397499D02*
X10382499D01*
Y10872500D01*
X10397499D01*
Y10792500D01*
D02*
G37*
G36*
X10197500D02*
X10182500D01*
Y10872500D01*
X10197500D01*
Y10792500D01*
D02*
G37*
G36*
X10237499D02*
X10222499D01*
Y10872500D01*
X10237499D01*
Y10792500D01*
D02*
G37*
G36*
X10277499D02*
X10262499D01*
Y10872500D01*
X10277499D01*
Y10792500D01*
D02*
G37*
G36*
X10557500D02*
X10542499D01*
Y10872500D01*
X10557500D01*
Y10792500D01*
D02*
G37*
G36*
X10597500D02*
X10582500D01*
Y10872500D01*
X10597500D01*
Y10792500D01*
D02*
G37*
G36*
X10637499D02*
X10622499D01*
Y10872500D01*
X10637499D01*
Y10792500D01*
D02*
G37*
G36*
X10437500D02*
X10422500D01*
Y10872500D01*
X10437500D01*
Y10792500D01*
D02*
G37*
G36*
X10477499D02*
X10462500D01*
Y10872500D01*
X10477499D01*
Y10792500D01*
D02*
G37*
G36*
X10517499D02*
X10502499D01*
Y10872500D01*
X10517499D01*
Y10792500D01*
D02*
G37*
G36*
X10317500Y11387500D02*
X10302500D01*
Y11467500D01*
X10317500D01*
Y11387500D01*
D02*
G37*
G36*
X10357499D02*
X10342500D01*
Y11467500D01*
X10357499D01*
Y11387500D01*
D02*
G37*
G36*
X10397499D02*
X10382499D01*
Y11467500D01*
X10397499D01*
Y11387500D01*
D02*
G37*
G36*
X10197500D02*
X10182500D01*
Y11467500D01*
X10197500D01*
Y11387500D01*
D02*
G37*
G36*
X10237499D02*
X10222499D01*
Y11467500D01*
X10237499D01*
Y11387500D01*
D02*
G37*
G36*
X10277500D02*
X10262499D01*
Y11467500D01*
X10277500D01*
Y11387500D01*
D02*
G37*
G36*
X10557500D02*
X10542500D01*
Y11467500D01*
X10557500D01*
Y11387500D01*
D02*
G37*
G36*
X10597500D02*
X10582500D01*
Y11467500D01*
X10597500D01*
Y11387500D01*
D02*
G37*
G36*
X10637499D02*
X10622499D01*
Y11467500D01*
X10637499D01*
Y11387500D01*
D02*
G37*
G36*
X10437500D02*
X10422500D01*
Y11467500D01*
X10437500D01*
Y11387500D01*
D02*
G37*
G36*
X10477499D02*
X10462500D01*
Y11467500D01*
X10477499D01*
Y11387500D01*
D02*
G37*
G36*
X10517499D02*
X10502499D01*
Y11467500D01*
X10517499D01*
Y11387500D01*
D02*
G37*
G36*
X10747499Y11182500D02*
X10667500D01*
Y11197500D01*
X10747499D01*
Y11182500D01*
D02*
G37*
G36*
X10152499Y11222500D02*
X10072500D01*
Y11237500D01*
X10152499D01*
Y11222500D01*
D02*
G37*
G36*
X10747499D02*
X10667500D01*
Y11237500D01*
X10747499D01*
Y11222500D01*
D02*
G37*
G36*
X10152499Y11142500D02*
X10072500D01*
Y11157500D01*
X10152499D01*
Y11142500D01*
D02*
G37*
G36*
X10747499D02*
X10667500D01*
Y11157500D01*
X10747499D01*
Y11142500D01*
D02*
G37*
G36*
X10152499Y11182500D02*
X10072500D01*
Y11197500D01*
X10152499D01*
Y11182500D01*
D02*
G37*
G36*
X10747499Y11302500D02*
X10667500D01*
Y11317500D01*
X10747499D01*
Y11302500D01*
D02*
G37*
G36*
X10152499Y11342500D02*
X10072500D01*
Y11357500D01*
X10152499D01*
Y11342500D01*
D02*
G37*
G36*
X10747499D02*
X10667500D01*
Y11357500D01*
X10747499D01*
Y11342500D01*
D02*
G37*
G36*
Y11262500D02*
X10667500D01*
Y11277500D01*
X10747499D01*
Y11262500D01*
D02*
G37*
G36*
X10152499Y11262500D02*
X10072500D01*
Y11277500D01*
X10152499D01*
Y11262500D01*
D02*
G37*
G36*
Y11302500D02*
X10072500D01*
Y11317500D01*
X10152499D01*
Y11302500D01*
D02*
G37*
D21*
X12999921Y12630000D02*
D03*
X13240080D02*
D03*
D22*
X6492260Y10840999D02*
D03*
Y10713999D02*
D03*
Y10586999D02*
D03*
Y10459999D02*
D03*
Y10332999D02*
D03*
Y10205999D02*
D03*
Y10078999D02*
D03*
X5887740D02*
D03*
Y10205999D02*
D03*
Y10332999D02*
D03*
Y10459999D02*
D03*
Y10586999D02*
D03*
Y10713999D02*
D03*
Y10840999D02*
D03*
X3952259Y11001000D02*
D03*
Y10874000D02*
D03*
Y10747000D02*
D03*
Y10620000D02*
D03*
Y10493000D02*
D03*
Y10366000D02*
D03*
Y10239000D02*
D03*
X3347739D02*
D03*
Y10366000D02*
D03*
Y10493000D02*
D03*
Y10620000D02*
D03*
Y10747000D02*
D03*
Y10874000D02*
D03*
Y11001000D02*
D03*
X5257740Y9351000D02*
D03*
Y9224000D02*
D03*
Y9097000D02*
D03*
Y8970000D02*
D03*
Y8843000D02*
D03*
Y8716000D02*
D03*
Y8589000D02*
D03*
X5862260D02*
D03*
Y8716000D02*
D03*
Y8843000D02*
D03*
Y8970000D02*
D03*
Y9097000D02*
D03*
Y9224000D02*
D03*
Y9351000D02*
D03*
D23*
X6500600Y11423000D02*
D03*
Y11550000D02*
D03*
Y11677000D02*
D03*
Y11804000D02*
D03*
X7059400D02*
D03*
Y11677000D02*
D03*
Y11550000D02*
D03*
Y11423000D02*
D03*
D26*
X11285570Y11680000D02*
D03*
X11054430Y11584750D02*
D03*
Y11775250D02*
D03*
D31*
X13560001Y12990080D02*
D03*
Y12749920D02*
D03*
X12320000Y13430080D02*
D03*
Y13189920D02*
D03*
Y12850079D02*
D03*
Y12609920D02*
D03*
D38*
X3592900Y7545000D02*
D03*
Y7291000D02*
D03*
X2907100Y7545000D02*
D03*
Y7291000D02*
D03*
X3592900Y8307000D02*
D03*
Y8053000D02*
D03*
Y7799000D02*
D03*
X2907100Y8307000D02*
D03*
Y8053000D02*
D03*
Y8815000D02*
D03*
Y9069000D02*
D03*
X3592900Y8561000D02*
D03*
Y8815000D02*
D03*
Y9069000D02*
D03*
X13590199Y7517000D02*
D03*
Y7263000D02*
D03*
X12917101D02*
D03*
Y7517000D02*
D03*
X13592900Y8524000D02*
D03*
Y8270000D02*
D03*
Y8016000D02*
D03*
X12907100Y8524000D02*
D03*
Y8270000D02*
D03*
D39*
X4340000Y7037100D02*
D03*
X4086000D02*
D03*
X4594000Y7722900D02*
D03*
X4340000D02*
D03*
X4086000D02*
D03*
X13363000Y9057100D02*
D03*
X13617000D02*
D03*
Y9730200D02*
D03*
X13363000D02*
D03*
D42*
X9022500Y11512500D02*
D03*
X9222500D02*
D03*
D117*
X9656520Y10405000D02*
D03*
Y10470000D02*
D03*
Y10535000D02*
D03*
X9423480D02*
D03*
Y10405000D02*
D03*
D118*
X8970000Y10010000D02*
D03*
Y10060000D02*
D03*
Y10110000D02*
D03*
Y10160000D02*
D03*
Y10210000D02*
D03*
Y10260000D02*
D03*
Y10310000D02*
D03*
Y10360000D02*
D03*
Y10410000D02*
D03*
Y10460000D02*
D03*
Y10510000D02*
D03*
Y10560000D02*
D03*
Y10610000D02*
D03*
Y10660000D02*
D03*
Y10710000D02*
D03*
Y10760000D02*
D03*
Y10810000D02*
D03*
Y10860000D02*
D03*
Y10910000D02*
D03*
Y10960000D02*
D03*
Y11010000D02*
D03*
Y11060000D02*
D03*
Y11110000D02*
D03*
Y11160000D02*
D03*
X6940000Y10010000D02*
D03*
Y10060000D02*
D03*
Y10110000D02*
D03*
Y10160000D02*
D03*
Y10210000D02*
D03*
Y10260000D02*
D03*
Y10310000D02*
D03*
Y10360000D02*
D03*
Y10410000D02*
D03*
Y10460000D02*
D03*
Y10510000D02*
D03*
Y10560000D02*
D03*
Y10610000D02*
D03*
Y10660000D02*
D03*
Y10710000D02*
D03*
Y10760000D02*
D03*
Y10810000D02*
D03*
Y10860000D02*
D03*
Y10910000D02*
D03*
Y10960000D02*
D03*
Y11010000D02*
D03*
Y11060000D02*
D03*
Y11110000D02*
D03*
Y11160000D02*
D03*
D119*
X9601688Y7471270D02*
D03*
X9779488D02*
D03*
X9826688Y10281270D02*
D03*
X10004488D02*
D03*
D120*
X9540000Y7101270D02*
D03*
X9760000D02*
D03*
X7210000Y7960000D02*
D03*
X7430000D02*
D03*
D121*
X9493000Y8405000D02*
D03*
X9673000D02*
D03*
X4680000Y9840000D02*
D03*
X4500000D02*
D03*
X5510000Y9920000D02*
D03*
X5330000D02*
D03*
X4890000Y10170000D02*
D03*
X4710000D02*
D03*
X10160000Y11810000D02*
D03*
X9980000D02*
D03*
X5030000Y8540000D02*
D03*
X4850000D02*
D03*
X4680000Y9620000D02*
D03*
X4500000D02*
D03*
X5950000Y9860000D02*
D03*
X5770000D02*
D03*
X5950000Y9680000D02*
D03*
X5770000D02*
D03*
X4660000Y8090000D02*
D03*
X4480000D02*
D03*
X9407500Y11505000D02*
D03*
X9587500D02*
D03*
X9491000Y8215000D02*
D03*
X9671000D02*
D03*
X6520000Y9787500D02*
D03*
X6340000D02*
D03*
D122*
X8322500Y7327500D02*
D03*
Y7507500D02*
D03*
X4290000Y10340000D02*
D03*
Y10520001D02*
D03*
X3010000Y11030000D02*
D03*
Y10850000D02*
D03*
X4290000Y11030000D02*
D03*
Y10850000D02*
D03*
X3045000Y10375000D02*
D03*
Y10555000D02*
D03*
X5620000Y10670000D02*
D03*
Y10850000D02*
D03*
X6180000Y9030000D02*
D03*
Y8850000D02*
D03*
D123*
X4500000Y10010000D02*
D03*
X4680000D02*
D03*
X5330000Y9750000D02*
D03*
X5510000D02*
D03*
X9950000Y10550000D02*
D03*
X10130000D02*
D03*
X12110000Y11830000D02*
D03*
X11930000D02*
D03*
X4480000Y8240000D02*
D03*
X4660000D02*
D03*
X4100000Y8090000D02*
D03*
X4280000D02*
D03*
X10690000Y11690000D02*
D03*
X10510000D02*
D03*
X10640000Y10530000D02*
D03*
X10820000D02*
D03*
D124*
X9247982Y8415520D02*
D03*
X9327982Y7855520D02*
D03*
Y7935520D02*
D03*
Y8015520D02*
D03*
Y8095520D02*
D03*
Y8175520D02*
D03*
Y8255520D02*
D03*
Y8335520D02*
D03*
Y8415520D02*
D03*
Y8495520D02*
D03*
Y8575521D02*
D03*
Y8655521D02*
D03*
Y8735521D02*
D03*
Y8815521D02*
D03*
Y8895521D02*
D03*
Y8975521D02*
D03*
Y9055521D02*
D03*
X9247982Y7855520D02*
D03*
Y7935520D02*
D03*
Y8015520D02*
D03*
Y8095520D02*
D03*
Y8175520D02*
D03*
Y8255520D02*
D03*
Y8335520D02*
D03*
Y8495520D02*
D03*
Y8575521D02*
D03*
Y8655521D02*
D03*
Y8735521D02*
D03*
Y8815521D02*
D03*
Y8895521D02*
D03*
Y8975521D02*
D03*
Y9055521D02*
D03*
X9167982Y7855520D02*
D03*
Y7935520D02*
D03*
Y8015520D02*
D03*
Y8095520D02*
D03*
Y8175520D02*
D03*
Y8255520D02*
D03*
Y8495520D02*
D03*
Y8575521D02*
D03*
Y8655521D02*
D03*
Y8735521D02*
D03*
Y8815521D02*
D03*
Y8895521D02*
D03*
Y8975521D02*
D03*
Y9055521D02*
D03*
X8847981Y7855520D02*
D03*
Y7935520D02*
D03*
Y8015520D02*
D03*
Y8095520D02*
D03*
Y8175520D02*
D03*
Y8255520D02*
D03*
Y8335520D02*
D03*
Y8415520D02*
D03*
Y8495520D02*
D03*
Y8735521D02*
D03*
Y8815521D02*
D03*
Y8895521D02*
D03*
Y8975521D02*
D03*
Y9055521D02*
D03*
X8767981Y7855520D02*
D03*
Y7935520D02*
D03*
Y8015520D02*
D03*
Y8095520D02*
D03*
Y8175520D02*
D03*
Y8255520D02*
D03*
Y8335520D02*
D03*
Y8415520D02*
D03*
Y8495520D02*
D03*
Y8575521D02*
D03*
Y8655521D02*
D03*
Y8735521D02*
D03*
Y8815521D02*
D03*
Y8895521D02*
D03*
Y8975521D02*
D03*
Y9055521D02*
D03*
X8687981Y7855520D02*
D03*
Y7935520D02*
D03*
Y8015520D02*
D03*
Y8095520D02*
D03*
Y8175520D02*
D03*
Y8255520D02*
D03*
Y8335520D02*
D03*
Y8415520D02*
D03*
Y8495520D02*
D03*
Y8575521D02*
D03*
Y8655521D02*
D03*
Y8735521D02*
D03*
Y8815521D02*
D03*
Y8895521D02*
D03*
Y8975521D02*
D03*
Y9055521D02*
D03*
X8847981Y8655521D02*
D03*
Y8575521D02*
D03*
X9167982Y8415520D02*
D03*
Y8335520D02*
D03*
D125*
X7068270Y7804348D02*
D03*
X7169870D02*
D03*
X7068399Y7690000D02*
D03*
X7170000D02*
D03*
X7670800Y7642500D02*
D03*
X7569200D02*
D03*
X8016700Y7482500D02*
D03*
X8118300D02*
D03*
X9381700Y10292500D02*
D03*
X9483300D02*
D03*
D126*
X6960000Y7110000D02*
D03*
Y6930000D02*
D03*
X6770000Y7110000D02*
D03*
Y6930000D02*
D03*
X6580000Y7110000D02*
D03*
Y6930000D02*
D03*
X9820000Y10760000D02*
D03*
Y10940000D02*
D03*
X10330000Y11850000D02*
D03*
Y11670000D02*
D03*
X12920000Y11250000D02*
D03*
Y11070000D02*
D03*
X4860000Y9060000D02*
D03*
Y8880000D02*
D03*
X5040000Y9060000D02*
D03*
Y8880000D02*
D03*
X6180000Y8410000D02*
D03*
Y8590000D02*
D03*
Y9410000D02*
D03*
Y9230000D02*
D03*
X10980000Y11080000D02*
D03*
Y11260000D02*
D03*
X10439999Y10610000D02*
D03*
Y10430000D02*
D03*
X7580000Y7240000D02*
D03*
Y7060000D02*
D03*
D127*
X5352420Y10495000D02*
D03*
Y10560000D02*
D03*
Y10625000D02*
D03*
Y10690000D02*
D03*
Y10755000D02*
D03*
Y10820000D02*
D03*
Y10885000D02*
D03*
X4727580Y10885000D02*
D03*
Y10820000D02*
D03*
Y10755000D02*
D03*
Y10690000D02*
D03*
Y10625000D02*
D03*
Y10560000D02*
D03*
Y10495000D02*
D03*
X3522420Y9485000D02*
D03*
Y9550000D02*
D03*
Y9615000D02*
D03*
Y9680000D02*
D03*
Y9745000D02*
D03*
Y9810000D02*
D03*
Y9875000D02*
D03*
X2897580Y9875000D02*
D03*
Y9810000D02*
D03*
Y9745000D02*
D03*
Y9680000D02*
D03*
Y9615000D02*
D03*
Y9550000D02*
D03*
Y9485000D02*
D03*
D128*
X9946000Y9350000D02*
D03*
X11978000D02*
D03*
X12105000D02*
D03*
X11851000D02*
D03*
X11724000D02*
D03*
X11597000D02*
D03*
X11470000D02*
D03*
X11343000D02*
D03*
X11216000D02*
D03*
X11089000D02*
D03*
X10962000D02*
D03*
X10835000D02*
D03*
X10708000D02*
D03*
X10581000D02*
D03*
X10454000D02*
D03*
X10327000D02*
D03*
X10200000D02*
D03*
X10073000D02*
D03*
X9946000Y9890000D02*
D03*
X10073000D02*
D03*
X10200000D02*
D03*
X10327000D02*
D03*
X10454000D02*
D03*
X10581000D02*
D03*
X10708000D02*
D03*
X10835000D02*
D03*
X10962000D02*
D03*
X11089000D02*
D03*
X11216000D02*
D03*
X11343000D02*
D03*
X11470000D02*
D03*
X11597000D02*
D03*
X11724000D02*
D03*
X11978000D02*
D03*
X12105000D02*
D03*
X11851000D02*
D03*
X12232000Y9350000D02*
D03*
Y9890000D02*
D03*
X12359000D02*
D03*
Y9350000D02*
D03*
D129*
X10112499Y11350000D02*
D03*
Y11310000D02*
D03*
Y11270000D02*
D03*
Y11230000D02*
D03*
Y11190000D02*
D03*
Y11150000D02*
D03*
Y11110000D02*
D03*
Y11070000D02*
D03*
Y11030000D02*
D03*
Y10990000D02*
D03*
Y10950000D02*
D03*
Y10910000D02*
D03*
X10707500D02*
D03*
Y10950000D02*
D03*
Y10990000D02*
D03*
Y11030000D02*
D03*
Y11070000D02*
D03*
Y11110000D02*
D03*
Y11150000D02*
D03*
Y11190000D02*
D03*
Y11230000D02*
D03*
Y11270000D02*
D03*
Y11310000D02*
D03*
Y11350000D02*
D03*
D130*
X10189999Y10832500D02*
D03*
X10230000D02*
D03*
X10270000D02*
D03*
X10309999D02*
D03*
X10350000D02*
D03*
X10390000D02*
D03*
X10429999D02*
D03*
X10469999D02*
D03*
X10510000D02*
D03*
X10549999D02*
D03*
X10589999D02*
D03*
X10630000D02*
D03*
Y11427500D02*
D03*
X10589999D02*
D03*
X10549999D02*
D03*
X10510000D02*
D03*
X10469999D02*
D03*
X10429999D02*
D03*
X10390000D02*
D03*
X10350000D02*
D03*
X10309999D02*
D03*
X10270000D02*
D03*
X10230000D02*
D03*
X10189999D02*
D03*
D131*
X13332300Y11275000D02*
D03*
Y11180000D02*
D03*
Y11085000D02*
D03*
X13667700D02*
D03*
Y11275000D02*
D03*
D132*
X6287500Y7020000D02*
D03*
X4912500D02*
D03*
Y7850000D02*
D03*
X6287500D02*
D03*
D133*
X5920000Y7280000D02*
D03*
X5150000D02*
D03*
X5810000D02*
D03*
X5480000D02*
D03*
X5590000D02*
D03*
X5370000D02*
D03*
X5260000D02*
D03*
X5700000D02*
D03*
D134*
X10190000Y9030000D02*
D03*
X10240000D02*
D03*
X10290000D02*
D03*
X10340000D02*
D03*
X10390000D02*
D03*
X10440000D02*
D03*
X10490000D02*
D03*
X10540000D02*
D03*
X10590000D02*
D03*
X10640000D02*
D03*
X10690000D02*
D03*
X10740000D02*
D03*
X10790000D02*
D03*
X10840000D02*
D03*
X10890000D02*
D03*
X10940000D02*
D03*
X10990000D02*
D03*
X11040000D02*
D03*
X11090000D02*
D03*
X11140000D02*
D03*
X11190000D02*
D03*
X11240000D02*
D03*
X11290000D02*
D03*
X11340000D02*
D03*
X11390000D02*
D03*
X11440000D02*
D03*
X11490000D02*
D03*
X11540000D02*
D03*
X11590000D02*
D03*
X11640000D02*
D03*
X11690000D02*
D03*
X11740000D02*
D03*
X11790000D02*
D03*
X11840000D02*
D03*
X11890000D02*
D03*
X11940000D02*
D03*
X11990000D02*
D03*
X12040000D02*
D03*
X12090000D02*
D03*
X12140000D02*
D03*
D135*
X9948700Y8877600D02*
D03*
X12381300D02*
D03*
D136*
X10490000Y13260600D02*
D03*
Y12270000D02*
D03*
D137*
X13505299Y11990000D02*
D03*
X12514700D02*
D03*
X13505299Y10440000D02*
D03*
X12514700D02*
D03*
X11564700Y11230000D02*
D03*
X12555300D02*
D03*
D138*
X2907100Y7799000D02*
D03*
Y8561000D02*
D03*
X12907100Y8016000D02*
D03*
D139*
X4594000Y7037100D02*
D03*
D140*
X4090000Y8902500D02*
D03*
Y8772500D02*
D03*
Y8642499D02*
D03*
Y8577499D02*
D03*
Y8707499D02*
D03*
Y8837500D02*
D03*
Y9422501D02*
D03*
Y9292501D02*
D03*
Y9162500D02*
D03*
Y9032500D02*
D03*
Y8967500D02*
D03*
Y9097500D02*
D03*
Y9227500D02*
D03*
Y9357501D02*
D03*
X4650000Y8577499D02*
D03*
Y8642499D02*
D03*
Y8967500D02*
D03*
Y9097500D02*
D03*
Y9162500D02*
D03*
Y9032500D02*
D03*
Y8772500D02*
D03*
Y8902500D02*
D03*
Y8837500D02*
D03*
Y8707499D02*
D03*
Y9292501D02*
D03*
Y9422501D02*
D03*
Y9357501D02*
D03*
Y9227500D02*
D03*
D141*
X11754000Y10290000D02*
D03*
Y10450000D02*
D03*
X11246000Y10290000D02*
D03*
Y10450000D02*
D03*
D142*
X7330000Y7484000D02*
D03*
X7170000D02*
D03*
X7330000Y6976000D02*
D03*
X7170000D02*
D03*
D143*
X8495000Y7215000D02*
D03*
X7945000D02*
D03*
X8495000Y6985000D02*
D03*
X7945000D02*
D03*
%TF.MD5,24d05c30978ea961e59947f7fb8daae6*%
M02*
