G04 Layer_Color=32896*
%FSLAX45Y45*%
%MOMM*%
%TF.FileFunction,Legend,Bot*%
%TF.Part,Single*%
G01*
G75*
%TA.AperFunction,NonConductor*%
%ADD79C,0.50000*%
%ADD96C,0.25000*%
%ADD144C,0.20000*%
%ADD145C,0.25400*%
%ADD146C,0.10000*%
%ADD147C,0.15000*%
%ADD148C,0.15240*%
D79*
X8622500Y12170000D02*
G03*
X8622500Y12170000I-12500J0D01*
G01*
X7540000Y11010000D02*
G03*
X7540000Y11010000I-10000J0D01*
G01*
D96*
X13120000Y9540000D02*
G03*
X13120000Y9540000I-10000J0D01*
G01*
X12737500Y9137500D02*
G03*
X12737500Y9137500I-10000J0D01*
G01*
X11737500Y11495000D02*
G03*
X11737500Y11495000I-10000J0D01*
G01*
X7302500Y12540000D02*
G03*
X7302500Y12540000I-10000J0D01*
G01*
X8558480Y11932500D02*
G03*
X8558480Y11932500I-10000J0D01*
G01*
D144*
X13092500Y9630000D02*
Y9750000D01*
X13013800D02*
X13089999D01*
X12750000D02*
X12826199D01*
X12747500Y9630000D02*
Y9750000D01*
X12745000Y8927500D02*
Y9047500D01*
X12747500Y8927500D02*
X12823700D01*
X13011301D02*
X13087500D01*
X13089999D02*
Y9047500D01*
X8520000Y13255000D02*
X9180000D01*
X8525000Y12245000D02*
X9180000D01*
X11715000Y11002500D02*
Y11407500D01*
X12425000Y11002500D02*
Y11407500D01*
X12270000Y11002500D02*
X12425000D01*
X11715000D02*
X11870000D01*
X8110000Y10510000D02*
Y10950000D01*
X7990500D02*
X8110000D01*
X7990500Y10510000D02*
X8110000D01*
X7430000Y10950000D02*
X7547000D01*
X7430000Y10510000D02*
X7547000D01*
X7430000D02*
Y10950000D01*
X9890000Y7655000D02*
X9990000Y7565000D01*
X13122527Y9807494D02*
Y9887468D01*
X13142519Y9907461D01*
X13182506D01*
X13202499Y9887468D01*
Y9807494D01*
X13182506Y9787500D01*
X13142519D01*
X13162514Y9827487D02*
X13122527Y9787500D01*
X13142519D02*
X13122527Y9807494D01*
X13022559Y9787500D02*
Y9907461D01*
X13082539Y9847481D01*
X13002565D01*
X12742494Y8777474D02*
X12822469D01*
X12842461Y8757481D01*
Y8717494D01*
X12822469Y8697500D01*
X12742494D01*
X12722500Y8717494D01*
Y8757481D01*
X12762487Y8737487D02*
X12722500Y8777474D01*
Y8757481D02*
X12742494Y8777474D01*
X12822469Y8817461D02*
X12842461Y8837455D01*
Y8877442D01*
X12822469Y8897435D01*
X12802473D01*
X12782481Y8877442D01*
Y8857448D01*
Y8877442D01*
X12762487Y8897435D01*
X12742494D01*
X12722500Y8877442D01*
Y8837455D01*
X12742494Y8817461D01*
X9010000Y13439961D02*
Y13339993D01*
X8990006Y13320000D01*
X8950019D01*
X8930026Y13339993D01*
Y13439961D01*
X8890039Y13320000D02*
X8850052D01*
X8870045D01*
Y13439961D01*
X8890039Y13419968D01*
X8790071Y13320000D02*
X8750084D01*
X8770077D01*
Y13439961D01*
X8790071Y13419968D01*
X8410000Y11030000D02*
Y11149961D01*
X8350019D01*
X8330026Y11129968D01*
Y11089981D01*
X8350019Y11069987D01*
X8410000D01*
X8370013D02*
X8330026Y11030000D01*
X8290039D02*
X8250052D01*
X8270045D01*
Y11149961D01*
X8290039Y11129968D01*
X8190071D02*
X8170077Y11149961D01*
X8130090D01*
X8110097Y11129968D01*
Y11109974D01*
X8130090Y11089981D01*
X8150084D01*
X8130090D01*
X8110097Y11069987D01*
Y11049994D01*
X8130090Y11030000D01*
X8170077D01*
X8190071Y11049994D01*
X8070110D02*
X8050116Y11030000D01*
X8010129D01*
X7990136Y11049994D01*
Y11129968D01*
X8010129Y11149961D01*
X8050116D01*
X8070110Y11129968D01*
Y11109974D01*
X8050116Y11089981D01*
X7990136D01*
X8800000Y10710000D02*
Y10829961D01*
X8740019D01*
X8720026Y10809968D01*
Y10769980D01*
X8740019Y10749987D01*
X8800000D01*
X8760013D02*
X8720026Y10710000D01*
X8680039D02*
X8640052D01*
X8660045D01*
Y10829961D01*
X8680039Y10809968D01*
X8580071D02*
X8560077Y10829961D01*
X8520090D01*
X8500097Y10809968D01*
Y10789974D01*
X8520090Y10769980D01*
X8540084D01*
X8520090D01*
X8500097Y10749987D01*
Y10729994D01*
X8520090Y10710000D01*
X8560077D01*
X8580071Y10729994D01*
X8460110Y10809968D02*
X8440116Y10829961D01*
X8400129D01*
X8380136Y10809968D01*
Y10789974D01*
X8400129Y10769980D01*
X8380136Y10749987D01*
Y10729994D01*
X8400129Y10710000D01*
X8440116D01*
X8460110Y10729994D01*
Y10749987D01*
X8440116Y10769980D01*
X8460110Y10789974D01*
Y10809968D01*
X8440116Y10769980D02*
X8400129D01*
X9342500Y10610000D02*
X9462461D01*
Y10669981D01*
X9442468Y10689974D01*
X9402481D01*
X9382487Y10669981D01*
Y10610000D01*
Y10649987D02*
X9342500Y10689974D01*
Y10729961D02*
Y10769948D01*
Y10749955D01*
X9462461D01*
X9442468Y10729961D01*
Y10829929D02*
X9462461Y10849923D01*
Y10889910D01*
X9442468Y10909903D01*
X9362494D01*
X9342500Y10889910D01*
Y10849923D01*
X9362494Y10829929D01*
X9442468D01*
X9010032Y11180026D02*
X8990039Y11200020D01*
Y11240006D01*
X9010032Y11260000D01*
X9090006D01*
X9110000Y11240006D01*
Y11200020D01*
X9090006Y11180026D01*
X9010032Y11140039D02*
X8990039Y11120045D01*
Y11080058D01*
X9010032Y11060065D01*
X9030026D01*
X9050019Y11080058D01*
Y11100052D01*
Y11080058D01*
X9070013Y11060065D01*
X9090006D01*
X9110000Y11080058D01*
Y11120045D01*
X9090006Y11140039D01*
Y11020078D02*
X9110000Y11000084D01*
Y10960097D01*
X9090006Y10940104D01*
X9010032D01*
X8990039Y10960097D01*
Y11000084D01*
X9010032Y11020078D01*
X9030026D01*
X9050019Y11000084D01*
Y10940104D01*
X9040000Y7727500D02*
X8920039D01*
Y7667519D01*
X8940032Y7647526D01*
X8980019D01*
X9000013Y7667519D01*
Y7727500D01*
Y7687513D02*
X9040000Y7647526D01*
Y7607539D02*
Y7567552D01*
Y7587545D01*
X8920039D01*
X8940032Y7607539D01*
X9040000Y7427597D02*
Y7507571D01*
X8960026Y7427597D01*
X8940032D01*
X8920039Y7447590D01*
Y7487577D01*
X8940032Y7507571D01*
X8212500Y9212500D02*
X8092539D01*
Y9152519D01*
X8112532Y9132526D01*
X8152519D01*
X8172513Y9152519D01*
Y9212500D01*
Y9172513D02*
X8212500Y9132526D01*
Y9092539D02*
Y9052552D01*
Y9072545D01*
X8092539D01*
X8112532Y9092539D01*
X8212500Y8932590D02*
X8092539D01*
X8152519Y8992571D01*
Y8912597D01*
X8957500Y10415000D02*
Y10534961D01*
X8897519D01*
X8877526Y10514968D01*
Y10474981D01*
X8897519Y10454987D01*
X8957500D01*
X8917513D02*
X8877526Y10415000D01*
X8837539Y10434994D02*
X8817545Y10415000D01*
X8777558D01*
X8757565Y10434994D01*
Y10514968D01*
X8777558Y10534961D01*
X8817545D01*
X8837539Y10514968D01*
Y10494974D01*
X8817545Y10474981D01*
X8757565D01*
X8960000Y9975000D02*
Y10094961D01*
X8900020D01*
X8880026Y10074968D01*
Y10034981D01*
X8900020Y10014987D01*
X8960000D01*
X8920013D02*
X8880026Y9975000D01*
X8840039Y10094961D02*
X8760065D01*
Y10074968D01*
X8840039Y9994994D01*
Y9975000D01*
X8957500Y10127500D02*
Y10247461D01*
X8897519D01*
X8877526Y10227468D01*
Y10187481D01*
X8897519Y10167487D01*
X8957500D01*
X8917513D02*
X8877526Y10127500D01*
X8757565Y10247461D02*
X8797552Y10227468D01*
X8837539Y10187481D01*
Y10147494D01*
X8817545Y10127500D01*
X8777558D01*
X8757565Y10147494D01*
Y10167487D01*
X8777558Y10187481D01*
X8837539D01*
X7585000Y7630000D02*
Y7749961D01*
X7525019D01*
X7505026Y7729968D01*
Y7689981D01*
X7525019Y7669987D01*
X7585000D01*
X7545013D02*
X7505026Y7630000D01*
X7465039Y7729968D02*
X7445045Y7749961D01*
X7405058D01*
X7385065Y7729968D01*
Y7709974D01*
X7405058Y7689981D01*
X7425052D01*
X7405058D01*
X7385065Y7669987D01*
Y7649994D01*
X7405058Y7630000D01*
X7445045D01*
X7465039Y7649994D01*
X4750000Y7450000D02*
X4630039D01*
Y7390020D01*
X4650032Y7370026D01*
X4690019D01*
X4710013Y7390020D01*
Y7450000D01*
Y7410013D02*
X4750000Y7370026D01*
Y7250065D02*
Y7330039D01*
X4670026Y7250065D01*
X4650032D01*
X4630039Y7270058D01*
Y7310045D01*
X4650032Y7330039D01*
X4520000Y7410000D02*
X4400039D01*
Y7350019D01*
X4420032Y7330026D01*
X4460020D01*
X4480013Y7350019D01*
Y7410000D01*
Y7370013D02*
X4520000Y7330026D01*
Y7290039D02*
Y7250052D01*
Y7270045D01*
X4400039D01*
X4420032Y7290039D01*
X7770026Y11019994D02*
Y11099968D01*
X7790019Y11119961D01*
X7830006D01*
X7850000Y11099968D01*
Y11019994D01*
X7830006Y11000000D01*
X7790019D01*
X7810013Y11039987D02*
X7770026Y11000000D01*
X7790019D02*
X7770026Y11019994D01*
X7730039Y11000000D02*
X7690052D01*
X7710045D01*
Y11119961D01*
X7730039Y11099968D01*
X9830000Y7679961D02*
Y7560000D01*
X9750026D01*
X9710039Y7659968D02*
X9690045Y7679961D01*
X9650058D01*
X9630065Y7659968D01*
Y7639974D01*
X9650058Y7619981D01*
X9670052D01*
X9650058D01*
X9630065Y7599987D01*
Y7579994D01*
X9650058Y7560000D01*
X9690045D01*
X9710039Y7579994D01*
X7665032Y7605026D02*
X7645039Y7625020D01*
Y7665007D01*
X7665032Y7685000D01*
X7745006D01*
X7765000Y7665007D01*
Y7625020D01*
X7745006Y7605026D01*
X7765000Y7565039D02*
Y7525052D01*
Y7545045D01*
X7645039D01*
X7665032Y7565039D01*
Y7465071D02*
X7645039Y7445078D01*
Y7405091D01*
X7665032Y7385097D01*
X7745006D01*
X7765000Y7405091D01*
Y7445078D01*
X7745006Y7465071D01*
X7665032D01*
X7645039Y7345110D02*
Y7265136D01*
X7665032D01*
X7745006Y7345110D01*
X7765000D01*
X5720032Y7550026D02*
X5700039Y7570019D01*
Y7610006D01*
X5720032Y7630000D01*
X5800006D01*
X5820000Y7610006D01*
Y7570019D01*
X5800006Y7550026D01*
X5820000Y7510039D02*
Y7470052D01*
Y7490045D01*
X5700039D01*
X5720032Y7510039D01*
X5820000Y7410071D02*
Y7370084D01*
Y7390077D01*
X5700039D01*
X5720032Y7410071D01*
X5700039Y7310103D02*
Y7230129D01*
X5720032D01*
X5800006Y7310103D01*
X5820000D01*
X5390032Y7550026D02*
X5370039Y7570019D01*
Y7610006D01*
X5390032Y7630000D01*
X5470006D01*
X5490000Y7610006D01*
Y7570019D01*
X5470006Y7550026D01*
X5490000Y7510039D02*
Y7470052D01*
Y7490045D01*
X5370039D01*
X5390032Y7510039D01*
X5490000Y7410071D02*
Y7370084D01*
Y7390077D01*
X5370039D01*
X5390032Y7410071D01*
Y7310103D02*
X5370039Y7290110D01*
Y7250123D01*
X5390032Y7230129D01*
X5410026D01*
X5430019Y7250123D01*
X5450013Y7230129D01*
X5470006D01*
X5490000Y7250123D01*
Y7290110D01*
X5470006Y7310103D01*
X5450013D01*
X5430019Y7290110D01*
X5410026Y7310103D01*
X5390032D01*
X5430019Y7290110D02*
Y7250123D01*
X5460026Y8419968D02*
X5480020Y8439961D01*
X5520006D01*
X5540000Y8419968D01*
Y8339994D01*
X5520006Y8320000D01*
X5480020D01*
X5460026Y8339994D01*
X5420039Y8320000D02*
X5380052D01*
X5400045D01*
Y8439961D01*
X5420039Y8419968D01*
X5260091Y8320000D02*
Y8439961D01*
X5320071Y8379981D01*
X5240097D01*
X5140129Y8320000D02*
Y8439961D01*
X5200110Y8379981D01*
X5120136D01*
X5460026Y8259968D02*
X5480020Y8279961D01*
X5520006D01*
X5540000Y8259968D01*
Y8179994D01*
X5520006Y8160000D01*
X5480020D01*
X5460026Y8179994D01*
X5420039Y8160000D02*
X5380052D01*
X5400045D01*
Y8279961D01*
X5420039Y8259968D01*
X5260091Y8160000D02*
Y8279961D01*
X5320071Y8219981D01*
X5240097D01*
X5200110Y8259968D02*
X5180116Y8279961D01*
X5140129D01*
X5120136Y8259968D01*
Y8239974D01*
X5140129Y8219981D01*
X5160123D01*
X5140129D01*
X5120136Y8199987D01*
Y8179994D01*
X5140129Y8160000D01*
X5180116D01*
X5200110Y8179994D01*
X5460026Y8739968D02*
X5480020Y8759961D01*
X5520006D01*
X5540000Y8739968D01*
Y8659994D01*
X5520006Y8640000D01*
X5480020D01*
X5460026Y8659994D01*
X5420039Y8640000D02*
X5380052D01*
X5400045D01*
Y8759961D01*
X5420039Y8739968D01*
X5260091Y8640000D02*
Y8759961D01*
X5320071Y8699981D01*
X5240097D01*
X5120136Y8640000D02*
X5200110D01*
X5120136Y8719974D01*
Y8739968D01*
X5140129Y8759961D01*
X5180116D01*
X5200110Y8739968D01*
X5460026Y8579968D02*
X5480020Y8599961D01*
X5520006D01*
X5540000Y8579968D01*
Y8499994D01*
X5520006Y8480000D01*
X5480020D01*
X5460026Y8499994D01*
X5420039Y8480000D02*
X5380052D01*
X5400045D01*
Y8599961D01*
X5420039Y8579968D01*
X5260091Y8480000D02*
Y8599961D01*
X5320071Y8539981D01*
X5240097D01*
X5200110Y8480000D02*
X5160123D01*
X5180116D01*
Y8599961D01*
X5200110Y8579968D01*
X2810032Y11060026D02*
X2790039Y11080020D01*
Y11120007D01*
X2810032Y11140000D01*
X2890007D01*
X2910000Y11120007D01*
Y11080020D01*
X2890007Y11060026D01*
X2910000Y10940065D02*
Y11020039D01*
X2830026Y10940065D01*
X2810032D01*
X2790039Y10960059D01*
Y11000046D01*
X2810032Y11020039D01*
Y10900078D02*
X2790039Y10880084D01*
Y10840097D01*
X2810032Y10820104D01*
X2890007D01*
X2910000Y10840097D01*
Y10880084D01*
X2890007Y10900078D01*
X2810032D01*
X2910000Y10780117D02*
Y10740130D01*
Y10760123D01*
X2790039D01*
X2810032Y10780117D01*
X2850000Y12290000D02*
X2730039D01*
Y12230019D01*
X2750032Y12210026D01*
X2790020D01*
X2810013Y12230019D01*
Y12290000D01*
Y12250013D02*
X2850000Y12210026D01*
Y12170039D02*
Y12130052D01*
Y12150045D01*
X2730039D01*
X2750032Y12170039D01*
X2850000Y11990097D02*
Y12070071D01*
X2770026Y11990097D01*
X2750032D01*
X2730039Y12010091D01*
Y12050077D01*
X2750032Y12070071D01*
Y11950110D02*
X2730039Y11930116D01*
Y11890129D01*
X2750032Y11870136D01*
X2770026D01*
X2790020Y11890129D01*
Y11910123D01*
Y11890129D01*
X2810013Y11870136D01*
X2830007D01*
X2850000Y11890129D01*
Y11930116D01*
X2830007Y11950110D01*
X12130000Y12279961D02*
Y12160000D01*
X12070020D01*
X12050026Y12179994D01*
Y12259968D01*
X12070020Y12279961D01*
X12130000D01*
X12010039D02*
X11930065D01*
Y12259968D01*
X12010039Y12179994D01*
Y12160000D01*
X6240000Y8740000D02*
X6120039D01*
Y8680019D01*
X6140032Y8660026D01*
X6180019D01*
X6200013Y8680019D01*
Y8740000D01*
Y8700013D02*
X6240000Y8660026D01*
X6120039Y8620039D02*
Y8540065D01*
X6140032D01*
X6220006Y8620039D01*
X6240000D01*
Y8440097D02*
X6120039D01*
X6180019Y8500078D01*
Y8420104D01*
X6240000Y7930000D02*
Y8049961D01*
X6180019D01*
X6160026Y8029967D01*
Y7989980D01*
X6180019Y7969987D01*
X6240000D01*
X6200013D02*
X6160026Y7930000D01*
X6120039Y8049961D02*
X6040065D01*
Y8029967D01*
X6120039Y7949993D01*
Y7930000D01*
X6000078Y8029967D02*
X5980084Y8049961D01*
X5940097D01*
X5920103Y8029967D01*
Y8009974D01*
X5940097Y7989980D01*
X5960091D01*
X5940097D01*
X5920103Y7969987D01*
Y7949993D01*
X5940097Y7930000D01*
X5980084D01*
X6000078Y7949993D01*
X4000000Y8030000D02*
Y8149961D01*
X3940020D01*
X3920026Y8129968D01*
Y8089981D01*
X3940020Y8069987D01*
X4000000D01*
X3960013D02*
X3920026Y8030000D01*
X3880039Y8149961D02*
X3800065D01*
Y8129968D01*
X3880039Y8049994D01*
Y8030000D01*
X3680104D02*
X3760078D01*
X3680104Y8109974D01*
Y8129968D01*
X3700097Y8149961D01*
X3740084D01*
X3760078Y8129968D01*
X4345000Y9525000D02*
Y9644961D01*
X4285019D01*
X4265026Y9624968D01*
Y9584981D01*
X4285019Y9564987D01*
X4345000D01*
X4305013D02*
X4265026Y9525000D01*
X4225039Y9644961D02*
X4145065D01*
Y9624968D01*
X4225039Y9544994D01*
Y9525000D01*
X4105078Y9624968D02*
X4085084Y9644961D01*
X4045097D01*
X4025103Y9624968D01*
Y9544994D01*
X4045097Y9525000D01*
X4085084D01*
X4105078Y9544994D01*
Y9624968D01*
X5670000Y9610000D02*
Y9729961D01*
X5610020D01*
X5590026Y9709968D01*
Y9669981D01*
X5610020Y9649987D01*
X5670000D01*
X5630013D02*
X5590026Y9610000D01*
X5470065Y9729961D02*
X5510052Y9709968D01*
X5550039Y9669981D01*
Y9629994D01*
X5530045Y9610000D01*
X5490058D01*
X5470065Y9629994D01*
Y9649987D01*
X5490058Y9669981D01*
X5550039D01*
X5430078Y9629994D02*
X5410084Y9610000D01*
X5370097D01*
X5350104Y9629994D01*
Y9709968D01*
X5370097Y9729961D01*
X5410084D01*
X5430078Y9709968D01*
Y9689974D01*
X5410084Y9669981D01*
X5350104D01*
X6240000Y7769999D02*
Y7889961D01*
X6180019D01*
X6160026Y7869967D01*
Y7829980D01*
X6180019Y7809986D01*
X6240000D01*
X6200013D02*
X6160026Y7769999D01*
X6040065Y7889961D02*
X6080052Y7869967D01*
X6120039Y7829980D01*
Y7789993D01*
X6100045Y7769999D01*
X6060058D01*
X6040065Y7789993D01*
Y7809986D01*
X6060058Y7829980D01*
X6120039D01*
X6000078Y7869967D02*
X5980084Y7889961D01*
X5940097D01*
X5920103Y7869967D01*
Y7849974D01*
X5940097Y7829980D01*
X5920103Y7809986D01*
Y7789993D01*
X5940097Y7769999D01*
X5980084D01*
X6000078Y7789993D01*
Y7809986D01*
X5980084Y7829980D01*
X6000078Y7849974D01*
Y7869967D01*
X5980084Y7829980D02*
X5940097D01*
X5470000Y7830000D02*
Y7949961D01*
X5410019D01*
X5390026Y7929968D01*
Y7889981D01*
X5410019Y7869987D01*
X5470000D01*
X5430013D02*
X5390026Y7830000D01*
X5270065Y7949961D02*
X5310052Y7929968D01*
X5350039Y7889981D01*
Y7849994D01*
X5330045Y7830000D01*
X5290058D01*
X5270065Y7849994D01*
Y7869987D01*
X5290058Y7889981D01*
X5350039D01*
X5230078Y7949961D02*
X5150103D01*
Y7929968D01*
X5230078Y7849994D01*
Y7830000D01*
X4300000Y9157500D02*
Y9277461D01*
X4240019D01*
X4220026Y9257468D01*
Y9217481D01*
X4240019Y9197487D01*
X4300000D01*
X4260013D02*
X4220026Y9157500D01*
X4100065Y9277461D02*
X4140052Y9257468D01*
X4180039Y9217481D01*
Y9177494D01*
X4160045Y9157500D01*
X4120058D01*
X4100065Y9177494D01*
Y9197487D01*
X4120058Y9217481D01*
X4180039D01*
X4000097Y9157500D02*
Y9277461D01*
X4060078Y9217481D01*
X3980104D01*
X4700000Y7880000D02*
Y7999961D01*
X4640019D01*
X4620026Y7979968D01*
Y7939981D01*
X4640019Y7919987D01*
X4700000D01*
X4660013D02*
X4620026Y7880000D01*
X4500065Y7999961D02*
X4540052Y7979968D01*
X4580039Y7939981D01*
Y7899994D01*
X4560045Y7880000D01*
X4520058D01*
X4500065Y7899994D01*
Y7919987D01*
X4520058Y7939981D01*
X4580039D01*
X4460078Y7979968D02*
X4440084Y7999961D01*
X4400097D01*
X4380104Y7979968D01*
Y7959974D01*
X4400097Y7939981D01*
X4420091D01*
X4400097D01*
X4380104Y7919987D01*
Y7899994D01*
X4400097Y7880000D01*
X4440084D01*
X4460078Y7899994D01*
X5100000Y9610000D02*
Y9729961D01*
X5040019D01*
X5020026Y9709968D01*
Y9669981D01*
X5040019Y9649987D01*
X5100000D01*
X5060013D02*
X5020026Y9610000D01*
X4900065Y9729961D02*
X4940052Y9709968D01*
X4980039Y9669981D01*
Y9629994D01*
X4960045Y9610000D01*
X4920058D01*
X4900065Y9629994D01*
Y9649987D01*
X4920058Y9669981D01*
X4980039D01*
X4780103Y9610000D02*
X4860078D01*
X4780103Y9689974D01*
Y9709968D01*
X4800097Y9729961D01*
X4840084D01*
X4860078Y9709968D01*
X6425000Y8252500D02*
Y8372461D01*
X6365020D01*
X6345026Y8352468D01*
Y8312480D01*
X6365020Y8292487D01*
X6425000D01*
X6385013D02*
X6345026Y8252500D01*
X6225065Y8372461D02*
X6265052Y8352468D01*
X6305039Y8312480D01*
Y8272493D01*
X6285045Y8252500D01*
X6245058D01*
X6225065Y8272493D01*
Y8292487D01*
X6245058Y8312480D01*
X6305039D01*
X6185078Y8352468D02*
X6165084Y8372461D01*
X6125097D01*
X6105104Y8352468D01*
Y8272493D01*
X6125097Y8252500D01*
X6165084D01*
X6185078Y8272493D01*
Y8352468D01*
X4310000Y8180000D02*
Y8299961D01*
X4250019D01*
X4230026Y8279968D01*
Y8239980D01*
X4250019Y8219987D01*
X4310000D01*
X4270013D02*
X4230026Y8180000D01*
X4110065Y8299961D02*
X4190039D01*
Y8239980D01*
X4150052Y8259974D01*
X4130058D01*
X4110065Y8239980D01*
Y8199994D01*
X4130058Y8180000D01*
X4170045D01*
X4190039Y8199994D01*
X4070078D02*
X4050084Y8180000D01*
X4010097D01*
X3990104Y8199994D01*
Y8279968D01*
X4010097Y8299961D01*
X4050084D01*
X4070078Y8279968D01*
Y8259974D01*
X4050084Y8239980D01*
X3990104D01*
X6110000Y9950000D02*
Y10069961D01*
X6050019D01*
X6030026Y10049968D01*
Y10009980D01*
X6050019Y9989987D01*
X6110000D01*
X6070013D02*
X6030026Y9950000D01*
X5910065Y10069961D02*
X5990039D01*
Y10009980D01*
X5950052Y10029974D01*
X5930058D01*
X5910065Y10009980D01*
Y9969994D01*
X5930058Y9950000D01*
X5970045D01*
X5990039Y9969994D01*
X5870078Y10049968D02*
X5850084Y10069961D01*
X5810097D01*
X5790103Y10049968D01*
Y10029974D01*
X5810097Y10009980D01*
X5790103Y9989987D01*
Y9969994D01*
X5810097Y9950000D01*
X5850084D01*
X5870078Y9969994D01*
Y9989987D01*
X5850084Y10009980D01*
X5870078Y10029974D01*
Y10049968D01*
X5850084Y10009980D02*
X5810097D01*
X6425000Y8085000D02*
Y8204961D01*
X6365020D01*
X6345026Y8184968D01*
Y8144981D01*
X6365020Y8124987D01*
X6425000D01*
X6385013D02*
X6345026Y8085000D01*
X6225065Y8204961D02*
X6305039D01*
Y8144981D01*
X6265052Y8164974D01*
X6245058D01*
X6225065Y8144981D01*
Y8104994D01*
X6245058Y8085000D01*
X6285045D01*
X6305039Y8104994D01*
X6185078Y8204961D02*
X6105104D01*
Y8184968D01*
X6185078Y8104994D01*
Y8085000D01*
X5710032Y9480026D02*
X5690039Y9500019D01*
Y9540006D01*
X5710032Y9560000D01*
X5790006D01*
X5810000Y9540006D01*
Y9500019D01*
X5790006Y9480026D01*
X5810000Y9440039D02*
Y9400052D01*
Y9420045D01*
X5690039D01*
X5710032Y9440039D01*
X5810000Y9280090D02*
X5690039D01*
X5750019Y9340071D01*
Y9260097D01*
X5710032Y9220110D02*
X5690039Y9200116D01*
Y9160129D01*
X5710032Y9140136D01*
X5790006D01*
X5810000Y9160129D01*
Y9200116D01*
X5790006Y9220110D01*
X5710032D01*
X5900032Y9480026D02*
X5880039Y9500019D01*
Y9540006D01*
X5900032Y9560000D01*
X5980006D01*
X6000000Y9540006D01*
Y9500019D01*
X5980006Y9480026D01*
X6000000Y9440039D02*
Y9400052D01*
Y9420045D01*
X5880039D01*
X5900032Y9440039D01*
Y9340071D02*
X5880039Y9320077D01*
Y9280090D01*
X5900032Y9260097D01*
X5920026D01*
X5940019Y9280090D01*
Y9300084D01*
Y9280090D01*
X5960013Y9260097D01*
X5980006D01*
X6000000Y9280090D01*
Y9320077D01*
X5980006Y9340071D01*
Y9220110D02*
X6000000Y9200116D01*
Y9160129D01*
X5980006Y9140136D01*
X5900032D01*
X5880039Y9160129D01*
Y9200116D01*
X5900032Y9220110D01*
X5920026D01*
X5940019Y9200116D01*
Y9140136D01*
X5250032Y9470026D02*
X5230039Y9490019D01*
Y9530006D01*
X5250032Y9550000D01*
X5330006D01*
X5350000Y9530006D01*
Y9490019D01*
X5330006Y9470026D01*
X5350000Y9430039D02*
Y9390052D01*
Y9410045D01*
X5230039D01*
X5250032Y9430039D01*
Y9330071D02*
X5230039Y9310077D01*
Y9270090D01*
X5250032Y9250097D01*
X5270026D01*
X5290019Y9270090D01*
Y9290084D01*
Y9270090D01*
X5310013Y9250097D01*
X5330006D01*
X5350000Y9270090D01*
Y9310077D01*
X5330006Y9330071D01*
X5250032Y9210110D02*
X5230039Y9190116D01*
Y9150129D01*
X5250032Y9130136D01*
X5270026D01*
X5290019Y9150129D01*
X5310013Y9130136D01*
X5330006D01*
X5350000Y9150129D01*
Y9190116D01*
X5330006Y9210110D01*
X5310013D01*
X5290019Y9190116D01*
X5270026Y9210110D01*
X5250032D01*
X5290019Y9190116D02*
Y9150129D01*
X4660032Y8880026D02*
X4640039Y8900019D01*
Y8940006D01*
X4660032Y8960000D01*
X4740006D01*
X4760000Y8940006D01*
Y8900019D01*
X4740006Y8880026D01*
X4760000Y8840039D02*
Y8800052D01*
Y8820045D01*
X4640039D01*
X4660032Y8840039D01*
Y8740071D02*
X4640039Y8720077D01*
Y8680090D01*
X4660032Y8660097D01*
X4680026D01*
X4700019Y8680090D01*
Y8700084D01*
Y8680090D01*
X4720013Y8660097D01*
X4740006D01*
X4760000Y8680090D01*
Y8720077D01*
X4740006Y8740071D01*
X4640039Y8620110D02*
Y8540136D01*
X4660032D01*
X4740006Y8620110D01*
X4760000D01*
X4480032Y8880026D02*
X4460039Y8900019D01*
Y8940006D01*
X4480032Y8960000D01*
X4560006D01*
X4580000Y8940006D01*
Y8900019D01*
X4560006Y8880026D01*
X4580000Y8840039D02*
Y8800052D01*
Y8820045D01*
X4460039D01*
X4480032Y8840039D01*
Y8740071D02*
X4460039Y8720077D01*
Y8680090D01*
X4480032Y8660097D01*
X4500026D01*
X4520019Y8680090D01*
Y8700084D01*
Y8680090D01*
X4540013Y8660097D01*
X4560006D01*
X4580000Y8680090D01*
Y8720077D01*
X4560006Y8740071D01*
X4460039Y8540136D02*
X4480032Y8580123D01*
X4520019Y8620110D01*
X4560006D01*
X4580000Y8600116D01*
Y8560129D01*
X4560006Y8540136D01*
X4540013D01*
X4520019Y8560129D01*
Y8620110D01*
X4230032Y8740026D02*
X4210039Y8760019D01*
Y8800006D01*
X4230032Y8820000D01*
X4310006D01*
X4330000Y8800006D01*
Y8760019D01*
X4310006Y8740026D01*
X4330000Y8700039D02*
Y8660052D01*
Y8680045D01*
X4210039D01*
X4230032Y8700039D01*
Y8600071D02*
X4210039Y8580077D01*
Y8540090D01*
X4230032Y8520097D01*
X4250026D01*
X4270019Y8540090D01*
Y8560084D01*
Y8540090D01*
X4290013Y8520097D01*
X4310006D01*
X4330000Y8540090D01*
Y8580077D01*
X4310006Y8600071D01*
X4210039Y8400136D02*
Y8480110D01*
X4270019D01*
X4250026Y8440123D01*
Y8420129D01*
X4270019Y8400136D01*
X4310006D01*
X4330000Y8420129D01*
Y8460116D01*
X4310006Y8480110D01*
X4050032Y8740026D02*
X4030039Y8760019D01*
Y8800006D01*
X4050032Y8820000D01*
X4130006D01*
X4150000Y8800006D01*
Y8760019D01*
X4130006Y8740026D01*
X4150000Y8700039D02*
Y8660052D01*
Y8680045D01*
X4030039D01*
X4050032Y8700039D01*
Y8600071D02*
X4030039Y8580077D01*
Y8540090D01*
X4050032Y8520097D01*
X4070026D01*
X4090020Y8540090D01*
Y8560084D01*
Y8540090D01*
X4110013Y8520097D01*
X4130006D01*
X4150000Y8540090D01*
Y8580077D01*
X4130006Y8600071D01*
X4150000Y8420129D02*
X4030039D01*
X4090020Y8480110D01*
Y8400136D01*
X5480032Y9450026D02*
X5460039Y9470019D01*
Y9510006D01*
X5480032Y9530000D01*
X5560006D01*
X5580000Y9510006D01*
Y9470019D01*
X5560006Y9450026D01*
X5580000Y9410039D02*
Y9370052D01*
Y9390045D01*
X5460039D01*
X5480032Y9410039D01*
Y9310071D02*
X5460039Y9290077D01*
Y9250090D01*
X5480032Y9230097D01*
X5500026D01*
X5520019Y9250090D01*
Y9270084D01*
Y9250090D01*
X5540013Y9230097D01*
X5560006D01*
X5580000Y9250090D01*
Y9290077D01*
X5560006Y9310071D01*
X5580000Y9190110D02*
Y9150123D01*
Y9170116D01*
X5460039D01*
X5480032Y9190110D01*
X4840032Y9480026D02*
X4820039Y9500019D01*
Y9540006D01*
X4840032Y9560000D01*
X4920006D01*
X4940000Y9540006D01*
Y9500019D01*
X4920006Y9480026D01*
X4940000Y9440039D02*
Y9400052D01*
Y9420045D01*
X4820039D01*
X4840032Y9440039D01*
X4940000Y9260097D02*
Y9340071D01*
X4860026Y9260097D01*
X4840032D01*
X4820039Y9280090D01*
Y9320077D01*
X4840032Y9340071D01*
X4920006Y9220110D02*
X4940000Y9200116D01*
Y9160129D01*
X4920006Y9140136D01*
X4840032D01*
X4820039Y9160129D01*
Y9200116D01*
X4840032Y9220110D01*
X4860026D01*
X4880019Y9200116D01*
Y9140136D01*
X4330026Y9769968D02*
X4350019Y9789961D01*
X4390006D01*
X4410000Y9769968D01*
Y9689994D01*
X4390006Y9670000D01*
X4350019D01*
X4330026Y9689994D01*
X4290039Y9670000D02*
X4250052D01*
X4270045D01*
Y9789961D01*
X4290039Y9769968D01*
X4110097Y9670000D02*
X4190071D01*
X4110097Y9749974D01*
Y9769968D01*
X4130091Y9789961D01*
X4170078D01*
X4190071Y9769968D01*
X4070110Y9789961D02*
X3990136D01*
Y9769968D01*
X4070110Y9689994D01*
Y9670000D01*
X5460026Y8089968D02*
X5480020Y8109961D01*
X5520006D01*
X5540000Y8089968D01*
Y8009994D01*
X5520006Y7990000D01*
X5480020D01*
X5460026Y8009994D01*
X5420039Y7990000D02*
X5380052D01*
X5400045D01*
Y8109961D01*
X5420039Y8089968D01*
X5240097Y7990000D02*
X5320071D01*
X5240097Y8069974D01*
Y8089968D01*
X5260091Y8109961D01*
X5300078D01*
X5320071Y8089968D01*
X5120136Y8109961D02*
X5200110D01*
Y8049981D01*
X5160123Y8069974D01*
X5140129D01*
X5120136Y8049981D01*
Y8009994D01*
X5140129Y7990000D01*
X5180116D01*
X5200110Y8009994D01*
X5000032Y9480026D02*
X4980039Y9500019D01*
Y9540006D01*
X5000032Y9560000D01*
X5080006D01*
X5100000Y9540006D01*
Y9500019D01*
X5080006Y9480026D01*
X5100000Y9440039D02*
Y9400052D01*
Y9420045D01*
X4980039D01*
X5000032Y9440039D01*
X5100000Y9260097D02*
Y9340071D01*
X5020026Y9260097D01*
X5000032D01*
X4980039Y9280090D01*
Y9320077D01*
X5000032Y9340071D01*
X5100000Y9160129D02*
X4980039D01*
X5040019Y9220110D01*
Y9140136D01*
X4332526Y9404968D02*
X4352519Y9424961D01*
X4392506D01*
X4412500Y9404968D01*
Y9324994D01*
X4392506Y9305000D01*
X4352519D01*
X4332526Y9324994D01*
X4292539Y9305000D02*
X4252552D01*
X4272545D01*
Y9424961D01*
X4292539Y9404968D01*
X4112597Y9305000D02*
X4192571D01*
X4112597Y9384974D01*
Y9404968D01*
X4132590Y9424961D01*
X4172577D01*
X4192571Y9404968D01*
X3992636Y9305000D02*
X4072610D01*
X3992636Y9384974D01*
Y9404968D01*
X4012629Y9424961D01*
X4052616D01*
X4072610Y9404968D01*
X5620032Y8030026D02*
X5600039Y8050019D01*
Y8090006D01*
X5620032Y8110000D01*
X5700006D01*
X5720000Y8090006D01*
Y8050019D01*
X5700006Y8030026D01*
X5720000Y7990039D02*
Y7950052D01*
Y7970045D01*
X5600039D01*
X5620032Y7990039D01*
X5720000Y7810097D02*
Y7890071D01*
X5640026Y7810097D01*
X5620032D01*
X5600039Y7830091D01*
Y7870077D01*
X5620032Y7890071D01*
X5720000Y7770110D02*
Y7730123D01*
Y7750116D01*
X5600039D01*
X5620032Y7770110D01*
X5100026Y9869968D02*
X5120019Y9889961D01*
X5160006D01*
X5180000Y9869968D01*
Y9789994D01*
X5160006Y9770000D01*
X5120019D01*
X5100026Y9789994D01*
X5060039Y9770000D02*
X5020052D01*
X5040045D01*
Y9889961D01*
X5060039Y9869968D01*
X4880097Y9770000D02*
X4960071D01*
X4880097Y9849974D01*
Y9869968D01*
X4900091Y9889961D01*
X4940077D01*
X4960071Y9869968D01*
X4840110D02*
X4820116Y9889961D01*
X4780129D01*
X4760136Y9869968D01*
Y9789994D01*
X4780129Y9770000D01*
X4820116D01*
X4840110Y9789994D01*
Y9869968D01*
X12860080Y12689961D02*
Y12570000D01*
X12800099D01*
X12780106Y12589993D01*
Y12669968D01*
X12800099Y12689961D01*
X12860080D01*
X12680138Y12570000D02*
Y12689961D01*
X12740119Y12629980D01*
X12660144D01*
X12450000Y13009961D02*
Y12889999D01*
X12390019D01*
X12370026Y12909993D01*
Y12989967D01*
X12390019Y13009961D01*
X12450000D01*
X12250065Y12889999D02*
X12330039D01*
X12250065Y12969974D01*
Y12989967D01*
X12270058Y13009961D01*
X12310045D01*
X12330039Y12989967D01*
X12790000Y13239961D02*
Y13120000D01*
X12730019D01*
X12710026Y13139993D01*
Y13219968D01*
X12730019Y13239961D01*
X12790000D01*
X12670039Y13120000D02*
X12630052D01*
X12650045D01*
Y13239961D01*
X12670039Y13219968D01*
X13480026Y10899968D02*
X13500018Y10919961D01*
X13540005D01*
X13560001Y10899968D01*
Y10819994D01*
X13540005Y10800000D01*
X13500018D01*
X13480026Y10819994D01*
X13440039Y10800000D02*
X13400052D01*
X13420045D01*
Y10919961D01*
X13440039Y10899968D01*
X13260097Y10800000D02*
X13340071D01*
X13260097Y10879974D01*
Y10899968D01*
X13280090Y10919961D01*
X13320078D01*
X13340071Y10899968D01*
X10860026Y12469968D02*
X10880019Y12489961D01*
X10920006D01*
X10940000Y12469968D01*
Y12389994D01*
X10920006Y12370000D01*
X10880019D01*
X10860026Y12389994D01*
X10740065Y12489961D02*
X10780052Y12469968D01*
X10820039Y12429980D01*
Y12389994D01*
X10800045Y12370000D01*
X10760058D01*
X10740065Y12389994D01*
Y12409987D01*
X10760058Y12429980D01*
X10820039D01*
X11600032Y12180026D02*
X11580039Y12200020D01*
Y12240007D01*
X11600032Y12260000D01*
X11680006D01*
X11700000Y12240007D01*
Y12200020D01*
X11680006Y12180026D01*
X11580039Y12060065D02*
Y12140039D01*
X11640019D01*
X11620026Y12100052D01*
Y12080058D01*
X11640019Y12060065D01*
X11680006D01*
X11700000Y12080058D01*
Y12120045D01*
X11680006Y12140039D01*
X13620026Y12919968D02*
X13640019Y12939961D01*
X13680006D01*
X13700000Y12919968D01*
Y12839993D01*
X13680006Y12820000D01*
X13640019D01*
X13620026Y12839993D01*
X13520058Y12820000D02*
Y12939961D01*
X13580038Y12879980D01*
X13500066D01*
X13040025Y11449968D02*
X13060019Y11469961D01*
X13100006D01*
X13120000Y11449968D01*
Y11369994D01*
X13100006Y11350000D01*
X13060019D01*
X13040025Y11369994D01*
X12920065Y11350000D02*
X13000040D01*
X12920065Y11429974D01*
Y11449968D01*
X12940057Y11469961D01*
X12980045D01*
X13000040Y11449968D01*
X13050032Y13180026D02*
X13030038Y13200018D01*
Y13240005D01*
X13050032Y13260001D01*
X13130006D01*
X13150000Y13240005D01*
Y13200018D01*
X13130006Y13180026D01*
X13150000Y13140039D02*
Y13100052D01*
Y13120045D01*
X13030038D01*
X13050032Y13140039D01*
X8100000Y13149960D02*
Y13030000D01*
X8040019D01*
X8020026Y13049994D01*
Y13129968D01*
X8040019Y13149960D01*
X8100000D01*
X7980039Y13049994D02*
X7960045Y13030000D01*
X7920058D01*
X7900065Y13049994D01*
Y13129968D01*
X7920058Y13149960D01*
X7960045D01*
X7980039Y13129968D01*
Y13109975D01*
X7960045Y13089981D01*
X7900065D01*
X9860000Y13400000D02*
X9740039D01*
Y13340021D01*
X9760032Y13320026D01*
X9800020D01*
X9820013Y13340021D01*
Y13400000D01*
Y13360013D02*
X9860000Y13320026D01*
X9740039Y13280038D02*
Y13200066D01*
X9760032D01*
X9840006Y13280038D01*
X9860000D01*
X9760032Y13160078D02*
X9740039Y13140083D01*
Y13100098D01*
X9760032Y13080104D01*
X9780026D01*
X9800020Y13100098D01*
X9820013Y13080104D01*
X9840006D01*
X9860000Y13100098D01*
Y13140083D01*
X9840006Y13160078D01*
X9820013D01*
X9800020Y13140083D01*
X9780026Y13160078D01*
X9760032D01*
X9800020Y13140083D02*
Y13100098D01*
X9020000Y11840000D02*
Y11959961D01*
X8960019D01*
X8940026Y11939968D01*
Y11899981D01*
X8960019Y11879987D01*
X9020000D01*
X8980013D02*
X8940026Y11840000D01*
X8900039Y11959961D02*
X8820065D01*
Y11939968D01*
X8900039Y11859994D01*
Y11840000D01*
X8780078Y11859994D02*
X8760084Y11840000D01*
X8720097D01*
X8700104Y11859994D01*
Y11939968D01*
X8720097Y11959961D01*
X8760084D01*
X8780078Y11939968D01*
Y11919974D01*
X8760084Y11899981D01*
X8700104D01*
X9680000Y13230000D02*
X9560039D01*
Y13170020D01*
X9580032Y13150026D01*
X9620019D01*
X9640013Y13170020D01*
Y13230000D01*
Y13190013D02*
X9680000Y13150026D01*
X9580032Y13110039D02*
X9560039Y13090045D01*
Y13050058D01*
X9580032Y13030064D01*
X9600026D01*
X9620019Y13050058D01*
X9640013Y13030064D01*
X9660006D01*
X9680000Y13050058D01*
Y13090045D01*
X9660006Y13110039D01*
X9640013D01*
X9620019Y13090045D01*
X9600026Y13110039D01*
X9580032D01*
X9620019Y13090045D02*
Y13050058D01*
X9580032Y12990079D02*
X9560039Y12970084D01*
Y12930096D01*
X9580032Y12910103D01*
X9660006D01*
X9680000Y12930096D01*
Y12970084D01*
X9660006Y12990079D01*
X9580032D01*
X6010032Y10960026D02*
X5990039Y10980019D01*
Y11020006D01*
X6010032Y11040000D01*
X6090006D01*
X6110000Y11020006D01*
Y10980019D01*
X6090006Y10960026D01*
X6110000Y10920039D02*
Y10880052D01*
Y10900045D01*
X5990039D01*
X6010032Y10920039D01*
X5990039Y10820071D02*
Y10740097D01*
X6010032D01*
X6090006Y10820071D01*
X6110000D01*
X5990039Y10620136D02*
X6010032Y10660123D01*
X6050019Y10700110D01*
X6090006D01*
X6110000Y10680116D01*
Y10640129D01*
X6090006Y10620136D01*
X6070013D01*
X6050019Y10640129D01*
Y10700110D01*
X7050032Y12010026D02*
X7030039Y12030019D01*
Y12070006D01*
X7050032Y12090000D01*
X7130007D01*
X7150000Y12070006D01*
Y12030019D01*
X7130007Y12010026D01*
X7150000Y11970039D02*
Y11930052D01*
Y11950045D01*
X7030039D01*
X7050032Y11970039D01*
X7030039Y11870071D02*
Y11790097D01*
X7050032D01*
X7130007Y11870071D01*
X7150000D01*
X7030039Y11750110D02*
Y11670135D01*
X7050032D01*
X7130007Y11750110D01*
X7150000D01*
X5120032Y12080026D02*
X5100039Y12100019D01*
Y12140006D01*
X5120032Y12160000D01*
X5200006D01*
X5220000Y12140006D01*
Y12100019D01*
X5200006Y12080026D01*
X5220000Y12040039D02*
Y12000052D01*
Y12020045D01*
X5100039D01*
X5120032Y12040039D01*
X5100039Y11940071D02*
Y11860097D01*
X5120032D01*
X5200006Y11940071D01*
X5220000D01*
X5120032Y11820110D02*
X5100039Y11800116D01*
Y11760129D01*
X5120032Y11740136D01*
X5140026D01*
X5160019Y11760129D01*
X5180013Y11740136D01*
X5200006D01*
X5220000Y11760129D01*
Y11800116D01*
X5200006Y11820110D01*
X5180013D01*
X5160019Y11800116D01*
X5140026Y11820110D01*
X5120032D01*
X5160019Y11800116D02*
Y11760129D01*
X7459968Y12979974D02*
X7479961Y12959981D01*
Y12919994D01*
X7459968Y12900000D01*
X7379994D01*
X7360000Y12919994D01*
Y12959981D01*
X7379994Y12979974D01*
X7360000Y13019962D02*
Y13059949D01*
Y13039955D01*
X7479961D01*
X7459968Y13019962D01*
X7479961Y13119930D02*
Y13199902D01*
X7459968D01*
X7379994Y13119930D01*
X7360000D01*
X7379994Y13239890D02*
X7360000Y13259885D01*
Y13299870D01*
X7379994Y13319864D01*
X7459968D01*
X7479961Y13299870D01*
Y13259885D01*
X7459968Y13239890D01*
X7439974D01*
X7419981Y13259885D01*
Y13319864D01*
X5422526Y11069968D02*
X5442519Y11089961D01*
X5482506D01*
X5502500Y11069968D01*
Y10989994D01*
X5482506Y10970000D01*
X5442519D01*
X5422526Y10989994D01*
X5382539Y10970000D02*
X5342552D01*
X5362545D01*
Y11089961D01*
X5382539Y11069968D01*
X5282571D02*
X5262577Y11089961D01*
X5222590D01*
X5202597Y11069968D01*
Y11049974D01*
X5222590Y11029980D01*
X5202597Y11009987D01*
Y10989994D01*
X5222590Y10970000D01*
X5262577D01*
X5282571Y10989994D01*
Y11009987D01*
X5262577Y11029980D01*
X5282571Y11049974D01*
Y11069968D01*
X5262577Y11029980D02*
X5222590D01*
X5162610Y11069968D02*
X5142616Y11089961D01*
X5102629D01*
X5082636Y11069968D01*
Y10989994D01*
X5102629Y10970000D01*
X5142616D01*
X5162610Y10989994D01*
Y11069968D01*
X5570032Y12040026D02*
X5550039Y12060019D01*
Y12100006D01*
X5570032Y12120000D01*
X5650006D01*
X5670000Y12100006D01*
Y12060019D01*
X5650006Y12040026D01*
X5670000Y12000039D02*
Y11960052D01*
Y11980045D01*
X5550039D01*
X5570032Y12000039D01*
Y11900071D02*
X5550039Y11880077D01*
Y11840090D01*
X5570032Y11820097D01*
X5590026D01*
X5610020Y11840090D01*
X5630013Y11820097D01*
X5650006D01*
X5670000Y11840090D01*
Y11880077D01*
X5650006Y11900071D01*
X5630013D01*
X5610020Y11880077D01*
X5590026Y11900071D01*
X5570032D01*
X5610020Y11880077D02*
Y11840090D01*
X5670000Y11780110D02*
Y11740123D01*
Y11760116D01*
X5550039D01*
X5570032Y11780110D01*
X7362526Y12757468D02*
X7382520Y12777461D01*
X7422507D01*
X7442500Y12757468D01*
Y12677494D01*
X7422507Y12657500D01*
X7382520D01*
X7362526Y12677494D01*
X7322539Y12657500D02*
X7282552D01*
X7302545D01*
Y12777461D01*
X7322539Y12757468D01*
X7222571D02*
X7202578Y12777461D01*
X7162591D01*
X7142597Y12757468D01*
Y12737474D01*
X7162591Y12717481D01*
X7142597Y12697487D01*
Y12677494D01*
X7162591Y12657500D01*
X7202578D01*
X7222571Y12677494D01*
Y12697487D01*
X7202578Y12717481D01*
X7222571Y12737474D01*
Y12757468D01*
X7202578Y12717481D02*
X7162591D01*
X7022636Y12657500D02*
X7102610D01*
X7022636Y12737474D01*
Y12757468D01*
X7042630Y12777461D01*
X7082617D01*
X7102610Y12757468D01*
X5120032Y12970026D02*
X5100039Y12990019D01*
Y13030006D01*
X5120032Y13050000D01*
X5200006D01*
X5220000Y13030006D01*
Y12990019D01*
X5200006Y12970026D01*
X5220000Y12930038D02*
Y12890051D01*
Y12910045D01*
X5100039D01*
X5120032Y12930038D01*
Y12830070D02*
X5100039Y12810078D01*
Y12770091D01*
X5120032Y12750097D01*
X5140026D01*
X5160019Y12770091D01*
X5180013Y12750097D01*
X5200006D01*
X5220000Y12770091D01*
Y12810078D01*
X5200006Y12830070D01*
X5180013D01*
X5160019Y12810078D01*
X5140026Y12830070D01*
X5120032D01*
X5160019Y12810078D02*
Y12770091D01*
X5120032Y12710110D02*
X5100039Y12690116D01*
Y12650129D01*
X5120032Y12630136D01*
X5140026D01*
X5160019Y12650129D01*
Y12670123D01*
Y12650129D01*
X5180013Y12630136D01*
X5200006D01*
X5220000Y12650129D01*
Y12690116D01*
X5200006Y12710110D01*
X5470032Y10660026D02*
X5450039Y10680020D01*
Y10720006D01*
X5470032Y10740000D01*
X5550006D01*
X5570000Y10720006D01*
Y10680020D01*
X5550006Y10660026D01*
X5570000Y10620039D02*
Y10580052D01*
Y10600045D01*
X5450039D01*
X5470032Y10620039D01*
Y10520071D02*
X5450039Y10500078D01*
Y10460091D01*
X5470032Y10440097D01*
X5490026D01*
X5510019Y10460091D01*
X5530013Y10440097D01*
X5550006D01*
X5570000Y10460091D01*
Y10500078D01*
X5550006Y10520071D01*
X5530013D01*
X5510019Y10500078D01*
X5490026Y10520071D01*
X5470032D01*
X5510019Y10500078D02*
Y10460091D01*
X5570000Y10340129D02*
X5450039D01*
X5510019Y10400110D01*
Y10320136D01*
X6250032Y11620026D02*
X6230039Y11640019D01*
Y11680006D01*
X6250032Y11700000D01*
X6330006D01*
X6350000Y11680006D01*
Y11640019D01*
X6330006Y11620026D01*
X6350000Y11580039D02*
Y11540052D01*
Y11560045D01*
X6230039D01*
X6250032Y11580039D01*
Y11480071D02*
X6230039Y11460077D01*
Y11420090D01*
X6250032Y11400097D01*
X6270026D01*
X6290019Y11420090D01*
X6310013Y11400097D01*
X6330006D01*
X6350000Y11420090D01*
Y11460077D01*
X6330006Y11480071D01*
X6310013D01*
X6290019Y11460077D01*
X6270026Y11480071D01*
X6250032D01*
X6290019Y11460077D02*
Y11420090D01*
X6230039Y11280135D02*
Y11360110D01*
X6290019D01*
X6270026Y11320123D01*
Y11300129D01*
X6290019Y11280135D01*
X6330006D01*
X6350000Y11300129D01*
Y11340116D01*
X6330006Y11360110D01*
X5960032Y10500026D02*
X5940039Y10520019D01*
Y10560006D01*
X5960032Y10580000D01*
X6040006D01*
X6060000Y10560006D01*
Y10520019D01*
X6040006Y10500026D01*
X6060000Y10460039D02*
Y10420052D01*
Y10440045D01*
X5940039D01*
X5960032Y10460039D01*
Y10360071D02*
X5940039Y10340077D01*
Y10300090D01*
X5960032Y10280097D01*
X5980026D01*
X6000019Y10300090D01*
X6020013Y10280097D01*
X6040006D01*
X6060000Y10300090D01*
Y10340077D01*
X6040006Y10360071D01*
X6020013D01*
X6000019Y10340077D01*
X5980026Y10360071D01*
X5960032D01*
X6000019Y10340077D02*
Y10300090D01*
X5940039Y10160136D02*
X5960032Y10200123D01*
X6000019Y10240110D01*
X6040006D01*
X6060000Y10220116D01*
Y10180129D01*
X6040006Y10160136D01*
X6020013D01*
X6000019Y10180129D01*
Y10240110D01*
X4530032Y10690026D02*
X4510039Y10710019D01*
Y10750006D01*
X4530032Y10770000D01*
X4610006D01*
X4630000Y10750006D01*
Y10710019D01*
X4610006Y10690026D01*
X4630000Y10650039D02*
Y10610052D01*
Y10630045D01*
X4510039D01*
X4530032Y10650039D01*
Y10550071D02*
X4510039Y10530077D01*
Y10490091D01*
X4530032Y10470097D01*
X4550026D01*
X4570019Y10490091D01*
X4590013Y10470097D01*
X4610006D01*
X4630000Y10490091D01*
Y10530077D01*
X4610006Y10550071D01*
X4590013D01*
X4570019Y10530077D01*
X4550026Y10550071D01*
X4530032D01*
X4570019Y10530077D02*
Y10490091D01*
X4510039Y10430110D02*
Y10350136D01*
X4530032D01*
X4610006Y10430110D01*
X4630000D01*
X6330032Y10530026D02*
X6310039Y10550020D01*
Y10590007D01*
X6330032Y10610000D01*
X6410006D01*
X6430000Y10590007D01*
Y10550020D01*
X6410006Y10530026D01*
X6430000Y10490039D02*
Y10450052D01*
Y10470045D01*
X6310039D01*
X6330032Y10490039D01*
Y10390071D02*
X6310039Y10370078D01*
Y10330091D01*
X6330032Y10310097D01*
X6350026D01*
X6370020Y10330091D01*
X6390013Y10310097D01*
X6410006D01*
X6430000Y10330091D01*
Y10370078D01*
X6410006Y10390071D01*
X6390013D01*
X6370020Y10370078D01*
X6350026Y10390071D01*
X6330032D01*
X6370020Y10370078D02*
Y10330091D01*
X6330032Y10270110D02*
X6310039Y10250116D01*
Y10210129D01*
X6330032Y10190136D01*
X6350026D01*
X6370020Y10210129D01*
X6390013Y10190136D01*
X6410006D01*
X6430000Y10210129D01*
Y10250116D01*
X6410006Y10270110D01*
X6390013D01*
X6370020Y10250116D01*
X6350026Y10270110D01*
X6330032D01*
X6370020Y10250116D02*
Y10210129D01*
X6840032Y12100026D02*
X6820039Y12120019D01*
Y12160006D01*
X6840032Y12180000D01*
X6920006D01*
X6940000Y12160006D01*
Y12120019D01*
X6920006Y12100026D01*
X6940000Y12060039D02*
Y12020052D01*
Y12040045D01*
X6820039D01*
X6840032Y12060039D01*
Y11960071D02*
X6820039Y11940077D01*
Y11900090D01*
X6840032Y11880097D01*
X6860026D01*
X6880020Y11900090D01*
X6900013Y11880097D01*
X6920006D01*
X6940000Y11900090D01*
Y11940077D01*
X6920006Y11960071D01*
X6900013D01*
X6880020Y11940077D01*
X6860026Y11960071D01*
X6840032D01*
X6880020Y11940077D02*
Y11900090D01*
X6920006Y11840110D02*
X6940000Y11820116D01*
Y11780129D01*
X6920006Y11760136D01*
X6840032D01*
X6820039Y11780129D01*
Y11820116D01*
X6840032Y11840110D01*
X6860026D01*
X6880020Y11820116D01*
Y11760136D01*
X6500026Y12079968D02*
X6520019Y12099961D01*
X6560006D01*
X6580000Y12079968D01*
Y11999994D01*
X6560006Y11980000D01*
X6520019D01*
X6500026Y11999994D01*
X6460039Y11980000D02*
X6420052D01*
X6440045D01*
Y12099961D01*
X6460039Y12079968D01*
X6360071Y11999994D02*
X6340077Y11980000D01*
X6300091D01*
X6280097Y11999994D01*
Y12079968D01*
X6300091Y12099961D01*
X6340077D01*
X6360071Y12079968D01*
Y12059974D01*
X6340077Y12039980D01*
X6280097D01*
X6240110Y11980000D02*
X6200123D01*
X6220116D01*
Y12099961D01*
X6240110Y12079968D01*
X4565032Y12270026D02*
X4545039Y12290019D01*
Y12330006D01*
X4565032Y12350000D01*
X4645006D01*
X4665000Y12330006D01*
Y12290019D01*
X4645006Y12270026D01*
X4665000Y12230039D02*
Y12190052D01*
Y12210045D01*
X4545039D01*
X4565032Y12230039D01*
X4645006Y12130071D02*
X4665000Y12110077D01*
Y12070090D01*
X4645006Y12050097D01*
X4565032D01*
X4545039Y12070090D01*
Y12110077D01*
X4565032Y12130071D01*
X4585026D01*
X4605019Y12110077D01*
Y12050097D01*
X4665000Y11930136D02*
Y12010110D01*
X4585026Y11930136D01*
X4565032D01*
X4545039Y11950129D01*
Y11990116D01*
X4565032Y12010110D01*
X7120026Y13479968D02*
X7140020Y13499960D01*
X7180006D01*
X7200000Y13479968D01*
Y13399994D01*
X7180006Y13380000D01*
X7140020D01*
X7120026Y13399994D01*
X7080039Y13380000D02*
X7040052D01*
X7060045D01*
Y13499960D01*
X7080039Y13479968D01*
X6980071Y13399994D02*
X6960078Y13380000D01*
X6920091D01*
X6900097Y13399994D01*
Y13479968D01*
X6920091Y13499960D01*
X6960078D01*
X6980071Y13479968D01*
Y13459975D01*
X6960078Y13439980D01*
X6900097D01*
X6860110Y13479968D02*
X6840116Y13499960D01*
X6800129D01*
X6780136Y13479968D01*
Y13459975D01*
X6800129Y13439980D01*
X6820123D01*
X6800129D01*
X6780136Y13419987D01*
Y13399994D01*
X6800129Y13380000D01*
X6840116D01*
X6860110Y13399994D01*
X6250026Y11199968D02*
X6270019Y11219961D01*
X6310006D01*
X6330000Y11199968D01*
Y11119994D01*
X6310006Y11100000D01*
X6270019D01*
X6250026Y11119994D01*
X6210039Y11100000D02*
X6170052D01*
X6190045D01*
Y11219961D01*
X6210039Y11199968D01*
X6110071Y11119994D02*
X6090077Y11100000D01*
X6050091D01*
X6030097Y11119994D01*
Y11199968D01*
X6050091Y11219961D01*
X6090077D01*
X6110071Y11199968D01*
Y11179974D01*
X6090077Y11159980D01*
X6030097D01*
X5930129Y11100000D02*
Y11219961D01*
X5990110Y11159980D01*
X5910136D01*
X5740032Y12520026D02*
X5720039Y12540019D01*
Y12580006D01*
X5740032Y12600000D01*
X5820006D01*
X5840000Y12580006D01*
Y12540019D01*
X5820006Y12520026D01*
X5840000Y12480039D02*
Y12440052D01*
Y12460045D01*
X5720039D01*
X5740032Y12480039D01*
X5820006Y12380071D02*
X5840000Y12360077D01*
Y12320090D01*
X5820006Y12300097D01*
X5740032D01*
X5720039Y12320090D01*
Y12360077D01*
X5740032Y12380071D01*
X5760026D01*
X5780019Y12360077D01*
Y12300097D01*
X5720039Y12180136D02*
Y12260110D01*
X5780019D01*
X5760026Y12220123D01*
Y12200129D01*
X5780019Y12180136D01*
X5820006D01*
X5840000Y12200129D01*
Y12240116D01*
X5820006Y12260110D01*
X7010032Y11090026D02*
X6990039Y11110019D01*
Y11150006D01*
X7010032Y11170000D01*
X7090006D01*
X7110000Y11150006D01*
Y11110019D01*
X7090006Y11090026D01*
X7110000Y11050039D02*
Y11010052D01*
Y11030045D01*
X6990039D01*
X7010032Y11050039D01*
X7090006Y10950071D02*
X7110000Y10930077D01*
Y10890090D01*
X7090006Y10870097D01*
X7010032D01*
X6990039Y10890090D01*
Y10930077D01*
X7010032Y10950071D01*
X7030026D01*
X7050019Y10930077D01*
Y10870097D01*
X6990039Y10750136D02*
X7010032Y10790123D01*
X7050019Y10830110D01*
X7090006D01*
X7110000Y10810116D01*
Y10770129D01*
X7090006Y10750136D01*
X7070013D01*
X7050019Y10770129D01*
Y10830110D01*
X4580032Y13425026D02*
X4560039Y13445020D01*
Y13485007D01*
X4580032Y13505000D01*
X4660006D01*
X4680000Y13485007D01*
Y13445020D01*
X4660006Y13425026D01*
X4680000Y13385039D02*
Y13345052D01*
Y13365045D01*
X4560039D01*
X4580032Y13385039D01*
X4660006Y13285071D02*
X4680000Y13265077D01*
Y13225090D01*
X4660006Y13205096D01*
X4580032D01*
X4560039Y13225090D01*
Y13265077D01*
X4580032Y13285071D01*
X4600026D01*
X4620019Y13265077D01*
Y13205096D01*
X4560039Y13165109D02*
Y13085136D01*
X4580032D01*
X4660006Y13165109D01*
X4680000D01*
X5650000Y10920000D02*
Y11039961D01*
X5590019D01*
X5570026Y11019968D01*
Y10979981D01*
X5590019Y10959987D01*
X5650000D01*
X5610013D02*
X5570026Y10920000D01*
X5530039Y10939994D02*
X5510045Y10920000D01*
X5470058D01*
X5450065Y10939994D01*
Y11019968D01*
X5470058Y11039961D01*
X5510045D01*
X5530039Y11019968D01*
Y10999974D01*
X5510045Y10979981D01*
X5450065D01*
X5410078Y11019968D02*
X5390084Y11039961D01*
X5350097D01*
X5330103Y11019968D01*
Y10939994D01*
X5350097Y10920000D01*
X5390084D01*
X5410078Y10939994D01*
Y11019968D01*
X6840000Y11400000D02*
X6720039D01*
Y11340019D01*
X6740032Y11320026D01*
X6780019D01*
X6800013Y11340019D01*
Y11400000D01*
Y11360013D02*
X6840000Y11320026D01*
X6820006Y11280039D02*
X6840000Y11260045D01*
Y11220058D01*
X6820006Y11200065D01*
X6740032D01*
X6720039Y11220058D01*
Y11260045D01*
X6740032Y11280039D01*
X6760026D01*
X6780019Y11260045D01*
Y11200065D01*
X6840000Y11160078D02*
Y11120091D01*
Y11140084D01*
X6720039D01*
X6740032Y11160078D01*
X7340000Y12040000D02*
X7220039D01*
Y11980019D01*
X7240032Y11960026D01*
X7280019D01*
X7300013Y11980019D01*
Y12040000D01*
Y12000013D02*
X7340000Y11960026D01*
X7320006Y11920039D02*
X7340000Y11900045D01*
Y11860058D01*
X7320006Y11840065D01*
X7240032D01*
X7220039Y11860058D01*
Y11900045D01*
X7240032Y11920039D01*
X7260026D01*
X7280019Y11900045D01*
Y11840065D01*
X7340000Y11720104D02*
Y11800078D01*
X7260026Y11720104D01*
X7240032D01*
X7220039Y11740097D01*
Y11780084D01*
X7240032Y11800078D01*
X5380000Y12540000D02*
X5260039D01*
Y12480019D01*
X5280032Y12460026D01*
X5320019D01*
X5340013Y12480019D01*
Y12540000D01*
Y12500013D02*
X5380000Y12460026D01*
X5360006Y12420039D02*
X5380000Y12400045D01*
Y12360058D01*
X5360006Y12340065D01*
X5280032D01*
X5260039Y12360058D01*
Y12400045D01*
X5280032Y12420039D01*
X5300026D01*
X5320019Y12400045D01*
Y12340065D01*
X5280032Y12300078D02*
X5260039Y12280084D01*
Y12240097D01*
X5280032Y12220104D01*
X5300026D01*
X5320019Y12240097D01*
Y12260091D01*
Y12240097D01*
X5340013Y12220104D01*
X5360006D01*
X5380000Y12240097D01*
Y12280084D01*
X5360006Y12300078D01*
X4770000Y11637500D02*
X4650039D01*
Y11577519D01*
X4670032Y11557526D01*
X4710020D01*
X4730013Y11577519D01*
Y11637500D01*
Y11597513D02*
X4770000Y11557526D01*
X4750007Y11517539D02*
X4770000Y11497545D01*
Y11457558D01*
X4750007Y11437565D01*
X4670032D01*
X4650039Y11457558D01*
Y11497545D01*
X4670032Y11517539D01*
X4690026D01*
X4710020Y11497545D01*
Y11437565D01*
X4770000Y11337597D02*
X4650039D01*
X4710020Y11397578D01*
Y11317603D01*
X5830000Y13470000D02*
X5710039D01*
Y13410019D01*
X5730032Y13390025D01*
X5770019D01*
X5790013Y13410019D01*
Y13470000D01*
Y13430013D02*
X5830000Y13390025D01*
X5810006Y13350040D02*
X5830000Y13330045D01*
Y13290057D01*
X5810006Y13270065D01*
X5730032D01*
X5710039Y13290057D01*
Y13330045D01*
X5730032Y13350040D01*
X5750026D01*
X5770019Y13330045D01*
Y13270065D01*
X5710039Y13150104D02*
Y13230078D01*
X5770019D01*
X5750026Y13190091D01*
Y13170097D01*
X5770019Y13150104D01*
X5810006D01*
X5830000Y13170097D01*
Y13210085D01*
X5810006Y13230078D01*
X5900000Y11600000D02*
X5780039D01*
Y11540019D01*
X5800032Y11520026D01*
X5840019D01*
X5860013Y11540019D01*
Y11600000D01*
Y11560013D02*
X5900000Y11520026D01*
X5880006Y11480039D02*
X5900000Y11460045D01*
Y11420058D01*
X5880006Y11400065D01*
X5800032D01*
X5780039Y11420058D01*
Y11460045D01*
X5800032Y11480039D01*
X5820026D01*
X5840019Y11460045D01*
Y11400065D01*
X5780039Y11280103D02*
X5800032Y11320091D01*
X5840019Y11360078D01*
X5880006D01*
X5900000Y11340084D01*
Y11300097D01*
X5880006Y11280103D01*
X5860013D01*
X5840019Y11300097D01*
Y11360078D01*
X6920000Y10520000D02*
X6800039D01*
Y10460019D01*
X6820032Y10440026D01*
X6860019D01*
X6880013Y10460019D01*
Y10520000D01*
Y10480013D02*
X6920000Y10440026D01*
X6900006Y10400039D02*
X6920000Y10380045D01*
Y10340058D01*
X6900006Y10320065D01*
X6820032D01*
X6800039Y10340058D01*
Y10380045D01*
X6820032Y10400039D01*
X6840026D01*
X6860019Y10380045D01*
Y10320065D01*
X6820032Y10280078D02*
X6800039Y10260084D01*
Y10220097D01*
X6820032Y10200104D01*
X6840026D01*
X6860019Y10220097D01*
X6880013Y10200104D01*
X6900006D01*
X6920000Y10220097D01*
Y10260084D01*
X6900006Y10280078D01*
X6880013D01*
X6860019Y10260084D01*
X6840026Y10280078D01*
X6820032D01*
X6860019Y10260084D02*
Y10220097D01*
X6630000Y13300000D02*
X6510039D01*
Y13240019D01*
X6530032Y13220026D01*
X6570019D01*
X6590013Y13240019D01*
Y13300000D01*
Y13260013D02*
X6630000Y13220026D01*
X6610006Y13180038D02*
X6630000Y13160045D01*
Y13120058D01*
X6610006Y13100066D01*
X6530032D01*
X6510039Y13120058D01*
Y13160045D01*
X6530032Y13180038D01*
X6550026D01*
X6570019Y13160045D01*
Y13100066D01*
X6610006Y13060078D02*
X6630000Y13040083D01*
Y13000098D01*
X6610006Y12980104D01*
X6530032D01*
X6510039Y13000098D01*
Y13040083D01*
X6530032Y13060078D01*
X6550026D01*
X6570019Y13040083D01*
Y12980104D01*
X4270000Y7660000D02*
X4150039D01*
Y7600019D01*
X4170032Y7580026D01*
X4210020D01*
X4230013Y7600019D01*
Y7660000D01*
Y7620013D02*
X4270000Y7580026D01*
Y7540039D02*
Y7500052D01*
Y7520045D01*
X4150039D01*
X4170032Y7540039D01*
Y7440071D02*
X4150039Y7420077D01*
Y7380090D01*
X4170032Y7360097D01*
X4250006D01*
X4270000Y7380090D01*
Y7420077D01*
X4250006Y7440071D01*
X4170032D01*
Y7320110D02*
X4150039Y7300116D01*
Y7260129D01*
X4170032Y7240136D01*
X4250006D01*
X4270000Y7260129D01*
Y7300116D01*
X4250006Y7320110D01*
X4170032D01*
X5740000Y10710000D02*
X5620039D01*
Y10650019D01*
X5640032Y10630026D01*
X5680019D01*
X5700013Y10650019D01*
Y10710000D01*
Y10670013D02*
X5740000Y10630026D01*
Y10590039D02*
Y10550052D01*
Y10570045D01*
X5620039D01*
X5640032Y10590039D01*
Y10490071D02*
X5620039Y10470077D01*
Y10430090D01*
X5640032Y10410097D01*
X5720006D01*
X5740000Y10430090D01*
Y10470077D01*
X5720006Y10490071D01*
X5640032D01*
X5740000Y10370110D02*
Y10330123D01*
Y10350116D01*
X5620039D01*
X5640032Y10370110D01*
X5250000Y10720000D02*
X5130039D01*
Y10660019D01*
X5150032Y10640026D01*
X5190019D01*
X5210013Y10660019D01*
Y10720000D01*
Y10680013D02*
X5250000Y10640026D01*
Y10600039D02*
Y10560052D01*
Y10580045D01*
X5130039D01*
X5150032Y10600039D01*
Y10500071D02*
X5130039Y10480077D01*
Y10440090D01*
X5150032Y10420097D01*
X5230006D01*
X5250000Y10440090D01*
Y10480077D01*
X5230006Y10500071D01*
X5150032D01*
X5250000Y10300136D02*
Y10380110D01*
X5170026Y10300136D01*
X5150032D01*
X5130039Y10320129D01*
Y10360116D01*
X5150032Y10380110D01*
X4930000Y10720000D02*
X4810039D01*
Y10660019D01*
X4830032Y10640026D01*
X4870019D01*
X4890013Y10660019D01*
Y10720000D01*
Y10680013D02*
X4930000Y10640026D01*
Y10600039D02*
Y10560052D01*
Y10580045D01*
X4810039D01*
X4830032Y10600039D01*
Y10500071D02*
X4810039Y10480077D01*
Y10440090D01*
X4830032Y10420097D01*
X4910006D01*
X4930000Y10440090D01*
Y10480077D01*
X4910006Y10500071D01*
X4830032D01*
Y10380110D02*
X4810039Y10360116D01*
Y10320129D01*
X4830032Y10300136D01*
X4850026D01*
X4870019Y10320129D01*
Y10340123D01*
Y10320129D01*
X4890013Y10300136D01*
X4910006D01*
X4930000Y10320129D01*
Y10360116D01*
X4910006Y10380110D01*
X5200000Y10920000D02*
Y11039961D01*
X5140019D01*
X5120026Y11019968D01*
Y10979981D01*
X5140019Y10959987D01*
X5200000D01*
X5160013D02*
X5120026Y10920000D01*
X5080039D02*
X5040052D01*
X5060045D01*
Y11039961D01*
X5080039Y11019968D01*
X4980071D02*
X4960077Y11039961D01*
X4920090D01*
X4900097Y11019968D01*
Y10939994D01*
X4920090Y10920000D01*
X4960077D01*
X4980071Y10939994D01*
Y11019968D01*
X4800129Y10920000D02*
Y11039961D01*
X4860110Y10979981D01*
X4780136D01*
X6590000Y10950000D02*
X6470039D01*
Y10890019D01*
X6490032Y10870026D01*
X6530019D01*
X6550013Y10890019D01*
Y10950000D01*
Y10910013D02*
X6590000Y10870026D01*
Y10830039D02*
Y10790052D01*
Y10810045D01*
X6470039D01*
X6490032Y10830039D01*
Y10730071D02*
X6470039Y10710077D01*
Y10670090D01*
X6490032Y10650097D01*
X6570006D01*
X6590000Y10670090D01*
Y10710077D01*
X6570006Y10730071D01*
X6490032D01*
X6470039Y10530136D02*
X6490032Y10570123D01*
X6530019Y10610110D01*
X6570006D01*
X6590000Y10590116D01*
Y10550129D01*
X6570006Y10530136D01*
X6550013D01*
X6530019Y10550129D01*
Y10610110D01*
X6995000Y12655000D02*
Y12774961D01*
X6935019D01*
X6915026Y12754968D01*
Y12714981D01*
X6935019Y12694987D01*
X6995000D01*
X6955013D02*
X6915026Y12655000D01*
X6875039D02*
X6835052D01*
X6855045D01*
Y12774961D01*
X6875039Y12754968D01*
X6775071D02*
X6755077Y12774961D01*
X6715090D01*
X6695097Y12754968D01*
Y12674994D01*
X6715090Y12655000D01*
X6755077D01*
X6775071Y12674994D01*
Y12754968D01*
X6655110Y12774961D02*
X6575136D01*
Y12754968D01*
X6655110Y12674994D01*
Y12655000D01*
X5660000Y13050000D02*
X5540039D01*
Y12990019D01*
X5560032Y12970026D01*
X5600020D01*
X5620013Y12990019D01*
Y13050000D01*
Y13010013D02*
X5660000Y12970026D01*
Y12930038D02*
Y12890051D01*
Y12910045D01*
X5540039D01*
X5560032Y12930038D01*
Y12830070D02*
X5540039Y12810078D01*
Y12770091D01*
X5560032Y12750097D01*
X5640006D01*
X5660000Y12770091D01*
Y12810078D01*
X5640006Y12830070D01*
X5560032D01*
Y12710110D02*
X5540039Y12690116D01*
Y12650129D01*
X5560032Y12630136D01*
X5580026D01*
X5600020Y12650129D01*
X5620013Y12630136D01*
X5640006D01*
X5660000Y12650129D01*
Y12690116D01*
X5640006Y12710110D01*
X5620013D01*
X5600020Y12690116D01*
X5580026Y12710110D01*
X5560032D01*
X5600020Y12690116D02*
Y12650129D01*
X5540000Y11630000D02*
X5420039D01*
Y11570020D01*
X5440032Y11550026D01*
X5480020D01*
X5500013Y11570020D01*
Y11630000D01*
Y11590013D02*
X5540000Y11550026D01*
Y11510039D02*
Y11470052D01*
Y11490045D01*
X5420039D01*
X5440032Y11510039D01*
Y11410071D02*
X5420039Y11390078D01*
Y11350091D01*
X5440032Y11330097D01*
X5520006D01*
X5540000Y11350091D01*
Y11390078D01*
X5520006Y11410071D01*
X5440032D01*
X5520006Y11290110D02*
X5540000Y11270116D01*
Y11230129D01*
X5520006Y11210136D01*
X5440032D01*
X5420039Y11230129D01*
Y11270116D01*
X5440032Y11290110D01*
X5460026D01*
X5480020Y11270116D01*
Y11210136D01*
X5370000Y13489999D02*
X5250039D01*
Y13430019D01*
X5270032Y13410027D01*
X5310019D01*
X5330013Y13430019D01*
Y13489999D01*
Y13450014D02*
X5370000Y13410027D01*
Y13370039D02*
Y13330052D01*
Y13350044D01*
X5250039D01*
X5270032Y13370039D01*
X5370000Y13270071D02*
Y13230084D01*
Y13250076D01*
X5250039D01*
X5270032Y13270071D01*
Y13170103D02*
X5250039Y13150110D01*
Y13110123D01*
X5270032Y13090129D01*
X5350006D01*
X5370000Y13110123D01*
Y13150110D01*
X5350006Y13170103D01*
X5270032D01*
X5170000Y11640000D02*
X5050039D01*
Y11580020D01*
X5070032Y11560026D01*
X5110019D01*
X5130013Y11580020D01*
Y11640000D01*
Y11600013D02*
X5170000Y11560026D01*
Y11520039D02*
Y11480052D01*
Y11500045D01*
X5050039D01*
X5070032Y11520039D01*
X5170000Y11420071D02*
Y11380084D01*
Y11400078D01*
X5050039D01*
X5070032Y11420071D01*
X5170000Y11320103D02*
Y11280116D01*
Y11300110D01*
X5050039D01*
X5070032Y11320103D01*
X6530000Y12595000D02*
X6410039D01*
Y12535019D01*
X6430032Y12515026D01*
X6470019D01*
X6490013Y12535019D01*
Y12595000D01*
Y12555013D02*
X6530000Y12515026D01*
Y12475039D02*
Y12435052D01*
Y12455045D01*
X6410039D01*
X6430032Y12475039D01*
X6530000Y12375071D02*
Y12335084D01*
Y12355077D01*
X6410039D01*
X6430032Y12375071D01*
Y12275103D02*
X6410039Y12255110D01*
Y12215123D01*
X6430032Y12195129D01*
X6450026D01*
X6470019Y12215123D01*
Y12235116D01*
Y12215123D01*
X6490013Y12195129D01*
X6510006D01*
X6530000Y12215123D01*
Y12255110D01*
X6510006Y12275103D01*
X6600000Y13400000D02*
Y13519962D01*
X6540019D01*
X6520026Y13499968D01*
Y13459981D01*
X6540019Y13439987D01*
X6600000D01*
X6560013D02*
X6520026Y13400000D01*
X6480039D02*
X6440052D01*
X6460045D01*
Y13519962D01*
X6480039Y13499968D01*
X6380071Y13400000D02*
X6340084D01*
X6360077D01*
Y13519962D01*
X6380071Y13499968D01*
X6220123Y13400000D02*
Y13519962D01*
X6280103Y13459981D01*
X6200129D01*
X4070000Y7660000D02*
X3950039D01*
Y7600019D01*
X3970032Y7580026D01*
X4010019D01*
X4030013Y7600019D01*
Y7660000D01*
Y7620013D02*
X4070000Y7580026D01*
Y7540039D02*
Y7500052D01*
Y7520045D01*
X3950039D01*
X3970032Y7540039D01*
X4070000Y7440071D02*
Y7400084D01*
Y7420077D01*
X3950039D01*
X3970032Y7440071D01*
X3950039Y7260129D02*
Y7340103D01*
X4010019D01*
X3990026Y7300116D01*
Y7280123D01*
X4010019Y7260129D01*
X4050006D01*
X4070000Y7280123D01*
Y7320110D01*
X4050006Y7340103D01*
X7850032Y12470026D02*
X7830039Y12490019D01*
Y12530006D01*
X7850032Y12550000D01*
X7930006D01*
X7950000Y12530006D01*
Y12490019D01*
X7930006Y12470026D01*
X7950000Y12430039D02*
Y12390052D01*
Y12410045D01*
X7830039D01*
X7850032Y12430039D01*
X7950000Y12330071D02*
Y12290084D01*
Y12310077D01*
X7830039D01*
X7850032Y12330071D01*
X7830039Y12150129D02*
Y12230103D01*
X7890020D01*
X7870026Y12190116D01*
Y12170123D01*
X7890020Y12150129D01*
X7930006D01*
X7950000Y12170123D01*
Y12210110D01*
X7930006Y12230103D01*
X10130032Y12320026D02*
X10110039Y12340020D01*
Y12380006D01*
X10130032Y12400000D01*
X10210007D01*
X10230000Y12380006D01*
Y12340020D01*
X10210007Y12320026D01*
X10230000Y12280039D02*
Y12240052D01*
Y12260045D01*
X10110039D01*
X10130032Y12280039D01*
X10110039Y12100097D02*
Y12180071D01*
X10170020D01*
X10150026Y12140084D01*
Y12120091D01*
X10170020Y12100097D01*
X10210007D01*
X10230000Y12120091D01*
Y12160078D01*
X10210007Y12180071D01*
Y12060110D02*
X10230000Y12040116D01*
Y12000129D01*
X10210007Y11980136D01*
X10130032D01*
X10110039Y12000129D01*
Y12040116D01*
X10130032Y12060110D01*
X10150026D01*
X10170020Y12040116D01*
Y11980136D01*
X9970032Y12320026D02*
X9950039Y12340020D01*
Y12380006D01*
X9970032Y12400000D01*
X10050006D01*
X10070000Y12380006D01*
Y12340020D01*
X10050006Y12320026D01*
X10070000Y12280039D02*
Y12240052D01*
Y12260045D01*
X9950039D01*
X9970032Y12280039D01*
X9950039Y12100097D02*
X9970032Y12140084D01*
X10010019Y12180071D01*
X10050006D01*
X10070000Y12160078D01*
Y12120091D01*
X10050006Y12100097D01*
X10030013D01*
X10010019Y12120091D01*
Y12180071D01*
X9970032Y12060110D02*
X9950039Y12040116D01*
Y12000129D01*
X9970032Y11980136D01*
X10050006D01*
X10070000Y12000129D01*
Y12040116D01*
X10050006Y12060110D01*
X9970032D01*
X9770026Y10809968D02*
X9790020Y10829961D01*
X9830007D01*
X9850000Y10809968D01*
Y10729994D01*
X9830007Y10710000D01*
X9790020D01*
X9770026Y10729994D01*
X9730039Y10710000D02*
X9690052D01*
X9710045D01*
Y10829961D01*
X9730039Y10809968D01*
X9550097Y10829961D02*
X9590084Y10809968D01*
X9630071Y10769980D01*
Y10729994D01*
X9610078Y10710000D01*
X9570091D01*
X9550097Y10729994D01*
Y10749987D01*
X9570091Y10769980D01*
X9630071D01*
X9510110Y10710000D02*
X9470123D01*
X9490116D01*
Y10829961D01*
X9510110Y10809968D01*
X10610032Y10290026D02*
X10590039Y10310020D01*
Y10350006D01*
X10610032Y10370000D01*
X10690006D01*
X10710000Y10350006D01*
Y10310020D01*
X10690006Y10290026D01*
X10710000Y10250039D02*
Y10210052D01*
Y10230045D01*
X10590039D01*
X10610032Y10250039D01*
X10590039Y10070097D02*
X10610032Y10110084D01*
X10650019Y10150071D01*
X10690006D01*
X10710000Y10130078D01*
Y10090091D01*
X10690006Y10070097D01*
X10670013D01*
X10650019Y10090091D01*
Y10150071D01*
X10710000Y9970129D02*
X10590039D01*
X10650019Y10030110D01*
Y9950136D01*
X11450032Y10890026D02*
X11430039Y10910019D01*
Y10950006D01*
X11450032Y10970000D01*
X11530006D01*
X11550000Y10950006D01*
Y10910019D01*
X11530006Y10890026D01*
X11550000Y10850039D02*
Y10810052D01*
Y10830045D01*
X11430039D01*
X11450032Y10850039D01*
X11430039Y10670097D02*
X11450032Y10710084D01*
X11490019Y10750071D01*
X11530006D01*
X11550000Y10730077D01*
Y10690090D01*
X11530006Y10670097D01*
X11510013D01*
X11490019Y10690090D01*
Y10750071D01*
X11430039Y10550136D02*
X11450032Y10590123D01*
X11490019Y10630110D01*
X11530006D01*
X11550000Y10610116D01*
Y10570129D01*
X11530006Y10550136D01*
X11510013D01*
X11490019Y10570129D01*
Y10630110D01*
X10740026Y12169968D02*
X10760019Y12189961D01*
X10800006D01*
X10820000Y12169968D01*
Y12089994D01*
X10800006Y12070000D01*
X10760019D01*
X10740026Y12089994D01*
X10700039Y12070000D02*
X10660052D01*
X10680045D01*
Y12189961D01*
X10700039Y12169968D01*
X10520097Y12189961D02*
X10560084Y12169968D01*
X10600071Y12129981D01*
Y12089994D01*
X10580077Y12070000D01*
X10540090D01*
X10520097Y12089994D01*
Y12109987D01*
X10540090Y12129981D01*
X10600071D01*
X10480110Y12169968D02*
X10460116Y12189961D01*
X10420129D01*
X10400136Y12169968D01*
Y12149974D01*
X10420129Y12129981D01*
X10400136Y12109987D01*
Y12089994D01*
X10420129Y12070000D01*
X10460116D01*
X10480110Y12089994D01*
Y12109987D01*
X10460116Y12129981D01*
X10480110Y12149974D01*
Y12169968D01*
X10460116Y12129981D02*
X10420129D01*
X11110026Y11749968D02*
X11130019Y11769961D01*
X11170006D01*
X11190000Y11749968D01*
Y11669994D01*
X11170006Y11650000D01*
X11130019D01*
X11110026Y11669994D01*
X11070039Y11650000D02*
X11030052D01*
X11050045D01*
Y11769961D01*
X11070039Y11749968D01*
X10970071Y11769961D02*
X10890097D01*
Y11749968D01*
X10970071Y11669994D01*
Y11650000D01*
X10850110Y11749968D02*
X10830116Y11769961D01*
X10790129D01*
X10770136Y11749968D01*
Y11669994D01*
X10790129Y11650000D01*
X10830116D01*
X10850110Y11669994D01*
Y11749968D01*
X11040026Y11449968D02*
X11060020Y11469961D01*
X11100007D01*
X11120000Y11449968D01*
Y11369994D01*
X11100007Y11350000D01*
X11060020D01*
X11040026Y11369994D01*
X11000039Y11350000D02*
X10960052D01*
X10980045D01*
Y11469961D01*
X11000039Y11449968D01*
X10900071Y11469961D02*
X10820097D01*
Y11449968D01*
X10900071Y11369994D01*
Y11350000D01*
X10700136D02*
X10780110D01*
X10700136Y11429974D01*
Y11449968D01*
X10720129Y11469961D01*
X10760116D01*
X10780110Y11449968D01*
X10470026Y11569968D02*
X10490019Y11589961D01*
X10530006D01*
X10550000Y11569968D01*
Y11489994D01*
X10530006Y11470000D01*
X10490019D01*
X10470026Y11489994D01*
X10430039Y11470000D02*
X10390052D01*
X10410045D01*
Y11589961D01*
X10430039Y11569968D01*
X10330071Y11589961D02*
X10250097D01*
Y11569968D01*
X10330071Y11489994D01*
Y11470000D01*
X10210110Y11569968D02*
X10190116Y11589961D01*
X10150129D01*
X10130136Y11569968D01*
Y11549974D01*
X10150129Y11529980D01*
X10170123D01*
X10150129D01*
X10130136Y11509987D01*
Y11489994D01*
X10150129Y11470000D01*
X10190116D01*
X10210110Y11489994D01*
X10470026Y11409968D02*
X10490019Y11429961D01*
X10530006D01*
X10550000Y11409968D01*
Y11329994D01*
X10530006Y11310000D01*
X10490019D01*
X10470026Y11329994D01*
X10430039Y11310000D02*
X10390052D01*
X10410045D01*
Y11429961D01*
X10430039Y11409968D01*
X10330071Y11429961D02*
X10250097D01*
Y11409968D01*
X10330071Y11329994D01*
Y11310000D01*
X10150129D02*
Y11429961D01*
X10210110Y11369981D01*
X10130136D01*
X9570032Y11940026D02*
X9550039Y11960020D01*
Y12000006D01*
X9570032Y12020000D01*
X9650006D01*
X9670000Y12000006D01*
Y11960020D01*
X9650006Y11940026D01*
X9670000Y11900039D02*
Y11860052D01*
Y11880045D01*
X9550039D01*
X9570032Y11900039D01*
X9550039Y11800071D02*
Y11720097D01*
X9570032D01*
X9650006Y11800071D01*
X9670000D01*
X9550039Y11600136D02*
Y11680110D01*
X9610019D01*
X9590026Y11640123D01*
Y11620129D01*
X9610019Y11600136D01*
X9650006D01*
X9670000Y11620129D01*
Y11660116D01*
X9650006Y11680110D01*
X3740032Y11620026D02*
X3720039Y11640019D01*
Y11680006D01*
X3740032Y11700000D01*
X3820006D01*
X3840000Y11680006D01*
Y11640019D01*
X3820006Y11620026D01*
X3840000Y11580039D02*
Y11540052D01*
Y11560045D01*
X3720039D01*
X3740032Y11580039D01*
X3820006Y11480071D02*
X3840000Y11460077D01*
Y11420090D01*
X3820006Y11400097D01*
X3740032D01*
X3720039Y11420090D01*
Y11460077D01*
X3740032Y11480071D01*
X3760026D01*
X3780019Y11460077D01*
Y11400097D01*
X3820006Y11360110D02*
X3840000Y11340116D01*
Y11300129D01*
X3820006Y11280136D01*
X3740032D01*
X3720039Y11300129D01*
Y11340116D01*
X3740032Y11360110D01*
X3760026D01*
X3780019Y11340116D01*
Y11280136D01*
X3140032Y10180026D02*
X3120039Y10200019D01*
Y10240006D01*
X3140032Y10260000D01*
X3220007D01*
X3240000Y10240006D01*
Y10200019D01*
X3220007Y10180026D01*
X3240000Y10060065D02*
Y10140039D01*
X3160026Y10060065D01*
X3140032D01*
X3120039Y10080058D01*
Y10120045D01*
X3140032Y10140039D01*
Y10020078D02*
X3120039Y10000084D01*
Y9960097D01*
X3140032Y9940104D01*
X3220007D01*
X3240000Y9960097D01*
Y10000084D01*
X3220007Y10020078D01*
X3140032D01*
Y9900117D02*
X3120039Y9880123D01*
Y9840136D01*
X3140032Y9820142D01*
X3220007D01*
X3240000Y9840136D01*
Y9880123D01*
X3220007Y9900117D01*
X3140032D01*
X3460032Y12070026D02*
X3440039Y12090020D01*
Y12130006D01*
X3460032Y12150000D01*
X3540006D01*
X3560000Y12130006D01*
Y12090020D01*
X3540006Y12070026D01*
X3560000Y11950065D02*
Y12030039D01*
X3480026Y11950065D01*
X3460032D01*
X3440039Y11970058D01*
Y12010045D01*
X3460032Y12030039D01*
Y11910078D02*
X3440039Y11890084D01*
Y11850097D01*
X3460032Y11830104D01*
X3540006D01*
X3560000Y11850097D01*
Y11890084D01*
X3540006Y11910078D01*
X3460032D01*
X3560000Y11710142D02*
Y11790117D01*
X3480026Y11710142D01*
X3460032D01*
X3440039Y11730136D01*
Y11770123D01*
X3460032Y11790117D01*
X3310032Y11590026D02*
X3290039Y11610019D01*
Y11650006D01*
X3310032Y11670000D01*
X3390006D01*
X3410000Y11650006D01*
Y11610019D01*
X3390006Y11590026D01*
X3410000Y11470065D02*
Y11550039D01*
X3330026Y11470065D01*
X3310032D01*
X3290039Y11490058D01*
Y11530045D01*
X3310032Y11550039D01*
Y11430078D02*
X3290039Y11410084D01*
Y11370097D01*
X3310032Y11350104D01*
X3390006D01*
X3410000Y11370097D01*
Y11410084D01*
X3390006Y11430078D01*
X3310032D01*
Y11310117D02*
X3290039Y11290123D01*
Y11250136D01*
X3310032Y11230142D01*
X3330026D01*
X3350019Y11250136D01*
Y11270130D01*
Y11250136D01*
X3370013Y11230142D01*
X3390006D01*
X3410000Y11250136D01*
Y11290123D01*
X3390006Y11310117D01*
X4070032Y11150026D02*
X4050039Y11170019D01*
Y11210006D01*
X4070032Y11230000D01*
X4150006D01*
X4170000Y11210006D01*
Y11170019D01*
X4150006Y11150026D01*
X4170000Y11030065D02*
Y11110039D01*
X4090026Y11030065D01*
X4070032D01*
X4050039Y11050058D01*
Y11090045D01*
X4070032Y11110039D01*
Y10990078D02*
X4050039Y10970084D01*
Y10930097D01*
X4070032Y10910103D01*
X4150006D01*
X4170000Y10930097D01*
Y10970084D01*
X4150006Y10990078D01*
X4070032D01*
X4170000Y10810136D02*
X4050039D01*
X4110019Y10870116D01*
Y10790142D01*
X4590026Y10229968D02*
X4610019Y10249961D01*
X4650006D01*
X4670000Y10229968D01*
Y10149994D01*
X4650006Y10130000D01*
X4610019D01*
X4590026Y10149994D01*
X4470065Y10130000D02*
X4550039D01*
X4470065Y10209974D01*
Y10229968D01*
X4490058Y10249961D01*
X4530045D01*
X4550039Y10229968D01*
X4430078D02*
X4410084Y10249961D01*
X4370097D01*
X4350104Y10229968D01*
Y10149994D01*
X4370097Y10130000D01*
X4410084D01*
X4430078Y10149994D01*
Y10229968D01*
X4230142Y10249961D02*
X4310117D01*
Y10189981D01*
X4270130Y10209974D01*
X4250136D01*
X4230142Y10189981D01*
Y10149994D01*
X4250136Y10130000D01*
X4290123D01*
X4310117Y10149994D01*
X3900032Y12050026D02*
X3880039Y12070020D01*
Y12110007D01*
X3900032Y12130000D01*
X3980006D01*
X4000000Y12110007D01*
Y12070020D01*
X3980006Y12050026D01*
X4000000Y11930065D02*
Y12010039D01*
X3920026Y11930065D01*
X3900032D01*
X3880039Y11950058D01*
Y11990045D01*
X3900032Y12010039D01*
Y11890078D02*
X3880039Y11870084D01*
Y11830097D01*
X3900032Y11810104D01*
X3980006D01*
X4000000Y11830097D01*
Y11870084D01*
X3980006Y11890078D01*
X3900032D01*
X3880039Y11690142D02*
X3900032Y11730130D01*
X3940019Y11770117D01*
X3980006D01*
X4000000Y11750123D01*
Y11710136D01*
X3980006Y11690142D01*
X3960013D01*
X3940019Y11710136D01*
Y11770117D01*
X3140032Y10720026D02*
X3120039Y10740019D01*
Y10780006D01*
X3140032Y10800000D01*
X3220007D01*
X3240000Y10780006D01*
Y10740019D01*
X3220007Y10720026D01*
X3240000Y10600065D02*
Y10680039D01*
X3160026Y10600065D01*
X3140032D01*
X3120039Y10620058D01*
Y10660045D01*
X3140032Y10680039D01*
Y10560078D02*
X3120039Y10540084D01*
Y10500097D01*
X3140032Y10480103D01*
X3220007D01*
X3240000Y10500097D01*
Y10540084D01*
X3220007Y10560078D01*
X3140032D01*
X3120039Y10440117D02*
Y10360142D01*
X3140032D01*
X3220007Y10440117D01*
X3240000D01*
X3210032Y9360026D02*
X3190038Y9380020D01*
Y9420007D01*
X3210032Y9440000D01*
X3290006D01*
X3309999Y9420007D01*
Y9380020D01*
X3290006Y9360026D01*
X3309999Y9240065D02*
Y9320039D01*
X3230025Y9240065D01*
X3210032D01*
X3190038Y9260058D01*
Y9300045D01*
X3210032Y9320039D01*
Y9200078D02*
X3190038Y9180084D01*
Y9140097D01*
X3210032Y9120104D01*
X3290006D01*
X3309999Y9140097D01*
Y9180084D01*
X3290006Y9200078D01*
X3210032D01*
Y9080117D02*
X3190038Y9060123D01*
Y9020136D01*
X3210032Y9000143D01*
X3230025D01*
X3250019Y9020136D01*
X3270013Y9000143D01*
X3290006D01*
X3309999Y9020136D01*
Y9060123D01*
X3290006Y9080117D01*
X3270013D01*
X3250019Y9060123D01*
X3230025Y9080117D01*
X3210032D01*
X3250019Y9060123D02*
Y9020136D01*
X3740032Y10760026D02*
X3720039Y10780019D01*
Y10820006D01*
X3740032Y10840000D01*
X3820006D01*
X3840000Y10820006D01*
Y10780019D01*
X3820006Y10760026D01*
X3840000Y10640065D02*
Y10720039D01*
X3760026Y10640065D01*
X3740032D01*
X3720039Y10660058D01*
Y10700045D01*
X3740032Y10720039D01*
Y10600078D02*
X3720039Y10580084D01*
Y10540097D01*
X3740032Y10520103D01*
X3820006D01*
X3840000Y10540097D01*
Y10580084D01*
X3820006Y10600078D01*
X3740032D01*
X3820006Y10480116D02*
X3840000Y10460123D01*
Y10420136D01*
X3820006Y10400142D01*
X3740032D01*
X3720039Y10420136D01*
Y10460123D01*
X3740032Y10480116D01*
X3760026D01*
X3780019Y10460123D01*
Y10400142D01*
X10380039Y10350000D02*
X10500000D01*
Y10270026D01*
X10380039Y10150065D02*
Y10230039D01*
X10440020D01*
X10420026Y10190052D01*
Y10170058D01*
X10440020Y10150065D01*
X10480006D01*
X10500000Y10170058D01*
Y10210045D01*
X10480006Y10230039D01*
X10770039Y10450000D02*
X10890000D01*
Y10370026D01*
X10770039Y10250065D02*
X10790032Y10290052D01*
X10830019Y10330039D01*
X10870006D01*
X10890000Y10310045D01*
Y10270058D01*
X10870006Y10250065D01*
X10850013D01*
X10830019Y10270058D01*
Y10330039D01*
X10700039Y11170000D02*
X10820000D01*
Y11090026D01*
X10700039Y11050039D02*
Y10970065D01*
X10720032D01*
X10800006Y11050039D01*
X10820000D01*
X11150039Y12155700D02*
X11270000D01*
Y12075726D01*
X11170032Y12035739D02*
X11150039Y12015745D01*
Y11975758D01*
X11170032Y11955765D01*
X11190026D01*
X11210019Y11975758D01*
X11230013Y11955765D01*
X11250006D01*
X11270000Y11975758D01*
Y12015745D01*
X11250006Y12035739D01*
X11230013D01*
X11210019Y12015745D01*
X11190026Y12035739D01*
X11170032D01*
X11210019Y12015745D02*
Y11975758D01*
X10050000Y11180000D02*
X9930039D01*
Y11120019D01*
X9950032Y11100026D01*
X9990019D01*
X10010013Y11120019D01*
Y11180000D01*
Y11140013D02*
X10050000Y11100026D01*
X9950032Y11060039D02*
X9930039Y11040045D01*
Y11000058D01*
X9950032Y10980065D01*
X9970026D01*
X9990019Y11000058D01*
X10010013Y10980065D01*
X10030006D01*
X10050000Y11000058D01*
Y11040045D01*
X10030006Y11060039D01*
X10010013D01*
X9990019Y11040045D01*
X9970026Y11060039D01*
X9950032D01*
X9990019Y11040045D02*
Y11000058D01*
X10050000Y10940078D02*
Y10900091D01*
Y10920084D01*
X9930039D01*
X9950032Y10940078D01*
X10207500Y10380000D02*
X10087539D01*
Y10320019D01*
X10107532Y10300026D01*
X10147519D01*
X10167513Y10320019D01*
Y10380000D01*
Y10340013D02*
X10207500Y10300026D01*
X10107532Y10260039D02*
X10087539Y10240045D01*
Y10200058D01*
X10107532Y10180065D01*
X10127526D01*
X10147519Y10200058D01*
X10167513Y10180065D01*
X10187506D01*
X10207500Y10200058D01*
Y10240045D01*
X10187506Y10260039D01*
X10167513D01*
X10147519Y10240045D01*
X10127526Y10260039D01*
X10107532D01*
X10147519Y10240045D02*
Y10200058D01*
X10087539Y10060104D02*
X10107532Y10100091D01*
X10147519Y10140078D01*
X10187506D01*
X10207500Y10120084D01*
Y10080097D01*
X10187506Y10060104D01*
X10167513D01*
X10147519Y10080097D01*
Y10140078D01*
X11650000Y11410000D02*
X11530039D01*
Y11350019D01*
X11550032Y11330026D01*
X11590019D01*
X11610013Y11350019D01*
Y11410000D01*
Y11370013D02*
X11650000Y11330026D01*
X11550032Y11290039D02*
X11530039Y11270045D01*
Y11230058D01*
X11550032Y11210065D01*
X11570026D01*
X11590019Y11230058D01*
X11610013Y11210065D01*
X11630006D01*
X11650000Y11230058D01*
Y11270045D01*
X11630006Y11290039D01*
X11610013D01*
X11590019Y11270045D01*
X11570026Y11290039D01*
X11550032D01*
X11590019Y11270045D02*
Y11230058D01*
X11530039Y11170078D02*
Y11090104D01*
X11550032D01*
X11630006Y11170078D01*
X11650000D01*
Y11540000D02*
Y11659961D01*
X11590019D01*
X11570026Y11639968D01*
Y11599981D01*
X11590019Y11579987D01*
X11650000D01*
X11610013D02*
X11570026Y11540000D01*
X11530039Y11639968D02*
X11510045Y11659961D01*
X11470058D01*
X11450065Y11639968D01*
Y11619974D01*
X11470058Y11599981D01*
X11450065Y11579987D01*
Y11559994D01*
X11470058Y11540000D01*
X11510045D01*
X11530039Y11559994D01*
Y11579987D01*
X11510045Y11599981D01*
X11530039Y11619974D01*
Y11639968D01*
X11510045Y11599981D02*
X11470058D01*
X11410078Y11639968D02*
X11390084Y11659961D01*
X11350097D01*
X11330104Y11639968D01*
Y11619974D01*
X11350097Y11599981D01*
X11330104Y11579987D01*
Y11559994D01*
X11350097Y11540000D01*
X11390084D01*
X11410078Y11559994D01*
Y11579987D01*
X11390084Y11599981D01*
X11410078Y11619974D01*
Y11639968D01*
X11390084Y11599981D02*
X11350097D01*
X9470000Y11930000D02*
X9350039D01*
Y11870019D01*
X9370032Y11850026D01*
X9410020D01*
X9430013Y11870019D01*
Y11930000D01*
Y11890013D02*
X9470000Y11850026D01*
X9370032Y11810039D02*
X9350039Y11790045D01*
Y11750058D01*
X9370032Y11730065D01*
X9390026D01*
X9410020Y11750058D01*
X9430013Y11730065D01*
X9450006D01*
X9470000Y11750058D01*
Y11790045D01*
X9450006Y11810039D01*
X9430013D01*
X9410020Y11790045D01*
X9390026Y11810039D01*
X9370032D01*
X9410020Y11790045D02*
Y11750058D01*
X9450006Y11690078D02*
X9470000Y11670084D01*
Y11630097D01*
X9450006Y11610104D01*
X9370032D01*
X9350039Y11630097D01*
Y11670084D01*
X9370032Y11690078D01*
X9390026D01*
X9410020Y11670084D01*
Y11610104D01*
X3240000Y11310000D02*
X3120039D01*
Y11250019D01*
X3140032Y11230026D01*
X3180020D01*
X3200013Y11250019D01*
Y11310000D01*
Y11270013D02*
X3240000Y11230026D01*
Y11190039D02*
Y11150052D01*
Y11170045D01*
X3120039D01*
X3140032Y11190039D01*
X3240000Y11090071D02*
Y11050084D01*
Y11070077D01*
X3120039D01*
X3140032Y11090071D01*
X3120039Y10990103D02*
Y10910129D01*
X3140032D01*
X3220007Y10990103D01*
X3240000D01*
X2860000Y12920000D02*
X2740039D01*
Y12860019D01*
X2760032Y12840025D01*
X2800020D01*
X2820013Y12860019D01*
Y12920000D01*
Y12880013D02*
X2860000Y12840025D01*
Y12800040D02*
Y12760052D01*
Y12780045D01*
X2740039D01*
X2760032Y12800040D01*
X2860000Y12700071D02*
Y12660084D01*
Y12680078D01*
X2740039D01*
X2760032Y12700071D01*
Y12600103D02*
X2740039Y12580110D01*
Y12540123D01*
X2760032Y12520129D01*
X2780026D01*
X2800020Y12540123D01*
X2820013Y12520129D01*
X2840007D01*
X2860000Y12540123D01*
Y12580110D01*
X2840007Y12600103D01*
X2820013D01*
X2800020Y12580110D01*
X2780026Y12600103D01*
X2760032D01*
X2800020Y12580110D02*
Y12540123D01*
X3990000Y13039999D02*
X3870039D01*
Y12980020D01*
X3890032Y12960027D01*
X3930019D01*
X3950013Y12980020D01*
Y13039999D01*
Y13000014D02*
X3990000Y12960027D01*
Y12920039D02*
Y12880052D01*
Y12900044D01*
X3870039D01*
X3890032Y12920039D01*
X3990000Y12820071D02*
Y12780084D01*
Y12800078D01*
X3870039D01*
X3890032Y12820071D01*
X3970006Y12720103D02*
X3990000Y12700110D01*
Y12660123D01*
X3970006Y12640129D01*
X3890032D01*
X3870039Y12660123D01*
Y12700110D01*
X3890032Y12720103D01*
X3910026D01*
X3930019Y12700110D01*
Y12640129D01*
X2945000Y10432500D02*
X2825039D01*
Y10372519D01*
X2845032Y10352526D01*
X2885019D01*
X2905013Y10372519D01*
Y10432500D01*
Y10392513D02*
X2945000Y10352526D01*
Y10312539D02*
Y10272552D01*
Y10292545D01*
X2825039D01*
X2845032Y10312539D01*
X2945000Y10132597D02*
Y10212571D01*
X2865026Y10132597D01*
X2845032D01*
X2825039Y10152590D01*
Y10192577D01*
X2845032Y10212571D01*
X2945000Y10092610D02*
Y10052623D01*
Y10072616D01*
X2825039D01*
X2845032Y10092610D01*
X3830000Y9880000D02*
Y9999961D01*
X3770019D01*
X3750026Y9979968D01*
Y9939981D01*
X3770019Y9919987D01*
X3830000D01*
X3790013D02*
X3750026Y9880000D01*
X3710039D02*
X3670052D01*
X3690045D01*
Y9999961D01*
X3710039Y9979968D01*
X3530097Y9880000D02*
X3610071D01*
X3530097Y9959974D01*
Y9979968D01*
X3550090Y9999961D01*
X3590077D01*
X3610071Y9979968D01*
X3430129Y9880000D02*
Y9999961D01*
X3490110Y9939981D01*
X3410136D01*
X3750000Y12570000D02*
X3630039D01*
Y12510019D01*
X3650032Y12490026D01*
X3690020D01*
X3710013Y12510019D01*
Y12570000D01*
Y12530013D02*
X3750000Y12490026D01*
Y12450039D02*
Y12410052D01*
Y12430045D01*
X3630039D01*
X3650032Y12450039D01*
X3750000Y12270097D02*
Y12350071D01*
X3670026Y12270097D01*
X3650032D01*
X3630039Y12290090D01*
Y12330077D01*
X3650032Y12350071D01*
X3630039Y12150136D02*
Y12230110D01*
X3690020D01*
X3670026Y12190123D01*
Y12170129D01*
X3690020Y12150136D01*
X3730007D01*
X3750000Y12170129D01*
Y12210116D01*
X3730007Y12230110D01*
X3090000Y9430000D02*
X2970039D01*
Y9370019D01*
X2990032Y9350026D01*
X3030019D01*
X3050013Y9370019D01*
Y9430000D01*
Y9390013D02*
X3090000Y9350026D01*
Y9310039D02*
Y9270052D01*
Y9290045D01*
X2970039D01*
X2990032Y9310039D01*
X3090000Y9130097D02*
Y9210071D01*
X3010026Y9130097D01*
X2990032D01*
X2970039Y9150090D01*
Y9190077D01*
X2990032Y9210071D01*
X2970039Y9010136D02*
X2990032Y9050123D01*
X3030019Y9090110D01*
X3070006D01*
X3090000Y9070116D01*
Y9030129D01*
X3070006Y9010136D01*
X3050013D01*
X3030019Y9030129D01*
Y9090110D01*
X3560000Y9430000D02*
X3440039D01*
Y9370019D01*
X3460032Y9350026D01*
X3500019D01*
X3520013Y9370019D01*
Y9430000D01*
Y9390013D02*
X3560000Y9350026D01*
Y9310039D02*
Y9270052D01*
Y9290045D01*
X3440039D01*
X3460032Y9310039D01*
X3560000Y9130097D02*
Y9210071D01*
X3480026Y9130097D01*
X3460032D01*
X3440039Y9150090D01*
Y9190077D01*
X3460032Y9210071D01*
X3440039Y9090110D02*
Y9010136D01*
X3460032D01*
X3540006Y9090110D01*
X3560000D01*
X2920000Y9430000D02*
X2800039D01*
Y9370019D01*
X2820032Y9350026D01*
X2860019D01*
X2880013Y9370019D01*
Y9430000D01*
Y9390013D02*
X2920000Y9350026D01*
Y9310039D02*
Y9270052D01*
Y9290045D01*
X2800039D01*
X2820032Y9310039D01*
X2920000Y9130097D02*
Y9210071D01*
X2840026Y9130097D01*
X2820032D01*
X2800039Y9150090D01*
Y9190077D01*
X2820032Y9210071D01*
Y9090110D02*
X2800039Y9070116D01*
Y9030129D01*
X2820032Y9010136D01*
X2840026D01*
X2860019Y9030129D01*
X2880013Y9010136D01*
X2900006D01*
X2920000Y9030129D01*
Y9070116D01*
X2900006Y9090110D01*
X2880013D01*
X2860019Y9070116D01*
X2840026Y9090110D01*
X2820032D01*
X2860019Y9070116D02*
Y9030129D01*
X4787500Y9427500D02*
Y9547461D01*
X4727519D01*
X4707526Y9527468D01*
Y9487480D01*
X4727519Y9467487D01*
X4787500D01*
X4747513D02*
X4707526Y9427500D01*
X4667539D02*
X4627552D01*
X4647545D01*
Y9547461D01*
X4667539Y9527468D01*
X4487597Y9427500D02*
X4567571D01*
X4487597Y9507474D01*
Y9527468D01*
X4507590Y9547461D01*
X4547577D01*
X4567571Y9527468D01*
X4447610Y9447493D02*
X4427616Y9427500D01*
X4387629D01*
X4367636Y9447493D01*
Y9527468D01*
X4387629Y9547461D01*
X4427616D01*
X4447610Y9527468D01*
Y9507474D01*
X4427616Y9487480D01*
X4367636D01*
X3710000Y13489999D02*
X3590039D01*
Y13430019D01*
X3610032Y13410027D01*
X3650019D01*
X3670013Y13430019D01*
Y13489999D01*
Y13450014D02*
X3710000Y13410027D01*
Y13370039D02*
Y13330052D01*
Y13350044D01*
X3590039D01*
X3610032Y13370039D01*
Y13270071D02*
X3590039Y13250076D01*
Y13210091D01*
X3610032Y13190097D01*
X3630026D01*
X3650019Y13210091D01*
Y13230084D01*
Y13210091D01*
X3670013Y13190097D01*
X3690006D01*
X3710000Y13210091D01*
Y13250076D01*
X3690006Y13270071D01*
X3610032Y13150110D02*
X3590039Y13130116D01*
Y13090129D01*
X3610032Y13070135D01*
X3690006D01*
X3710000Y13090129D01*
Y13130116D01*
X3690006Y13150110D01*
X3610032D01*
X4180000Y13489999D02*
X4060039D01*
Y13430019D01*
X4080032Y13410027D01*
X4120019D01*
X4140013Y13430019D01*
Y13489999D01*
Y13450014D02*
X4180000Y13410027D01*
Y13370039D02*
Y13330052D01*
Y13350044D01*
X4060039D01*
X4080032Y13370039D01*
Y13270071D02*
X4060039Y13250076D01*
Y13210091D01*
X4080032Y13190097D01*
X4100026D01*
X4120019Y13210091D01*
Y13230084D01*
Y13210091D01*
X4140013Y13190097D01*
X4160006D01*
X4180000Y13210091D01*
Y13250076D01*
X4160006Y13270071D01*
X4180000Y13150110D02*
Y13110123D01*
Y13130116D01*
X4060039D01*
X4080032Y13150110D01*
X3570000Y11250000D02*
X3450039D01*
Y11190020D01*
X3470032Y11170026D01*
X3510019D01*
X3530013Y11190020D01*
Y11250000D01*
Y11210013D02*
X3570000Y11170026D01*
Y11130039D02*
Y11090052D01*
Y11110045D01*
X3450039D01*
X3470032Y11130039D01*
Y11030071D02*
X3450039Y11010078D01*
Y10970091D01*
X3470032Y10950097D01*
X3490026D01*
X3510019Y10970091D01*
Y10990084D01*
Y10970091D01*
X3530013Y10950097D01*
X3550006D01*
X3570000Y10970091D01*
Y11010078D01*
X3550006Y11030071D01*
X3470032Y10910110D02*
X3450039Y10890116D01*
Y10850129D01*
X3470032Y10830136D01*
X3490026D01*
X3510019Y10850129D01*
Y10870123D01*
Y10850129D01*
X3530013Y10830136D01*
X3550006D01*
X3570000Y10850129D01*
Y10890116D01*
X3550006Y10910110D01*
X3560000Y13050000D02*
X3440039D01*
Y12990019D01*
X3460032Y12970026D01*
X3500019D01*
X3520013Y12990019D01*
Y13050000D01*
Y13010013D02*
X3560000Y12970026D01*
Y12930038D02*
Y12890051D01*
Y12910045D01*
X3440039D01*
X3460032Y12930038D01*
Y12830070D02*
X3440039Y12810078D01*
Y12770091D01*
X3460032Y12750097D01*
X3480026D01*
X3500019Y12770091D01*
Y12790084D01*
Y12770091D01*
X3520013Y12750097D01*
X3540006D01*
X3560000Y12770091D01*
Y12810078D01*
X3540006Y12830070D01*
X3440039Y12630136D02*
Y12710110D01*
X3500019D01*
X3480026Y12670123D01*
Y12650129D01*
X3500019Y12630136D01*
X3540006D01*
X3560000Y12650129D01*
Y12690116D01*
X3540006Y12710110D01*
X4350000Y11550000D02*
X4230039D01*
Y11490019D01*
X4250032Y11470026D01*
X4290020D01*
X4310013Y11490019D01*
Y11550000D01*
Y11510013D02*
X4350000Y11470026D01*
Y11430039D02*
Y11390052D01*
Y11410045D01*
X4230039D01*
X4250032Y11430039D01*
Y11330071D02*
X4230039Y11310077D01*
Y11270090D01*
X4250032Y11250097D01*
X4270026D01*
X4290020Y11270090D01*
Y11290084D01*
Y11270090D01*
X4310013Y11250097D01*
X4330007D01*
X4350000Y11270090D01*
Y11310077D01*
X4330007Y11330071D01*
X4230039Y11130136D02*
X4250032Y11170123D01*
X4290020Y11210110D01*
X4330007D01*
X4350000Y11190116D01*
Y11150129D01*
X4330007Y11130136D01*
X4310013D01*
X4290020Y11150129D01*
Y11210110D01*
X4170000Y12600000D02*
X4050039D01*
Y12540019D01*
X4070032Y12520026D01*
X4110019D01*
X4130013Y12540019D01*
Y12600000D01*
Y12560013D02*
X4170000Y12520026D01*
Y12480039D02*
Y12440052D01*
Y12460045D01*
X4050039D01*
X4070032Y12480039D01*
Y12380071D02*
X4050039Y12360077D01*
Y12320090D01*
X4070032Y12300097D01*
X4090026D01*
X4110019Y12320090D01*
Y12340084D01*
Y12320090D01*
X4130013Y12300097D01*
X4150006D01*
X4170000Y12320090D01*
Y12360077D01*
X4150006Y12380071D01*
X4050039Y12260110D02*
Y12180136D01*
X4070032D01*
X4150006Y12260110D01*
X4170000D01*
X8510000Y11639961D02*
Y11539994D01*
X8490006Y11520000D01*
X8450019D01*
X8430026Y11539994D01*
Y11639961D01*
X8310065D02*
X8390039D01*
Y11579981D01*
X8350052Y11599974D01*
X8330058D01*
X8310065Y11579981D01*
Y11539994D01*
X8330058Y11520000D01*
X8370045D01*
X8390039Y11539994D01*
X7600000Y12099961D02*
Y11999994D01*
X7580006Y11980000D01*
X7540019D01*
X7520026Y11999994D01*
Y12099961D01*
X7480039D02*
X7400065D01*
Y12079968D01*
X7480039Y11999994D01*
Y11980000D01*
X7240032Y10700026D02*
X7220039Y10720019D01*
Y10760006D01*
X7240032Y10780000D01*
X7320006D01*
X7340000Y10760006D01*
Y10720019D01*
X7320006Y10700026D01*
X7340000Y10600058D02*
X7220039D01*
X7280019Y10660039D01*
Y10580065D01*
X7240032Y10540078D02*
X7220039Y10520084D01*
Y10480097D01*
X7240032Y10460104D01*
X7320006D01*
X7340000Y10480097D01*
Y10520084D01*
X7320006Y10540078D01*
X7240032D01*
X9160026Y10374968D02*
X9180019Y10394961D01*
X9220006D01*
X9240000Y10374968D01*
Y10294994D01*
X9220006Y10275000D01*
X9180019D01*
X9160026Y10294994D01*
X9060058Y10275000D02*
Y10394961D01*
X9120039Y10334981D01*
X9040065D01*
X9000078Y10275000D02*
X8960091D01*
X8980084D01*
Y10394961D01*
X9000078Y10374968D01*
X13610039Y12100000D02*
X13690013D01*
X13730000Y12060013D01*
X13690013Y12020026D01*
X13610039D01*
X13730000Y11980039D02*
X13610039D01*
Y11920058D01*
X13630032Y11900065D01*
X13670020D01*
X13690013Y11920058D01*
Y11980039D01*
Y11940052D02*
X13730000Y11900065D01*
Y11860078D02*
Y11820091D01*
Y11840084D01*
X13610039D01*
X13630032Y11860078D01*
X10630000Y12759961D02*
Y12679987D01*
X10590013Y12640000D01*
X10550026Y12679987D01*
Y12759961D01*
X10510039Y12640000D02*
Y12759961D01*
X10450058D01*
X10430065Y12739968D01*
Y12699981D01*
X10450058Y12679987D01*
X10510039D01*
X10470052D02*
X10430065Y12640000D01*
X10310104D02*
X10390078D01*
X10310104Y12719974D01*
Y12739968D01*
X10330097Y12759961D01*
X10370084D01*
X10390078Y12739968D01*
X12480039Y11380000D02*
X12560013D01*
X12600000Y11340013D01*
X12560013Y11300026D01*
X12480039D01*
X12600000Y11260039D02*
X12480039D01*
Y11200058D01*
X12500032Y11180065D01*
X12540019D01*
X12560013Y11200058D01*
Y11260039D01*
Y11220052D02*
X12600000Y11180065D01*
X12500032Y11140078D02*
X12480039Y11120084D01*
Y11080097D01*
X12500032Y11060104D01*
X12520026D01*
X12540019Y11080097D01*
Y11100091D01*
Y11080097D01*
X12560013Y11060104D01*
X12580006D01*
X12600000Y11080097D01*
Y11120084D01*
X12580006Y11140078D01*
X6160000Y7560000D02*
X6040039D01*
Y7500020D01*
X6060032Y7480026D01*
X6100020D01*
X6120013Y7500020D01*
Y7560000D01*
Y7520013D02*
X6160000Y7480026D01*
X6040039Y7360065D02*
Y7440039D01*
X6100020D01*
X6080026Y7400052D01*
Y7380058D01*
X6100020Y7360065D01*
X6140007D01*
X6160000Y7380058D01*
Y7420045D01*
X6140007Y7440039D01*
X6040039Y7240104D02*
Y7320078D01*
X6100020D01*
X6080026Y7280091D01*
Y7260097D01*
X6100020Y7240104D01*
X6140007D01*
X6160000Y7260097D01*
Y7300084D01*
X6140007Y7320078D01*
X5990000Y7560000D02*
X5870039D01*
Y7500020D01*
X5890032Y7480026D01*
X5930019D01*
X5950013Y7500020D01*
Y7560000D01*
Y7520013D02*
X5990000Y7480026D01*
X5870039Y7360065D02*
Y7440039D01*
X5930019D01*
X5910026Y7400052D01*
Y7380058D01*
X5930019Y7360065D01*
X5970006D01*
X5990000Y7380058D01*
Y7420045D01*
X5970006Y7440039D01*
X5990000Y7240104D02*
Y7320078D01*
X5910026Y7240104D01*
X5890032D01*
X5870039Y7260097D01*
Y7300084D01*
X5890032Y7320078D01*
X5160000Y7560000D02*
X5040039D01*
Y7500020D01*
X5060032Y7480026D01*
X5100020D01*
X5120013Y7500020D01*
Y7560000D01*
Y7520013D02*
X5160000Y7480026D01*
X5040039Y7360065D02*
Y7440039D01*
X5100020D01*
X5080026Y7400052D01*
Y7380058D01*
X5100020Y7360065D01*
X5140006D01*
X5160000Y7380058D01*
Y7420045D01*
X5140006Y7440039D01*
X5160000Y7260097D02*
X5040039D01*
X5100020Y7320078D01*
Y7240104D01*
X5330000Y7560000D02*
X5210039D01*
Y7500020D01*
X5230032Y7480026D01*
X5270019D01*
X5290013Y7500020D01*
Y7560000D01*
Y7520013D02*
X5330000Y7480026D01*
X5210039Y7360065D02*
Y7440039D01*
X5270019D01*
X5250026Y7400052D01*
Y7380058D01*
X5270019Y7360065D01*
X5310006D01*
X5330000Y7380058D01*
Y7420045D01*
X5310006Y7440039D01*
X5230032Y7320078D02*
X5210039Y7300084D01*
Y7260097D01*
X5230032Y7240104D01*
X5250026D01*
X5270019Y7260097D01*
Y7280091D01*
Y7260097D01*
X5290013Y7240104D01*
X5310006D01*
X5330000Y7260097D01*
Y7300084D01*
X5310006Y7320078D01*
X5530039Y7430000D02*
X5650000D01*
Y7350026D01*
Y7250058D02*
X5530039D01*
X5590019Y7310039D01*
Y7230065D01*
X11380000Y10420000D02*
Y10539962D01*
X11320020D01*
X11300026Y10519968D01*
Y10479981D01*
X11320020Y10459987D01*
X11380000D01*
X11340013D02*
X11300026Y10420000D01*
X11260039Y10519968D02*
X11240046Y10539962D01*
X11200059D01*
X11180065Y10519968D01*
Y10499975D01*
X11200059Y10479981D01*
X11180065Y10459987D01*
Y10439994D01*
X11200059Y10420000D01*
X11240046D01*
X11260039Y10439994D01*
Y10459987D01*
X11240046Y10479981D01*
X11260039Y10499975D01*
Y10519968D01*
X11240046Y10479981D02*
X11200059D01*
X11080097Y10420000D02*
Y10539962D01*
X11140078Y10479981D01*
X11060104D01*
X11040000Y10800000D02*
Y10919961D01*
X10980019D01*
X10960026Y10899968D01*
Y10859981D01*
X10980019Y10839987D01*
X11040000D01*
X11000013D02*
X10960026Y10800000D01*
X10920039Y10899968D02*
X10900045Y10919961D01*
X10860058D01*
X10840065Y10899968D01*
Y10879974D01*
X10860058Y10859981D01*
X10840065Y10839987D01*
Y10819994D01*
X10860058Y10800000D01*
X10900045D01*
X10920039Y10819994D01*
Y10839987D01*
X10900045Y10859981D01*
X10920039Y10879974D01*
Y10899968D01*
X10900045Y10859981D02*
X10860058D01*
X10800078Y10899968D02*
X10780084Y10919961D01*
X10740097D01*
X10720104Y10899968D01*
Y10879974D01*
X10740097Y10859981D01*
X10760091D01*
X10740097D01*
X10720104Y10839987D01*
Y10819994D01*
X10740097Y10800000D01*
X10780084D01*
X10800078Y10819994D01*
X13277499Y8765000D02*
X13397461D01*
Y8824981D01*
X13377467Y8844974D01*
X13337482D01*
X13317487Y8824981D01*
Y8765000D01*
Y8804987D02*
X13277499Y8844974D01*
Y8884961D02*
Y8924948D01*
Y8904955D01*
X13397461D01*
X13377467Y8884961D01*
X13397461Y9064903D02*
X13377467Y9024916D01*
X13337482Y8984929D01*
X13297495D01*
X13277499Y9004923D01*
Y9044910D01*
X13297495Y9064903D01*
X13317487D01*
X13337482Y9044910D01*
Y8984929D01*
X12552500Y9892500D02*
X12432539D01*
Y9832519D01*
X12452532Y9812526D01*
X12492519D01*
X12512513Y9832519D01*
Y9892500D01*
Y9852513D02*
X12552500Y9812526D01*
Y9772539D02*
Y9732552D01*
Y9752545D01*
X12432539D01*
X12452532Y9772539D01*
X12432539Y9672571D02*
Y9592597D01*
X12452532D01*
X12532506Y9672571D01*
X12552500D01*
X13337500Y9447500D02*
X13457462D01*
Y9507481D01*
X13437468Y9527474D01*
X13397481D01*
X13377487Y9507481D01*
Y9447500D01*
Y9487487D02*
X13337500Y9527474D01*
Y9567461D02*
Y9607448D01*
Y9587455D01*
X13457462D01*
X13437468Y9567461D01*
Y9667429D02*
X13457462Y9687423D01*
Y9727410D01*
X13437468Y9747403D01*
X13417474D01*
X13397481Y9727410D01*
X13377487Y9747403D01*
X13357494D01*
X13337500Y9727410D01*
Y9687423D01*
X13357494Y9667429D01*
X13377487D01*
X13397481Y9687423D01*
X13417474Y9667429D01*
X13437468D01*
X13397481Y9687423D02*
Y9727410D01*
X12437532Y8872526D02*
X12417539Y8892519D01*
Y8932506D01*
X12437532Y8952500D01*
X12517506D01*
X12537500Y8932506D01*
Y8892519D01*
X12517506Y8872526D01*
X12537500Y8832539D02*
Y8792552D01*
Y8812545D01*
X12417539D01*
X12437532Y8832539D01*
X12537500Y8732571D02*
Y8692584D01*
Y8712577D01*
X12417539D01*
X12437532Y8732571D01*
X12417539Y8552629D02*
X12437532Y8592616D01*
X12477519Y8632603D01*
X12517506D01*
X12537500Y8612610D01*
Y8572623D01*
X12517506Y8552629D01*
X12497513D01*
X12477519Y8572623D01*
Y8632603D01*
X6303782Y7893776D02*
X6283789Y7913770D01*
Y7953757D01*
X6303782Y7973750D01*
X6383757D01*
X6403750Y7953757D01*
Y7913770D01*
X6383757Y7893776D01*
X6403750Y7853789D02*
Y7813802D01*
Y7833795D01*
X6283789D01*
X6303782Y7853789D01*
X6403750Y7673847D02*
Y7753821D01*
X6323776Y7673847D01*
X6303782D01*
X6283789Y7693841D01*
Y7733828D01*
X6303782Y7753821D01*
Y7633860D02*
X6283789Y7613866D01*
Y7573879D01*
X6303782Y7553886D01*
X6323776D01*
X6343770Y7573879D01*
X6363763Y7553886D01*
X6383757D01*
X6403750Y7573879D01*
Y7613866D01*
X6383757Y7633860D01*
X6363763D01*
X6343770Y7613866D01*
X6323776Y7633860D01*
X6303782D01*
X6343770Y7613866D02*
Y7573879D01*
X12547500Y9390000D02*
X12427539D01*
Y9330019D01*
X12447532Y9310026D01*
X12487519D01*
X12507513Y9330019D01*
Y9390000D01*
Y9350013D02*
X12547500Y9310026D01*
Y9270039D02*
Y9230052D01*
Y9250045D01*
X12427539D01*
X12447532Y9270039D01*
X12527506Y9170071D02*
X12547500Y9150077D01*
Y9110090D01*
X12527506Y9090097D01*
X12447532D01*
X12427539Y9110090D01*
Y9150077D01*
X12447532Y9170071D01*
X12467526D01*
X12487519Y9150077D01*
Y9090097D01*
X10320000Y8300000D02*
X10200039D01*
Y8240019D01*
X10220032Y8220026D01*
X10260019D01*
X10280013Y8240019D01*
Y8300000D01*
X10220032Y8100065D02*
X10200039Y8120058D01*
Y8160045D01*
X10220032Y8180039D01*
X10240026D01*
X10260019Y8160045D01*
Y8120058D01*
X10280013Y8100065D01*
X10300006D01*
X10320000Y8120058D01*
Y8160045D01*
X10300006Y8180039D01*
X10320000Y8060078D02*
X10200039D01*
Y8000097D01*
X10220032Y7980103D01*
X10260019D01*
X10280013Y8000097D01*
Y8060078D01*
X10200039Y7350000D02*
X10320000D01*
Y7290019D01*
X10300006Y7270026D01*
X10220032D01*
X10200039Y7290019D01*
Y7350000D01*
X10320000Y7230039D02*
X10200039D01*
X10320000Y7150065D01*
X10200039D01*
Y7110078D02*
Y7070091D01*
Y7090084D01*
X10320000D01*
Y7110078D01*
Y7070091D01*
D145*
X12905000Y9565000D02*
X12935001D01*
X12902499Y9112500D02*
X12932500D01*
X10920000Y12030000D02*
Y12090000D01*
X11100000Y12030000D02*
Y12090000D01*
D146*
X9065500Y8480500D02*
Y8515500D01*
X8958000Y8480500D02*
Y8515500D01*
X8293500Y8478500D02*
Y8513500D01*
X8186000Y8478500D02*
Y8513500D01*
X8592500Y11145000D02*
X8627500D01*
X8592500Y11037500D02*
X8627500D01*
X8592500Y10975000D02*
X8627500D01*
X8592500Y10867500D02*
X8627500D01*
X9435000Y11082500D02*
Y11117500D01*
X9327500Y11082500D02*
Y11117500D01*
X8933000Y7976500D02*
Y8011500D01*
X9040500Y7976500D02*
Y8011500D01*
X9875000Y11022500D02*
Y11057500D01*
X9767500Y11022500D02*
Y11057500D01*
X6727500Y12422500D02*
Y12457500D01*
X6620000Y12422500D02*
Y12457500D01*
X5755000Y10132500D02*
Y10167500D01*
X5647500Y10132500D02*
Y10167500D01*
X6755000Y10342500D02*
Y10377500D01*
X6647500Y10342500D02*
Y10377500D01*
X4982500Y10875000D02*
X5017500D01*
X4982500Y10767500D02*
X5017500D01*
X4965000Y10562500D02*
Y10597500D01*
X5072500Y10562500D02*
Y10597500D01*
X5295000Y10562500D02*
Y10597500D01*
X5402500Y10562500D02*
Y10597500D01*
X4752500Y7042500D02*
Y7077500D01*
X4645000Y7042500D02*
Y7077500D01*
X4512500Y7042500D02*
Y7077500D01*
X4405000Y7042500D02*
Y7077500D01*
X4265000Y7042500D02*
Y7077500D01*
X4157500Y7042500D02*
Y7077500D01*
X4045000Y7042500D02*
Y7077500D01*
X3937500Y7042500D02*
Y7077500D01*
X6265000Y12397500D02*
Y12432500D01*
X6372500Y12397500D02*
Y12432500D01*
X6279338Y13181570D02*
Y13216570D01*
X6386838Y13181570D02*
Y13216570D01*
X9355000Y11412500D02*
Y11447500D01*
X9462500Y11412500D02*
Y11447500D01*
X9745000Y12882500D02*
Y12917500D01*
X9852500Y12882500D02*
Y12917500D01*
X7335000Y11472500D02*
Y11507500D01*
X7227500Y11472500D02*
Y11507500D01*
X6565000Y11202500D02*
Y11237500D01*
X6672500Y11202500D02*
Y11237500D01*
X5482500Y10775000D02*
X5517500D01*
X5482500Y10882500D02*
X5517500D01*
X3100000Y10225000D02*
Y10260000D01*
X2992500Y10225000D02*
Y10260000D01*
X3295000Y10972500D02*
Y11007500D01*
X3402500Y10972500D02*
Y11007500D01*
X3575000Y12352500D02*
Y12387500D01*
X3467500Y12352500D02*
Y12387500D01*
X4145000Y12822501D02*
Y12857500D01*
X4037500Y12822501D02*
Y12857500D01*
X3995000Y12352500D02*
Y12387500D01*
X3887500Y12352500D02*
Y12387500D01*
X4015000Y13272501D02*
Y13307500D01*
X3907500Y13272501D02*
Y13307500D01*
X3595000Y11012500D02*
Y11047500D01*
X3702500Y11012500D02*
Y11047500D01*
X2895000Y12072500D02*
Y12107500D01*
X3002500Y12072500D02*
Y12107500D01*
X3585000Y10162500D02*
Y10197500D01*
X3692500Y10162500D02*
Y10197500D01*
X2805000Y9592500D02*
Y9627500D01*
X2912500Y9592500D02*
Y9627500D01*
X2975001Y9592500D02*
Y9627500D01*
X3082501Y9592500D02*
Y9627500D01*
X3615000Y12822501D02*
Y12857500D01*
X3722500Y12822501D02*
Y12857500D01*
X2895000Y12712500D02*
Y12747500D01*
X3002500Y12712500D02*
Y12747500D01*
X3445000Y13272501D02*
Y13307500D01*
X3552500Y13272501D02*
Y13307500D01*
X3455000Y9602500D02*
Y9637500D01*
X3562500Y9602500D02*
Y9637500D01*
X3885000Y10222500D02*
Y10257500D01*
X3992500Y10222500D02*
Y10257500D01*
X4235000Y10922500D02*
Y10957500D01*
X4342500Y10922500D02*
Y10957500D01*
X5095000Y13292500D02*
Y13327499D01*
X5202500Y13292500D02*
Y13327499D01*
X5555000Y13292500D02*
Y13327499D01*
X5662500Y13292500D02*
Y13327499D01*
X5825000Y12832500D02*
Y12867500D01*
X5717500Y12832500D02*
Y12867500D01*
X5205000Y12372500D02*
Y12407500D01*
X5097500Y12372500D02*
Y12407500D01*
X5575000Y11422500D02*
Y11457500D01*
X5682500Y11422500D02*
Y11457500D01*
X5325000Y11422500D02*
Y11457500D01*
X5217500Y11422500D02*
Y11457500D01*
X4845000Y11422500D02*
Y11457500D01*
X4952500Y11422500D02*
Y11457500D01*
X6045000Y11422500D02*
Y11457500D01*
X5937500Y11422500D02*
Y11457500D01*
X8852500Y12125000D02*
X8887500D01*
X8852500Y12017500D02*
X8887500D01*
X9675000Y12712500D02*
Y12747500D01*
X9567500Y12712500D02*
Y12747500D01*
X6675000Y13122501D02*
Y13157500D01*
X6782500Y13122501D02*
Y13157500D01*
X6645000Y10722500D02*
Y10757500D01*
X6752500Y10722500D02*
Y10757500D01*
X5712500Y8647500D02*
X5747500D01*
X5712500Y8755000D02*
X5747500D01*
X5712500Y8487500D02*
X5747500D01*
X5712500Y8595000D02*
X5747500D01*
X5712500Y8327500D02*
X5747500D01*
X5712500Y8435000D02*
X5747500D01*
X5712500Y8167500D02*
X5747500D01*
X5712500Y8275000D02*
X5747500D01*
X3832500Y9497500D02*
X3867500D01*
X3832500Y9605000D02*
X3867500D01*
X3792500Y9157500D02*
X3827500D01*
X3792500Y9265000D02*
X3827500D01*
X4932500Y7952500D02*
X4967500D01*
X4932500Y7845000D02*
X4967500D01*
X4572500Y9587500D02*
X4607500D01*
X4572500Y9695000D02*
X4607500D01*
X4552500Y8142500D02*
X4587500D01*
X4552500Y8035000D02*
X4587500D01*
X4172500Y8142500D02*
X4207500D01*
X4172500Y8035000D02*
X4207500D01*
X4552500Y8292500D02*
X4587500D01*
X4552500Y8185000D02*
X4587500D01*
X6082500Y8542500D02*
Y8577500D01*
X5975000Y8542500D02*
Y8577500D01*
X5842500Y9912500D02*
X5877500D01*
X5842500Y9805000D02*
X5877500D01*
X5842500Y9732500D02*
X5877500D01*
X5842500Y9625000D02*
X5877500D01*
X10092500Y10515000D02*
X10127500D01*
X10092500Y10407500D02*
X10127500D01*
X11322500Y11215000D02*
X11357500D01*
X11322500Y11322500D02*
X11357500D01*
X11322500Y11395000D02*
X11357500D01*
X11322500Y11502500D02*
X11357500D01*
X12207500Y7402500D02*
Y7437500D01*
X12315000Y7402500D02*
Y7437500D01*
X12312235Y6982500D02*
Y7017501D01*
X12204735Y6982500D02*
Y7017501D01*
X11947500Y8292500D02*
Y8327500D01*
X12055000Y8292500D02*
Y8327500D01*
X12052232Y6982500D02*
Y7017500D01*
X11944732Y6982500D02*
Y7017500D01*
X11687500Y7402500D02*
Y7437500D01*
X11795000Y7402500D02*
Y7437500D01*
X11792233Y6982500D02*
Y7017500D01*
X11684733Y6982500D02*
Y7017500D01*
X11427500Y7402500D02*
Y7437500D01*
X11535000Y7402500D02*
Y7437500D01*
X11532233Y6982500D02*
Y7017500D01*
X11424733Y6982500D02*
Y7017500D01*
X11167500Y7402500D02*
Y7437500D01*
X11275000Y7402500D02*
Y7437500D01*
X11167500Y7852500D02*
Y7887500D01*
X11275000Y7852500D02*
Y7887500D01*
X10907500Y7402500D02*
Y7437500D01*
X11015000Y7402500D02*
Y7437500D01*
X11012500Y6982500D02*
Y7017500D01*
X10905000Y6982500D02*
Y7017500D01*
X10647234Y7402500D02*
Y7437500D01*
X10754734Y7402500D02*
Y7437500D01*
X10752500Y6983221D02*
Y7018221D01*
X10645000Y6983221D02*
Y7018221D01*
X10387500Y8292500D02*
Y8327500D01*
X10495000Y8292500D02*
Y8327500D01*
X10492235Y6982500D02*
Y7017500D01*
X10384735Y6982500D02*
Y7017500D01*
X12312500Y8292500D02*
Y8327500D01*
X12205000Y8292500D02*
Y8327500D01*
X12312500Y7852500D02*
Y7887500D01*
X12205000Y7852500D02*
Y7887500D01*
X12052500Y7402500D02*
Y7437500D01*
X11945000Y7402500D02*
Y7437500D01*
X12052500Y7852500D02*
Y7887500D01*
X11945000Y7852500D02*
Y7887500D01*
X11772500Y8282500D02*
Y8317500D01*
X11665000Y8282500D02*
Y8317500D01*
X11792500Y7852500D02*
Y7887500D01*
X11685000Y7852500D02*
Y7887500D01*
X11532500Y8292500D02*
Y8327500D01*
X11425000Y8292500D02*
Y8327500D01*
X11532500Y7852500D02*
Y7887500D01*
X11425000Y7852500D02*
Y7887500D01*
X11272500Y8292500D02*
Y8327500D01*
X11165000Y8292500D02*
Y8327500D01*
X11167500Y6982500D02*
Y7017500D01*
X11275000Y6982500D02*
Y7017500D01*
X11012500Y8292500D02*
Y8327500D01*
X10905000Y8292500D02*
Y8327500D01*
X11012500Y7852500D02*
Y7887500D01*
X10905000Y7852500D02*
Y7887500D01*
X10752500Y8292500D02*
Y8327500D01*
X10645000Y8292500D02*
Y8327500D01*
X10752500Y7852500D02*
Y7887500D01*
X10645000Y7852500D02*
Y7887500D01*
X10492500Y7402500D02*
Y7437500D01*
X10385000Y7402500D02*
Y7437500D01*
X10492500Y7852500D02*
Y7887500D01*
X10385000Y7852500D02*
Y7887500D01*
X8562500Y10017500D02*
X8597500D01*
X8562500Y10125000D02*
X8597500D01*
X8562500Y10187500D02*
X8597500D01*
X8562500Y10295000D02*
X8597500D01*
X8562500Y10427500D02*
X8597500D01*
X8562500Y10535000D02*
X8597500D01*
X6430000Y9772500D02*
Y9848700D01*
X8197000Y8868000D02*
X8232000D01*
X8197000Y8760500D02*
X8232000D01*
X6721300Y9850000D02*
X6797500D01*
X9912500Y10245000D02*
Y10321200D01*
X11212500Y10685000D02*
X11247500D01*
X11212500Y10577500D02*
X11247500D01*
X11202500Y10925000D02*
X11237500D01*
X11202500Y10817500D02*
X11237500D01*
X7565000Y7427500D02*
Y7462500D01*
X7457500Y7427500D02*
Y7462500D01*
X12590000Y9152500D02*
Y9187500D01*
X12697500Y9152500D02*
Y9187500D01*
X5215000Y7042500D02*
Y7077500D01*
X5322500Y7042500D02*
Y7077500D01*
X5055000Y7042500D02*
Y7077500D01*
X5162500Y7042500D02*
Y7077500D01*
X5875000Y7042500D02*
Y7077500D01*
X5982500Y7042500D02*
Y7077500D01*
X6035000Y7042500D02*
Y7077500D01*
X6142500Y7042500D02*
Y7077500D01*
D147*
X9265000Y11085000D02*
Y11135000D01*
X9155000Y11085000D02*
Y11135000D01*
X7065000Y10535000D02*
Y10585000D01*
X7175000Y10535000D02*
Y10585000D01*
X11040000Y11060000D02*
Y11100000D01*
X10920000Y11060000D02*
Y11100000D01*
X10500000Y10500000D02*
Y10540000D01*
X10380000Y10500000D02*
Y10540000D01*
X5705000Y11215000D02*
X5755000D01*
X5705000Y11105000D02*
X5755000D01*
X6525000Y11795000D02*
Y11845000D01*
X6415000Y11795000D02*
Y11845000D01*
Y11455000D02*
Y11505000D01*
X6525000Y11455000D02*
Y11505000D01*
X4877500Y11085000D02*
X4927500D01*
X4877500Y10975000D02*
X4927500D01*
X7155000Y11465000D02*
Y11515000D01*
X7045000Y11465000D02*
Y11515000D01*
X6165000Y10375000D02*
Y10425000D01*
X6275000Y10375000D02*
Y10425000D01*
X5905000D02*
Y10475000D01*
X5795000Y10425000D02*
Y10475000D01*
X3295000Y10595000D02*
Y10645000D01*
X3404999Y10595000D02*
Y10645000D01*
X3065000Y10915000D02*
Y10965000D01*
X2955000Y10915000D02*
Y10965000D01*
X10365000Y11795000D02*
Y11845000D01*
X10255000Y11795000D02*
Y11845000D01*
X10565000Y11925000D02*
X10615000D01*
X10565000Y12035000D02*
X10615000D01*
X10565000Y11635000D02*
X10615000D01*
X10565000Y11745000D02*
X10615000D01*
X7195000Y13105000D02*
Y13155000D01*
X7305000Y13105000D02*
Y13155000D01*
X5535000Y10135000D02*
Y10185000D01*
X5425000Y10135000D02*
Y10185000D01*
X5835000Y10775000D02*
Y10825000D01*
X5945000Y10775000D02*
Y10825000D01*
X3895000Y10595000D02*
Y10645000D01*
X4004999Y10595000D02*
Y10645000D01*
X3195000Y9585000D02*
Y9635000D01*
X3305000Y9585000D02*
Y9635000D01*
X4345000Y10405001D02*
Y10455000D01*
X4235000Y10405001D02*
Y10455000D01*
X10605000Y10525000D02*
Y10575000D01*
X10715000Y10525000D02*
Y10575000D01*
X11705000Y11835000D02*
Y11885000D01*
X11595000Y11835000D02*
Y11885000D01*
X10895000Y12655000D02*
Y12705000D01*
X10785000Y12655000D02*
Y12705000D01*
X12995000Y11515000D02*
X13045000D01*
X12995000Y11625000D02*
X13045000D01*
X13735001Y10835000D02*
Y10885000D01*
X13625000Y10835000D02*
Y10885000D01*
X13295000Y13275000D02*
X13345000D01*
X13295000Y13164999D02*
X13345000D01*
X13555000Y13085001D02*
X13605000D01*
X13555000Y12975000D02*
X13605000D01*
X7685000Y12355000D02*
Y12405000D01*
X7795000Y12355000D02*
Y12405000D01*
X3725000Y11885000D02*
Y11935000D01*
X3615000Y11885000D02*
Y11935000D01*
X4175000Y11905000D02*
Y11955000D01*
X4065000Y11905000D02*
Y11955000D01*
X3995000Y11435000D02*
Y11485000D01*
X3885000Y11435000D02*
Y11485000D01*
X3565000Y11435000D02*
Y11485000D01*
X3455000Y11435000D02*
Y11485000D01*
X3295000Y10214000D02*
Y10264000D01*
X3404999Y10214000D02*
Y10264000D01*
X4007259Y10976000D02*
Y11026000D01*
X3897259Y10976000D02*
Y11026000D01*
X4675000Y10555000D02*
Y10605000D01*
X4785000Y10555000D02*
Y10605000D01*
X4660000Y12875000D02*
Y12925000D01*
X4550000Y12875000D02*
Y12925000D01*
X4660000Y12555000D02*
Y12605000D01*
X4550000Y12555000D02*
Y12605000D01*
X5385000Y12825000D02*
Y12875000D01*
X5275000Y12825000D02*
Y12875000D01*
X5385000Y11905000D02*
Y11955000D01*
X5275000Y11905000D02*
Y11955000D01*
X5725000Y11905000D02*
Y11955000D01*
X5835000Y11905000D02*
Y11955000D01*
X5575000Y12345000D02*
Y12395000D01*
X5685000Y12345000D02*
Y12395000D01*
X4035000Y8975000D02*
Y9025000D01*
X4145000Y8975000D02*
Y9025000D01*
X4325000Y8975000D02*
Y9025000D01*
X4215000Y8975000D02*
Y9025000D01*
X4985000Y8945000D02*
Y8995000D01*
X5095000Y8945000D02*
Y8995000D01*
X4805000Y8945000D02*
Y8995000D01*
X4915000Y8945000D02*
Y8995000D01*
X5475000Y8945000D02*
Y8995000D01*
X5585000Y8945000D02*
Y8995000D01*
X5995000Y8945000D02*
Y8995000D01*
X5885000Y8945000D02*
Y8995000D01*
X5695000Y8945000D02*
Y8995000D01*
X5805000Y8945000D02*
Y8995000D01*
X5345000Y8945000D02*
Y8995000D01*
X5235000Y8945000D02*
Y8995000D01*
X4465000Y9115000D02*
Y9165000D01*
X4575000Y9115000D02*
Y9165000D01*
X4755000Y9115000D02*
Y9165000D01*
X4645000Y9115000D02*
Y9165000D01*
X6945000Y13164999D02*
Y13214999D01*
X7055000Y13164999D02*
Y13214999D01*
X6825000Y11565000D02*
Y11615000D01*
X6935000Y11565000D02*
Y11615000D01*
X7125000Y12825000D02*
X7175000D01*
X7125000Y12935001D02*
X7175000D01*
X6835000Y10925000D02*
Y10975000D01*
X6945000Y10925000D02*
Y10975000D01*
X4915000Y8595000D02*
X4965000D01*
X4915000Y8485000D02*
X4965000D01*
X4915000Y8435000D02*
X4965000D01*
X4915000Y8325000D02*
X4965000D01*
X4915000Y8275000D02*
X4965000D01*
X4915000Y8165000D02*
X4965000D01*
X4915000Y8755000D02*
X4965000D01*
X4915000Y8645000D02*
X4965000D01*
X3795000Y9435000D02*
X3845000D01*
X3795000Y9325000D02*
X3845000D01*
X3795000Y9775000D02*
X3845000D01*
X3795000Y9665000D02*
X3845000D01*
X4915000Y8005000D02*
X4965000D01*
X4915000Y8115000D02*
X4965000D01*
X4565000Y9865000D02*
X4615000D01*
X4565000Y9755000D02*
X4615000D01*
X5875000Y7955000D02*
Y8005000D01*
X5765000Y7955000D02*
Y8005000D01*
X10890000Y10610000D02*
Y10650000D01*
X10770000Y10610000D02*
Y10650000D01*
X9835000Y11385000D02*
X9885000D01*
X9835000Y11495000D02*
X9885000D01*
X9555000Y11405000D02*
Y11455000D01*
X9665000Y11405000D02*
Y11455000D01*
X9835000Y11685000D02*
X9885000D01*
X9835000Y11575000D02*
X9885000D01*
Y10675000D02*
Y10725000D01*
X9995000Y10675000D02*
Y10725000D01*
X10175000Y11795000D02*
Y11845000D01*
X10065000Y11795000D02*
Y11845000D01*
X11315000Y11015000D02*
X11365000D01*
X11315000Y11125000D02*
X11365000D01*
X10925000Y11505000D02*
X10975000D01*
X10925000Y11615000D02*
X10975000D01*
X9205000Y10535000D02*
Y10585000D01*
X9095000Y10535000D02*
Y10585000D01*
X10160000Y7680000D02*
Y8500000D01*
Y7680000D02*
X12430000D01*
Y8500000D01*
X10160000D02*
X12430000D01*
X10160000Y7610000D02*
X12430000D01*
Y6790000D02*
Y7610000D01*
X10160000Y6790000D02*
X12430000D01*
X10160000D02*
Y7610000D01*
X7612500Y7820000D02*
Y7870000D01*
X7722500Y7820000D02*
Y7870000D01*
X12587500Y8832500D02*
Y8882500D01*
X12697500Y8832500D02*
Y8882500D01*
X6082500Y8197500D02*
Y8247500D01*
X5972500Y8197500D02*
Y8247500D01*
X5540000Y7040000D02*
Y7080000D01*
X5660000Y7040000D02*
Y7080000D01*
X5485000Y7035000D02*
Y7085000D01*
X5375000Y7035000D02*
Y7085000D01*
X5715000Y7035000D02*
Y7085000D01*
X5825000Y7035000D02*
Y7085000D01*
D148*
X10312500Y13500000D02*
X10706240D01*
X10313760Y12800000D02*
X10707500D01*
X12883760Y11700000D02*
X13277499D01*
X12882500Y12400000D02*
X13276241D01*
X12109920Y12317300D02*
X12212620D01*
Y12344146D01*
X12109920Y12482700D02*
X12212620D01*
Y12455854D02*
Y12482700D01*
X13002699Y13239999D02*
Y13342700D01*
X12975854D02*
X13002699D01*
X12837300Y13239999D02*
Y13342700D01*
X12864146D01*
X12277300Y12832700D02*
X12380000Y12832700D01*
X12277300Y12805853D02*
Y12832700D01*
Y12667300D02*
X12380000Y12667300D01*
X12277300Y12667300D02*
Y12694146D01*
X13017300Y12712700D02*
X13120000D01*
X13017300Y12685854D02*
Y12712700D01*
Y12547300D02*
X13120000D01*
X13017300D02*
Y12574146D01*
X7294900Y12289670D02*
Y12490330D01*
X7625100Y12289670D02*
Y12490330D01*
X7917300Y12677300D02*
X7944146D01*
X7917300D02*
Y12780000D01*
X8055854Y12677300D02*
X8082700D01*
Y12780000D01*
X8340930Y11689350D02*
X8506030D01*
X8340930Y11796054D02*
Y11823946D01*
Y11930650D02*
X8506030D01*
%TF.MD5,3eac4b8f42dd358e2b74bde2ab36125f*%
M02*
