G04 Layer_Physical_Order=3*
G04 Layer_Color=36540*
%FSLAX45Y45*%
%MOMM*%
%TF.FileFunction,Copper,L3,Inr,Signal*%
%TF.Part,Single*%
G01*
G75*
%TA.AperFunction,Conductor*%
%ADD10C,0.13000*%
%ADD46C,0.50000*%
%ADD47C,0.40000*%
%ADD48C,0.25000*%
%ADD49C,0.15000*%
%ADD53C,1.00000*%
%ADD56C,1.20000*%
%ADD59C,0.13400*%
%ADD60C,0.80000*%
%TA.AperFunction,ViaPad*%
%ADD66C,2.00000*%
%TA.AperFunction,ComponentPad*%
%ADD67C,2.50000*%
%ADD68C,1.70000*%
%ADD69C,2.30000*%
%ADD70C,2.70000*%
%ADD71C,2.00000*%
%TA.AperFunction,ViaPad*%
%ADD72C,0.80000*%
%ADD73C,0.70000*%
%ADD74C,0.40000*%
%ADD75C,0.50000*%
%ADD76C,0.60000*%
%ADD77C,1.20000*%
%ADD78C,1.00000*%
%TA.AperFunction,Conductor*%
%ADD95C,0.29100*%
D10*
X8083231Y9221731D02*
G03*
X8083230Y9203346I9192J-9192D01*
G01*
X8090797Y9177395D02*
G03*
X8090797Y9195779I-9192J9192D01*
G01*
X8072412Y9177395D02*
G03*
X8090797Y9177395I9192J9192D01*
G01*
X8064846Y9184961D02*
G03*
X8046461Y9184961I-9192J-9192D01*
G01*
X8477500Y9424000D02*
G03*
X8483000Y9429500I0J5500D01*
G01*
X8477500Y9424000D02*
G03*
X8483000Y9429500I0J5500D01*
G01*
X8526500Y9581076D02*
G03*
X8483000Y9537576I0J-43500D01*
G01*
X8526500Y9581076D02*
G03*
X8483000Y9537576I0J-43500D01*
G01*
X8570000D02*
G03*
X8526500Y9581076I-43500J0D01*
G01*
X8570000Y9537576D02*
G03*
X8526500Y9581076I-43500J0D01*
G01*
X8570000Y9342007D02*
G03*
X8584500Y9327507I14500J0D01*
G01*
X8570000Y9342007D02*
G03*
X8584500Y9327507I14500J0D01*
G01*
X8584500D02*
G03*
X8599000Y9342007I-0J14500D01*
G01*
X8584500Y9327507D02*
G03*
X8599000Y9342007I-0J14500D01*
G01*
X8642500Y9424000D02*
G03*
X8599000Y9380500I0J-43500D01*
G01*
X8642500Y9424000D02*
G03*
X8599000Y9380500I0J-43500D01*
G01*
X8541000Y9342007D02*
G03*
X8584500Y9298507I43500J0D01*
G01*
X8477500Y9395000D02*
G03*
X8512000Y9429500I0J34500D01*
G01*
X8526500Y9552076D02*
G03*
X8512000Y9537576I0J-14500D01*
G01*
X8584500Y9298507D02*
G03*
X8628000Y9342007I-0J43500D01*
G01*
X8541000Y9537576D02*
G03*
X8526500Y9552076I-14500J0D01*
G01*
X8642500Y9395000D02*
G03*
X8628000Y9380500I0J-14500D01*
G01*
X7966601Y9060016D02*
X7991000Y9084415D01*
Y9170513D01*
X8107988Y9287500D01*
X8261488D01*
X8397988Y9424000D01*
X8880000Y9395000D02*
X9013500Y9261500D01*
X8892012Y9424000D02*
X9042500Y9273512D01*
X9013500Y9043098D02*
Y9261500D01*
X9042500Y9055110D02*
Y9273512D01*
X9013500Y9043098D02*
X9095488Y8961110D01*
X9042500Y9055110D02*
X9107500Y8990110D01*
X9095488Y8961110D02*
X9182110D01*
X9107500Y8990110D02*
X9182610D01*
X9182110Y8961110D02*
X9207500Y8935720D01*
X8020000Y9082817D02*
X8042801Y9060016D01*
X8020000Y9082817D02*
Y9158500D01*
X8110808Y9249308D02*
X8120000Y9258500D01*
X8092423Y9230923D02*
X8110808Y9249308D01*
X8083230Y9221731D02*
X8092423Y9230923D01*
X8083230Y9203346D02*
X8090797Y9195779D01*
X8064846Y9184961D02*
X8072412Y9177395D01*
X8040750Y9179250D02*
X8046461Y9184961D01*
X8020000Y9158500D02*
X8040750Y9179250D01*
X8120000Y9258500D02*
X8273500D01*
X8410000Y9395000D01*
X8397988Y9424000D02*
X8477500D01*
X8483000Y9429500D02*
Y9537576D01*
X9182610Y8990110D02*
X9208000Y9015500D01*
X8570000Y9342007D02*
Y9537576D01*
X8599000Y9342007D02*
Y9380500D01*
X8642500Y9424000D02*
X8892012D01*
X8410000Y9395000D02*
X8477500Y9395000D01*
X8477500D01*
X8541000Y9342007D02*
Y9537576D01*
X8512000Y9429500D02*
Y9537576D01*
X8628000Y9342007D02*
Y9380500D01*
X8642500Y9395000D02*
X8880000Y9395000D01*
D46*
X6550000Y9990000D02*
X6913000Y10353000D01*
Y12309000D01*
X6550000Y9410000D02*
Y9990000D01*
Y9410000D02*
X6660019Y9299981D01*
X6749988D01*
D47*
X6240000Y8690005D02*
X6510018Y8419987D01*
X6524991Y8485014D02*
X6590018Y8419987D01*
X6524991Y8485014D02*
Y8605009D01*
X6589988Y7369988D02*
Y8339987D01*
X7562500Y7807500D02*
X7929015Y7440985D01*
X9159015D01*
X9240000Y7360000D01*
X6300000Y8830000D02*
X6524991Y8605009D01*
X3910000Y9490000D02*
X4540000D01*
X4950000Y9080000D01*
X3160000Y7060000D02*
X3990000D01*
X3170000Y7530000D02*
X3184000D01*
X3534000Y7180000D01*
X3200000Y7120000D02*
X4150000D01*
X4210000Y7060000D01*
X3174000Y7630000D02*
X3560360Y7243640D01*
X3170000Y7630000D02*
X3174000D01*
X2840000Y9050000D02*
Y9330000D01*
X2760000Y8970000D02*
X2840000Y9050000D01*
X2820000Y7500000D02*
Y8950000D01*
X2760000Y7460000D02*
Y8970000D01*
Y7460000D02*
X3160000Y7060000D01*
X2820000Y7500000D02*
X3200000Y7120000D01*
X2820000Y8950000D02*
X2910000Y9040000D01*
X3850000Y9550000D02*
X3910000Y9490000D01*
X3560360Y7243640D02*
X6463639D01*
X6589988Y7369988D01*
X3534000Y7180000D02*
X6480000D01*
X6669988Y7369988D02*
Y8339987D01*
X7555000Y8040000D02*
X7562500Y8032500D01*
Y7807500D02*
Y8032500D01*
X6300000Y8830000D02*
Y9670000D01*
X5510000Y10460000D02*
Y10560000D01*
Y10460000D02*
X6300000Y9670000D01*
X4950000Y8800000D02*
Y9080000D01*
X6480000Y7180000D02*
X6669988Y7369988D01*
X6240000Y8690005D02*
Y9640000D01*
X5214839Y10625000D02*
X5255000D01*
X6240000Y9640000D01*
X9760000Y11190000D02*
X10000000D01*
X9740000Y11170000D02*
X9760000Y11190000D01*
X9740000Y11170000D02*
X9740000D01*
X9540000Y10970000D02*
X9740000Y11170000D01*
X9540000Y10500000D02*
Y10970000D01*
X9520000Y10480000D02*
X9540000Y10500000D01*
X2840000Y9410710D02*
X4591790Y11162500D01*
X2910000Y9330000D02*
X3430000D01*
X3820000Y9720000D01*
X2840000Y9330000D02*
Y9410710D01*
X2910000Y9330000D02*
Y9390000D01*
Y9040000D02*
Y9330000D01*
Y9390000D02*
X4550000Y11030000D01*
X4650000D01*
X4591790Y11162500D02*
X4662500D01*
D48*
X7870000Y10970000D02*
X9540000D01*
X6820000Y9920000D02*
X7870000Y10970000D01*
X6820000Y9620000D02*
Y9920000D01*
X10512500Y8630000D02*
X12930000D01*
X10440000Y8702500D02*
X10512500Y8630000D01*
X10440000Y8702500D02*
Y9290000D01*
X7150017Y8107517D02*
Y8179987D01*
X7132500Y8090000D02*
X7150017Y8107517D01*
X7132500Y7157500D02*
Y8090000D01*
X7090000Y8119996D02*
X7109987Y8139983D01*
X7090000Y7140000D02*
Y8119996D01*
X7020000Y8150000D02*
X7050000Y8120000D01*
Y7110000D02*
Y8120000D01*
X7132500Y7157500D02*
X7250000Y7040000D01*
X6910000Y9630000D02*
Y9650000D01*
X6330503Y8117500D02*
X6487500D01*
X6260503Y8047500D02*
X6330503Y8117500D01*
X5987500Y8047500D02*
X6260503D01*
X6345000Y8082500D02*
X6462500D01*
X6240000Y7977500D02*
X6345000Y8082500D01*
X5985000Y7977500D02*
X6240000D01*
X6487500Y8117500D02*
X6545000Y8060000D01*
X6462500Y8082500D02*
X6510000Y8035000D01*
X6545000Y7395000D02*
Y8060000D01*
X5910000Y8070000D02*
X5960000Y8120001D01*
X6510000Y7420000D02*
Y8035000D01*
X7930000Y9760000D02*
X10710500D01*
X7880000Y9710000D02*
X7930000Y9760000D01*
X10710500D02*
X10898500Y9572000D01*
X6446568Y7356568D02*
X6510000Y7420000D01*
X3771431Y7356568D02*
X6446568D01*
X7740000Y7280000D02*
X9260000D01*
X7520000Y7500000D02*
X7740000Y7280000D01*
X9260000D02*
X10010000Y8030000D01*
X5540000Y11720000D02*
X5630000Y11630000D01*
X5270000Y11640000D02*
X5340000Y11570000D01*
X13350000Y7490000D02*
Y9060000D01*
X12730000Y6870000D02*
X13350000Y7490000D01*
X7169375Y6870000D02*
X12730000D01*
X13250000Y7480000D02*
Y8310000D01*
X12680000Y6910000D02*
X13250000Y7480000D01*
X7190000Y6910000D02*
X12680000D01*
X10240000Y8930000D02*
Y9160001D01*
X10080000Y8770000D02*
X10240000Y8930000D01*
X10080000Y8100000D02*
Y8770000D01*
X10010000Y8030000D02*
X10080000Y8100000D01*
X6490000Y8850000D02*
X6719970D01*
X6749988Y8819982D01*
X6460000Y8970000D02*
X6600000D01*
X6670000Y8900000D01*
X7020000Y8150000D02*
Y8287500D01*
X6950000Y7550000D02*
Y8287500D01*
X6920000Y7520000D02*
X6950000Y7550000D01*
X6920000Y7180000D02*
Y7520000D01*
X7189987Y7900013D02*
X7250000Y7840000D01*
Y7470000D02*
Y7840000D01*
X7360000Y7420000D02*
Y7590000D01*
X6780000Y8210001D02*
X6830000Y8260000D01*
X6730000Y8240000D02*
X6790000Y8300000D01*
X5720000Y10530000D02*
X5780000D01*
X5430000Y10820000D02*
X5720000Y10530000D01*
X5780000D02*
X5880000Y10430000D01*
X5214839Y10820000D02*
X5430000D01*
X6130000Y10140000D02*
X6170000D01*
X5880000Y10390000D02*
X6130000Y10140000D01*
X5880000Y10390000D02*
Y10430000D01*
X5190000Y8110000D02*
X5490000Y8410000D01*
X4910000Y8110000D02*
X5190000D01*
X4650000Y8370000D02*
X4910000Y8110000D01*
X5860000Y8270000D02*
Y9680000D01*
X6090000Y10616999D02*
Y11380000D01*
X5900000Y11570000D02*
X6090000Y11380000D01*
X5340000Y11570000D02*
X5900000D01*
X5840000Y11510000D02*
X5930000Y11420000D01*
Y10432999D02*
Y11420000D01*
Y10432999D02*
X6030000Y10332999D01*
X6090000Y10616999D02*
X6120000Y10586999D01*
X5729480Y10730000D02*
X5730000D01*
X5569479Y10890000D02*
X5729480Y10730000D01*
X4589999Y10820000D02*
X4660000Y10890000D01*
X5569479D01*
X10200000Y9530000D02*
X10440000Y9290000D01*
X7620000Y10040000D02*
X11319500D01*
X7640000Y10000000D02*
X11232500D01*
X7660000Y9960000D02*
X11145500D01*
X7890000Y9840000D02*
X10884500D01*
X7870000Y9880000D02*
X10971500D01*
X7909100Y9799100D02*
X10798400D01*
X7840000Y9730000D02*
X7909100Y9799100D01*
X7840000Y9690000D02*
Y9730000D01*
X10644500Y9454500D02*
Y9632000D01*
X10581000Y9471000D02*
Y9590000D01*
X10633500Y9710000D02*
X10771500Y9572000D01*
X7950000Y9710000D02*
X10633500D01*
X10590000Y9400000D02*
X10644500Y9454500D01*
X10590000Y9160001D02*
Y9400000D01*
X10540000Y9430000D02*
X10581000Y9471000D01*
X10540000Y8680000D02*
Y9430000D01*
X7480000Y9550000D02*
X7565000Y9465000D01*
X10884500Y9840000D02*
X11152500Y9572000D01*
X10971500Y9880000D02*
X11279500Y9572000D01*
X11058500Y9920000D02*
X11406500Y9572000D01*
X11232500Y10000000D02*
X11660500Y9572000D01*
X11145500Y9960000D02*
X11533500Y9572000D01*
X11615500Y10120000D02*
X12163500Y9572000D01*
X11533500Y10080000D02*
X12041500Y9572000D01*
X11319500Y10040000D02*
X11787500Y9572000D01*
X7880000Y9650000D02*
Y9710000D01*
X7270000Y8000000D02*
Y8140000D01*
X7310017Y8259957D02*
Y8340017D01*
X7390000Y8420000D01*
X7189987Y7900013D02*
Y8139983D01*
X6780000Y7260000D02*
Y8210001D01*
X6730000Y7350000D02*
Y8240000D01*
X6370000Y6990000D02*
X6730000Y7350000D01*
X3130000Y6990000D02*
X6370000D01*
X6450000Y7300000D02*
X6545000Y7395000D01*
X2860000Y7170000D02*
X2950000D01*
X6290000Y7650000D02*
X6450000D01*
X4330000Y8370000D02*
X4650000D01*
X4190000Y8230000D02*
X4330000Y8370000D01*
X6240000Y10950000D02*
Y12335000D01*
X4290000Y10080000D02*
Y10430000D01*
X3650000Y9440000D02*
X4290000Y10080000D01*
X3650000Y8310000D02*
Y9440000D01*
Y8310000D02*
X4430000Y7530000D01*
X3800711Y7460000D02*
X6100000D01*
X4660000Y10490000D02*
X4930000D01*
X4589999Y10560000D02*
X4660000Y10490000D01*
X6150000Y10860000D02*
X6240000Y10950000D01*
X3420000Y12270000D02*
X3540000D01*
X3110000D02*
X3420000D01*
X3540000D02*
X3670000Y12140000D01*
Y12090000D02*
Y12140000D01*
X3100000Y12260000D02*
X3110000Y12270000D01*
X3420000D02*
X3520000Y12370000D01*
X5060000Y12025000D02*
Y12300000D01*
X4825000Y11790000D02*
X5060000Y12025000D01*
X5540000Y11720000D02*
Y12220000D01*
X4805000Y10625000D02*
X4910000Y10730000D01*
X4589999Y10625000D02*
X4805000D01*
X3749999Y11280000D02*
X3940000D01*
X2950000Y7170000D02*
X3130000Y6990000D01*
X3050000Y8140000D02*
Y8506000D01*
X3100000Y8160711D02*
Y8536000D01*
X3050000Y8140000D02*
X3780000Y7410000D01*
X3100000Y8160711D02*
X3800711Y7460000D01*
X5410000Y12920000D02*
X5430000Y12939999D01*
X5410000Y12450000D02*
Y12920000D01*
Y12450000D02*
X5740000Y12120000D01*
X5770000D01*
X5510000Y12440000D02*
X5780000D01*
X5930000Y12590000D01*
X6980000Y12700000D02*
X7050000Y12770000D01*
Y13139999D01*
X7000000Y13189999D02*
X7050000Y13139999D01*
X5430000Y12939999D02*
X5460000Y12910001D01*
X6210000D01*
X6260000Y12960001D01*
X6750000D01*
X6830000Y12880000D01*
X6840000Y12700000D02*
X6980000D01*
X5930000Y12590000D02*
X6730000D01*
X6840000Y12700000D01*
X6830000Y12880000D02*
X6970000D01*
X2880000Y8676000D02*
X3050000Y8506000D01*
X2960000Y8676000D02*
X3100000Y8536000D01*
X2960000Y8168000D02*
X3771431Y7356568D01*
X2880000Y8168000D02*
X3748000Y7300000D01*
X4470000Y9010000D02*
Y9260000D01*
Y9010000D02*
X4940000Y8540000D01*
X4390000Y9340000D02*
X4470000Y9260000D01*
X3748000Y7300000D02*
X6450000D01*
X6100000Y7460000D02*
X6290000Y7650000D01*
X5140000Y8580000D02*
X5140000Y8580000D01*
X5640000Y8400000D02*
Y8880000D01*
X5140000Y8170000D02*
Y8580000D01*
X4190000Y8090000D02*
Y8230000D01*
X4950000Y8770000D02*
X5140000Y8580000D01*
X5490000Y8410000D02*
Y8993000D01*
X5721000Y9224000D01*
X5170000Y7930000D02*
X5640000Y8400000D01*
X4390000Y8130000D02*
Y8240000D01*
Y8130000D02*
X4590000Y7930000D01*
X5170000D01*
X5745480Y10586999D02*
Y10594520D01*
X3780000Y7410000D02*
X6130000D01*
X6310000Y7590000D01*
X6430000D01*
X7400000Y7440000D02*
Y7900000D01*
X7270000Y8000000D02*
X7310000Y7960000D01*
X10771500Y9498500D02*
Y9572000D01*
Y9498500D02*
X10840000Y9430000D01*
Y8680000D02*
Y9430000D01*
X10898500Y9491500D02*
Y9572000D01*
Y9491500D02*
X10940000Y9450000D01*
Y8680000D02*
Y9450000D01*
X11025500Y9484500D02*
Y9572000D01*
Y9484500D02*
X11040000Y9470000D01*
Y8680000D02*
Y9470000D01*
X11152500Y9492500D02*
Y9572000D01*
X11279500Y9489500D02*
Y9572000D01*
X11406500Y9506500D02*
Y9572000D01*
X11533500Y9513500D02*
Y9572000D01*
X11660500Y9520500D02*
Y9572000D01*
X11787500Y9487500D02*
Y9572000D01*
X11640000Y9340000D02*
X11787500Y9487500D01*
X11640000Y8680000D02*
Y9340000D01*
X11740000Y8680000D02*
Y9300000D01*
X12041500Y9461500D02*
Y9572000D01*
X11840000Y9260000D02*
X12041500Y9461500D01*
X11840000Y8680000D02*
Y9260000D01*
X11940000Y8680000D02*
Y9240000D01*
X10009500Y9480500D02*
X10240000Y9250000D01*
X10009500Y9480500D02*
Y9572000D01*
X10073000Y9477000D02*
X10290000Y9260000D01*
X10073000Y9477000D02*
Y9530000D01*
X10136500Y9473500D02*
Y9572000D01*
Y9473500D02*
X10340000Y9270000D01*
X10798400Y9799100D02*
X11025500Y9572000D01*
X11940000Y9240000D02*
X12163500Y9463500D01*
Y9572000D01*
X7320000Y10120000D02*
X11615500D01*
X7340000Y10080000D02*
X11533500D01*
X7010000Y9890000D02*
X7300000Y10180000D01*
X7600000D01*
X6940110Y9890000D02*
X7400110Y10350000D01*
X7600000Y10180000D02*
X7730000Y10310000D01*
X7400110Y10350000D02*
X7480000D01*
X11440000Y9420000D02*
X11533500Y9513500D01*
X11540000Y9400000D02*
X11660500Y9520500D01*
X11440000Y8680000D02*
Y9420000D01*
X11540000Y8680000D02*
Y9400000D01*
X11240000Y9450000D02*
X11279500Y9489500D01*
X11140000Y9480000D02*
X11152500Y9492500D01*
X11340000Y9440000D02*
X11406500Y9506500D01*
X11140000Y8680000D02*
Y9480000D01*
X11240000Y8680000D02*
Y9450000D01*
X11340000Y8680000D02*
Y9440000D01*
X7390000Y8340000D02*
X7490000Y8240000D01*
Y8000000D02*
Y8240000D01*
Y8000000D02*
X7520000Y7970000D01*
X4950000Y8770000D02*
Y8800000D01*
X10770000Y10470000D02*
X11000000Y10700000D01*
X9780000Y10470000D02*
X10770000D01*
X12930000Y8630000D02*
X13250000Y8310000D01*
X10340000Y8560000D02*
Y9269999D01*
X10200000Y8680000D02*
X10290000D01*
X10130000Y8610000D02*
X10200000Y8680000D01*
X10190000Y8070000D02*
Y8590000D01*
X10130000Y8070000D02*
Y8610000D01*
X10290000Y8680000D02*
Y8840000D01*
Y8850000D02*
Y9260000D01*
X12645000Y6955000D02*
X13200000Y7510000D01*
X7205000Y6955000D02*
X12645000D01*
X12500000Y7080000D02*
X13035001Y7615000D01*
X7640000Y7080000D02*
X12500000D01*
X13080000Y7540000D02*
Y7920000D01*
X13130000Y7520000D02*
Y8270000D01*
X12580000Y7040000D02*
X13080000Y7540000D01*
X12610000Y7000000D02*
X13130000Y7520000D01*
X7250000Y7040000D02*
X12580000D01*
X7050000Y7110000D02*
X7205000Y6955000D01*
X6780000Y7260000D02*
X7169375Y6870625D01*
X6920000Y7180000D02*
X7190000Y6910000D01*
X7250000Y7470000D02*
X7640000Y7080000D01*
X7660000Y7120000D02*
X9980000D01*
X7360000Y7420000D02*
X7660000Y7120000D01*
X10240000Y9160001D02*
Y9250000D01*
X9980000Y7120000D02*
X10150000Y7290000D01*
X7090000Y7140000D02*
X7230000Y7000000D01*
X12610000D01*
X6430000Y9060000D02*
X6480000Y9010000D01*
X6430000Y9060000D02*
Y9490000D01*
X6370000Y9060000D02*
X6460000Y8970000D01*
X6370000Y9060000D02*
Y9550000D01*
X6240000Y12335000D02*
X6320000Y12415000D01*
X11740000Y9300000D02*
X11914500Y9474500D01*
Y9622000D01*
X5137500Y12760000D02*
X5230000D01*
X4802500Y12425000D02*
X5137500Y12760000D01*
X11000000Y10700000D02*
X11710000D01*
X13350000Y9060000D01*
X10000000Y11190000D02*
X10010000Y11180000D01*
X3479999Y11010000D02*
X3749999Y11280000D01*
X3121250Y10651250D02*
X3479999Y11010000D01*
X4020000Y12910001D02*
X4090000Y12839999D01*
X3100000Y12889999D02*
X3120000Y12910001D01*
X4020000D01*
X6130000Y9090000D02*
X6180000Y9140000D01*
X6130000Y8850000D02*
Y9090000D01*
X6030000Y8750000D02*
X6130000Y8850000D01*
X6030000Y8560000D02*
Y8750000D01*
X5860000Y9860000D02*
X5960000Y9760000D01*
Y8120001D02*
Y9760000D01*
X5860000Y8270000D02*
X5910000Y8220000D01*
X6780000Y9580000D02*
X6820000Y9620000D01*
X6780000Y9430000D02*
X6950000Y9260000D01*
X6780000Y9430000D02*
Y9580000D01*
X6480000Y9010000D02*
X6610000D01*
X6860000Y9520000D02*
Y9660000D01*
X6910000Y9650000D02*
X6910000Y9650000D01*
X6860000Y9660000D02*
X7320000Y10120000D01*
X6910000Y9650000D02*
X7340000Y10080000D01*
X7550000Y9630000D02*
X7560000Y9620000D01*
X7515000Y9595000D02*
X7580000Y9530000D01*
X9720000Y7160000D02*
X9850000Y7290000D01*
X7400000Y7440000D02*
X7680000Y7160000D01*
X9720000D01*
X9300000Y7240000D02*
X10130000Y8070000D01*
X7480013Y7479987D02*
X7720000Y7240000D01*
X9300000D01*
X9320000Y7200000D02*
X10190000Y8070000D01*
X7700000Y7200000D02*
X9320000D01*
X7440000Y7460000D02*
Y7900000D01*
Y7460000D02*
X7700000Y7200000D01*
X7480013Y7479987D02*
Y7900000D01*
X7520000Y7500000D02*
Y7970000D01*
X7430000Y9850000D02*
X7620000Y10040000D01*
X7680000Y9920000D02*
X11058500D01*
X7480000Y9840000D02*
X7640000Y10000000D01*
X7550000Y9790000D02*
X7680000Y9920000D01*
X7515000Y9815000D02*
X7660000Y9960000D01*
X7710000Y9720000D02*
X7870000Y9880000D01*
X7750000Y9640000D02*
Y9700000D01*
X7890000Y9840000D01*
X7710000Y9610000D02*
Y9720000D01*
X7550000Y9630000D02*
Y9790000D01*
X7515000Y9595000D02*
Y9815000D01*
X7480000Y9550000D02*
Y9840000D01*
D49*
X6480000Y8200000D02*
Y8310000D01*
X6610000Y9010000D02*
X6619100Y9019100D01*
X6710000Y8940000D02*
X6750000Y8899999D01*
X6710000Y8940000D02*
Y8994800D01*
X6685700Y9019100D02*
X6710000Y8994800D01*
X6619100Y9019100D02*
X6685700D01*
X6790000Y8300000D02*
X6870000D01*
X6910000Y8340000D01*
X6970000Y8540000D02*
X7350000D01*
X7470000Y8420000D01*
X7560000Y9620000D02*
X7600000Y9580000D01*
X6930000Y9500000D02*
X6950000Y9520000D01*
X7840000Y9630000D02*
Y9690000D01*
Y9630000D02*
X7860000Y9610000D01*
X7950000D01*
X7990000Y9570000D01*
Y9360000D02*
Y9570000D01*
X7810000Y9180000D02*
X7990000Y9360000D01*
X7280000Y9180000D02*
X7810000D01*
X7200000Y9260000D02*
X7280000Y9180000D01*
X7090000Y9260000D02*
X7200000D01*
X7030000Y9320000D02*
X7090000Y9260000D01*
X7890000Y9580000D02*
X7910000Y9560000D01*
X7810000Y9580000D02*
X7890000D01*
X7750000Y9640000D02*
X7810000Y9580000D01*
X7710000Y9610000D02*
X7750000Y9570000D01*
X7910000Y9360000D02*
Y9560000D01*
X7810000Y9260000D02*
X7910000Y9360000D01*
X7250000Y9260000D02*
X7810000D01*
X7210000Y9340000D02*
X7650000D01*
X7190000Y9360000D02*
X7210000Y9340000D01*
X7170000D02*
X7250000Y9260000D01*
X7134800Y9340000D02*
X7170000D01*
X7750000Y9520000D02*
Y9570000D01*
Y9520000D02*
X7770000Y9500000D01*
X7830000D01*
X7870000Y9540000D01*
X7565000Y9465000D02*
X7610000Y9420000D01*
X7650000D01*
X7569967D02*
X7609981Y9379985D01*
X7629981D01*
X7650000Y9420000D02*
X7670000Y9400000D01*
Y9360000D02*
Y9400000D01*
X7650000Y9340000D02*
X7670000Y9360000D01*
X7430000Y9440000D02*
X7450000Y9420000D01*
X7569967D01*
X7580000Y9530000D02*
X7610000Y9500000D01*
X7650000D01*
X7670000Y9480000D01*
Y9440000D02*
Y9480000D01*
Y9440000D02*
X7690037Y9419962D01*
X7600000Y9580000D02*
X7650000D01*
X7670000Y9560000D01*
Y9520000D02*
Y9560000D01*
Y9520000D02*
X7710000Y9480000D01*
Y9460000D02*
Y9480000D01*
X7750075Y9419962D02*
X7790019Y9380018D01*
X7690037Y9419962D02*
X7750075D01*
X7420000Y7960000D02*
Y8060000D01*
X7389987Y8090013D02*
Y8179983D01*
X7229987Y8499983D02*
X7269987Y8459983D01*
X7350017Y8084783D02*
Y8219957D01*
X7310017Y8259957D02*
X7350017Y8219957D01*
X7269987Y8140000D02*
Y8459983D01*
X7149987Y8259983D02*
X7189987Y8219984D01*
Y8139983D02*
Y8219984D01*
X7069987Y8259983D02*
X7109987Y8219984D01*
Y8139983D02*
Y8219984D01*
X7030000Y8297500D02*
Y8380000D01*
X6950000Y8460000D02*
X7030000Y8380000D01*
X6790000Y8460000D02*
X6950000D01*
X6750000Y8500000D02*
X6790000Y8460000D01*
X6480000Y8310000D02*
X6550000Y8380000D01*
X6930000D02*
X6950000Y8360000D01*
X7350017Y8084783D02*
X7390000Y8044800D01*
X7389987Y8090013D02*
X7420000Y8060000D01*
X7390000Y7940000D02*
Y8044800D01*
Y7940000D02*
X7400000Y7930000D01*
X7420000Y7960000D02*
X7440000Y7940000D01*
X7389987Y8259983D02*
X7450000Y8199970D01*
Y7980000D02*
Y8199970D01*
Y7980000D02*
X7480013Y7949987D01*
X7400000Y7900000D02*
Y7930000D01*
X7440000Y7900000D02*
Y7940000D01*
X7480013Y7900000D02*
Y7949987D01*
X7550000Y8420000D02*
X7590000Y8380000D01*
X6950000Y8560000D02*
X6970000Y8540000D01*
X7360000Y7590000D02*
Y8039445D01*
X7310017Y8089428D02*
Y8179987D01*
Y8089428D02*
X7360000Y8039445D01*
X6550000Y8380000D02*
X6930000D01*
X7020000Y8287500D02*
X7030000Y8297500D01*
X6950000Y8287500D02*
Y8360000D01*
X7590000Y8142500D02*
Y8380000D01*
Y8142500D02*
X7642500Y8090000D01*
X6880000Y9500000D02*
X6930000D01*
X6860000Y9520000D02*
X6880000Y9500000D01*
X6950000Y8560000D02*
Y9260000D01*
X6990000Y9620000D02*
X7030000Y9580000D01*
X6950000Y9520000D02*
Y9640000D01*
X6970000Y9660000D01*
X7110000Y9500000D02*
X7150000Y9540000D01*
Y9460000D02*
X7190000Y9420000D01*
X6970000Y9660000D02*
X7020000D01*
X7070000Y9610000D01*
Y9460000D02*
Y9610000D01*
X7190000Y9360000D02*
Y9420000D01*
X7110000Y9364800D02*
X7134800Y9340000D01*
X7110000Y9364800D02*
Y9500000D01*
X7030000Y9320000D02*
Y9580000D01*
X7430000Y9440000D02*
Y9850000D01*
D53*
X5380000Y7750000D02*
X5550000D01*
X5170000D02*
X5380000D01*
D56*
X12420000Y13080000D02*
X13239999D01*
X12070000Y12730000D02*
X12420000Y13080000D01*
X13150000Y11820000D02*
X13320000Y11990000D01*
X13239999Y12690000D02*
X13389999Y12839999D01*
Y12989999D01*
X13300000Y13080000D02*
X13389999Y12989999D01*
X13239999Y13080000D02*
X13300000D01*
X13239999Y12410000D02*
Y12690000D01*
Y12410000D02*
X13320000Y12330000D01*
Y11990000D02*
Y12330000D01*
D59*
X8247500Y8815000D02*
X8290000Y8772500D01*
X8247500Y8815000D02*
Y8877500D01*
X8312500Y8942500D01*
Y9022300D01*
X7890000Y8900000D02*
X7931600Y8941600D01*
X7790000Y8980000D02*
X7830000Y9020000D01*
X8080000D01*
X8100000Y8960000D02*
Y9000000D01*
X8081600Y8941600D02*
X8100000Y8960000D01*
X7931600Y8941600D02*
X8081600D01*
X8080000Y9020000D02*
X8100000Y9000000D01*
X7890000Y8797500D02*
Y8900000D01*
X7952500Y8735000D02*
X8117500D01*
X7890000Y8797500D02*
X7952500Y8735000D01*
X8175000Y8792500D02*
Y9020000D01*
X8117500Y8735000D02*
X8175000Y8792500D01*
X8728002Y8843002D02*
Y8935500D01*
X8657500Y8772500D02*
X8728002Y8843002D01*
X8290000Y8772500D02*
X8657500D01*
X8190000Y8707500D02*
X8227500Y8745000D01*
X7927500Y8707500D02*
X8190000D01*
X7860000Y8775000D02*
X7927500Y8707500D01*
X7860000Y8775000D02*
Y8852500D01*
X7750066Y8962434D02*
X7860000Y8852500D01*
X8550000Y8745000D02*
X8592500Y8702500D01*
X8227500Y8745000D02*
X8550000D01*
X8592500Y8645000D02*
Y8702500D01*
X8197500Y9152500D02*
X8290000D01*
X8145000Y9100000D02*
X8197500Y9152500D01*
X8145000Y8867500D02*
Y9100000D01*
X8290000Y9152500D02*
X8340000Y9102500D01*
Y8910000D02*
Y9102500D01*
X8450000Y8915000D02*
Y9177500D01*
X8427500Y8892500D02*
X8450000Y8915000D01*
X8357500Y8892500D02*
X8427500D01*
X8340000Y8910000D02*
X8357500Y8892500D01*
X8277300Y9057500D02*
X8312500Y9022300D01*
X8212500Y9057500D02*
X8277300D01*
X8175000Y9020000D02*
X8212500Y9057500D01*
X8525000Y8842500D02*
X8587500Y8905000D01*
X8655000Y8582500D02*
X8760000D01*
X8592500Y8645000D02*
X8655000Y8582500D01*
X8015000Y8865000D02*
Y8900000D01*
X8587500Y8905000D02*
Y9177500D01*
X8115000Y8837500D02*
X8145000Y8867500D01*
X8042500Y8837500D02*
X8115000D01*
X8015000Y8865000D02*
X8042500Y8837500D01*
X8560000Y9205000D02*
X8587500Y9177500D01*
X8477500Y9205000D02*
X8560000D01*
X8450000Y9177500D02*
X8477500Y9205000D01*
X8582500Y7772500D02*
Y7915000D01*
X8547500Y7950000D02*
X8582500Y7915000D01*
X8460000Y7950000D02*
X8547500D01*
X8425000Y7915000D02*
X8460000Y7950000D01*
X8425000Y7862500D02*
Y7915000D01*
X8252500Y7860000D02*
Y8347500D01*
X8212500Y8387500D02*
X8252500Y8347500D01*
X8120000Y8387500D02*
X8212500D01*
X8640000Y7715000D02*
X8815000D01*
X8582500Y7772500D02*
X8640000Y7715000D01*
X8082500Y8350000D02*
X8120000Y8387500D01*
X8082500Y8180100D02*
Y8350000D01*
X8372500Y7810000D02*
X8425000Y7862500D01*
X8302500Y7810000D02*
X8372500D01*
X8252500Y7860000D02*
X8302500Y7810000D01*
X8857500Y7757500D02*
Y7846004D01*
X8815000Y7715000D02*
X8857500Y7757500D01*
X8807963Y7895541D02*
X8857500Y7846004D01*
X8567500Y8070000D02*
Y8248369D01*
X8520000Y8022500D02*
X8567500Y8070000D01*
X8465000Y8022500D02*
X8520000D01*
X8422500Y8065000D02*
X8465000Y8022500D01*
X8422500Y8065000D02*
Y8257500D01*
X8600000Y8485000D02*
Y8590000D01*
X8555000Y8635000D02*
X8600000Y8590000D01*
X8472500Y8635000D02*
X8555000D01*
X8435000Y8597500D02*
X8472500Y8635000D01*
X8435000Y8520000D02*
Y8597500D01*
X8449208Y8366661D02*
X8567500Y8248369D01*
X8600000Y8485000D02*
X8647963Y8437037D01*
X8362500Y8447500D02*
X8435000Y8520000D01*
X8362500Y8317500D02*
Y8447500D01*
Y8317500D02*
X8422500Y8257500D01*
X8647963Y8295541D02*
Y8437037D01*
X8552500Y7985000D02*
X8600000Y8032500D01*
X8430000Y7985000D02*
X8552500D01*
X8372988Y8042012D02*
X8430000Y7985000D01*
X8600000Y8032500D02*
Y8217500D01*
X8372988Y8042012D02*
Y8226961D01*
X8635000Y8252500D02*
X8764921D01*
X8600000Y8217500D02*
X8635000Y8252500D01*
X7750066Y8962434D02*
Y9099969D01*
X8842500Y8435000D02*
Y8500000D01*
X8760000Y8582500D02*
X8842500Y8500000D01*
X9012500Y8557500D02*
X9030000Y8540000D01*
Y8510000D02*
Y8540000D01*
X9007500Y8487500D02*
X9030000Y8510000D01*
X8977500Y8487500D02*
X9007500D01*
X8952499Y8512500D02*
X8977500Y8487500D01*
X9060000Y8602500D02*
X9077500Y8620000D01*
Y8660000D02*
X9097500Y8680000D01*
X9077500Y8620000D02*
Y8660000D01*
X9192501Y8680000D02*
X9208000Y8695499D01*
X9097500Y8680000D02*
X9192501D01*
X7710035Y9139999D02*
X7750066Y9099969D01*
X8842500Y8435000D02*
X8862500Y8415000D01*
X8887500D01*
X8907500Y8435000D01*
Y8492500D01*
X8927500Y8512500D01*
X8952499D01*
X9012500Y8557500D02*
Y8587500D01*
X9027500Y8602500D01*
X9060000D01*
X8035000Y8037500D02*
Y8070000D01*
Y8037500D02*
X8387500Y7685000D01*
X8837500D01*
X9052500Y7900000D01*
X9070000Y7770038D02*
X9098003Y7798041D01*
X8987500Y7747500D02*
X9010038Y7770038D01*
X9070000D01*
X9222500Y8015000D02*
X9247500Y8040000D01*
Y8095962D01*
X9207961Y8135502D02*
X9247500Y8095962D01*
X9052500Y7900000D02*
Y7950000D01*
X9090000Y7987500D01*
X9145000D01*
X9172500Y8015000D01*
X9222500D01*
X7960000Y8030000D02*
X8395000Y7595000D01*
X9080000D01*
X9208003Y7723003D01*
Y7895541D01*
X7750000Y8482300D02*
Y8700036D01*
X7669964Y8460000D02*
X7730000D01*
X7750000Y8482300D02*
X7832300Y8400000D01*
X7910000D01*
X7987500Y8322500D01*
Y8045000D02*
X8407500Y7625000D01*
X8987500Y7670000D02*
Y7747500D01*
X8407500Y7625000D02*
X8942500D01*
X8987500Y7670000D01*
X8764921Y8252500D02*
X8807982Y8295561D01*
X7960000Y8030000D02*
Y8230000D01*
X7730000Y8460000D02*
X7960000Y8230000D01*
X7987500Y8045000D02*
Y8322500D01*
X8032700Y8130300D02*
X8082500Y8180100D01*
X7710012Y8740024D02*
X7750000Y8700036D01*
X7629976Y8420011D02*
X7669964Y8460000D01*
D60*
X11020000Y11580000D02*
X12630000Y9970000D01*
X10690000Y11580000D02*
X11020000D01*
D66*
X13650000Y13400000D02*
D03*
D67*
X3157499Y11790001D02*
D03*
Y13060001D02*
D03*
Y12425001D02*
D03*
X3212500Y13385001D02*
D03*
Y12750001D02*
D03*
X4352499Y12115001D02*
D03*
Y12750001D02*
D03*
X3212500Y12115001D02*
D03*
X4352499Y13385001D02*
D03*
X4407499Y11790001D02*
D03*
Y12425001D02*
D03*
Y13060001D02*
D03*
X4802500Y11790001D02*
D03*
Y13060001D02*
D03*
Y12425001D02*
D03*
X4857500Y13385001D02*
D03*
Y12750001D02*
D03*
X5997500Y12115001D02*
D03*
Y12750001D02*
D03*
X4857500Y12115001D02*
D03*
X5997500Y13385001D02*
D03*
X6052500Y11790001D02*
D03*
Y12425001D02*
D03*
Y13060001D02*
D03*
D68*
X6890501Y12509001D02*
D03*
X7140501D02*
D03*
X6890501Y12309001D02*
D03*
X7140501D02*
D03*
D69*
X8347501Y13395001D02*
D03*
X9347501D02*
D03*
Y12145001D02*
D03*
X8347501D02*
D03*
X8097501Y12395001D02*
D03*
X9597501D02*
D03*
X8847501D02*
D03*
D70*
X11204300Y12779100D02*
D03*
X11704300Y12469100D02*
D03*
Y13089101D02*
D03*
D71*
X13184302Y13409099D02*
D03*
X12930302Y12901099D02*
D03*
X12676302D02*
D03*
Y13409099D02*
D03*
X13184302Y12901099D02*
D03*
D72*
X13010001Y9015000D02*
D03*
X13623000Y9480000D02*
D03*
Y9310000D02*
D03*
X13410001Y10180000D02*
D03*
X13670000D02*
D03*
X10970000Y10530000D02*
D03*
X10980000Y11410000D02*
D03*
X10439999Y10280000D02*
D03*
X10270000Y10240000D02*
D03*
X12232000Y9140000D02*
D03*
X12359000D02*
D03*
X12090000Y10180000D02*
D03*
X12359000Y9680000D02*
D03*
D73*
X3140000Y9512500D02*
D03*
X9110000Y12250000D02*
D03*
X5730001Y10459999D02*
D03*
X5730000Y10359999D02*
D03*
X4890000Y10600000D02*
D03*
X5160000Y10690000D02*
D03*
X6100000Y10270000D02*
D03*
X6330000Y11430000D02*
D03*
X6070000Y10459999D02*
D03*
X13200000Y11120000D02*
D03*
X3370000Y9690000D02*
D03*
X4390000Y8900000D02*
D03*
X5030000Y9170000D02*
D03*
X5410000Y9060000D02*
D03*
Y8880000D02*
D03*
X6060000Y9060000D02*
D03*
Y8880000D02*
D03*
X4390000Y9100000D02*
D03*
Y9000000D02*
D03*
Y9200000D02*
D03*
X6750000Y11490000D02*
D03*
X6710000Y11790000D02*
D03*
X7740000Y12590000D02*
D03*
X6350000Y11280000D02*
D03*
X6330000Y11540000D02*
D03*
X3790000Y10620000D02*
D03*
X3509999Y10620000D02*
D03*
X3509999Y10747000D02*
D03*
X3790000Y10493000D02*
D03*
D74*
X8727999Y8695508D02*
D03*
X6750018Y8419987D02*
D03*
X6670018D02*
D03*
X6590018D02*
D03*
X6510018D02*
D03*
X8646300Y8697202D02*
D03*
X7132500Y10310000D02*
D03*
X7282500D02*
D03*
X7167500Y10910000D02*
D03*
X7352500D02*
D03*
X7125000Y9700000D02*
D03*
X11220000Y10865530D02*
D03*
X8727963Y7895541D02*
D03*
X8647963D02*
D03*
X9288000Y8935500D02*
D03*
X9207993Y8615492D02*
D03*
X9207963Y8455542D02*
D03*
X9287961Y8375502D02*
D03*
X7710000Y8900000D02*
D03*
X8395500Y8816500D02*
D03*
X5410000Y7540000D02*
D03*
X5620000Y7537500D02*
D03*
X5987500Y8047500D02*
D03*
X6370000Y8020000D02*
D03*
X6450000D02*
D03*
X6450000Y7930000D02*
D03*
X5985000Y7977500D02*
D03*
X5910000Y8070000D02*
D03*
X6480000Y8200000D02*
D03*
X8271400Y9191900D02*
D03*
X8525000Y8842500D02*
D03*
X8015000Y8900000D02*
D03*
X8449208Y8366661D02*
D03*
X8550736D02*
D03*
X6590000Y9220000D02*
D03*
X6510000D02*
D03*
X9617500Y8537500D02*
D03*
X9247982Y7790482D02*
D03*
X9208003Y7895541D02*
D03*
X9098003Y7798041D02*
D03*
X9118003Y7895541D02*
D03*
X8197500Y7731671D02*
D03*
X8648002Y9095500D02*
D03*
X9207961Y8215502D02*
D03*
X8807963Y8215541D02*
D03*
X9207961Y7975501D02*
D03*
X9287961D02*
D03*
X9620000Y8649000D02*
D03*
X9625000Y8752500D02*
D03*
X9368000Y8695499D02*
D03*
X9288000D02*
D03*
X8728002Y8535499D02*
D03*
Y8375542D02*
D03*
X7790000Y8820015D02*
D03*
X8042726Y8540057D02*
D03*
X7789984Y8740016D02*
D03*
X8042800Y8660000D02*
D03*
X8807963Y7815541D02*
D03*
X8387000Y8696000D02*
D03*
X11230500Y10628000D02*
D03*
X8387400Y8936300D02*
D03*
X9270000Y11340000D02*
D03*
X4800000Y11370000D02*
D03*
X5270000Y11640000D02*
D03*
X9800000Y10660000D02*
D03*
X13189999Y6990100D02*
D03*
X13500000Y7160000D02*
D03*
X10010000Y8030000D02*
D03*
X9419981Y10479979D02*
D03*
X9630000Y10650000D02*
D03*
X6760000Y10040000D02*
D03*
X6870000Y9890000D02*
D03*
X9210000Y11110000D02*
D03*
X8610000Y11090000D02*
D03*
Y10920000D02*
D03*
X8420000Y10800000D02*
D03*
X6030000Y8560000D02*
D03*
X6490000Y8850000D02*
D03*
X6430000Y9490000D02*
D03*
X6370000Y9550000D02*
D03*
X6830000Y8260000D02*
D03*
X6830000Y8340000D02*
D03*
X6910000D02*
D03*
X6989948Y8340051D02*
D03*
X6710000Y9645000D02*
D03*
X6750000Y8660000D02*
D03*
X6830000Y8740000D02*
D03*
X6590000Y8740000D02*
D03*
X6830000Y8820000D02*
D03*
X5214839Y10495000D02*
D03*
X8373000Y7970500D02*
D03*
X7629999Y8820000D02*
D03*
X9287961Y8295502D02*
D03*
X8807960Y8775542D02*
D03*
X8727960Y8775500D02*
D03*
X9615000Y8967500D02*
D03*
X9620000Y8855000D02*
D03*
X4380000Y9870000D02*
D03*
X4780000Y10010000D02*
D03*
X5220000Y9520000D02*
D03*
Y9600000D02*
D03*
X6010000Y9310000D02*
D03*
X5840000Y11510000D02*
D03*
X10390000Y9160001D02*
D03*
X10708000Y9530000D02*
D03*
X10454000Y9520000D02*
D03*
X10517500Y9562000D02*
D03*
X10581000Y9590000D02*
D03*
X10644500Y9632000D02*
D03*
X7950000Y9710000D02*
D03*
X7800000Y9660000D02*
D03*
X7710000Y9540000D02*
D03*
X5600000Y6880000D02*
D03*
X4210000D02*
D03*
X3990000D02*
D03*
X6090000D02*
D03*
X5930000D02*
D03*
X5270000D02*
D03*
X5110000D02*
D03*
X4700000Y6880000D02*
D03*
X4460000Y6880000D02*
D03*
X7790019Y9380018D02*
D03*
X7949986Y9539981D02*
D03*
X7710001Y8500000D02*
D03*
Y8420000D02*
D03*
X7790000Y8980000D02*
D03*
X7710001D02*
D03*
Y9060000D02*
D03*
X7790000D02*
D03*
X9677000Y8310000D02*
D03*
X8382900Y8534800D02*
D03*
X8391200Y9081400D02*
D03*
X8372988Y8226961D02*
D03*
X9368000Y9095500D02*
D03*
X9288000Y9015500D02*
D03*
X9368000D02*
D03*
X9208000Y8775500D02*
D03*
Y8695499D02*
D03*
X9367961Y8135502D02*
D03*
X9287961D02*
D03*
X9207961Y8055502D02*
D03*
X9287961D02*
D03*
X9367961D02*
D03*
Y7975501D02*
D03*
Y7895501D02*
D03*
Y7815501D02*
D03*
X8647963Y7815541D02*
D03*
X8807963Y7895541D02*
D03*
X8727963Y7975541D02*
D03*
X8647963D02*
D03*
Y8055541D02*
D03*
X8727963D02*
D03*
X8807963Y8135541D02*
D03*
X8727963D02*
D03*
X8647963D02*
D03*
X8807963Y8055541D02*
D03*
X8647963Y8295541D02*
D03*
X8727963D02*
D03*
X8887960Y8775500D02*
D03*
X8648002Y8935500D02*
D03*
Y9015500D02*
D03*
X8728002D02*
D03*
X8808002Y8935500D02*
D03*
Y9015500D02*
D03*
X8648002Y8535499D02*
D03*
X8807963Y7975541D02*
D03*
X8042800Y8290500D02*
D03*
X8271401Y8976166D02*
D03*
X8728002Y8935500D02*
D03*
X8286199Y7604661D02*
D03*
X8042765Y8979899D02*
D03*
X9208000Y9095500D02*
D03*
X9288000D02*
D03*
X8271375Y9095540D02*
D03*
X9288000Y8615499D02*
D03*
X9368000Y8535499D02*
D03*
Y8615499D02*
D03*
X9288000Y8855500D02*
D03*
X9368000Y8775500D02*
D03*
X9288000D02*
D03*
X7709986Y9219982D02*
D03*
X7790000Y9220000D02*
D03*
Y8500000D02*
D03*
X7710000Y8580000D02*
D03*
X7789986Y9139982D02*
D03*
X7710000Y9300000D02*
D03*
X7790000Y8580000D02*
D03*
X7070000Y8660000D02*
D03*
X7150000Y8820000D02*
D03*
Y8900000D02*
D03*
Y8660000D02*
D03*
X7310000Y8660000D02*
D03*
X7390000D02*
D03*
X7310000Y8820000D02*
D03*
X6750000Y8980000D02*
D03*
X7070000D02*
D03*
X7150000D02*
D03*
Y9220000D02*
D03*
X7310000Y9140000D02*
D03*
X7630000Y8180000D02*
D03*
X7470000Y8820000D02*
D03*
Y8980000D02*
D03*
X7550000Y8820000D02*
D03*
X7470000Y9140000D02*
D03*
X6749988Y8819982D02*
D03*
X7229987Y8499983D02*
D03*
X7470000Y8580000D02*
D03*
X6990000Y8660000D02*
D03*
X7710000Y8820000D02*
D03*
X7310000Y8420000D02*
D03*
X7469986Y9459981D02*
D03*
X7630000Y8420000D02*
D03*
X6990000Y8820000D02*
D03*
X7150000Y8740000D02*
D03*
X7469983Y8659983D02*
D03*
X7630000Y8260000D02*
D03*
X7709986Y9459981D02*
D03*
X7389986Y8579983D02*
D03*
X6910000Y8420000D02*
D03*
X7790000Y8340000D02*
D03*
X6830000Y8580000D02*
D03*
Y9060000D02*
D03*
X6990000Y9300000D02*
D03*
X7150000Y8500000D02*
D03*
Y9300000D02*
D03*
X7390000D02*
D03*
X7470000D02*
D03*
X7549981Y9299981D02*
D03*
X7630000Y9300000D02*
D03*
X7709986Y9139982D02*
D03*
X7069987Y8259983D02*
D03*
Y8419983D02*
D03*
X7390000Y8420000D02*
D03*
X7710000Y8340000D02*
D03*
X7470000Y8420000D02*
D03*
X6589988Y8339987D02*
D03*
X7150000Y8340000D02*
D03*
X7550000Y8260000D02*
D03*
X6670000Y9220000D02*
D03*
X6910000Y8500000D02*
D03*
X6909987Y8899982D02*
D03*
X7310000Y9300000D02*
D03*
X7630000Y8340000D02*
D03*
X6669988Y8339987D02*
D03*
X7630000Y8980000D02*
D03*
X7789986Y9299981D02*
D03*
X7150000Y8420000D02*
D03*
X7070000Y8820000D02*
D03*
X7230000Y8260000D02*
D03*
X6990000Y9060000D02*
D03*
X7310000Y8980000D02*
D03*
X7390000Y8820000D02*
D03*
X6989987Y8979982D02*
D03*
X6910000Y9060000D02*
D03*
X7309987Y9219982D02*
D03*
X6830000Y8900000D02*
D03*
X6990000Y8580000D02*
D03*
X7630000Y9140000D02*
D03*
X7629986Y8579983D02*
D03*
X7710000Y8660000D02*
D03*
X7470000Y8500000D02*
D03*
X6910000Y8580000D02*
D03*
Y8819999D02*
D03*
X7150000Y8580000D02*
D03*
X7310000Y9060000D02*
D03*
X7150000Y9140000D02*
D03*
X7549986Y8659983D02*
D03*
X7390000Y8980000D02*
D03*
X7550000D02*
D03*
Y8420000D02*
D03*
Y8580000D02*
D03*
Y9140000D02*
D03*
X7630000Y8660000D02*
D03*
X7470000Y9220000D02*
D03*
X7710000Y8740000D02*
D03*
X7790000Y8260000D02*
D03*
X7550000Y8340000D02*
D03*
X7150017Y8179987D02*
D03*
X7389987Y8179983D02*
D03*
X7310017Y8179987D02*
D03*
X7230017D02*
D03*
X7070017D02*
D03*
X7555000Y8040000D02*
D03*
X6840000Y7560000D02*
D03*
X6900000Y7650000D02*
D03*
Y7590000D02*
D03*
X7389987Y8259983D02*
D03*
X7310017Y8259957D02*
D03*
X7390000Y8340000D02*
D03*
X6870000Y7420000D02*
D03*
Y6930000D02*
D03*
X6680000D02*
D03*
X6490000Y6930000D02*
D03*
X7149987Y8259983D02*
D03*
X6450000Y7430000D02*
D03*
X4280000Y8190000D02*
D03*
X4770000Y7980000D02*
D03*
X4940000Y8380000D02*
D03*
X4390000Y9340000D02*
D03*
X10527499Y11329999D02*
D03*
X10407499D02*
D03*
X10287499D02*
D03*
X10210000Y11012500D02*
D03*
Y11132500D02*
D03*
Y11252500D02*
D03*
X6340000Y11700000D02*
D03*
X10480000Y10740000D02*
D03*
X4430000Y7530000D02*
D03*
X4500000D02*
D03*
X4910000Y10730000D02*
D03*
X4930000Y10490000D02*
D03*
X4590000Y10690000D02*
D03*
X5590000Y10090000D02*
D03*
Y10205999D02*
D03*
X6150000Y10860000D02*
D03*
X6100000Y10380000D02*
D03*
X5745480Y10586999D02*
D03*
X6190000Y10068999D02*
D03*
X3355019Y9585019D02*
D03*
X3390000Y9460000D02*
D03*
X6320000Y12415000D02*
D03*
X6334338Y13199071D02*
D03*
X6320000Y11800000D02*
D03*
X6120000Y10586999D02*
D03*
X5214839Y10820000D02*
D03*
X6670000Y11550000D02*
D03*
Y11677000D02*
D03*
X2760000Y9680000D02*
D03*
Y9550000D02*
D03*
Y9615000D02*
D03*
Y9810000D02*
D03*
X3730000Y10090000D02*
D03*
X3479999Y10423000D02*
D03*
X3010000Y11140000D02*
D03*
X4290000Y10630000D02*
D03*
X3760000Y11820000D02*
D03*
X3010000Y10940000D02*
D03*
X4290000Y10430000D02*
D03*
X3810000Y12280000D02*
D03*
X3940000Y11460000D02*
D03*
X3500000Y13289999D02*
D03*
X3670000Y12090000D02*
D03*
X4090000Y12839999D02*
D03*
X3520000Y12370000D02*
D03*
X3100000Y12889999D02*
D03*
X3819999Y11010000D02*
D03*
X8206959Y11745000D02*
D03*
Y11875000D02*
D03*
X8440000Y11745000D02*
D03*
X10409999Y10927499D02*
D03*
X10529999D02*
D03*
X10289999D02*
D03*
X10609999Y11007499D02*
D03*
Y11127499D02*
D03*
Y11247499D02*
D03*
X10740000Y8680000D02*
D03*
X10640000D02*
D03*
X4589999Y10820000D02*
D03*
Y10560000D02*
D03*
X5214839Y10625000D02*
D03*
X4750000Y12900000D02*
D03*
X5150000Y12390000D02*
D03*
X5430000Y12939999D02*
D03*
X5620000Y12550000D02*
D03*
X5770000Y12120000D02*
D03*
X5060000Y12300000D02*
D03*
X5270000Y11440000D02*
D03*
X5630000D02*
D03*
X5540000Y12220000D02*
D03*
X5630000Y11630000D02*
D03*
X3420000Y11550000D02*
D03*
X4900000Y11440000D02*
D03*
X6030000Y10840999D02*
D03*
Y10078999D02*
D03*
X6669988Y8979982D02*
D03*
X7309987Y8579983D02*
D03*
X7070000Y8740000D02*
D03*
X6750000Y8500000D02*
D03*
X7789982Y9459981D02*
D03*
X4589999Y10625000D02*
D03*
X2860000Y7170000D02*
D03*
X3940000Y11280000D02*
D03*
X4210000Y7060000D02*
D03*
X3990000D02*
D03*
X2880000Y8676000D02*
D03*
X2960000Y8168000D02*
D03*
X2880000D02*
D03*
Y7914000D02*
D03*
X5110000Y7060000D02*
D03*
X5930000D02*
D03*
X6090000D02*
D03*
X5600000D02*
D03*
X5770000D02*
D03*
X5430000D02*
D03*
X5270000D02*
D03*
X3360000Y9520000D02*
D03*
X5510000Y10560000D02*
D03*
X6750000Y8899999D02*
D03*
X6589970Y8900000D02*
D03*
X6730000Y13139999D02*
D03*
X5510000Y12440000D02*
D03*
X7000000Y13189999D02*
D03*
X6910000Y13280000D02*
D03*
X7160000Y13220000D02*
D03*
X7250000Y13130000D02*
D03*
X5780000Y11930000D02*
D03*
X6970000Y12880000D02*
D03*
X7150000D02*
D03*
X6800000Y10860000D02*
D03*
X6170000Y10140000D02*
D03*
X6030000Y10332999D02*
D03*
X6150000Y10720000D02*
D03*
X6590001Y8500000D02*
D03*
X6670001D02*
D03*
X6450000Y7790000D02*
D03*
Y7860000D02*
D03*
Y7720000D02*
D03*
X6670000Y8900000D02*
D03*
X6530000Y8160000D02*
D03*
X4390000Y8820000D02*
D03*
Y8760000D02*
D03*
Y8700000D02*
D03*
Y8640000D02*
D03*
X6660000Y10930000D02*
D03*
X6560000Y10990000D02*
D03*
X2960000Y8930000D02*
D03*
X2880000D02*
D03*
X2960000Y8676000D02*
D03*
X3810000Y9210000D02*
D03*
X3850000Y9550000D02*
D03*
X4940000Y8540000D02*
D03*
X4590000Y9630000D02*
D03*
X6450000Y7650000D02*
D03*
X6430000Y7590000D02*
D03*
X5730000Y8700000D02*
D03*
Y8540000D02*
D03*
X5820000Y7980000D02*
D03*
X6180000Y9320000D02*
D03*
X4570000Y8090000D02*
D03*
X4220000Y7850000D02*
D03*
X6180000Y9140000D02*
D03*
X5860000Y9860000D02*
D03*
Y9680000D02*
D03*
X5721000Y9224000D02*
D03*
X5640000Y8880000D02*
D03*
X4570000Y8240000D02*
D03*
X4190000Y8090000D02*
D03*
X4390000Y8240000D02*
D03*
X5140000Y8170000D02*
D03*
X5428740Y8760000D02*
D03*
X10410000Y11580000D02*
D03*
X10135000Y11417500D02*
D03*
X10065000Y11430000D02*
D03*
X9760000Y11260000D02*
D03*
X10880000Y11160000D02*
D03*
X10880000Y11230000D02*
D03*
X10797500Y11440000D02*
D03*
X11500000Y10290000D02*
D03*
X10660000Y11840000D02*
D03*
X10120000Y12050000D02*
D03*
X10850000Y11400000D02*
D03*
X11430000Y10920000D02*
D03*
X10580000Y11580000D02*
D03*
X10940000Y8680000D02*
D03*
X7190000Y7260000D02*
D03*
X7190000Y7180000D02*
D03*
X7200000Y7340000D02*
D03*
X7320000Y7130000D02*
D03*
X7270000Y7180000D02*
D03*
X2880000Y8422000D02*
D03*
X2960000D02*
D03*
X3050000Y7910000D02*
D03*
X6450000Y7530000D02*
D03*
X7642500Y8090000D02*
D03*
X7310000Y7640000D02*
D03*
X10771500Y9572000D02*
D03*
X10898500D02*
D03*
X11025500D02*
D03*
X11152500D02*
D03*
X11279500D02*
D03*
X11406500D02*
D03*
X11533500D02*
D03*
X11660500D02*
D03*
X11787500D02*
D03*
X11914500Y9622000D02*
D03*
X12041500Y9572000D02*
D03*
X10590000Y9160001D02*
D03*
X10840000Y8680000D02*
D03*
X11140000D02*
D03*
X11040000D02*
D03*
X11940000D02*
D03*
X11440000D02*
D03*
X12040000D02*
D03*
X12140000D02*
D03*
X10790000Y9160001D02*
D03*
X11090000D02*
D03*
X10990000D02*
D03*
X10890000D02*
D03*
X11590000Y9160001D02*
D03*
X11790000Y9160001D02*
D03*
X11690000D02*
D03*
X11990000D02*
D03*
X11890000Y9160001D02*
D03*
X12090000Y9160001D02*
D03*
X10490000D02*
D03*
X10540000Y8680000D02*
D03*
X10835000Y9530000D02*
D03*
X11216000D02*
D03*
X11343000D02*
D03*
X11089000D02*
D03*
X10962000D02*
D03*
X11724000D02*
D03*
X11851000D02*
D03*
X11597000D02*
D03*
X12105000D02*
D03*
X11978000Y9560000D02*
D03*
X10073000Y9530000D02*
D03*
X9946000D02*
D03*
X10200000D02*
D03*
X10136500Y9572000D02*
D03*
X10009500D02*
D03*
X11470000Y9530000D02*
D03*
X7552500Y8110000D02*
D03*
X7870000Y9540000D02*
D03*
X7790000D02*
D03*
X7880000Y9650000D02*
D03*
X12163500Y9572000D02*
D03*
X7629981Y9459981D02*
D03*
X10690000Y9160001D02*
D03*
X7310000Y9460000D02*
D03*
X7389986Y9459981D02*
D03*
X7230000Y9380000D02*
D03*
X7390014Y9379981D02*
D03*
X7470014D02*
D03*
X7550014D02*
D03*
X7310014D02*
D03*
X7710014D02*
D03*
X7630000Y9380000D02*
D03*
X8959712Y9174605D02*
D03*
X6800000Y10670000D02*
D03*
X7189985Y10209980D02*
D03*
X7077500Y10260000D02*
D03*
X7119980Y10860020D02*
D03*
X7249965Y10810000D02*
D03*
X8840000Y10360001D02*
D03*
Y10810000D02*
D03*
X8840000Y10280000D02*
D03*
X8580000Y10240000D02*
D03*
X6940000Y9890000D02*
D03*
X7010000D02*
D03*
X8840000Y10440000D02*
D03*
X8580000Y10480000D02*
D03*
X7990000Y10730000D02*
D03*
X7480000Y10350000D02*
D03*
X7730000Y10310000D02*
D03*
X7720000Y10409200D02*
D03*
X7830000Y10550000D02*
D03*
X11840000Y8680000D02*
D03*
X11740000D02*
D03*
X11640000D02*
D03*
X11390000Y9160001D02*
D03*
X11490000Y9160001D02*
D03*
X11540000Y8680000D02*
D03*
X11290000Y9160001D02*
D03*
X11190000Y9160001D02*
D03*
X11240000Y8680000D02*
D03*
X11340000D02*
D03*
X10440000Y7420000D02*
D03*
X10699734Y7420000D02*
D03*
X10960000Y7420000D02*
D03*
X11220000D02*
D03*
X11480000D02*
D03*
X11740000D02*
D03*
X12000000D02*
D03*
X12260000D02*
D03*
X12260000Y7870000D02*
D03*
X12000000D02*
D03*
X11740000D02*
D03*
X11480000D02*
D03*
X11220000D02*
D03*
X10960000D02*
D03*
X10699735Y7870000D02*
D03*
X10440000Y7870000D02*
D03*
X12260000Y8310000D02*
D03*
X12000000D02*
D03*
X11480000D02*
D03*
X11220000D02*
D03*
X10960000D02*
D03*
X10699735Y8310000D02*
D03*
X10440000Y8310000D02*
D03*
X11720000Y8300000D02*
D03*
X10539735Y7259735D02*
D03*
X10800000Y7260456D02*
D03*
X11060000Y7259735D02*
D03*
X11320000D02*
D03*
X11579733D02*
D03*
X11839733Y7259735D02*
D03*
X12029732Y7219735D02*
D03*
X12259735Y7219735D02*
D03*
X6180000Y8940000D02*
D03*
X8150000Y9620000D02*
D03*
X8380000Y10240000D02*
D03*
X7690000Y8020000D02*
D03*
X6100000Y8750000D02*
D03*
X7680000Y10610000D02*
D03*
X5840000Y11380000D02*
D03*
X9520000Y10480000D02*
D03*
X13200000Y8520000D02*
D03*
X12930000Y8630000D02*
D03*
X9990000Y8160000D02*
D03*
X10340000Y8560000D02*
D03*
X10290000Y8680000D02*
D03*
X10190000Y8590000D02*
D03*
X13035001Y7615000D02*
D03*
X13289999Y8520000D02*
D03*
X13130000Y8270000D02*
D03*
X13200000Y7510000D02*
D03*
X13300000D02*
D03*
X10150000Y9160000D02*
D03*
X10240000Y9160001D02*
D03*
X11000000Y10860000D02*
D03*
X9990000Y8640000D02*
D03*
Y8480000D02*
D03*
Y8320000D02*
D03*
X9780000Y10470000D02*
D03*
X11250000Y10770000D02*
D03*
X11000000Y10700000D02*
D03*
X9880000Y11040000D02*
D03*
X10580000Y10740000D02*
D03*
X13080000Y7920000D02*
D03*
X7450000Y7150000D02*
D03*
X6670000Y7020000D02*
D03*
X9497500Y11505000D02*
D03*
X6490000Y9450000D02*
D03*
Y9520000D02*
D03*
X6590000Y8659999D02*
D03*
X6670000Y8660000D02*
D03*
X6670001Y8740000D02*
D03*
X6750000Y8740000D02*
D03*
X6320800Y8710000D02*
D03*
X9710000Y11730000D02*
D03*
X7610000Y7527500D02*
D03*
X5230000Y12760000D02*
D03*
X4290000Y10940000D02*
D03*
X3819999Y10931000D02*
D03*
X3479999Y10230000D02*
D03*
X3384840Y9780000D02*
D03*
X4650000Y11030000D02*
D03*
X4310000Y10700000D02*
D03*
X3810000Y10180000D02*
D03*
X3479999Y11010000D02*
D03*
X3100000Y12260000D02*
D03*
X6160000Y8700000D02*
D03*
X5230000Y7880000D02*
D03*
X4690000Y7060000D02*
D03*
X4700000Y7660000D02*
D03*
X8888100Y9245400D02*
D03*
X8035000Y8070000D02*
D03*
X9107521Y8555019D02*
D03*
X6749988Y8339987D02*
D03*
X7070001Y8340000D02*
D03*
X9207961Y8135502D02*
D03*
X9112500Y8052500D02*
D03*
X8808002Y8295541D02*
D03*
Y8375542D02*
D03*
X5910000Y8460000D02*
D03*
X7790000Y8660000D02*
D03*
X9367961Y8295502D02*
D03*
X13195000Y8965000D02*
D03*
X12642500Y9180000D02*
D03*
Y8847500D02*
D03*
X5910000Y8220000D02*
D03*
X6990000Y9220000D02*
D03*
X6750000Y9380000D02*
D03*
X6670000D02*
D03*
X6830000Y9140000D02*
D03*
X6749988Y9299981D02*
D03*
X6750000Y9220000D02*
D03*
X6910000Y9220000D02*
D03*
X6830000Y9220000D02*
D03*
X6589987Y9059982D02*
D03*
X6510000Y9060000D02*
D03*
X6588000Y9139000D02*
D03*
X7070000Y9060000D02*
D03*
X7150000D02*
D03*
X7070000Y9140000D02*
D03*
X6340000Y9932500D02*
D03*
X6482500Y9297500D02*
D03*
X6829986Y9459981D02*
D03*
X6910000Y9635000D02*
D03*
X6990000Y9620000D02*
D03*
X7150000Y9540000D02*
D03*
X7220000Y9640000D02*
D03*
X6990000Y9540000D02*
D03*
X7150000Y9460000D02*
D03*
X7070000D02*
D03*
X6990000D02*
D03*
X6910000D02*
D03*
X7150000Y9380000D02*
D03*
X7069987Y9379981D02*
D03*
X6989987D02*
D03*
X6879188Y9761688D02*
D03*
X7945000Y7917500D02*
D03*
X7311866Y7795634D02*
D03*
X9290000Y10536250D02*
D03*
X9181700Y10269200D02*
D03*
X9545000Y10292500D02*
D03*
X9348750Y10207500D02*
D03*
X9290000Y10292500D02*
D03*
X9824188Y10399188D02*
D03*
X10102500Y10280000D02*
D03*
X9357500Y10702500D02*
D03*
X9721230Y10281270D02*
D03*
X8220000Y9527500D02*
D03*
X9580000Y10207500D02*
D03*
X9368000Y8855500D02*
D03*
X8728002Y9095500D02*
D03*
X9368000Y8935500D02*
D03*
X8090000Y9600000D02*
D03*
X8322500Y9510000D02*
D03*
X7966601Y9060016D02*
D03*
X8042801D02*
D03*
X8032900Y8193800D02*
D03*
X8032700Y8130300D02*
D03*
X7911400Y8147100D02*
D03*
X8342500Y9442500D02*
D03*
X7570000Y7710000D02*
D03*
X8118300Y7564200D02*
D03*
X7667500Y7837500D02*
D03*
X7830000Y8080000D02*
D03*
X7600000Y9756790D02*
D03*
X7600370Y9682973D02*
D03*
X7650000Y9805000D02*
D03*
X7815381Y8014619D02*
D03*
X8424200Y7347500D02*
D03*
X9207961Y9015500D02*
D03*
X9208000Y8935500D02*
D03*
X8727963Y7815541D02*
D03*
X4662500Y11162500D02*
D03*
X4770000Y9370000D02*
D03*
X9017500Y11415000D02*
D03*
X3120000Y10650000D02*
D03*
X3492500Y10335000D02*
D03*
D75*
X12427500Y11420000D02*
D03*
Y11520000D02*
D03*
Y11610000D02*
D03*
X12342500Y11685000D02*
D03*
X12260000D02*
D03*
X12182500Y11610000D02*
D03*
Y11520000D02*
D03*
X12260000Y11360000D02*
D03*
X12350000D02*
D03*
X12182500Y11420000D02*
D03*
X11957500D02*
D03*
X6990000Y7460000D02*
D03*
Y7380000D02*
D03*
Y7300000D02*
D03*
X9150000Y10800000D02*
D03*
X7310000Y7960000D02*
D03*
X12560000Y12230000D02*
D03*
Y11860000D02*
D03*
Y12130000D02*
D03*
X12930000Y12120000D02*
D03*
Y11990000D02*
D03*
Y11870000D02*
D03*
Y12260000D02*
D03*
X12839999Y12310000D02*
D03*
X12730000D02*
D03*
X12630000D02*
D03*
X12730000Y11780000D02*
D03*
X12610000D02*
D03*
X12839999D02*
D03*
X10940000Y12870000D02*
D03*
X10840000D02*
D03*
X10730000D02*
D03*
X10650000Y13180000D02*
D03*
Y13039999D02*
D03*
Y12910001D02*
D03*
X10700000Y13410001D02*
D03*
X10830000D02*
D03*
X10950000D02*
D03*
X11040000Y13339999D02*
D03*
Y13230000D02*
D03*
Y13110001D02*
D03*
Y12970000D02*
D03*
X11790000Y11360000D02*
D03*
X11880000D02*
D03*
X11957500Y11520000D02*
D03*
Y11610000D02*
D03*
X11880000Y11685000D02*
D03*
X11797500D02*
D03*
X11712500Y11610000D02*
D03*
Y11520000D02*
D03*
Y11420000D02*
D03*
X4860000Y8970000D02*
D03*
X5040000D02*
D03*
X3820000Y9720000D02*
D03*
X5430000Y9224000D02*
D03*
X4950000Y8800000D02*
D03*
X10650000Y13320000D02*
D03*
X7120000Y10560000D02*
D03*
Y10750000D02*
D03*
X9150000Y10370000D02*
D03*
X8790000Y10610000D02*
D03*
X10060000Y7720000D02*
D03*
X3120000Y9850000D02*
D03*
D76*
X9070000Y13120000D02*
D03*
X9505000Y12745000D02*
D03*
X9240000Y7360000D02*
D03*
X9150000Y10910000D02*
D03*
X9850000Y7290000D02*
D03*
X10150000D02*
D03*
X5730000Y10730000D02*
D03*
X4470000Y8480000D02*
D03*
X6310000Y11630000D02*
D03*
X2780000Y7172000D02*
D03*
X3140000Y7320000D02*
D03*
Y7420000D02*
D03*
X3170000Y7530000D02*
D03*
Y7630000D02*
D03*
X4390000Y8560000D02*
D03*
X9840000Y11260000D02*
D03*
X10010000Y11180000D02*
D03*
X9950000Y11260000D02*
D03*
X10860000Y11320000D02*
D03*
X10690000Y11580000D02*
D03*
X11240000Y11790000D02*
D03*
X9930000Y11120000D02*
D03*
X6030000Y9230000D02*
D03*
X6630000Y9939488D02*
D03*
X12630000Y9970000D02*
D03*
X10110000Y10830000D02*
D03*
X10330000Y10710000D02*
D03*
X10550000Y10660000D02*
D03*
X9222500Y11672500D02*
D03*
X8120000Y10260000D02*
D03*
X8210000D02*
D03*
X8300000D02*
D03*
X4390000Y9422501D02*
D03*
X2840000Y9330000D02*
D03*
D77*
X12310000Y11830000D02*
D03*
X13420000Y12640000D02*
D03*
X12230000Y12210000D02*
D03*
X12780000Y11640000D02*
D03*
X13700000Y13200000D02*
D03*
X13410001Y10630000D02*
D03*
X12740000Y11050000D02*
D03*
X13680000Y11430000D02*
D03*
X13500000Y11095000D02*
D03*
X11990000Y13400000D02*
D03*
X13150000Y11820000D02*
D03*
X13239999Y13080000D02*
D03*
X13160001Y12280000D02*
D03*
X11460000Y11770000D02*
D03*
X12690000Y10670000D02*
D03*
X12740000Y11400000D02*
D03*
X12550000Y12450000D02*
D03*
X13670000Y12250000D02*
D03*
X13639999Y10640000D02*
D03*
X13550000Y13200000D02*
D03*
X13439999Y13350000D02*
D03*
X10780000Y12450000D02*
D03*
X12060000Y12560000D02*
D03*
X12070000Y12730000D02*
D03*
X11780000Y11940000D02*
D03*
X10990000Y12610000D02*
D03*
X10180000Y12730000D02*
D03*
X12070000Y11310000D02*
D03*
X11930000Y12009920D02*
D03*
X9810000Y13420000D02*
D03*
X5550000Y7750000D02*
D03*
X5170000D02*
D03*
D78*
X10310000Y12060000D02*
D03*
X10830000Y11690000D02*
D03*
X9820000Y11810000D02*
D03*
X10640000Y10340000D02*
D03*
X11130000Y11080000D02*
D03*
X10500000Y11820000D02*
D03*
X11430000Y11580000D02*
D03*
X9690000Y10950000D02*
D03*
X9670000Y10810000D02*
D03*
X9610000Y11170000D02*
D03*
X10300000Y10610000D02*
D03*
X9620000Y11830000D02*
D03*
D95*
X5535000Y8117500D02*
Y8192500D01*
X5575000Y8232500D01*
X5657500D01*
X6170000Y7720000D02*
X6307500D01*
X5657500Y8232500D02*
X6170000Y7720000D01*
X6370000Y7782500D02*
Y8020000D01*
X6307500Y7720000D02*
X6370000Y7782500D01*
X5535000Y8117500D02*
X5790000Y7862500D01*
X5620000Y7537500D02*
X5790000Y7707500D01*
Y7862500D01*
%TF.MD5,50315412d8bd29ed8abbee73cf2a39d4*%
M02*
