G04 Layer_Color=65535*
%FSLAX45Y45*%
%MOMM*%
%TF.FileFunction,Legend,Top*%
%TF.Part,Single*%
G01*
G75*
%TA.AperFunction,NonConductor*%
%ADD79C,0.50000*%
%ADD96C,0.25000*%
%ADD144C,0.20000*%
%ADD145C,0.25400*%
%ADD146C,0.10000*%
%ADD147C,0.15000*%
%ADD148C,0.15240*%
%ADD186C,1.00000*%
%ADD187C,0.60000*%
%ADD188C,0.35000*%
D79*
X5350000Y10410000D02*
G03*
X5350000Y10410000I-10000J0D01*
G01*
X3520000Y9400000D02*
G03*
X3520000Y9400000I-10000J0D01*
G01*
X11040000Y11870000D02*
G03*
X11040000Y11870000I-10000J0D01*
G01*
X13339999Y11370000D02*
G03*
X13339999Y11370000I-10000J0D01*
G01*
X12240000Y9099200D02*
G03*
X12240000Y9099200I-10000J0D01*
G01*
X4090000Y9500000D02*
G03*
X4090000Y9500000I-10000J0D01*
G01*
X8110000Y8200000D02*
G03*
X8110000Y8200000I-10000J0D01*
G01*
X8530000Y7360000D02*
G03*
X8530000Y7360000I-10000J0D01*
G01*
D96*
X9675000Y10347500D02*
G03*
X9675000Y10347500I-10000J0D01*
G01*
X8960000Y9950001D02*
G03*
X8960000Y9950001I-12500J0D01*
G01*
X5935000Y10917499D02*
G03*
X5935000Y10917499I-10000J0D01*
G01*
X3394999Y11077500D02*
G03*
X3394999Y11077500I-10000J0D01*
G01*
X7062500Y11348500D02*
G03*
X7062500Y11348500I-10000J0D01*
G01*
X10049999Y11397500D02*
G03*
X10049999Y11397500I-10000J0D01*
G01*
X10380000Y12222800D02*
G03*
X10380000Y12222800I-10000J0D01*
G01*
X12477500Y12110000D02*
G03*
X12477500Y12110000I-10000J0D01*
G01*
Y10560000D02*
G03*
X12477500Y10560000I-10000J0D01*
G01*
X12612500Y11110000D02*
G03*
X12612500Y11110000I-10000J0D01*
G01*
X5305000Y9427500D02*
G03*
X5305000Y9427500I-10000J0D01*
G01*
X11760000Y10197500D02*
G03*
X11760000Y10197500I-10000J0D01*
G01*
X7087500Y6980000D02*
G03*
X7087500Y6980000I-10000J0D01*
G01*
X4532499Y13382751D02*
G03*
X4532499Y13382751I-10000J0D01*
G01*
X6177500D02*
G03*
X6177500Y13382751I-10000J0D01*
G01*
X6900501Y12179581D02*
G03*
X6900501Y12179581I-10000J0D01*
G01*
X11556800Y12361600D02*
G03*
X11556800Y12361600I-10000J0D01*
G01*
X12575302Y12793600D02*
G03*
X12575302Y12793600I-10000J0D01*
G01*
X10990000Y12487800D02*
Y13265300D01*
X10642400D02*
X10990000D01*
X9990000D02*
X10337600D01*
X9990000Y12487800D02*
Y13265300D01*
X10767500Y12265300D02*
X10990000Y12487800D01*
X9990000D02*
X10212500Y12265300D01*
X10337600D01*
X10640500D02*
X10767500D01*
X12732500Y11490000D02*
X13510001D01*
Y11837600D01*
Y12142400D02*
Y12490000D01*
X12732500D02*
X13510001D01*
X12510000Y11712500D02*
X12732500Y11490000D01*
X12510000Y12267500D02*
X12732500Y12490000D01*
X12510000Y12142400D02*
Y12267500D01*
Y11712500D02*
Y11839500D01*
X12732500Y9940000D02*
X13510001D01*
Y10287600D01*
Y10592400D02*
Y10940000D01*
X12732500D02*
X13510001D01*
X12510000Y10162500D02*
X12732500Y9940000D01*
X12510000Y10717500D02*
X12732500Y10940000D01*
X12510000Y10592400D02*
Y10717500D01*
Y10162500D02*
Y10289500D01*
X11560000Y11730000D02*
X12337500D01*
X11560000Y11382400D02*
Y11730000D01*
Y10730000D02*
Y11077600D01*
Y10730000D02*
X12337500D01*
Y11730000D02*
X12560000Y11507500D01*
X12337500Y10730000D02*
X12560000Y10952500D01*
Y11077600D01*
Y11380500D02*
Y11507500D01*
D144*
X7040000Y9952000D02*
X8870000D01*
X7040000Y11218000D02*
X8870000D01*
X9605000Y7151270D02*
X9695000Y7051270D01*
X7275000Y8010000D02*
X7365000Y7910000D01*
X13414999Y11007500D02*
X13585001D01*
X13414999Y11352500D02*
X13585001D01*
X6442600Y9687400D02*
X8017400D01*
X6442600Y8112600D02*
X8017400D01*
X6442600D02*
Y9687400D01*
X8017400Y8112600D02*
Y9687400D01*
X8675000Y6887500D02*
Y7312500D01*
X8570000Y6887500D02*
X8675000D01*
X8570000Y7312500D02*
X8675000D01*
X7765000Y6887500D02*
X7870000D01*
X7765000Y7312500D02*
X7870000D01*
X7765000Y6887500D02*
Y7312500D01*
X9447500Y10734961D02*
Y10634994D01*
X9467494Y10615000D01*
X9507481D01*
X9527474Y10634994D01*
Y10734961D01*
X9567461Y10615000D02*
X9607448D01*
X9587455D01*
Y10734961D01*
X9567461Y10714968D01*
X7870000Y11379961D02*
Y11279994D01*
X7889994Y11260000D01*
X7929981D01*
X7949974Y11279994D01*
Y11379961D01*
X8049942Y11260000D02*
Y11379961D01*
X7989961Y11319981D01*
X8069935D01*
X9435000Y8502500D02*
Y8622461D01*
X9494981D01*
X9514974Y8602468D01*
Y8562480D01*
X9494981Y8542487D01*
X9435000D01*
X9474987D02*
X9514974Y8502500D01*
X9554961D02*
X9594948D01*
X9574955D01*
Y8622461D01*
X9554961Y8602468D01*
X9654929D02*
X9674922Y8622461D01*
X9714909D01*
X9734903Y8602468D01*
Y8582474D01*
X9714909Y8562480D01*
X9694916D01*
X9714909D01*
X9734903Y8542487D01*
Y8522493D01*
X9714909Y8502500D01*
X9674922D01*
X9654929Y8522493D01*
X8847500Y9324961D02*
Y9224993D01*
X8867494Y9205000D01*
X8907481D01*
X8927474Y9224993D01*
Y9324961D01*
X8967461Y9304968D02*
X8987455Y9324961D01*
X9027442D01*
X9047435Y9304968D01*
Y9284974D01*
X9027442Y9264980D01*
X9007448D01*
X9027442D01*
X9047435Y9244987D01*
Y9224993D01*
X9027442Y9205000D01*
X8987455D01*
X8967461Y9224993D01*
X12687500Y12682461D02*
Y12562500D01*
X12747481D01*
X12767474Y12582494D01*
Y12662468D01*
X12747481Y12682461D01*
X12687500D01*
X12807462Y12662468D02*
X12827455Y12682461D01*
X12867442D01*
X12887434Y12662468D01*
Y12642474D01*
X12867442Y12622481D01*
X12887434Y12602487D01*
Y12582494D01*
X12867442Y12562500D01*
X12827455D01*
X12807462Y12582494D01*
Y12602487D01*
X12827455Y12622481D01*
X12807462Y12642474D01*
Y12662468D01*
X12827455Y12622481D02*
X12867442D01*
X6040000Y11068962D02*
Y10968994D01*
X6059994Y10949001D01*
X6099981D01*
X6119974Y10968994D01*
Y11068962D01*
X6159961Y10949001D02*
X6199948D01*
X6179955D01*
Y11068962D01*
X6159961Y11048969D01*
X6259929D02*
X6279923Y11068962D01*
X6319910D01*
X6339903Y11048969D01*
Y11028975D01*
X6319910Y11008981D01*
X6299916D01*
X6319910D01*
X6339903Y10988988D01*
Y10968994D01*
X6319910Y10949001D01*
X6279923D01*
X6259929Y10968994D01*
X3519999Y11219961D02*
Y11119994D01*
X3539993Y11100000D01*
X3579980D01*
X3599973Y11119994D01*
Y11219961D01*
X3639960Y11100000D02*
X3679947D01*
X3659954D01*
Y11219961D01*
X3639960Y11199968D01*
X3739928Y11219961D02*
X3819902D01*
Y11199968D01*
X3739928Y11119994D01*
Y11100000D01*
X8422500Y7437500D02*
Y7557461D01*
X8482481D01*
X8502474Y7537468D01*
Y7497481D01*
X8482481Y7477487D01*
X8422500D01*
X8462487D02*
X8502474Y7437500D01*
X8542461D02*
X8582448D01*
X8562455D01*
Y7557461D01*
X8542461Y7537468D01*
X8722403Y7557461D02*
X8642429D01*
Y7497481D01*
X8682416Y7517474D01*
X8702410D01*
X8722403Y7497481D01*
Y7457494D01*
X8702410Y7437500D01*
X8662423D01*
X8642429Y7457494D01*
X9461000Y8005000D02*
Y8124961D01*
X9520980D01*
X9540974Y8104968D01*
Y8064981D01*
X9520980Y8044987D01*
X9461000D01*
X9500987D02*
X9540974Y8005000D01*
X9580961D02*
X9620948D01*
X9600955D01*
Y8124961D01*
X9580961Y8104968D01*
X9680929Y8005000D02*
X9720916D01*
X9700922D01*
Y8124961D01*
X9680929Y8104968D01*
X6617500Y9747500D02*
Y9867461D01*
X6677481D01*
X6697474Y9847468D01*
Y9807481D01*
X6677481Y9787487D01*
X6617500D01*
X6657487D02*
X6697474Y9747500D01*
X6737461Y9847468D02*
X6757455Y9867461D01*
X6797442D01*
X6817435Y9847468D01*
Y9827474D01*
X6797442Y9807481D01*
X6817435Y9787487D01*
Y9767494D01*
X6797442Y9747500D01*
X6757455D01*
X6737461Y9767494D01*
Y9787487D01*
X6757455Y9807481D01*
X6737461Y9827474D01*
Y9847468D01*
X6757455Y9807481D02*
X6797442D01*
X9540000Y7009961D02*
Y6890000D01*
X9619974D01*
X9739935D02*
X9659961D01*
X9739935Y6969974D01*
Y6989968D01*
X9719942Y7009961D01*
X9679955D01*
X9659961Y6989968D01*
X6970000Y8049961D02*
Y7930000D01*
X7049974D01*
X7089961D02*
X7129948D01*
X7109955D01*
Y8049961D01*
X7089961Y8029968D01*
X9159974Y7499968D02*
X9139980Y7519961D01*
X9099993D01*
X9080000Y7499968D01*
Y7419994D01*
X9099993Y7400000D01*
X9139980D01*
X9159974Y7419994D01*
X9199961Y7400000D02*
X9239948D01*
X9219955D01*
Y7519961D01*
X9199961Y7499968D01*
X9299929D02*
X9319922Y7519961D01*
X9359909D01*
X9379903Y7499968D01*
Y7419994D01*
X9359909Y7400000D01*
X9319922D01*
X9299929Y7419994D01*
Y7499968D01*
X9499864Y7519961D02*
X9419890D01*
Y7459981D01*
X9459877Y7479974D01*
X9479871D01*
X9499864Y7459981D01*
Y7419994D01*
X9479871Y7400000D01*
X9439884D01*
X9419890Y7419994D01*
X6659974Y7699968D02*
X6639981Y7719961D01*
X6599994D01*
X6580000Y7699968D01*
Y7619994D01*
X6599994Y7600000D01*
X6639981D01*
X6659974Y7619994D01*
X6699961Y7600000D02*
X6739948D01*
X6719955D01*
Y7719961D01*
X6699961Y7699968D01*
X6799929D02*
X6819923Y7719961D01*
X6859910D01*
X6879903Y7699968D01*
Y7619994D01*
X6859910Y7600000D01*
X6819923D01*
X6799929Y7619994D01*
Y7699968D01*
X6919890D02*
X6939884Y7719961D01*
X6979871D01*
X6999864Y7699968D01*
Y7679974D01*
X6979871Y7659981D01*
X6959877D01*
X6979871D01*
X6999864Y7639987D01*
Y7619994D01*
X6979871Y7600000D01*
X6939884D01*
X6919890Y7619994D01*
X6659974Y7859968D02*
X6639981Y7879961D01*
X6599994D01*
X6580000Y7859968D01*
Y7779994D01*
X6599994Y7760000D01*
X6639981D01*
X6659974Y7779994D01*
X6699961Y7760000D02*
X6739948D01*
X6719955D01*
Y7879961D01*
X6699961Y7859968D01*
X6799929D02*
X6819923Y7879961D01*
X6859910D01*
X6879903Y7859968D01*
Y7779994D01*
X6859910Y7760000D01*
X6819923D01*
X6799929Y7779994D01*
Y7859968D01*
X6999864Y7760000D02*
X6919890D01*
X6999864Y7839974D01*
Y7859968D01*
X6979871Y7879961D01*
X6939884D01*
X6919890Y7859968D01*
X6540032Y7259974D02*
X6520039Y7239980D01*
Y7199993D01*
X6540032Y7180000D01*
X6620006D01*
X6640000Y7199993D01*
Y7239980D01*
X6620006Y7259974D01*
X6540032Y7299961D02*
X6520039Y7319955D01*
Y7359942D01*
X6540032Y7379935D01*
X6560025D01*
X6580019Y7359942D01*
X6600013Y7379935D01*
X6620006D01*
X6640000Y7359942D01*
Y7319955D01*
X6620006Y7299961D01*
X6600013D01*
X6580019Y7319955D01*
X6560025Y7299961D01*
X6540032D01*
X6580019Y7319955D02*
Y7359942D01*
X6520039Y7499896D02*
X6540032Y7459909D01*
X6580019Y7419922D01*
X6620006D01*
X6640000Y7439916D01*
Y7479903D01*
X6620006Y7499896D01*
X6600013D01*
X6580019Y7479903D01*
Y7419922D01*
X6730032Y7259974D02*
X6710039Y7239980D01*
Y7199993D01*
X6730032Y7180000D01*
X6810006D01*
X6830000Y7199993D01*
Y7239980D01*
X6810006Y7259974D01*
X6730032Y7299961D02*
X6710039Y7319955D01*
Y7359942D01*
X6730032Y7379935D01*
X6750026D01*
X6770019Y7359942D01*
X6790013Y7379935D01*
X6810006D01*
X6830000Y7359942D01*
Y7319955D01*
X6810006Y7299961D01*
X6790013D01*
X6770019Y7319955D01*
X6750026Y7299961D01*
X6730032D01*
X6770019Y7319955D02*
Y7359942D01*
X6710039Y7499896D02*
Y7419922D01*
X6770019D01*
X6750026Y7459909D01*
Y7479903D01*
X6770019Y7499896D01*
X6810006D01*
X6830000Y7479903D01*
Y7439916D01*
X6810006Y7419922D01*
X6920032Y7259974D02*
X6900039Y7239980D01*
Y7199993D01*
X6920032Y7180000D01*
X7000006D01*
X7020000Y7199993D01*
Y7239980D01*
X7000006Y7259974D01*
X6920032Y7299961D02*
X6900039Y7319955D01*
Y7359942D01*
X6920032Y7379935D01*
X6940025D01*
X6960019Y7359942D01*
X6980013Y7379935D01*
X7000006D01*
X7020000Y7359942D01*
Y7319955D01*
X7000006Y7299961D01*
X6980013D01*
X6960019Y7319955D01*
X6940025Y7299961D01*
X6920032D01*
X6960019Y7319955D02*
Y7359942D01*
X7020000Y7479903D02*
X6900039D01*
X6960019Y7419922D01*
Y7499896D01*
X7964974Y7637468D02*
X7944981Y7657461D01*
X7904994D01*
X7885000Y7637468D01*
Y7557494D01*
X7904994Y7537500D01*
X7944981D01*
X7964974Y7557494D01*
X8084935Y7537500D02*
X8004961D01*
X8084935Y7617474D01*
Y7637468D01*
X8064942Y7657461D01*
X8024955D01*
X8004961Y7637468D01*
X8204896Y7537500D02*
X8124922D01*
X8204896Y7617474D01*
Y7637468D01*
X8184903Y7657461D01*
X8144916D01*
X8124922Y7637468D01*
X7607474Y7557468D02*
X7587481Y7577461D01*
X7547494D01*
X7527500Y7557468D01*
Y7477494D01*
X7547494Y7457500D01*
X7587481D01*
X7607474Y7477494D01*
X7647461Y7457500D02*
X7687448D01*
X7667455D01*
Y7577461D01*
X7647461Y7557468D01*
X7747429Y7477494D02*
X7767423Y7457500D01*
X7807410D01*
X7827403Y7477494D01*
Y7557468D01*
X7807410Y7577461D01*
X7767423D01*
X7747429Y7557468D01*
Y7537474D01*
X7767423Y7517481D01*
X7827403D01*
X7509974Y6969968D02*
X7489981Y6989961D01*
X7449994D01*
X7430000Y6969968D01*
Y6889994D01*
X7449994Y6870000D01*
X7489981D01*
X7509974Y6889994D01*
X7549961Y6870000D02*
X7589948D01*
X7569955D01*
Y6989961D01*
X7549961Y6969968D01*
X7649929D02*
X7669923Y6989961D01*
X7709910D01*
X7729903Y6969968D01*
Y6949974D01*
X7709910Y6929981D01*
X7689916D01*
X7709910D01*
X7729903Y6909987D01*
Y6889994D01*
X7709910Y6870000D01*
X7669923D01*
X7649929Y6889994D01*
X5460000Y8469961D02*
Y8369994D01*
X5479994Y8350000D01*
X5519981D01*
X5539974Y8369994D01*
Y8469961D01*
X5579961Y8369994D02*
X5599955Y8350000D01*
X5639942D01*
X5659935Y8369994D01*
Y8449968D01*
X5639942Y8469961D01*
X5599955D01*
X5579961Y8449968D01*
Y8429974D01*
X5599955Y8409981D01*
X5659935D01*
X4150000Y8459961D02*
Y8359994D01*
X4169994Y8340000D01*
X4209981D01*
X4229974Y8359994D01*
Y8459961D01*
X4269961Y8439968D02*
X4289955Y8459961D01*
X4329942D01*
X4349935Y8439968D01*
Y8419974D01*
X4329942Y8399981D01*
X4349935Y8379987D01*
Y8359994D01*
X4329942Y8340000D01*
X4289955D01*
X4269961Y8359994D01*
Y8379987D01*
X4289955Y8399981D01*
X4269961Y8419974D01*
Y8439968D01*
X4289955Y8399981D02*
X4329942D01*
X4800000Y7680000D02*
X4680039D01*
Y7739980D01*
X4700032Y7759974D01*
X4740019D01*
X4760013Y7739980D01*
Y7680000D01*
Y7719987D02*
X4800000Y7759974D01*
X4680039Y7799961D02*
Y7879935D01*
X4700032D01*
X4780006Y7799961D01*
X4800000D01*
X4680039Y7999896D02*
Y7919922D01*
X4740019D01*
X4720026Y7959909D01*
Y7979903D01*
X4740019Y7999896D01*
X4780006D01*
X4800000Y7979903D01*
Y7939916D01*
X4780006Y7919922D01*
X4810000Y8630000D02*
Y8749961D01*
X4869981D01*
X4889974Y8729968D01*
Y8689981D01*
X4869981Y8669987D01*
X4810000D01*
X4849987D02*
X4889974Y8630000D01*
X4929961Y8749961D02*
X5009935D01*
Y8729968D01*
X4929961Y8649994D01*
Y8630000D01*
X5049922D02*
X5089909D01*
X5069916D01*
Y8749961D01*
X5049922Y8729968D01*
X5607500Y9475000D02*
Y9594961D01*
X5667481D01*
X5687474Y9574968D01*
Y9534981D01*
X5667481Y9514987D01*
X5607500D01*
X5647487D02*
X5687474Y9475000D01*
X5807435Y9594961D02*
X5767448Y9574968D01*
X5727461Y9534981D01*
Y9494994D01*
X5747455Y9475000D01*
X5787442D01*
X5807435Y9494994D01*
Y9514987D01*
X5787442Y9534981D01*
X5727461D01*
X5927397Y9594961D02*
X5887409Y9574968D01*
X5847422Y9534981D01*
Y9494994D01*
X5867416Y9475000D01*
X5907403D01*
X5927397Y9494994D01*
Y9514987D01*
X5907403Y9534981D01*
X5847422D01*
X4090000Y9560000D02*
Y9679961D01*
X4149981D01*
X4169974Y9659968D01*
Y9619981D01*
X4149981Y9599987D01*
X4090000D01*
X4129987D02*
X4169974Y9560000D01*
X4289935Y9679961D02*
X4249948Y9659968D01*
X4209961Y9619981D01*
Y9579994D01*
X4229955Y9560000D01*
X4269942D01*
X4289935Y9579994D01*
Y9599987D01*
X4269942Y9619981D01*
X4209961D01*
X4409896Y9679961D02*
X4329922D01*
Y9619981D01*
X4369909Y9639974D01*
X4389903D01*
X4409896Y9619981D01*
Y9579994D01*
X4389903Y9560000D01*
X4349916D01*
X4329922Y9579994D01*
X6390000Y8800000D02*
X6270039D01*
Y8859981D01*
X6290032Y8879974D01*
X6330019D01*
X6350013Y8859981D01*
Y8800000D01*
Y8839987D02*
X6390000Y8879974D01*
X6270039Y8999935D02*
X6290032Y8959948D01*
X6330019Y8919961D01*
X6370006D01*
X6390000Y8939955D01*
Y8979942D01*
X6370006Y8999935D01*
X6350013D01*
X6330019Y8979942D01*
Y8919961D01*
X6390000Y9039922D02*
Y9079909D01*
Y9059916D01*
X6270039D01*
X6290032Y9039922D01*
X6052500Y9885000D02*
X6172461D01*
Y9825019D01*
X6152468Y9805026D01*
X6112481D01*
X6092487Y9825019D01*
Y9885000D01*
Y9845013D02*
X6052500Y9805026D01*
X6172461Y9685065D02*
Y9765039D01*
X6112481D01*
X6132474Y9725052D01*
Y9705058D01*
X6112481Y9685065D01*
X6072494D01*
X6052500Y9705058D01*
Y9745045D01*
X6072494Y9765039D01*
X6172461Y9565104D02*
X6152468Y9605091D01*
X6112481Y9645078D01*
X6072494D01*
X6052500Y9625084D01*
Y9585097D01*
X6072494Y9565104D01*
X6092487D01*
X6112481Y9585097D01*
Y9645078D01*
X4820032Y9219974D02*
X4800039Y9199981D01*
Y9159994D01*
X4820032Y9140000D01*
X4900006D01*
X4920000Y9159994D01*
Y9199981D01*
X4900006Y9219974D01*
X4920000Y9259961D02*
Y9299948D01*
Y9279955D01*
X4800039D01*
X4820032Y9259961D01*
Y9359929D02*
X4800039Y9379923D01*
Y9419910D01*
X4820032Y9439903D01*
X4840026D01*
X4860019Y9419910D01*
Y9399916D01*
Y9419910D01*
X4880013Y9439903D01*
X4900006D01*
X4920000Y9419910D01*
Y9379923D01*
X4900006Y9359929D01*
X4820032Y9479890D02*
X4800039Y9499884D01*
Y9539871D01*
X4820032Y9559864D01*
X4840026D01*
X4860019Y9539871D01*
Y9519877D01*
Y9539871D01*
X4880013Y9559864D01*
X4900006D01*
X4920000Y9539871D01*
Y9499884D01*
X4900006Y9479890D01*
X5000032Y9319974D02*
X4980039Y9299981D01*
Y9259994D01*
X5000032Y9240000D01*
X5080006D01*
X5100000Y9259994D01*
Y9299981D01*
X5080006Y9319974D01*
X5100000Y9359961D02*
Y9399948D01*
Y9379955D01*
X4980039D01*
X5000032Y9359961D01*
Y9459929D02*
X4980039Y9479923D01*
Y9519910D01*
X5000032Y9539903D01*
X5020026D01*
X5040019Y9519910D01*
Y9499916D01*
Y9519910D01*
X5060013Y9539903D01*
X5080006D01*
X5100000Y9519910D01*
Y9479923D01*
X5080006Y9459929D01*
X5100000Y9659864D02*
Y9579890D01*
X5020026Y9659864D01*
X5000032D01*
X4980039Y9639871D01*
Y9599884D01*
X5000032Y9579890D01*
X6290032Y9229974D02*
X6270039Y9209981D01*
Y9169994D01*
X6290032Y9150000D01*
X6370006D01*
X6390000Y9169994D01*
Y9209981D01*
X6370006Y9229974D01*
X6390000Y9269961D02*
Y9309948D01*
Y9289955D01*
X6270039D01*
X6290032Y9269961D01*
Y9369929D02*
X6270039Y9389923D01*
Y9429910D01*
X6290032Y9449903D01*
X6310026D01*
X6330019Y9429910D01*
Y9409916D01*
Y9429910D01*
X6350013Y9449903D01*
X6370006D01*
X6390000Y9429910D01*
Y9389923D01*
X6370006Y9369929D01*
X6290032Y9489890D02*
X6270039Y9509884D01*
Y9549871D01*
X6290032Y9569864D01*
X6370006D01*
X6390000Y9549871D01*
Y9509884D01*
X6370006Y9489890D01*
X6290032D01*
X3900032Y8039974D02*
X3880039Y8019981D01*
Y7979994D01*
X3900032Y7960000D01*
X3980006D01*
X4000000Y7979994D01*
Y8019981D01*
X3980006Y8039974D01*
X4000000Y8079961D02*
Y8119948D01*
Y8099955D01*
X3880039D01*
X3900032Y8079961D01*
X4000000Y8259903D02*
Y8179929D01*
X3920026Y8259903D01*
X3900032D01*
X3880039Y8239910D01*
Y8199923D01*
X3900032Y8179929D01*
X3880039Y8379864D02*
X3900032Y8339877D01*
X3940019Y8299890D01*
X3980006D01*
X4000000Y8319884D01*
Y8359871D01*
X3980006Y8379864D01*
X3960013D01*
X3940019Y8359871D01*
Y8299890D01*
X6290032Y8359974D02*
X6270039Y8339981D01*
Y8299994D01*
X6290032Y8280000D01*
X6370006D01*
X6390000Y8299994D01*
Y8339981D01*
X6370006Y8359974D01*
X6390000Y8399961D02*
Y8439948D01*
Y8419955D01*
X6270039D01*
X6290032Y8399961D01*
X6390000Y8579903D02*
Y8499929D01*
X6310026Y8579903D01*
X6290032D01*
X6270039Y8559909D01*
Y8519923D01*
X6290032Y8499929D01*
Y8619890D02*
X6270039Y8639884D01*
Y8679871D01*
X6290032Y8699864D01*
X6310026D01*
X6330019Y8679871D01*
Y8659877D01*
Y8679871D01*
X6350013Y8699864D01*
X6370006D01*
X6390000Y8679871D01*
Y8639884D01*
X6370006Y8619890D01*
X4529974Y8433607D02*
X4509981Y8453601D01*
X4469994D01*
X4450000Y8433607D01*
Y8353633D01*
X4469994Y8333640D01*
X4509981D01*
X4529974Y8353633D01*
X4569961Y8333640D02*
X4609948D01*
X4589955D01*
Y8453601D01*
X4569961Y8433607D01*
X4669929Y8333640D02*
X4709916D01*
X4689923D01*
Y8453601D01*
X4669929Y8433607D01*
X4769897Y8353633D02*
X4789890Y8333640D01*
X4829877D01*
X4849871Y8353633D01*
Y8433607D01*
X4829877Y8453601D01*
X4789890D01*
X4769897Y8433607D01*
Y8413614D01*
X4789890Y8393620D01*
X4849871D01*
X9675000Y11387461D02*
Y11287494D01*
X9694994Y11267500D01*
X9734981D01*
X9754974Y11287494D01*
Y11387461D01*
X9794961Y11267500D02*
X9834948D01*
X9814955D01*
Y11387461D01*
X9794961Y11367468D01*
X9974903Y11267500D02*
X9894929D01*
X9974903Y11347474D01*
Y11367468D01*
X9954909Y11387461D01*
X9914923D01*
X9894929Y11367468D01*
X13189999Y9145000D02*
X13070039D01*
Y9204981D01*
X13090031Y9224974D01*
X13130019D01*
X13150014Y9204981D01*
Y9145000D01*
X13090031Y9264961D02*
X13070039Y9284955D01*
Y9324942D01*
X13090031Y9344935D01*
X13110027D01*
X13130019Y9324942D01*
Y9304948D01*
Y9324942D01*
X13150014Y9344935D01*
X13170006D01*
X13189999Y9324942D01*
Y9284955D01*
X13170006Y9264961D01*
X3690000Y6930000D02*
Y7049961D01*
X3749981D01*
X3769974Y7029968D01*
Y6989981D01*
X3749981Y6969987D01*
X3690000D01*
X3889935Y6930000D02*
X3809961D01*
X3889935Y7009974D01*
Y7029968D01*
X3869942Y7049961D01*
X3829955D01*
X3809961Y7029968D01*
X3130000Y9250000D02*
Y9369961D01*
X3189981D01*
X3209974Y9349968D01*
Y9309981D01*
X3189981Y9289987D01*
X3130000D01*
X3249961Y9250000D02*
X3289948D01*
X3269955D01*
Y9369961D01*
X3249961Y9349968D01*
X5100000Y8270000D02*
Y8389961D01*
X5159981D01*
X5179974Y8369968D01*
Y8329981D01*
X5159981Y8309987D01*
X5100000D01*
X5219961Y8289994D02*
X5239955Y8270000D01*
X5279942D01*
X5299935Y8289994D01*
Y8369968D01*
X5279942Y8389961D01*
X5239955D01*
X5219961Y8369968D01*
Y8349974D01*
X5239955Y8329981D01*
X5299935D01*
X12427500Y9392500D02*
X12547461D01*
Y9332519D01*
X12527468Y9312526D01*
X12487480D01*
X12467487Y9332519D01*
Y9392500D01*
X12547461Y9272539D02*
Y9192565D01*
X12527468D01*
X12447494Y9272539D01*
X12427500D01*
X12220000Y13077541D02*
Y12957581D01*
X12279981D01*
X12299974Y12977573D01*
Y13057549D01*
X12279981Y13077541D01*
X12220000D01*
X12419935D02*
X12379948Y13057549D01*
X12339961Y13017560D01*
Y12977573D01*
X12359955Y12957581D01*
X12399942D01*
X12419935Y12977573D01*
Y12997568D01*
X12399942Y13017560D01*
X12339961D01*
X12220000Y12479961D02*
Y12360000D01*
X12279981D01*
X12299974Y12379994D01*
Y12459968D01*
X12279981Y12479961D01*
X12220000D01*
X12419935D02*
X12339961D01*
Y12419980D01*
X12379948Y12439974D01*
X12399942D01*
X12419935Y12419980D01*
Y12379994D01*
X12399942Y12360000D01*
X12359955D01*
X12339961Y12379994D01*
X13630038Y12460000D02*
X13750000D01*
Y12519981D01*
X13730006Y12539974D01*
X13650032D01*
X13630038Y12519981D01*
Y12460000D01*
X13650032Y12579961D02*
X13630038Y12599955D01*
Y12639942D01*
X13650032Y12659935D01*
X13670026D01*
X13690019Y12639942D01*
Y12619948D01*
Y12639942D01*
X13710013Y12659935D01*
X13730006D01*
X13750000Y12639942D01*
Y12599955D01*
X13730006Y12579961D01*
X13030032Y11109974D02*
X13010039Y11089981D01*
Y11049994D01*
X13030032Y11030000D01*
X13110007D01*
X13130000Y11049994D01*
Y11089981D01*
X13110007Y11109974D01*
X13130000Y11149961D02*
Y11189948D01*
Y11169955D01*
X13010039D01*
X13030032Y11149961D01*
X13130000Y11249929D02*
Y11289916D01*
Y11269923D01*
X13010039D01*
X13030032Y11249929D01*
X13677467Y9995026D02*
X13697461Y10015019D01*
Y10055006D01*
X13677467Y10075000D01*
X13597495D01*
X13577499Y10055006D01*
Y10015019D01*
X13597495Y9995026D01*
X13577499Y9955039D02*
Y9915052D01*
Y9935045D01*
X13697461D01*
X13677467Y9955039D01*
Y9855071D02*
X13697461Y9835077D01*
Y9795090D01*
X13677467Y9775097D01*
X13597495D01*
X13577499Y9795090D01*
Y9835077D01*
X13597495Y9855071D01*
X13677467D01*
X13590031Y11629974D02*
X13570039Y11609981D01*
Y11569994D01*
X13590031Y11550000D01*
X13670006D01*
X13689999Y11569994D01*
Y11609981D01*
X13670006Y11629974D01*
Y11669961D02*
X13689999Y11689955D01*
Y11729942D01*
X13670006Y11749935D01*
X13590031D01*
X13570039Y11729942D01*
Y11689955D01*
X13590031Y11669961D01*
X13610027D01*
X13630019Y11689955D01*
Y11749935D01*
X11939974Y10669968D02*
X11919980Y10689961D01*
X11879994D01*
X11860000Y10669968D01*
Y10589994D01*
X11879994Y10570000D01*
X11919980D01*
X11939974Y10589994D01*
X11979961Y10669968D02*
X11999955Y10689961D01*
X12039942D01*
X12059935Y10669968D01*
Y10649974D01*
X12039942Y10629981D01*
X12059935Y10609987D01*
Y10589994D01*
X12039942Y10570000D01*
X11999955D01*
X11979961Y10589994D01*
Y10609987D01*
X11999955Y10629981D01*
X11979961Y10649974D01*
Y10669968D01*
X11999955Y10629981D02*
X12039942D01*
X12109975Y12019968D02*
X12089981Y12039961D01*
X12049994D01*
X12030000Y12019968D01*
Y11939994D01*
X12049994Y11920000D01*
X12089981D01*
X12109975Y11939994D01*
X12149961Y12039961D02*
X12229936D01*
Y12019968D01*
X12149961Y11939994D01*
Y11920000D01*
X10129974Y13415268D02*
X10109981Y13435262D01*
X10069994D01*
X10050000Y13415268D01*
Y13335294D01*
X10069994Y13315300D01*
X10109981D01*
X10129974Y13335294D01*
X10169961Y13415268D02*
X10189955Y13435262D01*
X10229942D01*
X10249935Y13415268D01*
Y13395274D01*
X10229942Y13375281D01*
X10209948D01*
X10229942D01*
X10249935Y13355287D01*
Y13335294D01*
X10229942Y13315300D01*
X10189955D01*
X10169961Y13335294D01*
X12605000Y8770000D02*
Y8889961D01*
X12664981D01*
X12684974Y8869968D01*
Y8829981D01*
X12664981Y8809987D01*
X12605000D01*
X12724961Y8869968D02*
X12744955Y8889961D01*
X12784942D01*
X12804935Y8869968D01*
Y8849974D01*
X12784942Y8829981D01*
X12804935Y8809987D01*
Y8789994D01*
X12784942Y8770000D01*
X12744955D01*
X12724961Y8789994D01*
Y8809987D01*
X12744955Y8829981D01*
X12724961Y8849974D01*
Y8869968D01*
X12744955Y8829981D02*
X12784942D01*
X4899974Y9819968D02*
X4879981Y9839961D01*
X4839994D01*
X4820000Y9819968D01*
Y9739994D01*
X4839994Y9720000D01*
X4879981D01*
X4899974Y9739994D01*
X4939961Y9720000D02*
X4979948D01*
X4959955D01*
Y9839961D01*
X4939961Y9819968D01*
X5039929Y9739994D02*
X5059923Y9720000D01*
X5099910D01*
X5119903Y9739994D01*
Y9819968D01*
X5099910Y9839961D01*
X5059923D01*
X5039929Y9819968D01*
Y9799974D01*
X5059923Y9779981D01*
X5119903D01*
X5159890Y9819968D02*
X5179884Y9839961D01*
X5219871D01*
X5239864Y9819968D01*
Y9739994D01*
X5219871Y9720000D01*
X5179884D01*
X5159890Y9739994D01*
Y9819968D01*
X4069974Y10049968D02*
X4049980Y10069961D01*
X4009994D01*
X3990000Y10049968D01*
Y9969994D01*
X4009994Y9950000D01*
X4049980D01*
X4069974Y9969994D01*
X4109961Y9950000D02*
X4149948D01*
X4129955D01*
Y10069961D01*
X4109961Y10049968D01*
X4209929Y9969994D02*
X4229922Y9950000D01*
X4269909D01*
X4289903Y9969994D01*
Y10049968D01*
X4269909Y10069961D01*
X4229922D01*
X4209929Y10049968D01*
Y10029974D01*
X4229922Y10009980D01*
X4289903D01*
X4329890Y10049968D02*
X4349884Y10069961D01*
X4389871D01*
X4409864Y10049968D01*
Y10029974D01*
X4389871Y10009980D01*
X4409864Y9989987D01*
Y9969994D01*
X4389871Y9950000D01*
X4349884D01*
X4329890Y9969994D01*
Y9989987D01*
X4349884Y10009980D01*
X4329890Y10029974D01*
Y10049968D01*
X4349884Y10009980D02*
X4389871D01*
X4660000Y10260000D02*
Y10379961D01*
X4719981D01*
X4739974Y10359968D01*
Y10319981D01*
X4719981Y10299987D01*
X4660000D01*
X4699987D02*
X4739974Y10260000D01*
X4779961Y10279994D02*
X4799955Y10260000D01*
X4839942D01*
X4859935Y10279994D01*
Y10359968D01*
X4839942Y10379961D01*
X4799955D01*
X4779961Y10359968D01*
Y10339974D01*
X4799955Y10319981D01*
X4859935D01*
X4899922Y10379961D02*
X4979897D01*
Y10359968D01*
X4899922Y10279994D01*
Y10260000D01*
X4820000Y9890000D02*
Y10009961D01*
X4879981D01*
X4899974Y9989968D01*
Y9949981D01*
X4879981Y9929987D01*
X4820000D01*
X4859987D02*
X4899974Y9890000D01*
X4939961D02*
X4979948D01*
X4959955D01*
Y10009961D01*
X4939961Y9989968D01*
X5039929D02*
X5059923Y10009961D01*
X5099910D01*
X5119903Y9989968D01*
Y9909994D01*
X5099910Y9890000D01*
X5059923D01*
X5039929Y9909994D01*
Y9989968D01*
X5239864Y10009961D02*
X5159890D01*
Y9949981D01*
X5199877Y9969974D01*
X5219871D01*
X5239864Y9949981D01*
Y9909994D01*
X5219871Y9890000D01*
X5179884D01*
X5159890Y9909994D01*
X5440000Y10970000D02*
Y11089961D01*
X5499981D01*
X5519974Y11069968D01*
Y11029980D01*
X5499981Y11009987D01*
X5440000D01*
X5479987D02*
X5519974Y10970000D01*
X5559961D02*
X5599948D01*
X5579955D01*
Y11089961D01*
X5559961Y11069968D01*
X5659929Y10970000D02*
X5699916D01*
X5679923D01*
Y11089961D01*
X5659929Y11069968D01*
X5839871Y10970000D02*
X5759897D01*
X5839871Y11049974D01*
Y11069968D01*
X5819877Y11089961D01*
X5779890D01*
X5759897Y11069968D01*
X4010000Y9780000D02*
Y9899961D01*
X4069981D01*
X4089974Y9879968D01*
Y9839981D01*
X4069981Y9819987D01*
X4010000D01*
X4049987D02*
X4089974Y9780000D01*
X4129961D02*
X4169948D01*
X4149955D01*
Y9899961D01*
X4129961Y9879968D01*
X4229929Y9780000D02*
X4269916D01*
X4249923D01*
Y9899961D01*
X4229929Y9879968D01*
X4409871Y9899961D02*
X4369884Y9879968D01*
X4329897Y9839981D01*
Y9799994D01*
X4349890Y9780000D01*
X4389877D01*
X4409871Y9799994D01*
Y9819987D01*
X4389877Y9839981D01*
X4329897D01*
X9379974Y10999968D02*
X9359981Y11019961D01*
X9319994D01*
X9300000Y10999968D01*
Y10919994D01*
X9319994Y10900000D01*
X9359981D01*
X9379974Y10919994D01*
X9419961Y10900000D02*
X9459948D01*
X9439955D01*
Y11019961D01*
X9419961Y10999968D01*
X9599903Y11019961D02*
X9519929D01*
Y10959981D01*
X9559916Y10979974D01*
X9579909D01*
X9599903Y10959981D01*
Y10919994D01*
X9579909Y10900000D01*
X9539923D01*
X9519929Y10919994D01*
X9639890Y10999968D02*
X9659884Y11019961D01*
X9699871D01*
X9719864Y10999968D01*
Y10979974D01*
X9699871Y10959981D01*
X9719864Y10939987D01*
Y10919994D01*
X9699871Y10900000D01*
X9659884D01*
X9639890Y10919994D01*
Y10939987D01*
X9659884Y10959981D01*
X9639890Y10979974D01*
Y10999968D01*
X9659884Y10959981D02*
X9699871D01*
X9920032Y10714974D02*
X9900039Y10694981D01*
Y10654994D01*
X9920032Y10635000D01*
X10000006D01*
X10020000Y10654994D01*
Y10694981D01*
X10000006Y10714974D01*
X10020000Y10754961D02*
Y10794948D01*
Y10774955D01*
X9900039D01*
X9920032Y10754961D01*
X9900039Y10934903D02*
X9920032Y10894916D01*
X9960019Y10854929D01*
X10000006D01*
X10020000Y10874923D01*
Y10914910D01*
X10000006Y10934903D01*
X9980013D01*
X9960019Y10914910D01*
Y10854929D01*
X10020000Y11054864D02*
Y10974890D01*
X9940026Y11054864D01*
X9920032D01*
X9900039Y11034871D01*
Y10994884D01*
X9920032Y10974890D01*
X10250032Y10399974D02*
X10230039Y10379981D01*
Y10339994D01*
X10250032Y10320000D01*
X10330006D01*
X10350000Y10339994D01*
Y10379981D01*
X10330006Y10399974D01*
X10350000Y10439961D02*
Y10479948D01*
Y10459955D01*
X10230039D01*
X10250032Y10439961D01*
X10230039Y10619903D02*
X10250032Y10579916D01*
X10290019Y10539929D01*
X10330006D01*
X10350000Y10559922D01*
Y10599909D01*
X10330006Y10619903D01*
X10310013D01*
X10290019Y10599909D01*
Y10539929D01*
X10250032Y10659890D02*
X10230039Y10679884D01*
Y10719871D01*
X10250032Y10739864D01*
X10270026D01*
X10290019Y10719871D01*
Y10699877D01*
Y10719871D01*
X10310013Y10739864D01*
X10330006D01*
X10350000Y10719871D01*
Y10679884D01*
X10330006Y10659890D01*
X10619974Y10719968D02*
X10599981Y10739961D01*
X10559994D01*
X10540000Y10719968D01*
Y10639994D01*
X10559994Y10620000D01*
X10599981D01*
X10619974Y10639994D01*
X10659961Y10620000D02*
X10699948D01*
X10679955D01*
Y10739961D01*
X10659961Y10719968D01*
X10839903Y10739961D02*
X10799916Y10719968D01*
X10759929Y10679981D01*
Y10639994D01*
X10779923Y10620000D01*
X10819910D01*
X10839903Y10639994D01*
Y10659987D01*
X10819910Y10679981D01*
X10759929D01*
X10959864Y10739961D02*
X10879890D01*
Y10679981D01*
X10919877Y10699974D01*
X10939871D01*
X10959864Y10679981D01*
Y10639994D01*
X10939871Y10620000D01*
X10899884D01*
X10879890Y10639994D01*
X11090032Y11099974D02*
X11070039Y11079981D01*
Y11039994D01*
X11090032Y11020000D01*
X11170006D01*
X11190000Y11039994D01*
Y11079981D01*
X11170006Y11099974D01*
X11190000Y11139961D02*
Y11179948D01*
Y11159955D01*
X11070039D01*
X11090032Y11139961D01*
X11070039Y11319903D02*
X11090032Y11279916D01*
X11130019Y11239929D01*
X11170006D01*
X11190000Y11259923D01*
Y11299910D01*
X11170006Y11319903D01*
X11150013D01*
X11130019Y11299910D01*
Y11239929D01*
X11070039Y11359890D02*
Y11439864D01*
X11090032D01*
X11170006Y11359890D01*
X11190000D01*
X10579974Y11879968D02*
X10559981Y11899961D01*
X10519994D01*
X10500000Y11879968D01*
Y11799994D01*
X10519994Y11780000D01*
X10559981D01*
X10579974Y11799994D01*
X10619961Y11780000D02*
X10659948D01*
X10639955D01*
Y11899961D01*
X10619961Y11879968D01*
X10799903Y11899961D02*
X10759916Y11879968D01*
X10719929Y11839981D01*
Y11799994D01*
X10739923Y11780000D01*
X10779910D01*
X10799903Y11799994D01*
Y11819987D01*
X10779910Y11839981D01*
X10719929D01*
X10839890Y11799994D02*
X10859884Y11780000D01*
X10899871D01*
X10919864Y11799994D01*
Y11879968D01*
X10899871Y11899961D01*
X10859884D01*
X10839890Y11879968D01*
Y11859974D01*
X10859884Y11839981D01*
X10919864D01*
X10039974Y12199968D02*
X10019980Y12219961D01*
X9979994D01*
X9960000Y12199968D01*
Y12119994D01*
X9979994Y12100000D01*
X10019980D01*
X10039974Y12119994D01*
X10079961Y12100000D02*
X10119948D01*
X10099955D01*
Y12219961D01*
X10079961Y12199968D01*
X10179929Y12219961D02*
X10259903D01*
Y12199968D01*
X10179929Y12119994D01*
Y12100000D01*
X10299890D02*
X10339877D01*
X10319884D01*
Y12219961D01*
X10299890Y12199968D01*
X11010000Y12049961D02*
Y11930000D01*
X11069981D01*
X11089974Y11949994D01*
Y12029968D01*
X11069981Y12049961D01*
X11010000D01*
X11129961Y11930000D02*
X11169948D01*
X11149955D01*
Y12049961D01*
X11129961Y12029968D01*
X11229929D02*
X11249923Y12049961D01*
X11289910D01*
X11309903Y12029968D01*
Y11949994D01*
X11289910Y11930000D01*
X11249923D01*
X11229929Y11949994D01*
Y12029968D01*
X8622500Y11572461D02*
Y11452500D01*
X8682480D01*
X8702474Y11472494D01*
Y11552468D01*
X8682480Y11572461D01*
X8622500D01*
X8742461Y11452500D02*
X8782448D01*
X8762455D01*
Y11572461D01*
X8742461Y11552468D01*
X8842429Y11452500D02*
X8882416D01*
X8862422D01*
Y11572461D01*
X8842429Y11552468D01*
X13010001Y8700000D02*
Y8819961D01*
X13069980D01*
X13089973Y8799968D01*
Y8759981D01*
X13069980Y8739987D01*
X13010001D01*
X13189941Y8700000D02*
Y8819961D01*
X13129961Y8759981D01*
X13209935D01*
X13150000Y6940000D02*
Y7059961D01*
X13209979D01*
X13229974Y7039968D01*
Y6999981D01*
X13209979Y6979987D01*
X13150000D01*
X13349934Y7059961D02*
X13269962D01*
Y6999981D01*
X13309949Y7019974D01*
X13329942D01*
X13349934Y6999981D01*
Y6959994D01*
X13329942Y6940000D01*
X13289955D01*
X13269962Y6959994D01*
X9910000Y11600000D02*
Y11719961D01*
X9969981D01*
X9989974Y11699968D01*
Y11659980D01*
X9969981Y11639987D01*
X9910000D01*
X9949987D02*
X9989974Y11600000D01*
X10029961Y11699968D02*
X10049955Y11719961D01*
X10089942D01*
X10109935Y11699968D01*
Y11679974D01*
X10089942Y11659980D01*
X10109935Y11639987D01*
Y11619994D01*
X10089942Y11600000D01*
X10049955D01*
X10029961Y11619994D01*
Y11639987D01*
X10049955Y11659980D01*
X10029961Y11679974D01*
Y11699968D01*
X10049955Y11659980D02*
X10089942D01*
X10229896Y11600000D02*
X10149922D01*
X10229896Y11679974D01*
Y11699968D01*
X10209903Y11719961D01*
X10169916D01*
X10149922Y11699968D01*
X9332500Y11595000D02*
Y11714961D01*
X9392481D01*
X9412474Y11694968D01*
Y11654980D01*
X9392481Y11634987D01*
X9332500D01*
X9372487D02*
X9412474Y11595000D01*
X9452461Y11694968D02*
X9472455Y11714961D01*
X9512442D01*
X9532435Y11694968D01*
Y11674974D01*
X9512442Y11654980D01*
X9532435Y11634987D01*
Y11614994D01*
X9512442Y11595000D01*
X9472455D01*
X9452461Y11614994D01*
Y11634987D01*
X9472455Y11654980D01*
X9452461Y11674974D01*
Y11694968D01*
X9472455Y11654980D02*
X9512442D01*
X9652396Y11714961D02*
X9572422D01*
Y11654980D01*
X9612409Y11674974D01*
X9632403D01*
X9652396Y11654980D01*
Y11614994D01*
X9632403Y11595000D01*
X9592416D01*
X9572422Y11614994D01*
X2910000Y10740000D02*
X2790039D01*
Y10799981D01*
X2810032Y10819974D01*
X2850019D01*
X2870013Y10799981D01*
Y10740000D01*
Y10779987D02*
X2910000Y10819974D01*
Y10859961D02*
Y10899948D01*
Y10879955D01*
X2790039D01*
X2810032Y10859961D01*
X2910000Y11039903D02*
Y10959929D01*
X2830026Y11039903D01*
X2810032D01*
X2790039Y11019910D01*
Y10979923D01*
X2810032Y10959929D01*
Y11079890D02*
X2790039Y11099884D01*
Y11139871D01*
X2810032Y11159864D01*
X2890006D01*
X2910000Y11139871D01*
Y11099884D01*
X2890006Y11079890D01*
X2810032D01*
X2945000Y10275000D02*
X2825039D01*
Y10334980D01*
X2845032Y10354974D01*
X2885019D01*
X2905013Y10334980D01*
Y10275000D01*
Y10314987D02*
X2945000Y10354974D01*
Y10394961D02*
Y10434948D01*
Y10414955D01*
X2825039D01*
X2845032Y10394961D01*
X2945000Y10574903D02*
Y10494929D01*
X2865026Y10574903D01*
X2845032D01*
X2825039Y10554909D01*
Y10514922D01*
X2845032Y10494929D01*
X2945000Y10694864D02*
Y10614890D01*
X2865026Y10694864D01*
X2845032D01*
X2825039Y10674870D01*
Y10634883D01*
X2845032Y10614890D01*
X4510000Y10210000D02*
X4390039D01*
Y10269980D01*
X4410032Y10289974D01*
X4450020D01*
X4470013Y10269980D01*
Y10210000D01*
Y10249987D02*
X4510000Y10289974D01*
Y10329961D02*
Y10369948D01*
Y10349955D01*
X4390039D01*
X4410032Y10329961D01*
Y10429929D02*
X4390039Y10449922D01*
Y10489909D01*
X4410032Y10509903D01*
X4430026D01*
X4450020Y10489909D01*
Y10469916D01*
Y10489909D01*
X4470013Y10509903D01*
X4490007D01*
X4510000Y10489909D01*
Y10449922D01*
X4490007Y10429929D01*
X4510000Y10629864D02*
Y10549890D01*
X4430026Y10629864D01*
X4410032D01*
X4390039Y10609871D01*
Y10569884D01*
X4410032Y10549890D01*
X4510000Y10730000D02*
X4390039D01*
Y10789980D01*
X4410032Y10809974D01*
X4450020D01*
X4470013Y10789980D01*
Y10730000D01*
Y10769987D02*
X4510000Y10809974D01*
Y10849961D02*
Y10889948D01*
Y10869955D01*
X4390039D01*
X4410032Y10849961D01*
Y10949929D02*
X4390039Y10969922D01*
Y11009909D01*
X4410032Y11029903D01*
X4430026D01*
X4450020Y11009909D01*
Y10989916D01*
Y11009909D01*
X4470013Y11029903D01*
X4490007D01*
X4510000Y11009909D01*
Y10969922D01*
X4490007Y10949929D01*
X4510000Y11129871D02*
X4390039D01*
X4450020Y11069890D01*
Y11149864D01*
X11940032Y10349974D02*
X11920039Y10329981D01*
Y10289994D01*
X11940032Y10270000D01*
X11960026D01*
X11980019Y10289994D01*
Y10329981D01*
X12000013Y10349974D01*
X12020006D01*
X12040000Y10329981D01*
Y10289994D01*
X12020006Y10270000D01*
X11940032Y10389961D02*
X11920039Y10409955D01*
Y10449942D01*
X11940032Y10469935D01*
X11960026D01*
X11980019Y10449942D01*
Y10429948D01*
Y10449942D01*
X12000013Y10469935D01*
X12020006D01*
X12040000Y10449942D01*
Y10409955D01*
X12020006Y10389961D01*
X4890000Y11119961D02*
Y11019994D01*
X4909993Y11000000D01*
X4949980D01*
X4969974Y11019994D01*
Y11119961D01*
X5009961Y11000000D02*
X5049948D01*
X5029955D01*
Y11119961D01*
X5009961Y11099968D01*
X5169909Y11000000D02*
Y11119961D01*
X5109929Y11059981D01*
X5189903D01*
X6690000Y12029961D02*
Y11929994D01*
X6709994Y11910000D01*
X6749981D01*
X6769974Y11929994D01*
Y12029961D01*
X6809961Y11910000D02*
X6849948D01*
X6829955D01*
Y12029961D01*
X6809961Y12009968D01*
X6989903Y12029961D02*
X6909929D01*
Y11969981D01*
X6949916Y11989974D01*
X6969910D01*
X6989903Y11969981D01*
Y11929994D01*
X6969910Y11910000D01*
X6929923D01*
X6909929Y11929994D01*
X3060000Y10109961D02*
Y10009994D01*
X3079994Y9990000D01*
X3119981D01*
X3139974Y10009994D01*
Y10109961D01*
X3179961Y9990000D02*
X3219948D01*
X3199955D01*
Y10109961D01*
X3179961Y10089968D01*
X3359903Y10109961D02*
X3319916Y10089968D01*
X3279929Y10049981D01*
Y10009994D01*
X3299923Y9990000D01*
X3339910D01*
X3359903Y10009994D01*
Y10029987D01*
X3339910Y10049981D01*
X3279929D01*
X12910001Y11449961D02*
Y11369987D01*
X12949986Y11330000D01*
X12989973Y11369987D01*
Y11449961D01*
X13029961Y11330000D02*
Y11449961D01*
X13089941D01*
X13109935Y11429968D01*
Y11389981D01*
X13089941Y11369987D01*
X13029961D01*
X13069948D02*
X13109935Y11330000D01*
X13209903D02*
Y11449961D01*
X13149922Y11389981D01*
X13229897D01*
X7030000Y9849961D02*
Y9749994D01*
X7049994Y9730000D01*
X7089980D01*
X7109974Y9749994D01*
Y9849961D01*
X7229935Y9730000D02*
X7149961D01*
X7229935Y9809974D01*
Y9829968D01*
X7209942Y9849961D01*
X7169955D01*
X7149961Y9829968D01*
X7280032Y7699974D02*
X7260039Y7679981D01*
Y7639994D01*
X7280032Y7620000D01*
X7300026D01*
X7320019Y7639994D01*
Y7679981D01*
X7340013Y7699974D01*
X7360006D01*
X7380000Y7679981D01*
Y7639994D01*
X7360006Y7620000D01*
X7380000Y7819935D02*
Y7739961D01*
X7300026Y7819935D01*
X7280032D01*
X7260039Y7799942D01*
Y7759955D01*
X7280032Y7739961D01*
X3089974Y11259961D02*
X3049987D01*
X3069981D01*
Y11159994D01*
X3049987Y11140000D01*
X3029994D01*
X3010000Y11159994D01*
X3189942Y11140000D02*
Y11259961D01*
X3129961Y11199981D01*
X3209935D01*
X4709974Y11259961D02*
X4669987D01*
X4689980D01*
Y11159994D01*
X4669987Y11140000D01*
X4649993D01*
X4630000Y11159994D01*
X4749961Y11239968D02*
X4769954Y11259961D01*
X4809941D01*
X4829935Y11239968D01*
Y11219974D01*
X4809941Y11199981D01*
X4789948D01*
X4809941D01*
X4829935Y11179987D01*
Y11159994D01*
X4809941Y11140000D01*
X4769954D01*
X4749961Y11159994D01*
X12519974Y12629968D02*
X12499981Y12649961D01*
X12459994D01*
X12440000Y12629968D01*
Y12609974D01*
X12459994Y12589981D01*
X12499981D01*
X12519974Y12569987D01*
Y12549994D01*
X12499981Y12530000D01*
X12459994D01*
X12440000Y12549994D01*
X12559961Y12530000D02*
X12599948D01*
X12579955D01*
Y12649961D01*
X12559961Y12629968D01*
X11339974Y12319961D02*
X11299987D01*
X11319981D01*
Y12219994D01*
X11299987Y12200000D01*
X11279994D01*
X11260000Y12219994D01*
X11379961Y12200000D02*
X11419948D01*
X11399955D01*
Y12319961D01*
X11379961Y12299968D01*
X7810000Y11560000D02*
Y11679961D01*
X7869980D01*
X7889974Y11659968D01*
Y11619981D01*
X7869980Y11599987D01*
X7810000D01*
X7929961Y11560000D02*
X7969948D01*
X7949954D01*
Y11679961D01*
X7929961Y11659968D01*
X8029928D02*
X8049922Y11679961D01*
X8089909D01*
X8109902Y11659968D01*
Y11579994D01*
X8089909Y11560000D01*
X8049922D01*
X8029928Y11579994D01*
Y11659968D01*
X6410000Y12040000D02*
Y12159961D01*
X6469980D01*
X6489974Y12139968D01*
Y12099981D01*
X6469980Y12079987D01*
X6410000D01*
X6609935Y12159961D02*
X6569948Y12139968D01*
X6529961Y12099981D01*
Y12059994D01*
X6549954Y12040000D01*
X6589941D01*
X6609935Y12059994D01*
Y12079987D01*
X6589941Y12099981D01*
X6529961D01*
X8837474Y6909994D02*
Y6989968D01*
X8817480Y7009961D01*
X8777493D01*
X8757500Y6989968D01*
Y6909994D01*
X8777493Y6890000D01*
X8817480D01*
X8797487Y6929987D02*
X8837474Y6890000D01*
X8817480D02*
X8837474Y6909994D01*
X8957435Y6890000D02*
X8877461D01*
X8957435Y6969974D01*
Y6989968D01*
X8937442Y7009961D01*
X8897455D01*
X8877461Y6989968D01*
X10234979Y6880000D02*
Y7009958D01*
X10170000Y6944979D01*
X10256639D01*
X10386597Y6880000D02*
X10299958D01*
X10386597Y6966639D01*
Y6988298D01*
X10364937Y7009958D01*
X10321618D01*
X10299958Y6988298D01*
X10646513Y7009958D02*
X10559874D01*
Y6880000D01*
X10646513D01*
X10559874Y6944979D02*
X10603194D01*
X10689832Y6880000D02*
X10733152D01*
X10711492D01*
Y7009958D01*
X10689832D01*
X10863110Y6880000D02*
X10819790D01*
X10798131Y6901660D01*
Y6944979D01*
X10819790Y6966639D01*
X10863110D01*
X10884769Y6944979D01*
Y6923319D01*
X10798131D01*
X11014727Y6966639D02*
X10949748D01*
X10928089Y6944979D01*
Y6901660D01*
X10949748Y6880000D01*
X11014727D01*
X11188005Y7009958D02*
Y6880000D01*
X11274643D01*
X11382942D02*
X11339622D01*
X11317963Y6901660D01*
Y6944979D01*
X11339622Y6966639D01*
X11382942D01*
X11404602Y6944979D01*
Y6923319D01*
X11317963D01*
X11447921Y6966639D02*
X11491240Y6880000D01*
X11534560Y6966639D01*
X11642858Y6880000D02*
X11599539D01*
X11577879Y6901660D01*
Y6944979D01*
X11599539Y6966639D01*
X11642858D01*
X11664518Y6944979D01*
Y6923319D01*
X11577879D01*
X11707837Y6880000D02*
X11751157D01*
X11729497D01*
Y7009958D01*
X11707837D01*
X11946093D02*
Y6901660D01*
X11967753Y6880000D01*
X12011072D01*
X12032732Y6901660D01*
Y7009958D01*
X12076052Y6880000D02*
Y7009958D01*
X12141031D01*
X12162690Y6988298D01*
Y6944979D01*
X12141031Y6923319D01*
X12076052D01*
D145*
X8597982Y9005520D02*
Y9155520D01*
X8747982D01*
X12486000Y9450000D02*
Y9790000D01*
X9819000Y9450000D02*
Y9790000D01*
X11334900Y10547800D02*
X11665100D01*
X11334900Y10192200D02*
X11665100D01*
X7072200Y7064900D02*
Y7395100D01*
X7427800Y7064900D02*
Y7395100D01*
X13336803Y12831099D02*
Y13459801D01*
X12523802Y12831099D02*
Y13459801D01*
D146*
X9690000Y7431300D02*
Y7507500D01*
X9565500Y8460000D02*
X9600500D01*
X9565500Y8352500D02*
X9600500D01*
X8270000Y7400000D02*
Y7435000D01*
X8377500Y7400000D02*
X8377500Y7435000D01*
X4572500Y9785000D02*
X4607500D01*
X4572500Y9892500D02*
X4607500D01*
X5402500Y9865000D02*
X5437500D01*
X5402500Y9972500D02*
X5437500D01*
X4782500Y10115000D02*
X4817500D01*
X4782500Y10222500D02*
X4817500D01*
X10052500Y11755000D02*
X10087500D01*
X10052500Y11862500D02*
X10087500D01*
X4235000Y10412500D02*
Y10447501D01*
X4342500Y10412500D02*
Y10447501D01*
X5065000Y6920000D02*
X6135000D01*
Y6865000D02*
Y6920000D01*
X5065000Y6865000D02*
Y6920000D01*
X6135000Y6865000D02*
X6280000D01*
X4920000D02*
Y6887500D01*
Y7157500D02*
Y7712500D01*
X4920000Y7985000D02*
Y8235000D01*
X4920000Y6865000D02*
X5065000D01*
X4920000Y8235000D02*
X6280000D01*
X6280000Y7985000D02*
Y8235000D01*
X6280000Y7157500D02*
Y7712500D01*
Y6865000D02*
Y6887500D01*
X3065000Y10922500D02*
Y10957500D01*
X2957500Y10922500D02*
Y10957500D01*
X4345000Y10922500D02*
Y10957500D01*
X4237500Y10922500D02*
Y10957500D01*
X2990000Y10447500D02*
Y10482500D01*
X3097500Y10447500D02*
Y10482500D01*
X5565000Y10742500D02*
Y10777500D01*
X5672500Y10742500D02*
Y10777500D01*
X4922500Y8487500D02*
X4957500D01*
X4922500Y8595000D02*
X4957500D01*
X4572500Y9567500D02*
X4607500D01*
X4572500Y9675000D02*
X4607500D01*
X5842500Y9807500D02*
X5877500D01*
X5842500Y9915000D02*
X5877500D01*
X5842500Y9627500D02*
X5877500D01*
X5842500Y9735000D02*
X5877500D01*
X4552500Y8037500D02*
X4587500D01*
X4552500Y8145000D02*
X4587500D01*
X6232500Y8922500D02*
Y8957500D01*
X6125000Y8922500D02*
Y8957500D01*
X9480000Y11560000D02*
X9515000D01*
X9480000Y11452500D02*
X9515000D01*
X9563500Y8267500D02*
X9598500D01*
X9563500Y8160000D02*
X9598500D01*
X9897501Y11745001D02*
Y13220001D01*
X7797501Y11745001D02*
X9897501D01*
X7797501D02*
Y13220001D01*
X6412500Y9735000D02*
X6447500D01*
X6412500Y9842500D02*
X6447500D01*
X9915000Y10241300D02*
Y10317500D01*
X13175000Y9562500D02*
Y9597500D01*
X13282500Y9562500D02*
Y9597500D01*
X12684999Y9732500D02*
Y9767500D01*
X12577499Y9732500D02*
Y9767500D01*
X13249998Y8937500D02*
Y8972500D01*
X13142499Y8937500D02*
Y8972500D01*
D147*
X4565000Y9955000D02*
X4615000D01*
X4565000Y10065000D02*
X4615000D01*
X5395000Y9695000D02*
X5445000D01*
X5395000Y9805000D02*
X5445000D01*
X6905000Y6995000D02*
Y7045000D01*
X7015000Y6995000D02*
Y7045000D01*
X6715000Y6995000D02*
Y7045000D01*
X6825000Y6995000D02*
Y7045000D01*
X6525000Y6995000D02*
Y7045000D01*
X6635000Y6995000D02*
Y7045000D01*
X9875000Y10825000D02*
Y10875000D01*
X9765000Y10825000D02*
Y10875000D01*
X10015000Y10495000D02*
X10065000D01*
X10015000Y10605000D02*
X10065000D01*
X10275000Y11735000D02*
Y11785000D01*
X10385000Y11735000D02*
Y11785000D01*
X12975000Y11135000D02*
Y11185000D01*
X12864999Y11135000D02*
Y11185000D01*
X11995000Y11775000D02*
X12045000D01*
X11995000Y11885000D02*
X12045000D01*
X4145000Y9500000D02*
X4595000D01*
X4145000Y8500000D02*
X4595000D01*
X4805000Y8945000D02*
Y8995000D01*
X4915000Y8945000D02*
Y8995000D01*
X4985000Y8945000D02*
Y8995000D01*
X5095000Y8945000D02*
Y8995000D01*
X4545000Y8185000D02*
X4595000D01*
X4545000Y8295000D02*
X4595000D01*
X6235000Y8475000D02*
Y8525000D01*
X6125000Y8475000D02*
Y8525000D01*
Y9295000D02*
Y9345000D01*
X6235000Y9295000D02*
Y9345000D01*
X4165000Y8035000D02*
X4215000D01*
X4165000Y8145000D02*
X4215000D01*
X10575000Y11745000D02*
X10625000D01*
X10575000Y11635000D02*
X10625000D01*
X11035000Y11145000D02*
Y11195000D01*
X10925000Y11145000D02*
Y11195000D01*
X10705000Y10475000D02*
X10755000D01*
X10705000Y10585000D02*
X10755000D01*
X10385000Y10495000D02*
Y10545000D01*
X10494999Y10495000D02*
Y10545000D01*
X7525000Y7125000D02*
Y7175000D01*
X7635000Y7125000D02*
Y7175000D01*
X2982499Y11324501D02*
Y13412750D01*
Y11324501D02*
X4582500D01*
Y13412750D01*
X4627500Y11324501D02*
Y13412750D01*
Y11324501D02*
X6227500D01*
Y13412750D01*
X11929299Y12389100D02*
X12154300D01*
X11254300D02*
X11479300D01*
X12154300D02*
Y13513699D01*
X11254300Y12389100D02*
Y12593800D01*
Y12951401D02*
Y13513699D01*
X9965000Y8375000D02*
X10015000D01*
X9965000Y8265000D02*
X10015000D01*
X9965000Y8215000D02*
X10015000D01*
X9965000Y8105000D02*
X10015000D01*
X9965000Y8535000D02*
X10015000D01*
X9965000Y8425000D02*
X10015000D01*
X9965000Y8695000D02*
X10015000D01*
X9965000Y8585000D02*
X10015000D01*
D148*
X9457450Y10590650D02*
X9622550D01*
X9457450Y10456054D02*
Y10483946D01*
Y10349350D02*
X9622550D01*
X13120000Y12712700D02*
X13222701D01*
Y12685854D02*
Y12712700D01*
X13120000Y12547300D02*
X13222701D01*
Y12574146D01*
X5977910Y10909579D02*
X6402090D01*
X5977910Y10010419D02*
X6402090D01*
X3437909Y11069580D02*
X3862089D01*
X3437909Y10170420D02*
X3862089D01*
X6567910Y11350610D02*
X6992090D01*
X6567910Y11876390D02*
X6992090D01*
X4802510Y10422030D02*
Y10441406D01*
X5277490Y10938594D02*
Y10957970D01*
X4802510D02*
X5277490D01*
X4802510Y10938594D02*
Y10957970D01*
Y10422030D02*
X5277490D01*
Y10441406D01*
X2972510Y9412030D02*
Y9431406D01*
X3447490Y9928594D02*
Y9947970D01*
X2972510D02*
X3447490D01*
X2972510Y9928594D02*
Y9947970D01*
Y9412030D02*
X3447490D01*
Y9431406D01*
X11087450Y11845100D02*
X11252550D01*
Y11514900D02*
Y11616246D01*
X11087450Y11514900D02*
X11252550D01*
X11087450Y11648504D02*
Y11711496D01*
X11252550Y11743754D02*
Y11845100D01*
X10077099Y11462900D02*
X10146725D01*
X10742900Y11393274D02*
Y11462900D01*
X10077099Y10797100D02*
X10146725D01*
X10742900D02*
Y10866726D01*
X10673274Y11462900D02*
X10742900D01*
X10077099Y11393274D02*
Y11462900D01*
Y10797100D02*
Y10866726D01*
X10673274Y10797100D02*
X10742900D01*
X13642700Y12767300D02*
Y12870000D01*
X13615854Y12767300D02*
X13642700D01*
X13477299D02*
Y12870000D01*
Y12767300D02*
X13504146D01*
X9859800Y8509300D02*
X12476000D01*
Y8674400D01*
X9859800Y8509300D02*
Y8674400D01*
X12402700Y13207300D02*
Y13310001D01*
X12375854Y13207300D02*
X12402700D01*
X12237300D02*
Y13310001D01*
Y13207300D02*
X12264146D01*
X12402700Y12627300D02*
X12402700Y12730000D01*
X12375854Y12627300D02*
X12402700D01*
X12237300Y12730000D02*
X12237300Y12627300D01*
X12264146D01*
X3509080Y7156380D02*
Y7223436D01*
X2983300Y7156380D02*
Y7223436D01*
Y7156380D02*
X3509080D01*
X2983300Y7358564D02*
Y7477436D01*
X3509080Y7358564D02*
Y7477436D01*
X2983300Y7612564D02*
Y7731436D01*
X3509080Y7612564D02*
Y7731436D01*
X2983300Y8374564D02*
Y8493436D01*
X3509080Y8374564D02*
Y8493436D01*
X2983300Y7866564D02*
Y7985436D01*
X3509080Y8120564D02*
Y8239436D01*
X2983300Y8120564D02*
Y8239436D01*
X3509080Y7866564D02*
Y7985436D01*
Y8628564D02*
Y8747436D01*
X2983300Y9203620D02*
X3509080D01*
X2983300Y9136564D02*
Y9203620D01*
X3509080Y9136564D02*
Y9203620D01*
X2983300Y8882564D02*
Y9001436D01*
X3509080Y8882564D02*
Y9001436D01*
X2983300Y8628564D02*
Y8747436D01*
X4661564Y7113300D02*
X4728620D01*
X4407564Y7639080D02*
X4526436D01*
X4661564D02*
X4728620D01*
X3951380Y7113300D02*
Y7639080D01*
Y7113300D02*
X4018436D01*
X4728620D02*
Y7639080D01*
X3951380D02*
X4018436D01*
X4153564Y7113300D02*
X4272436D01*
X4153564Y7639080D02*
X4272436D01*
X4407564Y7113300D02*
X4526436D01*
X13430563Y9133300D02*
X13549435D01*
X13223300Y9659080D02*
X13295436D01*
X13756700Y9133300D02*
Y9659080D01*
X13223300Y9133300D02*
X13295436D01*
X13223300D02*
Y9659080D01*
X13684564D02*
X13756700D01*
X13430563D02*
X13549435D01*
X13684564Y9133300D02*
X13756700D01*
X5347910Y8520420D02*
X5772090D01*
X5347910Y9419580D02*
X5772090D01*
X12993300Y7123300D02*
Y7195436D01*
X13519080Y7330564D02*
Y7449436D01*
Y7123300D02*
Y7195436D01*
X12993300Y7656700D02*
X13519080D01*
X12993300Y7584564D02*
Y7656700D01*
Y7123300D02*
X13519080D01*
Y7584564D02*
Y7656700D01*
X12993300Y7330564D02*
Y7449436D01*
X12983299Y8083564D02*
Y8202436D01*
X13509081Y8337564D02*
Y8456436D01*
X12983299Y8337564D02*
Y8456436D01*
X13509081Y8591564D02*
Y8658620D01*
X12983299Y7881380D02*
X13509081D01*
X12983299Y8591564D02*
Y8658620D01*
X13509081D01*
Y7881380D02*
Y7948436D01*
Y8083564D02*
Y8202436D01*
X12983299Y7881380D02*
Y7948436D01*
X8932500Y11602500D02*
X9072500D01*
X8932500Y11422500D02*
X9072500D01*
X8932500D02*
Y11602500D01*
X6400821Y12959581D02*
Y13364581D01*
Y12225541D02*
X6795501D01*
X7630181D02*
Y12604199D01*
X6985501Y12227081D02*
X7045501D01*
X7235501Y12225541D02*
X7630181D01*
Y12959581D02*
Y13364581D01*
X6400821Y12225541D02*
Y12604199D01*
D186*
X12502500Y9900000D02*
G03*
X12502500Y9900000I-10000J0D01*
G01*
X3620000Y9195000D02*
G03*
X3620000Y9195000I-10000J0D01*
G01*
X3970000Y7740000D02*
G03*
X3970000Y7740000I-10000J0D01*
G01*
X13250000Y9750000D02*
G03*
X13250000Y9750000I-10000J0D01*
G01*
X13620000Y7640000D02*
G03*
X13620000Y7640000I-10000J0D01*
G01*
Y8650000D02*
G03*
X13620000Y8650000I-10000J0D01*
G01*
D187*
X10150000Y7990000D02*
Y8389871D01*
X10283290Y8256580D01*
X10416580Y8389871D01*
Y7990000D01*
X10549870Y8389871D02*
X10683161D01*
X10616515D01*
Y7990000D01*
X10549870D01*
X10683161D01*
X11149676Y8323226D02*
X11083031Y8389871D01*
X10949741D01*
X10883096Y8323226D01*
Y8056645D01*
X10949741Y7990000D01*
X11083031D01*
X11149676Y8056645D01*
X11282967Y8389871D02*
Y7990000D01*
Y8189935D01*
X11549547D01*
Y8389871D01*
Y7990000D01*
X11949418Y8389871D02*
X11682837D01*
Y7990000D01*
X11949418D01*
X11682837Y8189935D02*
X11816128D01*
X12082708Y8389871D02*
Y7990000D01*
X12349288D01*
D188*
X10340000Y7610000D02*
X10406645D01*
X10373323D01*
Y7809936D01*
X10340000D01*
X10606581Y7610000D02*
X10539935D01*
X10506613Y7643323D01*
Y7709968D01*
X10539935Y7743291D01*
X10606581D01*
X10639903Y7709968D01*
Y7676645D01*
X10506613D01*
X11039774Y7809936D02*
X10906484D01*
Y7709968D01*
X10973129D01*
X10906484D01*
Y7610000D01*
X11106420D02*
X11173065D01*
X11139742D01*
Y7743291D01*
X11106420D01*
X11273033Y7610000D02*
X11339678D01*
X11306355D01*
Y7809936D01*
X11273033D01*
X11472968Y7776613D02*
Y7743291D01*
X11439645D01*
X11506290D01*
X11472968D01*
Y7643323D01*
X11506290Y7610000D01*
X11606258Y7743291D02*
Y7610000D01*
Y7676645D01*
X11639581Y7709968D01*
X11672903Y7743291D01*
X11706226D01*
X11906162Y7610000D02*
X11839516D01*
X11806194Y7643323D01*
Y7709968D01*
X11839516Y7743291D01*
X11906162D01*
X11939484Y7709968D01*
Y7676645D01*
X11806194D01*
X10610000Y7519936D02*
Y7353323D01*
X10643323Y7320000D01*
X10709968D01*
X10743290Y7353323D01*
Y7519936D01*
X10809936Y7320000D02*
X10876581D01*
X10843258D01*
Y7519936D01*
X10809936D01*
X11009871Y7486613D02*
Y7453290D01*
X10976549D01*
X11043194D01*
X11009871D01*
Y7353323D01*
X11043194Y7320000D01*
X11143161D02*
X11209806D01*
X11176484D01*
Y7453290D01*
X11143161D01*
X11309774Y7320000D02*
Y7453290D01*
X11343097D01*
X11376419Y7419968D01*
Y7320000D01*
Y7419968D01*
X11409742Y7453290D01*
X11443064Y7419968D01*
Y7320000D01*
X11609678D02*
X11543032D01*
X11509710Y7353323D01*
Y7419968D01*
X11543032Y7453290D01*
X11609678D01*
X11643000Y7419968D01*
Y7386645D01*
X11509710D01*
%TF.MD5,259c459ab1f8404c7298bb6e3a9e6b74*%
M02*
