G04 Layer_Physical_Order=1*
G04 Layer_Color=255*
%FSLAX45Y45*%
%MOMM*%
%TF.FileFunction,Copper,L1,Top,Signal*%
%TF.Part,Single*%
G01*
G75*
%TA.AperFunction,Conductor*%
%ADD10C,0.13000*%
%TA.AperFunction,SMDPad,CuDef*%
%ADD11R,1.20000X0.40000*%
%ADD12R,1.70000X0.30000*%
%ADD13R,1.14300X1.27000*%
%ADD14R,0.80000X1.20000*%
%ADD15R,1.00000X1.00000*%
%ADD16R,1.00000X1.00000*%
%ADD17R,0.80000X1.00000*%
%TA.AperFunction,BGAPad,CuDef*%
%ADD18C,0.40000*%
%TA.AperFunction,SMDPad,CuDef*%
%ADD19R,0.55000X0.45000*%
%ADD20R,1.00000X0.80000*%
%ADD21R,1.50000X0.60000*%
%ADD22R,1.70000X0.70000*%
%ADD23R,2.00000X0.70000*%
%ADD24R,1.70000X0.40000*%
%ADD25R,0.80000X2.50000*%
%ADD26R,1.50000X0.70000*%
%ADD27R,3.70000X3.70000*%
%ADD28R,0.85000X0.19000*%
%ADD29R,0.19000X0.85000*%
%ADD30R,1.40000X0.70000*%
%ADD31R,0.60000X1.50000*%
%ADD32R,1.45000X2.00000*%
%ADD33R,0.80000X1.50000*%
%ADD34R,0.30000X1.50000*%
%ADD35R,2.50000X3.20000*%
%ADD36R,1.50000X5.00000*%
%ADD37R,5.00000X1.50000*%
%ADD38R,3.20000X0.80000*%
%ADD39R,0.80000X3.20000*%
%ADD40R,1.60000X0.35000*%
%ADD41R,2.00000X1.00000*%
%ADD42R,1.20000X1.20000*%
%ADD43R,1.00000X2.00000*%
%TA.AperFunction,BGAPad,CuDef*%
%ADD44C,0.45000*%
%TA.AperFunction,SMDPad,CuDef*%
%ADD45R,0.70000X1.60000*%
%TA.AperFunction,Conductor*%
%ADD46C,0.50000*%
%ADD47C,0.40000*%
%ADD48C,0.25000*%
%ADD49C,0.15000*%
%ADD50C,0.18400*%
%ADD51C,0.14000*%
%ADD52C,0.60000*%
%ADD53C,1.00000*%
%ADD54C,0.20000*%
%ADD55C,0.30000*%
%ADD56C,1.20000*%
%ADD57C,0.35000*%
%ADD58C,0.34200*%
%ADD59C,0.13400*%
%ADD60C,0.80000*%
%ADD61C,0.18300*%
%ADD62C,0.10000*%
%ADD63C,0.70000*%
%ADD64C,1.40000*%
%ADD65C,0.25400*%
%TA.AperFunction,ViaPad*%
%ADD66C,2.00000*%
%TA.AperFunction,ComponentPad*%
%ADD67C,2.50000*%
%ADD68C,1.70000*%
%ADD69C,2.30000*%
%ADD70C,2.70000*%
%ADD71C,2.00000*%
%TA.AperFunction,ViaPad*%
%ADD72C,0.80000*%
%ADD73C,0.70000*%
%ADD74C,0.40000*%
%ADD75C,0.50000*%
%ADD76C,0.60000*%
%ADD77C,1.20000*%
%ADD78C,1.00000*%
G36*
X10049999Y11000000D02*
Y10980000D01*
X10040000Y10950000D01*
X10010000Y10930000D01*
X9870000Y10902000D01*
Y10980000D01*
X9828000D01*
X9820000Y11000000D01*
X9930000D01*
X10000000Y11010000D01*
X10049999Y11000000D01*
D02*
G37*
G36*
X10439999Y10710000D02*
X10480000Y10690000D01*
X10488000Y10650000D01*
X10390000D01*
Y10581666D01*
X10370000Y10570000D01*
X10390000Y10710000D01*
X10409999Y10739999D01*
X10419999Y10770000D01*
X10439999D01*
Y10710000D01*
D02*
G37*
G36*
X10670000Y10750000D02*
X10679999Y10720000D01*
X10679999Y10580000D01*
X10600000D01*
Y10510000D01*
X10599999D01*
X10599999Y10629989D01*
X10610000Y10700000D01*
X10619999Y10770000D01*
X10640000Y10790000D01*
X10670000Y10750000D01*
D02*
G37*
G36*
X10540000Y11530000D02*
X10530000Y11520000D01*
X10520000Y11490000D01*
X10500000D01*
X10469999Y11510000D01*
X10460000Y11540000D01*
X10460000Y11740000D01*
X10460000D01*
Y11640000D01*
X10540000D01*
Y11740000D01*
X10540000Y11530000D01*
D02*
G37*
G36*
X10342700Y11630000D02*
X10380000D01*
D01*
X10380000D01*
X10370000Y11580000D01*
X10380000Y11510000D01*
X10350000Y11500000D01*
X10299999Y11540000D01*
X10280000Y11570000D01*
X10263096Y11647619D01*
X10280000Y11645071D01*
Y11630000D01*
X10317300D01*
Y11670000D01*
X10342700D01*
Y11630000D01*
D02*
G37*
G36*
X11030000Y11120000D02*
X10930000D01*
Y11040000D01*
X11030000D01*
Y11040000D01*
X10810000Y11040000D01*
X10800000Y11049999D01*
X10770000Y11060000D01*
Y11080000D01*
X10790000Y11110000D01*
X10830000Y11120000D01*
X11030000Y11120000D01*
D02*
G37*
D10*
X8604027Y7621500D02*
G03*
X8591027Y7634500I-13000J0D01*
G01*
X8604027Y7599755D02*
G03*
X8617027Y7586755I13000J0D01*
G01*
D02*
G03*
X8630027Y7599755I0J13000D01*
G01*
X8643027Y7634500D02*
G03*
X8630027Y7621500I0J-13000D01*
G01*
X8656027D02*
G03*
X8643027Y7634500I-13000J0D01*
G01*
X8656027Y7599755D02*
G03*
X8669027Y7586755I13000J0D01*
G01*
D02*
G03*
X8682027Y7599755I0J13000D01*
G01*
X8695027Y7634500D02*
G03*
X8682027Y7621500I0J-13000D01*
G01*
X8662500Y7657500D02*
G03*
X8672500Y7667500I0J10000D01*
G01*
X8685500Y7694793D02*
G03*
X8672500Y7681793I0J-13000D01*
G01*
X8698500D02*
G03*
X8685500Y7694793I-13000J0D01*
G01*
X8698500Y7670500D02*
G03*
X8711500Y7657500I13000J0D01*
G01*
X8624500Y9552000D02*
G03*
X8611500Y9565000I-13000J0D01*
G01*
X8624500Y9548721D02*
G03*
X8637500Y9535721I13000J0D01*
G01*
D02*
G03*
X8650500Y9548721I0J13000D01*
G01*
X8663500Y9565000D02*
G03*
X8650500Y9552000I0J-13000D01*
G01*
X8676500D02*
G03*
X8663500Y9565000I-13000J0D01*
G01*
X8676500Y9548721D02*
G03*
X8689500Y9535721I13000J0D01*
G01*
D02*
G03*
X8702500Y9548721I0J13000D01*
G01*
X8715500Y9565000D02*
G03*
X8702500Y9552000I0J-13000D01*
G01*
X8446718Y9436307D02*
G03*
X8428334Y9436307I-9192J-9192D01*
G01*
X8449037Y9433988D02*
G03*
X8467422Y9433988I9192J9192D01*
G01*
D02*
G03*
X8467422Y9452373I-9192J9192D01*
G01*
X8465103Y9473076D02*
G03*
X8465103Y9454692I9192J-9192D01*
G01*
X8483488Y9473076D02*
G03*
X8465103Y9473076I-9192J-9192D01*
G01*
X8485807Y9470758D02*
G03*
X8504191Y9470758I9192J9192D01*
G01*
D02*
G03*
X8504191Y9489143I-9192J9192D01*
G01*
X8501873Y9509846D02*
G03*
X8501873Y9491461I9192J-9192D01*
G01*
X8520258Y9509846D02*
G03*
X8501873Y9509846I-9192J-9192D01*
G01*
X8522576Y9507528D02*
G03*
X8540961Y9507528I9192J9192D01*
G01*
D02*
G03*
X8540961Y9525912I-9192J9192D01*
G01*
X8538643Y9546615D02*
G03*
X8538643Y9528231I9192J-9192D01*
G01*
X8848500Y9395763D02*
G03*
X8812500Y9359763I0J-36000D01*
G01*
Y9457763D02*
G03*
X8848500Y9421763I36000J0D01*
G01*
X8921736Y9395763D02*
G03*
X8934736Y9408763I0J13000D01*
G01*
D02*
G03*
X8921736Y9421763I-13000J0D01*
G01*
X8848500Y9372763D02*
G03*
X8835500Y9359763I0J-13000D01*
G01*
Y9457763D02*
G03*
X8848500Y9444763I13000J0D01*
G01*
X8921736Y9372763D02*
G03*
X8957736Y9408763I0J36000D01*
G01*
D02*
G03*
X8921736Y9444763I-36000J0D01*
G01*
X9139482Y8364020D02*
X9167982Y8335520D01*
X9125000Y8364020D02*
X9139482D01*
X8992500Y8231520D02*
X9125000Y8364020D01*
X8992500Y7879974D02*
Y8231520D01*
X8747027Y7634500D02*
X8992500Y7879974D01*
X8440473Y7634500D02*
X8582500D01*
X8591027D01*
X8604027Y7599755D02*
Y7621500D01*
X8630027Y7599755D02*
Y7621500D01*
X8656027Y7599755D02*
Y7621500D01*
X8682027Y7599755D02*
Y7621500D01*
X8695027Y7634500D02*
X8708027D01*
X8734027D01*
X8747027D01*
X8142000Y7932973D02*
X8440473Y7634500D01*
X8142000Y7932973D02*
Y8328000D01*
X7995000Y8475000D02*
X8142000Y8328000D01*
X7954000Y8475000D02*
X7995000D01*
X7939000Y8460000D02*
X7954000Y8475000D01*
X9139482Y8387020D02*
X9167982Y8415520D01*
X9115474Y8387020D02*
X9139482D01*
X8969500Y8241047D02*
X9115474Y8387020D01*
X8969500Y7889501D02*
Y8241047D01*
X8737500Y7657500D02*
X8969500Y7889501D01*
X8672500Y7667500D02*
Y7681793D01*
X8698500Y7670500D02*
Y7681793D01*
X8711500Y7657500D02*
X8724500D01*
X8737500D01*
X8165000Y7942500D02*
X8450000Y7657500D01*
X8165000Y7942500D02*
Y8337527D01*
X8004527Y8498000D02*
X8165000Y8337527D01*
X7962500Y8498000D02*
X8004527D01*
X8767500Y9565000D02*
X8812500Y9520000D01*
X8557027Y9565000D02*
X8572500D01*
X8598500D01*
X8611500D01*
X8624500Y9548721D02*
Y9552000D01*
X8650500Y9548721D02*
Y9552000D01*
X8676500Y9548721D02*
Y9552000D01*
X8702500Y9548721D02*
Y9552000D01*
X8715500Y9565000D02*
X8728500D01*
X8754500D01*
X8767500D01*
X8347027Y9355000D02*
X8411013Y9418986D01*
X8419142Y9427115D01*
X8428334Y9436307D01*
X8446718D02*
X8449037Y9433988D01*
X8465103Y9454692D02*
X8467422Y9452373D01*
X8465103Y9473076D02*
X8465103Y9473077D01*
X8483488D02*
X8485807Y9470758D01*
X8501873Y9491461D02*
X8504192Y9489143D01*
X8501873Y9509846D02*
X8501873Y9509846D01*
X8520258D02*
X8522576Y9507528D01*
X8538642Y9528231D02*
X8540961Y9525912D01*
X8538642Y9546615D02*
X8547835Y9555808D01*
X8557027Y9565000D01*
X8120027Y9355000D02*
X8347027D01*
X8025027Y9260000D02*
X8120027Y9355000D01*
X7939000Y9260000D02*
X8025027D01*
X8002745Y9019985D02*
X8042801Y9060016D01*
X7910010Y9019985D02*
X8002745D01*
X9167982Y8975521D02*
X9168021D01*
X7830000Y9020000D02*
X7870041Y9060041D01*
X7966576D01*
X7910000Y9260000D02*
X7939000D01*
X7939000Y9260000D01*
X7830000Y9260000D02*
X7859000D01*
X7871000Y9272000D01*
Y9276154D01*
X8847981Y8655521D02*
X8876765Y8626737D01*
X7871000Y9276154D02*
X7893846Y9299000D01*
X7926155D01*
X7942155Y9283000D01*
X8847981Y8575521D02*
X8876198Y8603737D01*
X7942155Y9283000D02*
X8015500D01*
X8110500Y9378000D01*
X8337500D01*
X8547500Y9588000D02*
X8777027D01*
X8835500Y9529527D01*
X8812500Y9232973D02*
X8949500Y9095973D01*
X8835500Y9242500D02*
X8972500Y9105500D01*
X8949500Y8862973D02*
Y9095973D01*
X8972500Y8872500D02*
Y9105500D01*
X8949500Y8862973D02*
X8977500Y8834974D01*
X8972500Y8872500D02*
X9000500Y8844500D01*
X8977500Y8685000D02*
Y8834974D01*
X9000500Y8675473D02*
Y8844500D01*
X8919237Y8626737D02*
X8977500Y8685000D01*
X8928764Y8603737D02*
X9000500Y8675473D01*
X8876765Y8626737D02*
X8919237D01*
X8876198Y8603737D02*
X8928764D01*
X7830000Y8460000D02*
X7859000D01*
X7871000Y8472000D01*
Y8476154D01*
X7893846Y8499000D01*
X7961500D01*
X7962500Y8498000D01*
X7910000Y8460000D02*
X7939000D01*
X8337500Y9378000D02*
X8547500Y9588000D01*
X9167982Y8975521D02*
X9207961Y9015500D01*
X9167982Y8895521D02*
Y8896202D01*
X8812500Y9359763D02*
X8812500Y9232973D01*
X8812500Y9457763D02*
Y9457763D01*
X8812500Y9520000D01*
X8848500Y9395763D02*
X8921736D01*
X8848500Y9421763D02*
X8921736D01*
X8450000Y7657500D02*
X8662500D01*
X8835500Y9242500D02*
Y9359763D01*
Y9457763D02*
Y9529527D01*
X8848500Y9372763D02*
X8921736D01*
X8848500Y9444763D02*
X8921736D01*
X9167982Y8896202D02*
X9207640Y8935860D01*
D11*
X9656520Y10405000D02*
D03*
Y10470000D02*
D03*
Y10535000D02*
D03*
X9423480D02*
D03*
Y10405000D02*
D03*
D12*
X8970000Y10010000D02*
D03*
Y10060000D02*
D03*
Y10110000D02*
D03*
Y10160000D02*
D03*
Y10210000D02*
D03*
Y10260000D02*
D03*
Y10310000D02*
D03*
Y10360000D02*
D03*
Y10410000D02*
D03*
Y10460000D02*
D03*
Y10510000D02*
D03*
Y10560000D02*
D03*
Y10610000D02*
D03*
Y10660000D02*
D03*
Y10710000D02*
D03*
Y10760000D02*
D03*
Y10810000D02*
D03*
Y10860000D02*
D03*
Y10910000D02*
D03*
Y10960000D02*
D03*
Y11010000D02*
D03*
Y11060000D02*
D03*
Y11110000D02*
D03*
Y11160000D02*
D03*
X6940000Y10010000D02*
D03*
Y10060000D02*
D03*
Y10110000D02*
D03*
Y10160000D02*
D03*
Y10210000D02*
D03*
Y10260000D02*
D03*
Y10310000D02*
D03*
Y10360000D02*
D03*
Y10410000D02*
D03*
Y10460000D02*
D03*
Y10510000D02*
D03*
Y10560000D02*
D03*
Y10610000D02*
D03*
Y10660000D02*
D03*
Y10710000D02*
D03*
Y10760000D02*
D03*
Y10810000D02*
D03*
Y10860000D02*
D03*
Y10910000D02*
D03*
Y10960000D02*
D03*
Y11010000D02*
D03*
Y11060000D02*
D03*
Y11110000D02*
D03*
Y11160000D02*
D03*
D13*
X9601688Y7471270D02*
D03*
X9779488D02*
D03*
X9826688Y10281270D02*
D03*
X10004488D02*
D03*
D14*
X9540000Y7101270D02*
D03*
X9760000D02*
D03*
X7210000Y7960000D02*
D03*
X7430000D02*
D03*
D15*
X9493000Y8405000D02*
D03*
X9673000D02*
D03*
X4680000Y9840000D02*
D03*
X4500000D02*
D03*
X5510000Y9920000D02*
D03*
X5330000D02*
D03*
X4890000Y10170000D02*
D03*
X4710000D02*
D03*
X10160000Y11810000D02*
D03*
X9980000D02*
D03*
X5030000Y8540000D02*
D03*
X4850000D02*
D03*
X4680000Y9620000D02*
D03*
X4500000D02*
D03*
X5950000Y9860000D02*
D03*
X5770000D02*
D03*
X5950000Y9680000D02*
D03*
X5770000D02*
D03*
X4660000Y8090000D02*
D03*
X4480000D02*
D03*
X9407500Y11505000D02*
D03*
X9587500D02*
D03*
X9491000Y8215000D02*
D03*
X9671000D02*
D03*
X6520000Y9787500D02*
D03*
X6340000D02*
D03*
D16*
X8322500Y7327500D02*
D03*
Y7507500D02*
D03*
X4290000Y10340000D02*
D03*
Y10520001D02*
D03*
X3010000Y11030000D02*
D03*
Y10850000D02*
D03*
X4290000Y11030000D02*
D03*
Y10850000D02*
D03*
X3045000Y10375000D02*
D03*
Y10555000D02*
D03*
X5620000Y10670000D02*
D03*
Y10850000D02*
D03*
X6180000Y9030000D02*
D03*
Y8850000D02*
D03*
D17*
X4500000Y10010000D02*
D03*
X4680000D02*
D03*
X5330000Y9750000D02*
D03*
X5510000D02*
D03*
X9950000Y10550000D02*
D03*
X10130000D02*
D03*
X12110000Y11830000D02*
D03*
X11930000D02*
D03*
X4480000Y8240000D02*
D03*
X4660000D02*
D03*
X4100000Y8090000D02*
D03*
X4280000D02*
D03*
X10690000Y11690000D02*
D03*
X10510000D02*
D03*
X10640000Y10530000D02*
D03*
X10820000D02*
D03*
D18*
X9247982Y8415520D02*
D03*
X9327982Y7855520D02*
D03*
Y7935520D02*
D03*
Y8015520D02*
D03*
Y8095520D02*
D03*
Y8175520D02*
D03*
Y8255520D02*
D03*
Y8335520D02*
D03*
Y8415520D02*
D03*
Y8495520D02*
D03*
Y8575521D02*
D03*
Y8655521D02*
D03*
Y8735521D02*
D03*
Y8815521D02*
D03*
Y8895521D02*
D03*
Y8975521D02*
D03*
Y9055521D02*
D03*
X9247982Y7855520D02*
D03*
Y7935520D02*
D03*
Y8015520D02*
D03*
Y8095520D02*
D03*
Y8175520D02*
D03*
Y8255520D02*
D03*
Y8335520D02*
D03*
Y8495520D02*
D03*
Y8575521D02*
D03*
Y8655521D02*
D03*
Y8735521D02*
D03*
Y8815521D02*
D03*
Y8895521D02*
D03*
Y8975521D02*
D03*
Y9055521D02*
D03*
X9167982Y7855520D02*
D03*
Y7935520D02*
D03*
Y8015520D02*
D03*
Y8095520D02*
D03*
Y8175520D02*
D03*
Y8255520D02*
D03*
Y8495520D02*
D03*
Y8575521D02*
D03*
Y8655521D02*
D03*
Y8735521D02*
D03*
Y8815521D02*
D03*
Y8895521D02*
D03*
Y8975521D02*
D03*
Y9055521D02*
D03*
X8847981Y7855520D02*
D03*
Y7935520D02*
D03*
Y8015520D02*
D03*
Y8095520D02*
D03*
Y8175520D02*
D03*
Y8255520D02*
D03*
Y8335520D02*
D03*
Y8415520D02*
D03*
Y8495520D02*
D03*
Y8735521D02*
D03*
Y8815521D02*
D03*
Y8895521D02*
D03*
Y8975521D02*
D03*
Y9055521D02*
D03*
X8767981Y7855520D02*
D03*
Y7935520D02*
D03*
Y8015520D02*
D03*
Y8095520D02*
D03*
Y8175520D02*
D03*
Y8255520D02*
D03*
Y8335520D02*
D03*
Y8415520D02*
D03*
Y8495520D02*
D03*
Y8575521D02*
D03*
Y8655521D02*
D03*
Y8735521D02*
D03*
Y8815521D02*
D03*
Y8895521D02*
D03*
Y8975521D02*
D03*
Y9055521D02*
D03*
X8687981Y7855520D02*
D03*
Y7935520D02*
D03*
Y8015520D02*
D03*
Y8095520D02*
D03*
Y8175520D02*
D03*
Y8255520D02*
D03*
Y8335520D02*
D03*
Y8415520D02*
D03*
Y8495520D02*
D03*
Y8575521D02*
D03*
Y8655521D02*
D03*
Y8735521D02*
D03*
Y8815521D02*
D03*
Y8895521D02*
D03*
Y8975521D02*
D03*
Y9055521D02*
D03*
X8847981Y8655521D02*
D03*
Y8575521D02*
D03*
X9167982Y8415520D02*
D03*
Y8335520D02*
D03*
D19*
X7068270Y7804348D02*
D03*
X7169870D02*
D03*
X7068399Y7690000D02*
D03*
X7170000D02*
D03*
X7670800Y7642500D02*
D03*
X7569200D02*
D03*
X8016700Y7482500D02*
D03*
X8118300D02*
D03*
X9381700Y10292500D02*
D03*
X9483300D02*
D03*
D20*
X6960000Y7110000D02*
D03*
Y6930000D02*
D03*
X6770000Y7110000D02*
D03*
Y6930000D02*
D03*
X6580000Y7110000D02*
D03*
Y6930000D02*
D03*
X9820000Y10760000D02*
D03*
Y10940000D02*
D03*
X10330000Y11850000D02*
D03*
Y11670000D02*
D03*
X12920000Y11250000D02*
D03*
Y11070000D02*
D03*
X4860000Y9060000D02*
D03*
Y8880000D02*
D03*
X5040000Y9060000D02*
D03*
Y8880000D02*
D03*
X6180000Y8410000D02*
D03*
Y8590000D02*
D03*
Y9410000D02*
D03*
Y9230000D02*
D03*
X10980000Y11080000D02*
D03*
Y11260000D02*
D03*
X10439999Y10610000D02*
D03*
Y10430000D02*
D03*
X7580000Y7240000D02*
D03*
Y7060000D02*
D03*
D21*
X12999921Y12630000D02*
D03*
X13240080D02*
D03*
D22*
X6492260Y10840999D02*
D03*
Y10713999D02*
D03*
Y10586999D02*
D03*
Y10459999D02*
D03*
Y10332999D02*
D03*
Y10205999D02*
D03*
Y10078999D02*
D03*
X5887740D02*
D03*
Y10205999D02*
D03*
Y10332999D02*
D03*
Y10459999D02*
D03*
Y10586999D02*
D03*
Y10713999D02*
D03*
Y10840999D02*
D03*
X3952259Y11001000D02*
D03*
Y10874000D02*
D03*
Y10747000D02*
D03*
Y10620000D02*
D03*
Y10493000D02*
D03*
Y10366000D02*
D03*
Y10239000D02*
D03*
X3347739D02*
D03*
Y10366000D02*
D03*
Y10493000D02*
D03*
Y10620000D02*
D03*
Y10747000D02*
D03*
Y10874000D02*
D03*
Y11001000D02*
D03*
X5257740Y9351000D02*
D03*
Y9224000D02*
D03*
Y9097000D02*
D03*
Y8970000D02*
D03*
Y8843000D02*
D03*
Y8716000D02*
D03*
Y8589000D02*
D03*
X5862260D02*
D03*
Y8716000D02*
D03*
Y8843000D02*
D03*
Y8970000D02*
D03*
Y9097000D02*
D03*
Y9224000D02*
D03*
Y9351000D02*
D03*
D23*
X6500600Y11423000D02*
D03*
Y11550000D02*
D03*
Y11677000D02*
D03*
Y11804000D02*
D03*
X7059400D02*
D03*
Y11677000D02*
D03*
Y11550000D02*
D03*
Y11423000D02*
D03*
D24*
X5352420Y10495000D02*
D03*
Y10560000D02*
D03*
Y10625000D02*
D03*
Y10690000D02*
D03*
Y10755000D02*
D03*
Y10820000D02*
D03*
Y10885000D02*
D03*
X4727580Y10885000D02*
D03*
Y10820000D02*
D03*
Y10755000D02*
D03*
Y10690000D02*
D03*
Y10625000D02*
D03*
Y10560000D02*
D03*
Y10495000D02*
D03*
X3522420Y9485000D02*
D03*
Y9550000D02*
D03*
Y9615000D02*
D03*
Y9680000D02*
D03*
Y9745000D02*
D03*
Y9810000D02*
D03*
Y9875000D02*
D03*
X2897580Y9875000D02*
D03*
Y9810000D02*
D03*
Y9745000D02*
D03*
Y9680000D02*
D03*
Y9615000D02*
D03*
Y9550000D02*
D03*
Y9485000D02*
D03*
D25*
X9946000Y9350000D02*
D03*
X11978000D02*
D03*
X12105000D02*
D03*
X11851000D02*
D03*
X11724000D02*
D03*
X11597000D02*
D03*
X11470000D02*
D03*
X11343000D02*
D03*
X11216000D02*
D03*
X11089000D02*
D03*
X10962000D02*
D03*
X10835000D02*
D03*
X10708000D02*
D03*
X10581000D02*
D03*
X10454000D02*
D03*
X10327000D02*
D03*
X10200000D02*
D03*
X10073000D02*
D03*
X9946000Y9890000D02*
D03*
X10073000D02*
D03*
X10200000D02*
D03*
X10327000D02*
D03*
X10454000D02*
D03*
X10581000D02*
D03*
X10708000D02*
D03*
X10835000D02*
D03*
X10962000D02*
D03*
X11089000D02*
D03*
X11216000D02*
D03*
X11343000D02*
D03*
X11470000D02*
D03*
X11597000D02*
D03*
X11724000D02*
D03*
X11978000D02*
D03*
X12105000D02*
D03*
X11851000D02*
D03*
X12232000Y9350000D02*
D03*
Y9890000D02*
D03*
X12359000D02*
D03*
Y9350000D02*
D03*
D26*
X11285570Y11680000D02*
D03*
X11054430Y11584750D02*
D03*
Y11775250D02*
D03*
D27*
X10409999Y11130000D02*
D03*
D28*
X10112499Y11350000D02*
D03*
Y11310000D02*
D03*
Y11270000D02*
D03*
Y11230000D02*
D03*
Y11190000D02*
D03*
Y11150000D02*
D03*
Y11110000D02*
D03*
Y11070000D02*
D03*
Y11030000D02*
D03*
Y10990000D02*
D03*
Y10950000D02*
D03*
Y10910000D02*
D03*
X10707500D02*
D03*
Y10950000D02*
D03*
Y10990000D02*
D03*
Y11030000D02*
D03*
Y11070000D02*
D03*
Y11110000D02*
D03*
Y11150000D02*
D03*
Y11190000D02*
D03*
Y11230000D02*
D03*
Y11270000D02*
D03*
Y11310000D02*
D03*
Y11350000D02*
D03*
D29*
X10189999Y10832500D02*
D03*
X10230000D02*
D03*
X10270000D02*
D03*
X10309999D02*
D03*
X10350000D02*
D03*
X10390000D02*
D03*
X10429999D02*
D03*
X10469999D02*
D03*
X10510000D02*
D03*
X10549999D02*
D03*
X10589999D02*
D03*
X10630000D02*
D03*
Y11427500D02*
D03*
X10589999D02*
D03*
X10549999D02*
D03*
X10510000D02*
D03*
X10469999D02*
D03*
X10429999D02*
D03*
X10390000D02*
D03*
X10350000D02*
D03*
X10309999D02*
D03*
X10270000D02*
D03*
X10230000D02*
D03*
X10189999D02*
D03*
D30*
X13332300Y11275000D02*
D03*
Y11180000D02*
D03*
Y11085000D02*
D03*
X13667700D02*
D03*
Y11275000D02*
D03*
D31*
X13560001Y12990080D02*
D03*
Y12749920D02*
D03*
X12320000Y13430080D02*
D03*
Y13189920D02*
D03*
Y12850079D02*
D03*
Y12609920D02*
D03*
D32*
X6287500Y7020000D02*
D03*
X4912500D02*
D03*
Y7850000D02*
D03*
X6287500D02*
D03*
D33*
X5920000Y7280000D02*
D03*
X5150000D02*
D03*
X5810000D02*
D03*
X5480000D02*
D03*
X5590000D02*
D03*
X5370000D02*
D03*
X5260000D02*
D03*
X5700000D02*
D03*
D34*
X10190000Y9030000D02*
D03*
X10240000D02*
D03*
X10290000D02*
D03*
X10340000D02*
D03*
X10390000D02*
D03*
X10440000D02*
D03*
X10490000D02*
D03*
X10540000D02*
D03*
X10590000D02*
D03*
X10640000D02*
D03*
X10690000D02*
D03*
X10740000D02*
D03*
X10790000D02*
D03*
X10840000D02*
D03*
X10890000D02*
D03*
X10940000D02*
D03*
X10990000D02*
D03*
X11040000D02*
D03*
X11090000D02*
D03*
X11140000D02*
D03*
X11190000D02*
D03*
X11240000D02*
D03*
X11290000D02*
D03*
X11340000D02*
D03*
X11390000D02*
D03*
X11440000D02*
D03*
X11490000D02*
D03*
X11540000D02*
D03*
X11590000D02*
D03*
X11640000D02*
D03*
X11690000D02*
D03*
X11740000D02*
D03*
X11790000D02*
D03*
X11840000D02*
D03*
X11890000D02*
D03*
X11940000D02*
D03*
X11990000D02*
D03*
X12040000D02*
D03*
X12090000D02*
D03*
X12140000D02*
D03*
D35*
X9948700Y8877600D02*
D03*
X12381300D02*
D03*
D36*
X10490000Y13260600D02*
D03*
Y12270000D02*
D03*
D37*
X13505299Y11990000D02*
D03*
X12514700D02*
D03*
X13505299Y10440000D02*
D03*
X12514700D02*
D03*
X11564700Y11230000D02*
D03*
X12555300D02*
D03*
D38*
X3592900Y7545000D02*
D03*
Y7291000D02*
D03*
X2907100Y7545000D02*
D03*
Y7291000D02*
D03*
X3592900Y8307000D02*
D03*
Y8053000D02*
D03*
Y7799000D02*
D03*
X2907100Y8307000D02*
D03*
Y8053000D02*
D03*
Y7799000D02*
D03*
Y8561000D02*
D03*
Y8815000D02*
D03*
Y9069000D02*
D03*
X3592900Y8561000D02*
D03*
Y8815000D02*
D03*
Y9069000D02*
D03*
X13590199Y7517000D02*
D03*
Y7263000D02*
D03*
X12917101D02*
D03*
Y7517000D02*
D03*
X13592900Y8524000D02*
D03*
Y8270000D02*
D03*
Y8016000D02*
D03*
X12907100Y8524000D02*
D03*
Y8270000D02*
D03*
Y8016000D02*
D03*
D39*
X4594000Y7037100D02*
D03*
X4340000D02*
D03*
X4086000D02*
D03*
X4594000Y7722900D02*
D03*
X4340000D02*
D03*
X4086000D02*
D03*
X13363000Y9057100D02*
D03*
X13617000D02*
D03*
Y9730200D02*
D03*
X13363000D02*
D03*
D40*
X4090000Y8902500D02*
D03*
Y8772500D02*
D03*
Y8642499D02*
D03*
Y8577499D02*
D03*
Y8707499D02*
D03*
Y8837500D02*
D03*
Y9422501D02*
D03*
Y9292501D02*
D03*
Y9162500D02*
D03*
Y9032500D02*
D03*
Y8967500D02*
D03*
Y9097500D02*
D03*
Y9227500D02*
D03*
Y9357501D02*
D03*
X4650000Y8577499D02*
D03*
Y8642499D02*
D03*
Y8967500D02*
D03*
Y9097500D02*
D03*
Y9162500D02*
D03*
Y9032500D02*
D03*
Y8772500D02*
D03*
Y8902500D02*
D03*
Y8837500D02*
D03*
Y8707499D02*
D03*
Y9292501D02*
D03*
Y9422501D02*
D03*
Y9357501D02*
D03*
Y9227500D02*
D03*
D41*
X11754000Y10290000D02*
D03*
Y10450000D02*
D03*
X11246000Y10290000D02*
D03*
Y10450000D02*
D03*
D42*
X9022500Y11512500D02*
D03*
X9222500D02*
D03*
D43*
X7330000Y7484000D02*
D03*
X7170000D02*
D03*
X7330000Y6976000D02*
D03*
X7170000D02*
D03*
D44*
X6550000Y9580000D02*
D03*
X6630000D02*
D03*
X6710000D02*
D03*
X6790000D02*
D03*
X6870000D02*
D03*
X6950000D02*
D03*
X7030000D02*
D03*
X7110000D02*
D03*
X7190000D02*
D03*
X7270000D02*
D03*
X7350000D02*
D03*
X7430000D02*
D03*
X7510000D02*
D03*
X7590000D02*
D03*
X7670000D02*
D03*
X7750000D02*
D03*
X7830000D02*
D03*
X7910000D02*
D03*
X6550000Y9500000D02*
D03*
X6630000D02*
D03*
X6710000D02*
D03*
X6790000D02*
D03*
X6870000D02*
D03*
X6950000D02*
D03*
X7030000D02*
D03*
X7110000D02*
D03*
X7190000D02*
D03*
X7270000D02*
D03*
X7350000D02*
D03*
X7430000D02*
D03*
X7510000D02*
D03*
X7590000D02*
D03*
X7670000D02*
D03*
X7750000D02*
D03*
X7830000D02*
D03*
X7910000D02*
D03*
X6550000Y9420000D02*
D03*
X6630000D02*
D03*
X6710000D02*
D03*
X6790000D02*
D03*
X6870000D02*
D03*
X6950000D02*
D03*
X7030000D02*
D03*
X7110000D02*
D03*
X7190000D02*
D03*
X7270000D02*
D03*
X7350000D02*
D03*
X7430000D02*
D03*
X7510000D02*
D03*
X7590000D02*
D03*
X7670000D02*
D03*
X7750000D02*
D03*
X7830000D02*
D03*
X7910000D02*
D03*
X6550000Y9340000D02*
D03*
X6630000D02*
D03*
X6710000D02*
D03*
X6790000D02*
D03*
X6870000D02*
D03*
X6950000D02*
D03*
X7030000D02*
D03*
X7110000D02*
D03*
X7190000D02*
D03*
X7270000D02*
D03*
X7350000D02*
D03*
X7430000D02*
D03*
X7510000D02*
D03*
X7590000D02*
D03*
X7670000D02*
D03*
X7750000D02*
D03*
X7830000D02*
D03*
X7910000D02*
D03*
X6550000Y9260000D02*
D03*
X6630000D02*
D03*
X6710000D02*
D03*
X6790000D02*
D03*
X6870000D02*
D03*
X6950000D02*
D03*
X7030000D02*
D03*
X7110000D02*
D03*
X7190000D02*
D03*
X7270000D02*
D03*
X7350000D02*
D03*
X7430000D02*
D03*
X7510000D02*
D03*
X7590000D02*
D03*
X7670000D02*
D03*
X7750000D02*
D03*
X7830000D02*
D03*
X7910000D02*
D03*
X6550000Y9180000D02*
D03*
X6630000D02*
D03*
X6710000D02*
D03*
X6790000D02*
D03*
X6870000D02*
D03*
X6950000D02*
D03*
X7030000D02*
D03*
X7110000D02*
D03*
X7190000D02*
D03*
X7270000D02*
D03*
X7350000D02*
D03*
X7430000D02*
D03*
X7510000D02*
D03*
X7590000D02*
D03*
X7670000D02*
D03*
X7750000D02*
D03*
X7830000D02*
D03*
X7910000D02*
D03*
X6550000Y9100000D02*
D03*
X6630000D02*
D03*
X6710000D02*
D03*
X6790000D02*
D03*
X6870000D02*
D03*
X6950000D02*
D03*
X7030000D02*
D03*
X7110000D02*
D03*
X7190000D02*
D03*
X7270000D02*
D03*
X7350000D02*
D03*
X7430000D02*
D03*
X7510000D02*
D03*
X7590000D02*
D03*
X7670000D02*
D03*
X7750000D02*
D03*
X7830000D02*
D03*
X7910000D02*
D03*
X6550000Y9020000D02*
D03*
X6630000D02*
D03*
X6710000D02*
D03*
X6790000D02*
D03*
X6870000D02*
D03*
X6950000D02*
D03*
X7030000D02*
D03*
X7110000D02*
D03*
X7190000D02*
D03*
X7270000D02*
D03*
X7350000D02*
D03*
X7430000D02*
D03*
X7510000D02*
D03*
X7590000D02*
D03*
X7670000D02*
D03*
X7750000D02*
D03*
X7830000D02*
D03*
X7910000D02*
D03*
X6550000Y8940000D02*
D03*
X6630000D02*
D03*
X6710000D02*
D03*
X6790000D02*
D03*
X6870000D02*
D03*
X6950000D02*
D03*
X7030000D02*
D03*
X7110000D02*
D03*
X7190000D02*
D03*
X7270000D02*
D03*
X7350000D02*
D03*
X7430000D02*
D03*
X7510000D02*
D03*
X7590000D02*
D03*
X7670000D02*
D03*
X7750000D02*
D03*
X7830000D02*
D03*
X7910000D02*
D03*
X6550000Y8860000D02*
D03*
X6630000D02*
D03*
X6710000D02*
D03*
X6790000D02*
D03*
X6870000D02*
D03*
X6950000D02*
D03*
X7030000D02*
D03*
X7110000D02*
D03*
X7190000D02*
D03*
X7270000D02*
D03*
X7350000D02*
D03*
X7430000D02*
D03*
X7510000D02*
D03*
X7590000D02*
D03*
X7670000D02*
D03*
X7750000D02*
D03*
X7830000D02*
D03*
X7910000D02*
D03*
X6550000Y8780000D02*
D03*
X6630000D02*
D03*
X6710000D02*
D03*
X6790000D02*
D03*
X6870000D02*
D03*
X6950000D02*
D03*
X7030000D02*
D03*
X7110000D02*
D03*
X7190000D02*
D03*
X7270000D02*
D03*
X7350000D02*
D03*
X7430000D02*
D03*
X7510000D02*
D03*
X7590000D02*
D03*
X7670000D02*
D03*
X7750000D02*
D03*
X7830000D02*
D03*
X7910000D02*
D03*
X6550000Y8700000D02*
D03*
X6630000D02*
D03*
X6710000D02*
D03*
X6790000D02*
D03*
X6870000D02*
D03*
X6950000D02*
D03*
X7030000D02*
D03*
X7110000D02*
D03*
X7190000D02*
D03*
X7270000D02*
D03*
X7350000D02*
D03*
X7430000D02*
D03*
X7510000D02*
D03*
X7590000D02*
D03*
X7670000D02*
D03*
X7750000D02*
D03*
X7830000D02*
D03*
X7910000D02*
D03*
X6550000Y8620000D02*
D03*
X6630000D02*
D03*
X6710000D02*
D03*
X6790000D02*
D03*
X6870000D02*
D03*
X6950000D02*
D03*
X7030000D02*
D03*
X7110000D02*
D03*
X7190000D02*
D03*
X7270000D02*
D03*
X7350000D02*
D03*
X7430000D02*
D03*
X7510000D02*
D03*
X7590000D02*
D03*
X7670000D02*
D03*
X7750000D02*
D03*
X7830000D02*
D03*
X7910000D02*
D03*
X6550000Y8540000D02*
D03*
X6630000D02*
D03*
X6710000D02*
D03*
X6790000D02*
D03*
X6870000D02*
D03*
X6950000D02*
D03*
X7030000D02*
D03*
X7110000D02*
D03*
X7190000D02*
D03*
X7270000D02*
D03*
X7350000D02*
D03*
X7430000D02*
D03*
X7510000D02*
D03*
X7590000D02*
D03*
X7670000D02*
D03*
X7750000D02*
D03*
X7830000D02*
D03*
X7910000D02*
D03*
X6550000Y8460000D02*
D03*
X6630000D02*
D03*
X6710000D02*
D03*
X6790000D02*
D03*
X6870000D02*
D03*
X6950000D02*
D03*
X7030000D02*
D03*
X7110000D02*
D03*
X7190000D02*
D03*
X7270000D02*
D03*
X7350000D02*
D03*
X7430000D02*
D03*
X7510000D02*
D03*
X7590000D02*
D03*
X7670000D02*
D03*
X7750000D02*
D03*
X7830000D02*
D03*
X7910000D02*
D03*
X6550000Y8380000D02*
D03*
X6630000D02*
D03*
X6710000D02*
D03*
X6790000D02*
D03*
X6870000D02*
D03*
X6950000D02*
D03*
X7030000D02*
D03*
X7110000D02*
D03*
X7190000D02*
D03*
X7270000D02*
D03*
X7350000D02*
D03*
X7430000D02*
D03*
X7510000D02*
D03*
X7590000D02*
D03*
X7670000D02*
D03*
X7750000D02*
D03*
X7830000D02*
D03*
X7910000D02*
D03*
X6550000Y8300000D02*
D03*
X6630000D02*
D03*
X6710000D02*
D03*
X6790000D02*
D03*
X6870000D02*
D03*
X6950000D02*
D03*
X7030000D02*
D03*
X7110000D02*
D03*
X7190000D02*
D03*
X7270000D02*
D03*
X7350000D02*
D03*
X7430000D02*
D03*
X7510000D02*
D03*
X7590000D02*
D03*
X7670000D02*
D03*
X7750000D02*
D03*
X7830000D02*
D03*
X7910000D02*
D03*
X6550000Y8220000D02*
D03*
X6630000D02*
D03*
X6710000D02*
D03*
X6790000D02*
D03*
X6870000D02*
D03*
X6950000D02*
D03*
X7030000D02*
D03*
X7110000D02*
D03*
X7190000D02*
D03*
X7270000D02*
D03*
X7350000D02*
D03*
X7430000D02*
D03*
X7510000D02*
D03*
X7590000D02*
D03*
X7670000D02*
D03*
X7750000D02*
D03*
X7830000D02*
D03*
X7910000D02*
D03*
D45*
X8495000Y7215000D02*
D03*
X7945000D02*
D03*
X8495000Y6985000D02*
D03*
X7945000D02*
D03*
D46*
X6953000Y11413000D02*
X7059400D01*
X6820000Y11280000D02*
X6953000Y11413000D01*
X5010000Y8890000D02*
X5160000D01*
X9850000Y7250000D02*
X9850000D01*
X9730000Y7250000D02*
X9850000D01*
X9710000Y7170000D02*
X9840000D01*
X9760000Y7120000D02*
X9790000D01*
X10694750Y11584750D02*
X11054430D01*
X9790000Y7120000D02*
X9840000Y7170000D01*
X9850000Y7250000D02*
Y7290000D01*
Y7250000D02*
Y7250000D01*
X9710000Y7200000D02*
X9850000D01*
X9710000D02*
X9710000D01*
Y7270000D01*
Y7170000D02*
Y7200000D01*
X9750000Y7290000D02*
X9850000D01*
X9570000Y7410000D02*
X9710000Y7270000D01*
X9620000Y7420000D02*
X9750000Y7290000D01*
X9790000Y7440000D02*
X10000000D01*
X10150000Y7290000D01*
X9710000Y7170000D02*
X9710000D01*
X9840000D02*
X9850000Y7180000D01*
X9710000Y7170000D02*
X9760000Y7120000D01*
X9850000Y7200000D02*
Y7250000D01*
Y7180000D02*
Y7200000D01*
X10525000Y10850000D02*
X10535000D01*
X10530000Y10810000D02*
X10535000D01*
X10130000Y11084999D02*
Y11094999D01*
X10729999Y11250000D02*
Y11255000D01*
X10689999Y11245000D02*
Y11255000D01*
X6330000Y11540000D02*
X6340000Y11550000D01*
X6500600D01*
X5160000Y8890000D02*
X5190000Y8860000D01*
X4872000Y9066000D02*
X4950000Y8988000D01*
Y8950000D02*
Y8988000D01*
Y8950000D02*
X5010000Y8890000D01*
X4390000Y9100000D02*
X4500000D01*
X4530000Y9070000D01*
X5030000Y9170000D02*
X5110000D01*
X5180000Y9100000D01*
X5210000D01*
X10090000Y11084999D02*
Y11089999D01*
X10525000Y10810000D02*
X10530000D01*
X10729999Y11245000D02*
Y11250000D01*
X4530000Y9070000D02*
X4710000D01*
D47*
X6350000Y11280000D02*
X6820000D01*
X7410000Y7970000D02*
X7480000Y8040000D01*
X9240000Y7360000D02*
X9498730Y7101270D01*
X9419981Y10479979D02*
X9420000Y10527500D01*
X9630000Y10550000D02*
Y10650000D01*
X7169870Y7804348D02*
Y7919870D01*
X9498730Y7101270D02*
X9540000D01*
X5352420Y10560000D02*
X5510000D01*
X4727580Y10495000D02*
X4835000D01*
X4727580Y10690000D02*
X4835000D01*
X4890000Y10635000D01*
Y10600000D02*
Y10635000D01*
X9150000Y10630000D02*
Y10800000D01*
X9080000Y10560000D02*
X9150000Y10630000D01*
X3005000Y7555000D02*
X3140000Y7420000D01*
X7169870Y7700000D02*
Y7804348D01*
X9327981Y8655521D02*
X9327981Y8655520D01*
X7169870Y7919870D02*
X7210000Y7960000D01*
X7310000D01*
X5370000Y7120000D02*
Y7280000D01*
X5600000Y7060000D02*
Y7270000D01*
X4890000Y10550000D02*
Y10600000D01*
X4835000Y10495000D02*
X4890000Y10550000D01*
X5160000Y10690000D02*
X5352420D01*
X2990000Y9680000D02*
X3030000Y9640000D01*
X3355019Y9585019D02*
X3385000Y9615000D01*
X3410000Y9550000D02*
X3522420D01*
X3385000Y9615000D02*
X3522420D01*
X5214839Y10625000D02*
X5352420D01*
X3380000Y9520000D02*
X3410000Y9550000D01*
X3990000Y7060000D02*
X4063100D01*
X3360000Y9520000D02*
X3380000D01*
X3370000Y9690000D02*
X3380000Y9680000D01*
X3522420D01*
X3140000Y7320000D02*
X3260000D01*
X3485000Y7545000D01*
X3592900D01*
X3170000Y7530000D02*
X3216000D01*
X3485000Y7799000D01*
X3005000D02*
X3170000Y7634000D01*
Y7630000D02*
Y7634000D01*
X2897580Y9680000D02*
X2990000D01*
X2897580Y9485000D02*
X2985000D01*
X2907100Y7545000D02*
X3005000D01*
X4086000Y7354000D02*
Y7722900D01*
Y7354000D02*
X4210000Y7230000D01*
Y7060000D02*
Y7230000D01*
X5257740Y9224000D02*
X5430000D01*
X4949000Y9351000D02*
X5257740D01*
X4680000Y9620000D02*
X4949000Y9351000D01*
X4590000Y9630000D02*
X4660000D01*
X5370000Y7120000D02*
X5430000Y7060000D01*
X10410000Y11530000D02*
X10429999Y11510000D01*
X10410000Y11530000D02*
Y11580000D01*
X10079999Y11100000D02*
X10089999Y11090000D01*
X7500000Y7340000D02*
X7570000Y7270000D01*
X7200000Y7340000D02*
X7340000D01*
X7380000D02*
X7500000D01*
X7340000D02*
X7380000D01*
X7050000Y10560000D02*
X7120000D01*
X8790000Y10610000D02*
X8860000D01*
X9930000Y11120000D02*
X9940000D01*
X9960000Y11100000D02*
X10079999D01*
X9940000Y11120000D02*
X9960000Y11100000D01*
X7480000Y8040000D02*
X7555000D01*
X4950000Y8800000D02*
X5040000Y8710000D01*
X9455000Y10415000D02*
X9520000Y10480000D01*
X9407500Y11505000D02*
X9722500Y11190000D01*
X3030000Y9530001D02*
Y9640000D01*
X2985000Y9485000D02*
X3030000Y9530000D01*
X3810000Y10180000D02*
X3893259D01*
X3943259Y10230000D01*
X6340000Y9787500D02*
Y9932500D01*
X5040000Y8710000D02*
X5320000D01*
X9722500Y11190000D02*
X10020000D01*
X2780000Y7172000D02*
Y7302000D01*
D48*
X6990000Y7380000D02*
X7066001D01*
X7170000Y7484000D01*
X7650370Y9625370D02*
Y9805000D01*
X7590000Y9580000D02*
X7600370Y9590370D01*
X7600370Y9682973D01*
X7550000Y9790002D02*
X8520001Y10760000D01*
X7550000Y9620000D02*
X7550000Y9790002D01*
X8520001Y10760000D02*
X8970000Y10760000D01*
X8727999Y8695539D02*
X8767981Y8735521D01*
X6750018Y8420018D02*
X6790000Y8460000D01*
X6670018Y8420018D02*
X6710000Y8460000D01*
X6590018Y8420018D02*
X6630000Y8460000D01*
X6510018Y8420018D02*
X6550000Y8460000D01*
X8646300Y8697202D02*
X8687981Y8655521D01*
X6940000Y10310000D02*
X7132500D01*
X7282500D02*
X7350001Y10242499D01*
X6940000Y10910000D02*
X7167500Y10910000D01*
X7352500D02*
X7430001Y10832499D01*
X7390000Y9620000D02*
X7390001Y10759998D01*
X7190001Y10960000D02*
X7390001Y10759998D01*
X6940000Y10960000D02*
X7190001Y10960000D01*
X7182500Y7190000D02*
X7191250Y7181250D01*
X6760000Y7090000D02*
X6860000Y7190000D01*
X6540000Y7090000D02*
X6644800Y7194800D01*
X7125000Y9595000D02*
Y9700000D01*
X10065000Y11430000D02*
X10145000Y11510000D01*
X7784985Y8825015D02*
X7790000D01*
X7680000Y7480000D02*
Y7695000D01*
X3374840Y9780000D02*
X3404840Y9810000D01*
X7740000Y7760000D02*
X8285000Y7215000D01*
X6190000Y10068999D02*
X6492260D01*
X6960000Y7120000D02*
X7210000D01*
X4140000Y9422501D02*
Y9480000D01*
X6549970Y8940000D02*
X6589970Y8900000D01*
X8727963Y7895541D02*
X8767942Y7935520D01*
X8647963Y7895541D02*
X8687941Y7935520D01*
X9248021Y8895521D02*
X9288000Y8935500D01*
X9207963Y8455542D02*
X9247942Y8495520D01*
X9247982Y8415481D02*
X9287961Y8375502D01*
X7670000Y8860000D02*
X7710000Y8900000D01*
X7602500Y7772500D02*
X7680000Y7695000D01*
Y7480000D02*
X7945000Y7215000D01*
X5987500Y8047500D02*
X6057500D01*
X6415000Y8405000D01*
X6370000Y8020000D02*
Y8270000D01*
X6450000Y7930000D02*
X6590000Y8070000D01*
X5790000Y8190000D02*
X5910000Y8070000D01*
X6370000Y8270000D02*
X6460000Y8360000D01*
X6450000Y7860000D02*
X6630000Y8040000D01*
X9247982Y7790482D02*
Y7855520D01*
X9208003Y7895541D02*
X9247982Y7935520D01*
X8648002Y9095500D02*
X8687981Y9055521D01*
X9167982Y8255481D02*
X9207961Y8215502D01*
X7950000Y9380000D02*
X7970000D01*
X7670000Y8780000D02*
X7710000Y8740000D01*
X8807963Y8215541D02*
X8847942Y8255520D01*
X9167982Y8015480D02*
X9207961Y7975501D01*
X9247982Y8015480D02*
X9287961Y7975501D01*
X9328021Y8655521D02*
X9368000Y8695499D01*
X9248021Y8655521D02*
X9288000Y8695499D01*
X8728002Y8535499D02*
X8767981Y8495520D01*
X8728002Y8375542D02*
X8767981Y8415520D01*
X9673000Y8405000D02*
X9677000Y8401000D01*
X9671000Y8215000D02*
X9677000Y8221000D01*
Y8310000D01*
X7750000Y8860000D02*
X7784985Y8825015D01*
X7750000Y8780000D02*
X7789984Y8740016D01*
X7930000Y9600000D02*
X8090000D01*
X7910000Y9580000D02*
X7930000Y9600000D01*
X12917101Y7263000D02*
X13189999Y6990100D01*
X13500000Y7160000D02*
Y7240000D01*
X10240000Y9030000D02*
Y9160001D01*
X8970000Y10560000D02*
X9080000D01*
X6760000Y9760000D02*
Y10040000D01*
X6670000Y9670000D02*
X6760000Y9760000D01*
X6810000Y9970000D02*
Y10330000D01*
Y9970000D02*
X6830000Y9950000D01*
X8400001Y10860001D02*
X8970000Y10860000D01*
X7470001Y9930002D02*
X8400001Y10860001D01*
X7470001Y9620000D02*
X7470001Y9930002D01*
X8970000Y10910000D02*
X9150000D01*
X6790000Y7850000D02*
Y8220000D01*
X6470000Y7530000D02*
X6790000Y7850000D01*
X6035000Y8735000D02*
X6035000Y8735000D01*
X5927000Y8843000D02*
X6035000Y8735000D01*
X5862260Y8843000D02*
X5927000D01*
X6035000Y8735000D02*
X6180000Y8590000D01*
X6415000Y8895000D02*
X6500000Y8980000D01*
X6415000Y8405000D02*
Y8895000D01*
X7170000Y7240000D02*
X7190000Y7260000D01*
X6840000Y7240000D02*
X7170000D01*
X6794800Y7194800D02*
X6840000Y7240000D01*
X6920000Y7390000D02*
Y7480000D01*
X6770000Y7240000D02*
X6920000Y7390000D01*
X6840000Y7560000D02*
X6920000Y7480000D01*
X6120000Y7240000D02*
X6770000D01*
X6990000Y7810000D02*
Y8175000D01*
X6525000Y7345000D02*
X6990000Y7810000D01*
X6790000Y8300000D02*
X6830000Y8260000D01*
X6870000Y8380000D02*
X6910000Y8340000D01*
X6830000Y8740000D02*
X6870000Y8780000D01*
X6830000Y8740000D02*
X6870000Y8700000D01*
X6550000D02*
X6590000Y8740000D01*
X6830000Y8820000D02*
X6870000Y8860000D01*
X5214839Y10495000D02*
X5352420D01*
Y10755000D02*
X5525000D01*
X7831371Y8081371D02*
Y8218629D01*
X7830000Y8220000D02*
X7831371Y8218629D01*
X7629999Y8819999D02*
Y8820000D01*
X7590000Y8780000D02*
X7629999Y8819999D01*
X7590000Y8859999D02*
X7629999Y8820000D01*
X7670000Y9020000D02*
X7670000D01*
X9247982Y8335481D02*
X9287961Y8295502D01*
X8767981Y8815521D02*
X8807960Y8775542D01*
X8687981Y8815478D02*
X8727960Y8775500D01*
X8687981Y8735521D02*
X8727960Y8775500D01*
X4380000Y9870000D02*
X4480000D01*
X4680000Y10010000D02*
X4780000D01*
X6071001Y9950000D02*
X6190000Y10068999D01*
X5540000Y9950000D02*
X6071001D01*
X5510000Y9920000D02*
X5540000Y9950000D01*
X5330000Y9920000D02*
X5420000Y10010000D01*
X6040000D01*
X6170000Y10140000D01*
X6426261D01*
X4500000Y10690000D02*
X4565000Y10755000D01*
X4500000Y10260000D02*
Y10690000D01*
Y10260000D02*
X4590000Y10170000D01*
X5510000Y9750000D02*
Y9920000D01*
X5330000Y9750000D02*
Y9920000D01*
X4680000Y9840000D02*
Y10010000D01*
X4500000Y9840000D02*
Y10010000D01*
X5070000Y9750000D02*
X5220000Y9600000D01*
X5030000Y9710000D02*
X5220000Y9520000D01*
X4440000Y9710000D02*
X5030000D01*
X4410000Y9750000D02*
X5070000D01*
X4140000Y9480000D02*
X4410000Y9750000D01*
X4230000Y9500000D02*
X4440000Y9710000D01*
X7500000Y7070000D02*
X7570000D01*
X5590000Y10205999D02*
X5887740D01*
X5590000Y10090000D02*
X5878741D01*
X6426261Y10140000D02*
X6492260Y10205999D01*
X6417001Y10332999D02*
X6492260D01*
X5745480Y10586999D02*
X5887740D01*
X6120000D02*
X6492260D01*
X6150000Y10720000D02*
X6486259D01*
X5969000Y9351000D02*
X6010000Y9310000D01*
X5862260Y9351000D02*
X5969000D01*
X5730000Y10730000D02*
X5871739D01*
X4230000Y9410000D02*
Y9500000D01*
X10390000Y9030000D02*
Y9160001D01*
X12140000Y8680000D02*
Y9030000D01*
X10940000Y8680000D02*
Y9020000D01*
X11140000Y8680000D02*
Y9030000D01*
X11440000Y8680000D02*
Y9030000D01*
X12040000Y8680000D02*
Y9030000D01*
X10740000Y8680000D02*
Y9030000D01*
X10640000Y8680000D02*
Y9030000D01*
X10840000Y8680000D02*
Y9030000D01*
X11040000Y8680000D02*
Y9030000D01*
X11940000Y8680000D02*
Y9030000D01*
X10540000Y8680000D02*
Y9030000D01*
X10454000Y9350000D02*
Y9520000D01*
X10644500Y9632000D02*
Y9712000D01*
X10517500Y9562000D02*
Y9712000D01*
X10708000Y9350000D02*
Y9530000D01*
X10454000Y9775500D02*
X10517500Y9712000D01*
X10454000Y9775500D02*
Y9890000D01*
X10581000Y9350000D02*
Y9590000D01*
Y9775500D02*
X10644500Y9712000D01*
X10581000Y9775500D02*
Y9890000D01*
X7800000Y9630000D02*
Y9660000D01*
X7750000Y9580000D02*
X7800000Y9630000D01*
X7670000Y9500000D02*
X7710000Y9540000D01*
X4700000Y6880000D02*
X4750000Y6930000D01*
X4460000Y6880000D02*
Y6917100D01*
X7790019Y9380018D02*
X7830000Y9420000D01*
X7910000Y9500000D02*
X7949982Y9539981D01*
X7970000Y9380000D02*
X8050000Y9460000D01*
X8080000Y9420000D02*
X8190000D01*
X8000000Y9340000D02*
X8080000Y9420000D01*
X7570000Y7250000D02*
Y7270000D01*
X9168021Y8575521D02*
X9207993Y8615492D01*
X7910000Y8148500D02*
Y8220000D01*
X9328021Y9055521D02*
X9368000Y9095500D01*
X9248021Y8975521D02*
X9288000Y9015500D01*
X9328021Y8975521D02*
X9368000Y9015500D01*
X9168021Y8735521D02*
X9208000Y8775500D01*
X9168021Y8655521D02*
X9208000Y8695499D01*
X9327982Y8335481D02*
X9367961Y8295502D01*
X9327982Y8175480D02*
X9367961Y8135502D01*
X9247982Y8175480D02*
X9287961Y8135502D01*
X9167982Y8095480D02*
X9207961Y8055502D01*
X9247982Y8095480D02*
X9287961Y8055502D01*
X9327982Y8095480D02*
X9367961Y8055502D01*
X9327982Y8015480D02*
X9367961Y7975501D01*
X9327982Y7935480D02*
X9367961Y7895501D01*
X9327982Y7855480D02*
X9367961Y7815501D01*
X8807963Y7815541D02*
X8847942Y7855520D01*
X8647963Y7815541D02*
X8687941Y7855520D01*
X8807963Y7895541D02*
X8847942Y7935520D01*
X8727963Y7975541D02*
X8767942Y8015520D01*
X8647963Y7975541D02*
X8687941Y8015520D01*
X8647963Y8055541D02*
X8687941Y8095520D01*
X8727963Y8055541D02*
X8767942Y8095520D01*
X8807963Y8135541D02*
X8847942Y8175520D01*
X8727963Y8135541D02*
X8767942Y8175520D01*
X8647963Y8135541D02*
X8687941Y8175520D01*
X8807963Y8055541D02*
X8847942Y8095520D01*
X8647963Y8295541D02*
X8687941Y8335520D01*
X8727963Y8295541D02*
X8767942Y8335520D01*
X8847981Y8735521D02*
X8887960Y8775500D01*
X8648002Y8935500D02*
X8687981Y8895521D01*
X8648002Y9015500D02*
X8687981Y8975521D01*
X8728002Y9015500D02*
X8767981Y8975521D01*
X8808002Y9015500D02*
X8847981Y8975521D01*
X8648002Y8535499D02*
X8687981Y8495520D01*
X8807963Y7975541D02*
X8847942Y8015520D01*
X8728002Y8935500D02*
X8767981Y8895521D01*
X9168021Y9055521D02*
X9208000Y9095500D01*
X9248021Y9055521D02*
X9288000Y9095500D01*
X9248021Y8575521D02*
X9288000Y8615499D01*
X9328021Y8495520D02*
X9368000Y8535499D01*
X9328021Y8575521D02*
X9368000Y8615499D01*
X9248021Y8815521D02*
X9288000Y8855500D01*
X9328021Y8735521D02*
X9368000Y8775500D01*
X9248021Y8735521D02*
X9288000Y8775500D01*
X7590000Y8460000D02*
X7630000Y8420000D01*
X7750000Y9019967D02*
Y9020000D01*
Y9180000D02*
X7790000Y9220000D01*
X7750000Y8380000D02*
X7790000Y8340000D01*
X7670000Y8620000D02*
X7710000Y8580000D01*
X7670000Y9100000D02*
X7709982Y9139982D01*
X7670000Y8700000D02*
X7710000Y8660000D01*
X7750000Y9100000D02*
X7789982Y9139982D01*
X7789986D01*
X7670000Y9260000D02*
X7710000Y9300000D01*
Y9300000D01*
X7750000Y8620000D02*
X7790000Y8580000D01*
X7750000Y9260000D02*
X7789982Y9299981D01*
X7030000Y8700000D02*
X7070000Y8740000D01*
X7030000Y8780000D02*
Y8780000D01*
X7070000Y8980000D02*
X7110000Y8940000D01*
X7350000Y8620000D02*
Y8620000D01*
Y8620000D02*
X7390000Y8659999D01*
X7310000Y8660000D02*
X7350000Y8700000D01*
X7430000Y8780000D02*
X7430000D01*
X7270000Y8780000D02*
X7310000Y8820000D01*
X7270000Y8860000D02*
X7310000Y8820000D01*
X7150000Y8900000D02*
X7190000Y8860000D01*
X7430000Y8780000D02*
Y8780000D01*
X6950000Y9020000D02*
X6990000Y9060000D01*
X7030000Y9020000D02*
Y9020000D01*
X6990000Y9060000D02*
Y9060000D01*
X6870000Y9100000D02*
Y9100000D01*
X7150000Y9060000D02*
X7190000Y9020000D01*
X7430000Y8940000D02*
X7470000Y8980000D01*
X7430000Y8940000D02*
X7430000D01*
X7190000Y9100000D02*
Y9100000D01*
X7350000Y9100000D02*
Y9100000D01*
X7270000Y9100000D02*
X7310000Y9140000D01*
X7430000Y9100000D02*
X7430000D01*
X7110000Y9180000D02*
Y9180000D01*
X7150000Y9220000D01*
X7430000Y9180000D02*
X7470000Y9220000D01*
X7510000Y8780000D02*
Y8780000D01*
X7470000Y9140000D02*
X7510000Y9100000D01*
X7190000Y8459996D02*
Y8460000D01*
Y8459996D02*
X7229987Y8499983D01*
X7270000Y8539996D01*
Y8540000D01*
X7430000D02*
X7470000Y8580000D01*
X6910000D02*
X6950000Y8620000D01*
Y8700000D02*
X6990000Y8660000D01*
X6950000Y8700000D02*
X6950000D01*
X6910000Y8819999D02*
X6950000Y8780000D01*
X6910000Y8819999D02*
X6950000Y8859999D01*
X7830000Y8220000D02*
Y8220000D01*
X6710000Y7910000D02*
Y8220000D01*
X6990000Y8820000D02*
X7030000Y8860000D01*
X7030000D01*
X6990018Y8979982D02*
X7030000Y8940000D01*
X7270000Y9020000D02*
X7310000Y9060000D01*
X6950000Y9100000D02*
Y9100000D01*
X7030000Y9180000D02*
X7030000D01*
X7110000Y9100000D02*
X7150000Y9139999D01*
Y9140000D01*
X7270000Y9180000D02*
X7309982Y9219982D01*
X7309987D01*
X7310018D01*
X7430000Y8620000D02*
Y8620000D01*
X7469983Y8659983D01*
X7510000Y8699972D02*
Y8700000D01*
X7510000D02*
X7510000D01*
X7350000Y8940000D02*
Y8940000D01*
X7350000Y8940000D02*
X7350000D01*
Y8940000D02*
X7390000Y8980000D01*
X7310000Y9060000D02*
X7350000Y9020000D01*
X7510000Y8940000D02*
X7550000Y8980000D01*
X7510000Y8940000D02*
X7510000D01*
Y9020000D02*
X7550000Y8980000D01*
X7550000D01*
X7590000Y8300000D02*
X7630000Y8260000D01*
X7670000Y9420000D02*
X7709982Y9459981D01*
X7350000Y8540000D02*
X7389983Y8579983D01*
X7910000Y9340000D02*
X8000000D01*
X7389982Y9459981D02*
X7389986D01*
X6950000Y7830000D02*
Y8220000D01*
X6670000Y8010000D02*
Y8175000D01*
X7510000Y8380000D02*
X7550000Y8340000D01*
X7750000Y8300000D02*
X7790000Y8260000D01*
X6910000Y8420000D02*
X6950000Y8460000D01*
X7389987Y8259987D02*
X7430000Y8300000D01*
X7430000D01*
X6830000Y8580000D02*
X6870000Y8620000D01*
X6830001Y8900000D02*
X6870000Y8940000D01*
X6870000Y8780000D02*
X6870000D01*
X6990000Y8580000D02*
X7027500Y8542500D01*
Y8537500D02*
X7030000Y8540000D01*
X6870000Y8700000D02*
Y8700000D01*
Y8940000D02*
Y8940000D01*
X6910000Y9220000D02*
X6950000Y9260000D01*
Y9260000D01*
X7150000Y8500000D02*
X7190000Y8540000D01*
X7590000Y9180000D02*
X7630000Y9140000D01*
X7510000Y9260000D02*
Y9260000D01*
X7150000Y9299999D02*
Y9300000D01*
X7430000Y9260000D02*
X7470000Y9300000D01*
X7590000Y9260000D02*
Y9260000D01*
X7510000D02*
X7549981Y9299981D01*
X6630000Y8040000D02*
Y8220000D01*
X7709982Y9139982D02*
X7709986D01*
X7069987Y8259983D02*
Y8259987D01*
X7389986Y8339983D02*
Y8339986D01*
X7030000Y8459970D02*
Y8460000D01*
X7880000Y9630000D02*
Y9650000D01*
X7830000Y9580000D02*
X7880000Y9630000D01*
X7270000Y8299970D02*
X7310013Y8259957D01*
X7350000Y8460000D02*
Y8460000D01*
X7149987Y8259983D02*
Y8259987D01*
X7190000Y8300000D01*
X7270000Y9420000D02*
X7310000Y9460000D01*
X6870000Y7870000D02*
Y8220000D01*
X7430000Y8460000D02*
X7470000Y8420000D01*
X6589988Y8339987D02*
X6630000Y8380000D01*
X7150000Y8340000D02*
X7190000Y8380000D01*
X7510000Y8300000D02*
X7550000Y8260000D01*
X6909987Y8899982D02*
Y8899987D01*
X6950000Y8940000D01*
X6870000Y9260000D02*
X6870000D01*
X7069987Y9379987D02*
X7070000Y9380000D01*
X7510000Y8540000D02*
X7550000Y8580000D01*
X7070000Y9380000D02*
X7110000Y9340000D01*
X7510005Y9180000D02*
X7550000Y9140004D01*
X7510000Y9180000D02*
X7510005D01*
X7550000Y9140000D02*
Y9140004D01*
X6670001Y8500000D02*
X6710000Y8540000D01*
X7590000Y8380000D02*
X7630000Y8340000D01*
X7750000Y9500000D02*
X7790000Y9540000D01*
X6669988Y8339987D02*
X6710000Y8380000D01*
X7590000Y8540000D02*
X7629983Y8579983D01*
X7629986D01*
X7590000Y8620000D02*
X7629999Y8660000D01*
X7590000Y8700000D02*
X7630000Y8660000D01*
X7590000Y8780000D02*
X7590000D01*
X7590000Y8859999D02*
Y8860000D01*
Y8940000D02*
X7629999Y8980000D01*
X6750000Y8500000D02*
X6790000Y8540000D01*
X7789982Y9299981D02*
X7789986D01*
X7830000Y9500000D02*
X7870000Y9540000D01*
X6490000Y7430000D02*
X6910000Y7850000D01*
X6750000Y8740000D02*
X6790000Y8700000D01*
X7030000Y8780000D02*
X7070000Y8820000D01*
X7110000Y8860000D01*
X7110000Y8940000D02*
X7110000D01*
Y8940000D01*
Y8700000D02*
X7150000Y8660000D01*
Y8820000D02*
X7190000Y8780000D01*
X7150000Y8980000D02*
X7190000Y8940000D01*
X7270000D02*
X7310000Y8980000D01*
X7150000Y9060000D02*
X7190000Y9100000D01*
X7187500Y9177500D02*
X7190000Y9180000D01*
X7350000Y8700000D02*
X7350000D01*
Y8780000D02*
Y8780000D01*
Y8860000D02*
X7390000Y8820000D01*
X7350000Y8780000D02*
X7390000Y8820000D01*
X7430000Y8780000D02*
X7470000Y8820000D01*
X7430000Y9180000D02*
Y9180000D01*
X7470000Y9140000D02*
X7470000D01*
X7590000Y8220000D02*
X7630000Y8180000D01*
X7510000Y8780000D02*
X7550000Y8820000D01*
X6789970Y8780000D02*
X6790000D01*
X6749988Y8819982D02*
X6789970Y8780000D01*
X7670000Y8860000D02*
X7710000Y8820000D01*
X7110000Y8780000D02*
X7150000Y8740000D01*
X7430000Y8699965D02*
X7469983Y8659983D01*
X7430000Y8699965D02*
Y8700000D01*
X7510000Y8620000D02*
X7549983Y8659983D01*
X7350000Y9020000D02*
X7350000D01*
X7310018Y9219982D02*
X7350000Y9180000D01*
X7430000Y9020000D02*
X7430000D01*
X7389987Y8179987D02*
X7430000Y8220000D01*
X6870000Y8780000D02*
Y8780000D01*
X6870000Y8620000D02*
X6870000D01*
X6990000Y9300000D02*
X7030000Y9260000D01*
X7110000D02*
X7110000D01*
X7430000D02*
Y9260000D01*
X7150000Y9300000D02*
X7190000Y9260000D01*
X7590000Y9260000D02*
X7630000Y9300000D01*
X7590000Y8940000D02*
Y8940000D01*
X7590000Y9020000D02*
X7630000Y8980000D01*
X7670000Y9180000D02*
X7709982Y9219982D01*
X7750000Y8540000D02*
X7790000Y8500000D01*
X7670000Y9019968D02*
Y9020000D01*
X7190000Y8940000D02*
X7190000D01*
X7270000Y8780000D02*
Y8780000D01*
X7350000Y8860000D02*
Y8860000D01*
X7030000Y9100000D02*
Y9100000D01*
X7270000Y9100000D02*
Y9100000D01*
X7150000Y9220000D02*
X7190000Y9180000D01*
X7430000Y9100000D02*
X7470000Y9140000D01*
X7510000Y8860000D02*
X7550000Y8820000D01*
X7150000Y8580000D02*
X7190000Y8620000D01*
X7030000D02*
X7030000D01*
X6990000Y8660000D02*
X7030000Y8620000D01*
X7430000Y9420000D02*
X7469982Y9459981D01*
X7150000Y8740000D02*
X7190000Y8700000D01*
X6950000Y9180000D02*
X6990000Y9220000D01*
X7310000Y9060000D02*
Y9060000D01*
X7350000Y9180000D02*
X7350000D01*
X6990019Y9379981D02*
X7030000Y9340000D01*
X6790000Y9180000D02*
X6790000D01*
X6830000Y8900000D02*
X6830001D01*
X6830000Y9060000D02*
X6870000Y9020000D01*
X7110000Y9260000D02*
X7150000Y9299999D01*
X7350000Y9260000D02*
X7390000Y9300000D01*
X7270000Y8619969D02*
Y8620000D01*
X7110000Y8460000D02*
X7150000Y8420000D01*
X7590000Y8620000D02*
Y8620000D01*
X7629999Y8660000D02*
X7630000D01*
X6450000Y7790000D02*
X6670000Y8010000D01*
X7030000Y9260000D02*
X7030000D01*
X7110000Y8540000D02*
X7150000Y8500000D01*
X7510000Y9260000D02*
X7510000D01*
X5920000Y7230000D02*
X6090000Y7060000D01*
X5860000Y7130000D02*
X5930000Y7060000D01*
X7270000Y8460000D02*
X7310000Y8420000D01*
X6950000Y8859999D02*
Y8860000D01*
X7469982Y9459981D02*
X7469986D01*
X6990000Y9220000D02*
X7030000Y9180000D01*
X7510000Y8699972D02*
X7549986Y8659986D01*
X7350000Y8540000D02*
Y8540000D01*
X7709982Y9459981D02*
X7709986D01*
X6950000Y8540000D02*
X6990000Y8580000D01*
X6750019Y9299981D02*
X6790000Y9260000D01*
X7030000Y8459970D02*
X7069987Y8419983D01*
X6870000Y8540000D02*
X6910000Y8500000D01*
X6670000Y9220000D02*
X6710000Y9180000D01*
X7270000Y8619969D02*
X7309987Y8579983D01*
X6789970Y8860000D02*
X6790000D01*
X6900000Y7590000D02*
X6958399D01*
X6644800Y7194800D02*
X6794800D01*
X7110000Y8220000D02*
X7150013Y8179987D01*
X6739498Y7090000D02*
X6760000D01*
X6740000Y7290000D02*
X6870000Y7420000D01*
X6910000Y7850000D02*
Y8175000D01*
X7270000Y8220000D02*
X7310013Y8179987D01*
X7190000Y8220000D02*
X7230013Y8179987D01*
X7030000Y8220000D02*
X7070013Y8179987D01*
X6150000Y7290000D02*
X6740000D01*
X6870000Y6930000D02*
X6960000D01*
X6680000D02*
X6770000D01*
X6490000Y6930000D02*
X6580000D01*
X5154853Y7945147D02*
X5634853D01*
X5172427Y7987574D02*
X5652427D01*
X5700000Y7180000D02*
X5750000Y7130000D01*
X5860000D01*
X5270000Y7060000D02*
Y7270000D01*
X5700000Y7180000D02*
Y7280000D01*
X5150000Y7100000D02*
Y7280000D01*
X5920000Y7230000D02*
Y7280000D01*
X6460000Y8540000D02*
X6500000Y8580000D01*
X6460000Y8360000D02*
Y8540000D01*
X3471900Y7170000D02*
X3592900Y7291000D01*
X2860000Y7170000D02*
X3471900D01*
X6450000Y7650000D02*
X6710000Y7910000D01*
X3982501Y9292501D02*
X4090000D01*
X3810000Y9120000D02*
X3982501Y9292501D01*
X3810000Y8150000D02*
Y9120000D01*
X3987500Y8707499D02*
X4090000D01*
X3860000Y8580000D02*
X3987500Y8707499D01*
X3860000Y8160000D02*
Y8580000D01*
Y8160000D02*
X4050000Y7970000D01*
X4690000D01*
X4780000Y7880000D01*
X4280000Y8100000D02*
Y8190000D01*
X4780000Y7760000D02*
Y7880000D01*
Y7760000D02*
X4910000Y7630000D01*
X4880000Y7590000D02*
X5770000D01*
X4730000Y7740000D02*
X4880000Y7590000D01*
X4730000Y7740000D02*
Y7860001D01*
X5810000Y7630000D02*
X6150000Y7290000D01*
X4910000Y7630000D02*
X5810000D01*
X5770000Y7590000D02*
X6120000Y7240000D01*
X4407573Y8372427D02*
X4787574D01*
X4270000Y8510000D02*
X4407573Y8372427D01*
X4270000Y8510000D02*
Y8760000D01*
X4380000Y8330000D02*
X4770000D01*
X4210000Y8500000D02*
X4380000Y8330000D01*
X4210000Y8500000D02*
Y8734999D01*
X4330000Y8519706D02*
X4434853Y8414853D01*
X4805147D01*
X4787574Y8372427D02*
X5172427Y7987574D01*
X4805147Y8414853D02*
X5190000Y8030000D01*
X4770000Y8330000D02*
X5154853Y7945147D01*
X5190000Y8030000D02*
X5670000D01*
X4940000Y8380000D02*
Y8450000D01*
X6590000Y8070000D02*
Y8175000D01*
X6750000Y7870000D02*
Y8175000D01*
X6470000Y7590000D02*
X6750000Y7870000D01*
X6430000Y7590000D02*
X6470000D01*
X6477600Y11700000D02*
X6500600Y11677000D01*
X6340000Y11700000D02*
X6477600D01*
X4066014Y6919986D02*
X4086000Y6900000D01*
X4565000Y10755000D02*
X4727580D01*
X5878741Y10070000D02*
X5887740Y10078999D01*
X4890000Y10170000D02*
X4925999Y10205999D01*
X4590000Y10170000D02*
X4710000D01*
X6160000Y10860000D02*
X6473259D01*
X6100000Y10380000D02*
X6370000D01*
X6417001Y10332999D01*
X3886999Y10874000D02*
X3952259D01*
X3756000Y10366000D02*
X3952259D01*
X3390000Y9460000D02*
X3497420D01*
X3522420Y9485000D01*
X2760000Y9615000D02*
X2897580D01*
X2760000Y9810000D02*
X2897580D01*
X2760000Y9550000D02*
X2897580D01*
X6320000Y11800000D02*
X6496600D01*
X6500600Y11804000D01*
X6670000Y11677000D02*
X7059400D01*
X6670000Y11550000D02*
X7059400D01*
X5214839Y10820000D02*
X5352420D01*
X3660000Y10270000D02*
X3756000Y10366000D01*
X3660000Y9810000D02*
Y10270000D01*
X2870000Y10890000D02*
X3010000Y11030000D01*
X2870000Y10150000D02*
Y10890000D01*
Y10150000D02*
X3030000Y9990000D01*
X2995000Y9745000D02*
X3030000Y9780000D01*
X3952259Y10239000D02*
X4358999D01*
X3952259Y10747000D02*
X4027000D01*
X3952259Y10874000D02*
X4063999D01*
X3347739Y10239000D02*
X3413000D01*
X3952259Y10366000D02*
X4264001D01*
X3413000Y10493000D02*
X3479999Y10426000D01*
X4220000Y11030000D02*
X4290000D01*
X4063999Y10874000D02*
X4220000Y11030000D01*
X4400000Y10280000D02*
Y10740000D01*
X4290000Y10850000D02*
X4400000Y10740000D01*
X3010000Y11030000D02*
X3166001Y10874000D01*
X3347739D01*
X3010000Y10850000D02*
Y10940000D01*
X4358999Y10239000D02*
X4400000Y10280000D01*
X4264001Y10366000D02*
X4290000Y10340000D01*
Y10430000D02*
Y10520001D01*
X3819999Y11010000D02*
X3943259D01*
X3886999Y11001000D02*
X3952259D01*
X3886999Y10620000D02*
X3952259D01*
X3829999Y10931000D02*
X3886999Y10874000D01*
X3943259Y11010000D02*
X3952259Y11001000D01*
X4589999Y10820000D02*
X4727580D01*
X4589999Y10560000D02*
X4727580D01*
X7389983Y8579983D02*
X7389986D01*
X7270000Y8700000D02*
X7310000Y8660000D01*
X7389986Y8339986D02*
X7430000Y8380000D01*
X7110000Y8460000D02*
Y8460000D01*
X7310000Y9140000D02*
X7350000Y9100000D01*
X6910000Y9060000D02*
X6950000Y9100000D01*
X6950000Y8537500D02*
Y8540000D01*
X7350000Y9260000D02*
Y9260000D01*
X7629999Y8980000D02*
X7630000D01*
X7110000Y8620000D02*
X7150000Y8580000D01*
X7510000Y8460000D02*
X7550000Y8420000D01*
X7670000Y8380000D02*
X7710000Y8340000D01*
X7350000Y8460000D02*
X7390000Y8420000D01*
X7350000Y9420000D02*
X7389982Y9459981D01*
X7589963Y9260000D02*
X7590000D01*
X7430000Y8860000D02*
X7470000Y8820000D01*
X6710000Y8780000D02*
X6710000D01*
X7069987Y8259987D02*
X7110000Y8300000D01*
X7750000Y9420000D02*
X7789982Y9459981D01*
X4589999Y10625000D02*
X4727580D01*
X3056000Y8930000D02*
X3195000Y9069000D01*
X4063100Y7060000D02*
X4086000Y7037100D01*
X4750000Y6930000D02*
Y7140000D01*
X4620000Y7270000D02*
X4750000Y7140000D01*
X4410000Y7270000D02*
X4620000D01*
X4340000Y7340000D02*
X4410000Y7270000D01*
X4340000Y7340000D02*
Y7722900D01*
X3056000Y8676000D02*
X3195000Y8815000D01*
X3056000Y8168000D02*
X3195000Y8307000D01*
X5110000Y7060000D02*
X5150000Y7100000D01*
X3193000Y8053000D02*
X3592900D01*
X3195000Y9069000D02*
X3592900D01*
X3195000Y8307000D02*
X3592900D01*
X3195000Y8815000D02*
X3592900D01*
X5525000Y10755000D02*
X5620000Y10850000D01*
Y10670000D02*
X5640000Y10650000D01*
X6080000D01*
X6150000Y10720000D01*
X6590001Y8500000D02*
X6630000Y8540000D01*
X6550000Y8180000D02*
Y8220000D01*
X6530000Y8160000D02*
X6550000Y8180000D01*
X4430000Y8820000D02*
X4512500Y8902500D01*
X4390000Y8820000D02*
X4430000D01*
X4460000Y8640000D02*
X4527499Y8707499D01*
X4390000Y8640000D02*
X4460000D01*
X4390000Y8700000D02*
X4450000D01*
X4522499Y8772500D01*
X4390000Y8760000D02*
X4440000D01*
X4517500Y8837500D01*
X2897580Y9745000D02*
X2995000D01*
X3522420Y9745000D02*
X3595000D01*
X2960000Y8930000D02*
X3056000D01*
X2880000D02*
Y9030000D01*
X2960000Y8676000D02*
X3056000D01*
X2960000Y8168000D02*
X3056000D01*
X2880000Y7914000D02*
Y8034000D01*
Y8168000D02*
Y8288000D01*
Y8676000D02*
Y8796000D01*
X4340000Y7037100D02*
X4460000Y6917100D01*
X5159000Y8589000D02*
X5257740D01*
X5110000Y8540000D02*
X5159000Y8589000D01*
X5030000Y8540000D02*
X5110000D01*
X4940000Y8450000D02*
X5030000Y8540000D01*
X4850000D02*
X4940000D01*
X4520000Y9340000D02*
X4567499Y9292501D01*
X4390000Y9340000D02*
X4520000D01*
X4520000Y9270000D02*
X4562500Y9227500D01*
X4207500Y8902500D02*
X4330000Y8780000D01*
Y8519706D02*
Y8780000D01*
X4172500Y8772500D02*
X4210000Y8734999D01*
X4192500Y8837500D02*
X4270000Y8760000D01*
X4330000Y9320000D02*
X4380000Y9270000D01*
X4520000D01*
X4330000Y9320000D02*
Y9490000D01*
X4460000Y9620000D01*
X4500000D01*
X6180000Y9320000D02*
Y9410000D01*
X5721000Y8589000D02*
X5862260D01*
X5640000Y8880000D02*
X5804000Y8716000D01*
X5862260D01*
X4480000Y8090000D02*
X4570000D01*
X4220000Y7842900D02*
Y7850000D01*
Y7842900D02*
X4340000Y7722900D01*
X6180000Y9140000D02*
Y9230000D01*
X5860000Y9860000D02*
X5950000D01*
X5860000Y9680000D02*
X5950000D01*
X5721000Y9224000D02*
X5862260D01*
X5770000Y9443261D02*
X5862260Y9351000D01*
X5770000Y9443261D02*
Y9660000D01*
X4660000Y8090000D02*
X4910000D01*
X4570000Y8240000D02*
X4660000D01*
X3810000Y8150000D02*
X4040000Y7920000D01*
X4670001D01*
X4730000Y7860001D01*
X4100000Y8090000D02*
X4190000D01*
X4390000Y8240000D02*
X4480000D01*
X5570000Y8740000D02*
Y9640000D01*
X5428740Y8760000D02*
X5550000D01*
X5721000Y8589000D01*
X4177501Y9357501D02*
X4230000Y9410000D01*
X5570000Y9640000D02*
X5770000Y9840000D01*
X4567499Y9292501D02*
X4650000D01*
X4512500Y8902500D02*
X4650000D01*
X4517500Y8837500D02*
X4650000D01*
X4090000Y9357501D02*
X4177501D01*
X4522499Y8772500D02*
X4650000D01*
X4527499Y8707499D02*
X4650000D01*
X4090000Y8902500D02*
X4207500D01*
X4090000Y8837500D02*
X4192500D01*
X4090000Y8772500D02*
X4172500D01*
X4562500Y9227500D02*
X4650000D01*
X4925999Y10205999D02*
X5590000D01*
X6486259Y10720000D02*
X6492260Y10713999D01*
X5887740Y10840999D02*
X6030000D01*
X5887740Y10078999D02*
X6030000D01*
X5887740Y10332999D02*
X6030000D01*
X6473259Y10860000D02*
X6492260Y10840999D01*
X6860000Y7190000D02*
X7182500D01*
X7180000Y7010000D02*
X7300000Y7130000D01*
X7320000D01*
X7210000Y7120000D02*
X7270000Y7180000D01*
X3195000Y8561000D02*
X3592900D01*
X3056000Y8422000D02*
X3195000Y8561000D01*
X2880000Y8422000D02*
Y8542000D01*
X2960000Y8422000D02*
X3056000D01*
X3050000Y7910000D02*
X3193000Y8053000D01*
X5652427Y7987574D02*
X6260001Y7380000D01*
X6500000D01*
X6950000Y7830000D01*
X5634853Y7945147D02*
X6235000Y7345000D01*
X6525000D01*
X6480000Y7480000D02*
X6870000Y7870000D01*
X5670000Y8030000D02*
X6220000Y7480000D01*
X6480000D01*
X7380000Y7026000D02*
Y7340000D01*
X7180000Y7560000D02*
X7260000Y7640000D01*
X7310000D01*
X7330000Y6976000D02*
X7380000Y7026000D01*
X10708000Y9775500D02*
Y9890000D01*
Y9775500D02*
X10771500Y9712000D01*
X10835000Y9775500D02*
Y9890000D01*
Y9775500D02*
X10898500Y9712000D01*
X10962000Y9775500D02*
Y9890000D01*
Y9775500D02*
X11025500Y9712000D01*
X11089000Y9775500D02*
Y9890000D01*
Y9775500D02*
X11152500Y9712000D01*
X11216000Y9775500D02*
Y9890000D01*
Y9775500D02*
X11279500Y9712000D01*
X11343000Y9775500D02*
Y9890000D01*
Y9775500D02*
X11406500Y9712000D01*
X11470000Y9775500D02*
Y9890000D01*
Y9775500D02*
X11533500Y9712000D01*
X11597000Y9775500D02*
Y9890000D01*
Y9775500D02*
X11660500Y9712000D01*
X11724000Y9775500D02*
Y9890000D01*
Y9775500D02*
X11787500Y9712000D01*
X11851000Y9775500D02*
Y9890000D01*
Y9775500D02*
X11914500Y9712000D01*
X11978000Y9775500D02*
Y9890000D01*
Y9775500D02*
X12041500Y9712000D01*
X10590000Y9030000D02*
Y9160001D01*
X10790000Y9030000D02*
Y9160001D01*
X11090000Y9030000D02*
Y9160001D01*
X10990000Y9030000D02*
Y9160001D01*
X10890000Y9030000D02*
Y9160001D01*
X11590000Y9040001D02*
Y9160001D01*
X11790000Y9030000D02*
Y9160001D01*
X11690000Y9030000D02*
Y9160001D01*
X11990000Y9030000D02*
Y9160001D01*
X11890000Y9040001D02*
Y9160001D01*
X12090000Y9030000D02*
Y9160001D01*
X10490000Y9030000D02*
Y9160001D01*
X10835000Y9350000D02*
Y9530000D01*
X11216000Y9350000D02*
Y9530000D01*
X11343000Y9350000D02*
Y9530000D01*
X11089000Y9350000D02*
Y9530000D01*
X10962000Y9350000D02*
Y9530000D01*
X11724000Y9350000D02*
Y9530000D01*
X11851000Y9350000D02*
Y9530000D01*
X11597000Y9350000D02*
Y9530000D01*
X12105000Y9350000D02*
Y9530000D01*
X11978000Y9350000D02*
Y9530000D01*
X10073000Y9350000D02*
Y9530000D01*
X9946000Y9350000D02*
Y9530000D01*
X10200000Y9350000D02*
Y9530000D01*
X12105000Y9630500D02*
Y9890000D01*
X10771500Y9572000D02*
Y9712000D01*
X10898500Y9572000D02*
Y9712000D01*
X11025500Y9572000D02*
Y9712000D01*
X11152500Y9572000D02*
Y9712000D01*
X11279500Y9572000D02*
Y9712000D01*
X11406500Y9572000D02*
Y9712000D01*
X11533500Y9572000D02*
Y9712000D01*
X11660500Y9572000D02*
Y9712000D01*
X12041500Y9572000D02*
Y9712000D01*
X10136500Y9572000D02*
Y9712000D01*
X10073000Y9775500D02*
Y9890000D01*
Y9775500D02*
X10136500Y9712000D01*
X10009500Y9572000D02*
Y9712000D01*
X9946000Y9775500D02*
Y9890000D01*
Y9775500D02*
X10009500Y9712000D01*
X11470000Y9350000D02*
Y9530000D01*
X12105000Y9630500D02*
X12163500Y9572000D01*
X7709982Y9219982D02*
X7709986D01*
X7590000Y9420000D02*
X7629981Y9459981D01*
X7270000Y9260000D02*
X7310000Y9300000D01*
X10690000Y9030000D02*
Y9160001D01*
X7350000Y9580000D02*
Y9630000D01*
X7350001Y9630001D01*
X7630000Y9380000D02*
X7670000Y9340000D01*
X7470014Y9379981D02*
X7470019D01*
X7390014D02*
X7390019D01*
X7550014D02*
X7550019D01*
X7590000Y9340000D01*
X7310014Y9379981D02*
X7310019D01*
X7350000Y9340000D01*
X7470019Y9379981D02*
X7510000Y9340000D01*
X7710014Y9379981D02*
X7710019D01*
X7750000Y9340000D01*
X7390019Y9379981D02*
X7430000Y9340000D01*
X7230019Y9379981D02*
X7270000Y9340000D01*
X6800000Y10640000D02*
X6830000Y10610000D01*
X6800000Y10640000D02*
Y10670000D01*
X6830000Y10610000D02*
X6940000D01*
X8860000D02*
X8970000D01*
X7310001Y9620000D02*
X7310001Y9779999D01*
X6840000Y10360000D02*
X6940000D01*
Y10210000D02*
X6940020Y10209980D01*
X7350001Y9630001D02*
X7350001Y10242499D01*
X7430000Y9580000D02*
X7430001Y10832499D01*
X6990000Y10810000D02*
X7249965D01*
X6939979Y10860020D02*
X6940000D01*
X6990000D02*
X7119980Y10860020D01*
X6830000Y9950000D02*
X7140000Y9950000D01*
X7310001Y9779999D01*
X6810000Y10330000D02*
X6840000Y10360000D01*
X8840000Y10360000D02*
X8970000Y10360000D01*
X8840000Y10810000D02*
X8970000Y10810000D01*
X6940000Y10560000D02*
X7050000D01*
X8870000Y10310000D02*
X8970000Y10310000D01*
X8840000Y10280000D02*
X8870000Y10310000D01*
X6940000Y9890000D02*
X7070001Y9760000D01*
X7010000Y9890000D02*
X7170000Y9730000D01*
X8840000Y10440000D02*
X8870000Y10410000D01*
X8970000Y10410000D01*
X6940000Y10260000D02*
X7077500Y10260000D01*
X6940020Y10209980D02*
X7189985D01*
X7510000Y9580000D02*
X7510000Y9890000D01*
X11840000Y8680000D02*
Y9030000D01*
X11740000Y8680000D02*
Y9030000D01*
X11640000Y8680000D02*
Y9030000D01*
X11390000D02*
Y9160001D01*
X11490000Y9040001D02*
Y9160001D01*
X11540000Y8680000D02*
Y9030000D01*
X11290000Y9030001D02*
Y9160001D01*
X11190000Y9030000D02*
Y9160001D01*
X11240000Y8680000D02*
Y9020000D01*
X11340000Y8680000D02*
Y9020000D01*
X6180000Y8940000D02*
Y9030000D01*
X8100000Y9500000D02*
X8150000Y9550000D01*
Y9620000D01*
X8050000Y9460000D02*
X8150000D01*
X5862260Y9097000D02*
X5997000D01*
X6130000Y9230000D01*
X6180000D01*
X7509999Y9890001D02*
X8420000Y10800000D01*
X7390000Y8980000D02*
X7430000Y9020000D01*
X6025000Y8745000D02*
X6140000Y8860000D01*
X6150000Y8850000D02*
X6180000D01*
X12930000Y8520000D02*
X13200000D01*
X10290000Y8680000D02*
Y9030000D01*
X10190000Y8590000D02*
Y9030000D01*
X12930000Y7510000D02*
X13200000D01*
X13289999Y8520000D02*
X13560001D01*
X13300000Y7510000D02*
X13570000D01*
X10150000Y9160000D02*
X10190000Y9120000D01*
Y9030000D02*
Y9120000D01*
X7450000Y7120000D02*
X7500000Y7070000D01*
X7450000Y7120000D02*
Y7150000D01*
X9497500Y11505000D02*
X9587500D01*
X6450000Y7530000D02*
X6470000D01*
X6450000Y7430000D02*
X6490000D01*
X10340000Y8560000D02*
Y9030000D01*
X6490000Y9520000D02*
X6550000Y9580000D01*
X6669988Y8979982D02*
X6709988Y9019982D01*
X6550000Y8620000D02*
X6590000Y8659999D01*
X6630000Y8700000D02*
X6670000Y8660000D01*
X6670001Y8740000D02*
X6710000Y8700000D01*
X6590000Y9625000D02*
Y9717500D01*
X11787500Y9572000D02*
Y9712000D01*
X11914500Y9622000D02*
Y9712000D01*
X3595000Y9745000D02*
X3660000Y9810000D01*
X3030000Y9780000D02*
Y9990000D01*
X4027000Y10747000D02*
X4220000Y10940000D01*
X4290000D01*
X3819999Y10931000D02*
X3829999D01*
X3347739Y10239000D02*
X3356739Y10230000D01*
X3479999D01*
X3404840Y9810000D02*
X3522420D01*
X3356739Y11010000D02*
X3479999D01*
X12860001Y8270000D02*
X12907100D01*
X13130000D01*
X5790000Y8190000D02*
Y8480000D01*
X5730000Y8540000D02*
X5790000Y8480000D01*
X4910000Y8090000D02*
X5120000Y7880000D01*
X5230000D01*
X4610000Y7060000D02*
X4690000D01*
X4620000Y7660000D02*
X4700000D01*
X6749988Y8339987D02*
X6790000Y8380000D01*
X7070001Y8340000D02*
X7110000Y8380000D01*
X9167982Y8175480D02*
X9207961Y8135502D01*
X8808002Y8295541D02*
X8847981Y8335520D01*
X9156562Y7855520D02*
X9167982D01*
X8808002Y8375542D02*
X8847981Y8415520D01*
X5910000Y8460000D02*
X6110000D01*
X6160000Y8410000D01*
X9118003Y7895541D02*
X9157982Y7935520D01*
X7750000Y8700000D02*
X7790000Y8660000D01*
X6750000Y9380000D02*
X6790000Y9340000D01*
X6670000Y9380000D02*
X6710000Y9340000D01*
X6830000Y9140000D02*
X6870000Y9100000D01*
X6749988Y9299981D02*
X6750019D01*
X6750000Y9220000D02*
X6790000Y9180000D01*
X6910000Y9220000D02*
X6910000D01*
X6830000Y9220000D02*
X6870000Y9260000D01*
X7030000Y9020000D02*
X7070000Y9060000D01*
X7110000Y9020000D01*
X7030000Y9100000D02*
X7070000Y9140000D01*
X6510000Y9220000D02*
X6550000Y9180000D01*
X6590000Y9220000D02*
X6630000Y9180000D01*
X6910000Y9540000D02*
X6950000Y9500000D01*
X7030000Y9660000D02*
Y9730000D01*
X6870000Y9890000D02*
X7030000Y9730000D01*
X7110000Y9580000D02*
X7125000Y9595000D01*
X6950000Y9580000D02*
X6990000Y9620000D01*
X7150000Y9540000D02*
X7190000Y9500000D01*
X7170000Y9600000D02*
X7190000Y9580000D01*
X7170000Y9600000D02*
Y9730000D01*
X7070001Y9680000D02*
Y9760000D01*
X6990000Y9540000D02*
X7030000Y9500000D01*
X7150000Y9460000D02*
X7190000Y9420000D01*
X7070000Y9460000D02*
X7110000Y9420000D01*
X6990000Y9460000D02*
X7030000Y9420000D01*
X7150000Y9380000D02*
X7190000Y9340000D01*
X7069987Y9379981D02*
Y9379987D01*
X6989987Y9379981D02*
X6990019D01*
X6522500Y9785000D02*
X6590000Y9717500D01*
X10005758Y10280000D02*
X10102500D01*
X10004488Y10281270D02*
X10005758Y10280000D01*
X9721230Y10281270D02*
X9826688D01*
X8150000Y9460000D02*
X8217500Y9527500D01*
X8220000D01*
X9483300Y10292500D02*
X9545000D01*
X9290000D02*
X9381700D01*
X9290000Y10292500D02*
X9290000Y10292500D01*
X9328021Y8815521D02*
X9368000Y8855500D01*
X8728002Y9095500D02*
X8767981Y9055521D01*
X9328021Y8895521D02*
X9368000Y8935500D01*
X8190000Y9420000D02*
X8280000Y9510000D01*
X8322500D01*
X7760000Y9710000D02*
X7950000D01*
X9677000Y8310000D02*
Y8401000D01*
X7569200Y7642500D02*
Y7709200D01*
X7570000Y7710000D01*
X7602500Y7772500D02*
Y8025000D01*
X7830000Y8080000D02*
X7831371Y8081371D01*
X7837499Y7937499D02*
X8290000Y7485000D01*
X7740000Y7760000D02*
Y7825000D01*
X8285000Y7215000D02*
X8495000D01*
X7670000Y9580000D02*
X7690000Y9600000D01*
Y9640000D01*
X7760000Y9710000D01*
X8118300Y7482500D02*
Y7564200D01*
X8342500Y7347500D02*
X8424200D01*
X9107521Y8555019D02*
X9108002D01*
X9167500Y8495520D01*
X8727963Y7815541D02*
X8767942Y7855520D01*
X9098003Y7796961D02*
X9156562Y7855520D01*
X3045000Y10555000D02*
Y10575000D01*
X3120000Y10650000D01*
X3461500Y10366000D02*
X3492500Y10335000D01*
X3347739Y10366000D02*
X3461500D01*
X3045000D02*
X3347739D01*
X7340000Y7340000D02*
Y7484000D01*
X7027500Y8537500D02*
Y8542500D01*
X6958399Y7590000D02*
X7063399Y7695000D01*
X6900000Y7650000D02*
X7061309Y7811309D01*
X7180000Y6976000D02*
Y7010000D01*
Y7484000D02*
Y7560000D01*
D49*
X7630000Y9605000D02*
X7650370Y9625370D01*
X8727999Y8615539D02*
Y8695508D01*
X2860000Y9050000D02*
X2880000Y9030000D01*
X6480000Y8200000D02*
Y8310000D01*
X8652500Y8857500D02*
X8806002D01*
X8847981Y8815521D01*
X7870000Y8660000D02*
X7940000D01*
X6500000Y8980000D02*
X6590001D01*
X7670000Y8780000D02*
X7670000D01*
X9247982Y8255481D02*
X9287961Y8215502D01*
X7670000Y8300000D02*
X7710000Y8260000D01*
X7670000Y8140000D02*
X7740000Y8070000D01*
X7670000Y8140000D02*
Y8220000D01*
X7710000Y8160000D02*
Y8260000D01*
X7590000Y9500000D02*
X7630000Y9540000D01*
X7830000Y8620000D02*
X7870000Y8660000D01*
X8687981Y8575521D02*
X8727999Y8615539D01*
X8687981Y8815478D02*
Y8815521D01*
X7910000Y8540000D02*
X7910058Y8540057D01*
X6669988Y8979982D02*
Y8979987D01*
X6630000Y8300000D02*
X6670000Y8260000D01*
X6950000Y8300000D02*
X6990000Y8260000D01*
X7664246Y8620000D02*
X7670000D01*
X7510000Y9420000D02*
X7550000Y9459999D01*
X6590001D02*
X6630000Y9420000D01*
X6750000Y8899999D02*
X6790000Y8860000D01*
X6670000Y8820000D02*
X6710000Y8780000D01*
X6670000Y8175000D02*
Y8260000D01*
X6630000Y9500000D02*
X6670000Y9539999D01*
X6590001Y9459999D02*
Y9625000D01*
X6670000Y9539999D02*
Y9625000D01*
X6500000Y8580000D02*
X6590001D01*
X6990000Y8175000D02*
Y8260000D01*
X6870000Y8300000D02*
X6910000Y8260000D01*
Y8175000D02*
Y8260000D01*
X6710000Y8300000D02*
X6750000Y8260000D01*
Y8175000D02*
Y8260000D01*
X6550000Y8300000D02*
X6590000Y8260000D01*
Y8175000D02*
Y8260000D01*
X6590001Y8980000D02*
X6630000Y9020000D01*
X6590001Y8580000D02*
X6630000Y8620000D01*
X6670000Y8820000D02*
Y8900000D01*
X6480000Y8310000D02*
X6550000Y8380000D01*
X7390000Y9539999D02*
X7430000Y9500000D01*
X7390000Y9539999D02*
Y9620000D01*
X7550000Y9459999D02*
Y9620000D01*
X7310001Y9539999D02*
X7350000Y9500000D01*
X7310001Y9539999D02*
Y9620000D01*
X7470001Y9539999D02*
Y9620000D01*
Y9539999D02*
X7510000Y9500000D01*
X7870000Y9380000D02*
X7950000D01*
X7830000Y9340000D02*
X7870000Y9380000D01*
X7510000Y8220000D02*
X7602500Y8127500D01*
Y8025000D02*
Y8127500D01*
X7910000Y9420000D02*
X7960000D01*
X8040000Y9500000D01*
X8100000D01*
X6670000Y9625000D02*
Y9670000D01*
X6510000Y9060000D02*
X6550000Y9020000D01*
X7030000Y9580000D02*
Y9660000D01*
X6910000Y9540000D02*
Y9630000D01*
X7070001Y9539999D02*
X7110000Y9500000D01*
X7070001Y9539999D02*
Y9680000D01*
X7750000Y8220000D02*
X7792500Y8177500D01*
X7710000Y8160000D02*
X7767500Y8102500D01*
X7942500Y7920000D02*
X7945000Y7917500D01*
X7910000Y8148500D02*
X7911400Y8147100D01*
X7740000Y7825000D02*
Y8070000D01*
X7792500Y8037500D02*
Y8177500D01*
X7630000Y9540000D02*
Y9605000D01*
X7792500Y8037500D02*
X7815381Y8014619D01*
X7767500Y8005000D02*
Y8102500D01*
Y8005000D02*
X7836250Y7936250D01*
D50*
X7939500Y8899500D02*
X8015000D01*
X7910000Y9107500D02*
X8185000D01*
X8137529Y8852471D02*
X8157500Y8832500D01*
X8600000Y7927500D02*
Y8047500D01*
X8495000Y8152500D02*
X8600000Y8047500D01*
X8495000Y8152500D02*
Y8237500D01*
X8582500Y7910000D02*
X8600000Y7927500D01*
X8457500Y8070000D02*
X8532500Y7995000D01*
Y7927500D02*
Y7995000D01*
Y7927500D02*
X8550000Y7910000D01*
X7948441Y9220015D02*
X8032239Y9219813D01*
X8537500Y9350000D02*
Y9404999D01*
X8502500Y9315000D02*
X8537500Y9350000D01*
X8148015Y9315000D02*
X8502500D01*
X8537500Y9404999D02*
X8557500Y9424999D01*
X8585000D01*
X8932500Y8745000D02*
Y8797500D01*
X8882500Y8695000D02*
X8932500Y8745000D01*
X8807460Y8695000D02*
X8882500D01*
X8597500Y9005000D02*
Y9087500D01*
X8560000Y8967500D02*
X8597500Y9005000D01*
X8427500Y8967500D02*
X8560000D01*
X8565000Y9120000D02*
X8597500Y9087500D01*
X8412500Y9120000D02*
X8565000D01*
X8367500Y9027500D02*
X8427500Y8967500D01*
X8252500Y9027500D02*
X8367500D01*
X8732500Y9157500D02*
X8772500D01*
X8712500Y9177500D02*
X8732500Y9157500D01*
X8712500Y9177500D02*
Y9252500D01*
X8807500Y9096002D02*
X8847981Y9055521D01*
X8807500Y9096002D02*
Y9122500D01*
X8284404Y9260596D02*
X8322500Y9222500D01*
Y9170000D02*
Y9222500D01*
X8374999Y9157501D02*
X8412500Y9120000D01*
X8197500Y8972500D02*
X8252500Y9027500D01*
X8550000Y8927500D02*
X8582500D01*
X8525000Y8902500D02*
X8550000Y8927500D01*
X8525000Y8842500D02*
Y8902500D01*
X8582500Y8927500D02*
X8652500Y8857500D01*
X8659200Y7747500D02*
X8724400Y7812700D01*
X8465000Y8422500D02*
X8495000Y8392500D01*
Y8342500D02*
Y8392500D01*
X8422500Y8270000D02*
X8495000Y8342500D01*
X8327500Y8422500D02*
X8465000D01*
X8457500Y8255000D02*
X8515000Y8312500D01*
X8457500Y8070000D02*
Y8255000D01*
X8422500Y8205000D02*
Y8270000D01*
X8377500Y8160000D02*
X8422500Y8205000D01*
X8515000Y8312500D02*
X8590000D01*
X8377500Y8045000D02*
Y8160000D01*
Y8045000D02*
X8410000Y8012500D01*
X8570000Y8267500D02*
X8622290Y8215210D01*
X8525000Y8267500D02*
X8570000D01*
X8495000Y8237500D02*
X8525000Y8267500D01*
X8550000Y7910000D02*
X8582500D01*
X8590000Y8312500D02*
X8637500Y8360000D01*
Y8397500D01*
X8610000Y8425000D02*
X8637500Y8397500D01*
X8572500Y8425000D02*
X8610000D01*
X8545000Y8452500D02*
X8572500Y8425000D01*
X8545000Y8452500D02*
Y8480000D01*
X8512500Y8512500D02*
X8545000Y8480000D01*
X8477500Y8512500D02*
X8512500D01*
X8447500Y8542500D02*
X8477500Y8512500D01*
X8447500Y8542500D02*
Y8580000D01*
X8425000Y8602500D02*
X8447500Y8580000D01*
X8382500Y8602500D02*
X8425000D01*
X8354100Y8574100D02*
X8382500Y8602500D01*
X8315900Y8574100D02*
X8354100D01*
X8287500Y8602500D02*
X8315900Y8574100D01*
X8287500Y8602500D02*
Y8650000D01*
X8345000Y8465000D02*
X8477500D01*
X8252500Y8557500D02*
X8345000Y8465000D01*
X8252500Y8557500D02*
Y8639497D01*
X8215000Y8722500D02*
X8287500Y8650000D01*
X8212500Y8537500D02*
X8327500Y8422500D01*
X8212500Y8537500D02*
Y8635000D01*
X8111925Y8780072D02*
X8252500Y8639497D01*
X8550736Y8366661D02*
Y8391765D01*
X8477500Y8465000D02*
X8550736Y8391765D01*
X8107874Y8739626D02*
X8212500Y8635000D01*
X8093600Y8493715D02*
X8220000Y8367314D01*
Y7942500D02*
Y8367314D01*
Y7942500D02*
X8250000Y7912500D01*
X8372988Y8226961D02*
Y8292012D01*
X8285000Y8290000D02*
X8310000Y8315000D01*
X8350000D01*
X8372988Y8292012D01*
X8333339Y8366661D02*
X8449208D01*
X8167500Y8532500D02*
X8333339Y8366661D01*
X8167500Y8532500D02*
Y8605000D01*
X8072438Y8700062D02*
X8167500Y8605000D01*
X7910016Y8700062D02*
X8072438D01*
X8130000Y8515000D02*
Y8572500D01*
X8082448Y8620052D02*
X8130000Y8572500D01*
Y8515000D02*
X8252500Y8392500D01*
X8342500Y7997500D02*
Y8125000D01*
X8285000Y8182500D02*
X8342500Y8125000D01*
X8285000Y8182500D02*
Y8290000D01*
X8052500Y8242500D02*
X8077500Y8217500D01*
Y8175100D02*
Y8217500D01*
X8320000Y7860000D02*
Y7892500D01*
X8300000Y7912500D02*
X8320000Y7892500D01*
X8357500Y7842500D02*
X8372500Y7857500D01*
X8337500Y7842500D02*
X8357500D01*
X8320000Y7860000D02*
X8337500Y7842500D01*
X8934524Y8455476D02*
X8957500Y8432500D01*
Y8400000D02*
Y8432500D01*
X8920000Y8362500D02*
X8957500Y8400000D01*
X8657024Y8455476D02*
X8934524D01*
X8920000Y8335000D02*
Y8362500D01*
X8772500Y9157500D02*
X8807500Y9122500D01*
X8374999Y9157501D02*
Y9257500D01*
X8394999Y9277500D01*
X8422499D01*
X8110000Y8972500D02*
X8197500D01*
X8090000Y8992500D02*
X8110000Y8972500D01*
X8185000Y9040000D02*
X8205000Y9060000D01*
X8185000Y9107500D02*
X8205000Y9087500D01*
Y9060000D02*
Y9087500D01*
X8246960Y9095540D02*
X8271375D01*
X8202485Y9140015D02*
X8246960Y9095540D01*
X7948441Y9140015D02*
X8202485D01*
X8110000Y9040000D02*
X8185000D01*
X8090000Y9020000D02*
X8110000Y9040000D01*
X8090000Y8992500D02*
Y9020000D01*
X8422499Y9277500D02*
X8442499Y9257500D01*
X8297500Y9145000D02*
X8322500Y9170000D01*
X8242307Y9145000D02*
X8297500D01*
X8207302Y9180005D02*
X8242307Y9145000D01*
X8489999Y9162501D02*
X8509999Y9182501D01*
X8442499D02*
Y9257500D01*
Y9182501D02*
X8462499Y9162501D01*
X8489999D01*
X8509999Y9182501D02*
Y9252500D01*
X8557500Y9272500D02*
X8577499Y9252500D01*
X8509999D02*
X8529999Y9272500D01*
X8557500D01*
X8625000Y9157500D02*
X8645000Y9177500D01*
X8577499D02*
Y9252500D01*
Y9177500D02*
X8597499Y9157500D01*
X8625000D01*
X8665000Y9272500D02*
X8692500D01*
X8645000Y9252500D02*
X8665000Y9272500D01*
X8645000Y9177500D02*
Y9252500D01*
X8692500Y9272500D02*
X8712500Y9252500D01*
X8127725Y9219100D02*
X8244335D01*
X8271365Y9192069D01*
X8099325Y9247500D02*
X8127725Y9219100D01*
X8060060Y9247500D02*
X8099325D01*
X8032239Y9219813D02*
X8060060Y9247500D01*
X7940000Y8580151D02*
X8070664D01*
X7940000Y8739626D02*
X8107874D01*
X8070664Y8580151D02*
X8093600Y8557215D01*
X7940000Y8660000D02*
X8042800D01*
X8767981Y8575521D02*
X8808291Y8535211D01*
X7910058Y8540057D02*
X8042726D01*
X8373000Y7857500D02*
Y7970500D01*
X7910035Y8939946D02*
X8235181D01*
X7670000Y9020000D02*
X7710001Y9060000D01*
X7910020Y9180005D02*
X8207302D01*
X8767981Y8655521D02*
X8807460Y8695000D01*
X8131711Y9273296D02*
Y9298696D01*
Y9273296D02*
X8144411Y9260596D01*
X8727671Y8215210D02*
X8767981Y8255520D01*
X8093600Y8493715D02*
Y8557215D01*
X7910010Y8939971D02*
X7910035Y8939946D01*
X8235181D02*
X8271401Y8976166D01*
X8807976Y8935526D02*
X8808002Y8935500D01*
X8847981Y8895521D01*
X8892500Y8837500D02*
Y9090000D01*
Y8837500D02*
X8932500Y8797500D01*
X8808291Y8535211D02*
X8922711D01*
X8847981Y8495520D02*
X8933020D01*
X9082500Y8645000D01*
X8922711Y8535211D02*
X9052500Y8665000D01*
Y9081817D01*
X8131711Y9298696D02*
X8148015Y9315000D01*
X8144411Y9260596D02*
X8284404D01*
X8605000Y9329999D02*
Y9404999D01*
X8585000Y9424999D02*
X8605000Y9404999D01*
X8652501Y9309999D02*
X8672501Y9329999D01*
X8605000D02*
X8625000Y9309999D01*
X8652501D01*
X8672501Y9329999D02*
Y9365001D01*
X8697500Y9390000D01*
X8750000D01*
X8767500Y9372500D01*
Y9215000D02*
Y9372500D01*
Y9215000D02*
X8892500Y9090000D01*
X8959712Y9174605D02*
X9052500Y9081817D01*
X9122262Y8634762D02*
Y8797262D01*
X8286199Y7604661D02*
Y7698801D01*
X8250000Y7912500D02*
X8300000D01*
X7925361Y8820086D02*
X8117414D01*
X8502500Y8572500D02*
X8530000D01*
X8545000Y8587500D01*
Y8672500D01*
X8565000Y8692500D01*
X8592500D01*
X8610000Y8675000D01*
Y8602500D02*
Y8675000D01*
X8552500Y8520000D02*
Y8545000D01*
X8612500Y8500000D02*
X8657024Y8455476D01*
X8552500Y8520000D02*
X8572500Y8500000D01*
X8612500D01*
X8552500Y8545000D02*
X8610000Y8602500D01*
X8485000Y8590000D02*
X8502500Y8572500D01*
X8485000Y8590000D02*
Y8622500D01*
X8622290Y8215210D02*
X8727671D01*
X8117414Y8820086D02*
X8137500Y8800000D01*
X8187500D01*
X8215000Y8722500D02*
Y8772500D01*
X8187500Y8800000D02*
X8215000Y8772500D01*
X8252500Y7997500D02*
X8277500Y7972500D01*
X8317500D01*
X8342500Y7997500D01*
X8252500Y7997500D02*
Y8392500D01*
X8410000Y8012500D02*
X8457500D01*
X8495000Y7975000D01*
Y7922500D02*
Y7975000D01*
X9082500Y8645000D02*
Y9152500D01*
X8888100Y9245400D02*
X8989600D01*
X9082500Y9152500D01*
X7935000Y8419517D02*
X7975483D01*
X8110000Y8285000D01*
Y8145000D02*
Y8285000D01*
X7995000Y8276761D02*
Y8294920D01*
Y8276761D02*
X8029261Y8242500D01*
X8052500D01*
X7988750Y8221250D02*
Y8238750D01*
Y8221250D02*
X8016200Y8193800D01*
X8032900D01*
X8035000Y8070000D02*
X8110000Y8145000D01*
X8032700Y8130300D02*
X8077500Y8175100D01*
X7956199Y8028801D02*
X8286199Y7698801D01*
X7956199Y8028801D02*
Y8230000D01*
X7870000Y8056800D02*
Y8187500D01*
X9060000Y8572500D02*
X9122262Y8634762D01*
X9060000Y8505000D02*
Y8572500D01*
X8937500Y8317500D02*
X8985000D01*
X9035000Y8367500D01*
X9015000Y8430000D02*
Y8460000D01*
X9060000Y8505000D01*
X9122262Y8797262D02*
X9140521Y8815521D01*
X9167982D01*
X9035000Y8367500D02*
Y8410000D01*
Y8410000D01*
X9015000Y8430000D02*
X9035000Y8410000D01*
X8920000Y8335000D02*
X8937500Y8317500D01*
X8462500Y8645000D02*
X8485000Y8622500D01*
X8342500Y8645000D02*
X8462500D01*
X8250000Y8737500D02*
X8342500Y8645000D01*
X8250000Y8737500D02*
Y8765000D01*
X8285000Y8800000D01*
X8157500Y8832500D02*
X8187500D01*
X8222500Y8867500D01*
X8265000D01*
X8285000Y8847500D01*
Y8800000D02*
Y8847500D01*
X7909970Y8852471D02*
X8137529D01*
X8475000Y7747500D02*
X8659200D01*
X8432500Y7790000D02*
X8475000Y7747500D01*
X8432500Y7790000D02*
Y7860000D01*
X8495000Y7922500D01*
X7669968Y8540000D02*
X7709969Y8500000D01*
X7909909Y8380011D02*
X7995000Y8294920D01*
X7669968Y8460000D02*
X7709969Y8420000D01*
X7870000Y8056800D02*
X8196314Y7730486D01*
X7909997Y8620052D02*
X8082448D01*
X7670000Y8940032D02*
X7710001Y8980032D01*
X7750001Y8940032D02*
X7790001Y8980032D01*
X7909944Y8780072D02*
X8111925D01*
D51*
X7869500Y8899500D02*
X7939500D01*
X7830000Y8860000D02*
X7869500Y8899500D01*
X7830000Y9180000D02*
X7870015Y9220015D01*
X7948441D01*
X7870029Y8580151D02*
X7940000D01*
X7829999Y8540120D02*
X7870029Y8580151D01*
X7870015Y9140015D02*
X7948441D01*
X7869700Y8187800D02*
Y8236424D01*
Y8187800D02*
X7870000Y8187500D01*
X7830000Y8276124D02*
X7869700Y8236424D01*
X7830000Y8276124D02*
Y8300000D01*
X7790485Y8419517D02*
X7935000D01*
X7869626Y8739626D02*
X7940000D01*
X7870086Y8820086D02*
X7925361D01*
X7830000Y8780000D02*
X7870086Y8820086D01*
X7830000Y8700000D02*
X7869626Y8739626D01*
X7869899Y8979899D02*
X8042765D01*
X7830000Y8940000D02*
X7869899Y8979899D01*
X7830000Y9100000D02*
X7870015Y9140015D01*
X7869498Y8284238D02*
X7893374Y8260362D01*
X7910000Y8300000D02*
X7927500D01*
X7988750Y8238750D01*
X7869498Y8284238D02*
Y8340372D01*
X7893374Y8260362D02*
X7925836D01*
X7956199Y8230000D01*
X7749950Y8460051D02*
X7790485Y8419517D01*
X7829797Y8380073D02*
X7869498Y8340372D01*
D52*
X3070000Y9510000D02*
X3130000D01*
X3040000Y9540000D02*
X3070000Y9510000D01*
X6330000Y11430000D02*
X6337000Y11423000D01*
X6500600D01*
X6070000Y10459999D02*
X6431520D01*
X5730001D02*
X5827000D01*
X3347740Y10747000D02*
X3509999D01*
X3790000Y10493000D02*
X3952259D01*
X3413000Y10620000D02*
X3509999D01*
X3790000D02*
X3886999D01*
X6710000Y11790000D02*
X6724000Y11804000D01*
X7059400D01*
X3010000Y9490000D02*
X3040000D01*
D53*
X10640000Y10340000D02*
Y10540000D01*
X13500000Y11090000D02*
X13689999D01*
X9700000Y10950000D02*
X9820000D01*
X12920000Y11250000D02*
X12960001D01*
X13410001Y10490000D02*
Y10630000D01*
X12900000Y11050000D02*
X12920000Y11070000D01*
X12740000Y11050000D02*
X12900000D01*
X13680000Y11290000D02*
Y11430000D01*
X12960001Y11250000D02*
X13139999Y11430000D01*
X13680000D01*
X10700000Y11690000D02*
X10830000D01*
X10830000Y10530000D02*
X10970000D01*
X10310000Y11910000D02*
Y12060000D01*
X10980000Y11270000D02*
X10980000Y11270000D01*
Y11410000D01*
X9820000Y11810000D02*
X9950000D01*
X11000000Y11080000D02*
X11130000D01*
X10500000Y11690000D02*
Y11820000D01*
X10439999Y10280000D02*
Y10400000D01*
X10310000Y11910000D02*
X10340000Y11880000D01*
X10160000Y11810000D02*
X10300000Y11670000D01*
Y10610000D02*
X10450000D01*
D54*
X10200000Y11510000D02*
X10230000Y11480000D01*
X10145000Y11510000D02*
X10200000D01*
X10140000Y11417500D02*
X10189999D01*
X10750000Y10950000D02*
X11000000Y10700000D01*
X10707500Y10950000D02*
X10750000D01*
X10309999Y11427500D02*
Y11490001D01*
X10707500Y11310000D02*
X10760000D01*
X10707500Y10910000D02*
X11167499Y10450000D01*
X10707500Y11190000D02*
X10840000D01*
X10707500Y11070000D02*
X10769999D01*
X10707500Y11350000D02*
X10797500Y11440000D01*
X10112499Y10910000D02*
X10179999D01*
X10707500Y11150000D02*
X10870000D01*
X10707500Y11030000D02*
X10779999D01*
X10589999Y10750000D02*
Y10832500D01*
X10469999Y10750000D02*
X10480000Y10740000D01*
X10390000Y10770000D02*
Y10800000D01*
X10040000Y11030000D02*
X10112499D01*
X10050000Y10990000D02*
X10112499D01*
X10634999Y11110000D02*
X10707500D01*
X10179999Y10910000D02*
X10209999Y10940000D01*
X10469999Y11360000D02*
Y11427500D01*
X10510000D02*
Y11490000D01*
X10549999Y11427500D02*
Y11500000D01*
X10580000Y11530000D01*
X10270000Y11427500D02*
Y11484801D01*
X10230000Y11427500D02*
Y11480000D01*
X10630000Y10770000D02*
Y10832500D01*
X10429999Y10770000D02*
Y10832500D01*
X10469999Y10750000D02*
Y10832500D01*
X11246000Y10450000D02*
X11754000D01*
X10589999Y11427500D02*
Y11479999D01*
X10610000Y11500000D01*
X10429999Y11427500D02*
Y11510000D01*
X10390000Y11427500D02*
Y11479999D01*
X10369999Y11500000D02*
X10390000Y11479999D01*
X10050000Y11270000D02*
X10080000D01*
X10040000Y11310000D02*
X10112499D01*
X10039999Y11260000D02*
X10050000Y11270000D01*
X10204800Y11550000D02*
X10270000Y11484801D01*
X9760000Y11260000D02*
Y11290000D01*
X10020000Y11550000D01*
X10204800D01*
X10707500Y11150000D02*
X10707500Y11150000D01*
X10870000D02*
X10880000Y11160000D01*
X10840000Y11190000D02*
X10880000Y11230000D01*
X10187500Y10830000D02*
X10189999Y10832500D01*
X11167499Y10450000D02*
X11246000D01*
Y10290000D02*
X11500000D01*
X11754000D01*
X10760000Y11310000D02*
X10850000Y11400000D01*
X10580000Y11530000D02*
Y11580000D01*
X10779999Y11030000D02*
X10949999Y10860000D01*
X11000000D01*
X10990000Y10770000D02*
X11250000D01*
X10707500Y10990000D02*
X10770000D01*
X10990000Y10770000D01*
X10029999Y11040000D02*
X10040000Y11030000D01*
X9880000Y11040000D02*
X10029999D01*
X10580000Y10740000D02*
X10589999Y10750000D01*
X10380000Y10760000D02*
X10390000Y10770000D01*
X10210000Y11590000D02*
X10309999Y11490001D01*
X9590000Y11520000D02*
X9660000Y11590000D01*
X10210000D01*
X9660000Y10470000D02*
X9780000D01*
D55*
X10130000Y10560000D02*
X10170000Y10520000D01*
X10089999Y11090000D02*
X10090000Y11089999D01*
X10110000Y10830000D02*
X10187500D01*
X10530000Y10680000D02*
Y10810000D01*
X10729999Y11250000D02*
X10800000D01*
X10860000Y11310000D01*
Y11320000D01*
X10550000Y10580000D02*
Y10660000D01*
X10490000Y10520000D02*
X10550000Y10580000D01*
X10170000Y10520000D02*
X10490000D01*
X10530000Y10680000D02*
X10550000Y10660000D01*
D56*
X13470000Y12820000D02*
X13670000Y12620000D01*
X12610000Y12640000D02*
X13010001D01*
X13575301Y11990000D02*
Y12074700D01*
X12120000Y11830000D02*
X12310000D01*
X9810000Y13420000D02*
X10380000D01*
X11990000Y13400000D02*
X12040000D01*
X12150000Y13289999D01*
X13670000Y12250000D02*
Y12620000D01*
X11600000Y12040000D02*
X12060000Y12500000D01*
X12480000Y12770000D02*
Y13039999D01*
X13265401Y12820000D02*
X13470000D01*
X12150000Y13040080D02*
X12320000Y12870081D01*
X12150000Y13040080D02*
Y13289999D01*
X12615300Y11275300D02*
X12740000Y11400000D01*
X12320000Y12850079D02*
Y12870081D01*
X13184302Y12901102D02*
X13265401Y12820000D01*
X12340000Y13180000D02*
X12480000Y13039999D01*
X12150000Y13289999D02*
X12300000Y13439999D01*
X12240000Y12560000D02*
X12290000Y12610000D01*
X12420000Y12320000D02*
X12550000Y12450000D01*
X12420000Y12010000D02*
Y12320000D01*
X12320000Y12839999D02*
Y12850079D01*
X11930000Y11830000D02*
Y12009920D01*
X12060000Y12560000D02*
X12240000D01*
X12060000Y12500000D02*
Y12560000D01*
X10780000Y12450000D02*
X11250000D01*
X11530000Y12730000D01*
X12070000D01*
X12690000Y10460000D02*
Y10670000D01*
X10500000Y12350000D02*
Y12380000D01*
X10570000Y12450000D01*
X10380000Y13420000D02*
X10490000Y13310001D01*
X10570000Y12450000D02*
X10780000D01*
X11600000Y11265300D02*
Y12040000D01*
X12615300Y11230000D02*
Y11275300D01*
X11564700Y11230000D02*
X11600000Y11265300D01*
X12480000Y12770000D02*
X12610000Y12640000D01*
X13010001D02*
X13575301Y12074700D01*
X10239999Y10960000D02*
Y11302500D01*
Y10960000D02*
X10409999D01*
X10239999Y11305000D02*
X10407499D01*
X10409999Y10960000D02*
X10579999D01*
Y11305000D01*
X10407499D02*
X10579999D01*
X13200000Y12640000D02*
X13420000D01*
X13550000Y12970000D02*
Y13200000D01*
D57*
X4870000Y9070000D02*
X4872000Y9066000D01*
X9022500Y11487500D02*
Y11512500D01*
X10690000Y11580000D02*
X10694750Y11584750D01*
X4470000Y8480000D02*
X4530000D01*
X4600000Y8550000D01*
X10635000Y11425000D02*
X10710000Y11500000D01*
X10010000Y10990000D02*
X10040000D01*
X4767500Y8967500D02*
X4860000Y9060000D01*
X4870000Y9070000D01*
X4860000Y9090000D02*
X4870000Y9070000D01*
X4860000Y8880000D02*
Y8970000D01*
X5040000D02*
Y9060000D01*
X4390000Y8560000D02*
X4460000D01*
X4542499Y8642499D01*
X4600000Y8550000D02*
Y8570000D01*
X4390000Y9200000D02*
X4510000D01*
X4547500Y9162500D01*
X3970000Y8940000D02*
X4007500Y8902500D01*
X3970000Y8940000D02*
Y9060000D01*
X4007500Y9097500D01*
X3920000Y8920000D02*
X4002500Y8837500D01*
X3920000Y8920000D02*
Y9080000D01*
X4002500Y9162500D01*
X3870000Y8900000D02*
X3997501Y8772500D01*
X3870000Y8900000D02*
Y9100000D01*
X3997501Y9227500D01*
X4222500Y8967500D02*
X4290000Y8900000D01*
X4390000D01*
X4267500Y9032500D02*
X4300000Y9000000D01*
X4390000D01*
X10510000Y11500000D02*
Y11530000D01*
X10779999Y11070000D02*
X10809999D01*
X10350000Y11519999D02*
X10369999Y11500000D01*
X9940000Y11360000D02*
X10102499D01*
X4547500Y9162500D02*
X4650000D01*
Y8967500D02*
X4767500D01*
X4090000Y9032500D02*
X4267500D01*
X4007500Y9097500D02*
X4090000D01*
X4007500Y8902500D02*
X4090000D01*
X4542499Y8642499D02*
X4650000D01*
X4002500Y9162500D02*
X4090000D01*
X4002500Y8837500D02*
X4090000D01*
X3997501Y9227500D02*
X4090000D01*
X3997501Y8772500D02*
X4090000D01*
Y8967500D02*
X4222500D01*
X10000000Y11310000D02*
X10040000D01*
X9840000Y11260000D02*
X9940000Y11360000D01*
X10020000Y11240000D02*
X10040000Y11260000D01*
X9950000Y11260000D02*
X10000000Y11310000D01*
X10020000Y11190000D02*
Y11240000D01*
X11100000Y11780000D02*
X11170000Y11710000D01*
X10710000Y11500000D02*
X11140000D01*
X11170000Y11530000D01*
Y11710000D01*
X10610000Y11500000D02*
X10690000Y11580000D01*
X11100000Y11780000D02*
X11110000Y11790000D01*
X11240000D01*
X10330000Y10710000D02*
X10380000Y10760000D01*
X9222500Y11512500D02*
Y11672500D01*
X4390000Y9422501D02*
X4650000D01*
X9017500Y11415000D02*
Y11492500D01*
X9022500Y11487500D01*
D58*
X5410000Y7540000D02*
X5480000Y7470000D01*
Y7280000D02*
Y7470000D01*
X5810000Y7280000D02*
Y7380000D01*
X5620000Y7537500D02*
X5652500D01*
X5810000Y7380000D01*
D59*
X9383502Y8295502D02*
X9493000Y8405000D01*
X9367961Y8295502D02*
X9383502D01*
X9287961Y8215502D02*
X9288462Y8215000D01*
X9491000D01*
D60*
X9740000Y10760000D02*
X9820000D01*
X9730000Y10770000D02*
X9740000Y10760000D01*
X13489999Y9470000D02*
Y10000000D01*
X13357001Y9337000D02*
X13489999Y9470000D01*
X13623000Y9087100D02*
Y9310000D01*
X13357001Y9087100D02*
Y9337000D01*
X13360001Y9790000D02*
Y10130000D01*
X13410001Y10180000D01*
X13489999Y10000000D02*
X13670000Y10180000D01*
X9720000Y10760000D02*
X9740000D01*
X9670000Y10810000D02*
X9720000Y10760000D01*
X10200000Y9890000D02*
Y10170000D01*
X12232000Y9140000D02*
Y9350000D01*
X12359000Y9140000D02*
Y9350000D01*
X12232000Y9890000D02*
Y10040000D01*
X12092000Y10180000D02*
X12232000Y10040000D01*
X12090000Y10180000D02*
X12092000D01*
X12359000Y9680000D02*
Y9890000D01*
X10200000Y10170000D02*
X10270000Y10240000D01*
X13623000Y9480000D02*
Y9730200D01*
X9920000Y10560000D02*
X9950000D01*
X9720000Y10760000D02*
X9920000Y10560000D01*
D61*
X7750000Y9020000D02*
X7790000Y9060000D01*
D62*
X7270000Y8299970D02*
Y8300000D01*
D63*
X5270000Y8970000D02*
X5360000D01*
X13200000Y11120000D02*
Y11150000D01*
X13230000Y11180000D01*
X13332300D01*
X5360000Y8970000D02*
X5410000Y9020000D01*
Y9060000D01*
X5874520Y8970000D02*
X5970000D01*
X6060000Y9060000D01*
X4940000Y9170000D02*
X5030000D01*
X4860000Y9090000D02*
X4940000Y9170000D01*
D64*
X12930301Y12901102D02*
Y12929700D01*
D65*
X13035001Y7615000D02*
X13439999Y8020000D01*
X13080000Y7920000D02*
X13439999Y8280000D01*
D66*
X13650000Y13400000D02*
D03*
D67*
X3157499Y11790001D02*
D03*
Y13060001D02*
D03*
Y12425001D02*
D03*
X3212500Y13385001D02*
D03*
Y12750001D02*
D03*
X4352499Y12115001D02*
D03*
Y12750001D02*
D03*
X3212500Y12115001D02*
D03*
X4352499Y13385001D02*
D03*
X4407499Y11790001D02*
D03*
Y12425001D02*
D03*
Y13060001D02*
D03*
X4802500Y11790001D02*
D03*
Y13060001D02*
D03*
Y12425001D02*
D03*
X4857500Y13385001D02*
D03*
Y12750001D02*
D03*
X5997500Y12115001D02*
D03*
Y12750001D02*
D03*
X4857500Y12115001D02*
D03*
X5997500Y13385001D02*
D03*
X6052500Y11790001D02*
D03*
Y12425001D02*
D03*
Y13060001D02*
D03*
D68*
X6890501Y12509001D02*
D03*
X7140501D02*
D03*
X6890501Y12309001D02*
D03*
X7140501D02*
D03*
D69*
X8347501Y13395001D02*
D03*
X9347501D02*
D03*
Y12145001D02*
D03*
X8347501D02*
D03*
X8097501Y12395001D02*
D03*
X9597501D02*
D03*
X8847501D02*
D03*
D70*
X11204300Y12779100D02*
D03*
X11704300Y12469100D02*
D03*
Y13089101D02*
D03*
D71*
X13184302Y13409099D02*
D03*
X12930302Y12901099D02*
D03*
X12676302D02*
D03*
Y13409099D02*
D03*
X13184302Y12901099D02*
D03*
D72*
X13010001Y9015000D02*
D03*
X13623000Y9480000D02*
D03*
Y9310000D02*
D03*
X13410001Y10180000D02*
D03*
X13670000D02*
D03*
X10970000Y10530000D02*
D03*
X10980000Y11410000D02*
D03*
X10439999Y10280000D02*
D03*
X10270000Y10240000D02*
D03*
X12232000Y9140000D02*
D03*
X12359000D02*
D03*
X12090000Y10180000D02*
D03*
X12359000Y9680000D02*
D03*
D73*
X3140000Y9512500D02*
D03*
X9110000Y12250000D02*
D03*
X5730001Y10459999D02*
D03*
X5730000Y10359999D02*
D03*
X4890000Y10600000D02*
D03*
X5160000Y10690000D02*
D03*
X6100000Y10270000D02*
D03*
X6330000Y11430000D02*
D03*
X6070000Y10459999D02*
D03*
X13200000Y11120000D02*
D03*
X3370000Y9690000D02*
D03*
X4390000Y8900000D02*
D03*
X5030000Y9170000D02*
D03*
X5410000Y9060000D02*
D03*
Y8880000D02*
D03*
X6060000Y9060000D02*
D03*
Y8880000D02*
D03*
X4390000Y9100000D02*
D03*
Y9000000D02*
D03*
Y9200000D02*
D03*
X6750000Y11490000D02*
D03*
X6710000Y11790000D02*
D03*
X7740000Y12590000D02*
D03*
X6350000Y11280000D02*
D03*
X6330000Y11540000D02*
D03*
X3790000Y10620000D02*
D03*
X3509999Y10620000D02*
D03*
X3509999Y10747000D02*
D03*
X3790000Y10493000D02*
D03*
D74*
X8727999Y8695508D02*
D03*
X6750018Y8419987D02*
D03*
X6670018D02*
D03*
X6590018D02*
D03*
X6510018D02*
D03*
X8646300Y8697202D02*
D03*
X7132500Y10310000D02*
D03*
X7282500D02*
D03*
X7167500Y10910000D02*
D03*
X7352500D02*
D03*
X7125000Y9700000D02*
D03*
X11220000Y10865530D02*
D03*
X8727963Y7895541D02*
D03*
X8647963D02*
D03*
X9288000Y8935500D02*
D03*
X9207993Y8615492D02*
D03*
X9207963Y8455542D02*
D03*
X9287961Y8375502D02*
D03*
X7710000Y8900000D02*
D03*
X8395500Y8816500D02*
D03*
X5410000Y7540000D02*
D03*
X5620000Y7537500D02*
D03*
X5987500Y8047500D02*
D03*
X6370000Y8020000D02*
D03*
X6450000D02*
D03*
X6450000Y7930000D02*
D03*
X5985000Y7977500D02*
D03*
X5910000Y8070000D02*
D03*
X6480000Y8200000D02*
D03*
X8271400Y9191900D02*
D03*
X8525000Y8842500D02*
D03*
X8015000Y8900000D02*
D03*
X8449208Y8366661D02*
D03*
X8550736D02*
D03*
X6590000Y9220000D02*
D03*
X6510000D02*
D03*
X9617500Y8537500D02*
D03*
X9247982Y7790482D02*
D03*
X9208003Y7895541D02*
D03*
X9098003Y7798041D02*
D03*
X9118003Y7895541D02*
D03*
X8197500Y7731671D02*
D03*
X8648002Y9095500D02*
D03*
X9207961Y8215502D02*
D03*
X8807963Y8215541D02*
D03*
X9207961Y7975501D02*
D03*
X9287961D02*
D03*
X9620000Y8649000D02*
D03*
X9625000Y8752500D02*
D03*
X9368000Y8695499D02*
D03*
X9288000D02*
D03*
X8728002Y8535499D02*
D03*
Y8375542D02*
D03*
X7790000Y8820015D02*
D03*
X8042726Y8540057D02*
D03*
X7789984Y8740016D02*
D03*
X8042800Y8660000D02*
D03*
X8807963Y7815541D02*
D03*
X8387000Y8696000D02*
D03*
X11230500Y10628000D02*
D03*
X8387400Y8936300D02*
D03*
X9270000Y11340000D02*
D03*
X4800000Y11370000D02*
D03*
X5270000Y11640000D02*
D03*
X9800000Y10660000D02*
D03*
X13189999Y6990100D02*
D03*
X13500000Y7160000D02*
D03*
X10010000Y8030000D02*
D03*
X9419981Y10479979D02*
D03*
X9630000Y10650000D02*
D03*
X6760000Y10040000D02*
D03*
X6870000Y9890000D02*
D03*
X9210000Y11110000D02*
D03*
X8610000Y11090000D02*
D03*
Y10920000D02*
D03*
X8420000Y10800000D02*
D03*
X6030000Y8560000D02*
D03*
X6490000Y8850000D02*
D03*
X6430000Y9490000D02*
D03*
X6370000Y9550000D02*
D03*
X6830000Y8260000D02*
D03*
X6830000Y8340000D02*
D03*
X6910000D02*
D03*
X6989948Y8340051D02*
D03*
X6710000Y9645000D02*
D03*
X6750000Y8660000D02*
D03*
X6830000Y8740000D02*
D03*
X6590000Y8740000D02*
D03*
X6830000Y8820000D02*
D03*
X5214839Y10495000D02*
D03*
X8373000Y7970500D02*
D03*
X7629999Y8820000D02*
D03*
X9287961Y8295502D02*
D03*
X8807960Y8775542D02*
D03*
X8727960Y8775500D02*
D03*
X9615000Y8967500D02*
D03*
X9620000Y8855000D02*
D03*
X4380000Y9870000D02*
D03*
X4780000Y10010000D02*
D03*
X5220000Y9520000D02*
D03*
Y9600000D02*
D03*
X6010000Y9310000D02*
D03*
X5840000Y11510000D02*
D03*
X10390000Y9160001D02*
D03*
X10708000Y9530000D02*
D03*
X10454000Y9520000D02*
D03*
X10517500Y9562000D02*
D03*
X10581000Y9590000D02*
D03*
X10644500Y9632000D02*
D03*
X7950000Y9710000D02*
D03*
X7800000Y9660000D02*
D03*
X7710000Y9540000D02*
D03*
X5600000Y6880000D02*
D03*
X4210000D02*
D03*
X3990000D02*
D03*
X6090000D02*
D03*
X5930000D02*
D03*
X5270000D02*
D03*
X5110000D02*
D03*
X4700000Y6880000D02*
D03*
X4460000Y6880000D02*
D03*
X7790019Y9380018D02*
D03*
X7949986Y9539981D02*
D03*
X7710001Y8500000D02*
D03*
Y8420000D02*
D03*
X7790000Y8980000D02*
D03*
X7710001D02*
D03*
Y9060000D02*
D03*
X7790000D02*
D03*
X9677000Y8310000D02*
D03*
X8382900Y8534800D02*
D03*
X8391200Y9081400D02*
D03*
X8372988Y8226961D02*
D03*
X9368000Y9095500D02*
D03*
X9288000Y9015500D02*
D03*
X9368000D02*
D03*
X9208000Y8775500D02*
D03*
Y8695499D02*
D03*
X9367961Y8135502D02*
D03*
X9287961D02*
D03*
X9207961Y8055502D02*
D03*
X9287961D02*
D03*
X9367961D02*
D03*
Y7975501D02*
D03*
Y7895501D02*
D03*
Y7815501D02*
D03*
X8647963Y7815541D02*
D03*
X8807963Y7895541D02*
D03*
X8727963Y7975541D02*
D03*
X8647963D02*
D03*
Y8055541D02*
D03*
X8727963D02*
D03*
X8807963Y8135541D02*
D03*
X8727963D02*
D03*
X8647963D02*
D03*
X8807963Y8055541D02*
D03*
X8647963Y8295541D02*
D03*
X8727963D02*
D03*
X8887960Y8775500D02*
D03*
X8648002Y8935500D02*
D03*
Y9015500D02*
D03*
X8728002D02*
D03*
X8808002Y8935500D02*
D03*
Y9015500D02*
D03*
X8648002Y8535499D02*
D03*
X8807963Y7975541D02*
D03*
X8042800Y8290500D02*
D03*
X8271401Y8976166D02*
D03*
X8728002Y8935500D02*
D03*
X8286199Y7604661D02*
D03*
X8042765Y8979899D02*
D03*
X9208000Y9095500D02*
D03*
X9288000D02*
D03*
X8271375Y9095540D02*
D03*
X9288000Y8615499D02*
D03*
X9368000Y8535499D02*
D03*
Y8615499D02*
D03*
X9288000Y8855500D02*
D03*
X9368000Y8775500D02*
D03*
X9288000D02*
D03*
X7709986Y9219982D02*
D03*
X7790000Y9220000D02*
D03*
Y8500000D02*
D03*
X7710000Y8580000D02*
D03*
X7789986Y9139982D02*
D03*
X7710000Y9300000D02*
D03*
X7790000Y8580000D02*
D03*
X7070000Y8660000D02*
D03*
X7150000Y8820000D02*
D03*
Y8900000D02*
D03*
Y8660000D02*
D03*
X7310000Y8660000D02*
D03*
X7390000D02*
D03*
X7310000Y8820000D02*
D03*
X6750000Y8980000D02*
D03*
X7070000D02*
D03*
X7150000D02*
D03*
Y9220000D02*
D03*
X7310000Y9140000D02*
D03*
X7630000Y8180000D02*
D03*
X7470000Y8820000D02*
D03*
Y8980000D02*
D03*
X7550000Y8820000D02*
D03*
X7470000Y9140000D02*
D03*
X6749988Y8819982D02*
D03*
X7229987Y8499983D02*
D03*
X7470000Y8580000D02*
D03*
X6990000Y8660000D02*
D03*
X7710000Y8820000D02*
D03*
X7310000Y8420000D02*
D03*
X7469986Y9459981D02*
D03*
X7630000Y8420000D02*
D03*
X6990000Y8820000D02*
D03*
X7150000Y8740000D02*
D03*
X7469983Y8659983D02*
D03*
X7630000Y8260000D02*
D03*
X7709986Y9459981D02*
D03*
X7389986Y8579983D02*
D03*
X6910000Y8420000D02*
D03*
X7790000Y8340000D02*
D03*
X6830000Y8580000D02*
D03*
Y9060000D02*
D03*
X6990000Y9300000D02*
D03*
X7150000Y8500000D02*
D03*
Y9300000D02*
D03*
X7390000D02*
D03*
X7470000D02*
D03*
X7549981Y9299981D02*
D03*
X7630000Y9300000D02*
D03*
X7709986Y9139982D02*
D03*
X7069987Y8259983D02*
D03*
Y8419983D02*
D03*
X7390000Y8420000D02*
D03*
X7710000Y8340000D02*
D03*
X7470000Y8420000D02*
D03*
X6589988Y8339987D02*
D03*
X7150000Y8340000D02*
D03*
X7550000Y8260000D02*
D03*
X6670000Y9220000D02*
D03*
X6910000Y8500000D02*
D03*
X6909987Y8899982D02*
D03*
X7310000Y9300000D02*
D03*
X7630000Y8340000D02*
D03*
X6669988Y8339987D02*
D03*
X7630000Y8980000D02*
D03*
X7789986Y9299981D02*
D03*
X7150000Y8420000D02*
D03*
X7070000Y8820000D02*
D03*
X7230000Y8260000D02*
D03*
X6990000Y9060000D02*
D03*
X7310000Y8980000D02*
D03*
X7390000Y8820000D02*
D03*
X6989987Y8979982D02*
D03*
X6910000Y9060000D02*
D03*
X7309987Y9219982D02*
D03*
X6830000Y8900000D02*
D03*
X6990000Y8580000D02*
D03*
X7630000Y9140000D02*
D03*
X7629986Y8579983D02*
D03*
X7710000Y8660000D02*
D03*
X7470000Y8500000D02*
D03*
X6910000Y8580000D02*
D03*
Y8819999D02*
D03*
X7150000Y8580000D02*
D03*
X7310000Y9060000D02*
D03*
X7150000Y9140000D02*
D03*
X7549986Y8659983D02*
D03*
X7390000Y8980000D02*
D03*
X7550000D02*
D03*
Y8420000D02*
D03*
Y8580000D02*
D03*
Y9140000D02*
D03*
X7630000Y8660000D02*
D03*
X7470000Y9220000D02*
D03*
X7710000Y8740000D02*
D03*
X7790000Y8260000D02*
D03*
X7550000Y8340000D02*
D03*
X7150017Y8179987D02*
D03*
X7389987Y8179983D02*
D03*
X7310017Y8179987D02*
D03*
X7230017D02*
D03*
X7070017D02*
D03*
X7555000Y8040000D02*
D03*
X6840000Y7560000D02*
D03*
X6900000Y7650000D02*
D03*
Y7590000D02*
D03*
X7389987Y8259983D02*
D03*
X7310017Y8259957D02*
D03*
X7390000Y8340000D02*
D03*
X6870000Y7420000D02*
D03*
Y6930000D02*
D03*
X6680000D02*
D03*
X6490000Y6930000D02*
D03*
X7149987Y8259983D02*
D03*
X6450000Y7430000D02*
D03*
X4280000Y8190000D02*
D03*
X4770000Y7980000D02*
D03*
X4940000Y8380000D02*
D03*
X4390000Y9340000D02*
D03*
X10527499Y11329999D02*
D03*
X10407499D02*
D03*
X10287499D02*
D03*
X10210000Y11012500D02*
D03*
Y11132500D02*
D03*
Y11252500D02*
D03*
X6340000Y11700000D02*
D03*
X10480000Y10740000D02*
D03*
X4430000Y7530000D02*
D03*
X4500000D02*
D03*
X4910000Y10730000D02*
D03*
X4930000Y10490000D02*
D03*
X4590000Y10690000D02*
D03*
X5590000Y10090000D02*
D03*
Y10205999D02*
D03*
X6150000Y10860000D02*
D03*
X6100000Y10380000D02*
D03*
X5745480Y10586999D02*
D03*
X6190000Y10068999D02*
D03*
X3355019Y9585019D02*
D03*
X3390000Y9460000D02*
D03*
X6320000Y12415000D02*
D03*
X6334338Y13199071D02*
D03*
X6320000Y11800000D02*
D03*
X6120000Y10586999D02*
D03*
X5214839Y10820000D02*
D03*
X6670000Y11550000D02*
D03*
Y11677000D02*
D03*
X2760000Y9680000D02*
D03*
Y9550000D02*
D03*
Y9615000D02*
D03*
Y9810000D02*
D03*
X3730000Y10090000D02*
D03*
X3479999Y10423000D02*
D03*
X3010000Y11140000D02*
D03*
X4290000Y10630000D02*
D03*
X3760000Y11820000D02*
D03*
X3010000Y10940000D02*
D03*
X4290000Y10430000D02*
D03*
X3810000Y12280000D02*
D03*
X3940000Y11460000D02*
D03*
X3500000Y13289999D02*
D03*
X3670000Y12090000D02*
D03*
X4090000Y12839999D02*
D03*
X3520000Y12370000D02*
D03*
X3100000Y12889999D02*
D03*
X3819999Y11010000D02*
D03*
X8206959Y11745000D02*
D03*
Y11875000D02*
D03*
X8440000Y11745000D02*
D03*
X10409999Y10927499D02*
D03*
X10529999D02*
D03*
X10289999D02*
D03*
X10609999Y11007499D02*
D03*
Y11127499D02*
D03*
Y11247499D02*
D03*
X10740000Y8680000D02*
D03*
X10640000D02*
D03*
X4589999Y10820000D02*
D03*
Y10560000D02*
D03*
X5214839Y10625000D02*
D03*
X4750000Y12900000D02*
D03*
X5150000Y12390000D02*
D03*
X5430000Y12939999D02*
D03*
X5620000Y12550000D02*
D03*
X5770000Y12120000D02*
D03*
X5060000Y12300000D02*
D03*
X5270000Y11440000D02*
D03*
X5630000D02*
D03*
X5540000Y12220000D02*
D03*
X5630000Y11630000D02*
D03*
X3420000Y11550000D02*
D03*
X4900000Y11440000D02*
D03*
X6030000Y10840999D02*
D03*
Y10078999D02*
D03*
X6669988Y8979982D02*
D03*
X7309987Y8579983D02*
D03*
X7070000Y8740000D02*
D03*
X6750000Y8500000D02*
D03*
X7789982Y9459981D02*
D03*
X4589999Y10625000D02*
D03*
X2860000Y7170000D02*
D03*
X3940000Y11280000D02*
D03*
X4210000Y7060000D02*
D03*
X3990000D02*
D03*
X2880000Y8676000D02*
D03*
X2960000Y8168000D02*
D03*
X2880000D02*
D03*
Y7914000D02*
D03*
X5110000Y7060000D02*
D03*
X5930000D02*
D03*
X6090000D02*
D03*
X5600000D02*
D03*
X5770000D02*
D03*
X5430000D02*
D03*
X5270000D02*
D03*
X3360000Y9520000D02*
D03*
X5510000Y10560000D02*
D03*
X6750000Y8899999D02*
D03*
X6589970Y8900000D02*
D03*
X6730000Y13139999D02*
D03*
X5510000Y12440000D02*
D03*
X7000000Y13189999D02*
D03*
X6910000Y13280000D02*
D03*
X7160000Y13220000D02*
D03*
X7250000Y13130000D02*
D03*
X5780000Y11930000D02*
D03*
X6970000Y12880000D02*
D03*
X7150000D02*
D03*
X6800000Y10860000D02*
D03*
X6170000Y10140000D02*
D03*
X6030000Y10332999D02*
D03*
X6150000Y10720000D02*
D03*
X6590001Y8500000D02*
D03*
X6670001D02*
D03*
X6450000Y7790000D02*
D03*
Y7860000D02*
D03*
Y7720000D02*
D03*
X6670000Y8900000D02*
D03*
X6530000Y8160000D02*
D03*
X4390000Y8820000D02*
D03*
Y8760000D02*
D03*
Y8700000D02*
D03*
Y8640000D02*
D03*
X6660000Y10930000D02*
D03*
X6560000Y10990000D02*
D03*
X2960000Y8930000D02*
D03*
X2880000D02*
D03*
X2960000Y8676000D02*
D03*
X3810000Y9210000D02*
D03*
X3850000Y9550000D02*
D03*
X4940000Y8540000D02*
D03*
X4590000Y9630000D02*
D03*
X6450000Y7650000D02*
D03*
X6430000Y7590000D02*
D03*
X5730000Y8700000D02*
D03*
Y8540000D02*
D03*
X5820000Y7980000D02*
D03*
X6180000Y9320000D02*
D03*
X4570000Y8090000D02*
D03*
X4220000Y7850000D02*
D03*
X6180000Y9140000D02*
D03*
X5860000Y9860000D02*
D03*
Y9680000D02*
D03*
X5721000Y9224000D02*
D03*
X5640000Y8880000D02*
D03*
X4570000Y8240000D02*
D03*
X4190000Y8090000D02*
D03*
X4390000Y8240000D02*
D03*
X5140000Y8170000D02*
D03*
X5428740Y8760000D02*
D03*
X10410000Y11580000D02*
D03*
X10135000Y11417500D02*
D03*
X10065000Y11430000D02*
D03*
X9760000Y11260000D02*
D03*
X10880000Y11160000D02*
D03*
X10880000Y11230000D02*
D03*
X10797500Y11440000D02*
D03*
X11500000Y10290000D02*
D03*
X10660000Y11840000D02*
D03*
X10120000Y12050000D02*
D03*
X10850000Y11400000D02*
D03*
X11430000Y10920000D02*
D03*
X10580000Y11580000D02*
D03*
X10940000Y8680000D02*
D03*
X7190000Y7260000D02*
D03*
X7190000Y7180000D02*
D03*
X7200000Y7340000D02*
D03*
X7320000Y7130000D02*
D03*
X7270000Y7180000D02*
D03*
X2880000Y8422000D02*
D03*
X2960000D02*
D03*
X3050000Y7910000D02*
D03*
X6450000Y7530000D02*
D03*
X7642500Y8090000D02*
D03*
X7310000Y7640000D02*
D03*
X10771500Y9572000D02*
D03*
X10898500D02*
D03*
X11025500D02*
D03*
X11152500D02*
D03*
X11279500D02*
D03*
X11406500D02*
D03*
X11533500D02*
D03*
X11660500D02*
D03*
X11787500D02*
D03*
X11914500Y9622000D02*
D03*
X12041500Y9572000D02*
D03*
X10590000Y9160001D02*
D03*
X10840000Y8680000D02*
D03*
X11140000D02*
D03*
X11040000D02*
D03*
X11940000D02*
D03*
X11440000D02*
D03*
X12040000D02*
D03*
X12140000D02*
D03*
X10790000Y9160001D02*
D03*
X11090000D02*
D03*
X10990000D02*
D03*
X10890000D02*
D03*
X11590000Y9160001D02*
D03*
X11790000Y9160001D02*
D03*
X11690000D02*
D03*
X11990000D02*
D03*
X11890000Y9160001D02*
D03*
X12090000Y9160001D02*
D03*
X10490000D02*
D03*
X10540000Y8680000D02*
D03*
X10835000Y9530000D02*
D03*
X11216000D02*
D03*
X11343000D02*
D03*
X11089000D02*
D03*
X10962000D02*
D03*
X11724000D02*
D03*
X11851000D02*
D03*
X11597000D02*
D03*
X12105000D02*
D03*
X11978000Y9560000D02*
D03*
X10073000Y9530000D02*
D03*
X9946000D02*
D03*
X10200000D02*
D03*
X10136500Y9572000D02*
D03*
X10009500D02*
D03*
X11470000Y9530000D02*
D03*
X7552500Y8110000D02*
D03*
X7870000Y9540000D02*
D03*
X7790000D02*
D03*
X7880000Y9650000D02*
D03*
X12163500Y9572000D02*
D03*
X7629981Y9459981D02*
D03*
X10690000Y9160001D02*
D03*
X7310000Y9460000D02*
D03*
X7389986Y9459981D02*
D03*
X7230000Y9380000D02*
D03*
X7390014Y9379981D02*
D03*
X7470014D02*
D03*
X7550014D02*
D03*
X7310014D02*
D03*
X7710014D02*
D03*
X7630000Y9380000D02*
D03*
X8959712Y9174605D02*
D03*
X6800000Y10670000D02*
D03*
X7189985Y10209980D02*
D03*
X7077500Y10260000D02*
D03*
X7119980Y10860020D02*
D03*
X7249965Y10810000D02*
D03*
X8840000Y10360001D02*
D03*
Y10810000D02*
D03*
X8840000Y10280000D02*
D03*
X8580000Y10240000D02*
D03*
X6940000Y9890000D02*
D03*
X7010000D02*
D03*
X8840000Y10440000D02*
D03*
X8580000Y10480000D02*
D03*
X7990000Y10730000D02*
D03*
X7480000Y10350000D02*
D03*
X7730000Y10310000D02*
D03*
X7720000Y10409200D02*
D03*
X7830000Y10550000D02*
D03*
X11840000Y8680000D02*
D03*
X11740000D02*
D03*
X11640000D02*
D03*
X11390000Y9160001D02*
D03*
X11490000Y9160001D02*
D03*
X11540000Y8680000D02*
D03*
X11290000Y9160001D02*
D03*
X11190000Y9160001D02*
D03*
X11240000Y8680000D02*
D03*
X11340000D02*
D03*
X10440000Y7420000D02*
D03*
X10699734Y7420000D02*
D03*
X10960000Y7420000D02*
D03*
X11220000D02*
D03*
X11480000D02*
D03*
X11740000D02*
D03*
X12000000D02*
D03*
X12260000D02*
D03*
X12260000Y7870000D02*
D03*
X12000000D02*
D03*
X11740000D02*
D03*
X11480000D02*
D03*
X11220000D02*
D03*
X10960000D02*
D03*
X10699735Y7870000D02*
D03*
X10440000Y7870000D02*
D03*
X12260000Y8310000D02*
D03*
X12000000D02*
D03*
X11480000D02*
D03*
X11220000D02*
D03*
X10960000D02*
D03*
X10699735Y8310000D02*
D03*
X10440000Y8310000D02*
D03*
X11720000Y8300000D02*
D03*
X10539735Y7259735D02*
D03*
X10800000Y7260456D02*
D03*
X11060000Y7259735D02*
D03*
X11320000D02*
D03*
X11579733D02*
D03*
X11839733Y7259735D02*
D03*
X12029732Y7219735D02*
D03*
X12259735Y7219735D02*
D03*
X6180000Y8940000D02*
D03*
X8150000Y9620000D02*
D03*
X8380000Y10240000D02*
D03*
X7690000Y8020000D02*
D03*
X6100000Y8750000D02*
D03*
X7680000Y10610000D02*
D03*
X5840000Y11380000D02*
D03*
X9520000Y10480000D02*
D03*
X13200000Y8520000D02*
D03*
X12930000Y8630000D02*
D03*
X9990000Y8160000D02*
D03*
X10340000Y8560000D02*
D03*
X10290000Y8680000D02*
D03*
X10190000Y8590000D02*
D03*
X13035001Y7615000D02*
D03*
X13289999Y8520000D02*
D03*
X13130000Y8270000D02*
D03*
X13200000Y7510000D02*
D03*
X13300000D02*
D03*
X10150000Y9160000D02*
D03*
X10240000Y9160001D02*
D03*
X11000000Y10860000D02*
D03*
X9990000Y8640000D02*
D03*
Y8480000D02*
D03*
Y8320000D02*
D03*
X9780000Y10470000D02*
D03*
X11250000Y10770000D02*
D03*
X11000000Y10700000D02*
D03*
X9880000Y11040000D02*
D03*
X10580000Y10740000D02*
D03*
X13080000Y7920000D02*
D03*
X7450000Y7150000D02*
D03*
X6670000Y7020000D02*
D03*
X9497500Y11505000D02*
D03*
X6490000Y9450000D02*
D03*
Y9520000D02*
D03*
X6590000Y8659999D02*
D03*
X6670000Y8660000D02*
D03*
X6670001Y8740000D02*
D03*
X6750000Y8740000D02*
D03*
X6320800Y8710000D02*
D03*
X9710000Y11730000D02*
D03*
X7610000Y7527500D02*
D03*
X5230000Y12760000D02*
D03*
X4290000Y10940000D02*
D03*
X3819999Y10931000D02*
D03*
X3479999Y10230000D02*
D03*
X3384840Y9780000D02*
D03*
X4650000Y11030000D02*
D03*
X4310000Y10700000D02*
D03*
X3810000Y10180000D02*
D03*
X3479999Y11010000D02*
D03*
X3100000Y12260000D02*
D03*
X6160000Y8700000D02*
D03*
X5230000Y7880000D02*
D03*
X4690000Y7060000D02*
D03*
X4700000Y7660000D02*
D03*
X8888100Y9245400D02*
D03*
X8035000Y8070000D02*
D03*
X9107521Y8555019D02*
D03*
X6749988Y8339987D02*
D03*
X7070001Y8340000D02*
D03*
X9207961Y8135502D02*
D03*
X9112500Y8052500D02*
D03*
X8808002Y8295541D02*
D03*
Y8375542D02*
D03*
X5910000Y8460000D02*
D03*
X7790000Y8660000D02*
D03*
X9367961Y8295502D02*
D03*
X13195000Y8965000D02*
D03*
X12642500Y9180000D02*
D03*
Y8847500D02*
D03*
X5910000Y8220000D02*
D03*
X6990000Y9220000D02*
D03*
X6750000Y9380000D02*
D03*
X6670000D02*
D03*
X6830000Y9140000D02*
D03*
X6749988Y9299981D02*
D03*
X6750000Y9220000D02*
D03*
X6910000Y9220000D02*
D03*
X6830000Y9220000D02*
D03*
X6589987Y9059982D02*
D03*
X6510000Y9060000D02*
D03*
X6588000Y9139000D02*
D03*
X7070000Y9060000D02*
D03*
X7150000D02*
D03*
X7070000Y9140000D02*
D03*
X6340000Y9932500D02*
D03*
X6482500Y9297500D02*
D03*
X6829986Y9459981D02*
D03*
X6910000Y9635000D02*
D03*
X6990000Y9620000D02*
D03*
X7150000Y9540000D02*
D03*
X7220000Y9640000D02*
D03*
X6990000Y9540000D02*
D03*
X7150000Y9460000D02*
D03*
X7070000D02*
D03*
X6990000D02*
D03*
X6910000D02*
D03*
X7150000Y9380000D02*
D03*
X7069987Y9379981D02*
D03*
X6989987D02*
D03*
X6879188Y9761688D02*
D03*
X7945000Y7917500D02*
D03*
X7311866Y7795634D02*
D03*
X9290000Y10536250D02*
D03*
X9181700Y10269200D02*
D03*
X9545000Y10292500D02*
D03*
X9348750Y10207500D02*
D03*
X9290000Y10292500D02*
D03*
X9824188Y10399188D02*
D03*
X10102500Y10280000D02*
D03*
X9357500Y10702500D02*
D03*
X9721230Y10281270D02*
D03*
X8220000Y9527500D02*
D03*
X9580000Y10207500D02*
D03*
X9368000Y8855500D02*
D03*
X8728002Y9095500D02*
D03*
X9368000Y8935500D02*
D03*
X8090000Y9600000D02*
D03*
X8322500Y9510000D02*
D03*
X7966601Y9060016D02*
D03*
X8042801D02*
D03*
X8032900Y8193800D02*
D03*
X8032700Y8130300D02*
D03*
X7911400Y8147100D02*
D03*
X8342500Y9442500D02*
D03*
X7570000Y7710000D02*
D03*
X8118300Y7564200D02*
D03*
X7667500Y7837500D02*
D03*
X7830000Y8080000D02*
D03*
X7600000Y9756790D02*
D03*
X7600370Y9682973D02*
D03*
X7650000Y9805000D02*
D03*
X7815381Y8014619D02*
D03*
X8424200Y7347500D02*
D03*
X9207961Y9015500D02*
D03*
X9208000Y8935500D02*
D03*
X8727963Y7815541D02*
D03*
X4662500Y11162500D02*
D03*
X4770000Y9370000D02*
D03*
X9017500Y11415000D02*
D03*
X3120000Y10650000D02*
D03*
X3492500Y10335000D02*
D03*
D75*
X12427500Y11420000D02*
D03*
Y11520000D02*
D03*
Y11610000D02*
D03*
X12342500Y11685000D02*
D03*
X12260000D02*
D03*
X12182500Y11610000D02*
D03*
Y11520000D02*
D03*
X12260000Y11360000D02*
D03*
X12350000D02*
D03*
X12182500Y11420000D02*
D03*
X11957500D02*
D03*
X6990000Y7460000D02*
D03*
Y7380000D02*
D03*
Y7300000D02*
D03*
X9150000Y10800000D02*
D03*
X7310000Y7960000D02*
D03*
X12560000Y12230000D02*
D03*
Y11860000D02*
D03*
Y12130000D02*
D03*
X12930000Y12120000D02*
D03*
Y11990000D02*
D03*
Y11870000D02*
D03*
Y12260000D02*
D03*
X12839999Y12310000D02*
D03*
X12730000D02*
D03*
X12630000D02*
D03*
X12730000Y11780000D02*
D03*
X12610000D02*
D03*
X12839999D02*
D03*
X10940000Y12870000D02*
D03*
X10840000D02*
D03*
X10730000D02*
D03*
X10650000Y13180000D02*
D03*
Y13039999D02*
D03*
Y12910001D02*
D03*
X10700000Y13410001D02*
D03*
X10830000D02*
D03*
X10950000D02*
D03*
X11040000Y13339999D02*
D03*
Y13230000D02*
D03*
Y13110001D02*
D03*
Y12970000D02*
D03*
X11790000Y11360000D02*
D03*
X11880000D02*
D03*
X11957500Y11520000D02*
D03*
Y11610000D02*
D03*
X11880000Y11685000D02*
D03*
X11797500D02*
D03*
X11712500Y11610000D02*
D03*
Y11520000D02*
D03*
Y11420000D02*
D03*
X4860000Y8970000D02*
D03*
X5040000D02*
D03*
X3820000Y9720000D02*
D03*
X5430000Y9224000D02*
D03*
X4950000Y8800000D02*
D03*
X10650000Y13320000D02*
D03*
X7120000Y10560000D02*
D03*
Y10750000D02*
D03*
X9150000Y10370000D02*
D03*
X8790000Y10610000D02*
D03*
X10060000Y7720000D02*
D03*
X3120000Y9850000D02*
D03*
D76*
X9070000Y13120000D02*
D03*
X9505000Y12745000D02*
D03*
X9240000Y7360000D02*
D03*
X9150000Y10910000D02*
D03*
X9850000Y7290000D02*
D03*
X10150000D02*
D03*
X5730000Y10730000D02*
D03*
X4470000Y8480000D02*
D03*
X6310000Y11630000D02*
D03*
X2780000Y7172000D02*
D03*
X3140000Y7320000D02*
D03*
Y7420000D02*
D03*
X3170000Y7530000D02*
D03*
Y7630000D02*
D03*
X4390000Y8560000D02*
D03*
X9840000Y11260000D02*
D03*
X10010000Y11180000D02*
D03*
X9950000Y11260000D02*
D03*
X10860000Y11320000D02*
D03*
X10690000Y11580000D02*
D03*
X11240000Y11790000D02*
D03*
X9930000Y11120000D02*
D03*
X6030000Y9230000D02*
D03*
X6630000Y9939488D02*
D03*
X12630000Y9970000D02*
D03*
X10110000Y10830000D02*
D03*
X10330000Y10710000D02*
D03*
X10550000Y10660000D02*
D03*
X9222500Y11672500D02*
D03*
X8120000Y10260000D02*
D03*
X8210000D02*
D03*
X8300000D02*
D03*
X4390000Y9422501D02*
D03*
X2840000Y9330000D02*
D03*
D77*
X12310000Y11830000D02*
D03*
X13420000Y12640000D02*
D03*
X12230000Y12210000D02*
D03*
X12780000Y11640000D02*
D03*
X13700000Y13200000D02*
D03*
X13410001Y10630000D02*
D03*
X12740000Y11050000D02*
D03*
X13680000Y11430000D02*
D03*
X13500000Y11095000D02*
D03*
X11990000Y13400000D02*
D03*
X13150000Y11820000D02*
D03*
X13239999Y13080000D02*
D03*
X13160001Y12280000D02*
D03*
X11460000Y11770000D02*
D03*
X12690000Y10670000D02*
D03*
X12740000Y11400000D02*
D03*
X12550000Y12450000D02*
D03*
X13670000Y12250000D02*
D03*
X13639999Y10640000D02*
D03*
X13550000Y13200000D02*
D03*
X13439999Y13350000D02*
D03*
X10780000Y12450000D02*
D03*
X12060000Y12560000D02*
D03*
X12070000Y12730000D02*
D03*
X11780000Y11940000D02*
D03*
X10990000Y12610000D02*
D03*
X10180000Y12730000D02*
D03*
X12070000Y11310000D02*
D03*
X11930000Y12009920D02*
D03*
X9810000Y13420000D02*
D03*
X5550000Y7750000D02*
D03*
X5170000D02*
D03*
D78*
X10310000Y12060000D02*
D03*
X10830000Y11690000D02*
D03*
X9820000Y11810000D02*
D03*
X10640000Y10340000D02*
D03*
X11130000Y11080000D02*
D03*
X10500000Y11820000D02*
D03*
X11430000Y11580000D02*
D03*
X9690000Y10950000D02*
D03*
X9670000Y10810000D02*
D03*
X9610000Y11170000D02*
D03*
X10300000Y10610000D02*
D03*
X9620000Y11830000D02*
D03*
%TF.MD5,afbffc2db66c59f6c12e961562c5cff9*%
M02*
