G04 Layer_Physical_Order=8*
G04 Layer_Color=16711680*
%FSLAX45Y45*%
%MOMM*%
%TF.FileFunction,Copper,L8,Bot,Signal*%
%TF.Part,Single*%
G01*
G75*
%TA.AperFunction,SMDPad,CuDef*%
%ADD11R,1.20000X0.40000*%
%ADD13R,1.14300X1.27000*%
%ADD15R,1.00000X1.00000*%
%ADD16R,1.00000X1.00000*%
%ADD17R,0.80000X1.00000*%
%ADD19R,0.55000X0.45000*%
%ADD20R,1.00000X0.80000*%
%ADD21R,1.50000X0.60000*%
%ADD31R,0.60000X1.50000*%
%TA.AperFunction,Conductor*%
%ADD46C,0.50000*%
%ADD47C,0.40000*%
%ADD48C,0.25000*%
%ADD49C,0.15000*%
%ADD50C,0.18400*%
%ADD52C,0.60000*%
%ADD53C,1.00000*%
%ADD54C,0.20000*%
%ADD55C,0.30000*%
%ADD56C,1.20000*%
%ADD57C,0.35000*%
%ADD58C,0.34200*%
%ADD60C,0.80000*%
%ADD63C,0.70000*%
%ADD65C,0.25400*%
%TA.AperFunction,ViaPad*%
%ADD66C,2.00000*%
%TA.AperFunction,ComponentPad*%
%ADD67C,2.50000*%
%ADD68C,1.70000*%
%ADD69C,2.30000*%
%ADD70C,2.70000*%
%ADD71C,2.00000*%
%TA.AperFunction,ViaPad*%
%ADD72C,0.80000*%
%ADD73C,0.70000*%
%ADD74C,0.40000*%
%ADD75C,0.50000*%
%ADD76C,0.60000*%
%ADD77C,1.20000*%
%ADD78C,1.00000*%
%TA.AperFunction,SMDPad,CuDef*%
%ADD100R,1.00000X1.50000*%
%ADD101R,0.45000X0.55000*%
%ADD102R,2.50000X1.01600*%
%ADD103R,2.50000X1.27000*%
%ADD104R,2.70000X1.30000*%
%ADD105R,2.70000X4.10000*%
%ADD106R,3.30000X2.20000*%
%ADD107R,1.40000X2.20000*%
%ADD108R,1.40000X1.00000*%
%ADD109R,0.60000X1.80000*%
%ADD110R,1.80000X1.40000*%
%ADD111R,1.20000X0.80000*%
%ADD112R,1.27000X1.14300*%
%ADD113C,1.50000*%
%TA.AperFunction,Conductor*%
%ADD114C,1.50000*%
%ADD115C,0.45000*%
%ADD116C,0.16000*%
D11*
X8540000Y11875000D02*
D03*
Y11810000D02*
D03*
Y11745000D02*
D03*
X8306960D02*
D03*
Y11875000D02*
D03*
D13*
X6341688Y9808730D02*
D03*
X6519488D02*
D03*
X9824188Y10281230D02*
D03*
X10001988D02*
D03*
D15*
X8700000Y11090000D02*
D03*
X8520000D02*
D03*
X8700000Y10920000D02*
D03*
X8520000D02*
D03*
X5090000Y10820000D02*
D03*
X4910000D02*
D03*
X5410000Y10830000D02*
D03*
X5590000D02*
D03*
X8960000Y12070000D02*
D03*
X8780000D02*
D03*
X5640000Y8700000D02*
D03*
X5820000D02*
D03*
X5640000Y8540000D02*
D03*
X5820000D02*
D03*
X5640000Y8380000D02*
D03*
X5820000D02*
D03*
X5640000Y8220000D02*
D03*
X5820000D02*
D03*
X3760000Y9550000D02*
D03*
X3940000D02*
D03*
X3720000Y9210000D02*
D03*
X3900000D02*
D03*
X5040000Y7900000D02*
D03*
X4860000D02*
D03*
X4500000Y9640000D02*
D03*
X4680000D02*
D03*
X4660000Y8090000D02*
D03*
X4480000D02*
D03*
X4280000D02*
D03*
X4100000D02*
D03*
X4660000Y8240000D02*
D03*
X4480000D02*
D03*
X5950000Y9860000D02*
D03*
X5770000D02*
D03*
X5950000Y9680000D02*
D03*
X5770000D02*
D03*
X10200000Y10460000D02*
D03*
X10020000D02*
D03*
X11250000Y11270000D02*
D03*
X11430000D02*
D03*
X11250000Y11450000D02*
D03*
X11430000D02*
D03*
X8490000Y10070000D02*
D03*
X8670000D02*
D03*
X8490000Y10240000D02*
D03*
X8670000D02*
D03*
X8490000Y10480000D02*
D03*
X8670000D02*
D03*
X8304500Y8815500D02*
D03*
X8124500D02*
D03*
X11320000Y10630000D02*
D03*
X11140000D02*
D03*
X11310000Y10870000D02*
D03*
X11130000D02*
D03*
D16*
X9013000Y8408000D02*
D03*
Y8588000D02*
D03*
X8241000Y8406000D02*
D03*
Y8586000D02*
D03*
X9380000Y11010000D02*
D03*
Y11190000D02*
D03*
X8988000Y8084000D02*
D03*
Y7904000D02*
D03*
X9820000Y10950000D02*
D03*
Y11130000D02*
D03*
X6672500Y12350000D02*
D03*
Y12530000D02*
D03*
X5700000Y10060000D02*
D03*
Y10240000D02*
D03*
X6700000Y10270000D02*
D03*
Y10450000D02*
D03*
X5020000Y10670000D02*
D03*
Y10490000D02*
D03*
X5350000Y10670000D02*
D03*
Y10490000D02*
D03*
X4700000Y6970000D02*
D03*
Y7150000D02*
D03*
X4460000Y6970000D02*
D03*
Y7150000D02*
D03*
X4210000Y6970000D02*
D03*
Y7150000D02*
D03*
X3990000Y6970000D02*
D03*
Y7150000D02*
D03*
X6320000Y12505000D02*
D03*
Y12325000D02*
D03*
X6334338Y13289070D02*
D03*
Y13109070D02*
D03*
X9410000Y11520000D02*
D03*
Y11340000D02*
D03*
X9800000Y12989999D02*
D03*
Y12810001D02*
D03*
X7280000Y11400000D02*
D03*
Y11580000D02*
D03*
X6620000Y11310000D02*
D03*
Y11130000D02*
D03*
X3045000Y10152500D02*
D03*
Y10332500D02*
D03*
X3350000Y11080000D02*
D03*
Y10900000D02*
D03*
X3520000Y12280000D02*
D03*
Y12460000D02*
D03*
X4090000Y12750000D02*
D03*
Y12930000D02*
D03*
X3940000Y12280000D02*
D03*
Y12460000D02*
D03*
X3960000Y13200000D02*
D03*
Y13380000D02*
D03*
X3650000Y11120000D02*
D03*
Y10940000D02*
D03*
X2950000Y12180000D02*
D03*
Y12000000D02*
D03*
X3640000Y10270000D02*
D03*
Y10090000D02*
D03*
X2860000Y9700000D02*
D03*
Y9520000D02*
D03*
X3030001Y9700000D02*
D03*
Y9520000D02*
D03*
X3670000Y12930000D02*
D03*
Y12750000D02*
D03*
X2950000Y12820000D02*
D03*
Y12640000D02*
D03*
X3500000Y13380000D02*
D03*
Y13200000D02*
D03*
X3510000Y9710000D02*
D03*
Y9530000D02*
D03*
X3940000Y10330000D02*
D03*
Y10150000D02*
D03*
X4290000Y11030000D02*
D03*
Y10850000D02*
D03*
X5150000Y13400000D02*
D03*
Y13220000D02*
D03*
X5610000Y13400000D02*
D03*
Y13220000D02*
D03*
X5770000Y12760000D02*
D03*
Y12939999D02*
D03*
X5150000Y12300000D02*
D03*
Y12480000D02*
D03*
X5630000Y11530000D02*
D03*
Y11350000D02*
D03*
X5270000D02*
D03*
Y11530000D02*
D03*
X4900000D02*
D03*
Y11350000D02*
D03*
X5990000D02*
D03*
Y11530000D02*
D03*
X9620000Y12640000D02*
D03*
Y12820000D02*
D03*
X6730000Y13230000D02*
D03*
Y13050000D02*
D03*
X6700000Y10830000D02*
D03*
Y10650000D02*
D03*
X6030000Y8470000D02*
D03*
Y8650000D02*
D03*
X12260000Y7510000D02*
D03*
Y7330000D02*
D03*
X12259735Y6910000D02*
D03*
Y7090001D02*
D03*
X12000000Y8400000D02*
D03*
Y8220000D02*
D03*
X11999732Y6910000D02*
D03*
Y7090000D02*
D03*
X11740000Y7510000D02*
D03*
Y7330000D02*
D03*
X11739733Y6910000D02*
D03*
Y7090000D02*
D03*
X11480000Y7510000D02*
D03*
Y7330000D02*
D03*
X11479733Y6910000D02*
D03*
Y7090000D02*
D03*
X11220000Y7510000D02*
D03*
Y7330000D02*
D03*
X11220000Y7960000D02*
D03*
Y7780000D02*
D03*
X10960000Y7510000D02*
D03*
Y7330000D02*
D03*
Y6910000D02*
D03*
Y7090000D02*
D03*
X10699734Y7510000D02*
D03*
Y7330000D02*
D03*
X10700000Y6910721D02*
D03*
Y7090721D02*
D03*
X10440000Y8400000D02*
D03*
Y8220000D02*
D03*
X10439735Y6910000D02*
D03*
Y7090000D02*
D03*
X12260000Y8220000D02*
D03*
Y8400000D02*
D03*
Y7780000D02*
D03*
Y7960000D02*
D03*
X12000000Y7330000D02*
D03*
Y7510000D02*
D03*
X12000000Y7780000D02*
D03*
Y7960000D02*
D03*
X11720000Y8210000D02*
D03*
Y8390000D02*
D03*
X11740000Y7780000D02*
D03*
Y7960000D02*
D03*
X11480000Y8220000D02*
D03*
Y8400000D02*
D03*
Y7780000D02*
D03*
Y7960000D02*
D03*
X11220000Y8220000D02*
D03*
Y8400000D02*
D03*
X11220000Y7090000D02*
D03*
Y6910000D02*
D03*
X10960000Y8220000D02*
D03*
Y8400000D02*
D03*
Y7780000D02*
D03*
Y7960000D02*
D03*
X10700000Y8220000D02*
D03*
Y8400000D02*
D03*
Y7780000D02*
D03*
Y7960000D02*
D03*
X10440000Y7330000D02*
D03*
Y7510000D02*
D03*
X10440000Y7780000D02*
D03*
Y7960000D02*
D03*
X7512500Y7355000D02*
D03*
Y7535000D02*
D03*
X12642500Y9260000D02*
D03*
Y9080000D02*
D03*
X13227499Y9490000D02*
D03*
Y9670000D02*
D03*
X12632499Y9840000D02*
D03*
Y9660000D02*
D03*
X13197499Y9045000D02*
D03*
Y8865000D02*
D03*
X5270000Y7150000D02*
D03*
Y6970000D02*
D03*
X5110000Y7150000D02*
D03*
Y6970000D02*
D03*
X5930000Y7150000D02*
D03*
Y6970000D02*
D03*
X6090000Y7150000D02*
D03*
Y6970000D02*
D03*
D17*
X5640000Y11160000D02*
D03*
X5820000D02*
D03*
X4812500Y11030000D02*
D03*
X4992500D02*
D03*
X10680000Y11980000D02*
D03*
X10500000D02*
D03*
X10680000Y11690000D02*
D03*
X10500000D02*
D03*
X13110001Y11570000D02*
D03*
X12930000D02*
D03*
X13230000Y13220000D02*
D03*
X13410001D02*
D03*
X13489999Y13030000D02*
D03*
X13670000D02*
D03*
X7240000Y12880000D02*
D03*
X7060000D02*
D03*
X4850000Y8540000D02*
D03*
X5030000D02*
D03*
X4850000Y8380000D02*
D03*
X5030000D02*
D03*
X4850000Y8220000D02*
D03*
X5030000D02*
D03*
X4850000Y8700000D02*
D03*
X5030000D02*
D03*
X3730000Y9380000D02*
D03*
X3910000D02*
D03*
X3730000Y9720000D02*
D03*
X3910000D02*
D03*
X5030000Y8060000D02*
D03*
X4850000D02*
D03*
X4500000Y9810000D02*
D03*
X4680000D02*
D03*
X9950000Y11440000D02*
D03*
X9770000D02*
D03*
Y11630000D02*
D03*
X9950000D02*
D03*
X11430000Y11070000D02*
D03*
X11250000D02*
D03*
X11040000Y11560000D02*
D03*
X10860000D02*
D03*
X10080000Y8320000D02*
D03*
X9900000D02*
D03*
X10080000Y8160000D02*
D03*
X9900000D02*
D03*
X10080000Y8480000D02*
D03*
X9900000D02*
D03*
X10080000Y8640000D02*
D03*
X9900000D02*
D03*
D19*
X7524200Y8897500D02*
D03*
X7625800D02*
D03*
X7524200Y8500000D02*
D03*
X7625800D02*
D03*
X7524200Y9060000D02*
D03*
X7625800D02*
D03*
X7536700Y9220000D02*
D03*
X7638300D02*
D03*
X6659200Y9140000D02*
D03*
X6760800D02*
D03*
X6998300D02*
D03*
X6896700D02*
D03*
X7000800Y8740000D02*
D03*
X6899200D02*
D03*
X6814200Y8660000D02*
D03*
X6915800D02*
D03*
X7083300Y8900000D02*
D03*
X6981700D02*
D03*
X7324200D02*
D03*
X7425800D02*
D03*
X7326700Y8740000D02*
D03*
X7428300D02*
D03*
X6571700Y9297500D02*
D03*
X6673300D02*
D03*
X6816700Y8980000D02*
D03*
X6918300D02*
D03*
X6504200Y9380000D02*
D03*
X6605800D02*
D03*
X6659200Y9060000D02*
D03*
X6760800D02*
D03*
X7405800Y8500000D02*
D03*
X7304200D02*
D03*
X6768300Y8582500D02*
D03*
X6666700D02*
D03*
X8466700Y9015000D02*
D03*
X8568300D02*
D03*
X8464200Y8702500D02*
D03*
X8565800D02*
D03*
X9550800Y8855000D02*
D03*
X9449200D02*
D03*
X9550800Y8535000D02*
D03*
X9449200D02*
D03*
X9550800Y8650000D02*
D03*
X9449200D02*
D03*
X8466700Y9100000D02*
D03*
X8568300D02*
D03*
X8466700Y8930000D02*
D03*
X8568300D02*
D03*
X9545800Y8967500D02*
D03*
X9444200D02*
D03*
X9405800Y9160000D02*
D03*
X9304200D02*
D03*
X8753300Y8607500D02*
D03*
X8651700D02*
D03*
X9553300Y8752500D02*
D03*
X9451700D02*
D03*
X8799200Y8685000D02*
D03*
X8900800D02*
D03*
X8560800Y8535000D02*
D03*
X8459200D02*
D03*
X7559200Y10350000D02*
D03*
X7660800D02*
D03*
X10051601Y7110000D02*
D03*
X9950000D02*
D03*
X10050801Y7230000D02*
D03*
X9949200D02*
D03*
X10050800Y7350000D02*
D03*
X9949200D02*
D03*
X6319200Y8800000D02*
D03*
X6420800D02*
D03*
X6319200Y8900000D02*
D03*
X6420800D02*
D03*
X6319200Y9030000D02*
D03*
X6420800D02*
D03*
X7068270Y7795634D02*
D03*
X7169871D02*
D03*
X9414200Y10207500D02*
D03*
X9515800D02*
D03*
X8141700Y9467500D02*
D03*
X8243300D02*
D03*
X8297800Y8699000D02*
D03*
X8196200D02*
D03*
X6319200Y9150000D02*
D03*
X6420800D02*
D03*
X6816700Y9532500D02*
D03*
X6918300D02*
D03*
X9283300Y10207500D02*
D03*
X9181700D02*
D03*
X9381700Y10292500D02*
D03*
X9483300D02*
D03*
D20*
X9210000Y11200000D02*
D03*
Y11020000D02*
D03*
X7120000Y10470000D02*
D03*
Y10650000D02*
D03*
X10980000Y11170000D02*
D03*
Y10990000D02*
D03*
X10440000Y10610000D02*
D03*
Y10430000D02*
D03*
X6470000Y11910000D02*
D03*
Y11730000D02*
D03*
Y11390000D02*
D03*
Y11570000D02*
D03*
X7100000Y11580000D02*
D03*
Y11400000D02*
D03*
X6220000Y10310000D02*
D03*
Y10490000D02*
D03*
X5850000Y10540000D02*
D03*
Y10360000D02*
D03*
X3349999Y10530000D02*
D03*
Y10710000D02*
D03*
X3010000Y11030000D02*
D03*
Y10850000D02*
D03*
X10310000Y11910000D02*
D03*
Y11730000D02*
D03*
X7250000Y13039999D02*
D03*
Y13220000D02*
D03*
X5480000Y10250000D02*
D03*
Y10070000D02*
D03*
X5890000Y10710000D02*
D03*
Y10890000D02*
D03*
X3949999Y10530000D02*
D03*
Y10710000D02*
D03*
X3250000Y9520000D02*
D03*
Y9700000D02*
D03*
X4290000Y10520001D02*
D03*
Y10340000D02*
D03*
X10660000Y10460000D02*
D03*
Y10640000D02*
D03*
X11650000Y11950000D02*
D03*
Y11770000D02*
D03*
X10840000Y12770000D02*
D03*
Y12590000D02*
D03*
X13680000Y10950000D02*
D03*
Y10770000D02*
D03*
X7740000Y12290000D02*
D03*
Y12470000D02*
D03*
X3670000Y12000000D02*
D03*
Y11820000D02*
D03*
X4120000Y12020000D02*
D03*
Y11840000D02*
D03*
X3940000Y11550000D02*
D03*
Y11370000D02*
D03*
X3510000Y11550000D02*
D03*
Y11370000D02*
D03*
X3349999Y10149000D02*
D03*
Y10329000D02*
D03*
X3952259Y11091000D02*
D03*
Y10911000D02*
D03*
X4730000Y10490000D02*
D03*
Y10670000D02*
D03*
X4605000Y12989999D02*
D03*
Y12810001D02*
D03*
Y12670000D02*
D03*
Y12490000D02*
D03*
X5330000Y12939999D02*
D03*
Y12760000D02*
D03*
Y12020000D02*
D03*
Y11840000D02*
D03*
X5780000D02*
D03*
Y12020000D02*
D03*
X5630000Y12280000D02*
D03*
Y12460000D02*
D03*
X4090000Y8910000D02*
D03*
Y9090000D02*
D03*
X4270000D02*
D03*
Y8910000D02*
D03*
X5040000Y8880000D02*
D03*
Y9060000D02*
D03*
X4860000Y8880000D02*
D03*
Y9060000D02*
D03*
X5530000Y8880000D02*
D03*
Y9060000D02*
D03*
X5940000D02*
D03*
Y8880000D02*
D03*
X5750000D02*
D03*
Y9060000D02*
D03*
X5290000D02*
D03*
Y8880000D02*
D03*
X4520000Y9050000D02*
D03*
Y9230000D02*
D03*
X4700000D02*
D03*
Y9050000D02*
D03*
X7000000Y13100000D02*
D03*
Y13280000D02*
D03*
X6880000Y11500000D02*
D03*
Y11680000D02*
D03*
X6890000Y10860000D02*
D03*
Y11040000D02*
D03*
X5820000Y8070000D02*
D03*
Y7890000D02*
D03*
X10830000Y10720000D02*
D03*
Y10540000D02*
D03*
X9610000Y11340000D02*
D03*
Y11520000D02*
D03*
X9940000Y10610000D02*
D03*
Y10790000D02*
D03*
X10120000Y11910000D02*
D03*
Y11730000D02*
D03*
X9150000Y10650000D02*
D03*
Y10470000D02*
D03*
X7667500Y7755000D02*
D03*
Y7935000D02*
D03*
X12642500Y8767500D02*
D03*
Y8947500D02*
D03*
X6027500Y8312500D02*
D03*
Y8132500D02*
D03*
X5600000Y6970000D02*
D03*
Y7150000D02*
D03*
X5430000D02*
D03*
Y6970000D02*
D03*
X5770000D02*
D03*
Y7150000D02*
D03*
D21*
X11989840Y12400000D02*
D03*
X12230000D02*
D03*
X12500080Y12750000D02*
D03*
X12259920D02*
D03*
X13240080Y12630000D02*
D03*
X12999921D02*
D03*
D31*
X12920000Y13119920D02*
D03*
Y13360080D02*
D03*
X8000000Y12659920D02*
D03*
Y12900079D02*
D03*
D46*
X10050801Y7290000D02*
Y7389199D01*
X8646202Y8534800D02*
X8647303D01*
X8587700D02*
X8646202D01*
X8242500Y8607500D02*
X8515000D01*
X8197500Y8652500D02*
X8242500Y8607500D01*
X8197500Y8652500D02*
Y8692700D01*
X8230000Y10260000D02*
X8262500D01*
X8210000D02*
X8230000D01*
X8262500D02*
X8300000D01*
X6922500Y7620000D02*
X6990000D01*
X6910000D02*
X6922500D01*
Y7590000D02*
X6980000D01*
X6900000D02*
X6922500D01*
X6900000Y7650000D02*
X6950000D01*
X6990000Y7600000D02*
X7050000Y7660000D01*
X6980000Y7590000D02*
X6990000Y7600000D01*
X6950000Y7650000D02*
X6980000D01*
X6750000Y7989200D02*
X6900000Y7839200D01*
Y7650000D02*
Y7839200D01*
X6950000Y7650000D02*
Y7835000D01*
X6860000Y7989200D02*
X7000000Y7849200D01*
Y7685000D02*
Y7849200D01*
X6980000Y7650000D02*
X7050000Y7720000D01*
X10690000Y11580000D02*
X10830000D01*
X7050000Y7660000D02*
Y7720000D01*
Y7813904D02*
Y7850000D01*
Y7813904D02*
X7068270Y7795634D01*
X9949200Y7130800D02*
Y7230000D01*
X9950128Y7245136D02*
Y7344336D01*
X9850000Y7290000D02*
X9949199D01*
X10050801D02*
X10150000D01*
X10050801Y7230000D02*
Y7290000D01*
X10051601Y7110000D02*
Y7229199D01*
X5730000Y10730000D02*
Y10790000D01*
X6410000Y11630000D02*
X6470000Y11570000D01*
X6310000Y11630000D02*
X6410000D01*
X5030000Y9090000D02*
Y9170000D01*
X4930000D02*
X5030000D01*
X4860000Y9100000D02*
X4930000Y9170000D01*
X4860000Y9060000D02*
Y9100000D01*
X4269446Y8900031D02*
X4269447D01*
X4090000Y9090000D02*
X4180000Y9000000D01*
X4270000Y9090000D02*
X4360000Y9000000D01*
X4180000D02*
X4360000D01*
X4390000D01*
X9940000Y7500000D02*
X10050801Y7389199D01*
X6319200Y9030000D02*
Y9140800D01*
X6030000Y9230000D02*
X6230000D01*
X6900000Y7590000D02*
Y7650000D01*
X6100000Y8750000D02*
X6160000D01*
X6320000Y8970000D02*
Y9010000D01*
X4510000Y9220000D02*
X4510000Y9220000D01*
X4410000Y9220000D02*
X4510000D01*
X4390000Y9200000D02*
X4410000Y9220000D01*
X6320000Y8910000D02*
Y8970000D01*
X6160000Y8750000D02*
X6240000Y8830000D01*
X6320000Y8820099D01*
X6320800Y8820000D01*
Y8710000D02*
Y8780000D01*
X6100000Y8750000D02*
X6150000Y8700000D01*
X6160000D02*
X6250000Y8790000D01*
X6150000Y8700000D02*
X6160000D01*
X6910000Y7990000D02*
X7050000Y7850000D01*
X8515000Y8607500D02*
X8587700Y8534800D01*
X4510000Y9220000D02*
X4700000D01*
X7050000Y7720000D02*
Y7813904D01*
X6250000Y8790000D02*
X6320000D01*
Y8820099D01*
X6100000Y8750000D02*
X6320000Y8970000D01*
Y8820099D02*
Y8910000D01*
X6240000Y8830000D02*
X6320000Y8910000D01*
X6770000Y7990000D02*
X6910000D01*
X6800000Y7985000D02*
X6950000Y7835000D01*
X4120000Y8900000D02*
X4270000D01*
X4269447Y8900031D02*
X4270000Y8900000D01*
X4390000D01*
X6230000Y9230000D02*
X6319200Y9140800D01*
X7732500Y9891730D02*
X7837530D01*
X7870030D02*
X8044582D01*
D47*
X6670000Y9220000D02*
Y9340000D01*
X9553300Y8752500D02*
X9625000D01*
X9545800Y8967500D02*
X9615000D01*
X9930000Y10810000D02*
X9950000Y10790000D01*
X9287961Y8417961D02*
X9337500Y8467500D01*
X9287961Y8377280D02*
Y8417961D01*
X9288002Y8295502D02*
X9346600Y8354100D01*
X9404262Y8019200D02*
X9445000D01*
X9367961Y8055502D02*
X9404262Y8019200D01*
X9287961Y8135502D02*
X9345921Y8193462D01*
X9307500Y8195000D02*
X9397500D01*
X9445000Y8120800D02*
Y8147500D01*
X9397500Y8195000D02*
X9445000Y8147500D01*
X9287961Y8135502D02*
Y8214540D01*
X9307500Y8195000D01*
X9112500Y8272500D02*
X9166700D01*
X9013000Y8372000D02*
X9112500Y8272500D01*
X9013000Y8372000D02*
Y8408000D01*
X8703502Y8477500D02*
X8810000D01*
X8645502Y8535499D02*
X8646202Y8534800D01*
X8810000Y8477500D02*
X8845000Y8512500D01*
X9230000Y8272500D02*
X9287961Y8214540D01*
X9112500Y8218300D02*
X9166700Y8272500D01*
X9230000D01*
X9013000Y8408000D02*
Y8432000D01*
X8932500Y8512500D02*
X9013000Y8432000D01*
X8845000Y8512500D02*
X8932500D01*
X8131171Y10185371D02*
Y10255000D01*
X8160000Y10173429D02*
Y10255000D01*
X8195000Y10160930D02*
Y10242500D01*
X8300000Y10150000D02*
Y10260000D01*
X8120000D02*
X8210000D01*
X8118300D02*
X8120000D01*
X7500000Y7340000D02*
X7860000Y6980000D01*
X7200000Y7340000D02*
X7500000D01*
X7860000Y6980000D02*
X9070000D01*
X9770000Y7680000D01*
X9150000Y10650000D02*
Y10800000D01*
X9552500Y8855000D02*
X9620000D01*
X5600000Y6880000D02*
Y6970000D01*
X6090000Y6880000D02*
Y6970000D01*
X5930000Y6880000D02*
Y6970000D01*
X5270000Y6880000D02*
Y6970000D01*
X5110000Y6880000D02*
Y6970000D01*
X9368000Y8535499D02*
X9439600D01*
X4880000Y10600000D02*
X4890000D01*
X5820000Y11160000D02*
X6020000D01*
X6150000Y11290000D01*
Y11400000D01*
X4790000Y10510000D02*
X4880000Y10600000D01*
X3060000Y9530000D02*
X3060000Y9530000D01*
X8206959Y11745000D02*
X8306960D01*
X8206959Y11875000D02*
X8306960D01*
X8440000Y11745000D02*
X8540000D01*
X8570000Y11810000D02*
X8650000D01*
X3370000Y9690000D02*
Y9694840D01*
X3490000Y9690000D02*
X3500000Y9680000D01*
X3370000Y9690000D02*
X3490000D01*
X3990000Y7060000D02*
Y7150000D01*
X4210000Y7060000D02*
Y7150000D01*
X5440000D02*
X5600000D01*
X5770000D01*
X5600000Y7060000D02*
Y7150000D01*
X5770000Y6970000D02*
Y7060000D01*
X5430000Y6970000D02*
Y7060000D01*
X5920000Y6970000D02*
X5930000D01*
X3730000Y9720000D02*
X3820000D01*
X6260000Y11280000D02*
X6350000D01*
X6010000Y11030000D02*
X6260000Y11280000D01*
X6150000Y11400000D02*
X6290000Y11540000D01*
X6330000D01*
X3810000Y9210000D02*
X3900000D01*
X3770000Y9570000D02*
X3910000Y9710000D01*
X3850000Y9550000D02*
X3940000D01*
X4680000Y9640000D02*
Y9810000D01*
X4500000Y9640000D02*
Y9810000D01*
X4330000Y9640000D02*
X4500000D01*
X3720000Y9220000D02*
X3880000Y9380000D01*
X3910000D01*
X3900000Y9210000D02*
X4330000Y9640000D01*
X10440000Y10700000D02*
X10480000Y10740000D01*
X10440000Y10610000D02*
Y10700000D01*
X10500000Y11690000D02*
X10600000Y11790000D01*
X10500000Y11980000D02*
X10694300Y12174300D01*
X11010000D01*
X10410000Y11600000D02*
X10500000Y11690000D01*
X10410000Y11580000D02*
Y11600000D01*
X7120000Y10650000D02*
Y10750000D01*
Y10470000D02*
Y10560000D01*
X9150000Y10370000D02*
Y10470000D01*
X9970000Y7720000D02*
X10060000D01*
X6630000Y9939488D02*
X6761270D01*
X9930000Y10810000D02*
Y11120000D01*
X10590000Y11870000D02*
X10600000Y11860000D01*
X10590000Y11870000D02*
Y11870000D01*
X10500000Y11960000D02*
X10590000Y11870000D01*
X10600000Y11600000D02*
Y11860000D01*
X10580000Y11580000D02*
X10600000Y11600000D01*
X10010000Y11079999D02*
X10330000Y10760000D01*
Y10710000D02*
Y10760000D01*
X10010000Y11180000D02*
X10010000Y11079999D01*
X10640000Y10340000D02*
X10740000D01*
X10830000Y10430000D01*
Y10540000D01*
X10770000Y10740000D02*
X10790000Y10720000D01*
X10580000Y10740000D02*
X10770000D01*
X10300000Y10570000D02*
X10440000Y10430000D01*
X10300000Y10570000D02*
Y10610000D01*
X3259616Y9701923D02*
X3260000Y9700000D01*
X3259616Y9701923D02*
Y9701923D01*
X3810000Y10220000D02*
X3920000Y10330000D01*
X3810000Y10180000D02*
Y10220000D01*
X9112500Y8052500D02*
Y8116700D01*
X9552500Y8649000D02*
X9620000D01*
X6670000Y9340000D02*
Y9380000D01*
Y9380000D01*
X6341688Y9808730D02*
Y9930812D01*
X6340000Y9932500D02*
X6341688Y9930812D01*
X9419981Y10479979D02*
X9445021D01*
X9770000Y10155000D01*
Y7680000D02*
Y10155000D01*
X8044582Y9894582D02*
X8300000Y10150000D01*
X4730000Y10510000D02*
X4790000D01*
X9107500Y8218300D02*
Y8272500D01*
X8646202Y8534800D02*
X8703502Y8477500D01*
X3680000Y9330000D02*
X3730000Y9380000D01*
X2840000Y9330000D02*
X3680000D01*
X4990000Y11030000D02*
X4992500D01*
X6010000D01*
X4650000D02*
X4812500D01*
X4662500Y11162500D02*
X4665000Y11160000D01*
X5640000D01*
X4590000Y9630000D02*
X4680000D01*
X7764582Y9906282D02*
X8118300Y10260000D01*
X7977082Y9913782D02*
X8230000Y10166700D01*
X3120000Y9850000D02*
X3270001Y9700000D01*
X4590000Y10690000D02*
X4730000D01*
X8004582Y9894582D02*
X8262500Y10152500D01*
X7837530Y9891730D02*
X8131171Y10185371D01*
X7800215Y9895512D02*
X8120000Y10215297D01*
X7929582Y9895512D02*
X8195000Y10160930D01*
X7882082Y9895512D02*
X8160000Y10173429D01*
X9550000Y8537500D02*
X9617500D01*
X8230000Y10166700D02*
Y10260000D01*
X8262500Y10152500D02*
Y10260000D01*
D48*
X12927499Y8627500D02*
Y8870000D01*
X12925000Y8860000D02*
X13192500D01*
X7260000Y11400000D02*
X7283000Y11423000D01*
X6350000Y11280000D02*
X6410000Y11220000D01*
X6760000D01*
X6940000Y11400000D01*
X6420000Y9140000D02*
X6524800D01*
X7600000Y9756790D02*
X7701227Y9757491D01*
X7732500Y9789200D01*
X9368000Y8775500D02*
X9391000Y8752500D01*
X9451700D01*
X9368000Y8935500D02*
X9400001Y8967500D01*
X9444200D01*
X8727999Y8638301D02*
Y8695508D01*
X6910800Y8580800D02*
Y8660000D01*
X6829986Y9459981D02*
Y9517500D01*
X7411601Y8900000D02*
Y8958399D01*
X7420800Y8709165D02*
Y8740000D01*
X7230800Y9060000D02*
X7310000D01*
X7230000Y9060800D02*
X7230800Y9060000D01*
X6889200Y9140000D02*
X6910000Y9119200D01*
X6910800Y8980000D02*
X6989970D01*
X6989200Y8820800D02*
Y8900000D01*
X6410000Y8060000D02*
Y8405549D01*
Y8060000D02*
X6450000Y8020000D01*
X6410000Y8405549D02*
X6600838Y8596387D01*
X6990800Y9300800D02*
X7070000D01*
X6670000Y8580000D02*
X6750000Y8660000D01*
X7132500Y10310000D02*
X7282500D01*
X7167500Y10910000D02*
X7352500D01*
X9150000Y10910000D02*
X9240000Y11000000D01*
X7125000Y9680000D02*
Y9700000D01*
X7092500Y9647500D02*
X7125000Y9680000D01*
X11220000Y10865530D02*
X11308531D01*
X11311000Y10868000D01*
X7820000Y10310000D02*
X7990000Y10480000D01*
X5620000Y12280000D02*
Y12330000D01*
X6677500Y12327500D02*
X6700000Y12350000D01*
X7070000Y8615800D02*
X7085000Y8600800D01*
X5941250Y8381250D02*
X6030000Y8292500D01*
X2790000Y9550000D02*
X2850000Y9490000D01*
X6230999Y11140000D02*
X6620000D01*
X2980000Y11990000D02*
X3180000Y11790000D01*
X2980000Y11990000D02*
Y12010000D01*
X5214839Y10495000D02*
X5352420D01*
X2980000Y12625000D02*
X3180000Y12425000D01*
X2980000Y12625000D02*
Y12640000D01*
X5620000Y12460000D02*
Y12550000D01*
X11590000Y8550000D02*
X11740000Y8400000D01*
X4430000Y7150000D02*
Y7530000D01*
X8420000Y10800000D02*
X8530000Y10910000D01*
X4868751Y12103750D02*
X4905000Y12140000D01*
X4868750Y12103750D02*
X4868751Y12103750D01*
X4853750Y12103750D02*
X4868750D01*
X4630000Y12327500D02*
X4853750Y12103750D01*
X10135000Y11417500D02*
X10310000Y11592500D01*
X10065000Y11430000D02*
X10120000Y11485000D01*
X8602759Y7895541D02*
X8647963D01*
X9050601Y8615492D02*
X9207993D01*
X9287961Y8375502D02*
Y8377280D01*
X7270000Y9670000D02*
Y9940000D01*
X7077500Y10132500D02*
X7270000Y9940000D01*
X7077500Y10132500D02*
Y10260000D01*
X9288000Y9095500D02*
X9304300Y9111799D01*
X9287961Y8295502D02*
X9288002D01*
X8783361Y8430900D02*
X8905500D01*
X8728002Y8375542D02*
X8783361Y8430900D01*
X8391200Y9081400D02*
X8403700Y9093900D01*
X8459600D01*
X8387400Y8936300D02*
X8464800Y9013700D01*
X8387400Y8936300D02*
X8456600D01*
X8083985Y8825015D02*
X8105000Y8804000D01*
X7790000Y8820015D02*
X8083985D01*
X8067500Y10360000D02*
X8840000D01*
X7469986Y9762486D02*
X8067500Y10360000D01*
X7469986Y9459981D02*
Y9762486D01*
X7430000Y9500000D02*
Y9782500D01*
X6370000Y7850000D02*
X6450000Y7930000D01*
X5820000Y8070000D02*
X5910000D01*
X8646402Y9093900D02*
X8648002Y9095500D01*
X8988000Y8084000D02*
Y8095608D01*
X8847500Y8337500D02*
X8896398D01*
X7230000Y9260800D02*
X7269168D01*
X8254100Y8406000D02*
X8382900Y8534800D01*
X8241000Y8406000D02*
X8254100D01*
X9013000Y8588000D02*
X9045547Y8620547D01*
X8300800Y8696000D02*
X8387000D01*
X8728002Y8535499D02*
X8732103Y8539600D01*
X8663502Y8600000D02*
X8728002Y8535499D01*
X8297800Y8699000D02*
X8300800Y8696000D01*
X8387000D02*
X8390700Y8699700D01*
X8463800D01*
X10820000Y11280000D02*
X10860000Y11320000D01*
X10820000Y10900000D02*
Y11280000D01*
Y10900000D02*
X10930000Y10790000D01*
X8320000Y8816500D02*
X8388000D01*
X9270000Y11300000D02*
Y11340000D01*
Y11300000D02*
X9380000Y11190000D01*
X6640000Y10450000D02*
X6700000D01*
X6630819Y10068999D02*
X6800000Y10238180D01*
X6190000Y10068999D02*
X6630819D01*
X6800000Y10238180D02*
Y10550000D01*
X9150000Y10910000D02*
X9150000Y10910000D01*
X9150000Y10910000D01*
X9152600Y10907400D01*
X9150000Y10910000D02*
X9270000D01*
X9150000D02*
X9150000D01*
X9150000D02*
Y10910000D01*
X8970000Y11090000D02*
X9150000Y10910000D01*
X5270000Y11530000D02*
Y11640000D01*
X10080000Y8640000D02*
X10140000D01*
X10010000Y8030000D02*
X10080000Y8100000D01*
Y8160000D01*
X8700000Y11090000D02*
X8970000D01*
X9270000Y10910000D02*
X9360000Y11000000D01*
X9210000Y11110000D02*
Y11200000D01*
X8520000Y11090000D02*
X8610000D01*
Y10920000D02*
X8700000D01*
X7169200Y8759200D02*
X7230000D01*
X7150000Y8740000D02*
X7169200Y8759200D01*
X7470000Y8820000D02*
X7519200Y8770800D01*
X6860000Y8090800D02*
X6950000Y8180800D01*
X6750000Y8090800D02*
X6880000Y8220800D01*
X6950000Y8180800D02*
Y8300000D01*
X6880000Y8220800D02*
Y8300000D01*
X7070000Y8615800D02*
Y8660000D01*
X6030000Y8560000D02*
Y8650000D01*
X6420800Y9030000D02*
X6480800Y8970000D01*
X6620000D01*
X6520000Y8900000D02*
X6540000Y8880000D01*
X6830000Y8340000D02*
Y8399200D01*
X6989948Y8340051D02*
Y8400000D01*
X10340000Y7009735D02*
Y8060000D01*
Y7009735D02*
X10439735Y6910000D01*
X10050801Y7230000D02*
X10051601Y7229199D01*
X6750000Y8660000D02*
X6809200D01*
X7990000Y10480000D02*
Y10610000D01*
Y10730000D02*
Y10850000D01*
X5040000Y7900000D02*
Y7950000D01*
X7629999Y8979999D02*
X7630000Y8980000D01*
X8727999Y8638301D02*
X8750800Y8615500D01*
X8727960Y8775500D02*
X8796700Y8706760D01*
X5640000Y9730000D02*
X5770000Y9860000D01*
X5721000Y9631000D02*
X5770000Y9680000D01*
X5860000Y9860000D02*
X5950000D01*
X5860000Y9680000D02*
X5950000D01*
X5890000Y11630000D02*
X5990000Y11530000D01*
X5840000Y11510000D02*
X5950000D01*
X5800000Y10800000D02*
X5890000Y10710000D01*
X5610000Y10800000D02*
X5800000D01*
X7389986Y9459981D02*
Y10669979D01*
X7310000Y9460000D02*
Y10089965D01*
X7350000Y9500000D02*
Y10630000D01*
X4210000Y6880000D02*
Y6970000D01*
X3990000Y6880000D02*
Y6970000D01*
X4700000Y6880000D02*
Y6970000D01*
X4460000Y6880000D02*
Y6970000D01*
X8647202Y8936300D02*
X8648002Y8935500D01*
X8579000Y7817700D02*
X8581159Y7815541D01*
X8568100Y8157500D02*
X8590059Y8135541D01*
X8647963D01*
X8568100Y8055900D02*
X8568459Y8055541D01*
X8647963D01*
X9394462Y7789000D02*
X9443200D01*
X9367961Y7815501D02*
X9394462Y7789000D01*
X9372862Y7890600D02*
X9443200D01*
X7000800Y8740000D02*
X7070000D01*
X7090800Y8900000D02*
X7150000D01*
Y8820000D02*
X7180800Y8850800D01*
X6990000Y9060000D02*
Y9139200D01*
X7150000Y8980000D02*
X7170800Y8959200D01*
X7470000Y9220000D02*
X7470000Y9220000D01*
X7229987Y8499983D02*
X7230000Y8499970D01*
X6910000Y9060000D02*
Y9119200D01*
X7420800Y8709165D02*
X7469983Y8659983D01*
X7390000Y8980000D02*
X7411601Y8958399D01*
X6990000Y9300000D02*
X6990800Y9300800D01*
X7149200Y8499200D02*
X7150000Y8500000D01*
X7390000Y9250800D02*
Y9300000D01*
X6830000Y8500800D02*
X6909200D01*
X7309200Y8579196D02*
X7309987Y8579983D01*
X7629986Y8510814D02*
Y8579983D01*
Y8659986D01*
X7630000Y8660000D01*
X7629200Y8980800D02*
X7630000Y8980000D01*
X7068158Y8741842D02*
X7070000Y8740000D01*
X6990000Y9139200D02*
X6990800Y9140000D01*
X7410800Y8500000D02*
X7470000D01*
X7389200Y9140000D02*
X7390000Y9139200D01*
X7150000Y9220000D02*
X7210800Y9159200D01*
X7519200Y8850800D02*
X7550000Y8820000D01*
X7230000Y8430800D02*
Y8499970D01*
X6899200Y8809199D02*
X6910000Y8819999D01*
X7150000Y8500000D02*
X7208399Y8558399D01*
X6909200Y8500800D02*
X6910000Y8500000D01*
X7319200Y8730800D02*
X7390000Y8660000D01*
X4500000Y7490000D02*
X4700000Y7290000D01*
X4500000Y7490000D02*
Y7530000D01*
X5100000Y8010000D02*
X5140000Y8050000D01*
X6600000Y7870001D02*
Y8190000D01*
X6450000Y7720000D02*
X6600000Y7870001D01*
X6562500Y8782500D02*
X6627501D01*
X4280000Y8090000D02*
Y8180000D01*
X4360000Y7070000D02*
Y8120000D01*
Y7070000D02*
X4460000Y6970000D01*
X4360000Y8120000D02*
X4480000Y8240000D01*
X4660000Y8090000D02*
X4770000Y7980000D01*
X4940000Y8150000D02*
Y8380000D01*
X6330000Y11540000D02*
X6390000Y11480000D01*
X6520000D01*
X6570000Y11530000D01*
X6340000Y11700000D02*
Y11740000D01*
X4700000Y7150000D02*
Y7290000D01*
X4910000Y10730000D02*
Y10820000D01*
X4930000Y10490000D02*
X5020000D01*
X5090000Y10760000D02*
X5160000Y10690000D01*
X5090000Y10760000D02*
Y10820000D01*
X5140000Y10670000D02*
X5160000Y10690000D01*
X5020000Y10670000D02*
X5140000D01*
X5330000Y10690000D02*
X5350000Y10670000D01*
X5160000Y10690000D02*
X5330000D01*
X5700000Y10060000D02*
X5840000Y10200000D01*
X5590000Y10090000D02*
X5690000D01*
Y10070000D02*
X5700000Y10060000D01*
X5590000Y10205999D02*
X5665999D01*
X5700000Y10240000D01*
X5524001Y10205999D02*
X5590000D01*
X5799999Y10920000D02*
X5840000Y10880000D01*
X5500000Y10920000D02*
X5799999D01*
X2945001Y9615000D02*
X3030001Y9700000D01*
X3410000Y9460000D02*
X3490000Y9540000D01*
X3390000Y9460000D02*
X3410000D01*
X2760000Y9615000D02*
X2945001D01*
X6320000Y12415000D02*
Y12505000D01*
X6334338Y13199071D02*
Y13289070D01*
Y12954338D02*
Y13109070D01*
X6340000Y11740000D02*
X6470000Y11870000D01*
Y11910000D01*
X6570000Y11530000D02*
Y11670000D01*
X6510000Y11730000D02*
X6570000Y11670000D01*
X6470000Y11730000D02*
X6510000D01*
X6610000Y11320000D02*
Y11490000D01*
X6670000Y11550000D01*
X7100000Y11400000D02*
X7260000D01*
X7100000D02*
X7100000Y11400000D01*
X7077000Y11423000D02*
X7100000Y11400000D01*
X5980999Y10890000D02*
X6230999Y11140000D01*
X7100000Y11580000D02*
X7260000D01*
X7260000Y11580000D01*
X5890000Y10890000D02*
X5980999D01*
X6030000Y10840999D01*
X3230000Y10900000D02*
X3350000D01*
X2760000Y10430000D02*
X3230000Y10900000D01*
X2760000Y9810000D02*
Y10430000D01*
Y9680000D02*
X2840000D01*
X2860000Y9700000D01*
X2760000Y9550000D02*
X2790000D01*
X3640000Y10090000D02*
X3730000D01*
X3952259Y11091000D02*
X4120000Y11258740D01*
X3487000Y10423000D02*
X3640000Y10270000D01*
X3479999Y10423000D02*
X3487000D01*
X3010000Y11030000D02*
Y11140000D01*
X4290000Y10520001D02*
Y10630000D01*
X3670000Y11820000D02*
X3760000D01*
X4120000Y11258740D02*
Y11840000D01*
X3010000Y10850000D02*
Y10940000D01*
X4290000Y10340000D02*
Y10430000D01*
X3349999Y10329000D02*
X3369999Y10309000D01*
X3729999Y11100000D02*
X3819999Y11010000D01*
X3670000Y11100000D02*
X3729999D01*
X3940000Y11460000D02*
Y11550000D01*
X3500000Y13289999D02*
Y13380000D01*
X3670000Y12000000D02*
Y12090000D01*
X4120000Y12020000D02*
Y12280000D01*
X3940000Y12460000D02*
X4120000Y12280000D01*
X4090000Y12839999D02*
Y12930000D01*
X3520000Y12370000D02*
Y12460000D01*
X3960000Y13200000D02*
X4290001D01*
X4375000Y12750000D02*
X4375000Y12750000D01*
X3235000Y12115000D02*
X3350000Y12230000D01*
Y12570000D01*
X3530000Y12750000D01*
X3670000D01*
X3940000Y12460000D02*
Y12660000D01*
X3670000Y12930000D02*
X3940000Y12660000D01*
X3235000Y12750000D02*
X3390000Y12905000D01*
Y13089999D01*
X3500000Y13200000D01*
X3960000Y13380000D02*
X3960000Y13380000D01*
X3500000Y13380000D02*
X3960000D01*
X3868999Y11010000D02*
X3949999Y11091000D01*
X3819999Y11010000D02*
X3868999D01*
X3929999Y10931000D02*
X3949999Y10911000D01*
X3929999Y10690000D02*
X3949999Y10710000D01*
X4720000Y12900000D02*
X4750000D01*
X4630000Y12989999D02*
X4720000Y12900000D01*
X4630000Y12670000D02*
X4710000Y12590000D01*
X5150000Y12390000D02*
Y12480000D01*
X5770000Y12939999D02*
X5830000D01*
X4895000Y13400000D02*
X5150000D01*
X4880000Y13385001D02*
X4895000Y13400000D01*
X5340000Y12760000D02*
X5410000D01*
X5610000Y12960001D01*
Y13220000D01*
X5340000Y12939999D02*
X5430000D01*
X5770000Y12030000D02*
Y12120000D01*
X5060000Y12300000D02*
X5150000D01*
X4875000Y11840000D02*
X5330000D01*
X4825000Y11790000D02*
X4875000Y11840000D01*
X5270000Y11350000D02*
Y11440000D01*
X5630000Y11350000D02*
Y11440000D01*
X5780000Y12020000D02*
X5890000Y11910000D01*
Y11630000D02*
Y11910000D01*
X5580000Y12220000D02*
X5620000Y12260000D01*
X5540000Y12220000D02*
X5580000D01*
X5630000Y11530000D02*
Y11630000D01*
X4900000Y11530000D02*
X5090000Y11720000D01*
X5640000D01*
X3420000Y11550000D02*
X3510000D01*
X4900000Y11440000D02*
Y11530000D01*
X3920000Y10330000D02*
X3940000D01*
X3574840Y9970000D02*
X3760000D01*
X3940000Y10150000D01*
X7519200Y8740000D02*
Y8770800D01*
X6670000Y9220000D02*
X6670800Y9220800D01*
X6910000Y8580000D02*
X6910800Y8580800D01*
X6899200Y8740000D02*
Y8809199D01*
X3940000Y11280000D02*
Y11370000D01*
X5110000Y7060000D02*
Y7150000D01*
X5930000Y7060000D02*
Y7150000D01*
X6090000Y7060000D02*
Y7150000D01*
X5270000Y7060000D02*
Y7150000D01*
X6730000Y13139999D02*
Y13230000D01*
X3530000Y10840000D02*
X3680000Y10690000D01*
Y10430000D02*
Y10690000D01*
X4905000Y12140000D02*
X5710000D01*
X5770000Y12200000D01*
Y12760000D01*
X4710000Y12590000D02*
X5360000D01*
X5510000Y12440000D01*
X5620000Y12330000D01*
X7000000Y13100000D02*
Y13189999D01*
X6910000Y13280000D02*
X7000000D01*
X7160000Y13220000D02*
X7250000D01*
Y13039999D02*
Y13130000D01*
X5780000Y11840000D02*
Y11930000D01*
X5330000Y12020000D02*
X5580000D01*
X5760000Y11840000D01*
X5760000D01*
X5640000Y11720000D02*
X5760000Y11840000D01*
X6970000Y12880000D02*
X7060000D01*
X7150000D02*
X7240000D01*
X6560000Y10530000D02*
X6640000Y10450000D01*
X6680000Y10850000D02*
X6700000Y10830000D01*
X6800000Y10860000D02*
X6890000D01*
X6630000Y10200000D02*
X6700000Y10270000D01*
X5840000Y10200000D02*
X6630000D01*
X6250000Y10716999D02*
Y10850000D01*
X6120000Y10586999D02*
X6250000Y10716999D01*
X6670000Y11550000D02*
X6700000Y11580000D01*
X7100000D01*
X6627500Y11719500D02*
Y11837500D01*
Y11719500D02*
X6670000Y11677000D01*
X6470000Y11730000D02*
Y11760000D01*
X7460000Y12270000D02*
Y12320000D01*
X7450000Y12460000D02*
Y12490000D01*
X5640000Y8700000D02*
X5640000Y8700000D01*
X5640000Y8380000D02*
X5640000Y8380000D01*
X4390000Y8820000D02*
X4730000D01*
X4850000Y8700000D01*
X4390000Y8760000D02*
X4630000D01*
X4850000Y8540000D01*
X4390000Y8700000D02*
X4530000D01*
X4850000Y8380000D01*
X4390000Y8640000D02*
X4500000D01*
X4770000Y8370000D01*
Y8300000D02*
Y8370000D01*
Y8300000D02*
X4850000Y8220000D01*
X6560000Y10530000D02*
Y10990000D01*
X6660000Y10930000D02*
X6700000Y10890000D01*
Y10830000D02*
Y10890000D01*
X6250000Y10850000D02*
X6440000Y11040000D01*
X6890000D01*
X6940000Y11400000D02*
X7100000D01*
X4850000Y7910000D02*
Y8060000D01*
Y7910000D02*
X4860000Y7900000D01*
X5030000Y8060000D02*
X5080000Y8010000D01*
X5040000Y7950000D02*
X5100000Y8010000D01*
X5080000D02*
X5100000D01*
X4850000Y8060000D02*
X4940000Y8150000D01*
X5030000Y8380000D02*
X5640000D01*
X5650000D01*
X5030000Y8220000D02*
X5640000D01*
X5650000D01*
X5030000Y8700000D02*
X5640000D01*
X5650000D01*
X5030000Y8540000D02*
X5640000D01*
X5650000D01*
X5730000Y8700000D02*
X5820000D01*
X5730000Y8540000D02*
X5820000D01*
Y7890000D02*
Y7980000D01*
X4480000Y8090000D02*
X4570000D01*
X4100000Y7970000D02*
Y8090000D01*
Y7970000D02*
X4220000Y7850000D01*
X5721000Y9224000D02*
Y9631000D01*
X5640000Y8880000D02*
Y9730000D01*
X4570000Y8240000D02*
X4660000D01*
X5140000Y8050000D02*
Y8170000D01*
X10120000Y11485000D02*
Y11730000D01*
Y11910000D02*
Y12050000D01*
X10880000Y11230000D02*
X10900000Y11250000D01*
X11040000D01*
X11430000Y10920000D02*
Y11070000D01*
X11040000Y11250000D02*
X11120000Y11170000D01*
X11180000D01*
X11240000Y11110000D01*
X10850000Y11400000D02*
X10870000D01*
X10950000Y11320000D01*
X11200000D01*
X11250000Y11270000D01*
X10797500Y11440000D02*
X10837500Y11480000D01*
X11220000D01*
X6910000Y9289200D02*
X6920000Y9279200D01*
X5410000Y10830000D02*
X5500000Y10920000D01*
X7269168Y9260800D02*
X7309987Y9219982D01*
X6700000Y10650000D02*
X6800000Y10550000D01*
X7119980Y10860020D02*
X7350000Y10630000D01*
X7249965Y10810000D02*
X7389986Y10669979D01*
X8670000Y10240000D02*
X8800000D01*
X8840000Y10280000D01*
X8490000Y10240000D02*
X8580000D01*
X8800000Y10480000D02*
X8840000Y10440000D01*
X8670000Y10480000D02*
X8800000D01*
X8490000Y10480000D02*
X8580000D01*
X8670000Y10070000D02*
Y10240000D01*
X7189985Y10209980D02*
X7310000Y10089965D01*
X7480000Y10350000D02*
X7559200D01*
X7730000Y10310000D02*
X7820000D01*
X7660800Y10350000D02*
X7720000Y10409200D01*
X7830000Y10420800D02*
Y10550000D01*
X11220000Y8400000D02*
X11290000Y8470000D01*
X12120000Y8540000D02*
X12260000Y8400000D01*
X11910000Y8540000D02*
X12120000D01*
X11740000Y8650000D02*
X11900000Y8490000D01*
X11930000Y8400000D02*
X12000000D01*
X11900000Y8490000D02*
X12070000D01*
X12140000Y8420000D01*
Y8080000D02*
Y8420000D01*
Y8080000D02*
X12260000Y7960000D01*
X11790000Y8660000D02*
X11910000Y8540000D01*
X11790000Y8660000D02*
Y9160001D01*
X11740000Y8650000D02*
Y8680000D01*
X11690000Y8640000D02*
X11930000Y8400000D01*
X11690000Y8640000D02*
Y9160001D01*
X11640000Y8630000D02*
Y8680000D01*
X11390000Y8490000D02*
X11480000Y8400000D01*
X11590000Y8550000D02*
Y9160001D01*
X11440000Y8600000D02*
Y8680000D01*
X12140000Y7029735D02*
Y8080000D01*
X11290000Y8470000D02*
X11310000Y8450000D01*
Y7600000D02*
Y8450000D01*
X11220000Y7510000D02*
X11310000Y7600000D01*
X10960000Y8400000D02*
X11190000Y8630000D01*
Y9160001D01*
X11240000Y8590000D02*
Y8680000D01*
X11290000Y8470000D02*
Y9160001D01*
X11390000Y8490000D02*
Y9160001D01*
Y8150000D02*
Y8490000D01*
X11440000Y8600000D02*
X11620000Y8420000D01*
X11390000Y8150000D02*
X11450000Y8090000D01*
X11510000D01*
X11570000Y8030000D01*
Y7600000D02*
Y8030000D01*
X11480000Y7510000D02*
X11570000Y7600000D01*
X11350000Y8090000D02*
Y8670000D01*
X11340000Y8680000D02*
X11350000Y8670000D01*
X11910000Y8050000D02*
Y8360000D01*
X11640000Y8630000D02*
X11910000Y8360000D01*
Y8050000D02*
X12000000Y7960000D01*
X11910000Y6999732D02*
Y8050000D01*
X12260000Y8400000D02*
X12370000Y8290000D01*
Y7620000D02*
Y8290000D01*
X12260000Y7510000D02*
X12370000Y7620000D01*
X12000000Y8400000D02*
X12090000Y8310000D01*
Y7600000D02*
Y8310000D01*
X12000000Y7510000D02*
X12090000Y7600000D01*
X11620000Y8080000D02*
Y8420000D01*
X11720000Y8390000D02*
X11850000Y8260000D01*
Y7620000D02*
Y8260000D01*
X11740000Y7510000D02*
X11850000Y7620000D01*
X11120000Y7010000D02*
Y8060000D01*
X11220000Y7960000D01*
X11120000Y8060000D02*
Y8470000D01*
X11240000Y8590000D01*
X10960000Y8400000D02*
X11060000Y8300000D01*
Y7610001D02*
Y8300000D01*
X10960000Y7510000D02*
X11060000Y7610001D01*
X10850000Y7020000D02*
Y8070000D01*
X10960000Y7960000D01*
X10600000Y8060000D02*
X10700000Y7960000D01*
X10600000Y8060000D02*
Y8460000D01*
X10800000Y7610266D02*
Y8300000D01*
X10699734Y7510000D02*
X10800000Y7610266D01*
X10705000Y8395000D02*
X10800000Y8300000D01*
X10440000Y8400000D02*
X10550000Y8290000D01*
Y7620000D02*
Y8290000D01*
X10440000Y7510000D02*
X10550000Y7620000D01*
X10600000Y8460000D02*
X10660000Y8520000D01*
X10440000Y8400000D02*
X10610000Y8570000D01*
X10340000Y8060000D02*
X10440000Y7960000D01*
X10340000Y8060000D02*
Y8460000D01*
X10500000Y8620000D01*
X10760503D01*
X10790000Y8649497D01*
Y9160001D01*
X10850000Y8070000D02*
Y8450000D01*
X10990000Y8590000D01*
Y9160001D01*
X10610000Y8570000D02*
X10770000D01*
X10840000Y8640000D01*
Y8680000D01*
X10660000Y8520000D02*
X10780000D01*
X10890000Y8630000D01*
Y9160001D01*
X10700000Y8400000D02*
X10730000D01*
X10940000Y8610000D01*
Y8680000D01*
X10600000Y7010721D02*
Y8060000D01*
X10440000Y7330000D02*
Y7420000D01*
X10699734Y7330000D02*
Y7420000D01*
X10960000Y7330000D02*
Y7420000D01*
X11220000Y7330000D02*
Y7420000D01*
X11480000Y7330000D02*
Y7420000D01*
X11740000Y7330000D02*
Y7420000D01*
X12000000Y7330000D02*
Y7420000D01*
X12260000Y7330000D02*
Y7420000D01*
X12260000Y7780000D02*
Y7870000D01*
X12000000Y7780000D02*
Y7870000D01*
X11740000Y7780000D02*
Y7870000D01*
X11480000Y7780000D02*
Y7870000D01*
X11220000Y7780000D02*
Y7870000D01*
X10960000Y7780000D02*
Y7870000D01*
X10699735Y7780000D02*
Y7870000D01*
X10440000Y7780000D02*
Y7870000D01*
X12260000Y8220000D02*
Y8310000D01*
X12000000Y8220000D02*
Y8310000D01*
X11220000Y8220000D02*
Y8310000D01*
X10960000Y8220000D02*
Y8310000D01*
X10699735Y8220000D02*
Y8310000D01*
X10440000Y8220000D02*
Y8310000D01*
X11720000Y8210000D02*
Y8300000D01*
X12140000Y7029735D02*
X12259735Y6910000D01*
X11910000Y6999732D02*
X11999732Y6910000D01*
X11120000Y7010000D02*
X11220000Y6910000D01*
X10850000Y7020000D02*
X10960000Y6910000D01*
X10600000Y7010721D02*
X10700000Y6910721D01*
X12259735Y7090001D02*
Y7219735D01*
X7470000Y8190000D02*
X7550000Y8110000D01*
X7630000Y9140000D02*
Y9209200D01*
X8380000Y10180000D02*
X8490000Y10070000D01*
X8380000Y10180000D02*
Y10240000D01*
X7470000Y8500000D02*
X7519200D01*
X7530000Y8210000D02*
X7595700Y8144300D01*
Y8080700D02*
Y8144300D01*
X7555000Y8040000D02*
X7595700Y8080700D01*
X6750000Y8980000D02*
X6809200D01*
X7555000Y7925800D02*
Y8040000D01*
X7550000Y7920800D02*
X7555000Y7925800D01*
X6760800Y9060000D02*
X6830000D01*
X7550000Y10610000D02*
X7550000Y10610000D01*
X7680000D01*
X7550000Y10850000D02*
X7580000D01*
X7559200Y10350000D02*
X7740000Y10530800D01*
Y10690000D01*
X7580000Y10850000D02*
X7740000Y10690000D01*
X5910000Y11380000D02*
X5950000Y11340000D01*
X5840000Y11380000D02*
X5910000D01*
X10310000Y11592500D02*
Y11730000D01*
X11480000Y8220000D02*
Y8310000D01*
X10290000Y8620000D02*
Y8680000D01*
X10150000Y8480000D02*
X10290000Y8620000D01*
X10080000Y8480000D02*
X10150000D01*
X10140000Y8640000D02*
X10190000Y8590000D01*
X11140000Y10660000D02*
X11250000Y10770000D01*
X11000000Y10860000D02*
X11090000D01*
X11839733Y7190000D02*
Y7259735D01*
X11579733Y7190000D02*
Y7259735D01*
X11320000Y7190000D02*
Y7259735D01*
X11060000Y7190000D02*
Y7259735D01*
X10800000Y7190721D02*
Y7260456D01*
X10539735Y7190000D02*
Y7259735D01*
X10439735Y7090000D02*
X10539735Y7190000D01*
X10700000Y7090721D02*
X10800000Y7190721D01*
X10960000Y7090000D02*
X11060000Y7190000D01*
X11220000Y7090000D02*
X11320000Y7190000D01*
X11640000Y7009733D02*
X11739733Y6910000D01*
X11640000Y7009733D02*
Y8060000D01*
X11620000Y8080000D02*
X11640000Y8060000D01*
X11740000Y7960000D01*
X11479733Y7090000D02*
X11579733Y7190000D01*
X11739733Y7090000D02*
X11839733Y7190000D01*
X6370000Y7320000D02*
X6670000Y7020000D01*
X6370000Y7320000D02*
Y7850000D01*
X6627501Y8782500D02*
X6670001Y8740000D01*
X6410000Y8900000D02*
X6420800D01*
X6520000D01*
X6440000Y8800000D02*
X6490000Y8850000D01*
X6420800Y8800000D02*
X6440000D01*
X4630000Y12800000D02*
X4807501D01*
X4857500Y12750000D01*
X5150000Y13042500D01*
Y13220000D01*
X4630000Y12327500D02*
Y12480000D01*
X6245000Y12864999D02*
X6334338Y12954338D01*
X6320000Y11800000D02*
Y12325000D01*
X6430000Y12435000D01*
X6245000Y12727500D02*
Y12864999D01*
Y12727500D02*
X6430000Y12542500D01*
Y12435000D02*
Y12542500D01*
X6627500Y11837500D02*
X6767500Y11977500D01*
Y13012500D01*
X6730000Y13050000D02*
X6767500Y13012500D01*
X6470000Y11760000D02*
X6677500Y11967500D01*
Y12327500D01*
X6470000Y11910000D02*
Y12327500D01*
X6672500Y12530000D01*
X6700000D01*
X10830000Y11690000D02*
X10900000D01*
X10930000Y10790000D02*
X10990000D01*
X11050000Y10730000D01*
X11940000Y8880001D02*
X12140000Y8680000D01*
X11050000Y10410000D02*
Y10730000D01*
Y10410000D02*
X11940000Y9520000D01*
Y8880001D02*
Y9520000D01*
X7550000Y7730000D02*
Y7819200D01*
X5230000Y12760000D02*
X5320000D01*
X7470000Y9140000D02*
X7519200Y9090800D01*
X4290000Y10940000D02*
Y11030000D01*
X3670000Y10931000D02*
X3819999D01*
X3929999D01*
X3384840Y9780000D02*
X3574840Y9970000D01*
X4290000Y10850000D02*
X4310000Y10830000D01*
Y10700000D02*
Y10830000D01*
X3680000Y10430000D02*
X3810000Y10300000D01*
Y10220000D02*
Y10300000D01*
X3510000Y11370000D02*
X3530000Y11350000D01*
Y10840000D02*
Y11350000D01*
X3430999Y11010000D02*
X3479999D01*
X3050000Y12889999D02*
X3100000D01*
X2980000Y12820000D02*
X3050000Y12889999D01*
X2980000Y12190000D02*
X3050000Y12260000D01*
X3100000D01*
X5450000Y8090000D02*
X5670000D01*
X5730000Y8150000D01*
Y8290000D01*
X5820000Y8380000D01*
X5240000Y7880000D02*
X5450000Y8090000D01*
X5230000Y7880000D02*
X5240000D01*
X6910000Y9269200D02*
X6920000Y9279200D01*
X7309200Y8500000D02*
Y8579196D01*
X6600000Y8190000D02*
X6749988Y8339987D01*
X7470000Y8190000D02*
Y8249200D01*
X7180800Y8850800D02*
X7230000D01*
X7170800Y8959200D02*
X7230000D01*
X7210800Y9159200D02*
X7230000D01*
X7310000Y9140000D02*
X7389200D01*
X8847500Y8257500D02*
X8952500Y8152500D01*
Y8122500D02*
Y8152500D01*
X5820000Y8380000D02*
X5940000D01*
X9439600Y8535499D02*
X9441300Y8533800D01*
X5820000Y8220000D02*
X5910000D01*
X6990000Y8500800D02*
Y8503300D01*
Y8580000D01*
X7230000Y8260000D02*
Y8326700D01*
Y8332500D01*
X7470000Y8350800D02*
Y8353300D01*
Y8420000D01*
X6670000Y9380000D02*
X6670000Y9380000D01*
X6910000Y9220000D02*
Y9269200D01*
X6830000Y9220000D02*
Y9289200D01*
X6589987Y9059982D02*
X6639218D01*
X6524800Y9140000D02*
X6545700Y9119100D01*
X6588000Y9139000D02*
X6644200D01*
X7070000Y9140000D02*
Y9199200D01*
X7629999Y8660001D02*
Y8820000D01*
X6590800Y9380000D02*
X6605800D01*
X6670000D01*
X6482500Y9297500D02*
X6567500D01*
X6710000Y9420000D02*
X6750000Y9380000D01*
X6710000Y9420000D02*
Y9459200D01*
X6829986Y9390814D02*
Y9459981D01*
X7220000Y9570800D02*
Y9640000D01*
X6519488Y9808730D02*
X6630000Y9919242D01*
X6761270Y9761688D02*
X6879188D01*
X7885000Y7919200D02*
X7943300D01*
X7945000Y7917500D01*
X7690000Y8020000D02*
X7720000Y8050000D01*
Y8139200D01*
X7169871Y7795634D02*
X7311866D01*
X9290000Y10470800D02*
Y10536250D01*
Y10601700D01*
Y10292500D02*
X9381700D01*
X9381700Y10292500D01*
X9290000Y10703300D02*
X9354200D01*
X9181700Y10207500D02*
Y10269200D01*
X9483300Y10292500D02*
X9545000D01*
X9283300Y10207500D02*
X9348750D01*
X9414200D01*
X9824188Y10281230D02*
Y10399188D01*
X10001988Y10281230D02*
X10003218Y10280000D01*
X10102500D01*
X8141700Y9467500D02*
Y9548300D01*
X9368000Y9095500D02*
Y9122200D01*
X9405800Y9160000D01*
X9515800Y10207500D02*
X9580000D01*
X9150800Y10369200D02*
X9290000D01*
X9150000Y10370000D02*
X9150800Y10369200D01*
X9368000Y8855500D02*
X9371901Y8859400D01*
X8090000Y9600000D02*
X8141700Y9548300D01*
X8268300Y9442500D02*
X8342500D01*
X8243300Y9467500D02*
X8268300Y9442500D01*
X5940000Y8382500D02*
X5941250Y8381250D01*
X5940000Y8380000D02*
X5941250Y8381250D01*
X6030000Y8470000D01*
X7522500Y7527500D02*
X7610000D01*
X7550000Y7730000D02*
X7570000Y7710000D01*
X7642500Y7960000D02*
Y8090000D01*
X7667500Y7755000D02*
Y7837500D01*
X7830000Y8075800D02*
X7885000Y8020800D01*
X7830000Y8075800D02*
Y8080000D01*
X11350000Y8090000D02*
X11480000Y7960000D01*
X11350000Y7289839D02*
X11362500Y7277339D01*
X11350000Y7289839D02*
Y8090000D01*
X11362500Y7027233D02*
X11479733Y6910000D01*
X11362500Y7027233D02*
Y7277339D01*
X7815381Y7837119D02*
Y8014619D01*
Y7837119D02*
X7900000Y7752500D01*
X3520000Y12280000D02*
X3940000D01*
X4800000Y11370000D02*
X4900000D01*
X4090000Y12750000D02*
X4375000D01*
X4290001Y13200000D02*
X4430000Y13060001D01*
X5610000Y13400000D02*
X6005000D01*
X5830000Y12939999D02*
X6020000Y12750000D01*
X6005000Y13400000D02*
X6020000Y13385001D01*
X8579000Y7919300D02*
X8602759Y7895541D01*
X8649200Y8600000D02*
X8663502D01*
X7629999Y8820000D02*
Y8979999D01*
X7629200Y8980800D02*
Y9060000D01*
X8565400Y8699700D02*
X8641200D01*
X8558200Y8936300D02*
X8647202D01*
X8561200Y9093900D02*
X8646402D01*
X8896398Y8340902D02*
X8905500Y8331800D01*
X9045547Y8620547D02*
X9050601Y8615492D01*
X8807960Y8775542D02*
X8902151Y8681351D01*
X9304300Y9111799D02*
Y9161600D01*
X9368000Y8855500D02*
X9449200D01*
X5480000Y10250000D02*
X5524001Y10205999D01*
X5480000Y10090000D02*
X5590000D01*
X8582500Y10810000D02*
X8840000D01*
X7430000Y9782500D02*
X8365000Y10717500D01*
X8490000D01*
X8582500Y10810000D01*
X5910000Y8222500D02*
X5999999Y8132500D01*
X3047500Y10329000D02*
X3349999D01*
Y11091000D02*
X3430999Y11010000D01*
X3349999Y10149000D02*
X3398999D01*
X3479999Y10230000D01*
X3040000Y10149000D02*
X3349999D01*
X3395999Y10335000D02*
X3492500D01*
X3369999Y10309000D02*
X3395999Y10335000D01*
X6760800Y8580000D02*
X6830000D01*
X7085000Y8499200D02*
X7149200D01*
X7208399Y8558399D02*
X7230000D01*
X6750800Y9140000D02*
Y9219199D01*
X12029732Y7090000D02*
Y7219735D01*
X7630000Y9209200D02*
X7640800Y9220000D01*
X11230500Y10628000D02*
X11323000D01*
X7150000Y8660000D02*
X7230000D01*
X7319200Y8730800D02*
Y8749200D01*
X7519200Y8850800D02*
Y8900000D01*
X6489200Y9380000D02*
Y9449200D01*
X6710000Y9555800D02*
Y9645000D01*
X6910000Y9390800D02*
Y9460000D01*
X7310000Y8900000D02*
Y8980000D01*
X7519200Y9060000D02*
Y9090800D01*
X7470000Y9220000D02*
X7539200D01*
X8581159Y7815541D02*
X8647963D01*
X8382900Y8534800D02*
X8467500D01*
X8285000Y8804000D02*
X8305000Y8824000D01*
X8796700Y8677500D02*
Y8706760D01*
X13195000Y8965000D02*
Y9045000D01*
X10900000Y11690000D02*
X11040000Y11550000D01*
D49*
X7785504Y9737500D02*
X7838133Y9790129D01*
X7753004Y9737500D02*
X7785504D01*
X8042500Y9722500D02*
Y9789200D01*
X7863300Y9710000D02*
X7942500Y9789200D01*
X7055000Y8540000D02*
X7110000D01*
X7040000Y8525000D02*
X7055000Y8540000D01*
X7040000Y8470000D02*
Y8525000D01*
X7020000Y8450000D02*
X7040000Y8470000D01*
X6960000Y8450000D02*
X7020000D01*
X9207993Y8615492D02*
Y8620547D01*
X9240446Y8652999D01*
X8103500Y8699000D02*
X8196200D01*
X8022500Y8780000D02*
X8103500Y8699000D01*
X7751601Y8780000D02*
X8022500D01*
X8202500Y8692700D02*
X8203000Y8692200D01*
X8196200Y8699000D02*
X8202500Y8692700D01*
X8042500Y8940000D02*
X8081250Y8901250D01*
X8040000Y8860000D02*
X8081250Y8901250D01*
X7977500Y8860000D02*
X8040000D01*
X7937500Y8900000D02*
X7977500Y8860000D01*
Y8940000D02*
X8042500D01*
X7937500Y8900000D02*
X7977500Y8940000D01*
X7905000Y11745000D02*
X8206959D01*
X7010000Y10850000D02*
X7905000Y11745000D01*
X6670000Y10030000D02*
X7010000Y10370000D01*
Y10850000D01*
X6870000Y8310000D02*
X6880000Y8300000D01*
X6950000D02*
Y8440000D01*
X6960000Y8450000D01*
X6870000Y8310000D02*
Y8440000D01*
X6890000Y8460000D01*
X6930000D01*
X6950000Y8480000D01*
X7110000Y8540000D02*
X7150000Y8580000D01*
X6950000Y8480000D02*
Y8600000D01*
X6990000Y8640000D01*
Y8660000D01*
X6540000Y8880000D02*
X6560000Y8860000D01*
X6764800D02*
X6790000Y8834800D01*
Y8780000D02*
Y8834800D01*
Y8780000D02*
X6830000Y8740000D01*
X6560000Y8860000D02*
X6764800D01*
X6620000Y8970000D02*
X6650000Y8940000D01*
X7780000Y9710000D02*
X7863300D01*
X7589967Y9519967D02*
X7780000Y9710000D01*
X7920000Y9600000D02*
X8042500Y9722500D01*
X7710000Y9600000D02*
X7920000D01*
X7669985Y9559985D02*
X7710000Y9600000D01*
X7630000Y9300000D02*
X7669985Y9339985D01*
Y9559985D01*
X7549981Y9299981D02*
X7589967Y9339967D01*
Y9519967D01*
X8573100Y9013700D02*
X8589698D01*
X8630398Y8973000D01*
X8685502D01*
X8728002Y9015500D01*
X7310014Y9379981D02*
X7350000Y9419966D01*
Y9500000D01*
X9367961Y7895501D02*
X9372862Y7890600D01*
X7310017Y8179987D02*
X7350000Y8219970D01*
Y8539997D01*
X7389986Y8579983D01*
X6600838Y8596387D02*
X6664451Y8660000D01*
X7230000Y9380000D02*
X7270000Y9419999D01*
X7590000Y8320000D02*
X7610000Y8300000D01*
X7660800D01*
X7720000Y8240800D01*
X7270000Y9340000D02*
X7310000Y9300000D01*
X7210000Y9340000D02*
X7270000D01*
X7190000Y9360000D02*
X7210000Y9340000D01*
X7190000Y9419200D02*
X7220000Y9449200D01*
X7550000Y8580000D02*
X7580000Y8550000D01*
Y8480000D02*
Y8550000D01*
X7590000Y8320000D02*
Y8440000D01*
X7620800Y8470800D01*
X7560000Y8460000D02*
X7580000Y8480000D01*
X7530000Y8460000D02*
X7560000D01*
X7510000Y8440000D02*
X7530000Y8460000D01*
X7510000Y8230000D02*
Y8440000D01*
Y8230000D02*
X7530000Y8210000D01*
X6870000Y8939970D02*
X6909987Y8899982D01*
X6790000Y8900000D02*
X6830000D01*
X6787501Y8902499D02*
Y8915532D01*
Y8902499D02*
X6790000Y8900000D01*
X6763033Y8940000D02*
X6787501Y8915532D01*
X6650000Y8940000D02*
X6763033D01*
X6870000Y8939970D02*
Y9080000D01*
X6850000Y9100000D02*
X6870000Y9080000D01*
X6564800Y9100000D02*
X6850000D01*
X7430000Y9446961D02*
Y9500000D01*
X7390014Y9406976D02*
X7430000Y9446961D01*
X7390014Y9379981D02*
Y9406976D01*
X7470000Y9300000D02*
X7510000Y9340000D01*
Y9400000D01*
X7550000Y9440000D01*
Y9534496D01*
X6670000Y9340000D02*
X6670000D01*
X6664451Y8660000D02*
X6670000D01*
X6549970Y8940000D02*
X6589970Y8900000D01*
X6420000Y8940000D02*
X6549970D01*
X6370000Y8990000D02*
X6420000Y8940000D01*
X6370000Y8990000D02*
Y9490000D01*
X6430000Y9550000D01*
X8727963Y8295541D02*
X8766004Y8257500D01*
X8727963Y8295541D02*
X8769921Y8337500D01*
X8847500D01*
X8766004Y8257500D02*
X8847500D01*
X6545700Y9119100D02*
X6564800Y9100000D01*
X7092500Y9521700D02*
X7110000Y9504200D01*
X7270000Y9419999D02*
Y9670000D01*
X7110000Y9420000D02*
Y9504200D01*
X7190000Y9360000D02*
Y9419200D01*
X7110000Y9420000D02*
X7150000Y9380000D01*
X6930800Y9517500D02*
X6950800Y9497500D01*
X7030000Y9419968D02*
X7069987Y9379981D01*
X7012500Y9497500D02*
X7030000Y9480000D01*
X6950800Y9497500D02*
X7012500D01*
X7030000Y9419968D02*
Y9480000D01*
X6430000Y9550000D02*
Y9907500D01*
X6552500Y10030000D01*
X6670000D01*
X6630000Y9919242D02*
Y9939488D01*
X7642500Y7960000D02*
X7667500Y7935000D01*
X7550000Y9534496D02*
X7753004Y9737500D01*
X7710800Y8820800D02*
X7751601Y8780000D01*
X7620800Y8470800D02*
Y8500000D01*
X9240446Y8652999D02*
X9449200D01*
D50*
X8987500Y8680000D02*
X9112500D01*
X8931775Y8735725D02*
X8987500Y8680000D01*
X8931775Y8735725D02*
Y8798360D01*
X8727963Y7895541D02*
X8767942Y7935521D01*
X9082500Y7625000D02*
X9247982Y7790482D01*
X8365307Y7625000D02*
X9082500D01*
X7869200Y8121107D02*
X8365307Y7625000D01*
X9239740Y8887240D02*
X9288000Y8935500D01*
X8322175Y9080325D02*
X8360000Y9042500D01*
X8283040Y9034460D02*
X8315000Y9002500D01*
X9085000Y8857500D02*
X9114740Y8887240D01*
X9085000Y8797500D02*
Y8857500D01*
X9062500Y8775000D02*
X9085000Y8797500D01*
X8931765Y8930735D02*
X9007500Y8855000D01*
Y8797500D02*
Y8855000D01*
Y8797500D02*
X9030000Y8775000D01*
X8931765Y8930735D02*
Y9110735D01*
X8799660Y9242840D02*
X8931765Y9110735D01*
X8233265Y9242840D02*
X8799660D01*
X8182465Y9019965D02*
Y9192040D01*
X8142399Y8979899D02*
X8182465Y9019965D01*
X8042765Y8979899D02*
X8142399D01*
X8305000Y8035000D02*
X8357500Y8087500D01*
X8305000Y7885000D02*
Y8035000D01*
X8357500Y8087500D02*
X8397500D01*
X9160375Y8727875D02*
Y8762800D01*
X9112500Y8680000D02*
X9160375Y8727875D01*
X8397500Y8087500D02*
X8467500Y8157500D01*
X8397500Y8312500D02*
X8467500Y8242500D01*
Y8157500D02*
Y8242500D01*
X8185909Y8312500D02*
X8397500D01*
X7769979Y8420021D02*
X7869200Y8320800D01*
X8470000Y8025000D02*
X8520000Y7975000D01*
X8427500Y8025000D02*
X8470000D01*
X8373000Y7970500D02*
X8427500Y8025000D01*
X8578187Y7975000D02*
X8618717Y8015531D01*
X8520000Y7975000D02*
X8578187D01*
X8893698Y7953698D02*
Y7996302D01*
X8875520Y7935521D02*
X8893698Y7953698D01*
X8767942Y7935521D02*
X8875520D01*
X8874469Y8015531D02*
X8893698Y7996302D01*
X8618717Y8015531D02*
X8874469D01*
X8893665Y8887269D02*
X8970000Y8810935D01*
Y8757500D02*
Y8810935D01*
Y8757500D02*
X9012500Y8715000D01*
X9114740Y8887240D02*
X9239740D01*
X9030000Y8775000D02*
X9062500D01*
X9208000Y9095500D02*
Y9252000D01*
X9109230Y9350770D02*
X9208000Y9252000D01*
X8112625Y9350770D02*
X9109230D01*
X7902500Y9062500D02*
X7952500Y9012500D01*
Y8982500D02*
Y9012500D01*
X7930000Y8960000D02*
X7952500Y8982500D01*
X7902500Y9062500D02*
Y9140645D01*
X7892500Y8960000D02*
X7930000D01*
X7832540Y9019960D02*
X7892500Y8960000D01*
X9247970Y9055530D02*
X9288000Y9015500D01*
X7902500Y9140645D02*
X8112625Y9350770D01*
X9082500Y8715000D02*
X9122265Y8754765D01*
X9012500Y8715000D02*
X9082500D01*
X9122265Y8754765D02*
Y8836469D01*
X8232500Y9080000D02*
X8248039Y9095540D01*
X8232500Y9052500D02*
Y9080000D01*
Y9052500D02*
X8250540Y9034460D01*
X8248039Y9095540D02*
X8271375D01*
X8360000Y9020000D02*
Y9042500D01*
X8322175Y9080325D02*
Y9122175D01*
X8342500Y9002500D02*
X8360000Y9020000D01*
X8315000Y9002500D02*
X8342500D01*
X8250540Y9034460D02*
X8283040D01*
X8322175Y9122175D02*
X8360000Y9160000D01*
X8766441Y7854741D02*
X8938741D01*
X8988000Y7904000D01*
X9288000Y8695499D02*
X9327980Y8735479D01*
X8182465Y9192040D02*
X8233265Y9242840D01*
X9122265Y8836469D02*
X9134965Y8849169D01*
X9215585D01*
X9249265Y8815489D01*
X7750066Y9019960D02*
X7832540D01*
X8855575Y8874560D02*
X8931775Y8798360D01*
X9160375Y8762800D02*
X9173075Y8775500D01*
X9208000D01*
X9327980Y8735479D02*
Y8795855D01*
X9308346Y8815489D02*
X9327980Y8795855D01*
X9249265Y8815489D02*
X9308346D01*
X9247970Y9055530D02*
Y9359530D01*
X9215000Y9392500D02*
X9247970Y9359530D01*
X7750056Y9099980D02*
X7811016D01*
X8103535Y9392500D01*
X8257500Y7860000D02*
Y8175000D01*
X8085000Y8347500D02*
X8257500Y8175000D01*
X8085000Y8347500D02*
Y8617800D01*
X8042800Y8660000D02*
X8085000Y8617800D01*
X8257500Y7860000D02*
X8390000Y7727500D01*
X8949962D01*
X9118003Y7895541D01*
X8042800Y8290500D02*
Y8327330D01*
X7790070Y8580060D02*
X8042800Y8327330D01*
X8018248Y8740101D02*
X8125000Y8633349D01*
Y8373409D02*
X8185909Y8312500D01*
X8125000Y8373409D02*
Y8633349D01*
X8893665Y8887269D02*
Y9039669D01*
X8855575Y8874560D02*
Y9026960D01*
X8360000Y9160000D02*
X8722535D01*
X8741265Y9192069D02*
X8893665Y9039669D01*
X8722535Y9160000D02*
X8855575Y9026960D01*
X8103535Y9392500D02*
X9215000D01*
X7869200Y8121107D02*
Y8320800D01*
X8757422Y7765000D02*
X8807963Y7815541D01*
X8305000Y7885000D02*
X8425000Y7765000D01*
X8757422D01*
X8724400Y7812700D02*
X8766441Y7854741D01*
X7709986Y8420021D02*
X7769979D01*
X7710025Y9059950D02*
X7750056Y9099980D01*
X7710035Y8979930D02*
X7750066Y9019960D01*
X7789984Y8740101D02*
X8018248D01*
X8271365Y9192069D02*
X8741265D01*
D52*
X3060000Y9540000D02*
X3090000Y9510000D01*
X3240000D02*
X3250000Y9520000D01*
X7720000Y12160000D02*
Y12290000D01*
X8810000Y13000000D02*
X9800000D01*
X6090001Y10480000D02*
X6220000D01*
X9070000Y13120000D02*
X9270000D01*
X9420000Y12640000D02*
X9620000D01*
X8430000Y12620000D02*
X8810000Y13000000D01*
X9800000Y12310000D02*
Y12810001D01*
X9635000Y12145000D02*
X9800000Y12310000D01*
X9347500Y12145000D02*
X9635000D01*
X5730001Y10459999D02*
X5810002Y10540000D01*
X5730000Y10359999D02*
X5850000D01*
X6330000Y11430000D02*
X6370000Y11390000D01*
X6470000D01*
X6100000Y10270000D02*
X6130000Y10300000D01*
X6070000Y10459999D02*
X6090001Y10480000D01*
X3349999Y10710000D02*
X3472999D01*
X3827000Y10530000D02*
X3949999D01*
X3350000D02*
X3419999D01*
X3880000Y10710000D02*
X3949999D01*
X3949999D01*
X6710000Y11790000D02*
X6770000D01*
X6880000Y11680000D01*
X7460000Y12532240D02*
Y12630000D01*
X7400000Y12690000D02*
X7460000Y12630000D01*
X7071500Y12690000D02*
X7400000D01*
X7109500Y12090000D02*
X7400000D01*
X7460000Y12150000D01*
Y12247760D01*
X7740000Y12480000D02*
Y12590000D01*
X7520000Y12090000D02*
X7650000D01*
X7720000Y12160000D01*
X3250000Y9520000D02*
X3270000D01*
X5810002Y10540000D02*
X5850000D01*
X6890500Y12309000D02*
X7109500Y12090000D01*
X6890501Y12509001D02*
X7071500Y12690000D01*
X7460000Y12150000D02*
X7520000Y12090000D01*
X7520000Y12090000D01*
X7400000Y12090000D02*
X7520000D01*
X7530000D01*
X3790000Y10620000D02*
X3880000Y10710000D01*
X3419999Y10530000D02*
X3509999Y10620000D01*
X3472999Y10710000D02*
X3509999Y10747000D01*
X3790000Y10493000D02*
X3827000Y10530000D01*
X3090000Y9510000D02*
X3240000D01*
X6130000Y10300000D02*
X6220000D01*
X6750000Y11490000D02*
X6880000D01*
X9505000Y12745000D02*
X9600000Y12839999D01*
D53*
X11920000Y11400000D02*
Y11610000D01*
X11777500Y11640000D02*
X11840000D01*
X11750000Y11400000D02*
Y11612500D01*
X11780000Y11400000D02*
X11920000D01*
X12210000Y11402500D02*
X12212500Y11400000D01*
X12350000Y11640000D02*
X12380000Y11610000D01*
X12210000Y11612500D02*
X12237500Y11640000D01*
X13680000Y13030000D02*
X13700000Y13050000D01*
Y13200000D01*
X13420000Y13330000D02*
X13439999Y13350000D01*
X12839999Y11810000D02*
X12900000Y11870000D01*
X12580000Y11820000D02*
X12590000Y11810000D01*
X11750000Y11400000D02*
X11750000Y11400000D01*
X11750000Y11612500D02*
X11777500Y11640000D01*
X11890000D02*
X11920000Y11610000D01*
X11750000Y11400000D02*
X11780000D01*
X11430000Y11450000D02*
Y11580000D01*
Y11320000D02*
Y11450000D01*
X10690000Y11690000D02*
X10820000D01*
X9610000Y11170000D02*
X9770000D01*
X9810000Y11130000D01*
X9690000Y10950000D02*
X9820000D01*
X12212500Y11400000D02*
X12380000D01*
X12210000Y11402500D02*
Y11612500D01*
X12380000Y11400000D02*
Y11610000D01*
X12580000Y11820000D02*
Y12230000D01*
X12590000Y11810000D02*
X12839999D01*
X13420000Y13210001D02*
Y13330000D01*
D54*
X6540000Y8820000D02*
X6670000D01*
X11220000Y11480000D02*
X11250000Y11450000D01*
X6670000Y8820000D02*
X6750000Y8740000D01*
X10820000Y11690000D02*
X10830000D01*
X7140500Y12309000D02*
X7365000Y12307500D01*
X7140501Y12509001D02*
X7360000D01*
D55*
X10550000Y10660000D02*
X10680000D01*
X7722500Y8870000D02*
X7760000D01*
X7790000Y8900000D01*
X7710800Y8820800D02*
X7760000Y8870000D01*
X7710000Y8820000D02*
Y8900000D01*
Y8900000D02*
X7790000D01*
X8178750Y8901250D02*
X8202500Y8877500D01*
X8081250Y8901250D02*
X8178750D01*
X7790000Y8900000D02*
X7937500D01*
X10630000Y10460000D02*
X10660000D01*
X10439999Y10280000D02*
X10450000D01*
X10630000Y10460000D01*
X10080000Y10800000D02*
X10110000Y10830000D01*
X10080000Y10520000D02*
Y10800000D01*
X10020000Y10460000D02*
X10080000Y10520000D01*
X10180000Y10650000D02*
X10240000Y10710000D01*
X10320000D01*
X8202500Y8692700D02*
Y8877500D01*
X10830000Y11580000D02*
X10860000Y11550000D01*
X10180000Y10460000D02*
Y10650000D01*
D56*
X11640000Y11970000D02*
X11750000D01*
X11020000Y13150000D02*
Y13330000D01*
X10670000Y13389999D02*
X10960000D01*
X11020000Y12980000D02*
Y13150000D01*
X10940000Y12900000D02*
X11020000Y12980000D01*
X10670000Y12900000D02*
Y13389999D01*
X10730000Y12900000D02*
Y12939999D01*
Y12900000D02*
X10940000D01*
X10670000D02*
X10730000D01*
X13220000Y13220000D02*
X13410001Y13030000D01*
X12070000Y12730000D02*
X12290000D01*
X12942702Y13142702D02*
X13184302Y12901102D01*
X12610080Y12640000D02*
X13030000D01*
X12230000Y12210000D02*
Y12370000D01*
X12910001Y11820000D02*
X13110001Y11620000D01*
Y11570000D02*
Y11620000D01*
X12780000Y11640000D02*
X12860001D01*
X13420000Y11400000D02*
X13670000Y11650000D01*
X12740000Y11400000D02*
X13420000D01*
X13670000Y11650000D02*
Y12250000D01*
X13500000Y11095000D02*
X13535001D01*
X13680000Y10950000D01*
X13150000Y11820000D02*
X13410001D01*
X13239999Y13080000D02*
X13289999Y13130000D01*
X13410001Y13030000D02*
X13480000D01*
X13089999Y13220000D02*
X13220000D01*
X12939999Y13370000D02*
X13089999Y13220000D01*
X12939999Y13370000D02*
Y13400000D01*
X13160001Y12280000D02*
X13410840D01*
X13440840D01*
X12870000D02*
X12900000Y12250000D01*
X11460000Y11770000D02*
X11650000D01*
X12610080Y12640000D02*
X12620000Y12630080D01*
X12370080Y12880000D02*
X12500080Y12750000D01*
X11940000Y12880000D02*
X12370080D01*
X11700000Y12640000D02*
X11940000Y12880000D01*
X11700000Y12490000D02*
Y12640000D01*
X12500080Y12750000D02*
X12610080Y12640000D01*
X12550000Y12450000D02*
Y12560080D01*
X12620000Y12630080D01*
X13680000Y10680000D02*
Y10770000D01*
X13639999Y10640000D02*
X13680000Y10680000D01*
X12860001Y11640000D02*
X12930000Y11570000D01*
X10620000Y12450000D02*
X10780000D01*
X11990000Y12430000D02*
Y12490000D01*
X12060000Y12560000D01*
X11000000Y13280000D02*
X11020000Y13300000D01*
X10960000Y13389999D02*
X11020000Y13330000D01*
X10179160Y13380000D02*
X10380000D01*
X10180000Y12730000D02*
Y12889999D01*
X12070000Y11310000D02*
Y11440000D01*
X12300000Y11470000D02*
Y11517500D01*
X11840000Y11590000D02*
Y11640000D01*
X10460000Y12610000D02*
X10620000Y12450000D01*
X10460000Y12610000D02*
Y13300000D01*
X10380000Y13380000D02*
X10460000Y13300000D01*
X11704300Y13089999D02*
X12740000D01*
X12929601Y12900400D01*
X11750000Y11970000D02*
X11780000Y11940000D01*
X10844490Y13150000D02*
X11020000D01*
X10840000Y12780000D02*
Y12860001D01*
X12900000Y11870000D02*
Y12250000D01*
X12600000Y12280000D02*
X12870000D01*
X12580000Y12230000D02*
Y12270000D01*
X10830000Y12610000D02*
X10990000D01*
X13200000Y12640000D02*
X13420000D01*
D57*
X10880000Y11160000D02*
X10980000D01*
X9410000Y11340000D02*
X9610000D01*
X9650000Y11340000D02*
X9760000D01*
X9840000Y11260000D01*
X9950000Y11440000D02*
X10040000Y11350000D01*
Y11210000D02*
Y11350000D01*
X10010000Y11180000D02*
X10040000Y11210000D01*
X9870000Y11340000D02*
X9950000Y11260000D01*
X9870000Y11340000D02*
Y11550000D01*
X9950000Y11630000D01*
X10980000Y10990000D02*
X11040000D01*
X11130000Y11080000D01*
X11010000Y11930000D02*
X11150000Y11790000D01*
X11240000D01*
X9222500Y11672500D02*
X9377500Y11517500D01*
D58*
X5512500Y7280000D02*
X6120000Y7887500D01*
X5225000Y7280000D02*
X5512500D01*
X6120000Y7887500D02*
Y8407500D01*
X6215000Y7347500D02*
Y8365000D01*
X6270000Y7355008D02*
Y8340000D01*
X6090000Y7150000D02*
X6185000D01*
X6120000Y8407500D02*
X6532500Y8820000D01*
X6167500Y8387500D02*
X6562500Y8782500D01*
X6215000Y8365000D02*
X6590000Y8740000D01*
X6272908Y7354600D02*
X6572500Y7055008D01*
Y6935000D02*
Y7055008D01*
X6515000Y6877500D02*
X6572500Y6935000D01*
X6457500Y6877500D02*
X6515000D01*
X6185000Y7150000D02*
X6457500Y6877500D01*
X6215000Y7347500D02*
X6432500Y7130000D01*
Y7100000D02*
Y7130000D01*
X6395000Y7062500D02*
X6432500Y7100000D01*
X6350000Y7062500D02*
X6395000D01*
X6172500Y7240000D02*
X6350000Y7062500D01*
X6270000Y8340000D02*
X6590000Y8659999D01*
X5110000Y7165000D02*
X5225000Y7280000D01*
X5290000Y7185000D02*
X5337500Y7232500D01*
X5930000Y7150000D02*
X6020000Y7240000D01*
X6172500D01*
X5337500Y7232500D02*
X5927500D01*
X5990000Y7295000D01*
X6140000D01*
X6167500Y7322500D01*
Y8387500D01*
D60*
X13010001Y9015000D02*
Y9180000D01*
X13050000Y9492500D02*
X13214999D01*
X12822501Y9175000D02*
Y9520000D01*
X11770000Y11410000D02*
X11780000Y11400000D01*
X9910000Y10610000D02*
X9940000D01*
X9770000Y11440000D02*
Y11630000D01*
Y11640000D01*
X10310000Y11910000D02*
Y12060000D01*
X9670000Y10810000D02*
X9710000D01*
X12090000Y9160001D02*
X12599999Y9670000D01*
X9620000Y11550000D02*
Y11830000D01*
X9685017Y11747645D01*
X12599999Y9660000D02*
X12632499D01*
X13230000D01*
X12630000Y9830000D02*
Y9970000D01*
Y9830000D02*
X12920000D01*
X9710000Y10810000D02*
X9910000Y10610000D01*
X9685017Y11747645D02*
X9703191Y11724625D01*
X9770000Y11640000D01*
X10680000Y11690000D02*
Y11980000D01*
D63*
X7996500Y12870500D02*
X8366500D01*
X8000000Y12616500D02*
X8366500D01*
X6922500Y7527500D02*
X6990000Y7460000D01*
X6922500Y7620000D02*
Y7642500D01*
X6990000Y7460000D02*
Y7600000D01*
X7050000Y7360001D02*
Y7660000D01*
X6990000Y7380000D02*
Y7460000D01*
Y7300000D02*
Y7380000D01*
X9110000Y12250000D02*
X9230000Y12370000D01*
X8950000Y12090000D02*
X9110000Y12250000D01*
X9100000Y12400000D02*
Y12700000D01*
X8780000Y12080000D02*
X9100000Y12400000D01*
X8780000Y11940000D02*
Y12070000D01*
X9100000Y12700000D02*
X9280000Y12880000D01*
X8650000Y11810000D02*
X8780000Y11940000D01*
X7880000Y12780080D02*
X8000000Y12900079D01*
X7880000Y12310000D02*
Y12780080D01*
Y12310000D02*
X8045000Y12145000D01*
X8347500D01*
X5290000Y9060000D02*
X5410000D01*
X5530000D01*
X5410000Y8880000D02*
X5530000D01*
X5290000D02*
X5410000D01*
X4860000D02*
X5040000D01*
X5290000D01*
X4550000Y9030000D02*
X4660000D01*
X4390000Y9100000D02*
X4480000D01*
X4810000Y8880000D02*
X4860000D01*
X5750000Y9060000D02*
X5940000D01*
X5750000Y8880000D02*
X5940000D01*
X6060000D01*
X5940000Y9060000D02*
X6060000D01*
X4480000Y9100000D02*
X4550000Y9030000D01*
X4660000D02*
X4810000Y8880000D01*
X6922500Y7527500D02*
Y7590000D01*
Y7620000D01*
X6990000Y7300000D02*
X7050000Y7360001D01*
D65*
X10090000Y8310000D02*
X10340000Y8560000D01*
X9900000Y8160000D02*
X9990000D01*
X9900000Y8640000D02*
X9990000D01*
X9900000Y8480000D02*
X9990000D01*
X9900000Y8320000D02*
X9990000D01*
D66*
X13650000Y13400000D02*
D03*
D67*
X3157499Y11790001D02*
D03*
Y13060001D02*
D03*
Y12425001D02*
D03*
X3212500Y13385001D02*
D03*
Y12750001D02*
D03*
X4352499Y12115001D02*
D03*
Y12750001D02*
D03*
X3212500Y12115001D02*
D03*
X4352499Y13385001D02*
D03*
X4407499Y11790001D02*
D03*
Y12425001D02*
D03*
Y13060001D02*
D03*
X4802500Y11790001D02*
D03*
Y13060001D02*
D03*
Y12425001D02*
D03*
X4857500Y13385001D02*
D03*
Y12750001D02*
D03*
X5997500Y12115001D02*
D03*
Y12750001D02*
D03*
X4857500Y12115001D02*
D03*
X5997500Y13385001D02*
D03*
X6052500Y11790001D02*
D03*
Y12425001D02*
D03*
Y13060001D02*
D03*
D68*
X6890501Y12509001D02*
D03*
X7140501D02*
D03*
X6890501Y12309001D02*
D03*
X7140501D02*
D03*
D69*
X8347501Y13395001D02*
D03*
X9347501D02*
D03*
Y12145001D02*
D03*
X8347501D02*
D03*
X8097501Y12395001D02*
D03*
X9597501D02*
D03*
X8847501D02*
D03*
D70*
X11204300Y12779100D02*
D03*
X11704300Y12469100D02*
D03*
Y13089101D02*
D03*
D71*
X13184302Y13409099D02*
D03*
X12930302Y12901099D02*
D03*
X12676302D02*
D03*
Y13409099D02*
D03*
X13184302Y12901099D02*
D03*
D72*
X13010001Y9015000D02*
D03*
X13623000Y9480000D02*
D03*
Y9310000D02*
D03*
X13410001Y10180000D02*
D03*
X13670000D02*
D03*
X10970000Y10530000D02*
D03*
X10980000Y11410000D02*
D03*
X10439999Y10280000D02*
D03*
X10270000Y10240000D02*
D03*
X12232000Y9140000D02*
D03*
X12359000D02*
D03*
X12090000Y10180000D02*
D03*
X12359000Y9680000D02*
D03*
D73*
X3140000Y9512500D02*
D03*
X9110000Y12250000D02*
D03*
X5730001Y10459999D02*
D03*
X5730000Y10359999D02*
D03*
X4890000Y10600000D02*
D03*
X5160000Y10690000D02*
D03*
X6100000Y10270000D02*
D03*
X6330000Y11430000D02*
D03*
X6070000Y10459999D02*
D03*
X13200000Y11120000D02*
D03*
X3370000Y9690000D02*
D03*
X4390000Y8900000D02*
D03*
X5030000Y9170000D02*
D03*
X5410000Y9060000D02*
D03*
Y8880000D02*
D03*
X6060000Y9060000D02*
D03*
Y8880000D02*
D03*
X4390000Y9100000D02*
D03*
Y9000000D02*
D03*
Y9200000D02*
D03*
X6750000Y11490000D02*
D03*
X6710000Y11790000D02*
D03*
X7740000Y12590000D02*
D03*
X6350000Y11280000D02*
D03*
X6330000Y11540000D02*
D03*
X3790000Y10620000D02*
D03*
X3509999Y10620000D02*
D03*
X3509999Y10747000D02*
D03*
X3790000Y10493000D02*
D03*
D74*
X8727999Y8695508D02*
D03*
X6750018Y8419987D02*
D03*
X6670018D02*
D03*
X6590018D02*
D03*
X6510018D02*
D03*
X8646300Y8697202D02*
D03*
X7132500Y10310000D02*
D03*
X7282500D02*
D03*
X7167500Y10910000D02*
D03*
X7352500D02*
D03*
X7125000Y9700000D02*
D03*
X11220000Y10865530D02*
D03*
X8727963Y7895541D02*
D03*
X8647963D02*
D03*
X9288000Y8935500D02*
D03*
X9207993Y8615492D02*
D03*
X9207963Y8455542D02*
D03*
X9287961Y8375502D02*
D03*
X7710000Y8900000D02*
D03*
X8395500Y8816500D02*
D03*
X5410000Y7540000D02*
D03*
X5620000Y7537500D02*
D03*
X5987500Y8047500D02*
D03*
X6370000Y8020000D02*
D03*
X6450000D02*
D03*
X6450000Y7930000D02*
D03*
X5985000Y7977500D02*
D03*
X5910000Y8070000D02*
D03*
X6480000Y8200000D02*
D03*
X8271400Y9191900D02*
D03*
X8525000Y8842500D02*
D03*
X8015000Y8900000D02*
D03*
X8449208Y8366661D02*
D03*
X8550736D02*
D03*
X6590000Y9220000D02*
D03*
X6510000D02*
D03*
X9617500Y8537500D02*
D03*
X9247982Y7790482D02*
D03*
X9208003Y7895541D02*
D03*
X9098003Y7798041D02*
D03*
X9118003Y7895541D02*
D03*
X8197500Y7731671D02*
D03*
X8648002Y9095500D02*
D03*
X9207961Y8215502D02*
D03*
X8807963Y8215541D02*
D03*
X9207961Y7975501D02*
D03*
X9287961D02*
D03*
X9620000Y8649000D02*
D03*
X9625000Y8752500D02*
D03*
X9368000Y8695499D02*
D03*
X9288000D02*
D03*
X8728002Y8535499D02*
D03*
Y8375542D02*
D03*
X7790000Y8820015D02*
D03*
X8042726Y8540057D02*
D03*
X7789984Y8740016D02*
D03*
X8042800Y8660000D02*
D03*
X8807963Y7815541D02*
D03*
X8387000Y8696000D02*
D03*
X11230500Y10628000D02*
D03*
X8387400Y8936300D02*
D03*
X9270000Y11340000D02*
D03*
X4800000Y11370000D02*
D03*
X5270000Y11640000D02*
D03*
X9800000Y10660000D02*
D03*
X13189999Y6990100D02*
D03*
X13500000Y7160000D02*
D03*
X10010000Y8030000D02*
D03*
X9419981Y10479979D02*
D03*
X9630000Y10650000D02*
D03*
X6760000Y10040000D02*
D03*
X6870000Y9890000D02*
D03*
X9210000Y11110000D02*
D03*
X8610000Y11090000D02*
D03*
Y10920000D02*
D03*
X8420000Y10800000D02*
D03*
X6030000Y8560000D02*
D03*
X6490000Y8850000D02*
D03*
X6430000Y9490000D02*
D03*
X6370000Y9550000D02*
D03*
X6830000Y8260000D02*
D03*
X6830000Y8340000D02*
D03*
X6910000D02*
D03*
X6989948Y8340051D02*
D03*
X6710000Y9645000D02*
D03*
X6750000Y8660000D02*
D03*
X6830000Y8740000D02*
D03*
X6590000Y8740000D02*
D03*
X6830000Y8820000D02*
D03*
X5214839Y10495000D02*
D03*
X8373000Y7970500D02*
D03*
X7629999Y8820000D02*
D03*
X9287961Y8295502D02*
D03*
X8807960Y8775542D02*
D03*
X8727960Y8775500D02*
D03*
X9615000Y8967500D02*
D03*
X9620000Y8855000D02*
D03*
X4380000Y9870000D02*
D03*
X4780000Y10010000D02*
D03*
X5220000Y9520000D02*
D03*
Y9600000D02*
D03*
X6010000Y9310000D02*
D03*
X5840000Y11510000D02*
D03*
X10390000Y9160001D02*
D03*
X10708000Y9530000D02*
D03*
X10454000Y9520000D02*
D03*
X10517500Y9562000D02*
D03*
X10581000Y9590000D02*
D03*
X10644500Y9632000D02*
D03*
X7950000Y9710000D02*
D03*
X7800000Y9660000D02*
D03*
X7710000Y9540000D02*
D03*
X5600000Y6880000D02*
D03*
X4210000D02*
D03*
X3990000D02*
D03*
X6090000D02*
D03*
X5930000D02*
D03*
X5270000D02*
D03*
X5110000D02*
D03*
X4700000Y6880000D02*
D03*
X4460000Y6880000D02*
D03*
X7790019Y9380018D02*
D03*
X7949986Y9539981D02*
D03*
X7710001Y8500000D02*
D03*
Y8420000D02*
D03*
X7790000Y8980000D02*
D03*
X7710001D02*
D03*
Y9060000D02*
D03*
X7790000D02*
D03*
X9677000Y8310000D02*
D03*
X8382900Y8534800D02*
D03*
X8391200Y9081400D02*
D03*
X8372988Y8226961D02*
D03*
X9368000Y9095500D02*
D03*
X9288000Y9015500D02*
D03*
X9368000D02*
D03*
X9208000Y8775500D02*
D03*
Y8695499D02*
D03*
X9367961Y8135502D02*
D03*
X9287961D02*
D03*
X9207961Y8055502D02*
D03*
X9287961D02*
D03*
X9367961D02*
D03*
Y7975501D02*
D03*
Y7895501D02*
D03*
Y7815501D02*
D03*
X8647963Y7815541D02*
D03*
X8807963Y7895541D02*
D03*
X8727963Y7975541D02*
D03*
X8647963D02*
D03*
Y8055541D02*
D03*
X8727963D02*
D03*
X8807963Y8135541D02*
D03*
X8727963D02*
D03*
X8647963D02*
D03*
X8807963Y8055541D02*
D03*
X8647963Y8295541D02*
D03*
X8727963D02*
D03*
X8887960Y8775500D02*
D03*
X8648002Y8935500D02*
D03*
Y9015500D02*
D03*
X8728002D02*
D03*
X8808002Y8935500D02*
D03*
Y9015500D02*
D03*
X8648002Y8535499D02*
D03*
X8807963Y7975541D02*
D03*
X8042800Y8290500D02*
D03*
X8271401Y8976166D02*
D03*
X8728002Y8935500D02*
D03*
X8286199Y7604661D02*
D03*
X8042765Y8979899D02*
D03*
X9208000Y9095500D02*
D03*
X9288000D02*
D03*
X8271375Y9095540D02*
D03*
X9288000Y8615499D02*
D03*
X9368000Y8535499D02*
D03*
Y8615499D02*
D03*
X9288000Y8855500D02*
D03*
X9368000Y8775500D02*
D03*
X9288000D02*
D03*
X7709986Y9219982D02*
D03*
X7790000Y9220000D02*
D03*
Y8500000D02*
D03*
X7710000Y8580000D02*
D03*
X7789986Y9139982D02*
D03*
X7710000Y9300000D02*
D03*
X7790000Y8580000D02*
D03*
X7070000Y8660000D02*
D03*
X7150000Y8820000D02*
D03*
Y8900000D02*
D03*
Y8660000D02*
D03*
X7310000Y8660000D02*
D03*
X7390000D02*
D03*
X7310000Y8820000D02*
D03*
X6750000Y8980000D02*
D03*
X7070000D02*
D03*
X7150000D02*
D03*
Y9220000D02*
D03*
X7310000Y9140000D02*
D03*
X7630000Y8180000D02*
D03*
X7470000Y8820000D02*
D03*
Y8980000D02*
D03*
X7550000Y8820000D02*
D03*
X7470000Y9140000D02*
D03*
X6749988Y8819982D02*
D03*
X7229987Y8499983D02*
D03*
X7470000Y8580000D02*
D03*
X6990000Y8660000D02*
D03*
X7710000Y8820000D02*
D03*
X7310000Y8420000D02*
D03*
X7469986Y9459981D02*
D03*
X7630000Y8420000D02*
D03*
X6990000Y8820000D02*
D03*
X7150000Y8740000D02*
D03*
X7469983Y8659983D02*
D03*
X7630000Y8260000D02*
D03*
X7709986Y9459981D02*
D03*
X7389986Y8579983D02*
D03*
X6910000Y8420000D02*
D03*
X7790000Y8340000D02*
D03*
X6830000Y8580000D02*
D03*
Y9060000D02*
D03*
X6990000Y9300000D02*
D03*
X7150000Y8500000D02*
D03*
Y9300000D02*
D03*
X7390000D02*
D03*
X7470000D02*
D03*
X7549981Y9299981D02*
D03*
X7630000Y9300000D02*
D03*
X7709986Y9139982D02*
D03*
X7069987Y8259983D02*
D03*
Y8419983D02*
D03*
X7390000Y8420000D02*
D03*
X7710000Y8340000D02*
D03*
X7470000Y8420000D02*
D03*
X6589988Y8339987D02*
D03*
X7150000Y8340000D02*
D03*
X7550000Y8260000D02*
D03*
X6670000Y9220000D02*
D03*
X6910000Y8500000D02*
D03*
X6909987Y8899982D02*
D03*
X7310000Y9300000D02*
D03*
X7630000Y8340000D02*
D03*
X6669988Y8339987D02*
D03*
X7630000Y8980000D02*
D03*
X7789986Y9299981D02*
D03*
X7150000Y8420000D02*
D03*
X7070000Y8820000D02*
D03*
X7230000Y8260000D02*
D03*
X6990000Y9060000D02*
D03*
X7310000Y8980000D02*
D03*
X7390000Y8820000D02*
D03*
X6989987Y8979982D02*
D03*
X6910000Y9060000D02*
D03*
X7309987Y9219982D02*
D03*
X6830000Y8900000D02*
D03*
X6990000Y8580000D02*
D03*
X7630000Y9140000D02*
D03*
X7629986Y8579983D02*
D03*
X7710000Y8660000D02*
D03*
X7470000Y8500000D02*
D03*
X6910000Y8580000D02*
D03*
Y8819999D02*
D03*
X7150000Y8580000D02*
D03*
X7310000Y9060000D02*
D03*
X7150000Y9140000D02*
D03*
X7549986Y8659983D02*
D03*
X7390000Y8980000D02*
D03*
X7550000D02*
D03*
Y8420000D02*
D03*
Y8580000D02*
D03*
Y9140000D02*
D03*
X7630000Y8660000D02*
D03*
X7470000Y9220000D02*
D03*
X7710000Y8740000D02*
D03*
X7790000Y8260000D02*
D03*
X7550000Y8340000D02*
D03*
X7150017Y8179987D02*
D03*
X7389987Y8179983D02*
D03*
X7310017Y8179987D02*
D03*
X7230017D02*
D03*
X7070017D02*
D03*
X7555000Y8040000D02*
D03*
X6840000Y7560000D02*
D03*
X6900000Y7650000D02*
D03*
Y7590000D02*
D03*
X7389987Y8259983D02*
D03*
X7310017Y8259957D02*
D03*
X7390000Y8340000D02*
D03*
X6870000Y7420000D02*
D03*
Y6930000D02*
D03*
X6680000D02*
D03*
X6490000Y6930000D02*
D03*
X7149987Y8259983D02*
D03*
X6450000Y7430000D02*
D03*
X4280000Y8190000D02*
D03*
X4770000Y7980000D02*
D03*
X4940000Y8380000D02*
D03*
X4390000Y9340000D02*
D03*
X10527499Y11329999D02*
D03*
X10407499D02*
D03*
X10287499D02*
D03*
X10210000Y11012500D02*
D03*
Y11132500D02*
D03*
Y11252500D02*
D03*
X6340000Y11700000D02*
D03*
X10480000Y10740000D02*
D03*
X4430000Y7530000D02*
D03*
X4500000D02*
D03*
X4910000Y10730000D02*
D03*
X4930000Y10490000D02*
D03*
X4590000Y10690000D02*
D03*
X5590000Y10090000D02*
D03*
Y10205999D02*
D03*
X6150000Y10860000D02*
D03*
X6100000Y10380000D02*
D03*
X5745480Y10586999D02*
D03*
X6190000Y10068999D02*
D03*
X3355019Y9585019D02*
D03*
X3390000Y9460000D02*
D03*
X6320000Y12415000D02*
D03*
X6334338Y13199071D02*
D03*
X6320000Y11800000D02*
D03*
X6120000Y10586999D02*
D03*
X5214839Y10820000D02*
D03*
X6670000Y11550000D02*
D03*
Y11677000D02*
D03*
X2760000Y9680000D02*
D03*
Y9550000D02*
D03*
Y9615000D02*
D03*
Y9810000D02*
D03*
X3730000Y10090000D02*
D03*
X3479999Y10423000D02*
D03*
X3010000Y11140000D02*
D03*
X4290000Y10630000D02*
D03*
X3760000Y11820000D02*
D03*
X3010000Y10940000D02*
D03*
X4290000Y10430000D02*
D03*
X3810000Y12280000D02*
D03*
X3940000Y11460000D02*
D03*
X3500000Y13289999D02*
D03*
X3670000Y12090000D02*
D03*
X4090000Y12839999D02*
D03*
X3520000Y12370000D02*
D03*
X3100000Y12889999D02*
D03*
X3819999Y11010000D02*
D03*
X8206959Y11745000D02*
D03*
Y11875000D02*
D03*
X8440000Y11745000D02*
D03*
X10409999Y10927499D02*
D03*
X10529999D02*
D03*
X10289999D02*
D03*
X10609999Y11007499D02*
D03*
Y11127499D02*
D03*
Y11247499D02*
D03*
X10740000Y8680000D02*
D03*
X10640000D02*
D03*
X4589999Y10820000D02*
D03*
Y10560000D02*
D03*
X5214839Y10625000D02*
D03*
X4750000Y12900000D02*
D03*
X5150000Y12390000D02*
D03*
X5430000Y12939999D02*
D03*
X5620000Y12550000D02*
D03*
X5770000Y12120000D02*
D03*
X5060000Y12300000D02*
D03*
X5270000Y11440000D02*
D03*
X5630000D02*
D03*
X5540000Y12220000D02*
D03*
X5630000Y11630000D02*
D03*
X3420000Y11550000D02*
D03*
X4900000Y11440000D02*
D03*
X6030000Y10840999D02*
D03*
Y10078999D02*
D03*
X6669988Y8979982D02*
D03*
X7309987Y8579983D02*
D03*
X7070000Y8740000D02*
D03*
X6750000Y8500000D02*
D03*
X7789982Y9459981D02*
D03*
X4589999Y10625000D02*
D03*
X2860000Y7170000D02*
D03*
X3940000Y11280000D02*
D03*
X4210000Y7060000D02*
D03*
X3990000D02*
D03*
X2880000Y8676000D02*
D03*
X2960000Y8168000D02*
D03*
X2880000D02*
D03*
Y7914000D02*
D03*
X5110000Y7060000D02*
D03*
X5930000D02*
D03*
X6090000D02*
D03*
X5600000D02*
D03*
X5770000D02*
D03*
X5430000D02*
D03*
X5270000D02*
D03*
X3360000Y9520000D02*
D03*
X5510000Y10560000D02*
D03*
X6750000Y8899999D02*
D03*
X6589970Y8900000D02*
D03*
X6730000Y13139999D02*
D03*
X5510000Y12440000D02*
D03*
X7000000Y13189999D02*
D03*
X6910000Y13280000D02*
D03*
X7160000Y13220000D02*
D03*
X7250000Y13130000D02*
D03*
X5780000Y11930000D02*
D03*
X6970000Y12880000D02*
D03*
X7150000D02*
D03*
X6800000Y10860000D02*
D03*
X6170000Y10140000D02*
D03*
X6030000Y10332999D02*
D03*
X6150000Y10720000D02*
D03*
X6590001Y8500000D02*
D03*
X6670001D02*
D03*
X6450000Y7790000D02*
D03*
Y7860000D02*
D03*
Y7720000D02*
D03*
X6670000Y8900000D02*
D03*
X6530000Y8160000D02*
D03*
X4390000Y8820000D02*
D03*
Y8760000D02*
D03*
Y8700000D02*
D03*
Y8640000D02*
D03*
X6660000Y10930000D02*
D03*
X6560000Y10990000D02*
D03*
X2960000Y8930000D02*
D03*
X2880000D02*
D03*
X2960000Y8676000D02*
D03*
X3810000Y9210000D02*
D03*
X3850000Y9550000D02*
D03*
X4940000Y8540000D02*
D03*
X4590000Y9630000D02*
D03*
X6450000Y7650000D02*
D03*
X6430000Y7590000D02*
D03*
X5730000Y8700000D02*
D03*
Y8540000D02*
D03*
X5820000Y7980000D02*
D03*
X6180000Y9320000D02*
D03*
X4570000Y8090000D02*
D03*
X4220000Y7850000D02*
D03*
X6180000Y9140000D02*
D03*
X5860000Y9860000D02*
D03*
Y9680000D02*
D03*
X5721000Y9224000D02*
D03*
X5640000Y8880000D02*
D03*
X4570000Y8240000D02*
D03*
X4190000Y8090000D02*
D03*
X4390000Y8240000D02*
D03*
X5140000Y8170000D02*
D03*
X5428740Y8760000D02*
D03*
X10410000Y11580000D02*
D03*
X10135000Y11417500D02*
D03*
X10065000Y11430000D02*
D03*
X9760000Y11260000D02*
D03*
X10880000Y11160000D02*
D03*
X10880000Y11230000D02*
D03*
X10797500Y11440000D02*
D03*
X11500000Y10290000D02*
D03*
X10660000Y11840000D02*
D03*
X10120000Y12050000D02*
D03*
X10850000Y11400000D02*
D03*
X11430000Y10920000D02*
D03*
X10580000Y11580000D02*
D03*
X10940000Y8680000D02*
D03*
X7190000Y7260000D02*
D03*
X7190000Y7180000D02*
D03*
X7200000Y7340000D02*
D03*
X7320000Y7130000D02*
D03*
X7270000Y7180000D02*
D03*
X2880000Y8422000D02*
D03*
X2960000D02*
D03*
X3050000Y7910000D02*
D03*
X6450000Y7530000D02*
D03*
X7642500Y8090000D02*
D03*
X7310000Y7640000D02*
D03*
X10771500Y9572000D02*
D03*
X10898500D02*
D03*
X11025500D02*
D03*
X11152500D02*
D03*
X11279500D02*
D03*
X11406500D02*
D03*
X11533500D02*
D03*
X11660500D02*
D03*
X11787500D02*
D03*
X11914500Y9622000D02*
D03*
X12041500Y9572000D02*
D03*
X10590000Y9160001D02*
D03*
X10840000Y8680000D02*
D03*
X11140000D02*
D03*
X11040000D02*
D03*
X11940000D02*
D03*
X11440000D02*
D03*
X12040000D02*
D03*
X12140000D02*
D03*
X10790000Y9160001D02*
D03*
X11090000D02*
D03*
X10990000D02*
D03*
X10890000D02*
D03*
X11590000Y9160001D02*
D03*
X11790000Y9160001D02*
D03*
X11690000D02*
D03*
X11990000D02*
D03*
X11890000Y9160001D02*
D03*
X12090000Y9160001D02*
D03*
X10490000D02*
D03*
X10540000Y8680000D02*
D03*
X10835000Y9530000D02*
D03*
X11216000D02*
D03*
X11343000D02*
D03*
X11089000D02*
D03*
X10962000D02*
D03*
X11724000D02*
D03*
X11851000D02*
D03*
X11597000D02*
D03*
X12105000D02*
D03*
X11978000Y9560000D02*
D03*
X10073000Y9530000D02*
D03*
X9946000D02*
D03*
X10200000D02*
D03*
X10136500Y9572000D02*
D03*
X10009500D02*
D03*
X11470000Y9530000D02*
D03*
X7552500Y8110000D02*
D03*
X7870000Y9540000D02*
D03*
X7790000D02*
D03*
X7880000Y9650000D02*
D03*
X12163500Y9572000D02*
D03*
X7629981Y9459981D02*
D03*
X10690000Y9160001D02*
D03*
X7310000Y9460000D02*
D03*
X7389986Y9459981D02*
D03*
X7230000Y9380000D02*
D03*
X7390014Y9379981D02*
D03*
X7470014D02*
D03*
X7550014D02*
D03*
X7310014D02*
D03*
X7710014D02*
D03*
X7630000Y9380000D02*
D03*
X8959712Y9174605D02*
D03*
X6800000Y10670000D02*
D03*
X7189985Y10209980D02*
D03*
X7077500Y10260000D02*
D03*
X7119980Y10860020D02*
D03*
X7249965Y10810000D02*
D03*
X8840000Y10360001D02*
D03*
Y10810000D02*
D03*
X8840000Y10280000D02*
D03*
X8580000Y10240000D02*
D03*
X6940000Y9890000D02*
D03*
X7010000D02*
D03*
X8840000Y10440000D02*
D03*
X8580000Y10480000D02*
D03*
X7990000Y10730000D02*
D03*
X7480000Y10350000D02*
D03*
X7730000Y10310000D02*
D03*
X7720000Y10409200D02*
D03*
X7830000Y10550000D02*
D03*
X11840000Y8680000D02*
D03*
X11740000D02*
D03*
X11640000D02*
D03*
X11390000Y9160001D02*
D03*
X11490000Y9160001D02*
D03*
X11540000Y8680000D02*
D03*
X11290000Y9160001D02*
D03*
X11190000Y9160001D02*
D03*
X11240000Y8680000D02*
D03*
X11340000D02*
D03*
X10440000Y7420000D02*
D03*
X10699734Y7420000D02*
D03*
X10960000Y7420000D02*
D03*
X11220000D02*
D03*
X11480000D02*
D03*
X11740000D02*
D03*
X12000000D02*
D03*
X12260000D02*
D03*
X12260000Y7870000D02*
D03*
X12000000D02*
D03*
X11740000D02*
D03*
X11480000D02*
D03*
X11220000D02*
D03*
X10960000D02*
D03*
X10699735Y7870000D02*
D03*
X10440000Y7870000D02*
D03*
X12260000Y8310000D02*
D03*
X12000000D02*
D03*
X11480000D02*
D03*
X11220000D02*
D03*
X10960000D02*
D03*
X10699735Y8310000D02*
D03*
X10440000Y8310000D02*
D03*
X11720000Y8300000D02*
D03*
X10539735Y7259735D02*
D03*
X10800000Y7260456D02*
D03*
X11060000Y7259735D02*
D03*
X11320000D02*
D03*
X11579733D02*
D03*
X11839733Y7259735D02*
D03*
X12029732Y7219735D02*
D03*
X12259735Y7219735D02*
D03*
X6180000Y8940000D02*
D03*
X8150000Y9620000D02*
D03*
X8380000Y10240000D02*
D03*
X7690000Y8020000D02*
D03*
X6100000Y8750000D02*
D03*
X7680000Y10610000D02*
D03*
X5840000Y11380000D02*
D03*
X9520000Y10480000D02*
D03*
X13200000Y8520000D02*
D03*
X12930000Y8630000D02*
D03*
X9990000Y8160000D02*
D03*
X10340000Y8560000D02*
D03*
X10290000Y8680000D02*
D03*
X10190000Y8590000D02*
D03*
X13035001Y7615000D02*
D03*
X13289999Y8520000D02*
D03*
X13130000Y8270000D02*
D03*
X13200000Y7510000D02*
D03*
X13300000D02*
D03*
X10150000Y9160000D02*
D03*
X10240000Y9160001D02*
D03*
X11000000Y10860000D02*
D03*
X9990000Y8640000D02*
D03*
Y8480000D02*
D03*
Y8320000D02*
D03*
X9780000Y10470000D02*
D03*
X11250000Y10770000D02*
D03*
X11000000Y10700000D02*
D03*
X9880000Y11040000D02*
D03*
X10580000Y10740000D02*
D03*
X13080000Y7920000D02*
D03*
X7450000Y7150000D02*
D03*
X6670000Y7020000D02*
D03*
X9497500Y11505000D02*
D03*
X6490000Y9450000D02*
D03*
Y9520000D02*
D03*
X6590000Y8659999D02*
D03*
X6670000Y8660000D02*
D03*
X6670001Y8740000D02*
D03*
X6750000Y8740000D02*
D03*
X6320800Y8710000D02*
D03*
X9710000Y11730000D02*
D03*
X7610000Y7527500D02*
D03*
X5230000Y12760000D02*
D03*
X4290000Y10940000D02*
D03*
X3819999Y10931000D02*
D03*
X3479999Y10230000D02*
D03*
X3384840Y9780000D02*
D03*
X4650000Y11030000D02*
D03*
X4310000Y10700000D02*
D03*
X3810000Y10180000D02*
D03*
X3479999Y11010000D02*
D03*
X3100000Y12260000D02*
D03*
X6160000Y8700000D02*
D03*
X5230000Y7880000D02*
D03*
X4690000Y7060000D02*
D03*
X4700000Y7660000D02*
D03*
X8888100Y9245400D02*
D03*
X8035000Y8070000D02*
D03*
X9107521Y8555019D02*
D03*
X6749988Y8339987D02*
D03*
X7070001Y8340000D02*
D03*
X9207961Y8135502D02*
D03*
X9112500Y8052500D02*
D03*
X8808002Y8295541D02*
D03*
Y8375542D02*
D03*
X5910000Y8460000D02*
D03*
X7790000Y8660000D02*
D03*
X9367961Y8295502D02*
D03*
X13195000Y8965000D02*
D03*
X12642500Y9180000D02*
D03*
Y8847500D02*
D03*
X5910000Y8220000D02*
D03*
X6990000Y9220000D02*
D03*
X6750000Y9380000D02*
D03*
X6670000D02*
D03*
X6830000Y9140000D02*
D03*
X6749988Y9299981D02*
D03*
X6750000Y9220000D02*
D03*
X6910000Y9220000D02*
D03*
X6830000Y9220000D02*
D03*
X6589987Y9059982D02*
D03*
X6510000Y9060000D02*
D03*
X6588000Y9139000D02*
D03*
X7070000Y9060000D02*
D03*
X7150000D02*
D03*
X7070000Y9140000D02*
D03*
X6340000Y9932500D02*
D03*
X6482500Y9297500D02*
D03*
X6829986Y9459981D02*
D03*
X6910000Y9635000D02*
D03*
X6990000Y9620000D02*
D03*
X7150000Y9540000D02*
D03*
X7220000Y9640000D02*
D03*
X6990000Y9540000D02*
D03*
X7150000Y9460000D02*
D03*
X7070000D02*
D03*
X6990000D02*
D03*
X6910000D02*
D03*
X7150000Y9380000D02*
D03*
X7069987Y9379981D02*
D03*
X6989987D02*
D03*
X6879188Y9761688D02*
D03*
X7945000Y7917500D02*
D03*
X7311866Y7795634D02*
D03*
X9290000Y10536250D02*
D03*
X9181700Y10269200D02*
D03*
X9545000Y10292500D02*
D03*
X9348750Y10207500D02*
D03*
X9290000Y10292500D02*
D03*
X9824188Y10399188D02*
D03*
X10102500Y10280000D02*
D03*
X9357500Y10702500D02*
D03*
X9721230Y10281270D02*
D03*
X8220000Y9527500D02*
D03*
X9580000Y10207500D02*
D03*
X9368000Y8855500D02*
D03*
X8728002Y9095500D02*
D03*
X9368000Y8935500D02*
D03*
X8090000Y9600000D02*
D03*
X8322500Y9510000D02*
D03*
X7966601Y9060016D02*
D03*
X8042801D02*
D03*
X8032900Y8193800D02*
D03*
X8032700Y8130300D02*
D03*
X7911400Y8147100D02*
D03*
X8342500Y9442500D02*
D03*
X7570000Y7710000D02*
D03*
X8118300Y7564200D02*
D03*
X7667500Y7837500D02*
D03*
X7830000Y8080000D02*
D03*
X7600000Y9756790D02*
D03*
X7600370Y9682973D02*
D03*
X7650000Y9805000D02*
D03*
X7815381Y8014619D02*
D03*
X8424200Y7347500D02*
D03*
X9207961Y9015500D02*
D03*
X9208000Y8935500D02*
D03*
X8727963Y7815541D02*
D03*
X4662500Y11162500D02*
D03*
X4770000Y9370000D02*
D03*
X9017500Y11415000D02*
D03*
X3120000Y10650000D02*
D03*
X3492500Y10335000D02*
D03*
D75*
X12427500Y11420000D02*
D03*
Y11520000D02*
D03*
Y11610000D02*
D03*
X12342500Y11685000D02*
D03*
X12260000D02*
D03*
X12182500Y11610000D02*
D03*
Y11520000D02*
D03*
X12260000Y11360000D02*
D03*
X12350000D02*
D03*
X12182500Y11420000D02*
D03*
X11957500D02*
D03*
X6990000Y7460000D02*
D03*
Y7380000D02*
D03*
Y7300000D02*
D03*
X9150000Y10800000D02*
D03*
X7310000Y7960000D02*
D03*
X12560000Y12230000D02*
D03*
Y11860000D02*
D03*
Y12130000D02*
D03*
X12930000Y12120000D02*
D03*
Y11990000D02*
D03*
Y11870000D02*
D03*
Y12260000D02*
D03*
X12839999Y12310000D02*
D03*
X12730000D02*
D03*
X12630000D02*
D03*
X12730000Y11780000D02*
D03*
X12610000D02*
D03*
X12839999D02*
D03*
X10940000Y12870000D02*
D03*
X10840000D02*
D03*
X10730000D02*
D03*
X10650000Y13180000D02*
D03*
Y13039999D02*
D03*
Y12910001D02*
D03*
X10700000Y13410001D02*
D03*
X10830000D02*
D03*
X10950000D02*
D03*
X11040000Y13339999D02*
D03*
Y13230000D02*
D03*
Y13110001D02*
D03*
Y12970000D02*
D03*
X11790000Y11360000D02*
D03*
X11880000D02*
D03*
X11957500Y11520000D02*
D03*
Y11610000D02*
D03*
X11880000Y11685000D02*
D03*
X11797500D02*
D03*
X11712500Y11610000D02*
D03*
Y11520000D02*
D03*
Y11420000D02*
D03*
X4860000Y8970000D02*
D03*
X5040000D02*
D03*
X3820000Y9720000D02*
D03*
X5430000Y9224000D02*
D03*
X4950000Y8800000D02*
D03*
X10650000Y13320000D02*
D03*
X7120000Y10560000D02*
D03*
Y10750000D02*
D03*
X9150000Y10370000D02*
D03*
X8790000Y10610000D02*
D03*
X10060000Y7720000D02*
D03*
X3120000Y9850000D02*
D03*
D76*
X9070000Y13120000D02*
D03*
X9505000Y12745000D02*
D03*
X9240000Y7360000D02*
D03*
X9150000Y10910000D02*
D03*
X9850000Y7290000D02*
D03*
X10150000D02*
D03*
X5730000Y10730000D02*
D03*
X4470000Y8480000D02*
D03*
X6310000Y11630000D02*
D03*
X2780000Y7172000D02*
D03*
X3140000Y7320000D02*
D03*
Y7420000D02*
D03*
X3170000Y7530000D02*
D03*
Y7630000D02*
D03*
X4390000Y8560000D02*
D03*
X9840000Y11260000D02*
D03*
X10010000Y11180000D02*
D03*
X9950000Y11260000D02*
D03*
X10860000Y11320000D02*
D03*
X10690000Y11580000D02*
D03*
X11240000Y11790000D02*
D03*
X9930000Y11120000D02*
D03*
X6030000Y9230000D02*
D03*
X6630000Y9939488D02*
D03*
X12630000Y9970000D02*
D03*
X10110000Y10830000D02*
D03*
X10330000Y10710000D02*
D03*
X10550000Y10660000D02*
D03*
X9222500Y11672500D02*
D03*
X8120000Y10260000D02*
D03*
X8210000D02*
D03*
X8300000D02*
D03*
X4390000Y9422501D02*
D03*
X2840000Y9330000D02*
D03*
D77*
X12310000Y11830000D02*
D03*
X13420000Y12640000D02*
D03*
X12230000Y12210000D02*
D03*
X12780000Y11640000D02*
D03*
X13700000Y13200000D02*
D03*
X13410001Y10630000D02*
D03*
X12740000Y11050000D02*
D03*
X13680000Y11430000D02*
D03*
X13500000Y11095000D02*
D03*
X11990000Y13400000D02*
D03*
X13150000Y11820000D02*
D03*
X13239999Y13080000D02*
D03*
X13160001Y12280000D02*
D03*
X11460000Y11770000D02*
D03*
X12690000Y10670000D02*
D03*
X12740000Y11400000D02*
D03*
X12550000Y12450000D02*
D03*
X13670000Y12250000D02*
D03*
X13639999Y10640000D02*
D03*
X13550000Y13200000D02*
D03*
X13439999Y13350000D02*
D03*
X10780000Y12450000D02*
D03*
X12060000Y12560000D02*
D03*
X12070000Y12730000D02*
D03*
X11780000Y11940000D02*
D03*
X10990000Y12610000D02*
D03*
X10180000Y12730000D02*
D03*
X12070000Y11310000D02*
D03*
X11930000Y12009920D02*
D03*
X9810000Y13420000D02*
D03*
X5550000Y7750000D02*
D03*
X5170000D02*
D03*
D78*
X10310000Y12060000D02*
D03*
X10830000Y11690000D02*
D03*
X9820000Y11810000D02*
D03*
X10640000Y10340000D02*
D03*
X11130000Y11080000D02*
D03*
X10500000Y11820000D02*
D03*
X11430000Y11580000D02*
D03*
X9690000Y10950000D02*
D03*
X9670000Y10810000D02*
D03*
X9610000Y11170000D02*
D03*
X10300000Y10610000D02*
D03*
X9620000Y11830000D02*
D03*
D100*
X12920000Y9799300D02*
D03*
X13014999Y9520700D02*
D03*
X12825000D02*
D03*
X12917500Y8878200D02*
D03*
X12822501Y9156800D02*
D03*
X13012500D02*
D03*
D101*
X7220000Y9451700D02*
D03*
Y9553300D02*
D03*
X7470000Y8353300D02*
D03*
Y8251700D02*
D03*
X9290000Y10703300D02*
D03*
Y10601700D02*
D03*
X6910000Y9393300D02*
D03*
Y9291700D02*
D03*
X7230000Y9159200D02*
D03*
Y9260800D02*
D03*
X7390000Y9129200D02*
D03*
Y9230800D02*
D03*
X7077500Y9209200D02*
D03*
Y9310800D02*
D03*
X7085000Y8593300D02*
D03*
Y8491700D02*
D03*
X7232500Y8961700D02*
D03*
Y9063300D02*
D03*
X6990000Y8401700D02*
D03*
Y8503300D02*
D03*
X7232500Y8860800D02*
D03*
Y8759200D02*
D03*
X6710000Y9560800D02*
D03*
Y9459200D02*
D03*
X6830000Y9390800D02*
D03*
Y9289200D02*
D03*
X6827500Y8401700D02*
D03*
Y8503300D02*
D03*
X7230000Y8673300D02*
D03*
Y8571699D02*
D03*
Y8326700D02*
D03*
Y8428300D02*
D03*
X9445000Y7789200D02*
D03*
Y7890800D02*
D03*
X9352500Y8460800D02*
D03*
Y8359200D02*
D03*
X8562500Y8158300D02*
D03*
Y8056700D02*
D03*
X8585000Y7814200D02*
D03*
Y7915800D02*
D03*
X8907500Y8438300D02*
D03*
Y8336700D02*
D03*
X9112500Y8218300D02*
D03*
Y8116700D02*
D03*
X9445000Y8019200D02*
D03*
Y8120800D02*
D03*
X7830000Y10319200D02*
D03*
Y10420800D02*
D03*
X7885000Y7919200D02*
D03*
Y8020800D02*
D03*
X6860000Y7989200D02*
D03*
Y8090800D02*
D03*
X6750000Y7989200D02*
D03*
Y8090800D02*
D03*
X7720000Y8139200D02*
D03*
Y8240800D02*
D03*
X7550000Y7920800D02*
D03*
Y7819200D02*
D03*
X7732500Y9789200D02*
D03*
Y9890800D02*
D03*
X8042500D02*
D03*
Y9789200D02*
D03*
X7838133Y9891730D02*
D03*
Y9790129D02*
D03*
X7942500Y9789200D02*
D03*
Y9890800D02*
D03*
X9290000Y10369200D02*
D03*
Y10470800D02*
D03*
X7080000Y9630800D02*
D03*
Y9529200D02*
D03*
D102*
X9323500Y13124500D02*
D03*
X8376500D02*
D03*
X9323500Y12362500D02*
D03*
X8376500D02*
D03*
D103*
X9323500Y12870500D02*
D03*
Y12616500D02*
D03*
X8376500Y12870500D02*
D03*
Y12616500D02*
D03*
D104*
X10179160Y12920000D02*
D03*
Y13150000D02*
D03*
Y13380000D02*
D03*
X13410840Y12280000D02*
D03*
Y12050000D02*
D03*
Y11820000D02*
D03*
D105*
X10844490Y13150000D02*
D03*
X12745510Y12050000D02*
D03*
D106*
X12070000Y10902500D02*
D03*
D107*
X12300000Y11517500D02*
D03*
X12070000D02*
D03*
X11840000D02*
D03*
D108*
X11010000Y12174300D02*
D03*
Y11945700D02*
D03*
D109*
X7365000Y12247760D02*
D03*
X7460000D02*
D03*
X7555000D02*
D03*
Y12532240D02*
D03*
X7460000D02*
D03*
X7365000D02*
D03*
D110*
X7990000Y10610000D02*
D03*
X7550000D02*
D03*
X7990000Y10850000D02*
D03*
X7550000D02*
D03*
D111*
X9940000Y7720000D02*
D03*
Y7500000D02*
D03*
D112*
X6761270Y9761688D02*
D03*
Y9939488D02*
D03*
D113*
X7900000Y7752500D02*
D03*
D114*
X11840000Y11640000D02*
Y11860000D01*
X11750000Y11950000D02*
X11840000Y11860000D01*
X12300000Y11640000D02*
Y11830000D01*
D115*
X12642500Y9180000D02*
Y9260000D01*
Y8767500D02*
Y8847500D01*
X12632500Y8975000D02*
Y9055000D01*
X12065000Y9015000D02*
X12577500D01*
X11990000Y9090000D02*
X12065000Y9015000D01*
X11990000Y9090000D02*
Y9160001D01*
X12577500Y9015000D02*
X12642500Y9080000D01*
X12577500Y9015000D02*
X12642500Y8950000D01*
D116*
X8750800Y8600000D02*
Y8615500D01*
%TF.MD5,ce2007f532b073ca39c2d1ab60ddbfa1*%
M02*
