G04 Layer_Color=16711935*
%FSLAX45Y45*%
%MOMM*%
%TF.FileFunction,Soldermask,Bot*%
%TF.Part,Single*%
G01*
G75*
%TA.AperFunction,ViaPad*%
%ADD72C,0.80000*%
%ADD75C,0.50000*%
%ADD76C,0.60000*%
%ADD91C,0.70000*%
%TA.AperFunction,SMDPad,CuDef*%
%ADD121R,1.10000X1.10000*%
%ADD122R,1.10000X1.10000*%
%ADD123R,0.90000X1.10000*%
%ADD126R,1.10000X0.90000*%
%ADD149R,1.10000X1.60000*%
%ADD151R,2.60000X1.11600*%
%ADD152R,2.60000X1.37000*%
%ADD153R,3.40000X2.30000*%
%ADD154R,1.50000X2.30000*%
%ADD155R,1.50000X1.10000*%
%ADD156R,1.90000X1.50000*%
%ADD159R,1.34000X0.54000*%
%ADD160R,1.24460X1.37160*%
%ADD162R,0.59000X0.49000*%
%ADD163R,1.60000X0.70000*%
%ADD170R,0.70000X1.60000*%
%TA.AperFunction,ViaPad*%
%ADD175C,0.10000*%
%ADD176C,2.10000*%
%TA.AperFunction,ComponentPad*%
%ADD177C,2.60000*%
%ADD178C,0.10000*%
%ADD179C,1.80000*%
%ADD180C,2.40000*%
%ADD181C,2.80000*%
%ADD182C,2.10000*%
%TA.AperFunction,ViaPad*%
%ADD183C,0.90000*%
%ADD184C,1.30000*%
%ADD185C,1.10000*%
%TA.AperFunction,SMDPad,CuDef*%
%ADD189R,0.49000X0.59000*%
%ADD190R,2.80000X1.40000*%
%ADD191R,2.80000X4.20000*%
%ADD192R,0.70000X1.90000*%
%ADD193R,1.30160X0.90160*%
%ADD194R,1.37160X1.24460*%
%ADD195C,1.60000*%
D72*
X3140000Y9512500D02*
D03*
X13200000Y11120000D02*
D03*
X3370000Y9690000D02*
D03*
X4390000Y8900000D02*
D03*
X5410000Y9060000D02*
D03*
Y8880000D02*
D03*
X6060000Y9060000D02*
D03*
Y8880000D02*
D03*
X4390000Y9100000D02*
D03*
Y9000000D02*
D03*
Y9200000D02*
D03*
X6750000Y11490000D02*
D03*
X6710000Y11790000D02*
D03*
X7740000Y12590000D02*
D03*
X3509999Y10620000D02*
D03*
X3509999Y10747000D02*
D03*
D75*
X8727999Y8695508D02*
D03*
X6750018Y8419987D02*
D03*
X6670018D02*
D03*
X6590018D02*
D03*
X6510018D02*
D03*
X8646300Y8697202D02*
D03*
X7132500Y10310000D02*
D03*
X7282500D02*
D03*
X7167500Y10910000D02*
D03*
X7352500D02*
D03*
X7125000Y9700000D02*
D03*
X11220000Y10865530D02*
D03*
X8727963Y7895541D02*
D03*
X8647963D02*
D03*
X9288000Y8935500D02*
D03*
X9207993Y8615492D02*
D03*
X9207963Y8455542D02*
D03*
X9287961Y8375502D02*
D03*
X7710000Y8900000D02*
D03*
X8395500Y8816500D02*
D03*
X5620000Y7537500D02*
D03*
X6370000Y8020000D02*
D03*
X6450000D02*
D03*
X6450000Y7930000D02*
D03*
X6480000Y8200000D02*
D03*
X8271400Y9191900D02*
D03*
X8525000Y8842500D02*
D03*
X8015000Y8900000D02*
D03*
X8449208Y8366661D02*
D03*
X8550736D02*
D03*
X6590000Y9220000D02*
D03*
X6510000D02*
D03*
X9617500Y8537500D02*
D03*
X9247982Y7790482D02*
D03*
X9208003Y7895541D02*
D03*
X9098003Y7798041D02*
D03*
X9118003Y7895541D02*
D03*
X8197500Y7731671D02*
D03*
X8648002Y9095500D02*
D03*
X9207961Y8215502D02*
D03*
X8807963Y8215541D02*
D03*
X9207961Y7975501D02*
D03*
X9287961D02*
D03*
X9620000Y8649000D02*
D03*
X9625000Y8752500D02*
D03*
X9368000Y8695499D02*
D03*
X9288000D02*
D03*
X8728002Y8535499D02*
D03*
Y8375542D02*
D03*
X7790000Y8820015D02*
D03*
X8042726Y8540057D02*
D03*
X7789984Y8740016D02*
D03*
X8042800Y8660000D02*
D03*
X8807963Y7815541D02*
D03*
X11230500Y10628000D02*
D03*
X9270000Y11340000D02*
D03*
X4800000Y11370000D02*
D03*
X5270000Y11640000D02*
D03*
X9800000Y10660000D02*
D03*
X13189999Y6990100D02*
D03*
X13500000Y7160000D02*
D03*
X9419981Y10479979D02*
D03*
X9630000Y10650000D02*
D03*
X6760000Y10040000D02*
D03*
X6870000Y9890000D02*
D03*
X9210000Y11110000D02*
D03*
X8610000Y11090000D02*
D03*
Y10920000D02*
D03*
X6490000Y8850000D02*
D03*
X6430000Y9490000D02*
D03*
X6370000Y9550000D02*
D03*
X6830000Y8260000D02*
D03*
X6830000Y8340000D02*
D03*
X6910000D02*
D03*
X6989948Y8340051D02*
D03*
X6710000Y9645000D02*
D03*
X6750000Y8660000D02*
D03*
X6830000Y8740000D02*
D03*
X6590000Y8740000D02*
D03*
X6830000Y8820000D02*
D03*
X8373000Y7970500D02*
D03*
X7629999Y8820000D02*
D03*
X9287961Y8295502D02*
D03*
X8807960Y8775542D02*
D03*
X8727960Y8775500D02*
D03*
X9615000Y8967500D02*
D03*
X9620000Y8855000D02*
D03*
X4380000Y9870000D02*
D03*
X4780000Y10010000D02*
D03*
X10390000Y9160001D02*
D03*
X10708000Y9530000D02*
D03*
X10454000Y9520000D02*
D03*
X10517500Y9562000D02*
D03*
X10581000Y9590000D02*
D03*
X10644500Y9632000D02*
D03*
X7950000Y9710000D02*
D03*
X7800000Y9660000D02*
D03*
X7710000Y9540000D02*
D03*
X5600000Y6880000D02*
D03*
X4210000D02*
D03*
X3990000D02*
D03*
X6090000D02*
D03*
X5930000D02*
D03*
X5270000D02*
D03*
X5110000D02*
D03*
X4700000Y6880000D02*
D03*
X4460000Y6880000D02*
D03*
X7790019Y9380018D02*
D03*
X7949986Y9539981D02*
D03*
X7710001Y8500000D02*
D03*
Y8420000D02*
D03*
X7790000Y8980000D02*
D03*
X7710001D02*
D03*
Y9060000D02*
D03*
X7790000D02*
D03*
X8372988Y8226961D02*
D03*
X9368000Y9095500D02*
D03*
X9288000Y9015500D02*
D03*
X9368000D02*
D03*
X9208000Y8775500D02*
D03*
Y8695499D02*
D03*
X9367961Y8135502D02*
D03*
X9287961D02*
D03*
X9207961Y8055502D02*
D03*
X9287961D02*
D03*
X9367961D02*
D03*
Y7975501D02*
D03*
Y7895501D02*
D03*
Y7815501D02*
D03*
X8647963Y7815541D02*
D03*
X8807963Y7895541D02*
D03*
X8727963Y7975541D02*
D03*
X8647963D02*
D03*
Y8055541D02*
D03*
X8727963D02*
D03*
X8807963Y8135541D02*
D03*
X8727963D02*
D03*
X8647963D02*
D03*
X8807963Y8055541D02*
D03*
X8647963Y8295541D02*
D03*
X8727963D02*
D03*
X8887960Y8775500D02*
D03*
X8648002Y8935500D02*
D03*
Y9015500D02*
D03*
X8728002D02*
D03*
X8808002Y8935500D02*
D03*
Y9015500D02*
D03*
X8648002Y8535499D02*
D03*
X8807963Y7975541D02*
D03*
X8042800Y8290500D02*
D03*
X8271401Y8976166D02*
D03*
X8728002Y8935500D02*
D03*
X8042765Y8979899D02*
D03*
X9208000Y9095500D02*
D03*
X9288000D02*
D03*
X8271375Y9095540D02*
D03*
X9288000Y8615499D02*
D03*
X9368000Y8535499D02*
D03*
Y8615499D02*
D03*
X9288000Y8855500D02*
D03*
X9368000Y8775500D02*
D03*
X9288000D02*
D03*
X7709986Y9219982D02*
D03*
X7790000Y9220000D02*
D03*
Y8500000D02*
D03*
X7710000Y8580000D02*
D03*
X7789986Y9139982D02*
D03*
X7710000Y9300000D02*
D03*
X7790000Y8580000D02*
D03*
X7070000Y8660000D02*
D03*
X7150000Y8820000D02*
D03*
Y8900000D02*
D03*
Y8660000D02*
D03*
X7310000Y8660000D02*
D03*
X7390000D02*
D03*
X7310000Y8820000D02*
D03*
X6750000Y8980000D02*
D03*
X7070000D02*
D03*
X7150000D02*
D03*
Y9220000D02*
D03*
X7310000Y9140000D02*
D03*
X7630000Y8180000D02*
D03*
X7470000Y8820000D02*
D03*
Y8980000D02*
D03*
X7550000Y8820000D02*
D03*
X7470000Y9140000D02*
D03*
X6749988Y8819982D02*
D03*
X7229987Y8499983D02*
D03*
X7470000Y8580000D02*
D03*
X6990000Y8660000D02*
D03*
X7710000Y8820000D02*
D03*
X7310000Y8420000D02*
D03*
X7469986Y9459981D02*
D03*
X7630000Y8420000D02*
D03*
X6990000Y8820000D02*
D03*
X7150000Y8740000D02*
D03*
X7469983Y8659983D02*
D03*
X7630000Y8260000D02*
D03*
X7709986Y9459981D02*
D03*
X7389986Y8579983D02*
D03*
X6910000Y8420000D02*
D03*
X7790000Y8340000D02*
D03*
X6830000Y8580000D02*
D03*
Y9060000D02*
D03*
X6990000Y9300000D02*
D03*
X7150000Y8500000D02*
D03*
Y9300000D02*
D03*
X7390000D02*
D03*
X7470000D02*
D03*
X7549981Y9299981D02*
D03*
X7630000Y9300000D02*
D03*
X7709986Y9139982D02*
D03*
X7069987Y8259983D02*
D03*
Y8419983D02*
D03*
X7390000Y8420000D02*
D03*
X7710000Y8340000D02*
D03*
X7470000Y8420000D02*
D03*
X6589988Y8339987D02*
D03*
X7150000Y8340000D02*
D03*
X7550000Y8260000D02*
D03*
X6670000Y9220000D02*
D03*
X6910000Y8500000D02*
D03*
X6909987Y8899982D02*
D03*
X7310000Y9300000D02*
D03*
X7630000Y8340000D02*
D03*
X6669988Y8339987D02*
D03*
X7630000Y8980000D02*
D03*
X7789986Y9299981D02*
D03*
X7150000Y8420000D02*
D03*
X7070000Y8820000D02*
D03*
X7230000Y8260000D02*
D03*
X6990000Y9060000D02*
D03*
X7310000Y8980000D02*
D03*
X7390000Y8820000D02*
D03*
X6989987Y8979982D02*
D03*
X6910000Y9060000D02*
D03*
X7309987Y9219982D02*
D03*
X6830000Y8900000D02*
D03*
X6990000Y8580000D02*
D03*
X7630000Y9140000D02*
D03*
X7629986Y8579983D02*
D03*
X7710000Y8660000D02*
D03*
X7470000Y8500000D02*
D03*
X6910000Y8580000D02*
D03*
Y8819999D02*
D03*
X7150000Y8580000D02*
D03*
X7310000Y9060000D02*
D03*
X7150000Y9140000D02*
D03*
X7549986Y8659983D02*
D03*
X7390000Y8980000D02*
D03*
X7550000D02*
D03*
Y8420000D02*
D03*
Y8580000D02*
D03*
Y9140000D02*
D03*
X7630000Y8660000D02*
D03*
X7470000Y9220000D02*
D03*
X7710000Y8740000D02*
D03*
X7790000Y8260000D02*
D03*
X7550000Y8340000D02*
D03*
X7150017Y8179987D02*
D03*
X7389987Y8179983D02*
D03*
X7310017Y8179987D02*
D03*
X7230017D02*
D03*
X7070017D02*
D03*
X7555000Y8040000D02*
D03*
X6840000Y7560000D02*
D03*
X6900000Y7650000D02*
D03*
Y7590000D02*
D03*
X7389987Y8259983D02*
D03*
X7310017Y8259957D02*
D03*
X7390000Y8340000D02*
D03*
X6870000Y7420000D02*
D03*
Y6930000D02*
D03*
X6680000D02*
D03*
X6490000Y6930000D02*
D03*
X7149987Y8259983D02*
D03*
X6450000Y7430000D02*
D03*
X4770000Y7980000D02*
D03*
X4940000Y8380000D02*
D03*
X10210000Y11012500D02*
D03*
Y11132500D02*
D03*
Y11252500D02*
D03*
X10480000Y10740000D02*
D03*
X4430000Y7530000D02*
D03*
X4500000D02*
D03*
X5590000Y10090000D02*
D03*
Y10205999D02*
D03*
X3355019Y9585019D02*
D03*
X3390000Y9460000D02*
D03*
X6320000Y12415000D02*
D03*
X6334338Y13199071D02*
D03*
X6320000Y11800000D02*
D03*
X6670000Y11550000D02*
D03*
Y11677000D02*
D03*
X2760000Y9680000D02*
D03*
Y9550000D02*
D03*
Y9615000D02*
D03*
Y9810000D02*
D03*
X3730000Y10090000D02*
D03*
X3479999Y10423000D02*
D03*
X3010000Y11140000D02*
D03*
X4290000Y10630000D02*
D03*
X3760000Y11820000D02*
D03*
X3010000Y10940000D02*
D03*
X4290000Y10430000D02*
D03*
X3810000Y12280000D02*
D03*
X3940000Y11460000D02*
D03*
X3500000Y13289999D02*
D03*
X3670000Y12090000D02*
D03*
X4090000Y12839999D02*
D03*
X3520000Y12370000D02*
D03*
X3100000Y12889999D02*
D03*
X3819999Y11010000D02*
D03*
X8206959Y11745000D02*
D03*
Y11875000D02*
D03*
X8440000Y11745000D02*
D03*
X10409999Y10927499D02*
D03*
X10529999D02*
D03*
X10289999D02*
D03*
X10609999Y11007499D02*
D03*
Y11127499D02*
D03*
Y11247499D02*
D03*
X10740000Y8680000D02*
D03*
X10640000D02*
D03*
X4589999Y10820000D02*
D03*
X4750000Y12900000D02*
D03*
X5150000Y12390000D02*
D03*
X5430000Y12939999D02*
D03*
X5620000Y12550000D02*
D03*
X5770000Y12120000D02*
D03*
X5060000Y12300000D02*
D03*
X5270000Y11440000D02*
D03*
X5630000D02*
D03*
X5540000Y12220000D02*
D03*
X5630000Y11630000D02*
D03*
X4900000Y11440000D02*
D03*
X6669988Y8979982D02*
D03*
X7309987Y8579983D02*
D03*
X7070000Y8740000D02*
D03*
X6750000Y8500000D02*
D03*
X7789982Y9459981D02*
D03*
X2860000Y7170000D02*
D03*
X3940000Y11280000D02*
D03*
X4210000Y7060000D02*
D03*
X3990000D02*
D03*
X2880000Y8676000D02*
D03*
X2960000Y8168000D02*
D03*
X2880000D02*
D03*
Y7914000D02*
D03*
X5110000Y7060000D02*
D03*
X5930000D02*
D03*
X6090000D02*
D03*
X5600000D02*
D03*
X5770000D02*
D03*
X5430000D02*
D03*
X5270000D02*
D03*
X3360000Y9520000D02*
D03*
X6750000Y8899999D02*
D03*
X6589970Y8900000D02*
D03*
X6730000Y13139999D02*
D03*
X5510000Y12440000D02*
D03*
X7000000Y13189999D02*
D03*
X6910000Y13280000D02*
D03*
X7160000Y13220000D02*
D03*
X7250000Y13130000D02*
D03*
X5780000Y11930000D02*
D03*
X6970000Y12880000D02*
D03*
X7150000D02*
D03*
X6800000Y10860000D02*
D03*
X6590001Y8500000D02*
D03*
X6670001D02*
D03*
X6450000Y7790000D02*
D03*
Y7860000D02*
D03*
Y7720000D02*
D03*
X6670000Y8900000D02*
D03*
X6530000Y8160000D02*
D03*
X4390000Y8820000D02*
D03*
Y8760000D02*
D03*
Y8700000D02*
D03*
Y8640000D02*
D03*
X6660000Y10930000D02*
D03*
X2960000Y8930000D02*
D03*
X2880000D02*
D03*
X2960000Y8676000D02*
D03*
X3810000Y9210000D02*
D03*
X3850000Y9550000D02*
D03*
X4940000Y8540000D02*
D03*
X4590000Y9630000D02*
D03*
X6450000Y7650000D02*
D03*
X5730000Y8700000D02*
D03*
Y8540000D02*
D03*
X5820000Y7980000D02*
D03*
X6180000Y9320000D02*
D03*
X4570000Y8090000D02*
D03*
X4220000Y7850000D02*
D03*
X5860000Y9860000D02*
D03*
Y9680000D02*
D03*
X5640000Y8880000D02*
D03*
X4570000Y8240000D02*
D03*
X4190000Y8090000D02*
D03*
X4390000Y8240000D02*
D03*
X10065000Y11430000D02*
D03*
X9760000Y11260000D02*
D03*
X10880000Y11160000D02*
D03*
X10880000Y11230000D02*
D03*
X11500000Y10290000D02*
D03*
X10660000Y11840000D02*
D03*
X10940000Y8680000D02*
D03*
X7190000Y7260000D02*
D03*
X7190000Y7180000D02*
D03*
X7200000Y7340000D02*
D03*
X7320000Y7130000D02*
D03*
X7270000Y7180000D02*
D03*
X2880000Y8422000D02*
D03*
X2960000D02*
D03*
X3050000Y7910000D02*
D03*
X6450000Y7530000D02*
D03*
X7642500Y8090000D02*
D03*
X7310000Y7640000D02*
D03*
X10771500Y9572000D02*
D03*
X10898500D02*
D03*
X11025500D02*
D03*
X11152500D02*
D03*
X11279500D02*
D03*
X11406500D02*
D03*
X11533500D02*
D03*
X11660500D02*
D03*
X11787500D02*
D03*
X11914500Y9622000D02*
D03*
X12041500Y9572000D02*
D03*
X10590000Y9160001D02*
D03*
X10840000Y8680000D02*
D03*
X11140000D02*
D03*
X11040000D02*
D03*
X11940000D02*
D03*
X11440000D02*
D03*
X12040000D02*
D03*
X12140000D02*
D03*
X10790000Y9160001D02*
D03*
X11090000D02*
D03*
X10990000D02*
D03*
X10890000D02*
D03*
X11590000Y9160001D02*
D03*
X11790000Y9160001D02*
D03*
X11690000D02*
D03*
X11990000D02*
D03*
X11890000Y9160001D02*
D03*
X12090000Y9160001D02*
D03*
X10490000D02*
D03*
X10540000Y8680000D02*
D03*
X10835000Y9530000D02*
D03*
X11216000D02*
D03*
X11343000D02*
D03*
X11089000D02*
D03*
X10962000D02*
D03*
X11724000D02*
D03*
X11851000D02*
D03*
X11597000D02*
D03*
X12105000D02*
D03*
X11978000Y9560000D02*
D03*
X10073000Y9530000D02*
D03*
X9946000D02*
D03*
X10200000D02*
D03*
X10136500Y9572000D02*
D03*
X10009500D02*
D03*
X11470000Y9530000D02*
D03*
X7552500Y8110000D02*
D03*
X7870000Y9540000D02*
D03*
X7790000D02*
D03*
X7880000Y9650000D02*
D03*
X12163500Y9572000D02*
D03*
X7629981Y9459981D02*
D03*
X10690000Y9160001D02*
D03*
X7310000Y9460000D02*
D03*
X7389986Y9459981D02*
D03*
X7230000Y9380000D02*
D03*
X7390014Y9379981D02*
D03*
X7470014D02*
D03*
X7550014D02*
D03*
X7310014D02*
D03*
X7710014D02*
D03*
X7630000Y9380000D02*
D03*
X8959712Y9174605D02*
D03*
X6800000Y10670000D02*
D03*
X7189985Y10209980D02*
D03*
X7077500Y10260000D02*
D03*
X8580000Y10240000D02*
D03*
X6940000Y9890000D02*
D03*
X7010000D02*
D03*
X8580000Y10480000D02*
D03*
X7990000Y10730000D02*
D03*
X7730000Y10310000D02*
D03*
X7720000Y10409200D02*
D03*
X7830000Y10550000D02*
D03*
X11840000Y8680000D02*
D03*
X11740000D02*
D03*
X11640000D02*
D03*
X11390000Y9160001D02*
D03*
X11490000Y9160001D02*
D03*
X11540000Y8680000D02*
D03*
X11290000Y9160001D02*
D03*
X11190000Y9160001D02*
D03*
X11240000Y8680000D02*
D03*
X11340000D02*
D03*
X10440000Y7420000D02*
D03*
X10699734Y7420000D02*
D03*
X10960000Y7420000D02*
D03*
X11220000D02*
D03*
X11480000D02*
D03*
X11740000D02*
D03*
X12000000D02*
D03*
X12260000D02*
D03*
X12260000Y7870000D02*
D03*
X12000000D02*
D03*
X11740000D02*
D03*
X11480000D02*
D03*
X11220000D02*
D03*
X10960000D02*
D03*
X10699735Y7870000D02*
D03*
X10440000Y7870000D02*
D03*
X12260000Y8310000D02*
D03*
X12000000D02*
D03*
X11480000D02*
D03*
X11220000D02*
D03*
X10960000D02*
D03*
X10699735Y8310000D02*
D03*
X10440000Y8310000D02*
D03*
X11720000Y8300000D02*
D03*
X10539735Y7259735D02*
D03*
X10800000Y7260456D02*
D03*
X11060000Y7259735D02*
D03*
X11320000D02*
D03*
X11579733D02*
D03*
X11839733Y7259735D02*
D03*
X12029732Y7219735D02*
D03*
X12259735Y7219735D02*
D03*
X8150000Y9620000D02*
D03*
X7690000Y8020000D02*
D03*
X7680000Y10610000D02*
D03*
X9520000Y10480000D02*
D03*
X12930000Y8630000D02*
D03*
X9990000Y8160000D02*
D03*
X10340000Y8560000D02*
D03*
X10290000Y8680000D02*
D03*
X10190000Y8590000D02*
D03*
X13035001Y7615000D02*
D03*
X13130000Y8270000D02*
D03*
X13200000Y7510000D02*
D03*
X13300000D02*
D03*
X10150000Y9160000D02*
D03*
X10240000Y9160001D02*
D03*
X9990000Y8640000D02*
D03*
Y8480000D02*
D03*
Y8320000D02*
D03*
X9780000Y10470000D02*
D03*
X11250000Y10770000D02*
D03*
X11000000Y10700000D02*
D03*
X10580000Y10740000D02*
D03*
X13080000Y7920000D02*
D03*
X7450000Y7150000D02*
D03*
X6670000Y7020000D02*
D03*
X9497500Y11505000D02*
D03*
X6490000Y9450000D02*
D03*
Y9520000D02*
D03*
X6590000Y8659999D02*
D03*
X6670000Y8660000D02*
D03*
X6670001Y8740000D02*
D03*
X6750000Y8740000D02*
D03*
X6320800Y8710000D02*
D03*
X9710000Y11730000D02*
D03*
X7610000Y7527500D02*
D03*
X4290000Y10940000D02*
D03*
X3819999Y10931000D02*
D03*
X3479999Y10230000D02*
D03*
X3384840Y9780000D02*
D03*
X4650000Y11030000D02*
D03*
X4310000Y10700000D02*
D03*
X3810000Y10180000D02*
D03*
X3100000Y12260000D02*
D03*
X4690000Y7060000D02*
D03*
X4700000Y7660000D02*
D03*
X8888100Y9245400D02*
D03*
X8035000Y8070000D02*
D03*
X9107521Y8555019D02*
D03*
X6749988Y8339987D02*
D03*
X7070001Y8340000D02*
D03*
X9207961Y8135502D02*
D03*
X9112500Y8052500D02*
D03*
X8808002Y8295541D02*
D03*
Y8375542D02*
D03*
X7790000Y8660000D02*
D03*
X9367961Y8295502D02*
D03*
X13195000Y8965000D02*
D03*
X12642500Y9180000D02*
D03*
Y8847500D02*
D03*
X6990000Y9220000D02*
D03*
X6750000Y9380000D02*
D03*
X6670000D02*
D03*
X6830000Y9140000D02*
D03*
X6749988Y9299981D02*
D03*
X6750000Y9220000D02*
D03*
X6910000Y9220000D02*
D03*
X6830000Y9220000D02*
D03*
X6589987Y9059982D02*
D03*
X6510000Y9060000D02*
D03*
X6588000Y9139000D02*
D03*
X7070000Y9060000D02*
D03*
X7150000D02*
D03*
X7070000Y9140000D02*
D03*
X6340000Y9932500D02*
D03*
X6482500Y9297500D02*
D03*
X6829986Y9459981D02*
D03*
X6910000Y9635000D02*
D03*
X6990000Y9620000D02*
D03*
X7150000Y9540000D02*
D03*
X7220000Y9640000D02*
D03*
X6990000Y9540000D02*
D03*
X7150000Y9460000D02*
D03*
X7070000D02*
D03*
X6990000D02*
D03*
X6910000D02*
D03*
X7150000Y9380000D02*
D03*
X7069987Y9379981D02*
D03*
X6989987D02*
D03*
X6879188Y9761688D02*
D03*
X7945000Y7917500D02*
D03*
X7311866Y7795634D02*
D03*
X9290000Y10536250D02*
D03*
X9545000Y10292500D02*
D03*
X9348750Y10207500D02*
D03*
X9290000Y10292500D02*
D03*
X9824188Y10399188D02*
D03*
X9721230Y10281270D02*
D03*
X8220000Y9527500D02*
D03*
X9580000Y10207500D02*
D03*
X9368000Y8855500D02*
D03*
X8728002Y9095500D02*
D03*
X9368000Y8935500D02*
D03*
X8090000Y9600000D02*
D03*
X8322500Y9510000D02*
D03*
X7966601Y9060016D02*
D03*
X8042801D02*
D03*
X8032900Y8193800D02*
D03*
X8032700Y8130300D02*
D03*
X7911400Y8147100D02*
D03*
X8342500Y9442500D02*
D03*
X8118300Y7564200D02*
D03*
X7667500Y7837500D02*
D03*
X7830000Y8080000D02*
D03*
X7600000Y9756790D02*
D03*
X7600370Y9682973D02*
D03*
X7650000Y9805000D02*
D03*
X7815381Y8014619D02*
D03*
X8424200Y7347500D02*
D03*
X9207961Y9015500D02*
D03*
X9208000Y8935500D02*
D03*
X8727963Y7815541D02*
D03*
X4662500Y11162500D02*
D03*
X4770000Y9370000D02*
D03*
X9017500Y11415000D02*
D03*
X3120000Y10650000D02*
D03*
X3492500Y10335000D02*
D03*
D76*
X12427500Y11610000D02*
D03*
X12342500Y11685000D02*
D03*
X12260000D02*
D03*
X12182500Y11610000D02*
D03*
Y11520000D02*
D03*
X12260000Y11360000D02*
D03*
X12350000D02*
D03*
X12182500Y11420000D02*
D03*
X11957500D02*
D03*
X6990000Y7460000D02*
D03*
Y7380000D02*
D03*
Y7300000D02*
D03*
X7310000Y7960000D02*
D03*
X12560000Y12230000D02*
D03*
Y11860000D02*
D03*
Y12130000D02*
D03*
X12930000Y12120000D02*
D03*
Y11990000D02*
D03*
Y11870000D02*
D03*
Y12260000D02*
D03*
X12839999Y12310000D02*
D03*
X12730000D02*
D03*
X12630000D02*
D03*
X12730000Y11780000D02*
D03*
X12610000D02*
D03*
X12839999D02*
D03*
X10940000Y12870000D02*
D03*
X10840000D02*
D03*
X10730000D02*
D03*
X10650000Y13180000D02*
D03*
Y13039999D02*
D03*
Y12910001D02*
D03*
X10700000Y13410001D02*
D03*
X10830000D02*
D03*
X10950000D02*
D03*
X11040000Y13339999D02*
D03*
Y13230000D02*
D03*
Y13110001D02*
D03*
Y12970000D02*
D03*
X11790000Y11360000D02*
D03*
X11880000D02*
D03*
X11957500Y11520000D02*
D03*
Y11610000D02*
D03*
X11880000Y11685000D02*
D03*
X11797500D02*
D03*
X11712500Y11610000D02*
D03*
X4860000Y8970000D02*
D03*
X5040000D02*
D03*
X3820000Y9720000D02*
D03*
X4950000Y8800000D02*
D03*
X10650000Y13320000D02*
D03*
X7120000Y10560000D02*
D03*
X8790000Y10610000D02*
D03*
X10060000Y7720000D02*
D03*
D91*
X9070000Y13120000D02*
D03*
X9505000Y12745000D02*
D03*
X9240000Y7360000D02*
D03*
X4470000Y8480000D02*
D03*
X2780000Y7172000D02*
D03*
X3140000Y7320000D02*
D03*
Y7420000D02*
D03*
X3170000Y7530000D02*
D03*
Y7630000D02*
D03*
X4390000Y8560000D02*
D03*
X9840000Y11260000D02*
D03*
X9950000D02*
D03*
X10690000Y11580000D02*
D03*
X11240000Y11790000D02*
D03*
X6630000Y9939488D02*
D03*
X12630000Y9970000D02*
D03*
X10110000Y10830000D02*
D03*
X10330000Y10710000D02*
D03*
X10550000Y10660000D02*
D03*
X8300000Y10260000D02*
D03*
D121*
X8700000Y11090000D02*
D03*
X8520000D02*
D03*
X8700000Y10920000D02*
D03*
X8520000D02*
D03*
X5090000Y10820000D02*
D03*
X4910000D02*
D03*
X5410000Y10830000D02*
D03*
X5590000D02*
D03*
X8960000Y12070000D02*
D03*
X8780000D02*
D03*
X5640000Y8700000D02*
D03*
X5820000D02*
D03*
X5640000Y8540000D02*
D03*
X5820000D02*
D03*
X5640000Y8380000D02*
D03*
X5820000D02*
D03*
X5640000Y8220000D02*
D03*
X5820000D02*
D03*
X3760000Y9550000D02*
D03*
X3940000D02*
D03*
X3720000Y9210000D02*
D03*
X3900000D02*
D03*
X5040000Y7900000D02*
D03*
X4860000D02*
D03*
X4500000Y9640000D02*
D03*
X4680000D02*
D03*
X4660000Y8090000D02*
D03*
X4480000D02*
D03*
X4280000D02*
D03*
X4100000D02*
D03*
X4660000Y8240000D02*
D03*
X4480000D02*
D03*
X5950000Y9860000D02*
D03*
X5770000D02*
D03*
X5950000Y9680000D02*
D03*
X5770000D02*
D03*
X10200000Y10460000D02*
D03*
X10020000D02*
D03*
X11250000Y11270000D02*
D03*
X11430000D02*
D03*
X11250000Y11450000D02*
D03*
X11430000D02*
D03*
X8490000Y10070000D02*
D03*
X8670000D02*
D03*
X8490000Y10240000D02*
D03*
X8670000D02*
D03*
X8490000Y10480000D02*
D03*
X8670000D02*
D03*
X8304500Y8815500D02*
D03*
X8124500D02*
D03*
X11320000Y10630000D02*
D03*
X11140000D02*
D03*
X11310000Y10870000D02*
D03*
X11130000D02*
D03*
D122*
X9013000Y8408000D02*
D03*
Y8588000D02*
D03*
X8241000Y8406000D02*
D03*
Y8586000D02*
D03*
X9380000Y11010000D02*
D03*
Y11190000D02*
D03*
X8988000Y8084000D02*
D03*
Y7904000D02*
D03*
X9820000Y10950000D02*
D03*
Y11130000D02*
D03*
X6672500Y12350000D02*
D03*
Y12530000D02*
D03*
X5700000Y10060000D02*
D03*
Y10240000D02*
D03*
X6700000Y10270000D02*
D03*
Y10450000D02*
D03*
X5020000Y10670000D02*
D03*
Y10490000D02*
D03*
X5350000Y10670000D02*
D03*
Y10490000D02*
D03*
X4700000Y6970000D02*
D03*
Y7150000D02*
D03*
X4460000Y6970000D02*
D03*
Y7150000D02*
D03*
X4210000Y6970000D02*
D03*
Y7150000D02*
D03*
X3990000Y6970000D02*
D03*
Y7150000D02*
D03*
X6320000Y12505000D02*
D03*
Y12325000D02*
D03*
X6334338Y13289070D02*
D03*
Y13109070D02*
D03*
X9410000Y11520000D02*
D03*
Y11340000D02*
D03*
X9800000Y12989999D02*
D03*
Y12810001D02*
D03*
X7280000Y11400000D02*
D03*
Y11580000D02*
D03*
X6620000Y11310000D02*
D03*
Y11130000D02*
D03*
X3045000Y10152500D02*
D03*
Y10332500D02*
D03*
X3350000Y11080000D02*
D03*
Y10900000D02*
D03*
X3520000Y12280000D02*
D03*
Y12460000D02*
D03*
X4090000Y12750000D02*
D03*
Y12930000D02*
D03*
X3940000Y12280000D02*
D03*
Y12460000D02*
D03*
X3960000Y13200000D02*
D03*
Y13380000D02*
D03*
X3650000Y11120000D02*
D03*
Y10940000D02*
D03*
X2950000Y12180000D02*
D03*
Y12000000D02*
D03*
X3640000Y10270000D02*
D03*
Y10090000D02*
D03*
X2860000Y9700000D02*
D03*
Y9520000D02*
D03*
X3030001Y9700000D02*
D03*
Y9520000D02*
D03*
X3670000Y12930000D02*
D03*
Y12750000D02*
D03*
X2950000Y12820000D02*
D03*
Y12640000D02*
D03*
X3500000Y13380000D02*
D03*
Y13200000D02*
D03*
X3510000Y9710000D02*
D03*
Y9530000D02*
D03*
X3940000Y10330000D02*
D03*
Y10150000D02*
D03*
X4290000Y11030000D02*
D03*
Y10850000D02*
D03*
X5150000Y13400000D02*
D03*
Y13220000D02*
D03*
X5610000Y13400000D02*
D03*
Y13220000D02*
D03*
X5770000Y12760000D02*
D03*
Y12939999D02*
D03*
X5150000Y12300000D02*
D03*
Y12480000D02*
D03*
X5630000Y11530000D02*
D03*
Y11350000D02*
D03*
X5270000D02*
D03*
Y11530000D02*
D03*
X4900000D02*
D03*
Y11350000D02*
D03*
X5990000D02*
D03*
Y11530000D02*
D03*
X9620000Y12640000D02*
D03*
Y12820000D02*
D03*
X6730000Y13230000D02*
D03*
Y13050000D02*
D03*
X6700000Y10830000D02*
D03*
Y10650000D02*
D03*
X6030000Y8470000D02*
D03*
Y8650000D02*
D03*
X12260000Y7510000D02*
D03*
Y7330000D02*
D03*
X12259735Y6910000D02*
D03*
Y7090001D02*
D03*
X12000000Y8400000D02*
D03*
Y8220000D02*
D03*
X11999732Y6910000D02*
D03*
Y7090000D02*
D03*
X11740000Y7510000D02*
D03*
Y7330000D02*
D03*
X11739733Y6910000D02*
D03*
Y7090000D02*
D03*
X11480000Y7510000D02*
D03*
Y7330000D02*
D03*
X11479733Y6910000D02*
D03*
Y7090000D02*
D03*
X11220000Y7510000D02*
D03*
Y7330000D02*
D03*
X11220000Y7960000D02*
D03*
Y7780000D02*
D03*
X10960000Y7510000D02*
D03*
Y7330000D02*
D03*
Y6910000D02*
D03*
Y7090000D02*
D03*
X10699734Y7510000D02*
D03*
Y7330000D02*
D03*
X10700000Y6910721D02*
D03*
Y7090721D02*
D03*
X10440000Y8400000D02*
D03*
Y8220000D02*
D03*
X10439735Y6910000D02*
D03*
Y7090000D02*
D03*
X12260000Y8220000D02*
D03*
Y8400000D02*
D03*
Y7780000D02*
D03*
Y7960000D02*
D03*
X12000000Y7330000D02*
D03*
Y7510000D02*
D03*
X12000000Y7780000D02*
D03*
Y7960000D02*
D03*
X11720000Y8210000D02*
D03*
Y8390000D02*
D03*
X11740000Y7780000D02*
D03*
Y7960000D02*
D03*
X11480000Y8220000D02*
D03*
Y8400000D02*
D03*
Y7780000D02*
D03*
Y7960000D02*
D03*
X11220000Y8220000D02*
D03*
Y8400000D02*
D03*
X11220000Y7090000D02*
D03*
Y6910000D02*
D03*
X10960000Y8220000D02*
D03*
Y8400000D02*
D03*
Y7780000D02*
D03*
Y7960000D02*
D03*
X10700000Y8220000D02*
D03*
Y8400000D02*
D03*
Y7780000D02*
D03*
Y7960000D02*
D03*
X10440000Y7330000D02*
D03*
Y7510000D02*
D03*
X10440000Y7780000D02*
D03*
Y7960000D02*
D03*
X7512500Y7355000D02*
D03*
Y7535000D02*
D03*
X12642500Y9260000D02*
D03*
Y9080000D02*
D03*
X13227499Y9490000D02*
D03*
Y9670000D02*
D03*
X12632499Y9840000D02*
D03*
Y9660000D02*
D03*
X13197499Y9045000D02*
D03*
Y8865000D02*
D03*
X5270000Y7150000D02*
D03*
Y6970000D02*
D03*
X5110000Y7150000D02*
D03*
Y6970000D02*
D03*
X5930000Y7150000D02*
D03*
Y6970000D02*
D03*
X6090000Y7150000D02*
D03*
Y6970000D02*
D03*
D123*
X5640000Y11160000D02*
D03*
X5820000D02*
D03*
X4812500Y11030000D02*
D03*
X4992500D02*
D03*
X10680000Y11980000D02*
D03*
X10500000D02*
D03*
X10680000Y11690000D02*
D03*
X10500000D02*
D03*
X13110001Y11570000D02*
D03*
X12930000D02*
D03*
X13230000Y13220000D02*
D03*
X13410001D02*
D03*
X13489999Y13030000D02*
D03*
X13670000D02*
D03*
X7240000Y12880000D02*
D03*
X7060000D02*
D03*
X4850000Y8540000D02*
D03*
X5030000D02*
D03*
X4850000Y8380000D02*
D03*
X5030000D02*
D03*
X4850000Y8220000D02*
D03*
X5030000D02*
D03*
X4850000Y8700000D02*
D03*
X5030000D02*
D03*
X3730000Y9380000D02*
D03*
X3910000D02*
D03*
X3730000Y9720000D02*
D03*
X3910000D02*
D03*
X5030000Y8060000D02*
D03*
X4850000D02*
D03*
X4500000Y9810000D02*
D03*
X4680000D02*
D03*
X9950000Y11440000D02*
D03*
X9770000D02*
D03*
Y11630000D02*
D03*
X9950000D02*
D03*
X11430000Y11070000D02*
D03*
X11250000D02*
D03*
X11040000Y11560000D02*
D03*
X10860000D02*
D03*
X10080000Y8320000D02*
D03*
X9900000D02*
D03*
X10080000Y8160000D02*
D03*
X9900000D02*
D03*
X10080000Y8480000D02*
D03*
X9900000D02*
D03*
X10080000Y8640000D02*
D03*
X9900000D02*
D03*
D126*
X9210000Y11200000D02*
D03*
Y11020000D02*
D03*
X7120000Y10470000D02*
D03*
Y10650000D02*
D03*
X10980000Y11170000D02*
D03*
Y10990000D02*
D03*
X10440000Y10610000D02*
D03*
Y10430000D02*
D03*
X6470000Y11910000D02*
D03*
Y11730000D02*
D03*
Y11390000D02*
D03*
Y11570000D02*
D03*
X7100000Y11580000D02*
D03*
Y11400000D02*
D03*
X6220000Y10310000D02*
D03*
Y10490000D02*
D03*
X5850000Y10540000D02*
D03*
Y10360000D02*
D03*
X3349999Y10530000D02*
D03*
Y10710000D02*
D03*
X3010000Y11030000D02*
D03*
Y10850000D02*
D03*
X10310000Y11910000D02*
D03*
Y11730000D02*
D03*
X7250000Y13039999D02*
D03*
Y13220000D02*
D03*
X5480000Y10250000D02*
D03*
Y10070000D02*
D03*
X5890000Y10710000D02*
D03*
Y10890000D02*
D03*
X3949999Y10530000D02*
D03*
Y10710000D02*
D03*
X3250000Y9520000D02*
D03*
Y9700000D02*
D03*
X4290000Y10520001D02*
D03*
Y10340000D02*
D03*
X10660000Y10460000D02*
D03*
Y10640000D02*
D03*
X11650000Y11950000D02*
D03*
Y11770000D02*
D03*
X10840000Y12770000D02*
D03*
Y12590000D02*
D03*
X13680000Y10950000D02*
D03*
Y10770000D02*
D03*
X7740000Y12290000D02*
D03*
Y12470000D02*
D03*
X3670000Y12000000D02*
D03*
Y11820000D02*
D03*
X4120000Y12020000D02*
D03*
Y11840000D02*
D03*
X3940000Y11550000D02*
D03*
Y11370000D02*
D03*
X3510000Y11550000D02*
D03*
Y11370000D02*
D03*
X3349999Y10149000D02*
D03*
Y10329000D02*
D03*
X3952259Y11091000D02*
D03*
Y10911000D02*
D03*
X4730000Y10490000D02*
D03*
Y10670000D02*
D03*
X4605000Y12989999D02*
D03*
Y12810001D02*
D03*
Y12670000D02*
D03*
Y12490000D02*
D03*
X5330000Y12939999D02*
D03*
Y12760000D02*
D03*
Y12020000D02*
D03*
Y11840000D02*
D03*
X5780000D02*
D03*
Y12020000D02*
D03*
X5630000Y12280000D02*
D03*
Y12460000D02*
D03*
X4090000Y8910000D02*
D03*
Y9090000D02*
D03*
X4270000D02*
D03*
Y8910000D02*
D03*
X5040000Y8880000D02*
D03*
Y9060000D02*
D03*
X4860000Y8880000D02*
D03*
Y9060000D02*
D03*
X5530000Y8880000D02*
D03*
Y9060000D02*
D03*
X5940000D02*
D03*
Y8880000D02*
D03*
X5750000D02*
D03*
Y9060000D02*
D03*
X5290000D02*
D03*
Y8880000D02*
D03*
X4520000Y9050000D02*
D03*
Y9230000D02*
D03*
X4700000D02*
D03*
Y9050000D02*
D03*
X7000000Y13100000D02*
D03*
Y13280000D02*
D03*
X6880000Y11500000D02*
D03*
Y11680000D02*
D03*
X6890000Y10860000D02*
D03*
Y11040000D02*
D03*
X5820000Y8070000D02*
D03*
Y7890000D02*
D03*
X10830000Y10720000D02*
D03*
Y10540000D02*
D03*
X9610000Y11340000D02*
D03*
Y11520000D02*
D03*
X9940000Y10610000D02*
D03*
Y10790000D02*
D03*
X10120000Y11910000D02*
D03*
Y11730000D02*
D03*
X9150000Y10650000D02*
D03*
Y10470000D02*
D03*
X7667500Y7755000D02*
D03*
Y7935000D02*
D03*
X12642500Y8767500D02*
D03*
Y8947500D02*
D03*
X6027500Y8312500D02*
D03*
Y8132500D02*
D03*
X5600000Y6970000D02*
D03*
Y7150000D02*
D03*
X5430000D02*
D03*
Y6970000D02*
D03*
X5770000D02*
D03*
Y7150000D02*
D03*
D149*
X12920000Y9799300D02*
D03*
X13014999Y9520700D02*
D03*
X12825000D02*
D03*
X12917500Y8878200D02*
D03*
X12822501Y9156800D02*
D03*
X13012500D02*
D03*
D151*
X9323500Y13124500D02*
D03*
X8376500D02*
D03*
X9323500Y12362500D02*
D03*
X8376500D02*
D03*
D152*
X9323500Y12870500D02*
D03*
Y12616500D02*
D03*
X8376500Y12870500D02*
D03*
Y12616500D02*
D03*
D153*
X12070000Y10902500D02*
D03*
D154*
X12300000Y11517500D02*
D03*
X12070000D02*
D03*
X11840000D02*
D03*
D155*
X11010000Y12174300D02*
D03*
Y11945700D02*
D03*
D156*
X7990000Y10610000D02*
D03*
X7550000D02*
D03*
X7990000Y10850000D02*
D03*
X7550000D02*
D03*
D159*
X8540000Y11875000D02*
D03*
Y11810000D02*
D03*
Y11745000D02*
D03*
X8306960D02*
D03*
Y11875000D02*
D03*
D160*
X6341688Y9808730D02*
D03*
X6519488D02*
D03*
X9824188Y10281230D02*
D03*
X10001988D02*
D03*
D162*
X7524200Y8897500D02*
D03*
X7625800D02*
D03*
X7524200Y8500000D02*
D03*
X7625800D02*
D03*
X7524200Y9060000D02*
D03*
X7625800D02*
D03*
X7536700Y9220000D02*
D03*
X7638300D02*
D03*
X6659200Y9140000D02*
D03*
X6760800D02*
D03*
X6998300D02*
D03*
X6896700D02*
D03*
X7000800Y8740000D02*
D03*
X6899200D02*
D03*
X6814200Y8660000D02*
D03*
X6915800D02*
D03*
X7083300Y8900000D02*
D03*
X6981700D02*
D03*
X7324200D02*
D03*
X7425800D02*
D03*
X7326700Y8740000D02*
D03*
X7428300D02*
D03*
X6571700Y9297500D02*
D03*
X6673300D02*
D03*
X6816700Y8980000D02*
D03*
X6918300D02*
D03*
X6504200Y9380000D02*
D03*
X6605800D02*
D03*
X6659200Y9060000D02*
D03*
X6760800D02*
D03*
X7405800Y8500000D02*
D03*
X7304200D02*
D03*
X6768300Y8582500D02*
D03*
X6666700D02*
D03*
X8466700Y9015000D02*
D03*
X8568300D02*
D03*
X8464200Y8702500D02*
D03*
X8565800D02*
D03*
X9550800Y8855000D02*
D03*
X9449200D02*
D03*
X9550800Y8535000D02*
D03*
X9449200D02*
D03*
X9550800Y8650000D02*
D03*
X9449200D02*
D03*
X8466700Y9100000D02*
D03*
X8568300D02*
D03*
X8466700Y8930000D02*
D03*
X8568300D02*
D03*
X9545800Y8967500D02*
D03*
X9444200D02*
D03*
X9405800Y9160000D02*
D03*
X9304200D02*
D03*
X8753300Y8607500D02*
D03*
X8651700D02*
D03*
X9553300Y8752500D02*
D03*
X9451700D02*
D03*
X8799200Y8685000D02*
D03*
X8900800D02*
D03*
X8560800Y8535000D02*
D03*
X8459200D02*
D03*
X7559200Y10350000D02*
D03*
X7660800D02*
D03*
X10051601Y7110000D02*
D03*
X9950000D02*
D03*
X10050801Y7230000D02*
D03*
X9949200D02*
D03*
X10050800Y7350000D02*
D03*
X9949200D02*
D03*
X6319200Y8800000D02*
D03*
X6420800D02*
D03*
X6319200Y8900000D02*
D03*
X6420800D02*
D03*
X6319200Y9030000D02*
D03*
X6420800D02*
D03*
X7068270Y7795634D02*
D03*
X7169871D02*
D03*
X9414200Y10207500D02*
D03*
X9515800D02*
D03*
X8141700Y9467500D02*
D03*
X8243300D02*
D03*
X8297800Y8699000D02*
D03*
X8196200D02*
D03*
X6319200Y9150000D02*
D03*
X6420800D02*
D03*
X6816700Y9532500D02*
D03*
X6918300D02*
D03*
X9283300Y10207500D02*
D03*
X9181700D02*
D03*
X9381700Y10292500D02*
D03*
X9483300D02*
D03*
D163*
X11989840Y12400000D02*
D03*
X12230000D02*
D03*
X12500080Y12750000D02*
D03*
X12259920D02*
D03*
X13240080Y12630000D02*
D03*
X12999921D02*
D03*
D170*
X12920000Y13119920D02*
D03*
Y13360080D02*
D03*
X8000000Y12659920D02*
D03*
Y12900079D02*
D03*
D175*
X2849999Y13400000D02*
D03*
X13650000Y6969999D02*
D03*
X2849999D02*
D03*
D176*
X13650000Y13400000D02*
D03*
D177*
X3157499Y11790001D02*
D03*
Y13060001D02*
D03*
Y12425001D02*
D03*
X3212500Y13385001D02*
D03*
Y12750001D02*
D03*
X4352499Y12115001D02*
D03*
Y12750001D02*
D03*
X3212500Y12115001D02*
D03*
X4352499Y13385001D02*
D03*
X4407499Y11790001D02*
D03*
Y12425001D02*
D03*
Y13060001D02*
D03*
X4802500Y11790001D02*
D03*
Y13060001D02*
D03*
Y12425001D02*
D03*
X4857500Y13385001D02*
D03*
Y12750001D02*
D03*
X5997500Y12115001D02*
D03*
Y12750001D02*
D03*
X4857500Y12115001D02*
D03*
X5997500Y13385001D02*
D03*
X6052500Y11790001D02*
D03*
Y12425001D02*
D03*
Y13060001D02*
D03*
D178*
X7617501Y12780001D02*
D03*
X6413502D02*
D03*
D179*
X6890501Y12509001D02*
D03*
X7140501D02*
D03*
X6890501Y12309001D02*
D03*
X7140501D02*
D03*
D180*
X8347501Y13395001D02*
D03*
X9347501D02*
D03*
Y12145001D02*
D03*
X8347501D02*
D03*
X8097501Y12395001D02*
D03*
X9597501D02*
D03*
X8847501D02*
D03*
D181*
X11204300Y12779100D02*
D03*
X11704300Y12469100D02*
D03*
Y13089101D02*
D03*
D182*
X13184302Y13409099D02*
D03*
X12930302Y12901099D02*
D03*
X12676302D02*
D03*
Y13409099D02*
D03*
X13184302Y12901099D02*
D03*
D183*
X13010001Y9015000D02*
D03*
X13623000Y9480000D02*
D03*
Y9310000D02*
D03*
X13410001Y10180000D02*
D03*
X13670000D02*
D03*
X10970000Y10530000D02*
D03*
X12232000Y9140000D02*
D03*
X12359000D02*
D03*
X12090000Y10180000D02*
D03*
X12359000Y9680000D02*
D03*
D184*
X12310000Y11830000D02*
D03*
X13420000Y12640000D02*
D03*
X12230000Y12210000D02*
D03*
X12780000Y11640000D02*
D03*
X13700000Y13200000D02*
D03*
X13410001Y10630000D02*
D03*
X12740000Y11050000D02*
D03*
X13680000Y11430000D02*
D03*
X13500000Y11095000D02*
D03*
X11990000Y13400000D02*
D03*
X13150000Y11820000D02*
D03*
X13239999Y13080000D02*
D03*
X13160001Y12280000D02*
D03*
X11460000Y11770000D02*
D03*
X12690000Y10670000D02*
D03*
X12740000Y11400000D02*
D03*
X12550000Y12450000D02*
D03*
X13670000Y12250000D02*
D03*
X13639999Y10640000D02*
D03*
X13550000Y13200000D02*
D03*
X13439999Y13350000D02*
D03*
X12060000Y12560000D02*
D03*
X12070000Y12730000D02*
D03*
X11780000Y11940000D02*
D03*
X10990000Y12610000D02*
D03*
X10180000Y12730000D02*
D03*
X12070000Y11310000D02*
D03*
X11930000Y12009920D02*
D03*
D185*
X10310000Y12060000D02*
D03*
X9820000Y11810000D02*
D03*
X11130000Y11080000D02*
D03*
X10500000Y11820000D02*
D03*
X9690000Y10950000D02*
D03*
X9610000Y11170000D02*
D03*
X10300000Y10610000D02*
D03*
D189*
X7220000Y9451700D02*
D03*
Y9553300D02*
D03*
X7470000Y8353300D02*
D03*
Y8251700D02*
D03*
X9290000Y10703300D02*
D03*
Y10601700D02*
D03*
X6910000Y9393300D02*
D03*
Y9291700D02*
D03*
X7230000Y9159200D02*
D03*
Y9260800D02*
D03*
X7390000Y9129200D02*
D03*
Y9230800D02*
D03*
X7077500Y9209200D02*
D03*
Y9310800D02*
D03*
X7085000Y8593300D02*
D03*
Y8491700D02*
D03*
X7232500Y8961700D02*
D03*
Y9063300D02*
D03*
X6990000Y8401700D02*
D03*
Y8503300D02*
D03*
X7232500Y8860800D02*
D03*
Y8759200D02*
D03*
X6710000Y9560800D02*
D03*
Y9459200D02*
D03*
X6830000Y9390800D02*
D03*
Y9289200D02*
D03*
X6827500Y8401700D02*
D03*
Y8503300D02*
D03*
X7230000Y8673300D02*
D03*
Y8571699D02*
D03*
Y8326700D02*
D03*
Y8428300D02*
D03*
X9445000Y7789200D02*
D03*
Y7890800D02*
D03*
X9352500Y8460800D02*
D03*
Y8359200D02*
D03*
X8562500Y8158300D02*
D03*
Y8056700D02*
D03*
X8585000Y7814200D02*
D03*
Y7915800D02*
D03*
X8907500Y8438300D02*
D03*
Y8336700D02*
D03*
X9112500Y8218300D02*
D03*
Y8116700D02*
D03*
X9445000Y8019200D02*
D03*
Y8120800D02*
D03*
X7830000Y10319200D02*
D03*
Y10420800D02*
D03*
X7885000Y7919200D02*
D03*
Y8020800D02*
D03*
X6860000Y7989200D02*
D03*
Y8090800D02*
D03*
X6750000Y7989200D02*
D03*
Y8090800D02*
D03*
X7720000Y8139200D02*
D03*
Y8240800D02*
D03*
X7550000Y7920800D02*
D03*
Y7819200D02*
D03*
X7732500Y9789200D02*
D03*
Y9890800D02*
D03*
X8042500D02*
D03*
Y9789200D02*
D03*
X7838133Y9891730D02*
D03*
Y9790129D02*
D03*
X7942500Y9789200D02*
D03*
Y9890800D02*
D03*
X9290000Y10369200D02*
D03*
Y10470800D02*
D03*
X7080000Y9630800D02*
D03*
Y9529200D02*
D03*
D190*
X10179160Y12920000D02*
D03*
Y13150000D02*
D03*
Y13380000D02*
D03*
X13410840Y12280000D02*
D03*
Y12050000D02*
D03*
Y11820000D02*
D03*
D191*
X10844490Y13150000D02*
D03*
X12745510Y12050000D02*
D03*
D192*
X7365000Y12247760D02*
D03*
X7460000D02*
D03*
X7555000D02*
D03*
Y12532240D02*
D03*
X7460000D02*
D03*
X7365000D02*
D03*
D193*
X9940000Y7720000D02*
D03*
Y7500000D02*
D03*
D194*
X6761270Y9761688D02*
D03*
Y9939488D02*
D03*
D195*
X7900000Y7752500D02*
D03*
%TF.MD5,447135d5ea3815ee2af55268a7a02776*%
M02*
