G04 Layer_Color=128*
%FSLAX44Y44*%
%MOMM*%
G71*
G01*
G75*
%ADD28R,0.6000X1.5000*%
%ADD38R,1.5000X0.6000*%
%ADD100R,0.6000X1.8000*%
%ADD102R,2.7000X4.1000*%
%ADD103R,2.7000X1.3000*%
%ADD114R,0.6500X0.5500*%
%ADD115R,1.2430X1.3700*%
%ADD116R,1.1000X1.1000*%
%ADD118R,1.1000X0.9000*%
%ADD119R,0.9000X1.1000*%
%ADD120R,1.1000X1.1000*%
%ADD136R,1.3000X0.5000*%
%ADD169R,1.9000X1.5000*%
%ADD171R,1.5000X1.1000*%
%ADD174R,1.5000X2.3000*%
%ADD175R,3.4000X2.3000*%
%ADD176R,2.6000X1.1160*%
%ADD177R,2.6000X1.3700*%
%ADD178R,1.1000X1.6000*%
%ADD179R,0.5500X0.6500*%
%ADD180R,1.3700X1.2430*%
%ADD181R,1.3000X0.9000*%
D28*
X800000Y1290008D02*
D03*
Y1265992D02*
D03*
X1292000Y1336008D02*
D03*
Y1311992D02*
D03*
D38*
X1299992Y1263000D02*
D03*
X1324008D02*
D03*
X1225992Y1275000D02*
D03*
X1250008D02*
D03*
X1223000Y1240000D02*
D03*
X1198984D02*
D03*
D100*
X736500Y1253224D02*
D03*
X746000D02*
D03*
X755500D02*
D03*
Y1224776D02*
D03*
X746000D02*
D03*
X736500D02*
D03*
D102*
X1274551Y1205000D02*
D03*
X1084449Y1315000D02*
D03*
D103*
X1341084Y1182000D02*
D03*
Y1205000D02*
D03*
Y1228000D02*
D03*
X1017916Y1338000D02*
D03*
Y1315000D02*
D03*
Y1292000D02*
D03*
D114*
X948330Y1029250D02*
D03*
X938170D02*
D03*
X918170Y1020750D02*
D03*
X928330D02*
D03*
X691830Y953250D02*
D03*
X681670D02*
D03*
X642080Y915000D02*
D03*
X631920D02*
D03*
X819620Y869900D02*
D03*
X829780D02*
D03*
X762830Y873750D02*
D03*
X752670D02*
D03*
X951580Y1020750D02*
D03*
X941420D02*
D03*
X716987Y779563D02*
D03*
X706827D02*
D03*
X642080Y903000D02*
D03*
X631920D02*
D03*
X642080Y890000D02*
D03*
X631920D02*
D03*
X642080Y880000D02*
D03*
X631920D02*
D03*
X994920Y735000D02*
D03*
X1005080D02*
D03*
X994920Y723000D02*
D03*
X1005080D02*
D03*
X995000Y711000D02*
D03*
X1005160D02*
D03*
X766080Y1035000D02*
D03*
X755920D02*
D03*
X845920Y853500D02*
D03*
X856080D02*
D03*
X890080Y868500D02*
D03*
X879920D02*
D03*
X945170Y875250D02*
D03*
X955330D02*
D03*
X865170Y860750D02*
D03*
X875330D02*
D03*
X930420Y916000D02*
D03*
X940580D02*
D03*
X944420Y896750D02*
D03*
X954580D02*
D03*
X856830Y893000D02*
D03*
X846670D02*
D03*
X856830Y910000D02*
D03*
X846670D02*
D03*
X944920Y865000D02*
D03*
X955080D02*
D03*
X944920Y853500D02*
D03*
X955080D02*
D03*
X944920Y885500D02*
D03*
X955080D02*
D03*
X856580Y870250D02*
D03*
X846420D02*
D03*
X856830Y901500D02*
D03*
X846670D02*
D03*
X666670Y858250D02*
D03*
X676830D02*
D03*
X730420Y850000D02*
D03*
X740580D02*
D03*
X676080Y906000D02*
D03*
X665920D02*
D03*
X660580Y938000D02*
D03*
X650420D02*
D03*
X691830Y898000D02*
D03*
X681670D02*
D03*
X667330Y929750D02*
D03*
X657170D02*
D03*
X742830Y874000D02*
D03*
X732670D02*
D03*
X742580Y890000D02*
D03*
X732420D02*
D03*
X698170D02*
D03*
X708330D02*
D03*
X691580Y866000D02*
D03*
X681420D02*
D03*
X689920Y874000D02*
D03*
X700080D02*
D03*
X689670Y914000D02*
D03*
X699830D02*
D03*
X676080D02*
D03*
X665920D02*
D03*
X763830Y922000D02*
D03*
X753670D02*
D03*
X762580Y906000D02*
D03*
X752420D02*
D03*
X762580Y850000D02*
D03*
X752420D02*
D03*
X762580Y889750D02*
D03*
X752420D02*
D03*
D115*
X1000199Y1028123D02*
D03*
X982419D02*
D03*
X651949Y980873D02*
D03*
X634169D02*
D03*
D116*
X865000Y1040250D02*
D03*
X847000D02*
D03*
X1113000Y1087000D02*
D03*
X1131000D02*
D03*
X1114000Y1063000D02*
D03*
X1132000D02*
D03*
X812450Y881550D02*
D03*
X830450D02*
D03*
X846750Y1069500D02*
D03*
X864750D02*
D03*
X865000Y1026250D02*
D03*
X847000D02*
D03*
X846750Y1054750D02*
D03*
X864750D02*
D03*
X1143000Y1145000D02*
D03*
X1125000D02*
D03*
X1143000Y1127000D02*
D03*
X1125000D02*
D03*
X1002000Y1046000D02*
D03*
X1020000D02*
D03*
X577000Y968000D02*
D03*
X595000D02*
D03*
X577000Y986000D02*
D03*
X595000D02*
D03*
X448000Y824000D02*
D03*
X466000D02*
D03*
X410000Y809000D02*
D03*
X428000D02*
D03*
X448000D02*
D03*
X466000D02*
D03*
X468000Y964000D02*
D03*
X450000D02*
D03*
X486000Y790000D02*
D03*
X504000D02*
D03*
X390000Y921000D02*
D03*
X372000D02*
D03*
X394000Y955000D02*
D03*
X376000D02*
D03*
X582000Y822000D02*
D03*
X564000D02*
D03*
X582000Y838000D02*
D03*
X564000D02*
D03*
X582000Y854000D02*
D03*
X564000D02*
D03*
X582000Y870000D02*
D03*
X564000D02*
D03*
X878000Y1207000D02*
D03*
X896000D02*
D03*
X559000Y1083000D02*
D03*
X541000D02*
D03*
X846750Y1083750D02*
D03*
X864750D02*
D03*
X852000Y1109000D02*
D03*
X870000D02*
D03*
X491000Y1082000D02*
D03*
X509000D02*
D03*
D118*
X577000Y715000D02*
D03*
Y697000D02*
D03*
X543000D02*
D03*
Y715000D02*
D03*
X560000D02*
D03*
Y697000D02*
D03*
X602750Y813250D02*
D03*
Y831250D02*
D03*
X1264250Y894750D02*
D03*
Y876750D02*
D03*
X766750Y793500D02*
D03*
Y775500D02*
D03*
X915000Y1047000D02*
D03*
Y1065000D02*
D03*
X1012000Y1173000D02*
D03*
Y1191000D02*
D03*
X994000Y1079000D02*
D03*
Y1061000D02*
D03*
X961000Y1152000D02*
D03*
Y1134000D02*
D03*
X1083000Y1054000D02*
D03*
Y1072000D02*
D03*
X582000Y789000D02*
D03*
Y807000D02*
D03*
X689000Y1104000D02*
D03*
Y1086000D02*
D03*
X688000Y1168000D02*
D03*
Y1150000D02*
D03*
X700000Y1328000D02*
D03*
Y1310000D02*
D03*
X470000Y905000D02*
D03*
Y923000D02*
D03*
X452000D02*
D03*
Y905000D02*
D03*
X529000Y888000D02*
D03*
Y906000D02*
D03*
X575000D02*
D03*
Y888000D02*
D03*
X594000D02*
D03*
Y906000D02*
D03*
X553000D02*
D03*
Y888000D02*
D03*
X486000Y906000D02*
D03*
Y888000D02*
D03*
X504000Y906000D02*
D03*
Y888000D02*
D03*
X427000Y891000D02*
D03*
Y909000D02*
D03*
X409000D02*
D03*
Y891000D02*
D03*
X563000Y1246000D02*
D03*
Y1228000D02*
D03*
X578000Y1202000D02*
D03*
Y1184000D02*
D03*
X533000D02*
D03*
Y1202000D02*
D03*
Y1276000D02*
D03*
Y1294000D02*
D03*
X460500Y1249000D02*
D03*
Y1267000D02*
D03*
Y1281000D02*
D03*
Y1299000D02*
D03*
X473000Y1067000D02*
D03*
Y1049000D02*
D03*
X395226Y1091100D02*
D03*
Y1109100D02*
D03*
X335000Y1032900D02*
D03*
Y1014900D02*
D03*
X351000Y1137000D02*
D03*
Y1155000D02*
D03*
X394000Y1137000D02*
D03*
Y1155000D02*
D03*
X412000Y1184000D02*
D03*
Y1202000D02*
D03*
X367000Y1182000D02*
D03*
Y1200000D02*
D03*
X774000Y1247000D02*
D03*
Y1229000D02*
D03*
X1368000Y1077000D02*
D03*
Y1095000D02*
D03*
X1084000Y1259000D02*
D03*
Y1277000D02*
D03*
X1165000Y1177000D02*
D03*
Y1195000D02*
D03*
X1066000Y1064000D02*
D03*
Y1046000D02*
D03*
X429000Y1034000D02*
D03*
Y1052000D02*
D03*
X325000Y970000D02*
D03*
Y952000D02*
D03*
X395000Y1071000D02*
D03*
Y1053000D02*
D03*
X589000Y1089000D02*
D03*
Y1071000D02*
D03*
X548000Y1007000D02*
D03*
Y1025000D02*
D03*
X725000Y1322000D02*
D03*
Y1304000D02*
D03*
X1031000Y1173000D02*
D03*
Y1191000D02*
D03*
X301000Y1085000D02*
D03*
Y1103000D02*
D03*
X335000Y1071000D02*
D03*
Y1053000D02*
D03*
X585000Y1036000D02*
D03*
Y1054000D02*
D03*
X622000Y1049000D02*
D03*
Y1031000D02*
D03*
X710000Y1140000D02*
D03*
Y1158000D02*
D03*
X647000Y1157000D02*
D03*
Y1139000D02*
D03*
Y1173000D02*
D03*
Y1191000D02*
D03*
X1044000Y1043000D02*
D03*
Y1061000D02*
D03*
X1098000Y1099000D02*
D03*
Y1117000D02*
D03*
X712000Y1065000D02*
D03*
Y1047000D02*
D03*
X921000Y1102000D02*
D03*
Y1120000D02*
D03*
D119*
X1086000Y1156000D02*
D03*
X1104000D02*
D03*
X1125000Y1107000D02*
D03*
X1143000D02*
D03*
X995000Y1163000D02*
D03*
X977000D02*
D03*
Y1144000D02*
D03*
X995000D02*
D03*
X468000Y981000D02*
D03*
X450000D02*
D03*
X485000Y806000D02*
D03*
X503000D02*
D03*
X391000Y972000D02*
D03*
X373000D02*
D03*
X391000Y938000D02*
D03*
X373000D02*
D03*
X503000Y870000D02*
D03*
X485000D02*
D03*
X503000Y822000D02*
D03*
X485000D02*
D03*
X503000Y838000D02*
D03*
X485000D02*
D03*
X503000Y854000D02*
D03*
X485000D02*
D03*
X706000Y1288000D02*
D03*
X724000D02*
D03*
X1367000Y1303000D02*
D03*
X1349000D02*
D03*
X1341000Y1322000D02*
D03*
X1323000D02*
D03*
X1293000Y1157000D02*
D03*
X1311000D02*
D03*
X1050000Y1169000D02*
D03*
X1068000D02*
D03*
X1050000Y1198000D02*
D03*
X1068000D02*
D03*
X582000Y1116000D02*
D03*
X564000D02*
D03*
X1008000Y864000D02*
D03*
X990000D02*
D03*
X1008000Y848000D02*
D03*
X990000D02*
D03*
X1008000Y816000D02*
D03*
X990000D02*
D03*
X1008000Y832000D02*
D03*
X990000D02*
D03*
X499250Y1103000D02*
D03*
X481250D02*
D03*
D120*
X609000Y697000D02*
D03*
Y715000D02*
D03*
X593000Y697000D02*
D03*
Y715000D02*
D03*
X511000Y697000D02*
D03*
Y715000D02*
D03*
X527000Y697000D02*
D03*
Y715000D02*
D03*
X1264250Y908000D02*
D03*
Y926000D02*
D03*
X751250Y753500D02*
D03*
Y735500D02*
D03*
X1044000Y796000D02*
D03*
Y778000D02*
D03*
X1044000Y751000D02*
D03*
Y733000D02*
D03*
X1070000Y796000D02*
D03*
Y778000D02*
D03*
Y840000D02*
D03*
Y822000D02*
D03*
X1096000Y796000D02*
D03*
Y778000D02*
D03*
Y840000D02*
D03*
Y822000D02*
D03*
X1122000Y691000D02*
D03*
Y709000D02*
D03*
X1122000Y840000D02*
D03*
Y822000D02*
D03*
X1148000Y796000D02*
D03*
Y778000D02*
D03*
Y840000D02*
D03*
Y822000D02*
D03*
X1174000Y796000D02*
D03*
Y778000D02*
D03*
X1172000Y839000D02*
D03*
Y821000D02*
D03*
X1200000Y796000D02*
D03*
Y778000D02*
D03*
X1200000Y751000D02*
D03*
Y733000D02*
D03*
X1226000Y796000D02*
D03*
Y778000D02*
D03*
Y840000D02*
D03*
Y822000D02*
D03*
X1043973Y709000D02*
D03*
Y691000D02*
D03*
X1044000Y822000D02*
D03*
Y840000D02*
D03*
X1070000Y709072D02*
D03*
Y691072D02*
D03*
X1069973Y733000D02*
D03*
Y751000D02*
D03*
X1096000Y709000D02*
D03*
Y691000D02*
D03*
Y733000D02*
D03*
Y751000D02*
D03*
X1122000Y778000D02*
D03*
Y796000D02*
D03*
X1122000Y733000D02*
D03*
Y751000D02*
D03*
X1147973Y709000D02*
D03*
Y691000D02*
D03*
X1148000Y733000D02*
D03*
Y751000D02*
D03*
X1173973Y709000D02*
D03*
Y691000D02*
D03*
X1174000Y733000D02*
D03*
Y751000D02*
D03*
X1199973Y709000D02*
D03*
Y691000D02*
D03*
X1200000Y822000D02*
D03*
Y840000D02*
D03*
X1225974Y709000D02*
D03*
Y691000D02*
D03*
X1226000Y733000D02*
D03*
Y751000D02*
D03*
X603000Y865000D02*
D03*
Y847000D02*
D03*
X670000Y1065000D02*
D03*
Y1083000D02*
D03*
X673000Y1305000D02*
D03*
Y1323000D02*
D03*
X962000Y1282000D02*
D03*
Y1264000D02*
D03*
X599000Y1153000D02*
D03*
Y1135000D02*
D03*
X490000D02*
D03*
Y1153000D02*
D03*
X527000D02*
D03*
Y1135000D02*
D03*
X563000D02*
D03*
Y1153000D02*
D03*
X515000Y1248000D02*
D03*
Y1230000D02*
D03*
X577000Y1294000D02*
D03*
Y1276000D02*
D03*
X561000Y1322000D02*
D03*
Y1340000D02*
D03*
X515000Y1322000D02*
D03*
Y1340000D02*
D03*
X429000Y1085000D02*
D03*
Y1103000D02*
D03*
X394000Y1015000D02*
D03*
Y1033000D02*
D03*
X351000Y953000D02*
D03*
Y971000D02*
D03*
X350000Y1320000D02*
D03*
Y1338000D02*
D03*
X295000Y1264000D02*
D03*
Y1282000D02*
D03*
X367000Y1275000D02*
D03*
Y1293000D02*
D03*
X303000Y952000D02*
D03*
Y970000D02*
D03*
X286000Y952000D02*
D03*
Y970000D02*
D03*
X364000Y1009000D02*
D03*
Y1027000D02*
D03*
X295000Y1200000D02*
D03*
Y1218000D02*
D03*
X365000Y1094000D02*
D03*
Y1112000D02*
D03*
X396000Y1338000D02*
D03*
Y1320000D02*
D03*
X394000Y1246000D02*
D03*
Y1228000D02*
D03*
X409000Y1293000D02*
D03*
Y1275000D02*
D03*
X352000Y1246000D02*
D03*
Y1228000D02*
D03*
X335000Y1090000D02*
D03*
Y1108000D02*
D03*
X304500Y1033250D02*
D03*
Y1015250D02*
D03*
X662000Y1113000D02*
D03*
Y1131000D02*
D03*
X728000Y1158000D02*
D03*
Y1140000D02*
D03*
X980000Y1281000D02*
D03*
Y1299000D02*
D03*
X941000Y1134000D02*
D03*
Y1152000D02*
D03*
X633434Y1310907D02*
D03*
Y1328907D02*
D03*
X632000Y1232500D02*
D03*
Y1250500D02*
D03*
X399000Y715000D02*
D03*
Y697000D02*
D03*
X421000Y715000D02*
D03*
Y697000D02*
D03*
X446000Y715000D02*
D03*
Y697000D02*
D03*
X470000Y715000D02*
D03*
Y697000D02*
D03*
X535000Y1049000D02*
D03*
Y1067000D02*
D03*
X502000Y1049000D02*
D03*
Y1067000D02*
D03*
X670000Y1045000D02*
D03*
Y1027000D02*
D03*
X570000Y1024000D02*
D03*
Y1006000D02*
D03*
X667250Y1253000D02*
D03*
Y1235000D02*
D03*
X982000Y1113000D02*
D03*
Y1095000D02*
D03*
X898800Y790400D02*
D03*
Y808400D02*
D03*
X938000Y1119000D02*
D03*
Y1101000D02*
D03*
X824100Y858600D02*
D03*
Y840600D02*
D03*
X901300Y858800D02*
D03*
Y840800D02*
D03*
X1262500Y966000D02*
D03*
Y984000D02*
D03*
X1323250Y885750D02*
D03*
Y903750D02*
D03*
X1327250Y966750D02*
D03*
Y948750D02*
D03*
D136*
X830696Y1187500D02*
D03*
Y1174500D02*
D03*
X854000D02*
D03*
Y1181000D02*
D03*
Y1187500D02*
D03*
D169*
X755000Y1085000D02*
D03*
X799000D02*
D03*
X755000Y1061000D02*
D03*
X799000D02*
D03*
D171*
X1101000Y1194570D02*
D03*
Y1217430D02*
D03*
D174*
X1184000Y1151750D02*
D03*
X1207000D02*
D03*
X1230000D02*
D03*
D175*
X1207000Y1090250D02*
D03*
D176*
X837650Y1236250D02*
D03*
X932350D02*
D03*
X837650Y1312450D02*
D03*
X932350D02*
D03*
D177*
X837650Y1261650D02*
D03*
Y1287050D02*
D03*
X932350Y1261650D02*
D03*
Y1287050D02*
D03*
D178*
X1303750Y915680D02*
D03*
X1284750D02*
D03*
X1294250Y887820D02*
D03*
X1285250Y952070D02*
D03*
X1304250D02*
D03*
X1294750Y979930D02*
D03*
D179*
X708000Y952920D02*
D03*
Y963080D02*
D03*
X929000Y1047080D02*
D03*
Y1036920D02*
D03*
X794250Y989080D02*
D03*
Y978920D02*
D03*
X783813Y979013D02*
D03*
Y989173D02*
D03*
X804250Y978920D02*
D03*
Y989080D02*
D03*
X773250D02*
D03*
Y978920D02*
D03*
X755000Y781920D02*
D03*
Y792080D02*
D03*
X772000Y824080D02*
D03*
Y813920D02*
D03*
X675000Y809080D02*
D03*
Y798920D02*
D03*
X686000Y809080D02*
D03*
Y798920D02*
D03*
X788500Y802080D02*
D03*
Y791920D02*
D03*
X783000Y1042080D02*
D03*
Y1031920D02*
D03*
X944500Y812080D02*
D03*
Y801920D02*
D03*
X911250Y811670D02*
D03*
Y821830D02*
D03*
X890750Y833670D02*
D03*
Y843830D02*
D03*
X858500Y791580D02*
D03*
Y781420D02*
D03*
X856250Y805670D02*
D03*
Y815830D02*
D03*
X935250Y835920D02*
D03*
Y846080D02*
D03*
X944500Y789080D02*
D03*
Y778920D02*
D03*
X723000Y842830D02*
D03*
Y832670D02*
D03*
Y857170D02*
D03*
Y867330D02*
D03*
X682750Y850330D02*
D03*
Y840170D02*
D03*
X683000Y928920D02*
D03*
Y939080D02*
D03*
X671000Y945920D02*
D03*
Y956080D02*
D03*
X723250Y875920D02*
D03*
Y886080D02*
D03*
X699000Y850330D02*
D03*
Y840170D02*
D03*
X723250Y906330D02*
D03*
Y896170D02*
D03*
X708500Y849170D02*
D03*
Y859330D02*
D03*
X707750Y931080D02*
D03*
Y920920D02*
D03*
X739000Y923080D02*
D03*
Y912920D02*
D03*
X723000Y926080D02*
D03*
Y915920D02*
D03*
X691000Y929170D02*
D03*
Y939330D02*
D03*
X929000Y1060170D02*
D03*
Y1070330D02*
D03*
X747000Y825170D02*
D03*
Y835330D02*
D03*
X722000Y955330D02*
D03*
Y945170D02*
D03*
D180*
X676127Y993949D02*
D03*
Y976169D02*
D03*
D181*
X994000Y750000D02*
D03*
Y772000D02*
D03*
M02*
