G04 Layer_Color=16711935*
%FSLAX44Y44*%
%MOMM*%
G71*
G01*
G75*
%ADD71C,0.6000*%
%ADD72C,0.5000*%
%ADD75C,0.8000*%
%ADD87C,0.7000*%
%ADD116R,1.1000X1.1000*%
%ADD118R,1.1000X0.9000*%
%ADD119R,0.9000X1.1000*%
%ADD120R,1.1000X1.1000*%
%ADD140R,0.5900X0.4900*%
%ADD141R,1.2446X1.3716*%
%ADD146R,0.7000X1.6000*%
%ADD151R,1.6000X0.7000*%
%ADD153R,1.3400X0.5400*%
%ADD156C,2.1000*%
%ADD157C,2.8000*%
%ADD158C,2.4000*%
%ADD159C,1.8000*%
%ADD160C,0.1000*%
%ADD161C,2.6000*%
%ADD162C,1.3000*%
%ADD163C,0.9000*%
%ADD164C,1.1000*%
%ADD165C,1.6000*%
%ADD166R,0.4900X0.5900*%
%ADD167R,1.3716X1.2446*%
%ADD168R,1.3016X0.9016*%
%ADD169R,1.9000X1.5000*%
%ADD170R,0.7000X1.9000*%
%ADD171R,1.5000X1.1000*%
%ADD172R,2.8000X4.2000*%
%ADD173R,2.8000X1.4000*%
%ADD174R,1.5000X2.3000*%
%ADD175R,3.4000X2.3000*%
%ADD176R,2.6000X1.1160*%
%ADD177R,2.6000X1.3700*%
%ADD178R,1.1000X1.6000*%
D71*
X881250Y1061000D02*
D03*
X1006000Y772000D02*
D03*
X712000Y1056000D02*
D03*
X1065000Y1332000D02*
D03*
X495000Y880000D02*
D03*
X382000Y972000D02*
D03*
X504000Y897000D02*
D03*
X486000D02*
D03*
X1171250Y1161000D02*
D03*
X1179750Y1168500D02*
D03*
X1188000D02*
D03*
X1195750Y1161000D02*
D03*
Y1152000D02*
D03*
X1188000Y1136000D02*
D03*
X1179000D02*
D03*
X1104000Y1297000D02*
D03*
Y1311000D02*
D03*
Y1323000D02*
D03*
Y1334000D02*
D03*
X1095000Y1341000D02*
D03*
X1083000D02*
D03*
X1070000D02*
D03*
X1065000Y1291000D02*
D03*
Y1304000D02*
D03*
Y1318000D02*
D03*
X1073000Y1287000D02*
D03*
X1084000D02*
D03*
X1094000D02*
D03*
X1284000Y1178000D02*
D03*
X1261000D02*
D03*
X1273000D02*
D03*
X1263000Y1231000D02*
D03*
X1273000D02*
D03*
X1284000D02*
D03*
X1293000Y1226000D02*
D03*
Y1187000D02*
D03*
Y1199000D02*
D03*
Y1212000D02*
D03*
X1256000Y1213000D02*
D03*
Y1186000D02*
D03*
Y1223000D02*
D03*
X731000Y796000D02*
D03*
X699000Y730000D02*
D03*
Y738000D02*
D03*
Y746000D02*
D03*
X1195750Y1142000D02*
D03*
X1218250D02*
D03*
X1235000Y1136000D02*
D03*
X1226000D02*
D03*
X1218250Y1152000D02*
D03*
Y1161000D02*
D03*
X1226000Y1168500D02*
D03*
X1234250D02*
D03*
X1242750Y1161000D02*
D03*
D72*
X760000Y975679D02*
D03*
X765000Y980500D02*
D03*
X855750Y1069500D02*
D03*
X855750Y1054750D02*
D03*
X902250Y1138250D02*
D03*
X663625Y973625D02*
D03*
X837500Y1043250D02*
D03*
X349250Y1033500D02*
D03*
X312000Y1065000D02*
D03*
X466250Y1116250D02*
D03*
X872796Y781554D02*
D03*
X842420Y734750D02*
D03*
X781538Y801462D02*
D03*
X760037Y968297D02*
D03*
X783000Y808000D02*
D03*
X766750Y783750D02*
D03*
X811830Y756420D02*
D03*
X791140Y814710D02*
D03*
X803270Y813030D02*
D03*
X803290Y819380D02*
D03*
X832250Y951000D02*
D03*
X809000Y960000D02*
D03*
X936800Y893550D02*
D03*
X872800Y909550D02*
D03*
X936800Y885550D02*
D03*
X958000Y1020750D02*
D03*
X822000Y952750D02*
D03*
X972123Y1028127D02*
D03*
X982419Y1039919D02*
D03*
X929000Y1029250D02*
D03*
X934875Y1020750D02*
D03*
X954500Y1029250D02*
D03*
X929000Y1053625D02*
D03*
X731187Y779563D02*
D03*
X794500Y791750D02*
D03*
X687919Y976169D02*
D03*
X698999Y937998D02*
D03*
X706999D02*
D03*
X715000Y938000D02*
D03*
X691000Y946000D02*
D03*
X699000D02*
D03*
X707000D02*
D03*
X715000D02*
D03*
X699000Y954000D02*
D03*
X722000Y964000D02*
D03*
X715000Y954000D02*
D03*
X699000Y962000D02*
D03*
X691000Y963500D02*
D03*
X682999Y945998D02*
D03*
X648250Y929750D02*
D03*
X634000Y993250D02*
D03*
X707000Y914000D02*
D03*
X715000Y906000D02*
D03*
X707000D02*
D03*
X658800Y913900D02*
D03*
X651000Y906000D02*
D03*
X658999Y905998D02*
D03*
X683000Y922000D02*
D03*
X691000Y922000D02*
D03*
X675000Y922000D02*
D03*
X674999Y929998D02*
D03*
X683000Y914000D02*
D03*
X667000Y938000D02*
D03*
X675000D02*
D03*
X699000Y922000D02*
D03*
X1264250Y884750D02*
D03*
X936796Y829550D02*
D03*
X779000Y866000D02*
D03*
X880800Y837554D02*
D03*
Y829554D02*
D03*
X911250Y805250D02*
D03*
X920796Y813550D02*
D03*
X707000Y834000D02*
D03*
X674999Y833999D02*
D03*
X910752Y855502D02*
D03*
X803500Y807000D02*
D03*
X888810Y924540D02*
D03*
X470000Y766000D02*
D03*
X469000Y706000D02*
D03*
X310000Y1226000D02*
D03*
X381000Y1018000D02*
D03*
X431000Y1070000D02*
D03*
X465000Y1103000D02*
D03*
X338484Y978000D02*
D03*
X348000Y1023000D02*
D03*
X382000Y1093100D02*
D03*
X429000Y1094000D02*
D03*
X761000Y752750D02*
D03*
X971000Y1173000D02*
D03*
X632080Y871000D02*
D03*
X675000Y874000D02*
D03*
X667000Y874000D02*
D03*
X667000Y866000D02*
D03*
X659000Y866000D02*
D03*
X649000Y952000D02*
D03*
Y945000D02*
D03*
X949750Y1150500D02*
D03*
X667000Y702000D02*
D03*
X745000Y715000D02*
D03*
X1308000Y792000D02*
D03*
X1058000Y1074000D02*
D03*
X1100000Y1070000D02*
D03*
X1125000Y1077000D02*
D03*
X999000Y832000D02*
D03*
Y848000D02*
D03*
Y864000D02*
D03*
X1024000Y916000D02*
D03*
X1015000Y916000D02*
D03*
X1330000Y751000D02*
D03*
X1320000D02*
D03*
X1313000Y827000D02*
D03*
X1303500Y761500D02*
D03*
X1019000Y859000D02*
D03*
X1029000Y868000D02*
D03*
X1034000Y856000D02*
D03*
X999000Y816000D02*
D03*
X1293000Y863000D02*
D03*
X952000Y1048000D02*
D03*
X768000Y1061000D02*
D03*
X769000Y802000D02*
D03*
X815000Y962000D02*
D03*
X1225974Y721973D02*
D03*
X1202973Y721973D02*
D03*
X1183973Y725974D02*
D03*
X1157973Y725974D02*
D03*
X1132000D02*
D03*
X1106000D02*
D03*
X1080000Y726046D02*
D03*
X1053973Y725974D02*
D03*
X1172000Y830000D02*
D03*
X1044000Y831000D02*
D03*
X1069974Y831000D02*
D03*
X1096000Y831000D02*
D03*
X1122000D02*
D03*
X1148000D02*
D03*
X1200000D02*
D03*
X1226000D02*
D03*
X1044000Y787000D02*
D03*
X1069974Y787000D02*
D03*
X1096000Y787000D02*
D03*
X1122000D02*
D03*
X1148000D02*
D03*
X1174000D02*
D03*
X1200000D02*
D03*
X1226000D02*
D03*
X1226000Y742000D02*
D03*
X1200000D02*
D03*
X1174000D02*
D03*
X1148000D02*
D03*
X1122000D02*
D03*
X1096000D02*
D03*
X1069973Y742000D02*
D03*
X1044000Y742000D02*
D03*
X1134000Y868000D02*
D03*
X1124000D02*
D03*
X1119000Y916000D02*
D03*
X1129000Y916000D02*
D03*
X1154000Y868000D02*
D03*
X1149000Y916000D02*
D03*
X1139000Y916000D02*
D03*
X1164000Y868000D02*
D03*
X1174000D02*
D03*
X1184000D02*
D03*
X783000Y1055000D02*
D03*
X772000Y1040920D02*
D03*
X773000Y1031000D02*
D03*
X799000Y1073000D02*
D03*
X701000Y989000D02*
D03*
X694000D02*
D03*
X707750Y1026000D02*
D03*
X718998Y1020998D02*
D03*
X680000Y1067000D02*
D03*
X895971Y917460D02*
D03*
X763000Y938000D02*
D03*
X771001Y937998D02*
D03*
X731001D02*
D03*
X755001D02*
D03*
X747001D02*
D03*
X739001D02*
D03*
X723000Y938000D02*
D03*
X738999Y945998D02*
D03*
X731000Y946000D02*
D03*
X1069000Y916000D02*
D03*
X762998Y945998D02*
D03*
X1216350Y957200D02*
D03*
X788000Y965000D02*
D03*
X779000Y954000D02*
D03*
X787000D02*
D03*
X755250Y811000D02*
D03*
X1147000Y953000D02*
D03*
X1000950Y957200D02*
D03*
X1013650D02*
D03*
X1020000Y953000D02*
D03*
X994600D02*
D03*
X1007300D02*
D03*
X1197800Y956000D02*
D03*
X1210500Y953000D02*
D03*
X1159700D02*
D03*
X1185100D02*
D03*
X1172400D02*
D03*
X1096200D02*
D03*
X1108900D02*
D03*
X1134300D02*
D03*
X1121600D02*
D03*
X1083500D02*
D03*
X1054000Y868000D02*
D03*
X1049000Y916000D02*
D03*
X1209000D02*
D03*
X1189000Y916000D02*
D03*
X1199000Y916000D02*
D03*
X1169000D02*
D03*
X1179000D02*
D03*
X1159000Y916000D02*
D03*
X1089000Y916000D02*
D03*
X1099000D02*
D03*
X1109000D02*
D03*
X1079000D02*
D03*
X1214000Y868000D02*
D03*
X1204000D02*
D03*
X1144000D02*
D03*
X1194000D02*
D03*
X1104000D02*
D03*
X1114000D02*
D03*
X1084000D02*
D03*
X1059000Y916000D02*
D03*
X1204150Y957200D02*
D03*
X1191450Y962200D02*
D03*
X1178750Y957200D02*
D03*
X1166050D02*
D03*
X1153350D02*
D03*
X1140650D02*
D03*
X1127950D02*
D03*
X1115250D02*
D03*
X1102550D02*
D03*
X1089850D02*
D03*
X1077150D02*
D03*
X731000Y764000D02*
D03*
X764250Y809000D02*
D03*
X645000Y753000D02*
D03*
X305000Y791000D02*
D03*
X296000Y842200D02*
D03*
X288000D02*
D03*
X727000Y718000D02*
D03*
X732000Y713000D02*
D03*
X720000Y734000D02*
D03*
X719000Y718000D02*
D03*
X719000Y726000D02*
D03*
X1094000Y868000D02*
D03*
X1066000Y1184000D02*
D03*
X1150000Y1029000D02*
D03*
X1088000Y1123000D02*
D03*
X1088000Y1116000D02*
D03*
X976000Y1126000D02*
D03*
X1006500Y1143000D02*
D03*
X439000Y824000D02*
D03*
X419000Y809000D02*
D03*
X457000Y824000D02*
D03*
X564000Y888000D02*
D03*
X586000Y968000D02*
D03*
Y986000D02*
D03*
X422000Y785000D02*
D03*
X457000Y809000D02*
D03*
X618000Y932000D02*
D03*
X582000Y798000D02*
D03*
X573000Y854000D02*
D03*
Y870000D02*
D03*
X645000Y765000D02*
D03*
X459000Y963000D02*
D03*
X494000Y854000D02*
D03*
X385000Y955000D02*
D03*
X381000Y921000D02*
D03*
X296000Y867600D02*
D03*
X288000Y893000D02*
D03*
X296000D02*
D03*
X666000Y1093000D02*
D03*
X439000Y864000D02*
D03*
Y870000D02*
D03*
Y876000D02*
D03*
Y882000D02*
D03*
X653000Y816000D02*
D03*
X667000Y890000D02*
D03*
X645000Y772000D02*
D03*
Y786000D02*
D03*
Y779000D02*
D03*
X667000Y850000D02*
D03*
X659000D02*
D03*
X680000Y1086000D02*
D03*
X715000Y1288000D02*
D03*
X697000D02*
D03*
X578000Y1193000D02*
D03*
X725000Y1313000D02*
D03*
X716000Y1322000D02*
D03*
X691000Y1328000D02*
D03*
X700000Y1319000D02*
D03*
X551000Y1244000D02*
D03*
X673000Y1314000D02*
D03*
X658997Y890000D02*
D03*
X675000Y890000D02*
D03*
X336000Y952000D02*
D03*
X527000Y706000D02*
D03*
X543000D02*
D03*
X577000D02*
D03*
X560000D02*
D03*
X609000D02*
D03*
X593000D02*
D03*
X511000D02*
D03*
X288000Y791400D02*
D03*
Y816800D02*
D03*
X296000D02*
D03*
X288000Y867600D02*
D03*
X399000Y706000D02*
D03*
X421000D02*
D03*
X394000Y1128000D02*
D03*
X286000Y717000D02*
D03*
X778998Y945998D02*
D03*
X675000Y850000D02*
D03*
X707000Y874000D02*
D03*
X730999Y857998D02*
D03*
X666999Y897998D02*
D03*
X490000Y1144000D02*
D03*
X563000Y1163000D02*
D03*
X554000Y1222000D02*
D03*
X563000Y1144000D02*
D03*
X527000D02*
D03*
X506000Y1230000D02*
D03*
X577000Y1212000D02*
D03*
X562000Y1255000D02*
D03*
X543000Y1294000D02*
D03*
X515000Y1239000D02*
D03*
X475000Y1290000D02*
D03*
X459000Y1082000D02*
D03*
X1064000Y868000D02*
D03*
X1074000D02*
D03*
X1061000Y1124750D02*
D03*
Y1112750D02*
D03*
Y1100750D02*
D03*
X1029000Y1092750D02*
D03*
X1053000D02*
D03*
X1041000D02*
D03*
X844000Y1174500D02*
D03*
X820696Y1187500D02*
D03*
Y1174500D02*
D03*
X382000Y1101000D02*
D03*
X310000Y1289000D02*
D03*
X352000Y1237000D02*
D03*
X409000Y1284000D02*
D03*
X367000Y1209000D02*
D03*
X350000Y1329000D02*
D03*
X394000Y1146000D02*
D03*
X381000Y1228000D02*
D03*
X429000Y1043000D02*
D03*
X301000Y1094000D02*
D03*
X376000Y1182000D02*
D03*
X429000Y1063000D02*
D03*
X301000Y1114000D02*
D03*
X348000Y1042300D02*
D03*
X373000Y1009000D02*
D03*
X276000Y981000D02*
D03*
Y961500D02*
D03*
Y955000D02*
D03*
Y968000D02*
D03*
X667000Y1167700D02*
D03*
Y1155000D02*
D03*
X632000Y1180000D02*
D03*
X633434Y1319907D02*
D03*
X632000Y1241500D02*
D03*
X339000Y946000D02*
D03*
X335502Y958502D02*
D03*
X559000Y1020600D02*
D03*
Y1009000D02*
D03*
X450000Y753000D02*
D03*
X443000D02*
D03*
X1048000Y1074000D02*
D03*
X1021000Y1125250D02*
D03*
Y1113250D02*
D03*
Y1101250D02*
D03*
X494000Y838000D02*
D03*
X477000Y798000D02*
D03*
X645000Y743000D02*
D03*
X714999Y825998D02*
D03*
X649000Y693000D02*
D03*
X668000Y693000D02*
D03*
X687000D02*
D03*
Y742000D02*
D03*
X739000Y834000D02*
D03*
X731002Y825996D02*
D03*
X738999Y825998D02*
D03*
X690000Y759000D02*
D03*
Y765000D02*
D03*
X684000Y756000D02*
D03*
X755500Y804000D02*
D03*
X707002Y817999D02*
D03*
X723002D02*
D03*
X731002D02*
D03*
X738999Y817998D02*
D03*
X715002Y817999D02*
D03*
X755000Y834000D02*
D03*
X779000Y826000D02*
D03*
X771000Y874000D02*
D03*
X747000Y922000D02*
D03*
X763000Y866000D02*
D03*
X755000Y914000D02*
D03*
Y858000D02*
D03*
Y842000D02*
D03*
Y898000D02*
D03*
X739000D02*
D03*
X754999Y865998D02*
D03*
X715000Y914000D02*
D03*
X731000Y906000D02*
D03*
X715000Y858000D02*
D03*
X691000Y882000D02*
D03*
Y858000D02*
D03*
X747000Y850000D02*
D03*
X771000Y866000D02*
D03*
X762999Y857998D02*
D03*
X763000Y914000D02*
D03*
X699000Y858000D02*
D03*
X683000Y890000D02*
D03*
X730999Y921998D02*
D03*
X691000Y906000D02*
D03*
X698999Y897998D02*
D03*
X739000Y882000D02*
D03*
X731000Y898000D02*
D03*
X699000Y906000D02*
D03*
X723000Y826000D02*
D03*
X707000Y882000D02*
D03*
X715000Y842000D02*
D03*
X778999Y929998D02*
D03*
X763000Y898000D02*
D03*
X666999Y833999D02*
D03*
X763000Y834000D02*
D03*
X731000Y930000D02*
D03*
X690999Y889998D02*
D03*
X691000Y850000D02*
D03*
X667000Y922000D02*
D03*
X755000Y826000D02*
D03*
X715000Y834000D02*
D03*
X658999Y833999D02*
D03*
X747000Y842000D02*
D03*
X771000Y834000D02*
D03*
X739000Y842000D02*
D03*
X706999Y841998D02*
D03*
Y825998D02*
D03*
X770999Y913998D02*
D03*
X763000Y930000D02*
D03*
X754998Y929998D02*
D03*
X747000Y930000D02*
D03*
X739000D02*
D03*
X715000D02*
D03*
Y850000D02*
D03*
X699000Y930000D02*
D03*
X683000Y906000D02*
D03*
Y858000D02*
D03*
X779000Y834000D02*
D03*
X691000Y842000D02*
D03*
X738999Y857998D02*
D03*
X770999Y945998D02*
D03*
X763000Y826000D02*
D03*
X746998Y865998D02*
D03*
X715000Y874000D02*
D03*
X699000Y882000D02*
D03*
X763000Y842000D02*
D03*
X746999Y945998D02*
D03*
X731000Y842000D02*
D03*
X771000Y882000D02*
D03*
X699000Y866000D02*
D03*
X747000Y858000D02*
D03*
X722999Y849998D02*
D03*
X674999Y881998D02*
D03*
X747000Y914000D02*
D03*
X755000Y882000D02*
D03*
X747000Y898000D02*
D03*
Y882000D02*
D03*
X763000Y818000D02*
D03*
X731000Y914000D02*
D03*
X715000Y922000D02*
D03*
Y898000D02*
D03*
X707000D02*
D03*
X675000D02*
D03*
X731000Y882000D02*
D03*
X739000Y866000D02*
D03*
X731000D02*
D03*
X715000Y866000D02*
D03*
Y890000D02*
D03*
Y882000D02*
D03*
X707000Y866000D02*
D03*
X779000Y858000D02*
D03*
X771000Y930000D02*
D03*
X778999Y913998D02*
D03*
X771000Y858000D02*
D03*
X779000Y850000D02*
D03*
Y922000D02*
D03*
X770999Y921998D02*
D03*
X928800Y877550D02*
D03*
X936800D02*
D03*
Y861550D02*
D03*
Y853550D02*
D03*
X928800Y861550D02*
D03*
Y909550D02*
D03*
X920800D02*
D03*
X804277Y897990D02*
D03*
X872800Y893550D02*
D03*
X804280Y829050D02*
D03*
X880796Y797554D02*
D03*
X864800Y853550D02*
D03*
X880800Y901550D02*
D03*
Y893550D02*
D03*
X872800Y901550D02*
D03*
X864800D02*
D03*
Y893550D02*
D03*
X888796Y877550D02*
D03*
X872796Y829554D02*
D03*
X864796D02*
D03*
X880796Y805554D02*
D03*
X864796Y813554D02*
D03*
X872796D02*
D03*
X880796D02*
D03*
X872796Y805554D02*
D03*
X864796D02*
D03*
Y797554D02*
D03*
X872796D02*
D03*
X880796Y789554D02*
D03*
X864796Y781554D02*
D03*
X936796Y781550D02*
D03*
Y789550D02*
D03*
Y797550D02*
D03*
Y805550D02*
D03*
X928796D02*
D03*
X920796D02*
D03*
X928796Y813550D02*
D03*
X936796D02*
D03*
X920800Y869550D02*
D03*
Y877550D02*
D03*
X936800Y901550D02*
D03*
X928800D02*
D03*
X936800Y909550D02*
D03*
X837299Y822696D02*
D03*
X779000Y906000D02*
D03*
X771000D02*
D03*
Y898000D02*
D03*
X779000D02*
D03*
X771000Y842000D02*
D03*
Y850000D02*
D03*
X794999Y953998D02*
D03*
X779002Y938002D02*
D03*
X446000Y688000D02*
D03*
X470000Y688000D02*
D03*
X511000Y688000D02*
D03*
X527000D02*
D03*
X593000D02*
D03*
X609000D02*
D03*
X399000D02*
D03*
X421000D02*
D03*
X560000D02*
D03*
X771000Y954000D02*
D03*
X780000Y966000D02*
D03*
X795000Y971000D02*
D03*
X1064450Y963200D02*
D03*
X1058100Y959000D02*
D03*
X1051750Y956200D02*
D03*
X1045400Y952000D02*
D03*
X1070800Y953000D02*
D03*
X1039000Y916000D02*
D03*
X478000Y1001000D02*
D03*
X438000Y987000D02*
D03*
X962000Y885500D02*
D03*
X961500Y896750D02*
D03*
X872796Y877550D02*
D03*
X880796Y877554D02*
D03*
X928796Y829550D02*
D03*
X763000Y882000D02*
D03*
X837300Y797050D02*
D03*
X683000Y882000D02*
D03*
X659000Y874000D02*
D03*
X683000Y874000D02*
D03*
X675000Y866000D02*
D03*
X671000Y964500D02*
D03*
X698995Y834005D02*
D03*
X691000Y834000D02*
D03*
X683000D02*
D03*
X683000Y826000D02*
D03*
X637000Y955000D02*
D03*
X643000Y949000D02*
D03*
X649000Y885000D02*
D03*
X921000Y1111000D02*
D03*
X687000Y989000D02*
D03*
X676000Y1004000D02*
D03*
X963000Y1065000D02*
D03*
X941998Y1047998D02*
D03*
X1350000Y716000D02*
D03*
X1319000Y699010D02*
D03*
X527000Y1164000D02*
D03*
X480000Y1137000D02*
D03*
X927000Y1134000D02*
D03*
X1123050Y1062800D02*
D03*
X880796Y781554D02*
D03*
X804280Y866000D02*
D03*
X778998Y874002D02*
D03*
X804273Y854006D02*
D03*
X779000Y882001D02*
D03*
X872800Y837554D02*
D03*
Y853550D02*
D03*
X928800Y869550D02*
D03*
X936800D02*
D03*
X962500Y875250D02*
D03*
X962000Y864900D02*
D03*
X928796Y797550D02*
D03*
X920796D02*
D03*
X880796Y821554D02*
D03*
X920796Y821550D02*
D03*
X864800Y909550D02*
D03*
X819750Y773167D02*
D03*
X911800Y789554D02*
D03*
X909800Y779804D02*
D03*
X920800Y789554D02*
D03*
X924798Y779048D02*
D03*
X961750Y853750D02*
D03*
X651000Y922000D02*
D03*
X659000D02*
D03*
X855074Y836666D02*
D03*
X844921D02*
D03*
X801500Y890000D02*
D03*
X852500Y884250D02*
D03*
X648000Y820000D02*
D03*
X645000Y793000D02*
D03*
X645000Y802000D02*
D03*
X637000D02*
D03*
X562000Y753750D02*
D03*
X839550Y881650D02*
D03*
X771000Y890000D02*
D03*
X928796Y837550D02*
D03*
X920796Y845554D02*
D03*
X920799Y861549D02*
D03*
X864796Y789554D02*
D03*
X872796D02*
D03*
X1122000Y1086553D02*
D03*
X712500Y970000D02*
D03*
X735250Y1091000D02*
D03*
X716750D02*
D03*
X728250Y1031000D02*
D03*
X713250D02*
D03*
X864630Y869720D02*
D03*
X651002Y841999D02*
D03*
X659002D02*
D03*
X667002D02*
D03*
X675002D02*
D03*
X872800Y869551D02*
D03*
X480750Y937000D02*
D03*
X1323250Y895000D02*
D03*
X1263750Y938250D02*
D03*
X928800Y885550D02*
D03*
Y893550D02*
D03*
X796660Y906002D02*
D03*
X804280D02*
D03*
X827140Y897617D02*
D03*
X827140Y919190D02*
D03*
X827138Y909554D02*
D03*
X920800Y893550D02*
D03*
X920796Y901550D02*
D03*
D75*
X351000Y1074700D02*
D03*
X351000Y1062000D02*
D03*
X774000Y1259000D02*
D03*
X671000Y1179000D02*
D03*
X675000Y1149000D02*
D03*
X439000Y920000D02*
D03*
Y900000D02*
D03*
Y910000D02*
D03*
X606000Y888000D02*
D03*
Y906000D02*
D03*
X541000Y888000D02*
D03*
Y906000D02*
D03*
X439000Y890000D02*
D03*
X337000Y969000D02*
D03*
X1320000Y1112000D02*
D03*
X314000Y951250D02*
D03*
D87*
X662750Y984000D02*
D03*
X1055000Y1066000D02*
D03*
X1033000Y1071000D02*
D03*
X1011000Y1083000D02*
D03*
X1263000Y997000D02*
D03*
X1124000Y1179000D02*
D03*
X1069000Y1158000D02*
D03*
X995000Y1126000D02*
D03*
X984000D02*
D03*
X439000Y856000D02*
D03*
X317000Y763000D02*
D03*
Y753000D02*
D03*
X314000Y742000D02*
D03*
Y732000D02*
D03*
X278000Y717200D02*
D03*
X447000Y848000D02*
D03*
X924000Y736000D02*
D03*
X950500Y1274500D02*
D03*
X907000Y1312000D02*
D03*
D116*
X865000Y1040250D02*
D03*
X847000D02*
D03*
X1113000Y1087000D02*
D03*
X1131000D02*
D03*
X1114000Y1063000D02*
D03*
X1132000D02*
D03*
X812450Y881550D02*
D03*
X830450D02*
D03*
X846750Y1069500D02*
D03*
X864750D02*
D03*
X865000Y1026250D02*
D03*
X847000D02*
D03*
X846750Y1054750D02*
D03*
X864750D02*
D03*
X1143000Y1145000D02*
D03*
X1125000D02*
D03*
X1143000Y1127000D02*
D03*
X1125000D02*
D03*
X1002000Y1046000D02*
D03*
X1020000D02*
D03*
X577000Y968000D02*
D03*
X595000D02*
D03*
X577000Y986000D02*
D03*
X595000D02*
D03*
X448000Y824000D02*
D03*
X466000D02*
D03*
X410000Y809000D02*
D03*
X428000D02*
D03*
X448000D02*
D03*
X466000D02*
D03*
X468000Y964000D02*
D03*
X450000D02*
D03*
X486000Y790000D02*
D03*
X504000D02*
D03*
X390000Y921000D02*
D03*
X372000D02*
D03*
X394000Y955000D02*
D03*
X376000D02*
D03*
X582000Y822000D02*
D03*
X564000D02*
D03*
X582000Y838000D02*
D03*
X564000D02*
D03*
X582000Y854000D02*
D03*
X564000D02*
D03*
X582000Y870000D02*
D03*
X564000D02*
D03*
X878000Y1207000D02*
D03*
X896000D02*
D03*
X559000Y1083000D02*
D03*
X541000D02*
D03*
X846750Y1083750D02*
D03*
X864750D02*
D03*
X852000Y1109000D02*
D03*
X870000D02*
D03*
X491000Y1082000D02*
D03*
X509000D02*
D03*
D118*
X577000Y715000D02*
D03*
Y697000D02*
D03*
X543000D02*
D03*
Y715000D02*
D03*
X560000D02*
D03*
Y697000D02*
D03*
X602750Y813250D02*
D03*
Y831250D02*
D03*
X1264250Y894750D02*
D03*
Y876750D02*
D03*
X766750Y793500D02*
D03*
Y775500D02*
D03*
X915000Y1047000D02*
D03*
Y1065000D02*
D03*
X1012000Y1173000D02*
D03*
Y1191000D02*
D03*
X994000Y1079000D02*
D03*
Y1061000D02*
D03*
X961000Y1152000D02*
D03*
Y1134000D02*
D03*
X1083000Y1054000D02*
D03*
Y1072000D02*
D03*
X582000Y789000D02*
D03*
Y807000D02*
D03*
X689000Y1104000D02*
D03*
Y1086000D02*
D03*
X688000Y1168000D02*
D03*
Y1150000D02*
D03*
X700000Y1328000D02*
D03*
Y1310000D02*
D03*
X470000Y905000D02*
D03*
Y923000D02*
D03*
X452000D02*
D03*
Y905000D02*
D03*
X529000Y888000D02*
D03*
Y906000D02*
D03*
X575000D02*
D03*
Y888000D02*
D03*
X594000D02*
D03*
Y906000D02*
D03*
X553000D02*
D03*
Y888000D02*
D03*
X486000Y906000D02*
D03*
Y888000D02*
D03*
X504000Y906000D02*
D03*
Y888000D02*
D03*
X427000Y891000D02*
D03*
Y909000D02*
D03*
X409000D02*
D03*
Y891000D02*
D03*
X563000Y1246000D02*
D03*
Y1228000D02*
D03*
X578000Y1202000D02*
D03*
Y1184000D02*
D03*
X533000D02*
D03*
Y1202000D02*
D03*
Y1276000D02*
D03*
Y1294000D02*
D03*
X460500Y1249000D02*
D03*
Y1267000D02*
D03*
Y1281000D02*
D03*
Y1299000D02*
D03*
X473000Y1067000D02*
D03*
Y1049000D02*
D03*
X395226Y1091100D02*
D03*
Y1109100D02*
D03*
X335000Y1032900D02*
D03*
Y1014900D02*
D03*
X351000Y1137000D02*
D03*
Y1155000D02*
D03*
X394000Y1137000D02*
D03*
Y1155000D02*
D03*
X412000Y1184000D02*
D03*
Y1202000D02*
D03*
X367000Y1182000D02*
D03*
Y1200000D02*
D03*
X774000Y1247000D02*
D03*
Y1229000D02*
D03*
X1368000Y1077000D02*
D03*
Y1095000D02*
D03*
X1084000Y1259000D02*
D03*
Y1277000D02*
D03*
X1165000Y1177000D02*
D03*
Y1195000D02*
D03*
X1066000Y1064000D02*
D03*
Y1046000D02*
D03*
X429000Y1034000D02*
D03*
Y1052000D02*
D03*
X325000Y970000D02*
D03*
Y952000D02*
D03*
X395000Y1071000D02*
D03*
Y1053000D02*
D03*
X589000Y1089000D02*
D03*
Y1071000D02*
D03*
X548000Y1007000D02*
D03*
Y1025000D02*
D03*
X725000Y1322000D02*
D03*
Y1304000D02*
D03*
X1031000Y1173000D02*
D03*
Y1191000D02*
D03*
X301000Y1085000D02*
D03*
Y1103000D02*
D03*
X335000Y1071000D02*
D03*
Y1053000D02*
D03*
X585000Y1036000D02*
D03*
Y1054000D02*
D03*
X622000Y1049000D02*
D03*
Y1031000D02*
D03*
X710000Y1140000D02*
D03*
Y1158000D02*
D03*
X647000Y1157000D02*
D03*
Y1139000D02*
D03*
Y1173000D02*
D03*
Y1191000D02*
D03*
X1044000Y1043000D02*
D03*
Y1061000D02*
D03*
X1098000Y1099000D02*
D03*
Y1117000D02*
D03*
X712000Y1065000D02*
D03*
Y1047000D02*
D03*
X921000Y1102000D02*
D03*
Y1120000D02*
D03*
D119*
X1086000Y1156000D02*
D03*
X1104000D02*
D03*
X1125000Y1107000D02*
D03*
X1143000D02*
D03*
X995000Y1163000D02*
D03*
X977000D02*
D03*
Y1144000D02*
D03*
X995000D02*
D03*
X468000Y981000D02*
D03*
X450000D02*
D03*
X485000Y806000D02*
D03*
X503000D02*
D03*
X391000Y972000D02*
D03*
X373000D02*
D03*
X391000Y938000D02*
D03*
X373000D02*
D03*
X503000Y870000D02*
D03*
X485000D02*
D03*
X503000Y822000D02*
D03*
X485000D02*
D03*
X503000Y838000D02*
D03*
X485000D02*
D03*
X503000Y854000D02*
D03*
X485000D02*
D03*
X706000Y1288000D02*
D03*
X724000D02*
D03*
X1367000Y1303000D02*
D03*
X1349000D02*
D03*
X1341000Y1322000D02*
D03*
X1323000D02*
D03*
X1293000Y1157000D02*
D03*
X1311000D02*
D03*
X1050000Y1169000D02*
D03*
X1068000D02*
D03*
X1050000Y1198000D02*
D03*
X1068000D02*
D03*
X582000Y1116000D02*
D03*
X564000D02*
D03*
X1008000Y864000D02*
D03*
X990000D02*
D03*
X1008000Y848000D02*
D03*
X990000D02*
D03*
X1008000Y816000D02*
D03*
X990000D02*
D03*
X1008000Y832000D02*
D03*
X990000D02*
D03*
X499250Y1103000D02*
D03*
X481250D02*
D03*
D120*
X609000Y697000D02*
D03*
Y715000D02*
D03*
X593000Y697000D02*
D03*
Y715000D02*
D03*
X511000Y697000D02*
D03*
Y715000D02*
D03*
X527000Y697000D02*
D03*
Y715000D02*
D03*
X1264250Y908000D02*
D03*
Y926000D02*
D03*
X751250Y753500D02*
D03*
Y735500D02*
D03*
X1044000Y796000D02*
D03*
Y778000D02*
D03*
X1044000Y751000D02*
D03*
Y733000D02*
D03*
X1070000Y796000D02*
D03*
Y778000D02*
D03*
Y840000D02*
D03*
Y822000D02*
D03*
X1096000Y796000D02*
D03*
Y778000D02*
D03*
Y840000D02*
D03*
Y822000D02*
D03*
X1122000Y691000D02*
D03*
Y709000D02*
D03*
X1122000Y840000D02*
D03*
Y822000D02*
D03*
X1148000Y796000D02*
D03*
Y778000D02*
D03*
Y840000D02*
D03*
Y822000D02*
D03*
X1174000Y796000D02*
D03*
Y778000D02*
D03*
X1172000Y839000D02*
D03*
Y821000D02*
D03*
X1200000Y796000D02*
D03*
Y778000D02*
D03*
X1200000Y751000D02*
D03*
Y733000D02*
D03*
X1226000Y796000D02*
D03*
Y778000D02*
D03*
Y840000D02*
D03*
Y822000D02*
D03*
X1043973Y709000D02*
D03*
Y691000D02*
D03*
X1044000Y822000D02*
D03*
Y840000D02*
D03*
X1070000Y709072D02*
D03*
Y691072D02*
D03*
X1069973Y733000D02*
D03*
Y751000D02*
D03*
X1096000Y709000D02*
D03*
Y691000D02*
D03*
Y733000D02*
D03*
Y751000D02*
D03*
X1122000Y778000D02*
D03*
Y796000D02*
D03*
X1122000Y733000D02*
D03*
Y751000D02*
D03*
X1147973Y709000D02*
D03*
Y691000D02*
D03*
X1148000Y733000D02*
D03*
Y751000D02*
D03*
X1173973Y709000D02*
D03*
Y691000D02*
D03*
X1174000Y733000D02*
D03*
Y751000D02*
D03*
X1199973Y709000D02*
D03*
Y691000D02*
D03*
X1200000Y822000D02*
D03*
Y840000D02*
D03*
X1225974Y709000D02*
D03*
Y691000D02*
D03*
X1226000Y733000D02*
D03*
Y751000D02*
D03*
X603000Y865000D02*
D03*
Y847000D02*
D03*
X670000Y1065000D02*
D03*
Y1083000D02*
D03*
X673000Y1305000D02*
D03*
Y1323000D02*
D03*
X962000Y1282000D02*
D03*
Y1264000D02*
D03*
X599000Y1153000D02*
D03*
Y1135000D02*
D03*
X490000D02*
D03*
Y1153000D02*
D03*
X527000D02*
D03*
Y1135000D02*
D03*
X563000D02*
D03*
Y1153000D02*
D03*
X515000Y1248000D02*
D03*
Y1230000D02*
D03*
X577000Y1294000D02*
D03*
Y1276000D02*
D03*
X561000Y1322000D02*
D03*
Y1340000D02*
D03*
X515000Y1322000D02*
D03*
Y1340000D02*
D03*
X429000Y1085000D02*
D03*
Y1103000D02*
D03*
X394000Y1015000D02*
D03*
Y1033000D02*
D03*
X351000Y953000D02*
D03*
Y971000D02*
D03*
X350000Y1320000D02*
D03*
Y1338000D02*
D03*
X295000Y1264000D02*
D03*
Y1282000D02*
D03*
X367000Y1275000D02*
D03*
Y1293000D02*
D03*
X303000Y952000D02*
D03*
Y970000D02*
D03*
X286000Y952000D02*
D03*
Y970000D02*
D03*
X364000Y1009000D02*
D03*
Y1027000D02*
D03*
X295000Y1200000D02*
D03*
Y1218000D02*
D03*
X365000Y1094000D02*
D03*
Y1112000D02*
D03*
X396000Y1338000D02*
D03*
Y1320000D02*
D03*
X394000Y1246000D02*
D03*
Y1228000D02*
D03*
X409000Y1293000D02*
D03*
Y1275000D02*
D03*
X352000Y1246000D02*
D03*
Y1228000D02*
D03*
X335000Y1090000D02*
D03*
Y1108000D02*
D03*
X304500Y1033250D02*
D03*
Y1015250D02*
D03*
X662000Y1113000D02*
D03*
Y1131000D02*
D03*
X728000Y1158000D02*
D03*
Y1140000D02*
D03*
X980000Y1281000D02*
D03*
Y1299000D02*
D03*
X941000Y1134000D02*
D03*
Y1152000D02*
D03*
X633434Y1310907D02*
D03*
Y1328907D02*
D03*
X632000Y1232500D02*
D03*
Y1250500D02*
D03*
X399000Y715000D02*
D03*
Y697000D02*
D03*
X421000Y715000D02*
D03*
Y697000D02*
D03*
X446000Y715000D02*
D03*
Y697000D02*
D03*
X470000Y715000D02*
D03*
Y697000D02*
D03*
X535000Y1049000D02*
D03*
Y1067000D02*
D03*
X502000Y1049000D02*
D03*
Y1067000D02*
D03*
X670000Y1045000D02*
D03*
Y1027000D02*
D03*
X570000Y1024000D02*
D03*
Y1006000D02*
D03*
X667250Y1253000D02*
D03*
Y1235000D02*
D03*
X982000Y1113000D02*
D03*
Y1095000D02*
D03*
X898800Y790400D02*
D03*
Y808400D02*
D03*
X938000Y1119000D02*
D03*
Y1101000D02*
D03*
X824100Y858600D02*
D03*
Y840600D02*
D03*
X901300Y858800D02*
D03*
Y840800D02*
D03*
X1262500Y966000D02*
D03*
Y984000D02*
D03*
X1323250Y885750D02*
D03*
Y903750D02*
D03*
X1327250Y966750D02*
D03*
Y948750D02*
D03*
D140*
X948330Y1029250D02*
D03*
X938170D02*
D03*
X918170Y1020750D02*
D03*
X928330D02*
D03*
X691830Y953250D02*
D03*
X681670D02*
D03*
X642080Y915000D02*
D03*
X631920D02*
D03*
X819620Y869900D02*
D03*
X829780D02*
D03*
X762830Y873750D02*
D03*
X752670D02*
D03*
X951580Y1020750D02*
D03*
X941420D02*
D03*
X716987Y779563D02*
D03*
X706827D02*
D03*
X642080Y903000D02*
D03*
X631920D02*
D03*
X642080Y890000D02*
D03*
X631920D02*
D03*
X642080Y880000D02*
D03*
X631920D02*
D03*
X994920Y735000D02*
D03*
X1005080D02*
D03*
X994920Y723000D02*
D03*
X1005080D02*
D03*
X995000Y711000D02*
D03*
X1005160D02*
D03*
X766080Y1035000D02*
D03*
X755920D02*
D03*
X845920Y853500D02*
D03*
X856080D02*
D03*
X890080Y868500D02*
D03*
X879920D02*
D03*
X945170Y875250D02*
D03*
X955330D02*
D03*
X865170Y860750D02*
D03*
X875330D02*
D03*
X930420Y916000D02*
D03*
X940580D02*
D03*
X944420Y896750D02*
D03*
X954580D02*
D03*
X856830Y893000D02*
D03*
X846670D02*
D03*
X856830Y910000D02*
D03*
X846670D02*
D03*
X944920Y865000D02*
D03*
X955080D02*
D03*
X944920Y853500D02*
D03*
X955080D02*
D03*
X944920Y885500D02*
D03*
X955080D02*
D03*
X856580Y870250D02*
D03*
X846420D02*
D03*
X856830Y901500D02*
D03*
X846670D02*
D03*
X666670Y858250D02*
D03*
X676830D02*
D03*
X730420Y850000D02*
D03*
X740580D02*
D03*
X676080Y906000D02*
D03*
X665920D02*
D03*
X660580Y938000D02*
D03*
X650420D02*
D03*
X691830Y898000D02*
D03*
X681670D02*
D03*
X667330Y929750D02*
D03*
X657170D02*
D03*
X742830Y874000D02*
D03*
X732670D02*
D03*
X742580Y890000D02*
D03*
X732420D02*
D03*
X698170D02*
D03*
X708330D02*
D03*
X691580Y866000D02*
D03*
X681420D02*
D03*
X689920Y874000D02*
D03*
X700080D02*
D03*
X689670Y914000D02*
D03*
X699830D02*
D03*
X676080D02*
D03*
X665920D02*
D03*
X763830Y922000D02*
D03*
X753670D02*
D03*
X762580Y906000D02*
D03*
X752420D02*
D03*
X762580Y850000D02*
D03*
X752420D02*
D03*
X762580Y889750D02*
D03*
X752420D02*
D03*
D141*
X1000199Y1028123D02*
D03*
X982419D02*
D03*
X651949Y980873D02*
D03*
X634169D02*
D03*
D146*
X800000Y1290008D02*
D03*
Y1265992D02*
D03*
X1292000Y1336008D02*
D03*
Y1311992D02*
D03*
D151*
X1299992Y1263000D02*
D03*
X1324008D02*
D03*
X1225992Y1275000D02*
D03*
X1250008D02*
D03*
X1223000Y1240000D02*
D03*
X1198984D02*
D03*
D153*
X830696Y1187500D02*
D03*
Y1174500D02*
D03*
X854000D02*
D03*
Y1181000D02*
D03*
Y1187500D02*
D03*
D156*
X1318430Y1290110D02*
D03*
X1267630Y1340910D02*
D03*
Y1290110D02*
D03*
X1293030D02*
D03*
X1318430Y1340910D02*
D03*
X1365000Y1340000D02*
D03*
D157*
X1170430Y1308910D02*
D03*
Y1246910D02*
D03*
X1120430Y1277910D02*
D03*
D158*
X884750Y1239500D02*
D03*
X959750D02*
D03*
X809750D02*
D03*
X834750Y1214500D02*
D03*
X934750D02*
D03*
Y1339500D02*
D03*
X834750D02*
D03*
D159*
X714050Y1230900D02*
D03*
X689050D02*
D03*
X714050Y1250900D02*
D03*
X689050D02*
D03*
D160*
X641350Y1278000D02*
D03*
X761750D02*
D03*
X285000Y697000D02*
D03*
X1365000D02*
D03*
X285000Y1340000D02*
D03*
D161*
X605250Y1306000D02*
D03*
Y1242500D02*
D03*
Y1179000D02*
D03*
X599750Y1338500D02*
D03*
X485750Y1211500D02*
D03*
X599750Y1275000D02*
D03*
Y1211500D02*
D03*
X485750Y1275000D02*
D03*
Y1338500D02*
D03*
X480250Y1242500D02*
D03*
Y1306000D02*
D03*
Y1179000D02*
D03*
X440750Y1306000D02*
D03*
Y1242500D02*
D03*
Y1179000D02*
D03*
X435250Y1338500D02*
D03*
X321250Y1211500D02*
D03*
X435250Y1275000D02*
D03*
Y1211500D02*
D03*
X321250Y1275000D02*
D03*
Y1338500D02*
D03*
X315750Y1242500D02*
D03*
Y1306000D02*
D03*
Y1179000D02*
D03*
D162*
X1193000Y1200992D02*
D03*
X1207000Y1131000D02*
D03*
X1018000Y1273000D02*
D03*
X1099000Y1261000D02*
D03*
X1178000Y1194000D02*
D03*
X1207000Y1273000D02*
D03*
X1206000Y1256000D02*
D03*
X1344000Y1335000D02*
D03*
X1355000Y1320000D02*
D03*
X1364000Y1064000D02*
D03*
X1367000Y1225000D02*
D03*
X1255000Y1245000D02*
D03*
X1274000Y1140000D02*
D03*
X1269000Y1067000D02*
D03*
X1146000Y1177000D02*
D03*
X1316000Y1228000D02*
D03*
X1324000Y1308000D02*
D03*
X1315000Y1182000D02*
D03*
X1199000Y1340000D02*
D03*
X1350000Y1109500D02*
D03*
X1368000Y1143000D02*
D03*
X1274000Y1105000D02*
D03*
X1341000Y1063000D02*
D03*
X1370000Y1320000D02*
D03*
X1278000Y1164000D02*
D03*
X1223000Y1221000D02*
D03*
X1342000Y1264000D02*
D03*
X1231000Y1183000D02*
D03*
D163*
X1235900Y968000D02*
D03*
X1209000Y1018000D02*
D03*
X1235900Y914000D02*
D03*
X1223200D02*
D03*
X1097000Y1053000D02*
D03*
X1367000Y1018000D02*
D03*
X1341000D02*
D03*
X1362300Y931000D02*
D03*
Y948000D02*
D03*
X1303500Y901500D02*
D03*
D164*
X1030000Y1061000D02*
D03*
X961000Y1117000D02*
D03*
X969000Y1095000D02*
D03*
X1050000Y1182000D02*
D03*
X1113000Y1108000D02*
D03*
X982000Y1181000D02*
D03*
X1031000Y1206000D02*
D03*
D165*
X790000Y775250D02*
D03*
D166*
X708000Y952920D02*
D03*
Y963080D02*
D03*
X929000Y1047080D02*
D03*
Y1036920D02*
D03*
X794250Y989080D02*
D03*
Y978920D02*
D03*
X783813Y979013D02*
D03*
Y989173D02*
D03*
X804250Y978920D02*
D03*
Y989080D02*
D03*
X773250D02*
D03*
Y978920D02*
D03*
X755000Y781920D02*
D03*
Y792080D02*
D03*
X772000Y824080D02*
D03*
Y813920D02*
D03*
X675000Y809080D02*
D03*
Y798920D02*
D03*
X686000Y809080D02*
D03*
Y798920D02*
D03*
X788500Y802080D02*
D03*
Y791920D02*
D03*
X783000Y1042080D02*
D03*
Y1031920D02*
D03*
X944500Y812080D02*
D03*
Y801920D02*
D03*
X911250Y811670D02*
D03*
Y821830D02*
D03*
X890750Y833670D02*
D03*
Y843830D02*
D03*
X858500Y791580D02*
D03*
Y781420D02*
D03*
X856250Y805670D02*
D03*
Y815830D02*
D03*
X935250Y835920D02*
D03*
Y846080D02*
D03*
X944500Y789080D02*
D03*
Y778920D02*
D03*
X723000Y842830D02*
D03*
Y832670D02*
D03*
Y857170D02*
D03*
Y867330D02*
D03*
X682750Y850330D02*
D03*
Y840170D02*
D03*
X683000Y928920D02*
D03*
Y939080D02*
D03*
X671000Y945920D02*
D03*
Y956080D02*
D03*
X723250Y875920D02*
D03*
Y886080D02*
D03*
X699000Y850330D02*
D03*
Y840170D02*
D03*
X723250Y906330D02*
D03*
Y896170D02*
D03*
X708500Y849170D02*
D03*
Y859330D02*
D03*
X707750Y931080D02*
D03*
Y920920D02*
D03*
X739000Y923080D02*
D03*
Y912920D02*
D03*
X723000Y926080D02*
D03*
Y915920D02*
D03*
X691000Y929170D02*
D03*
Y939330D02*
D03*
X929000Y1060170D02*
D03*
Y1070330D02*
D03*
X747000Y825170D02*
D03*
Y835330D02*
D03*
X722000Y955330D02*
D03*
Y945170D02*
D03*
D167*
X676127Y993949D02*
D03*
Y976169D02*
D03*
D168*
X994000Y750000D02*
D03*
Y772000D02*
D03*
D169*
X755000Y1085000D02*
D03*
X799000D02*
D03*
X755000Y1061000D02*
D03*
X799000D02*
D03*
D170*
X736500Y1253224D02*
D03*
X746000D02*
D03*
X755500D02*
D03*
Y1224776D02*
D03*
X746000D02*
D03*
X736500D02*
D03*
D171*
X1101000Y1194570D02*
D03*
Y1217430D02*
D03*
D172*
X1274551Y1205000D02*
D03*
X1084449Y1315000D02*
D03*
D173*
X1341084Y1182000D02*
D03*
Y1205000D02*
D03*
Y1228000D02*
D03*
X1017916Y1338000D02*
D03*
Y1315000D02*
D03*
Y1292000D02*
D03*
D174*
X1184000Y1151750D02*
D03*
X1207000D02*
D03*
X1230000D02*
D03*
D175*
X1207000Y1090250D02*
D03*
D176*
X837650Y1236250D02*
D03*
X932350D02*
D03*
X837650Y1312450D02*
D03*
X932350D02*
D03*
D177*
X837650Y1261650D02*
D03*
Y1287050D02*
D03*
X932350Y1261650D02*
D03*
Y1287050D02*
D03*
D178*
X1303750Y915680D02*
D03*
X1284750D02*
D03*
X1294250Y887820D02*
D03*
X1285250Y952070D02*
D03*
X1304250D02*
D03*
X1294750Y979930D02*
D03*
M02*
