G04 Layer_Color=128*
%FSLAX44Y44*%
%MOMM*%
G71*
G01*
G75*
%ADD25R,1.5000X0.6000*%
%ADD32R,0.6000X1.5000*%
%ADD99R,2.7000X1.3000*%
%ADD100R,2.7000X4.1000*%
%ADD104R,0.6000X1.8000*%
%ADD116R,1.3000X0.5000*%
%ADD118R,1.2430X1.3700*%
%ADD120R,1.1000X1.1000*%
%ADD121R,1.1000X1.1000*%
%ADD122R,0.9000X1.1000*%
%ADD123R,0.6500X0.5500*%
%ADD124R,1.1000X0.9000*%
%ADD165R,1.1000X1.6000*%
%ADD167R,2.6000X1.1160*%
%ADD168R,2.6000X1.3700*%
%ADD171R,3.4000X2.3000*%
%ADD172R,1.5000X2.3000*%
%ADD173R,1.5000X1.1000*%
%ADD175R,1.9000X1.5000*%
%ADD179R,0.5500X0.6500*%
%ADD180R,1.3000X0.9000*%
%ADD181R,1.3700X1.2430*%
D25*
X1198984Y1240000D02*
D03*
X1223000D02*
D03*
X1250008Y1275000D02*
D03*
X1225992D02*
D03*
X1324008Y1263000D02*
D03*
X1299992D02*
D03*
D32*
X1292000Y1311992D02*
D03*
Y1336008D02*
D03*
X800000Y1265992D02*
D03*
Y1290008D02*
D03*
D99*
X1017916Y1292000D02*
D03*
Y1315000D02*
D03*
Y1338000D02*
D03*
X1341084Y1228000D02*
D03*
Y1205000D02*
D03*
Y1182000D02*
D03*
D100*
X1084449Y1315000D02*
D03*
X1274551Y1205000D02*
D03*
D104*
X736500Y1224776D02*
D03*
X746000D02*
D03*
X755500D02*
D03*
Y1253224D02*
D03*
X746000D02*
D03*
X736500D02*
D03*
D116*
X854000Y1187500D02*
D03*
Y1181000D02*
D03*
Y1174500D02*
D03*
X830696D02*
D03*
Y1187500D02*
D03*
D118*
X634169Y980873D02*
D03*
X651949D02*
D03*
X982419Y1028123D02*
D03*
X1000199D02*
D03*
D120*
X509000Y1082000D02*
D03*
X491000D02*
D03*
X870000Y1109000D02*
D03*
X852000D02*
D03*
X870000Y1092000D02*
D03*
X852000D02*
D03*
X541000Y1083000D02*
D03*
X559000D02*
D03*
X896000Y1207000D02*
D03*
X878000D02*
D03*
X564000Y870000D02*
D03*
X582000D02*
D03*
X564000Y854000D02*
D03*
X582000D02*
D03*
X564000Y838000D02*
D03*
X582000D02*
D03*
X564000Y822000D02*
D03*
X582000D02*
D03*
X376000Y955000D02*
D03*
X394000D02*
D03*
X372000Y921000D02*
D03*
X390000D02*
D03*
X504000Y790000D02*
D03*
X486000D02*
D03*
X450000Y964000D02*
D03*
X468000D02*
D03*
X466000Y809000D02*
D03*
X448000D02*
D03*
X428000D02*
D03*
X410000D02*
D03*
X466000Y824000D02*
D03*
X448000D02*
D03*
X595000Y986000D02*
D03*
X577000D02*
D03*
X595000Y968000D02*
D03*
X577000D02*
D03*
X1020000Y1046000D02*
D03*
X1002000D02*
D03*
X1125000Y1127000D02*
D03*
X1143000D02*
D03*
X1125000Y1145000D02*
D03*
X1143000D02*
D03*
X849000Y1007000D02*
D03*
X867000D02*
D03*
X849000Y1024000D02*
D03*
X867000D02*
D03*
X849000Y1048000D02*
D03*
X867000D02*
D03*
X830450Y881550D02*
D03*
X812450D02*
D03*
X1132000Y1063000D02*
D03*
X1114000D02*
D03*
X1131000Y1087000D02*
D03*
X1113000D02*
D03*
D121*
X1327250Y948750D02*
D03*
Y966750D02*
D03*
X1323250Y903750D02*
D03*
Y885750D02*
D03*
X1262500Y984000D02*
D03*
Y966000D02*
D03*
X901300Y840800D02*
D03*
Y858800D02*
D03*
X824100Y840600D02*
D03*
Y858600D02*
D03*
X938000Y1101000D02*
D03*
Y1119000D02*
D03*
X898800Y808400D02*
D03*
Y790400D02*
D03*
X982000Y1095000D02*
D03*
Y1113000D02*
D03*
X667250Y1235000D02*
D03*
Y1253000D02*
D03*
X570000Y1006000D02*
D03*
Y1024000D02*
D03*
X670000Y1027000D02*
D03*
Y1045000D02*
D03*
X502000Y1067000D02*
D03*
Y1049000D02*
D03*
X535000Y1067000D02*
D03*
Y1049000D02*
D03*
X470000Y697000D02*
D03*
Y715000D02*
D03*
X446000Y697000D02*
D03*
Y715000D02*
D03*
X421000Y697000D02*
D03*
Y715000D02*
D03*
X399000Y697000D02*
D03*
Y715000D02*
D03*
X632000Y1250500D02*
D03*
Y1232500D02*
D03*
X633434Y1328907D02*
D03*
Y1310907D02*
D03*
X941000Y1152000D02*
D03*
Y1134000D02*
D03*
X980000Y1299000D02*
D03*
Y1281000D02*
D03*
X728000Y1140000D02*
D03*
Y1158000D02*
D03*
X662000Y1131000D02*
D03*
Y1113000D02*
D03*
X304500Y1015250D02*
D03*
Y1033250D02*
D03*
X335000Y1108000D02*
D03*
Y1090000D02*
D03*
X352000Y1228000D02*
D03*
Y1246000D02*
D03*
X409000Y1275000D02*
D03*
Y1293000D02*
D03*
X394000Y1228000D02*
D03*
Y1246000D02*
D03*
X396000Y1320000D02*
D03*
Y1338000D02*
D03*
X365000Y1112000D02*
D03*
Y1094000D02*
D03*
X295000Y1218000D02*
D03*
Y1200000D02*
D03*
X364000Y1027000D02*
D03*
Y1009000D02*
D03*
X286000Y970000D02*
D03*
Y952000D02*
D03*
X303000Y970000D02*
D03*
Y952000D02*
D03*
X367000Y1293000D02*
D03*
Y1275000D02*
D03*
X295000Y1282000D02*
D03*
Y1264000D02*
D03*
X350000Y1338000D02*
D03*
Y1320000D02*
D03*
X351000Y971000D02*
D03*
Y953000D02*
D03*
X394000Y1033000D02*
D03*
Y1015000D02*
D03*
X429000Y1103000D02*
D03*
Y1085000D02*
D03*
X515000Y1340000D02*
D03*
Y1322000D02*
D03*
X561000Y1340000D02*
D03*
Y1322000D02*
D03*
X577000Y1276000D02*
D03*
Y1294000D02*
D03*
X515000Y1230000D02*
D03*
Y1248000D02*
D03*
X563000Y1153000D02*
D03*
Y1135000D02*
D03*
X527000D02*
D03*
Y1153000D02*
D03*
X490000D02*
D03*
Y1135000D02*
D03*
X599000D02*
D03*
Y1153000D02*
D03*
X962000Y1264000D02*
D03*
Y1282000D02*
D03*
X673000Y1323000D02*
D03*
Y1305000D02*
D03*
X670000Y1083000D02*
D03*
Y1065000D02*
D03*
X603000Y847000D02*
D03*
Y865000D02*
D03*
X1226000Y751000D02*
D03*
Y733000D02*
D03*
X1225974Y691000D02*
D03*
Y709000D02*
D03*
X1200000Y840000D02*
D03*
Y822000D02*
D03*
X1199973Y691000D02*
D03*
Y709000D02*
D03*
X1174000Y751000D02*
D03*
Y733000D02*
D03*
X1173973Y691000D02*
D03*
Y709000D02*
D03*
X1148000Y751000D02*
D03*
Y733000D02*
D03*
X1147973Y691000D02*
D03*
Y709000D02*
D03*
X1122000Y751000D02*
D03*
Y733000D02*
D03*
X1122000Y796000D02*
D03*
Y778000D02*
D03*
X1096000Y751000D02*
D03*
Y733000D02*
D03*
Y691000D02*
D03*
Y709000D02*
D03*
X1069973Y751000D02*
D03*
Y733000D02*
D03*
X1070000Y691072D02*
D03*
Y709072D02*
D03*
X1044000Y840000D02*
D03*
Y822000D02*
D03*
X1043973Y691000D02*
D03*
Y709000D02*
D03*
X1226000Y822000D02*
D03*
Y840000D02*
D03*
Y778000D02*
D03*
Y796000D02*
D03*
X1200000Y733000D02*
D03*
Y751000D02*
D03*
X1200000Y778000D02*
D03*
Y796000D02*
D03*
X1172000Y821000D02*
D03*
Y839000D02*
D03*
X1174000Y778000D02*
D03*
Y796000D02*
D03*
X1148000Y822000D02*
D03*
Y840000D02*
D03*
Y778000D02*
D03*
Y796000D02*
D03*
X1122000Y822000D02*
D03*
Y840000D02*
D03*
X1122000Y709000D02*
D03*
Y691000D02*
D03*
X1096000Y822000D02*
D03*
Y840000D02*
D03*
Y778000D02*
D03*
Y796000D02*
D03*
X1070000Y822000D02*
D03*
Y840000D02*
D03*
Y778000D02*
D03*
Y796000D02*
D03*
X1044000Y733000D02*
D03*
Y751000D02*
D03*
X1044000Y778000D02*
D03*
Y796000D02*
D03*
X751250Y735500D02*
D03*
Y753500D02*
D03*
X1264250Y926000D02*
D03*
Y908000D02*
D03*
X527000Y715000D02*
D03*
Y697000D02*
D03*
X511000Y715000D02*
D03*
Y697000D02*
D03*
X593000Y715000D02*
D03*
Y697000D02*
D03*
X609000Y715000D02*
D03*
Y697000D02*
D03*
D122*
X481250Y1103000D02*
D03*
X499250D02*
D03*
X990000Y832000D02*
D03*
X1008000D02*
D03*
X990000Y816000D02*
D03*
X1008000D02*
D03*
X990000Y848000D02*
D03*
X1008000D02*
D03*
X990000Y864000D02*
D03*
X1008000D02*
D03*
X564000Y1116000D02*
D03*
X582000D02*
D03*
X1068000Y1198000D02*
D03*
X1050000D02*
D03*
X1068000Y1169000D02*
D03*
X1050000D02*
D03*
X1311000Y1157000D02*
D03*
X1293000D02*
D03*
X1323000Y1322000D02*
D03*
X1341000D02*
D03*
X1349000Y1303000D02*
D03*
X1367000D02*
D03*
X724000Y1288000D02*
D03*
X706000D02*
D03*
X485000Y854000D02*
D03*
X503000D02*
D03*
X485000Y838000D02*
D03*
X503000D02*
D03*
X485000Y822000D02*
D03*
X503000D02*
D03*
X485000Y870000D02*
D03*
X503000D02*
D03*
X373000Y938000D02*
D03*
X391000D02*
D03*
X373000Y972000D02*
D03*
X391000D02*
D03*
X503000Y806000D02*
D03*
X485000D02*
D03*
X450000Y981000D02*
D03*
X468000D02*
D03*
X995000Y1144000D02*
D03*
X977000D02*
D03*
Y1163000D02*
D03*
X995000D02*
D03*
X1143000Y1107000D02*
D03*
X1125000D02*
D03*
X1104000Y1156000D02*
D03*
X1086000D02*
D03*
D123*
X752420Y889750D02*
D03*
X762580D02*
D03*
X752420Y850000D02*
D03*
X762580D02*
D03*
X752420Y906000D02*
D03*
X762580D02*
D03*
X753670Y922000D02*
D03*
X763830D02*
D03*
X665920Y914000D02*
D03*
X676080D02*
D03*
X699830D02*
D03*
X689670D02*
D03*
X700080Y874000D02*
D03*
X689920D02*
D03*
X681420Y866000D02*
D03*
X691580D02*
D03*
X708330Y890000D02*
D03*
X698170D02*
D03*
X732420D02*
D03*
X742580D02*
D03*
X732670Y874000D02*
D03*
X742830D02*
D03*
X657170Y929750D02*
D03*
X667330D02*
D03*
X681670Y898000D02*
D03*
X691830D02*
D03*
X650420Y938000D02*
D03*
X660580D02*
D03*
X665920Y906000D02*
D03*
X676080D02*
D03*
X740580Y850000D02*
D03*
X730420D02*
D03*
X676830Y858250D02*
D03*
X666670D02*
D03*
X846670Y901500D02*
D03*
X856830D02*
D03*
X846420Y870250D02*
D03*
X856580D02*
D03*
X955080Y885500D02*
D03*
X944920D02*
D03*
X955080Y853500D02*
D03*
X944920D02*
D03*
X955080Y865000D02*
D03*
X944920D02*
D03*
X846670Y910000D02*
D03*
X856830D02*
D03*
X846670Y893000D02*
D03*
X856830D02*
D03*
X954580Y896750D02*
D03*
X944420D02*
D03*
X940580Y916000D02*
D03*
X930420D02*
D03*
X875330Y860750D02*
D03*
X865170D02*
D03*
X955330Y875250D02*
D03*
X945170D02*
D03*
X879920Y868500D02*
D03*
X890080D02*
D03*
X856080Y853500D02*
D03*
X845920D02*
D03*
X755920Y1035000D02*
D03*
X766080D02*
D03*
X1005160Y711000D02*
D03*
X995000D02*
D03*
X1005080Y723000D02*
D03*
X994920D02*
D03*
X1005080Y735000D02*
D03*
X994920D02*
D03*
X631920Y880000D02*
D03*
X642080D02*
D03*
X631920Y890000D02*
D03*
X642080D02*
D03*
X631920Y903000D02*
D03*
X642080D02*
D03*
X706827Y779563D02*
D03*
X716987D02*
D03*
X941420Y1020750D02*
D03*
X951580D02*
D03*
X752670Y873750D02*
D03*
X762830D02*
D03*
X829780Y869900D02*
D03*
X819620D02*
D03*
X631920Y915000D02*
D03*
X642080D02*
D03*
X681670Y953250D02*
D03*
X691830D02*
D03*
X928330Y1020750D02*
D03*
X918170D02*
D03*
X938170Y1029250D02*
D03*
X948330D02*
D03*
D124*
X921000Y1120000D02*
D03*
Y1102000D02*
D03*
X712000Y1047000D02*
D03*
Y1065000D02*
D03*
X1098000Y1117000D02*
D03*
Y1099000D02*
D03*
X1044000Y1061000D02*
D03*
Y1043000D02*
D03*
X647000Y1191000D02*
D03*
Y1173000D02*
D03*
Y1139000D02*
D03*
Y1157000D02*
D03*
X710000Y1158000D02*
D03*
Y1140000D02*
D03*
X622000Y1031000D02*
D03*
Y1049000D02*
D03*
X585000Y1054000D02*
D03*
Y1036000D02*
D03*
X335000Y1053000D02*
D03*
Y1071000D02*
D03*
X301000Y1103000D02*
D03*
Y1085000D02*
D03*
X1031000Y1191000D02*
D03*
Y1173000D02*
D03*
X725000Y1304000D02*
D03*
Y1322000D02*
D03*
X548000Y1025000D02*
D03*
Y1007000D02*
D03*
X589000Y1071000D02*
D03*
Y1089000D02*
D03*
X395000Y1053000D02*
D03*
Y1071000D02*
D03*
X325000Y952000D02*
D03*
Y970000D02*
D03*
X429000Y1052000D02*
D03*
Y1034000D02*
D03*
X1066000Y1046000D02*
D03*
Y1064000D02*
D03*
X1165000Y1195000D02*
D03*
Y1177000D02*
D03*
X1084000Y1277000D02*
D03*
Y1259000D02*
D03*
X1368000Y1095000D02*
D03*
Y1077000D02*
D03*
X774000Y1229000D02*
D03*
Y1247000D02*
D03*
X367000Y1200000D02*
D03*
Y1182000D02*
D03*
X412000Y1202000D02*
D03*
Y1184000D02*
D03*
X394000Y1155000D02*
D03*
Y1137000D02*
D03*
X351000Y1155000D02*
D03*
Y1137000D02*
D03*
X335000Y1014900D02*
D03*
Y1032900D02*
D03*
X395226Y1109100D02*
D03*
Y1091100D02*
D03*
X473000Y1049000D02*
D03*
Y1067000D02*
D03*
X460500Y1299000D02*
D03*
Y1281000D02*
D03*
Y1267000D02*
D03*
Y1249000D02*
D03*
X533000Y1294000D02*
D03*
Y1276000D02*
D03*
Y1202000D02*
D03*
Y1184000D02*
D03*
X578000D02*
D03*
Y1202000D02*
D03*
X563000Y1228000D02*
D03*
Y1246000D02*
D03*
X409000Y891000D02*
D03*
Y909000D02*
D03*
X427000D02*
D03*
Y891000D02*
D03*
X504000Y888000D02*
D03*
Y906000D02*
D03*
X486000Y888000D02*
D03*
Y906000D02*
D03*
X553000Y888000D02*
D03*
Y906000D02*
D03*
X594000D02*
D03*
Y888000D02*
D03*
X575000D02*
D03*
Y906000D02*
D03*
X529000D02*
D03*
Y888000D02*
D03*
X452000Y905000D02*
D03*
Y923000D02*
D03*
X470000D02*
D03*
Y905000D02*
D03*
X700000Y1310000D02*
D03*
Y1328000D02*
D03*
X688000Y1150000D02*
D03*
Y1168000D02*
D03*
X689000Y1086000D02*
D03*
Y1104000D02*
D03*
X582000Y807000D02*
D03*
Y789000D02*
D03*
X1083000Y1072000D02*
D03*
Y1054000D02*
D03*
X961000Y1134000D02*
D03*
Y1152000D02*
D03*
X994000Y1061000D02*
D03*
Y1079000D02*
D03*
X1012000Y1191000D02*
D03*
Y1173000D02*
D03*
X915000Y1065000D02*
D03*
Y1047000D02*
D03*
X766750Y775500D02*
D03*
Y793500D02*
D03*
X1264250Y876750D02*
D03*
Y894750D02*
D03*
X602750Y831250D02*
D03*
Y813250D02*
D03*
X560000Y697000D02*
D03*
Y715000D02*
D03*
X543000D02*
D03*
Y697000D02*
D03*
X577000D02*
D03*
Y715000D02*
D03*
D165*
X1294750Y979930D02*
D03*
X1304250Y952070D02*
D03*
X1285250D02*
D03*
X1294250Y887820D02*
D03*
X1284750Y915680D02*
D03*
X1303750D02*
D03*
D167*
X932350Y1312450D02*
D03*
X837650D02*
D03*
X932350Y1236250D02*
D03*
X837650D02*
D03*
D168*
X932350Y1287050D02*
D03*
Y1261650D02*
D03*
X837650Y1287050D02*
D03*
Y1261650D02*
D03*
D171*
X1207000Y1090250D02*
D03*
D172*
X1230000Y1151750D02*
D03*
X1207000D02*
D03*
X1184000D02*
D03*
D173*
X1101000Y1217430D02*
D03*
Y1194570D02*
D03*
D175*
X799000Y1061000D02*
D03*
X755000D02*
D03*
X799000Y1085000D02*
D03*
X755000D02*
D03*
D179*
X722000Y945170D02*
D03*
Y955330D02*
D03*
X747000Y835330D02*
D03*
Y825170D02*
D03*
X929000Y1070330D02*
D03*
Y1060170D02*
D03*
X691000Y939330D02*
D03*
Y929170D02*
D03*
X723000Y915920D02*
D03*
Y926080D02*
D03*
X739000Y912920D02*
D03*
Y923080D02*
D03*
X707750Y920920D02*
D03*
Y931080D02*
D03*
X708500Y859330D02*
D03*
Y849170D02*
D03*
X723250Y896170D02*
D03*
Y906330D02*
D03*
X699000Y840170D02*
D03*
Y850330D02*
D03*
X723250Y886080D02*
D03*
Y875920D02*
D03*
X671000Y956080D02*
D03*
Y945920D02*
D03*
X683000Y939080D02*
D03*
Y928920D02*
D03*
X682750Y840170D02*
D03*
Y850330D02*
D03*
X723000Y867330D02*
D03*
Y857170D02*
D03*
Y832670D02*
D03*
Y842830D02*
D03*
X944500Y778920D02*
D03*
Y789080D02*
D03*
X935250Y846080D02*
D03*
Y835920D02*
D03*
X856250Y815830D02*
D03*
Y805670D02*
D03*
X858500Y781420D02*
D03*
Y791580D02*
D03*
X890750Y843830D02*
D03*
Y833670D02*
D03*
X911250Y821830D02*
D03*
Y811670D02*
D03*
X944500Y801920D02*
D03*
Y812080D02*
D03*
X783000Y1031920D02*
D03*
Y1042080D02*
D03*
X788500Y791920D02*
D03*
Y802080D02*
D03*
X686000Y798920D02*
D03*
Y809080D02*
D03*
X675000Y798920D02*
D03*
Y809080D02*
D03*
X772000Y813920D02*
D03*
Y824080D02*
D03*
X755000Y792080D02*
D03*
Y781920D02*
D03*
X773250Y978920D02*
D03*
Y989080D02*
D03*
X804250D02*
D03*
Y978920D02*
D03*
X783813Y989173D02*
D03*
Y979013D02*
D03*
X794250Y978920D02*
D03*
Y989080D02*
D03*
X929000Y1036920D02*
D03*
Y1047080D02*
D03*
X708000Y963080D02*
D03*
Y952920D02*
D03*
D180*
X994000Y772000D02*
D03*
Y750000D02*
D03*
D181*
X676127Y976169D02*
D03*
Y993949D02*
D03*
M02*
