G04 Layer_Physical_Order=8*
G04 Layer_Color=16711680*
%FSLAX44Y44*%
%MOMM*%
G71*
G01*
G75*
%ADD11R,1.2000X0.4000*%
%ADD13R,1.1430X1.2700*%
%ADD15R,1.0000X1.0000*%
%ADD16R,1.0000X1.0000*%
%ADD17R,0.8000X1.0000*%
%ADD18C,0.4000*%
%ADD19R,0.5500X0.4500*%
%ADD20R,1.0000X0.8000*%
%ADD21R,1.5000X0.6000*%
%ADD31R,0.6000X1.5000*%
%ADD46C,1.2000*%
%ADD47C,0.8000*%
%ADD48C,0.2500*%
%ADD49C,0.4000*%
%ADD50C,1.0000*%
%ADD51C,0.5000*%
%ADD52C,0.1500*%
%ADD53C,0.1840*%
%ADD55C,0.6000*%
%ADD56C,0.2000*%
%ADD57C,0.3000*%
%ADD58C,0.3500*%
%ADD59C,0.3420*%
%ADD63C,0.7000*%
%ADD65C,0.2540*%
%ADD66C,2.0000*%
%ADD67C,2.5000*%
%ADD68C,1.7000*%
%ADD69C,2.3000*%
%ADD70C,2.7000*%
%ADD71C,0.8000*%
%ADD72C,0.7000*%
%ADD73C,0.5000*%
%ADD74C,0.6000*%
%ADD75C,1.2000*%
%ADD76C,1.0000*%
%ADD95R,1.0000X1.5000*%
%ADD96R,0.4500X0.5500*%
%ADD97R,2.5000X1.0160*%
%ADD98R,2.5000X1.2700*%
%ADD99R,2.7000X1.3000*%
%ADD100R,2.7000X4.1000*%
%ADD101R,3.3000X2.2000*%
%ADD102R,1.4000X2.2000*%
%ADD103R,1.4000X1.0000*%
%ADD104R,0.6000X1.8000*%
%ADD105R,1.8000X1.4000*%
%ADD106R,1.2000X0.8000*%
%ADD107R,1.2700X1.1430*%
%ADD108C,1.5000*%
%ADD109C,0.1600*%
%ADD110C,1.5000*%
%ADD111C,0.4500*%
D11*
X854000Y1187500D02*
D03*
Y1181000D02*
D03*
Y1174500D02*
D03*
X830696D02*
D03*
Y1187500D02*
D03*
D13*
X634169Y980873D02*
D03*
X651949D02*
D03*
X982419Y1028123D02*
D03*
X1000199D02*
D03*
D15*
X870000Y1109000D02*
D03*
X852000D02*
D03*
X870000Y1092000D02*
D03*
X852000D02*
D03*
X509000Y1082000D02*
D03*
X491000D02*
D03*
X541000Y1083000D02*
D03*
X559000D02*
D03*
X896000Y1207000D02*
D03*
X878000D02*
D03*
X564000Y870000D02*
D03*
X582000D02*
D03*
X564000Y854000D02*
D03*
X582000D02*
D03*
X564000Y838000D02*
D03*
X582000D02*
D03*
X564000Y822000D02*
D03*
X582000D02*
D03*
X376000Y955000D02*
D03*
X394000D02*
D03*
X372000Y921000D02*
D03*
X390000D02*
D03*
X504000Y790000D02*
D03*
X486000D02*
D03*
X450000Y964000D02*
D03*
X468000D02*
D03*
X466000Y809000D02*
D03*
X448000D02*
D03*
X428000D02*
D03*
X410000D02*
D03*
X466000Y824000D02*
D03*
X448000D02*
D03*
X595000Y986000D02*
D03*
X577000D02*
D03*
X595000Y968000D02*
D03*
X577000D02*
D03*
X1020000Y1046000D02*
D03*
X1002000D02*
D03*
X1125000Y1127000D02*
D03*
X1143000D02*
D03*
X1125000Y1145000D02*
D03*
X1143000D02*
D03*
X849000Y1007000D02*
D03*
X867000D02*
D03*
X849000Y1024000D02*
D03*
X867000D02*
D03*
X849000Y1048000D02*
D03*
X867000D02*
D03*
X830450Y881550D02*
D03*
X812450D02*
D03*
X1132000Y1063000D02*
D03*
X1114000D02*
D03*
X1131000Y1087000D02*
D03*
X1113000D02*
D03*
D16*
X901300Y840800D02*
D03*
Y858800D02*
D03*
X824100Y840600D02*
D03*
Y858600D02*
D03*
X938000Y1101000D02*
D03*
Y1119000D02*
D03*
X898800Y808400D02*
D03*
Y790400D02*
D03*
X982000Y1095000D02*
D03*
Y1113000D02*
D03*
X667250Y1235000D02*
D03*
Y1253000D02*
D03*
X570000Y1006000D02*
D03*
Y1024000D02*
D03*
X670000Y1027000D02*
D03*
Y1045000D02*
D03*
X502000Y1067000D02*
D03*
Y1049000D02*
D03*
X535000Y1067000D02*
D03*
Y1049000D02*
D03*
X470000Y697000D02*
D03*
Y715000D02*
D03*
X446000Y697000D02*
D03*
Y715000D02*
D03*
X421000Y697000D02*
D03*
Y715000D02*
D03*
X399000Y697000D02*
D03*
Y715000D02*
D03*
X632000Y1250500D02*
D03*
Y1232500D02*
D03*
X633434Y1328907D02*
D03*
Y1310907D02*
D03*
X941000Y1152000D02*
D03*
Y1134000D02*
D03*
X980000Y1299000D02*
D03*
Y1281000D02*
D03*
X728000Y1140000D02*
D03*
Y1158000D02*
D03*
X662000Y1131000D02*
D03*
Y1113000D02*
D03*
X304500Y1015250D02*
D03*
Y1033250D02*
D03*
X335000Y1108000D02*
D03*
Y1090000D02*
D03*
X352000Y1228000D02*
D03*
Y1246000D02*
D03*
X409000Y1275000D02*
D03*
Y1293000D02*
D03*
X394000Y1228000D02*
D03*
Y1246000D02*
D03*
X396000Y1320000D02*
D03*
Y1338000D02*
D03*
X365000Y1112000D02*
D03*
Y1094000D02*
D03*
X295000Y1218000D02*
D03*
Y1200000D02*
D03*
X364000Y1027000D02*
D03*
Y1009000D02*
D03*
X286000Y970000D02*
D03*
Y952000D02*
D03*
X303000Y970000D02*
D03*
Y952000D02*
D03*
X367000Y1293000D02*
D03*
Y1275000D02*
D03*
X295000Y1282000D02*
D03*
Y1264000D02*
D03*
X350000Y1338000D02*
D03*
Y1320000D02*
D03*
X351000Y971000D02*
D03*
Y953000D02*
D03*
X394000Y1033000D02*
D03*
Y1015000D02*
D03*
X429000Y1103000D02*
D03*
Y1085000D02*
D03*
X515000Y1340000D02*
D03*
Y1322000D02*
D03*
X561000Y1340000D02*
D03*
Y1322000D02*
D03*
X577000Y1276000D02*
D03*
Y1294000D02*
D03*
X515000Y1230000D02*
D03*
Y1248000D02*
D03*
X563000Y1153000D02*
D03*
Y1135000D02*
D03*
X527000D02*
D03*
Y1153000D02*
D03*
X490000D02*
D03*
Y1135000D02*
D03*
X599000D02*
D03*
Y1153000D02*
D03*
X962000Y1264000D02*
D03*
Y1282000D02*
D03*
X673000Y1323000D02*
D03*
Y1305000D02*
D03*
X670000Y1083000D02*
D03*
Y1065000D02*
D03*
X603000Y847000D02*
D03*
Y865000D02*
D03*
X1226000Y751000D02*
D03*
Y733000D02*
D03*
X1225974Y691000D02*
D03*
Y709000D02*
D03*
X1200000Y840000D02*
D03*
Y822000D02*
D03*
X1199973Y691000D02*
D03*
Y709000D02*
D03*
X1174000Y751000D02*
D03*
Y733000D02*
D03*
X1173973Y691000D02*
D03*
Y709000D02*
D03*
X1148000Y751000D02*
D03*
Y733000D02*
D03*
X1147973Y691000D02*
D03*
Y709000D02*
D03*
X1122000Y751000D02*
D03*
Y733000D02*
D03*
X1122000Y796000D02*
D03*
Y778000D02*
D03*
X1096000Y751000D02*
D03*
Y733000D02*
D03*
Y691000D02*
D03*
Y709000D02*
D03*
X1069973Y751000D02*
D03*
Y733000D02*
D03*
X1070000Y691072D02*
D03*
Y709072D02*
D03*
X1044000Y840000D02*
D03*
Y822000D02*
D03*
X1043973Y691000D02*
D03*
Y709000D02*
D03*
X1226000Y822000D02*
D03*
Y840000D02*
D03*
Y778000D02*
D03*
Y796000D02*
D03*
X1200000Y733000D02*
D03*
Y751000D02*
D03*
X1200000Y778000D02*
D03*
Y796000D02*
D03*
X1172000Y821000D02*
D03*
Y839000D02*
D03*
X1174000Y778000D02*
D03*
Y796000D02*
D03*
X1148000Y822000D02*
D03*
Y840000D02*
D03*
Y778000D02*
D03*
Y796000D02*
D03*
X1122000Y822000D02*
D03*
Y840000D02*
D03*
X1122000Y709000D02*
D03*
Y691000D02*
D03*
X1096000Y822000D02*
D03*
Y840000D02*
D03*
Y778000D02*
D03*
Y796000D02*
D03*
X1070000Y822000D02*
D03*
Y840000D02*
D03*
Y778000D02*
D03*
Y796000D02*
D03*
X1044000Y733000D02*
D03*
Y751000D02*
D03*
X1044000Y778000D02*
D03*
Y796000D02*
D03*
X751250Y735500D02*
D03*
Y753500D02*
D03*
X1264250Y926000D02*
D03*
Y908000D02*
D03*
X1322750Y949000D02*
D03*
Y967000D02*
D03*
X1263250Y984000D02*
D03*
Y966000D02*
D03*
X1319750Y904500D02*
D03*
Y886500D02*
D03*
X527000Y715000D02*
D03*
Y697000D02*
D03*
X511000Y715000D02*
D03*
Y697000D02*
D03*
X593000Y715000D02*
D03*
Y697000D02*
D03*
X609000Y715000D02*
D03*
Y697000D02*
D03*
D17*
X564000Y1116000D02*
D03*
X582000D02*
D03*
X481250Y1103000D02*
D03*
X499250D02*
D03*
X1068000Y1198000D02*
D03*
X1050000D02*
D03*
X1068000Y1169000D02*
D03*
X1050000D02*
D03*
X1311000Y1157000D02*
D03*
X1293000D02*
D03*
X1323000Y1322000D02*
D03*
X1341000D02*
D03*
X1349000Y1303000D02*
D03*
X1367000D02*
D03*
X724000Y1288000D02*
D03*
X706000D02*
D03*
X485000Y854000D02*
D03*
X503000D02*
D03*
X485000Y838000D02*
D03*
X503000D02*
D03*
X485000Y822000D02*
D03*
X503000D02*
D03*
X485000Y870000D02*
D03*
X503000D02*
D03*
X373000Y938000D02*
D03*
X391000D02*
D03*
X373000Y972000D02*
D03*
X391000D02*
D03*
X503000Y806000D02*
D03*
X485000D02*
D03*
X450000Y981000D02*
D03*
X468000D02*
D03*
X995000Y1144000D02*
D03*
X977000D02*
D03*
Y1163000D02*
D03*
X995000D02*
D03*
X1143000Y1107000D02*
D03*
X1125000D02*
D03*
X1104000Y1156000D02*
D03*
X1086000D02*
D03*
X1008000Y832000D02*
D03*
X990000D02*
D03*
X1008000Y816000D02*
D03*
X990000D02*
D03*
X1008000Y848000D02*
D03*
X990000D02*
D03*
X1008000Y864000D02*
D03*
X990000D02*
D03*
D18*
X872800Y869551D02*
D03*
X675002Y841999D02*
D03*
X667002D02*
D03*
X659002D02*
D03*
X651002D02*
D03*
X864630Y869720D02*
D03*
X713250Y1031000D02*
D03*
X728250D02*
D03*
X716750Y1091000D02*
D03*
X735250D02*
D03*
X712500Y970000D02*
D03*
X1122000Y1086553D02*
D03*
X872796Y789554D02*
D03*
X864796D02*
D03*
X928800Y893550D02*
D03*
X920799Y861549D02*
D03*
X920796Y845554D02*
D03*
X928796Y837550D02*
D03*
X771000Y890000D02*
D03*
X839550Y881650D02*
D03*
X541000Y754000D02*
D03*
X562000Y753750D02*
D03*
X598750Y804750D02*
D03*
X637000Y802000D02*
D03*
X645000D02*
D03*
X645000Y793000D02*
D03*
X598500Y797750D02*
D03*
X591000Y807000D02*
D03*
X648000Y820000D02*
D03*
X827140Y919190D02*
D03*
X852500Y884250D02*
D03*
X801500Y890000D02*
D03*
X844921Y836666D02*
D03*
X855074D02*
D03*
X659000Y922000D02*
D03*
X651000D02*
D03*
X961750Y853750D02*
D03*
X924798Y779048D02*
D03*
X920800Y789554D02*
D03*
X909800Y779804D02*
D03*
X911800Y789554D02*
D03*
X819750Y773167D02*
D03*
X864800Y909550D02*
D03*
X920796Y821550D02*
D03*
X880796Y821554D02*
D03*
X920796Y797550D02*
D03*
X928796D02*
D03*
X962000Y864900D02*
D03*
X962500Y875250D02*
D03*
X936800Y869550D02*
D03*
X928800D02*
D03*
X872800Y853550D02*
D03*
Y837554D02*
D03*
X779000Y882001D02*
D03*
X804273Y854006D02*
D03*
X778998Y874002D02*
D03*
X804280Y866000D02*
D03*
X880796Y781554D02*
D03*
X838700Y869600D02*
D03*
X1123050Y1062800D02*
D03*
X838740Y893630D02*
D03*
X927000Y1134000D02*
D03*
X480000Y1137000D02*
D03*
X527000Y1164000D02*
D03*
X980000Y1066000D02*
D03*
X1319000Y699010D02*
D03*
X1350000Y716000D02*
D03*
X1001000Y803000D02*
D03*
X941998Y1047998D02*
D03*
X963000Y1065000D02*
D03*
X676000Y1004000D02*
D03*
X687000Y989000D02*
D03*
X921000Y1111000D02*
D03*
X861000Y1109000D02*
D03*
Y1092000D02*
D03*
X842000Y1080000D02*
D03*
X603000Y856000D02*
D03*
X649000Y885000D02*
D03*
X643000Y949000D02*
D03*
X637000Y955000D02*
D03*
X683000Y826000D02*
D03*
X683000Y834000D02*
D03*
X691000D02*
D03*
X698995Y834005D02*
D03*
X671000Y964500D02*
D03*
X675000Y866000D02*
D03*
X683000Y874000D02*
D03*
X659000Y874000D02*
D03*
X683000Y882000D02*
D03*
X521484Y1049500D02*
D03*
X837300Y797050D02*
D03*
X763000Y882000D02*
D03*
X928796Y829550D02*
D03*
X880796Y877554D02*
D03*
X872796Y877550D02*
D03*
X961500Y896750D02*
D03*
X962000Y885500D02*
D03*
X438000Y987000D02*
D03*
X478000Y1001000D02*
D03*
X522000Y952000D02*
D03*
Y960000D02*
D03*
X601000Y931000D02*
D03*
X584000Y1151000D02*
D03*
X1039000Y916000D02*
D03*
X1070800Y953000D02*
D03*
X1045400Y952000D02*
D03*
X1051750Y956200D02*
D03*
X1058100Y959000D02*
D03*
X1064450Y963200D02*
D03*
X795000Y971000D02*
D03*
X780000Y966000D02*
D03*
X771000Y954000D02*
D03*
X560000Y688000D02*
D03*
X421000D02*
D03*
X399000D02*
D03*
X609000D02*
D03*
X593000D02*
D03*
X527000D02*
D03*
X511000D02*
D03*
X470000Y688000D02*
D03*
X446000Y688000D02*
D03*
X779002Y938002D02*
D03*
X794999Y953998D02*
D03*
X771000Y850000D02*
D03*
Y842000D02*
D03*
X779000Y898000D02*
D03*
X771000D02*
D03*
Y906000D02*
D03*
X779000D02*
D03*
X967700Y831000D02*
D03*
X838290Y853480D02*
D03*
X839120Y908140D02*
D03*
X837299Y822696D02*
D03*
X936800Y909550D02*
D03*
X928800Y901550D02*
D03*
X936800D02*
D03*
X920800Y877550D02*
D03*
Y869550D02*
D03*
X936796Y813550D02*
D03*
X928796D02*
D03*
X920796Y805550D02*
D03*
X928796D02*
D03*
X936796D02*
D03*
Y797550D02*
D03*
Y789550D02*
D03*
Y781550D02*
D03*
X864796Y781554D02*
D03*
X880796Y789554D02*
D03*
X872796Y797554D02*
D03*
X864796D02*
D03*
Y805554D02*
D03*
X872796D02*
D03*
X880796Y813554D02*
D03*
X872796D02*
D03*
X864796D02*
D03*
X880796Y805554D02*
D03*
X864796Y829554D02*
D03*
X872796D02*
D03*
X888796Y877550D02*
D03*
X864800Y893550D02*
D03*
Y901550D02*
D03*
X872800D02*
D03*
X880800Y893550D02*
D03*
Y901550D02*
D03*
X864800Y853550D02*
D03*
X880796Y797554D02*
D03*
X804280Y829050D02*
D03*
X827140Y897617D02*
D03*
X872800Y893550D02*
D03*
X828620Y760466D02*
D03*
X804277Y897990D02*
D03*
X920800Y909550D02*
D03*
X928800D02*
D03*
X827138Y909554D02*
D03*
X928800Y861550D02*
D03*
X936800Y853550D02*
D03*
Y861550D02*
D03*
X928800Y885550D02*
D03*
X936800Y877550D02*
D03*
X928800D02*
D03*
X770999Y921998D02*
D03*
X779000Y922000D02*
D03*
Y850000D02*
D03*
X771000Y858000D02*
D03*
X778999Y913998D02*
D03*
X771000Y930000D02*
D03*
X779000Y858000D02*
D03*
X707000Y866000D02*
D03*
X715000Y882000D02*
D03*
Y890000D02*
D03*
Y866000D02*
D03*
X731000Y866000D02*
D03*
X739000D02*
D03*
X731000Y882000D02*
D03*
X675000Y898000D02*
D03*
X707000D02*
D03*
X715000D02*
D03*
Y922000D02*
D03*
X731000Y914000D02*
D03*
X763000Y818000D02*
D03*
X747000Y882000D02*
D03*
Y898000D02*
D03*
X755000Y882000D02*
D03*
X747000Y914000D02*
D03*
X674999Y881998D02*
D03*
X722999Y849998D02*
D03*
X747000Y858000D02*
D03*
X699000Y866000D02*
D03*
X771000Y882000D02*
D03*
X731000Y842000D02*
D03*
X746999Y945998D02*
D03*
X763000Y842000D02*
D03*
X699000Y882000D02*
D03*
X715000Y874000D02*
D03*
X746998Y865998D02*
D03*
X763000Y826000D02*
D03*
X770999Y945998D02*
D03*
X738999Y857998D02*
D03*
X691000Y842000D02*
D03*
X779000Y834000D02*
D03*
X683000Y858000D02*
D03*
Y906000D02*
D03*
X699000Y930000D02*
D03*
X715000Y850000D02*
D03*
Y930000D02*
D03*
X739000D02*
D03*
X747000D02*
D03*
X754998Y929998D02*
D03*
X763000Y930000D02*
D03*
X770999Y913998D02*
D03*
X706999Y825998D02*
D03*
Y841998D02*
D03*
X739000Y842000D02*
D03*
X771000Y834000D02*
D03*
X747000Y842000D02*
D03*
X658999Y833999D02*
D03*
X715000Y834000D02*
D03*
X755000Y826000D02*
D03*
X667000Y922000D02*
D03*
X691000Y850000D02*
D03*
X690999Y889998D02*
D03*
X731000Y930000D02*
D03*
X763000Y834000D02*
D03*
X666999Y833999D02*
D03*
X763000Y898000D02*
D03*
X778999Y929998D02*
D03*
X715000Y842000D02*
D03*
X707000Y882000D02*
D03*
X723000Y826000D02*
D03*
X699000Y906000D02*
D03*
X731000Y898000D02*
D03*
X739000Y882000D02*
D03*
X698999Y897998D02*
D03*
X691000Y906000D02*
D03*
X730999Y921998D02*
D03*
X683000Y890000D02*
D03*
X699000Y858000D02*
D03*
X763000Y914000D02*
D03*
X762999Y857998D02*
D03*
X771000Y866000D02*
D03*
X747000Y850000D02*
D03*
X691000Y858000D02*
D03*
Y882000D02*
D03*
X715000Y858000D02*
D03*
X731000Y906000D02*
D03*
X715000Y914000D02*
D03*
X754999Y865998D02*
D03*
X739000Y898000D02*
D03*
X755000D02*
D03*
Y842000D02*
D03*
Y858000D02*
D03*
Y914000D02*
D03*
X763000Y866000D02*
D03*
X747000Y922000D02*
D03*
X771000Y874000D02*
D03*
X779000Y826000D02*
D03*
X755000Y834000D02*
D03*
X715002Y817999D02*
D03*
X738999Y817998D02*
D03*
X731002Y817999D02*
D03*
X723002D02*
D03*
X707002D02*
D03*
X755500Y804000D02*
D03*
X684000Y756000D02*
D03*
X690000Y765000D02*
D03*
Y759000D02*
D03*
X738999Y825998D02*
D03*
X731002Y825996D02*
D03*
X739000Y834000D02*
D03*
X687000Y742000D02*
D03*
Y693000D02*
D03*
X668000D02*
D03*
X649000Y693000D02*
D03*
X714999Y825998D02*
D03*
X645000Y743000D02*
D03*
X428000Y819000D02*
D03*
X477000Y798000D02*
D03*
X494000Y838000D02*
D03*
X439000Y934000D02*
D03*
X1052750Y1133000D02*
D03*
X1040750D02*
D03*
X1028750D02*
D03*
X1021000Y1101250D02*
D03*
Y1113250D02*
D03*
Y1125250D02*
D03*
X634000Y1170000D02*
D03*
X1048000Y1074000D02*
D03*
X443000Y753000D02*
D03*
X450000D02*
D03*
X491000Y1073000D02*
D03*
X493000Y1049000D02*
D03*
X459000Y1069000D02*
D03*
X559000Y1009000D02*
D03*
Y1020600D02*
D03*
X615000Y1086000D02*
D03*
X610000Y1038000D02*
D03*
X574548Y1058700D02*
D03*
X619000Y1006900D02*
D03*
X335502Y958502D02*
D03*
X339000Y946000D02*
D03*
X632000Y1241500D02*
D03*
X633434Y1319907D02*
D03*
X632000Y1180000D02*
D03*
X612000Y1058700D02*
D03*
X521484Y1082000D02*
D03*
X667000Y1155000D02*
D03*
Y1167700D02*
D03*
X276000Y968000D02*
D03*
Y955000D02*
D03*
Y961500D02*
D03*
Y981000D02*
D03*
X373000Y1009000D02*
D03*
X348000Y1042300D02*
D03*
X301000Y1114000D02*
D03*
X429000Y1063000D02*
D03*
X376000Y1182000D02*
D03*
X301000Y1094000D02*
D03*
X429000Y1043000D02*
D03*
X381000Y1228000D02*
D03*
X394000Y1146000D02*
D03*
X350000Y1329000D02*
D03*
X367000Y1209000D02*
D03*
X409000Y1284000D02*
D03*
X352000Y1237000D02*
D03*
X310000Y1289000D02*
D03*
X382000Y1101000D02*
D03*
X820696Y1174500D02*
D03*
Y1187500D02*
D03*
X844000Y1174500D02*
D03*
X1041000Y1092750D02*
D03*
X1053000D02*
D03*
X1029000D02*
D03*
X1061000Y1100750D02*
D03*
Y1112750D02*
D03*
Y1124750D02*
D03*
X1074000Y868000D02*
D03*
X1064000D02*
D03*
X459000Y1082000D02*
D03*
Y1056000D02*
D03*
X521484Y1062500D02*
D03*
X475000Y1290000D02*
D03*
X515000Y1239000D02*
D03*
X543000Y1294000D02*
D03*
X562000Y1255000D02*
D03*
X577000Y1212000D02*
D03*
X506000Y1230000D02*
D03*
X527000Y1144000D02*
D03*
X563000D02*
D03*
X554000Y1222000D02*
D03*
X563000Y1163000D02*
D03*
X342000Y1155000D02*
D03*
X490000Y1144000D02*
D03*
X603000Y1084100D02*
D03*
Y1007900D02*
D03*
X666999Y897998D02*
D03*
X730999Y857998D02*
D03*
X707000Y874000D02*
D03*
X675000Y850000D02*
D03*
X778998Y945998D02*
D03*
X459000Y1062500D02*
D03*
X286000Y717000D02*
D03*
X394000Y1128000D02*
D03*
X421000Y706000D02*
D03*
X399000D02*
D03*
X288000Y867600D02*
D03*
X296000Y816800D02*
D03*
X288000D02*
D03*
Y791400D02*
D03*
X511000Y706000D02*
D03*
X593000D02*
D03*
X609000D02*
D03*
X560000D02*
D03*
X577000D02*
D03*
X543000D02*
D03*
X527000D02*
D03*
X336000Y952000D02*
D03*
X551000Y1056000D02*
D03*
X675000Y890000D02*
D03*
X658997Y890000D02*
D03*
X673000Y1314000D02*
D03*
X551000Y1244000D02*
D03*
X700000Y1319000D02*
D03*
X691000Y1328000D02*
D03*
X716000Y1322000D02*
D03*
X725000Y1313000D02*
D03*
X578000Y1193000D02*
D03*
X697000Y1288000D02*
D03*
X715000D02*
D03*
X680000Y1086000D02*
D03*
X617000Y1014000D02*
D03*
X603000Y1033300D02*
D03*
X615000Y1072000D02*
D03*
X659000Y850000D02*
D03*
X667000D02*
D03*
X645000Y779000D02*
D03*
Y786000D02*
D03*
Y772000D02*
D03*
X667000Y890000D02*
D03*
X653000Y816000D02*
D03*
X439000Y882000D02*
D03*
Y876000D02*
D03*
Y870000D02*
D03*
Y864000D02*
D03*
X666000Y1093000D02*
D03*
X656000Y1099000D02*
D03*
X296000Y893000D02*
D03*
X288000D02*
D03*
X296000Y867600D02*
D03*
X381000Y921000D02*
D03*
X385000Y955000D02*
D03*
X494000Y854000D02*
D03*
X459000Y963000D02*
D03*
X645000Y765000D02*
D03*
X643000Y759000D02*
D03*
X573000Y870000D02*
D03*
Y854000D02*
D03*
X582000Y798000D02*
D03*
X618000Y932000D02*
D03*
X457000Y809000D02*
D03*
X422000Y785000D02*
D03*
X618000Y914000D02*
D03*
X586000Y986000D02*
D03*
Y968000D02*
D03*
X572100Y922400D02*
D03*
X564000Y888000D02*
D03*
X457000Y824000D02*
D03*
X419000Y809000D02*
D03*
X439000Y824000D02*
D03*
X514000Y817000D02*
D03*
X542874Y876000D02*
D03*
X1041000Y1158000D02*
D03*
X1013500Y1141750D02*
D03*
X1006500Y1143000D02*
D03*
X976000Y1126000D02*
D03*
X1088000Y1116000D02*
D03*
X1088000Y1123000D02*
D03*
X1079750Y1144000D02*
D03*
X1150000Y1029000D02*
D03*
X1066000Y1184000D02*
D03*
X1012000Y1205000D02*
D03*
X1085000Y1140000D02*
D03*
X1143000Y1092000D02*
D03*
X1058000Y1158000D02*
D03*
X1094000Y868000D02*
D03*
X719000Y726000D02*
D03*
X719000Y718000D02*
D03*
X720000Y734000D02*
D03*
X732000Y713000D02*
D03*
X727000Y718000D02*
D03*
X288000Y842200D02*
D03*
X296000D02*
D03*
X305000Y791000D02*
D03*
X645000Y753000D02*
D03*
X764250Y809000D02*
D03*
X731000Y764000D02*
D03*
X1077150Y957200D02*
D03*
X1089850D02*
D03*
X1102550D02*
D03*
X1115250D02*
D03*
X1127950D02*
D03*
X1140650D02*
D03*
X1153350D02*
D03*
X1166050D02*
D03*
X1178750D02*
D03*
X1191450Y962200D02*
D03*
X1204150Y957200D02*
D03*
X1059000Y916000D02*
D03*
X1084000Y868000D02*
D03*
X1114000D02*
D03*
X1104000D02*
D03*
X1194000D02*
D03*
X1144000D02*
D03*
X1204000D02*
D03*
X1214000D02*
D03*
X1079000Y916000D02*
D03*
X1109000D02*
D03*
X1099000D02*
D03*
X1089000D02*
D03*
X1159000Y916000D02*
D03*
X1179000Y916000D02*
D03*
X1169000D02*
D03*
X1199000D02*
D03*
X1189000Y916000D02*
D03*
X1209000Y916000D02*
D03*
X1049000D02*
D03*
X1054000Y868000D02*
D03*
X1083500Y953000D02*
D03*
X1121600D02*
D03*
X1134300D02*
D03*
X1108900D02*
D03*
X1096200D02*
D03*
X1172400D02*
D03*
X1185100D02*
D03*
X1159700D02*
D03*
X1210500D02*
D03*
X1197800Y956000D02*
D03*
X1007300Y953000D02*
D03*
X994600D02*
D03*
X1020000D02*
D03*
X1013650Y957200D02*
D03*
X1000950D02*
D03*
X1147000Y953000D02*
D03*
X755250Y811000D02*
D03*
X787000Y954000D02*
D03*
X779000D02*
D03*
X788000Y965000D02*
D03*
X1216350Y957200D02*
D03*
X762998Y945998D02*
D03*
X1069000Y916000D02*
D03*
X731000Y946000D02*
D03*
X738999Y945998D02*
D03*
X723000Y938000D02*
D03*
X739001Y937998D02*
D03*
X747001D02*
D03*
X755001D02*
D03*
X731001D02*
D03*
X771001D02*
D03*
X763000Y938000D02*
D03*
X895971Y917460D02*
D03*
X680000Y1067000D02*
D03*
X718998Y1020998D02*
D03*
X707750Y1026000D02*
D03*
X711998Y1086002D02*
D03*
X724996Y1081000D02*
D03*
X884000Y1036000D02*
D03*
Y1081000D02*
D03*
X884000Y1028000D02*
D03*
X858000Y1024000D02*
D03*
X694000Y989000D02*
D03*
X701000D02*
D03*
X884000Y1044000D02*
D03*
X858000Y1048000D02*
D03*
X799000Y1073000D02*
D03*
X748000Y1035000D02*
D03*
X773000Y1031000D02*
D03*
X772000Y1040920D02*
D03*
X783000Y1055000D02*
D03*
X1184000Y868000D02*
D03*
X1174000D02*
D03*
X1164000D02*
D03*
X1139000Y916000D02*
D03*
X1149000Y916000D02*
D03*
X1154000Y868000D02*
D03*
X1129000Y916000D02*
D03*
X1119000Y916000D02*
D03*
X1124000Y868000D02*
D03*
X1134000D02*
D03*
X1044000Y742000D02*
D03*
X1069973Y742000D02*
D03*
X1096000Y742000D02*
D03*
X1122000D02*
D03*
X1148000D02*
D03*
X1174000D02*
D03*
X1200000D02*
D03*
X1226000D02*
D03*
X1226000Y787000D02*
D03*
X1200000D02*
D03*
X1174000D02*
D03*
X1148000D02*
D03*
X1122000D02*
D03*
X1096000D02*
D03*
X1069974Y787000D02*
D03*
X1044000Y787000D02*
D03*
X1226000Y831000D02*
D03*
X1200000D02*
D03*
X1148000D02*
D03*
X1122000D02*
D03*
X1096000D02*
D03*
X1069974Y831000D02*
D03*
X1044000Y831000D02*
D03*
X1172000Y830000D02*
D03*
X1053973Y725974D02*
D03*
X1080000Y726046D02*
D03*
X1106000Y725974D02*
D03*
X1132000D02*
D03*
X1157973D02*
D03*
X1183973Y725974D02*
D03*
X1202973Y721973D02*
D03*
X1225974Y721973D02*
D03*
X618000Y894000D02*
D03*
X815000Y962000D02*
D03*
X838000Y1024000D02*
D03*
X769000Y802000D02*
D03*
X610000Y875000D02*
D03*
X768000Y1061000D02*
D03*
X584000Y1138000D02*
D03*
X952000Y1048000D02*
D03*
X1320000Y852000D02*
D03*
X1293000Y863000D02*
D03*
X999000Y816000D02*
D03*
X1034000Y856000D02*
D03*
X1029000Y868000D02*
D03*
X1019000Y859000D02*
D03*
X1303500Y761500D02*
D03*
X1329000Y852000D02*
D03*
X1313000Y827000D02*
D03*
X1320000Y751000D02*
D03*
X1330000D02*
D03*
X1015000Y916000D02*
D03*
X1024000Y916000D02*
D03*
X1100000Y1086000D02*
D03*
X999000Y864000D02*
D03*
Y848000D02*
D03*
Y832000D02*
D03*
X978000Y1047000D02*
D03*
X1125000Y1077000D02*
D03*
X1100000Y1070000D02*
D03*
X988000Y1104000D02*
D03*
X1058000Y1074000D02*
D03*
X1308000Y792000D02*
D03*
X745000Y715000D02*
D03*
X667000Y702000D02*
D03*
X949750Y1150500D02*
D03*
X649000Y945000D02*
D03*
Y952000D02*
D03*
X659000Y866000D02*
D03*
X667000Y866000D02*
D03*
X667000Y874000D02*
D03*
X675000Y874000D02*
D03*
X632080Y871000D02*
D03*
X971000Y1173000D02*
D03*
X761000Y752750D02*
D03*
X523000Y1276000D02*
D03*
X429000Y1094000D02*
D03*
X382000Y1093100D02*
D03*
X348000Y1023000D02*
D03*
X338484Y978000D02*
D03*
X465000Y1103000D02*
D03*
X431000Y1070000D02*
D03*
X381000Y1018000D02*
D03*
X348000Y1101000D02*
D03*
X310000Y1226000D02*
D03*
X616000Y870000D02*
D03*
X523000Y788000D02*
D03*
X469000Y706000D02*
D03*
X470000Y766000D02*
D03*
X888810Y924540D02*
D03*
X803500Y807000D02*
D03*
X910752Y855502D02*
D03*
X674999Y833999D02*
D03*
X707000Y834000D02*
D03*
X920796Y813550D02*
D03*
X911250Y805250D02*
D03*
X880800Y829554D02*
D03*
Y837554D02*
D03*
X591000Y846000D02*
D03*
X779000Y866000D02*
D03*
X936796Y829550D02*
D03*
X1319500Y896500D02*
D03*
X1264250Y918000D02*
D03*
Y884750D02*
D03*
X591000Y822000D02*
D03*
X699000Y922000D02*
D03*
X675000Y938000D02*
D03*
X667000D02*
D03*
X683000Y914000D02*
D03*
X674999Y929998D02*
D03*
X675000Y922000D02*
D03*
X691000Y922000D02*
D03*
X683000Y922000D02*
D03*
X658999Y905998D02*
D03*
X651000Y906000D02*
D03*
X658800Y913900D02*
D03*
X707000Y906000D02*
D03*
X715000D02*
D03*
X707000Y914000D02*
D03*
X634000Y993250D02*
D03*
X648250Y929750D02*
D03*
X682999Y945998D02*
D03*
X691000Y963500D02*
D03*
X699000Y962000D02*
D03*
X715000Y954000D02*
D03*
X722000Y964000D02*
D03*
X699000Y954000D02*
D03*
X715000Y946000D02*
D03*
X707000D02*
D03*
X699000D02*
D03*
X691000D02*
D03*
X715000Y938000D02*
D03*
X706999Y937998D02*
D03*
X698999D02*
D03*
X687919Y976169D02*
D03*
X794500Y791750D02*
D03*
X731187Y779563D02*
D03*
X929000Y1053625D02*
D03*
X918170Y1026920D02*
D03*
X954500Y1029250D02*
D03*
X934875Y1020750D02*
D03*
X929000Y1029250D02*
D03*
X982419Y1039919D02*
D03*
X1010250Y1028000D02*
D03*
X935750Y1070250D02*
D03*
X972123Y1028127D02*
D03*
X822000Y952750D02*
D03*
X958000Y1020750D02*
D03*
X936800Y885550D02*
D03*
X872800Y909550D02*
D03*
X936800Y893550D02*
D03*
X809000Y960000D02*
D03*
X832250Y951000D02*
D03*
X796660Y906002D02*
D03*
X804280D02*
D03*
X803290Y819380D02*
D03*
X803270Y813030D02*
D03*
X791140Y814710D02*
D03*
X757000Y771000D02*
D03*
X811830Y756420D02*
D03*
X766750Y783750D02*
D03*
X783000Y808000D02*
D03*
X760000Y975679D02*
D03*
X760037Y968297D02*
D03*
X765000Y980500D02*
D03*
X781538Y801462D02*
D03*
X842420Y734750D02*
D03*
X920796Y901550D02*
D03*
X920800Y893550D02*
D03*
X872796Y781554D02*
D03*
X466250Y1116250D02*
D03*
X477000Y937000D02*
D03*
X901750Y1141500D02*
D03*
X312000Y1065000D02*
D03*
X349250Y1033500D02*
D03*
D19*
X752420Y889750D02*
D03*
X762580D02*
D03*
X752420Y850000D02*
D03*
X762580D02*
D03*
X752420Y906000D02*
D03*
X762580D02*
D03*
X753670Y922000D02*
D03*
X763830D02*
D03*
X665920Y914000D02*
D03*
X676080D02*
D03*
X699830D02*
D03*
X689670D02*
D03*
X700080Y874000D02*
D03*
X689920D02*
D03*
X681420Y866000D02*
D03*
X691580D02*
D03*
X708330Y890000D02*
D03*
X698170D02*
D03*
X732420D02*
D03*
X742580D02*
D03*
X732670Y874000D02*
D03*
X742830D02*
D03*
X657170Y929750D02*
D03*
X667330D02*
D03*
X681670Y898000D02*
D03*
X691830D02*
D03*
X650420Y938000D02*
D03*
X660580D02*
D03*
X665920Y906000D02*
D03*
X676080D02*
D03*
X740580Y850000D02*
D03*
X730420D02*
D03*
X676830Y858250D02*
D03*
X666670D02*
D03*
X846670Y901500D02*
D03*
X856830D02*
D03*
X846420Y870250D02*
D03*
X856580D02*
D03*
X955080Y885500D02*
D03*
X944920D02*
D03*
X955080Y853500D02*
D03*
X944920D02*
D03*
X955080Y865000D02*
D03*
X944920D02*
D03*
X846670Y910000D02*
D03*
X856830D02*
D03*
X846670Y893000D02*
D03*
X856830D02*
D03*
X954580Y896750D02*
D03*
X944420D02*
D03*
X940580Y916000D02*
D03*
X930420D02*
D03*
X875330Y860750D02*
D03*
X865170D02*
D03*
X955330Y875250D02*
D03*
X945170D02*
D03*
X879920Y868500D02*
D03*
X890080D02*
D03*
X856080Y853500D02*
D03*
X845920D02*
D03*
X755920Y1035000D02*
D03*
X766080D02*
D03*
X1005160Y711000D02*
D03*
X995000D02*
D03*
X1005080Y723000D02*
D03*
X994920D02*
D03*
X1005080Y735000D02*
D03*
X994920D02*
D03*
X631920Y880000D02*
D03*
X642080D02*
D03*
X631920Y890000D02*
D03*
X642080D02*
D03*
X631920Y903000D02*
D03*
X642080D02*
D03*
X706827Y779563D02*
D03*
X716987D02*
D03*
X941420Y1020750D02*
D03*
X951580D02*
D03*
X752670Y873750D02*
D03*
X762830D02*
D03*
X829780Y869900D02*
D03*
X819620D02*
D03*
X631920Y915000D02*
D03*
X642080D02*
D03*
X681670Y953250D02*
D03*
X691830D02*
D03*
X928330Y1020750D02*
D03*
X918170D02*
D03*
X938170Y1029250D02*
D03*
X948330D02*
D03*
D20*
X921000Y1120000D02*
D03*
Y1102000D02*
D03*
X712000Y1047000D02*
D03*
Y1065000D02*
D03*
X1098000Y1117000D02*
D03*
Y1099000D02*
D03*
X1044000Y1061000D02*
D03*
Y1043000D02*
D03*
X647000Y1191000D02*
D03*
Y1173000D02*
D03*
Y1139000D02*
D03*
Y1157000D02*
D03*
X710000Y1158000D02*
D03*
Y1140000D02*
D03*
X622000Y1031000D02*
D03*
Y1049000D02*
D03*
X585000Y1054000D02*
D03*
Y1036000D02*
D03*
X335000Y1053000D02*
D03*
Y1071000D02*
D03*
X301000Y1103000D02*
D03*
Y1085000D02*
D03*
X1031000Y1191000D02*
D03*
Y1173000D02*
D03*
X725000Y1304000D02*
D03*
Y1322000D02*
D03*
X548000Y1025000D02*
D03*
Y1007000D02*
D03*
X589000Y1071000D02*
D03*
Y1089000D02*
D03*
X395000Y1053000D02*
D03*
Y1071000D02*
D03*
X325000Y952000D02*
D03*
Y970000D02*
D03*
X429000Y1052000D02*
D03*
Y1034000D02*
D03*
X1066000Y1046000D02*
D03*
Y1064000D02*
D03*
X1165000Y1195000D02*
D03*
Y1177000D02*
D03*
X1084000Y1277000D02*
D03*
Y1259000D02*
D03*
X1368000Y1095000D02*
D03*
Y1077000D02*
D03*
X774000Y1229000D02*
D03*
Y1247000D02*
D03*
X367000Y1200000D02*
D03*
Y1182000D02*
D03*
X412000Y1202000D02*
D03*
Y1184000D02*
D03*
X394000Y1155000D02*
D03*
Y1137000D02*
D03*
X351000Y1155000D02*
D03*
Y1137000D02*
D03*
X335000Y1014900D02*
D03*
Y1032900D02*
D03*
X395226Y1109100D02*
D03*
Y1091100D02*
D03*
X473000Y1049000D02*
D03*
Y1067000D02*
D03*
X460500Y1299000D02*
D03*
Y1281000D02*
D03*
Y1267000D02*
D03*
Y1249000D02*
D03*
X533000Y1294000D02*
D03*
Y1276000D02*
D03*
Y1202000D02*
D03*
Y1184000D02*
D03*
X578000D02*
D03*
Y1202000D02*
D03*
X563000Y1228000D02*
D03*
Y1246000D02*
D03*
X409000Y891000D02*
D03*
Y909000D02*
D03*
X427000D02*
D03*
Y891000D02*
D03*
X504000Y888000D02*
D03*
Y906000D02*
D03*
X486000Y888000D02*
D03*
Y906000D02*
D03*
X553000Y888000D02*
D03*
Y906000D02*
D03*
X594000D02*
D03*
Y888000D02*
D03*
X575000D02*
D03*
Y906000D02*
D03*
X529000D02*
D03*
Y888000D02*
D03*
X452000Y905000D02*
D03*
Y923000D02*
D03*
X470000D02*
D03*
Y905000D02*
D03*
X700000Y1310000D02*
D03*
Y1328000D02*
D03*
X688000Y1150000D02*
D03*
Y1168000D02*
D03*
X689000Y1086000D02*
D03*
Y1104000D02*
D03*
X582000Y807000D02*
D03*
Y789000D02*
D03*
X1083000Y1072000D02*
D03*
Y1054000D02*
D03*
X961000Y1134000D02*
D03*
Y1152000D02*
D03*
X994000Y1061000D02*
D03*
Y1079000D02*
D03*
X1012000Y1191000D02*
D03*
Y1173000D02*
D03*
X915000Y1065000D02*
D03*
Y1047000D02*
D03*
X766750Y775500D02*
D03*
Y793500D02*
D03*
X1264250Y876750D02*
D03*
Y894750D02*
D03*
X602750Y831250D02*
D03*
Y813250D02*
D03*
X560000Y697000D02*
D03*
Y715000D02*
D03*
X543000D02*
D03*
Y697000D02*
D03*
X577000D02*
D03*
Y715000D02*
D03*
D21*
X1198984Y1240000D02*
D03*
X1223000D02*
D03*
X1250008Y1275000D02*
D03*
X1225992D02*
D03*
X1324008Y1263000D02*
D03*
X1299992D02*
D03*
D31*
X1292000Y1311992D02*
D03*
Y1336008D02*
D03*
X800000Y1265992D02*
D03*
Y1290008D02*
D03*
D46*
X1320000Y1264000D02*
X1342000D01*
X1083000Y1261000D02*
X1099000D01*
X1164000Y1197000D02*
X1175000D01*
X1102000Y1315000D02*
Y1333000D01*
X1067000Y1339000D02*
X1096000D01*
X1102000Y1298000D02*
Y1315000D01*
X1094000Y1290000D02*
X1102000Y1298000D01*
X1067000Y1290000D02*
Y1339000D01*
X1073000Y1290000D02*
Y1294000D01*
Y1290000D02*
X1094000D01*
X1067000D02*
X1073000D01*
X1322000Y1322000D02*
X1341000Y1303000D01*
X1207000Y1273000D02*
X1229000D01*
X1294270Y1314270D02*
X1318430Y1290110D01*
X1261008Y1264000D02*
X1303000D01*
X1223000Y1221000D02*
Y1237000D01*
X1291000Y1182000D02*
X1311000Y1162000D01*
Y1157000D02*
Y1162000D01*
X1278000Y1164000D02*
X1286000D01*
X1342000Y1140000D02*
X1367000Y1165000D01*
X1274000Y1140000D02*
X1342000D01*
X1367000Y1165000D02*
Y1225000D01*
X1350000Y1109500D02*
X1353500D01*
X1368000Y1095000D01*
X1315000Y1182000D02*
X1341000D01*
X1324000Y1308000D02*
X1329000Y1313000D01*
X1341000Y1303000D02*
X1348000D01*
X1309000Y1322000D02*
X1322000D01*
X1294000Y1337000D02*
X1309000Y1322000D01*
X1294000Y1337000D02*
Y1340000D01*
X1316000Y1228000D02*
X1341084D01*
X1344084D01*
X1287000D02*
X1290000Y1225000D01*
X1146000Y1177000D02*
X1165000D01*
X1261008Y1264000D02*
X1262000Y1263008D01*
X1237008Y1288000D02*
X1250008Y1275000D01*
X1194000Y1288000D02*
X1237008D01*
X1170000Y1264000D02*
X1194000Y1288000D01*
X1170000Y1249000D02*
Y1264000D01*
X1250008Y1275000D02*
X1261008Y1264000D01*
X1255000Y1245000D02*
Y1256008D01*
X1262000Y1263008D01*
X1368000Y1068000D02*
Y1077000D01*
X1364000Y1064000D02*
X1368000Y1068000D01*
X1286000Y1164000D02*
X1293000Y1157000D01*
X1062000Y1245000D02*
X1078000D01*
X1199000Y1243000D02*
Y1249000D01*
X1206000Y1256000D01*
X1100000Y1328000D02*
X1102000Y1330000D01*
X1096000Y1339000D02*
X1102000Y1333000D01*
X1017916Y1338000D02*
X1038000D01*
X1018000Y1273000D02*
Y1289000D01*
X1207000Y1131000D02*
Y1144000D01*
X1230000Y1147000D02*
Y1151750D01*
X1184000Y1159000D02*
Y1164000D01*
X1046000Y1261000D02*
X1062000Y1245000D01*
X1046000Y1261000D02*
Y1330000D01*
X1038000Y1338000D02*
X1046000Y1330000D01*
X1170430Y1309000D02*
X1274000D01*
X1292960Y1290040D01*
X1175000Y1197000D02*
X1178000Y1194000D01*
X1084449Y1315000D02*
X1102000D01*
X1084000Y1278000D02*
Y1286000D01*
X1290000Y1187000D02*
Y1225000D01*
X1260000Y1228000D02*
X1287000D01*
X1258000Y1223000D02*
Y1227000D01*
D47*
X1068000Y1169000D02*
Y1198000D01*
X970319Y1172462D02*
X977000Y1164000D01*
X968502Y1174764D02*
X970319Y1172462D01*
X971000Y1081000D02*
X991000Y1061000D01*
X1301000Y901500D02*
Y918000D01*
X1305000Y949250D02*
X1321500D01*
X1282250Y917500D02*
Y952000D01*
X1177000Y1141000D02*
X1178000Y1140000D01*
X991000Y1061000D02*
X994000D01*
X977000Y1144000D02*
Y1163000D01*
Y1164000D01*
X1031000Y1191000D02*
Y1206000D01*
X967000Y1081000D02*
X971000D01*
X1209000Y916000D02*
X1260000Y967000D01*
X962000Y1155000D02*
Y1183000D01*
X968502Y1174764D01*
X1260000Y966000D02*
X1263250D01*
X1323000D01*
X1263000Y983000D02*
Y997000D01*
Y983000D02*
X1292000D01*
D48*
X1090000Y1169000D02*
X1104000Y1155000D01*
X1319500Y896500D02*
Y904500D01*
X879670Y867750D02*
Y870676D01*
X828500Y880400D02*
X830500Y882400D01*
X838290Y853480D02*
X846750D01*
X858116Y781554D02*
X864796D01*
X747000Y922000D02*
X753920D01*
X751920Y906000D02*
Y909080D01*
X731000Y890000D02*
Y898000D01*
X691000Y939080D02*
Y946000D01*
X671000Y955580D02*
Y964500D01*
X648920Y938000D02*
Y944920D01*
X751920Y885080D02*
Y890000D01*
X731920Y873080D02*
Y874920D01*
X715000Y866000D02*
X723000D01*
X936800Y885550D02*
X944920D01*
X930430Y911180D02*
Y916160D01*
X880796Y877554D02*
X890215Y868135D01*
X904555Y862055D02*
X905060Y861549D01*
X889640Y834090D02*
X890550Y833180D01*
X856120Y909390D02*
X864640D01*
X855820Y893630D02*
X864720D01*
X856540Y869970D02*
X864120D01*
X762920Y898080D02*
Y906000D01*
X763000Y882000D02*
Y898000D01*
X864920Y860000D02*
X866350D01*
X857900Y791930D02*
X860276Y789554D01*
X763000Y866000D02*
Y882000D01*
X1292750Y862750D02*
Y887000D01*
X1292500Y886000D02*
X1319250D01*
X726000Y1140000D02*
X728300Y1142300D01*
X635000Y1128000D02*
X641000Y1122000D01*
X676000D01*
X694000Y1140000D01*
X642000Y914000D02*
X652480D01*
X760000Y975679D02*
X770123Y975749D01*
X773250Y978920D01*
X936800Y877550D02*
X939100Y875250D01*
X945170D01*
X936800Y893550D02*
X940000Y896750D01*
X944420D01*
X872800Y863830D02*
Y869551D01*
X691080Y858080D02*
Y866000D01*
X682999Y945998D02*
Y951750D01*
X741160Y890000D02*
Y895840D01*
X742080Y870917D02*
Y874000D01*
X723080Y906000D02*
X731000D01*
X723000Y906080D02*
X723080Y906000D01*
X688920Y914000D02*
X691000Y911920D01*
X691080Y898000D02*
X698997D01*
X698920Y882080D02*
Y890000D01*
X641000Y806000D02*
Y840555D01*
Y806000D02*
X645000Y802000D01*
X641000Y840555D02*
X660084Y859639D01*
X699080Y930080D02*
X707000D01*
X667000Y858000D02*
X675000Y866000D01*
X713250Y1031000D02*
X728250D01*
X716750Y1091000D02*
X735250D01*
X915000Y1091000D02*
X924000Y1100000D01*
X712500Y968000D02*
Y970000D01*
X709250Y964750D02*
X712500Y968000D01*
X1122000Y1086553D02*
X1130853D01*
X1131100Y1086800D01*
X782000Y1031000D02*
X799000Y1048000D01*
X562000Y1228000D02*
Y1233000D01*
X667750Y1232750D02*
X670000Y1235000D01*
X707000Y861580D02*
X708500Y860080D01*
X594125Y838125D02*
X603000Y829250D01*
X279000Y955000D02*
X285000Y949000D01*
X623100Y1114000D02*
X662000D01*
X298000Y1199000D02*
X318000Y1179000D01*
X298000Y1199000D02*
Y1201000D01*
X521484Y1049500D02*
X535242D01*
X298000Y1262500D02*
X318000Y1242500D01*
X298000Y1262500D02*
Y1264000D01*
X562000Y1246000D02*
Y1255000D01*
X1159000Y855000D02*
X1174000Y840000D01*
X443000Y715000D02*
Y753000D01*
X842000Y1080000D02*
X853000Y1091000D01*
X486875Y1210375D02*
X490500Y1214000D01*
X486875Y1210375D02*
X486875Y1210375D01*
X485375Y1210375D02*
X486875D01*
X463000Y1232750D02*
X485375Y1210375D01*
X1013500Y1141750D02*
X1031000Y1159250D01*
X1006500Y1143000D02*
X1012000Y1148500D01*
X860276Y789554D02*
X864796D01*
X905060Y861549D02*
X920799D01*
X928796Y837550D02*
Y837728D01*
X727000Y967000D02*
Y994000D01*
X707750Y1013250D02*
X727000Y994000D01*
X707750Y1013250D02*
Y1026000D01*
X928800Y909550D02*
X930430Y911180D01*
X928796Y829550D02*
X928800D01*
X878336Y843090D02*
X890550D01*
X872800Y837554D02*
X878336Y843090D01*
X839120Y908140D02*
X840370Y909390D01*
X845960D01*
X838740Y893630D02*
X846480Y901370D01*
X838740Y893630D02*
X845660D01*
X808399Y882502D02*
X810500Y880400D01*
X779000Y882001D02*
X808399D01*
X806750Y1036000D02*
X884000D01*
X746999Y976249D02*
X806750Y1036000D01*
X746999Y945998D02*
Y976249D01*
X743000Y950000D02*
Y978250D01*
X637000Y785000D02*
X645000Y793000D01*
X582000Y807000D02*
X591000D01*
X864640Y909390D02*
X864800Y909550D01*
X898800Y808400D02*
Y809561D01*
X884750Y833750D02*
X889640D01*
X723000Y926080D02*
X726917D01*
X825410Y840600D02*
X838290Y853480D01*
X824100Y840600D02*
X825410D01*
X901300Y858800D02*
X904555Y862055D01*
X830080Y869600D02*
X838700D01*
X872800Y853550D02*
X873210Y853960D01*
X866350Y860000D02*
X872800Y853550D01*
X829780Y869900D02*
X830080Y869600D01*
X838700D02*
X839070Y869970D01*
X846380D01*
X1082000Y1128000D02*
X1086000Y1132000D01*
X1082000Y1090000D02*
Y1128000D01*
Y1090000D02*
X1093000Y1079000D01*
X832000Y881650D02*
X838800D01*
X927000Y1130000D02*
Y1134000D01*
Y1130000D02*
X938000Y1119000D01*
X664000Y1045000D02*
X670000D01*
X663082Y1006900D02*
X680000Y1023818D01*
X619000Y1006900D02*
X663082D01*
X680000Y1023818D02*
Y1055000D01*
X915000Y1091000D02*
X915000Y1091000D01*
X915000Y1091000D01*
X915260Y1090740D01*
X915000Y1091000D02*
X927000D01*
X915000D02*
X915000D01*
X915000D02*
Y1091000D01*
X897000Y1109000D02*
X915000Y1091000D01*
X527000Y1153000D02*
Y1164000D01*
X1008000Y864000D02*
X1014000D01*
X1001000Y803000D02*
X1008000Y810000D01*
Y816000D01*
X870000Y1109000D02*
X897000D01*
X927000Y1091000D02*
X936000Y1100000D01*
X921000Y1111000D02*
Y1120000D01*
X852000Y1109000D02*
X861000D01*
Y1092000D02*
X870000D01*
X716920Y875920D02*
X723000D01*
X715000Y874000D02*
X716920Y875920D01*
X747000Y882000D02*
X751920Y877080D01*
X686000Y809080D02*
X695000Y818080D01*
X675000Y809080D02*
X688000Y822080D01*
X695000Y818080D02*
Y830000D01*
X688000Y822080D02*
Y830000D01*
X707000Y861580D02*
Y866000D01*
X603000Y856000D02*
Y865000D01*
X642080Y903000D02*
X648080Y897000D01*
X662000D01*
X652000Y890000D02*
X654000Y888000D01*
X683000Y834000D02*
Y839920D01*
X698995Y834005D02*
Y840000D01*
X1034000Y700974D02*
Y806000D01*
Y700974D02*
X1043973Y691000D01*
X1005080Y723000D02*
X1005160Y722920D01*
X675000Y866000D02*
X680920D01*
X799000Y1048000D02*
Y1061000D01*
Y1073000D02*
Y1085000D01*
X504000Y790000D02*
Y795000D01*
X763000Y898000D02*
X763000Y898000D01*
X872800Y863830D02*
X875080Y861550D01*
X872796Y877550D02*
X879670Y870676D01*
X564000Y973000D02*
X577000Y986000D01*
X572100Y963100D02*
X577000Y968000D01*
X586000Y986000D02*
X595000D01*
X586000Y968000D02*
X595000D01*
X589000Y1163000D02*
X599000Y1153000D01*
X584000Y1151000D02*
X595000D01*
X580000Y1080000D02*
X589000Y1071000D01*
X561000Y1080000D02*
X580000D01*
X738999Y945998D02*
Y1066998D01*
X731000Y946000D02*
Y1008997D01*
X735000Y950000D02*
Y1063000D01*
X421000Y688000D02*
Y697000D01*
X399000Y688000D02*
Y697000D01*
X470000Y688000D02*
Y697000D01*
X446000Y688000D02*
Y697000D01*
X864720Y893630D02*
X864800Y893550D01*
X857900Y781770D02*
X858116Y781554D01*
X856810Y815750D02*
X859006Y813554D01*
X864796D01*
X856810Y805590D02*
X856846Y805554D01*
X864796D01*
X939446Y778900D02*
X944320D01*
X936796Y781550D02*
X939446Y778900D01*
X937286Y789060D02*
X944320D01*
X700080Y874000D02*
X707000D01*
X709080Y890000D02*
X715000D01*
Y882000D02*
X718080Y885080D01*
X699000Y906000D02*
Y913920D01*
X715000Y898000D02*
X717080Y895920D01*
X747000Y922000D02*
X747000Y922000D01*
X722999Y849998D02*
X723000Y849997D01*
X691000Y906000D02*
Y911920D01*
X742080Y870917D02*
X746998Y865998D01*
X739000Y898000D02*
X741160Y895840D01*
X699000Y930000D02*
X699080Y930080D01*
X714920Y849920D02*
X715000Y850000D01*
X739000Y925080D02*
Y930000D01*
X683000Y850080D02*
X690920D01*
X730920Y857920D02*
X730999Y857998D01*
X762999Y851081D02*
Y857998D01*
Y865999D01*
X763000Y866000D01*
X762920Y898080D02*
X763000Y898000D01*
X706816Y874184D02*
X707000Y874000D01*
X699000Y913920D02*
X699080Y914000D01*
X741080Y850000D02*
X747000D01*
X738920Y914000D02*
X739000Y913920D01*
X715000Y922000D02*
X721080Y915920D01*
X751920Y885080D02*
X755000Y882000D01*
X723000Y843080D02*
Y849997D01*
X689920Y880920D02*
X691000Y882000D01*
X715000Y850000D02*
X720840Y855840D01*
X690920Y850080D02*
X691000Y850000D01*
X731920Y873080D02*
X739000Y866000D01*
X450000Y749000D02*
X470000Y729000D01*
X450000Y749000D02*
Y753000D01*
X510000Y801000D02*
X514000Y805000D01*
X660000Y787000D02*
Y819000D01*
X645000Y772000D02*
X660000Y787000D01*
X656250Y878250D02*
X662750D01*
X428000Y809000D02*
Y818000D01*
X436000Y707000D02*
Y812000D01*
Y707000D02*
X446000Y697000D01*
X436000Y812000D02*
X448000Y824000D01*
X466000Y809000D02*
X477000Y798000D01*
X494000Y815000D02*
Y838000D01*
X633000Y1154000D02*
X639000Y1148000D01*
X652000D01*
X657000Y1153000D01*
X634000Y1170000D02*
Y1174000D01*
X470000Y715000D02*
Y729000D01*
X491000Y1073000D02*
Y1082000D01*
X493000Y1049000D02*
X502000D01*
X509000Y1076000D02*
X516000Y1069000D01*
X509000Y1076000D02*
Y1082000D01*
X514000Y1067000D02*
X516000Y1069000D01*
X502000Y1067000D02*
X514000D01*
X533000Y1069000D02*
X535000Y1067000D01*
X516000Y1069000D02*
X533000D01*
X570000Y1006000D02*
X584000Y1020000D01*
X559000Y1009000D02*
X569000D01*
Y1007000D02*
X570000Y1006000D01*
X559000Y1020600D02*
X566600D01*
X570000Y1024000D01*
X552400Y1020600D02*
X559000D01*
X580000Y1092000D02*
X584000Y1088000D01*
X550000Y1092000D02*
X580000D01*
X294500Y961500D02*
X303000Y970000D01*
X341000Y946000D02*
X349000Y954000D01*
X339000Y946000D02*
X341000D01*
X276000Y961500D02*
X294500D01*
X632000Y1241500D02*
Y1250500D01*
X633434Y1319907D02*
Y1328907D01*
Y1295434D02*
Y1310907D01*
X634000Y1174000D02*
X647000Y1187000D01*
Y1191000D01*
X657000Y1153000D02*
Y1167000D01*
X651000Y1173000D02*
X657000Y1167000D01*
X647000Y1173000D02*
X651000D01*
X661000Y1132000D02*
Y1149000D01*
X667000Y1155000D01*
X710000Y1140000D02*
X726000D01*
X710000D02*
X710000Y1140000D01*
X707700Y1142300D02*
X710000Y1140000D01*
X598100Y1089000D02*
X623100Y1114000D01*
X710000Y1158000D02*
X726000D01*
X726000Y1158000D01*
X589000Y1089000D02*
X598100D01*
X603000Y1084100D01*
X323000Y1090000D02*
X335000D01*
X276000Y1043000D02*
X323000Y1090000D01*
X276000Y981000D02*
Y1043000D01*
Y968000D02*
X284000D01*
X286000Y970000D01*
X276000Y955000D02*
X279000D01*
X364000Y1009000D02*
X373000D01*
X395226Y1109100D02*
X412000Y1125874D01*
X348700Y1042300D02*
X364000Y1027000D01*
X348000Y1042300D02*
X348700D01*
X301000Y1103000D02*
Y1114000D01*
X429000Y1052000D02*
Y1063000D01*
X367000Y1182000D02*
X376000D01*
X412000Y1125874D02*
Y1184000D01*
X301000Y1085000D02*
Y1094000D01*
X429000Y1034000D02*
Y1043000D01*
X335000Y1032900D02*
X337000Y1030900D01*
X373000Y1110000D02*
X382000Y1101000D01*
X367000Y1110000D02*
X373000D01*
X394000Y1146000D02*
Y1155000D01*
X350000Y1329000D02*
Y1338000D01*
X367000Y1200000D02*
Y1209000D01*
X412000Y1202000D02*
Y1228000D01*
X394000Y1246000D02*
X412000Y1228000D01*
X409000Y1284000D02*
Y1293000D01*
X352000Y1237000D02*
Y1246000D01*
X396000Y1320000D02*
X429000D01*
X437500Y1275000D02*
X437500Y1275000D01*
X323500Y1211500D02*
X335000Y1223000D01*
Y1257000D01*
X353000Y1275000D01*
X367000D01*
X394000Y1246000D02*
Y1266000D01*
X367000Y1293000D02*
X394000Y1266000D01*
X323500Y1275000D02*
X339000Y1290500D01*
Y1309000D01*
X350000Y1320000D01*
X396000Y1338000D02*
X396000Y1338000D01*
X350000Y1338000D02*
X396000D01*
X386900Y1101000D02*
X395000Y1109100D01*
X382000Y1101000D02*
X386900D01*
X393000Y1093100D02*
X395000Y1091100D01*
X393000Y1069000D02*
X395000Y1071000D01*
X472000Y1290000D02*
X475000D01*
X463000Y1299000D02*
X472000Y1290000D01*
X463000Y1267000D02*
X471000Y1259000D01*
X515000Y1239000D02*
Y1248000D01*
X577000Y1294000D02*
X583000D01*
X489500Y1340000D02*
X515000D01*
X488000Y1338500D02*
X489500Y1340000D01*
X534000Y1276000D02*
X541000D01*
X561000Y1296000D01*
Y1322000D01*
X534000Y1294000D02*
X543000D01*
X577000Y1203000D02*
Y1212000D01*
X506000Y1230000D02*
X515000D01*
X487500Y1184000D02*
X533000D01*
X482500Y1179000D02*
X487500Y1184000D01*
X527000Y1135000D02*
Y1144000D01*
X563000Y1135000D02*
Y1144000D01*
X578000Y1202000D02*
X589000Y1191000D01*
Y1163000D02*
Y1191000D01*
X558000Y1222000D02*
X562000Y1226000D01*
X554000Y1222000D02*
X558000D01*
X563000Y1153000D02*
Y1163000D01*
X490000Y1153000D02*
X509000Y1172000D01*
X564000D01*
X342000Y1155000D02*
X351000D01*
X490000Y1144000D02*
Y1153000D01*
X392000Y1033000D02*
X394000D01*
X357484Y997000D02*
X376000D01*
X394000Y1015000D01*
X751920Y874000D02*
Y877080D01*
X667000Y922000D02*
X667080Y922080D01*
X691000Y858000D02*
X691080Y858080D01*
X689920Y874000D02*
Y880920D01*
X394000Y1128000D02*
Y1137000D01*
X511000Y706000D02*
Y715000D01*
X593000Y706000D02*
Y715000D01*
X609000Y706000D02*
Y715000D01*
X527000Y706000D02*
Y715000D01*
X673000Y1314000D02*
Y1323000D01*
X353000Y1084000D02*
X368000Y1069000D01*
Y1043000D02*
Y1069000D01*
X490500Y1214000D02*
X571000D01*
X577000Y1220000D01*
Y1276000D01*
X471000Y1259000D02*
X536000D01*
X551000Y1244000D01*
X562000Y1233000D01*
X700000Y1310000D02*
Y1319000D01*
X691000Y1328000D02*
X700000D01*
X716000Y1322000D02*
X725000D01*
Y1304000D02*
Y1313000D01*
X578000Y1184000D02*
Y1193000D01*
X533000Y1202000D02*
X558000D01*
X576000Y1184000D01*
X576000D01*
X564000Y1172000D02*
X576000Y1184000D01*
X697000Y1288000D02*
X706000D01*
X715000D02*
X724000D01*
X656000Y1053000D02*
X664000Y1045000D01*
X668000Y1085000D02*
X670000Y1083000D01*
X680000Y1086000D02*
X689000D01*
X663000Y1020000D02*
X670000Y1027000D01*
X584000Y1020000D02*
X663000D01*
X625000Y1071700D02*
Y1085000D01*
X612000Y1058700D02*
X625000Y1071700D01*
X667000Y1155000D02*
X670000Y1158000D01*
X710000D01*
X662750Y1171950D02*
Y1183750D01*
Y1171950D02*
X667000Y1167700D01*
X647000Y1173000D02*
Y1176000D01*
X746000Y1227000D02*
Y1232000D01*
X745000Y1246000D02*
Y1249000D01*
X564000Y870000D02*
X564000Y870000D01*
X564000Y838000D02*
X564000Y838000D01*
X439000Y882000D02*
X473000D01*
X485000Y870000D01*
X439000Y876000D02*
X463000D01*
X485000Y854000D01*
X439000Y870000D02*
X453000D01*
X485000Y838000D01*
X439000Y864000D02*
X450000D01*
X477000Y837000D01*
Y830000D02*
Y837000D01*
Y830000D02*
X485000Y822000D01*
X656000Y1053000D02*
Y1099000D01*
X666000Y1093000D02*
X670000Y1089000D01*
Y1083000D02*
Y1089000D01*
X625000Y1085000D02*
X644000Y1104000D01*
X689000D01*
X694000Y1140000D02*
X710000D01*
X485000Y791000D02*
Y806000D01*
Y791000D02*
X486000Y790000D01*
X503000Y806000D02*
X508000Y801000D01*
X504000Y795000D02*
X510000Y801000D01*
X508000D02*
X510000D01*
X485000Y806000D02*
X494000Y815000D01*
X503000Y838000D02*
X564000D01*
X565000D01*
X503000Y822000D02*
X564000D01*
X565000D01*
X503000Y870000D02*
X564000D01*
X565000D01*
X503000Y854000D02*
X564000D01*
X565000D01*
X573000Y870000D02*
X582000D01*
X573000Y854000D02*
X582000D01*
Y789000D02*
Y798000D01*
X448000Y809000D02*
X457000D01*
X410000Y797000D02*
Y809000D01*
Y797000D02*
X422000Y785000D01*
X572100Y922400D02*
Y963100D01*
X564000Y888000D02*
Y973000D01*
X457000Y824000D02*
X466000D01*
X514000Y805000D02*
Y817000D01*
X1012000Y1148500D02*
Y1173000D01*
Y1191000D02*
Y1205000D01*
X1088000Y1123000D02*
X1090000Y1125000D01*
X1104000D01*
X1143000Y1092000D02*
Y1107000D01*
X1104000Y1125000D02*
X1112000Y1117000D01*
X1118000D01*
X1124000Y1111000D01*
X1085000Y1140000D02*
X1087000D01*
X1095000Y1132000D01*
X1120000D01*
X1125000Y1127000D01*
X1079750Y1144000D02*
X1083750Y1148000D01*
X1122000D01*
X691000Y928920D02*
X692000Y927920D01*
X541000Y1083000D02*
X550000Y1092000D01*
X726917Y926080D02*
X730999Y921998D01*
X670000Y1065000D02*
X680000Y1055000D01*
X711998Y1086002D02*
X735000Y1063000D01*
X724996Y1081000D02*
X738999Y1066998D01*
X867000Y1024000D02*
X880000D01*
X884000Y1028000D01*
X849000Y1024000D02*
X858000D01*
X880000Y1048000D02*
X884000Y1044000D01*
X867000Y1048000D02*
X880000D01*
X849000Y1048000D02*
X858000D01*
X867000Y1007000D02*
Y1024000D01*
X718998Y1020998D02*
X731000Y1008997D01*
X748000Y1035000D02*
X755920D01*
X773000Y1031000D02*
X782000D01*
X766080Y1035000D02*
X772000Y1040920D01*
X783000Y1042080D02*
Y1055000D01*
X1122000Y840000D02*
X1129000Y847000D01*
X1212000Y854000D02*
X1226000Y840000D01*
X1191000Y854000D02*
X1212000D01*
X1174000Y865000D02*
X1190000Y849000D01*
X1193000Y840000D02*
X1200000D01*
X1190000Y849000D02*
X1207000D01*
X1214000Y842000D01*
Y808000D02*
Y842000D01*
Y808000D02*
X1226000Y796000D01*
X1179000Y866000D02*
X1191000Y854000D01*
X1179000Y866000D02*
Y916000D01*
X1174000Y865000D02*
Y868000D01*
X1169000Y864000D02*
X1193000Y840000D01*
X1169000Y864000D02*
Y916000D01*
X1164000Y863000D02*
Y868000D01*
X1139000Y849000D02*
X1148000Y840000D01*
X1159000Y855000D02*
Y916000D01*
X1144000Y860000D02*
Y868000D01*
X1214000Y702973D02*
Y808000D01*
X1129000Y847000D02*
X1131000Y845000D01*
Y760000D02*
Y845000D01*
X1122000Y751000D02*
X1131000Y760000D01*
X1096000Y840000D02*
X1119000Y863000D01*
Y916000D01*
X1124000Y859000D02*
Y868000D01*
X1129000Y847000D02*
Y916000D01*
X1139000Y849000D02*
Y916000D01*
Y815000D02*
Y849000D01*
X1144000Y860000D02*
X1162000Y842000D01*
X1139000Y815000D02*
X1145000Y809000D01*
X1151000D01*
X1157000Y803000D01*
Y760000D02*
Y803000D01*
X1148000Y751000D02*
X1157000Y760000D01*
X1135000Y809000D02*
Y867000D01*
X1134000Y868000D02*
X1135000Y867000D01*
X1191000Y805000D02*
Y836000D01*
X1164000Y863000D02*
X1191000Y836000D01*
Y805000D02*
X1200000Y796000D01*
X1191000Y699973D02*
Y805000D01*
X1226000Y840000D02*
X1237000Y829000D01*
Y762000D02*
Y829000D01*
X1226000Y751000D02*
X1237000Y762000D01*
X1200000Y840000D02*
X1209000Y831000D01*
Y760000D02*
Y831000D01*
X1200000Y751000D02*
X1209000Y760000D01*
X1162000Y808000D02*
Y842000D01*
X1172000Y839000D02*
X1185000Y826000D01*
Y762000D02*
Y826000D01*
X1174000Y751000D02*
X1185000Y762000D01*
X1112000Y701000D02*
Y806000D01*
X1122000Y796000D01*
X1112000Y806000D02*
Y847000D01*
X1124000Y859000D01*
X1096000Y840000D02*
X1106000Y830000D01*
Y761000D02*
Y830000D01*
X1096000Y751000D02*
X1106000Y761000D01*
X1085000Y702000D02*
Y807000D01*
X1096000Y796000D01*
X1060000Y806000D02*
X1070000Y796000D01*
X1060000Y806000D02*
Y846000D01*
X1080000Y761027D02*
Y830000D01*
X1069973Y751000D02*
X1080000Y761027D01*
X1070500Y839500D02*
X1080000Y830000D01*
X1044000Y840000D02*
X1055000Y829000D01*
Y762000D02*
Y829000D01*
X1044000Y751000D02*
X1055000Y762000D01*
X1060000Y846000D02*
X1066000Y852000D01*
X1044000Y840000D02*
X1061000Y857000D01*
X1034000Y806000D02*
X1044000Y796000D01*
X1034000Y806000D02*
Y846000D01*
X1050000Y862000D01*
X1076050D01*
X1079000Y864950D01*
Y916000D01*
X1085000Y807000D02*
Y845000D01*
X1099000Y859000D01*
Y916000D01*
X1061000Y857000D02*
X1077000D01*
X1084000Y864000D01*
Y868000D01*
X1066000Y852000D02*
X1078000D01*
X1089000Y863000D01*
Y916000D01*
X1070000Y840000D02*
X1073000D01*
X1094000Y861000D01*
Y868000D01*
X1060000Y701072D02*
Y806000D01*
X1044000Y733000D02*
Y742000D01*
X1069973Y733000D02*
Y742000D01*
X1096000Y733000D02*
Y742000D01*
X1122000Y733000D02*
Y742000D01*
X1148000Y733000D02*
Y742000D01*
X1174000Y733000D02*
Y742000D01*
X1200000Y733000D02*
Y742000D01*
X1226000Y733000D02*
Y742000D01*
X1226000Y778000D02*
Y787000D01*
X1200000Y778000D02*
Y787000D01*
X1174000Y778000D02*
Y787000D01*
X1148000Y778000D02*
Y787000D01*
X1122000Y778000D02*
Y787000D01*
X1096000Y778000D02*
Y787000D01*
X1069974Y778000D02*
Y787000D01*
X1044000Y778000D02*
Y787000D01*
X1226000Y822000D02*
Y831000D01*
X1200000Y822000D02*
Y831000D01*
X1122000Y822000D02*
Y831000D01*
X1096000Y822000D02*
Y831000D01*
X1069974Y822000D02*
Y831000D01*
X1044000Y822000D02*
Y831000D01*
X1172000Y821000D02*
Y830000D01*
X1214000Y702973D02*
X1225974Y691000D01*
X1191000Y699973D02*
X1199973Y691000D01*
X1112000Y701000D02*
X1122000Y691000D01*
X1085000Y702000D02*
X1096000Y691000D01*
X1060000Y701072D02*
X1070000Y691072D01*
X1225974Y709000D02*
Y721973D01*
X747000Y819000D02*
X755000Y811000D01*
X763000Y914000D02*
Y920920D01*
X838000Y1018000D02*
X849000Y1007000D01*
X838000Y1018000D02*
Y1024000D01*
X747000Y850000D02*
X751920D01*
X753000Y821000D02*
X759570Y814430D01*
Y808070D02*
Y814430D01*
X755500Y804000D02*
X759570Y808070D01*
X675000Y898000D02*
X680920D01*
X755500Y792580D02*
Y804000D01*
X755000Y792080D02*
X755500Y792580D01*
X676080Y906000D02*
X683000D01*
X755000Y1061000D02*
X755000Y1061000D01*
X768000D01*
X755000Y1085000D02*
X758000D01*
X755920Y1035000D02*
X774000Y1053080D01*
Y1069000D01*
X758000Y1085000D02*
X774000Y1069000D01*
X591000Y1138000D02*
X595000Y1134000D01*
X584000Y1138000D02*
X591000D01*
X1031000Y1159250D02*
Y1173000D01*
X1148000Y822000D02*
Y831000D01*
X1029000Y862000D02*
Y868000D01*
X1015000Y848000D02*
X1029000Y862000D01*
X1008000Y848000D02*
X1015000D01*
X1014000Y864000D02*
X1019000Y859000D01*
X1114000Y1066000D02*
X1125000Y1077000D01*
X1100000Y1086000D02*
X1109000D01*
X1183973Y719000D02*
Y725974D01*
X1157973Y719000D02*
Y725974D01*
X1132000Y719000D02*
Y725974D01*
X1106000Y719000D02*
Y725974D01*
X1080000Y719072D02*
Y726046D01*
X1053973Y719000D02*
Y725974D01*
X1043973Y709000D02*
X1053973Y719000D01*
X1070000Y709072D02*
X1080000Y719072D01*
X1096000Y709000D02*
X1106000Y719000D01*
X1122000Y709000D02*
X1132000Y719000D01*
X1164000Y700973D02*
X1173973Y691000D01*
X1164000Y700973D02*
Y806000D01*
X1162000Y808000D02*
X1164000Y806000D01*
X1174000Y796000D01*
X1147973Y709000D02*
X1157973Y719000D01*
X1173973Y709000D02*
X1183973Y719000D01*
X637000Y732000D02*
X667000Y702000D01*
X637000Y732000D02*
Y785000D01*
X662750Y878250D02*
X667000Y874000D01*
X641000Y890000D02*
X642080D01*
X652000D01*
X644000Y880000D02*
X649000Y885000D01*
X642080Y880000D02*
X644000D01*
X463000Y1280000D02*
X480750D01*
X485750Y1275000D01*
X515000Y1304250D01*
Y1322000D01*
X463000Y1232750D02*
Y1248000D01*
X624500Y1286500D02*
X633434Y1295434D01*
X632000Y1180000D02*
Y1232500D01*
X643000Y1243500D01*
X624500Y1272750D02*
Y1286500D01*
Y1272750D02*
X643000Y1254250D01*
Y1243500D02*
Y1254250D01*
X662750Y1183750D02*
X676750Y1197750D01*
Y1301250D01*
X673000Y1305000D02*
X676750Y1301250D01*
X647000Y1176000D02*
X667750Y1196750D01*
Y1232750D01*
X647000Y1191000D02*
Y1232750D01*
X667250Y1253000D01*
X670000D01*
X1083000Y1169000D02*
X1090000D01*
X1093000Y1079000D02*
X1099000D01*
X1105000Y1073000D01*
X1194000Y888000D02*
X1214000Y868000D01*
X1105000Y1041000D02*
Y1073000D01*
Y1041000D02*
X1194000Y952000D01*
Y888000D02*
Y952000D01*
X755000Y773000D02*
Y781920D01*
X523000Y1276000D02*
X532000D01*
X747000Y914000D02*
X751920Y909080D01*
X429000Y1094000D02*
Y1103000D01*
X367000Y1093100D02*
X382000D01*
X393000D01*
X338484Y978000D02*
X357484Y997000D01*
X429000Y1085000D02*
X431000Y1083000D01*
Y1070000D02*
Y1083000D01*
X368000Y1043000D02*
X381000Y1030000D01*
Y1022000D02*
Y1030000D01*
X351000Y1137000D02*
X353000Y1135000D01*
Y1084000D02*
Y1135000D01*
X343100Y1101000D02*
X348000D01*
X305000Y1289000D02*
X310000D01*
X298000Y1282000D02*
X305000Y1289000D01*
X298000Y1219000D02*
X305000Y1226000D01*
X310000D01*
X545000Y809000D02*
X567000D01*
X573000Y815000D01*
Y829000D01*
X582000Y838000D01*
X524000Y788000D02*
X545000Y809000D01*
X523000Y788000D02*
X524000D01*
X691000Y926920D02*
X692000Y927920D01*
X730920Y850000D02*
Y857920D01*
X660000Y819000D02*
X674999Y833999D01*
X747000Y819000D02*
Y824920D01*
X718080Y885080D02*
X723000D01*
X717080Y895920D02*
X723000D01*
X721080Y915920D02*
X723000D01*
X731000Y914000D02*
X738920D01*
X884750Y825750D02*
X895250Y815250D01*
Y812250D02*
Y815250D01*
X582000Y838000D02*
X594000D01*
X943960Y853550D02*
X944130Y853380D01*
X582000Y822000D02*
X591000D01*
X699000Y850080D02*
Y850330D01*
Y858000D01*
X723000Y826000D02*
Y832670D01*
Y833250D01*
X747000Y835080D02*
Y835330D01*
Y842000D01*
X667000Y938000D02*
X667000Y938000D01*
X691000Y922000D02*
Y926920D01*
X683000Y922000D02*
Y928920D01*
X658999Y905998D02*
X663922D01*
X652480Y914000D02*
X654570Y911910D01*
X658800Y913900D02*
X664420D01*
X707000Y914000D02*
Y919920D01*
X659080Y938000D02*
X660580D01*
X667000D01*
X648250Y929750D02*
X656750D01*
X671000Y942000D02*
X675000Y938000D01*
X671000Y942000D02*
Y945920D01*
X682999Y939081D02*
Y945998D01*
X722000Y957080D02*
Y964000D01*
X651949Y980873D02*
X663000Y991924D01*
X676127Y976169D02*
X687919D01*
X788500Y791920D02*
X794330D01*
X794500Y791750D01*
X769000Y802000D02*
X772000Y805000D01*
Y813920D01*
X716987Y779563D02*
X731187D01*
X929000Y1047080D02*
Y1053625D01*
Y1060170D01*
Y1029250D02*
X938170D01*
X938170Y1029250D01*
X929000Y1070330D02*
X935420D01*
X918170Y1020750D02*
Y1026920D01*
X948330Y1029250D02*
X954500D01*
X928330Y1020750D02*
X934875D01*
X941420D01*
X982419Y1028123D02*
Y1039919D01*
X1000199Y1028123D02*
X1000322Y1028000D01*
X1010250D01*
X936800Y909550D02*
Y912220D01*
X940580Y916000D01*
X951580Y1020750D02*
X958000D01*
X915080Y1036920D02*
X929000D01*
X915000Y1037000D02*
X915080Y1036920D01*
X936800Y885550D02*
X937190Y885940D01*
X594000Y838250D02*
X594125Y838125D01*
X594000Y838000D02*
X594125Y838125D01*
X603000Y847000D01*
X752250Y752750D02*
X761000D01*
X755000Y773000D02*
X757000Y771000D01*
X764250Y796000D02*
Y809000D01*
X766750Y775500D02*
Y783750D01*
X783000Y807580D02*
X788500Y802080D01*
X783000Y807580D02*
Y808000D01*
X1135000Y809000D02*
X1148000Y796000D01*
X1135000Y728984D02*
X1136250Y727734D01*
X1135000Y728984D02*
Y809000D01*
X1136250Y702723D02*
X1147973Y691000D01*
X1136250Y702723D02*
Y727734D01*
X781538Y783712D02*
Y801462D01*
Y783712D02*
X790000Y775250D01*
X352000Y1228000D02*
X394000D01*
X480000Y1137000D02*
X490000D01*
X409000Y1275000D02*
X437500D01*
X429000Y1320000D02*
X443000Y1306000D01*
X561000Y1340000D02*
X600500D01*
X583000Y1294000D02*
X602000Y1275000D01*
X600500Y1340000D02*
X602000Y1338500D01*
X548000Y1025000D02*
X552400Y1020600D01*
X548000Y1009000D02*
X559000D01*
X858250Y1081000D02*
X884000D01*
X743000Y978250D02*
X836500Y1071750D01*
X849000D01*
X858250Y1081000D01*
X591000Y822250D02*
X600000Y813250D01*
X304750Y1032900D02*
X335000D01*
Y1109100D02*
X343100Y1101000D01*
X335000Y1014900D02*
X339900D01*
X348000Y1023000D01*
X304000Y1014900D02*
X335000D01*
X339600Y1033500D02*
X349250D01*
X337000Y1030900D02*
X339600Y1033500D01*
X676080Y858000D02*
X683000D01*
X708500Y849920D02*
X714920D01*
X720840Y855840D02*
X723000D01*
X675080Y914000D02*
Y921920D01*
X1202973Y709000D02*
Y721973D01*
X763000Y920920D02*
X764080Y922000D01*
X1123050Y1062800D02*
X1132300D01*
D49*
X826250Y1015250D02*
Y1026000D01*
X823000Y1016670D02*
Y1026000D01*
X955000Y853750D02*
X961750D01*
X788208Y989551D02*
X816000Y1017343D01*
X783753Y989173D02*
X813117Y1018537D01*
X780022Y989551D02*
X812000Y1021530D01*
X800458Y989458D02*
X826250Y1015250D01*
X792958Y989551D02*
X819500Y1016093D01*
X459000Y1069000D02*
X473000D01*
X312000Y985000D02*
X327000Y970000D01*
X667000Y922000D02*
Y934000D01*
X955330Y875250D02*
X962500D01*
X954580Y896750D02*
X961500D01*
X993000Y1081000D02*
X995000Y1079000D01*
X928796Y841796D02*
X933750Y846750D01*
X928796Y837728D02*
Y841796D01*
X928800Y829550D02*
X934660Y835410D01*
X940426Y801920D02*
X944500D01*
X936796Y805550D02*
X940426Y801920D01*
X928796Y813550D02*
X934592Y819346D01*
X930750Y819500D02*
X939750D01*
X944500Y812080D02*
Y814750D01*
X939750Y819500D02*
X944500Y814750D01*
X928796Y813550D02*
Y821454D01*
X930750Y819500D01*
X911250Y827250D02*
X916670D01*
X901300Y837200D02*
X911250Y827250D01*
X901300Y837200D02*
Y840800D01*
X870350Y847750D02*
X881000D01*
X864550Y853550D02*
X864620Y853480D01*
X881000Y847750D02*
X884500Y851250D01*
X923000Y827250D02*
X928796Y821454D01*
X911250Y821830D02*
X916670Y827250D01*
X923000D01*
X901300Y840800D02*
Y843200D01*
X893250Y851250D02*
X901300Y843200D01*
X884500Y851250D02*
X893250D01*
X813117Y1018537D02*
Y1025500D01*
X816000Y1017343D02*
Y1025500D01*
X819500Y1016093D02*
Y1024250D01*
X830000Y1015000D02*
Y1026000D01*
X812000D02*
X821000D01*
X811830D02*
X812000D01*
X750000Y734000D02*
X786000Y698000D01*
X720000Y734000D02*
X750000D01*
X786000Y698000D02*
X907000D01*
X977000Y768000D01*
X915000Y1065000D02*
Y1080000D01*
X955250Y885500D02*
X962000D01*
X560000Y688000D02*
Y697000D01*
X609000Y688000D02*
Y697000D01*
X593000Y688000D02*
Y697000D01*
X527000Y688000D02*
Y697000D01*
X511000Y688000D02*
Y697000D01*
X936800Y853550D02*
X943960D01*
X488000Y1060000D02*
X489000D01*
X582000Y1116000D02*
X602000D01*
X615000Y1129000D01*
Y1140000D01*
X479000Y1051000D02*
X488000Y1060000D01*
X306000Y953000D02*
X306000Y953000D01*
X820696Y1174500D02*
X830696D01*
X820696Y1187500D02*
X830696D01*
X844000Y1174500D02*
X854000D01*
X857000Y1181000D02*
X865000D01*
X337000Y969000D02*
Y969484D01*
X349000Y969000D02*
X350000Y968000D01*
X337000Y969000D02*
X349000D01*
X399000Y706000D02*
Y715000D01*
X421000Y706000D02*
Y715000D01*
X544000D02*
X560000D01*
X577000D01*
X560000Y706000D02*
Y715000D01*
X577000Y697000D02*
Y706000D01*
X543000Y697000D02*
Y706000D01*
X592000Y697000D02*
X593000D01*
X373000Y972000D02*
X382000D01*
X626000Y1128000D02*
X635000D01*
X601000Y1103000D02*
X626000Y1128000D01*
X615000Y1140000D02*
X629000Y1154000D01*
X633000D01*
X381000Y921000D02*
X390000D01*
X377000Y957000D02*
X391000Y971000D01*
X385000Y955000D02*
X394000D01*
X468000Y964000D02*
Y981000D01*
X450000Y964000D02*
Y981000D01*
X433000Y964000D02*
X450000D01*
X372000Y922000D02*
X388000Y938000D01*
X391000D01*
X390000Y921000D02*
X433000Y964000D01*
X1044000Y1070000D02*
X1048000Y1074000D01*
X1044000Y1061000D02*
Y1070000D01*
X1050000Y1169000D02*
X1060000Y1179000D01*
X1050000Y1198000D02*
X1069430Y1217430D01*
X1101000D01*
X1041000Y1160000D02*
X1050000Y1169000D01*
X1041000Y1158000D02*
Y1160000D01*
X712000Y1065000D02*
Y1075000D01*
Y1047000D02*
Y1056000D01*
X915000Y1037000D02*
Y1047000D01*
X997000Y772000D02*
X1006000D01*
X663000Y993949D02*
X676127D01*
X993000Y1081000D02*
Y1112000D01*
X1059000Y1187000D02*
X1060000Y1186000D01*
X1059000Y1187000D02*
Y1187000D01*
X1050000Y1196000D02*
X1059000Y1187000D01*
X1060000Y1160000D02*
Y1186000D01*
X1058000Y1158000D02*
X1060000Y1160000D01*
X1001000Y1108000D02*
X1033000Y1076000D01*
Y1071000D02*
Y1076000D01*
X1001000Y1118000D02*
X1001000Y1108000D01*
X1064000Y1034000D02*
X1074000D01*
X1083000Y1043000D01*
Y1054000D01*
X1077000Y1074000D02*
X1079000Y1072000D01*
X1058000Y1074000D02*
X1077000D01*
X1030000Y1057000D02*
X1044000Y1043000D01*
X1030000Y1057000D02*
Y1061000D01*
X325962Y970192D02*
X326000Y970000D01*
X325962Y970192D02*
Y970192D01*
X381000Y1022000D02*
X392000Y1033000D01*
X381000Y1018000D02*
Y1022000D01*
X911250Y805250D02*
Y811670D01*
X955250Y864900D02*
X962000D01*
X667000Y934000D02*
Y938000D01*
Y938000D01*
X634169Y980873D02*
Y993081D01*
X634000Y993250D02*
X634169Y993081D01*
X941998Y1047998D02*
X944502D01*
X977000Y1015500D01*
Y768000D02*
Y1015500D01*
X804458Y989458D02*
X830000Y1015000D01*
X473000Y1051000D02*
X479000D01*
X910750Y821830D02*
Y827250D01*
X864620Y853480D02*
X870350Y847750D01*
X368000Y933000D02*
X373000Y938000D01*
X284000Y933000D02*
X368000D01*
X499000Y1103000D02*
X499250D01*
X601000D01*
X465000D02*
X481250D01*
X466250Y1116250D02*
X466500Y1116000D01*
X564000D01*
X459000Y963000D02*
X468000D01*
X776458Y990628D02*
X811830Y1026000D01*
X797708Y991378D02*
X823000Y1016670D01*
D50*
X1342000Y1321000D02*
Y1333000D01*
X1192000Y1140000D02*
Y1161000D01*
X1177750Y1164000D02*
X1184000D01*
X1175000Y1140000D02*
Y1161250D01*
X1178000Y1140000D02*
X1192000D01*
X1221000Y1140250D02*
X1221250Y1140000D01*
X1235000Y1164000D02*
X1238000Y1161000D01*
X1221000Y1161250D02*
X1223750Y1164000D01*
X1368000Y1303000D02*
X1370000Y1305000D01*
Y1320000D01*
X1342000Y1333000D02*
X1344000Y1335000D01*
X1284000Y1181000D02*
X1290000Y1187000D01*
X1258000Y1182000D02*
X1259000Y1181000D01*
X1175000Y1140000D02*
X1175000Y1140000D01*
X1175000Y1161250D02*
X1177750Y1164000D01*
X1189000D02*
X1192000Y1161000D01*
X1175000Y1140000D02*
X1178000D01*
X1143000Y1145000D02*
Y1158000D01*
Y1132000D02*
Y1145000D01*
X1069000Y1169000D02*
X1082000D01*
X961000Y1117000D02*
X977000D01*
X981000Y1113000D01*
X969000Y1095000D02*
X982000D01*
X1221250Y1140000D02*
X1238000D01*
X1221000Y1140250D02*
Y1161250D01*
X1238000Y1140000D02*
Y1161000D01*
X1258000Y1182000D02*
Y1223000D01*
X1259000Y1181000D02*
X1284000D01*
D51*
X787003Y989173D02*
X804458D01*
X773250D02*
X783753D01*
X623000Y923000D02*
X631920Y914080D01*
X427000Y890000D02*
X439000D01*
X426945Y890003D02*
X427000Y890000D01*
X412000D02*
X427000D01*
X680000Y798500D02*
X695000Y783500D01*
X677000Y799000D02*
X691000D01*
X632000Y882010D02*
Y891000D01*
X624000Y883000D02*
X632000Y891000D01*
Y879000D02*
Y882010D01*
X625000Y879000D02*
X632000D01*
X610000Y875000D02*
X632000Y897000D01*
X705000Y772000D02*
Y781390D01*
X1005080Y729000D02*
Y738920D01*
X864620Y853480D02*
X864730D01*
X858770D02*
X864620D01*
X824250Y860750D02*
X851500D01*
X819750Y865250D02*
X824250Y860750D01*
X819750Y865250D02*
Y869270D01*
X823000Y1026000D02*
X826250D01*
X821000D02*
X823000D01*
X826250D02*
X830000D01*
X692250Y762000D02*
X699000D01*
X691000D02*
X692250D01*
Y759000D02*
X698000D01*
X690000D02*
X692250D01*
X690000Y765000D02*
X695000D01*
X699000Y760000D02*
X705000Y766000D01*
X698000Y759000D02*
X699000Y760000D01*
X695000Y765000D02*
X698000D01*
X675000Y798920D02*
X690000Y783920D01*
Y765000D02*
Y783920D01*
X695000Y765000D02*
Y783500D01*
X686000Y798920D02*
X700000Y784920D01*
Y768500D02*
Y784920D01*
X698000Y765000D02*
X705000Y772000D01*
X1069000Y1158000D02*
X1083000D01*
X705000Y766000D02*
Y772000D01*
Y781390D02*
Y785000D01*
Y781390D02*
X706827Y779563D01*
X994920Y713080D02*
Y723000D01*
X995013Y724514D02*
Y734434D01*
X985000Y729000D02*
X994920D01*
X1005080D02*
X1015000D01*
X1005080Y723000D02*
Y729000D01*
X1005160Y711000D02*
Y722920D01*
X573000Y1073000D02*
Y1079000D01*
X641000Y1163000D02*
X647000Y1157000D01*
X631000Y1163000D02*
X641000D01*
X503000Y909000D02*
Y917000D01*
X493000D02*
X503000D01*
X486000Y910000D02*
X493000Y917000D01*
X486000Y906000D02*
Y910000D01*
X426945Y890003D02*
X426945D01*
X409000Y909000D02*
X418000Y900000D01*
X427000Y909000D02*
X436000Y900000D01*
X418000D02*
X436000D01*
X439000D01*
X994000Y750000D02*
X1005080Y738920D01*
X631920Y903000D02*
Y914080D01*
X603000Y923000D02*
X623000D01*
X690000Y759000D02*
Y765000D01*
X610000Y875000D02*
X616000D01*
X632000Y897000D02*
Y901000D01*
X451000Y922000D02*
X451000Y922000D01*
X441000Y922000D02*
X451000D01*
X439000Y920000D02*
X441000Y922000D01*
X632000Y891000D02*
Y897000D01*
X616000Y875000D02*
X624000Y883000D01*
X632000Y882010D01*
X632080Y882000D01*
Y871000D02*
Y878000D01*
X610000Y875000D02*
X615000Y870000D01*
X616000D02*
X625000Y879000D01*
X615000Y870000D02*
X616000D01*
X691000Y799000D02*
X705000Y785000D01*
X851500Y860750D02*
X858770Y853480D01*
X451000Y922000D02*
X470000D01*
D52*
X924045Y865300D02*
X944920D01*
X762080Y847080D02*
Y850000D01*
X778550Y973750D02*
X783813Y979013D01*
X775300Y973750D02*
X778550D01*
X804250Y972250D02*
Y978920D01*
X786330Y971000D02*
X794250Y978920D01*
X705500Y854000D02*
X711000D01*
X704000Y852500D02*
X705500Y854000D01*
X704000Y847000D02*
Y852500D01*
X702000Y845000D02*
X704000Y847000D01*
X696000Y845000D02*
X702000D01*
X920799Y861549D02*
Y862055D01*
X924045Y865300D01*
X810350Y869900D02*
X819620D01*
X802250Y878000D02*
X810350Y869900D01*
X775160Y878000D02*
X802250D01*
X820250Y869270D02*
X820300Y869220D01*
X819620Y869900D02*
X820250Y869270D01*
X804250Y894000D02*
X808125Y890125D01*
X804000Y886000D02*
X808125Y890125D01*
X797750Y886000D02*
X804000D01*
X793750Y890000D02*
X797750Y886000D01*
Y894000D02*
X804250D01*
X793750Y890000D02*
X797750Y894000D01*
X790500Y1174500D02*
X820696D01*
X701000Y1085000D02*
X790500Y1174500D01*
X667000Y1003000D02*
X701000Y1037000D01*
Y1085000D01*
X687000Y831000D02*
X688000Y830000D01*
X695000D02*
Y844000D01*
X696000Y845000D01*
X687000Y831000D02*
Y844000D01*
X689000Y846000D01*
X693000D01*
X695000Y848000D01*
X711000Y854000D02*
X715000Y858000D01*
X695000Y848000D02*
Y860000D01*
X699000Y864000D01*
Y866000D01*
X654000Y888000D02*
X656000Y886000D01*
X676480D02*
X679000Y883480D01*
Y878000D02*
Y883480D01*
Y878000D02*
X683000Y874000D01*
X656000Y886000D02*
X676480D01*
X662000Y897000D02*
X665000Y894000D01*
X778000Y971000D02*
X786330D01*
X758997Y951997D02*
X778000Y971000D01*
X792000Y960000D02*
X804250Y972250D01*
X771000Y960000D02*
X792000D01*
X766999Y955999D02*
X771000Y960000D01*
X763000Y930000D02*
X766999Y933998D01*
Y955999D01*
X754998Y929998D02*
X758997Y933997D01*
Y951997D01*
X857310Y901370D02*
X858970D01*
X863040Y897300D01*
X868550D01*
X872800Y901550D01*
X731001Y937998D02*
X735000Y941997D01*
Y950000D01*
X936796Y789550D02*
X937286Y789060D01*
X731002Y817999D02*
X735000Y821997D01*
Y854000D01*
X738999Y857998D01*
X660084Y859639D02*
X666445Y866000D01*
X723000Y938000D02*
X727000Y942000D01*
X759000Y832000D02*
X761000Y830000D01*
X766080D01*
X772000Y824080D01*
X727000Y934000D02*
X731000Y930000D01*
X721000Y934000D02*
X727000D01*
X719000Y936000D02*
X721000Y934000D01*
X719000Y941920D02*
X722000Y944920D01*
X755000Y858000D02*
X758000Y855000D01*
Y848000D02*
Y855000D01*
X759000Y832000D02*
Y844000D01*
X762080Y847080D01*
X756000Y846000D02*
X758000Y848000D01*
X753000Y846000D02*
X756000D01*
X751000Y844000D02*
X753000Y846000D01*
X751000Y823000D02*
Y844000D01*
Y823000D02*
X753000Y821000D01*
X687000Y893997D02*
X690999Y889998D01*
X679000Y890000D02*
X683000D01*
X678750Y890250D02*
Y891553D01*
Y890250D02*
X679000Y890000D01*
X676303Y894000D02*
X678750Y891553D01*
X665000Y894000D02*
X676303D01*
X687000Y893997D02*
Y908000D01*
X685000Y910000D02*
X687000Y908000D01*
X656480Y910000D02*
X685000D01*
X743000Y944696D02*
Y950000D01*
X739001Y940698D02*
X743000Y944696D01*
X739001Y937998D02*
Y940698D01*
X747000Y930000D02*
X751000Y934000D01*
Y940000D01*
X755000Y944000D01*
Y953450D01*
X667000Y934000D02*
X667000D01*
X666445Y866000D02*
X667000D01*
X654997Y894000D02*
X658997Y890000D01*
X642000Y894000D02*
X654997D01*
X637000Y899000D02*
X642000Y894000D01*
X637000Y899000D02*
Y949000D01*
X643000Y955000D01*
X872796Y829554D02*
X876600Y825750D01*
X872796Y829554D02*
X876992Y833750D01*
X884750D01*
X876600Y825750D02*
X884750D01*
X654570Y911910D02*
X656480Y910000D01*
X709250Y952170D02*
X711000Y950420D01*
X727000Y942000D02*
Y967000D01*
X711000Y942000D02*
Y950420D01*
X719000Y936000D02*
Y941920D01*
X711000Y942000D02*
X715000Y938000D01*
X693080Y951750D02*
X695080Y949750D01*
X703000Y941997D02*
X706999Y937998D01*
X701250Y949750D02*
X703000Y948000D01*
X695080Y949750D02*
X701250D01*
X703000Y941997D02*
Y948000D01*
X643000Y955000D02*
Y990750D01*
X655250Y1003000D01*
X667000D01*
X663000Y991924D02*
Y993949D01*
X764250Y796000D02*
X766750Y793500D01*
X755000Y953450D02*
X775300Y973750D01*
X771080Y882080D02*
X775160Y878000D01*
D53*
X898750Y868000D02*
X911250D01*
X893177Y873572D02*
X898750Y868000D01*
X893177Y873572D02*
Y879836D01*
X872796Y789554D02*
X876794Y793552D01*
X908250Y762500D02*
X924798Y779048D01*
X836531Y762500D02*
X908250D01*
X786920Y812111D02*
X836531Y762500D01*
X923974Y888724D02*
X928800Y893550D01*
X832217Y908033D02*
X836000Y904250D01*
X828304Y903446D02*
X831500Y900250D01*
X908500Y885750D02*
X911474Y888724D01*
X908500Y879750D02*
Y885750D01*
X906250Y877500D02*
X908500Y879750D01*
X893176Y893074D02*
X900750Y885500D01*
Y879750D02*
Y885500D01*
Y879750D02*
X903000Y877500D01*
X893176Y893074D02*
Y911074D01*
X879966Y924284D02*
X893176Y911074D01*
X823326Y924284D02*
X879966D01*
X818247Y901997D02*
Y919204D01*
X814240Y897990D02*
X818247Y901997D01*
X804277Y897990D02*
X814240D01*
X830500Y803500D02*
X835750Y808750D01*
X830500Y788500D02*
Y803500D01*
X835750Y808750D02*
X839750D01*
X916038Y872787D02*
Y876280D01*
X911250Y868000D02*
X916038Y872787D01*
X839750Y808750D02*
X846750Y815750D01*
X839750Y831250D02*
X846750Y824250D01*
Y815750D02*
Y824250D01*
X818591Y831250D02*
X839750D01*
X776998Y842002D02*
X786920Y832080D01*
X847000Y802500D02*
X852000Y797500D01*
X842750Y802500D02*
X847000D01*
X837300Y797050D02*
X842750Y802500D01*
X857819Y797500D02*
X861872Y801553D01*
X852000Y797500D02*
X857819D01*
X889370Y795370D02*
Y799630D01*
X887552Y793552D02*
X889370Y795370D01*
X876794Y793552D02*
X887552D01*
X887447Y801553D02*
X889370Y799630D01*
X861872Y801553D02*
X887447D01*
X889367Y888727D02*
X897000Y881094D01*
Y875750D02*
Y881094D01*
Y875750D02*
X901250Y871500D01*
X911474Y888724D02*
X923974D01*
X903000Y877500D02*
X906250D01*
X920800Y909550D02*
Y925200D01*
X910923Y935077D02*
X920800Y925200D01*
X811263Y935077D02*
X910923D01*
X790250Y906250D02*
X795250Y901250D01*
Y898250D02*
Y901250D01*
X793000Y896000D02*
X795250Y898250D01*
X790250Y906250D02*
Y914064D01*
X789250Y896000D02*
X793000D01*
X783254Y901996D02*
X789250Y896000D01*
X924797Y905553D02*
X928800Y901550D01*
X790250Y914064D02*
X811263Y935077D01*
X908250Y871500D02*
X912226Y875477D01*
X901250Y871500D02*
X908250D01*
X912226Y875477D02*
Y883647D01*
X823250Y908000D02*
X824804Y909554D01*
X823250Y905250D02*
Y908000D01*
Y905250D02*
X825054Y903446D01*
X824804Y909554D02*
X827138D01*
X836000Y902000D02*
Y904250D01*
X832217Y908033D02*
Y912217D01*
X834250Y900250D02*
X836000Y902000D01*
X831500Y900250D02*
X834250D01*
X825054Y903446D02*
X828304D01*
X832217Y912217D02*
X836000Y916000D01*
X876644Y785474D02*
X893874D01*
X898800Y790400D01*
X928800Y869550D02*
X932798Y873548D01*
X818247Y919204D02*
X823326Y924284D01*
X912226Y883647D02*
X913496Y884917D01*
X921559D01*
X924927Y881549D01*
X775007Y901996D02*
X783254D01*
X885557Y887456D02*
X893177Y879836D01*
X916038Y876280D02*
X917308Y877550D01*
X920800D01*
X932798Y873548D02*
Y879585D01*
X930835Y881549D02*
X932798Y879585D01*
X924927Y881549D02*
X930835D01*
X924797Y905553D02*
Y935953D01*
X921500Y939250D02*
X924797Y935953D01*
X775006Y909998D02*
X781102D01*
X810353Y939250D01*
X825750Y786000D02*
Y817500D01*
X808500Y834750D02*
X825750Y817500D01*
X808500Y834750D02*
Y861780D01*
X804280Y866000D02*
X808500Y861780D01*
X825750Y786000D02*
X839000Y772750D01*
X894996D01*
X911800Y789554D01*
X804280Y829050D02*
Y832733D01*
X779007Y858006D02*
X804280Y832733D01*
X801825Y874010D02*
X812500Y863335D01*
Y837341D02*
X818591Y831250D01*
X812500Y837341D02*
Y863335D01*
X889367Y888727D02*
Y903967D01*
X885557Y887456D02*
Y902696D01*
X836000Y916000D02*
X872253D01*
X874127Y919207D02*
X889367Y903967D01*
X872253Y916000D02*
X885557Y902696D01*
X810353Y939250D02*
X921500D01*
X786920Y812111D02*
Y832080D01*
X875742Y776500D02*
X880796Y781554D01*
X830500Y788500D02*
X842500Y776500D01*
X875742D01*
X872440Y781270D02*
X876644Y785474D01*
X770999Y842002D02*
X776998D01*
X771003Y905995D02*
X775006Y909998D01*
X771003Y897993D02*
X775007Y901996D01*
X778998Y874010D02*
X801825D01*
X827137Y919207D02*
X874127D01*
D55*
X950500Y1274500D02*
X960000Y1284000D01*
X306000Y954000D02*
X309000Y951000D01*
X324000D02*
X325000Y952000D01*
X772000Y1216000D02*
Y1229000D01*
X881000Y1300000D02*
X980000D01*
X609000Y1048000D02*
X622000D01*
X907000Y1312000D02*
X927000D01*
X942000Y1264000D02*
X962000D01*
X843000Y1262000D02*
X881000Y1300000D01*
X980000Y1231000D02*
Y1281000D01*
X963500Y1214500D02*
X980000Y1231000D01*
X934750Y1214500D02*
X963500D01*
X573000Y1046000D02*
X581000Y1054000D01*
X573000Y1036000D02*
X585000D01*
X633000Y1143000D02*
X637000Y1139000D01*
X647000D01*
X610000Y1027000D02*
X613000Y1030000D01*
X607000Y1046000D02*
X609000Y1048000D01*
X335000Y1071000D02*
X347300D01*
X382700Y1053000D02*
X395000D01*
X335000D02*
X342000D01*
X388000Y1071000D02*
X395000D01*
X395000D01*
X671000Y1179000D02*
X677000D01*
X688000Y1168000D01*
X746000Y1253224D02*
Y1263000D01*
X740000Y1269000D02*
X746000Y1263000D01*
X707150Y1269000D02*
X740000D01*
X710950Y1209000D02*
X740000D01*
X746000Y1215000D01*
Y1224776D01*
X774000Y1248000D02*
Y1259000D01*
X752000Y1209000D02*
X765000D01*
X772000Y1216000D01*
X325000Y952000D02*
X327000D01*
X581000Y1054000D02*
X585000D01*
X689050Y1230900D02*
X710950Y1209000D01*
X689050Y1250900D02*
X707150Y1269000D01*
X746000Y1215000D02*
X752000Y1209000D01*
X752000Y1209000D01*
X740000Y1209000D02*
X752000D01*
X753000D01*
X379000Y1062000D02*
X388000Y1071000D01*
X342000Y1053000D02*
X351000Y1062000D01*
X347300Y1071000D02*
X351000Y1074700D01*
X379000Y1049300D02*
X382700Y1053000D01*
X309000Y951000D02*
X324000D01*
X613000Y1030000D02*
X622000D01*
X675000Y1149000D02*
X688000D01*
D56*
X654000Y882000D02*
X667000D01*
X1122000Y1148000D02*
X1125000Y1145000D01*
X667000Y882000D02*
X675000Y874000D01*
X1082000Y1169000D02*
X1083000D01*
X714050Y1230900D02*
X736500Y1230750D01*
X714050Y1250900D02*
X736000D01*
D57*
X1055000Y1066000D02*
X1068000D01*
X772250Y887000D02*
X776000D01*
X779000Y890000D01*
X771080Y882080D02*
X776000Y887000D01*
X771000Y882000D02*
Y890000D01*
Y890000D02*
X779000D01*
X817875Y890125D02*
X820250Y887750D01*
X808125Y890125D02*
X817875D01*
X779000Y890000D02*
X793750D01*
X1063000Y1046000D02*
X1066000D01*
X1044000Y1028000D02*
X1045000D01*
X1063000Y1046000D01*
X1008000Y1080000D02*
X1011000Y1083000D01*
X1008000Y1052000D02*
Y1080000D01*
X1002000Y1046000D02*
X1008000Y1052000D01*
X1018000Y1065000D02*
X1024000Y1071000D01*
X1032000D01*
X820250Y869270D02*
Y887750D01*
X1083000Y1158000D02*
X1086000Y1155000D01*
X1018000Y1046000D02*
Y1065000D01*
D58*
X1088000Y1116000D02*
X1098000D01*
X941000Y1134000D02*
X961000D01*
X965000Y1134000D02*
X976000D01*
X984000Y1126000D01*
X995000Y1144000D02*
X1004000Y1135000D01*
Y1121000D02*
Y1135000D01*
X1001000Y1118000D02*
X1004000Y1121000D01*
X987000Y1134000D02*
X995000Y1126000D01*
X987000Y1134000D02*
Y1155000D01*
X995000Y1163000D01*
X1098000Y1099000D02*
X1104000D01*
X1113000Y1108000D01*
X1101000Y1193000D02*
X1115000Y1179000D01*
X1124000D01*
X922250Y1167250D02*
X937750Y1151750D01*
D59*
X551250Y728000D02*
X612000Y788750D01*
X522500Y728000D02*
X551250D01*
X612000Y788750D02*
Y840750D01*
X621500Y734750D02*
Y836500D01*
X627000Y735501D02*
Y834000D01*
X609000Y715000D02*
X618500D01*
X612000Y840750D02*
X653250Y882000D01*
X616750Y838750D02*
X656250Y878250D01*
X621500Y836500D02*
X659000Y874000D01*
X627291Y735460D02*
X657250Y705501D01*
Y693500D02*
Y705501D01*
X651500Y687750D02*
X657250Y693500D01*
X645750Y687750D02*
X651500D01*
X618500Y715000D02*
X645750Y687750D01*
X621500Y734750D02*
X643250Y713000D01*
Y710000D02*
Y713000D01*
X639500Y706250D02*
X643250Y710000D01*
X635000Y706250D02*
X639500D01*
X617250Y724000D02*
X635000Y706250D01*
X627000Y834000D02*
X659000Y866000D01*
X511000Y716500D02*
X522500Y728000D01*
X529000Y718500D02*
X533750Y723250D01*
X593000Y715000D02*
X602000Y724000D01*
X617250D01*
X533750Y723250D02*
X592750D01*
X599000Y729500D01*
X614000D01*
X616750Y732250D01*
Y838750D01*
D63*
X699000Y730000D02*
X705000Y736000D01*
X692250Y752750D02*
Y759000D01*
Y762000D01*
X799650Y1287050D02*
X836650D01*
X800000Y1261650D02*
X836650D01*
X692250Y752750D02*
X699000Y746000D01*
X692250Y762000D02*
Y764250D01*
X699000Y746000D02*
Y760000D01*
X705000Y736000D02*
Y766000D01*
X699000Y738000D02*
Y746000D01*
Y730000D02*
Y738000D01*
X911000Y1225000D02*
X923000Y1237000D01*
X895000Y1209000D02*
X911000Y1225000D01*
X910000Y1240000D02*
Y1270000D01*
X878000Y1208000D02*
X910000Y1240000D01*
X878000Y1194000D02*
Y1207000D01*
X910000Y1270000D02*
X928000Y1288000D01*
X865000Y1181000D02*
X878000Y1194000D01*
X788000Y1278008D02*
X800000Y1290008D01*
X788000Y1231000D02*
Y1278008D01*
Y1231000D02*
X804500Y1214500D01*
X834750D01*
X529000Y906000D02*
X541000D01*
X553000D01*
X541000Y888000D02*
X553000D01*
X529000D02*
X541000D01*
X486000D02*
X504000D01*
X529000D01*
X455000Y903000D02*
X466000D01*
X439000Y910000D02*
X448000D01*
X481000Y888000D02*
X486000D01*
X575000Y906000D02*
X594000D01*
X575000Y888000D02*
X594000D01*
X606000D01*
X594000Y906000D02*
X606000D01*
X448000Y910000D02*
X455000Y903000D01*
X466000D02*
X481000Y888000D01*
D65*
X1009000Y831000D02*
X1034000Y856000D01*
X990000Y816000D02*
X999000D01*
X990000Y864000D02*
X999000D01*
X990000Y848000D02*
X999000D01*
X990000Y832000D02*
X999000D01*
D66*
X1365000Y1340000D02*
D03*
X1318430Y1340910D02*
D03*
X1293030Y1290110D02*
D03*
X1267630D02*
D03*
Y1340910D02*
D03*
X1318430Y1290110D02*
D03*
D67*
X315750Y1179000D02*
D03*
Y1306000D02*
D03*
Y1242500D02*
D03*
X321250Y1338500D02*
D03*
Y1275000D02*
D03*
X435250Y1211500D02*
D03*
Y1275000D02*
D03*
X321250Y1211500D02*
D03*
X435250Y1338500D02*
D03*
X440750Y1179000D02*
D03*
Y1242500D02*
D03*
Y1306000D02*
D03*
X480250Y1179000D02*
D03*
Y1306000D02*
D03*
Y1242500D02*
D03*
X485750Y1338500D02*
D03*
Y1275000D02*
D03*
X599750Y1211500D02*
D03*
Y1275000D02*
D03*
X485750Y1211500D02*
D03*
X599750Y1338500D02*
D03*
X605250Y1179000D02*
D03*
Y1242500D02*
D03*
Y1306000D02*
D03*
D68*
X689050Y1250900D02*
D03*
X714050D02*
D03*
X689050Y1230900D02*
D03*
X714050D02*
D03*
D69*
X834750Y1339500D02*
D03*
X934750D02*
D03*
Y1214500D02*
D03*
X834750D02*
D03*
X809750Y1239500D02*
D03*
X959750D02*
D03*
X884750D02*
D03*
D70*
X1120430Y1277910D02*
D03*
X1170430Y1246910D02*
D03*
Y1308910D02*
D03*
D71*
X1301000Y901500D02*
D03*
X1362300Y948000D02*
D03*
Y931000D02*
D03*
X1341000Y1018000D02*
D03*
X1367000D02*
D03*
X1097000Y1053000D02*
D03*
X1098000Y1141000D02*
D03*
X1044000Y1028000D02*
D03*
X1027000Y1024000D02*
D03*
X1223200Y914000D02*
D03*
X1235900D02*
D03*
X1209000Y1018000D02*
D03*
X1235900Y968000D02*
D03*
D72*
X314000Y951250D02*
D03*
X911000Y1225000D02*
D03*
X573000Y1046000D02*
D03*
X573000Y1036000D02*
D03*
X489000Y1060000D02*
D03*
X516000Y1069000D02*
D03*
X610000Y1027000D02*
D03*
X633000Y1143000D02*
D03*
X607000Y1046000D02*
D03*
X1320000Y1112000D02*
D03*
X337000Y969000D02*
D03*
X439000Y890000D02*
D03*
X503000Y917000D02*
D03*
X541000Y906000D02*
D03*
Y888000D02*
D03*
X606000Y906000D02*
D03*
Y888000D02*
D03*
X439000Y910000D02*
D03*
Y900000D02*
D03*
Y920000D02*
D03*
X675000Y1149000D02*
D03*
X671000Y1179000D02*
D03*
X774000Y1259000D02*
D03*
X635000Y1128000D02*
D03*
X633000Y1154000D02*
D03*
X379000Y1062000D02*
D03*
X351000Y1062000D02*
D03*
X351000Y1074700D02*
D03*
X379000Y1049300D02*
D03*
D73*
X1242750Y1142000D02*
D03*
Y1152000D02*
D03*
Y1161000D02*
D03*
X1234250Y1168500D02*
D03*
X1226000D02*
D03*
X1218250Y1161000D02*
D03*
Y1152000D02*
D03*
X1226000Y1136000D02*
D03*
X1235000D02*
D03*
X1218250Y1142000D02*
D03*
X1195750D02*
D03*
X699000Y746000D02*
D03*
Y738000D02*
D03*
Y730000D02*
D03*
X915000Y1080000D02*
D03*
X731000Y796000D02*
D03*
X1256000Y1223000D02*
D03*
Y1186000D02*
D03*
Y1213000D02*
D03*
X1293000Y1212000D02*
D03*
Y1199000D02*
D03*
Y1187000D02*
D03*
Y1226000D02*
D03*
X1284000Y1231000D02*
D03*
X1273000D02*
D03*
X1263000D02*
D03*
X1273000Y1178000D02*
D03*
X1261000D02*
D03*
X1284000D02*
D03*
X1094000Y1287000D02*
D03*
X1084000D02*
D03*
X1073000D02*
D03*
X1065000Y1318000D02*
D03*
Y1304000D02*
D03*
Y1291000D02*
D03*
X1070000Y1341000D02*
D03*
X1083000D02*
D03*
X1095000D02*
D03*
X1104000Y1334000D02*
D03*
Y1323000D02*
D03*
Y1311000D02*
D03*
Y1297000D02*
D03*
X1179000Y1136000D02*
D03*
X1188000D02*
D03*
X1195750Y1152000D02*
D03*
Y1161000D02*
D03*
X1188000Y1168500D02*
D03*
X1179750D02*
D03*
X1171250Y1161000D02*
D03*
Y1152000D02*
D03*
Y1142000D02*
D03*
X486000Y897000D02*
D03*
X504000D02*
D03*
X382000Y972000D02*
D03*
X543000Y922400D02*
D03*
X495000Y880000D02*
D03*
X1065000Y1332000D02*
D03*
X712000Y1056000D02*
D03*
Y1075000D02*
D03*
X915000Y1037000D02*
D03*
X879000Y1061000D02*
D03*
X1006000Y772000D02*
D03*
X312000Y985000D02*
D03*
D74*
X907000Y1312000D02*
D03*
X950500Y1274500D02*
D03*
X924000Y736000D02*
D03*
X915000Y1091000D02*
D03*
X985000Y729000D02*
D03*
X1015000D02*
D03*
X573000Y1073000D02*
D03*
X447000Y848000D02*
D03*
X631000Y1163000D02*
D03*
X278000Y717200D02*
D03*
X314000Y732000D02*
D03*
Y742000D02*
D03*
X317000Y753000D02*
D03*
Y763000D02*
D03*
X439000Y856000D02*
D03*
X984000Y1126000D02*
D03*
X1001000Y1118000D02*
D03*
X995000Y1126000D02*
D03*
X1086000Y1132000D02*
D03*
X1069000Y1158000D02*
D03*
X1124000Y1179000D02*
D03*
X993000Y1112000D02*
D03*
X603000Y923000D02*
D03*
X663000Y993949D02*
D03*
X1263000Y997000D02*
D03*
X1011000Y1083000D02*
D03*
X1033000Y1071000D02*
D03*
X1055000Y1066000D02*
D03*
X922250Y1167250D02*
D03*
X812000Y1026000D02*
D03*
X821000D02*
D03*
X830000D02*
D03*
X439000Y942250D02*
D03*
X284000Y933000D02*
D03*
D75*
X1231000Y1183000D02*
D03*
X1342000Y1264000D02*
D03*
X1223000Y1221000D02*
D03*
X1278000Y1164000D02*
D03*
X1370000Y1320000D02*
D03*
X1341000Y1063000D02*
D03*
X1274000Y1105000D02*
D03*
X1368000Y1143000D02*
D03*
X1350000Y1109500D02*
D03*
X1199000Y1340000D02*
D03*
X1315000Y1182000D02*
D03*
X1324000Y1308000D02*
D03*
X1316000Y1228000D02*
D03*
X1146000Y1177000D02*
D03*
X1269000Y1067000D02*
D03*
X1274000Y1140000D02*
D03*
X1255000Y1245000D02*
D03*
X1367000Y1225000D02*
D03*
X1364000Y1064000D02*
D03*
X1355000Y1320000D02*
D03*
X1344000Y1335000D02*
D03*
X1078000Y1245000D02*
D03*
X1206000Y1256000D02*
D03*
X1207000Y1273000D02*
D03*
X1178000Y1194000D02*
D03*
X1099000Y1261000D02*
D03*
X1018000Y1273000D02*
D03*
X1207000Y1131000D02*
D03*
X1193000Y1200992D02*
D03*
X981000Y1342000D02*
D03*
X555000Y775000D02*
D03*
X517000D02*
D03*
D76*
X1031000Y1206000D02*
D03*
X1083000Y1169000D02*
D03*
X982000Y1181000D02*
D03*
X1064000Y1034000D02*
D03*
X1113000Y1108000D02*
D03*
X1050000Y1182000D02*
D03*
X1143000Y1158000D02*
D03*
X969000Y1095000D02*
D03*
X967000Y1081000D02*
D03*
X961000Y1117000D02*
D03*
X1030000Y1061000D02*
D03*
X962000Y1183000D02*
D03*
D95*
X1292000Y979930D02*
D03*
X1301500Y952070D02*
D03*
X1282500D02*
D03*
X1291750Y887820D02*
D03*
X1282250Y915680D02*
D03*
X1301250D02*
D03*
D96*
X722000Y945170D02*
D03*
Y955330D02*
D03*
X747000Y835330D02*
D03*
Y825170D02*
D03*
X929000Y1070330D02*
D03*
Y1060170D02*
D03*
X691000Y939330D02*
D03*
Y929170D02*
D03*
X723000Y915920D02*
D03*
Y926080D02*
D03*
X739000Y912920D02*
D03*
Y923080D02*
D03*
X707750Y920920D02*
D03*
Y931080D02*
D03*
X708500Y859330D02*
D03*
Y849170D02*
D03*
X723250Y896170D02*
D03*
Y906330D02*
D03*
X699000Y840170D02*
D03*
Y850330D02*
D03*
X723250Y886080D02*
D03*
Y875920D02*
D03*
X671000Y956080D02*
D03*
Y945920D02*
D03*
X683000Y939080D02*
D03*
Y928920D02*
D03*
X682750Y840170D02*
D03*
Y850330D02*
D03*
X723000Y867330D02*
D03*
Y857170D02*
D03*
Y832670D02*
D03*
Y842830D02*
D03*
X944500Y778920D02*
D03*
Y789080D02*
D03*
X935250Y846080D02*
D03*
Y835920D02*
D03*
X856250Y815830D02*
D03*
Y805670D02*
D03*
X858500Y781420D02*
D03*
Y791580D02*
D03*
X890750Y843830D02*
D03*
Y833670D02*
D03*
X911250Y821830D02*
D03*
Y811670D02*
D03*
X944500Y801920D02*
D03*
Y812080D02*
D03*
X783000Y1031920D02*
D03*
Y1042080D02*
D03*
X788500Y791920D02*
D03*
Y802080D02*
D03*
X686000Y798920D02*
D03*
Y809080D02*
D03*
X675000Y798920D02*
D03*
Y809080D02*
D03*
X772000Y813920D02*
D03*
Y824080D02*
D03*
X755000Y792080D02*
D03*
Y781920D02*
D03*
X773250Y978920D02*
D03*
Y989080D02*
D03*
X804250D02*
D03*
Y978920D02*
D03*
X783813Y989173D02*
D03*
Y979013D02*
D03*
X794250Y978920D02*
D03*
Y989080D02*
D03*
X929000Y1036920D02*
D03*
Y1047080D02*
D03*
X708000Y963080D02*
D03*
Y952920D02*
D03*
D97*
X932350Y1312450D02*
D03*
X837650D02*
D03*
X932350Y1236250D02*
D03*
X837650D02*
D03*
D98*
X932350Y1287050D02*
D03*
Y1261650D02*
D03*
X837650Y1287050D02*
D03*
Y1261650D02*
D03*
D99*
X1017916Y1292000D02*
D03*
Y1315000D02*
D03*
Y1338000D02*
D03*
X1341084Y1228000D02*
D03*
Y1205000D02*
D03*
Y1182000D02*
D03*
D100*
X1084449Y1315000D02*
D03*
X1274551Y1205000D02*
D03*
D101*
X1207000Y1090250D02*
D03*
D102*
X1230000Y1151750D02*
D03*
X1207000D02*
D03*
X1184000D02*
D03*
D103*
X1101000Y1217430D02*
D03*
Y1194570D02*
D03*
D104*
X736500Y1224776D02*
D03*
X746000D02*
D03*
X755500D02*
D03*
Y1253224D02*
D03*
X746000D02*
D03*
X736500D02*
D03*
D105*
X799000Y1061000D02*
D03*
X755000D02*
D03*
X799000Y1085000D02*
D03*
X755000D02*
D03*
D106*
X994000Y772000D02*
D03*
Y750000D02*
D03*
D107*
X676127Y976169D02*
D03*
Y993949D02*
D03*
D108*
X790000Y775250D02*
D03*
D109*
X875080Y860000D02*
Y861550D01*
D110*
X1184000Y1164000D02*
Y1186000D01*
X1175000Y1195000D02*
X1184000Y1186000D01*
X1230000Y1164000D02*
Y1183000D01*
D111*
X1264250Y918000D02*
Y926000D01*
Y876750D02*
Y884750D01*
X1263250Y897500D02*
Y905500D01*
X1206500Y901500D02*
X1257750D01*
X1199000Y909000D02*
X1206500Y901500D01*
X1199000Y909000D02*
Y916000D01*
X1257750Y901500D02*
X1264250Y908000D01*
X1257750Y901500D02*
X1264250Y895000D01*
M02*
