G04 Layer_Color=8421504*
%FSLAX44Y44*%
%MOMM*%
G71*
G01*
G75*
%ADD21R,1.5000X0.6000*%
%ADD22R,1.7000X0.7000*%
%ADD23R,2.0000X0.7000*%
%ADD26R,1.5000X0.7000*%
%ADD31R,0.6000X1.5000*%
%ADD38R,3.2000X0.8000*%
%ADD39R,0.8000X3.2000*%
%ADD42R,1.2000X1.2000*%
%ADD73C,0.5000*%
%ADD112R,1.3000X0.5000*%
%ADD113R,1.8000X0.4000*%
%ADD114R,1.2430X1.3700*%
%ADD115R,0.9000X1.3000*%
%ADD116R,1.1000X1.1000*%
%ADD117R,1.1000X1.1000*%
%ADD118R,0.9000X1.1000*%
%ADD119R,0.6500X0.5500*%
%ADD120R,1.1000X0.9000*%
%ADD121R,1.8000X0.5000*%
%ADD122R,0.9000X2.6000*%
%ADD123R,0.9500X0.2900*%
%ADD124R,0.2900X0.9500*%
%ADD125R,1.5000X0.8000*%
%ADD126R,1.5500X2.1000*%
%ADD127R,0.9000X1.6000*%
%ADD128R,0.4000X1.6000*%
%ADD129R,2.6000X3.3000*%
%ADD130R,1.6000X5.1000*%
%ADD131R,5.1000X1.6000*%
%ADD132R,3.3000X0.9000*%
%ADD133R,0.9000X3.3000*%
%ADD134R,1.7000X0.4500*%
%ADD135R,2.1000X1.1000*%
%ADD136R,1.1000X2.1000*%
%ADD137R,0.8000X1.7000*%
G36*
X1074750Y1094250D02*
X1066750D01*
Y1095750D01*
X1074750D01*
Y1094250D01*
D02*
G37*
G36*
X1015250Y1098250D02*
X1007250D01*
Y1099750D01*
X1015250D01*
Y1098250D01*
D02*
G37*
G36*
X1074750D02*
X1066750D01*
Y1099750D01*
X1074750D01*
Y1098250D01*
D02*
G37*
G36*
X1015250Y1090250D02*
X1007250D01*
Y1091750D01*
X1015250D01*
Y1090250D01*
D02*
G37*
G36*
X1074750D02*
X1066750D01*
Y1091750D01*
X1074750D01*
Y1090250D01*
D02*
G37*
G36*
X1015250Y1094250D02*
X1007250D01*
Y1095750D01*
X1015250D01*
Y1094250D01*
D02*
G37*
G36*
X1074750Y1106250D02*
X1066750D01*
Y1107750D01*
X1074750D01*
Y1106250D01*
D02*
G37*
G36*
X1015250Y1110250D02*
X1007250D01*
Y1111750D01*
X1015250D01*
Y1110250D01*
D02*
G37*
G36*
X1074750D02*
X1066750D01*
Y1111750D01*
X1074750D01*
Y1110250D01*
D02*
G37*
G36*
X1015250Y1102250D02*
X1007250D01*
Y1103750D01*
X1015250D01*
Y1102250D01*
D02*
G37*
G36*
X1074750D02*
X1066750D01*
Y1103750D01*
X1074750D01*
Y1102250D01*
D02*
G37*
G36*
X1015250Y1106250D02*
X1007250D01*
Y1107750D01*
X1015250D01*
Y1106250D01*
D02*
G37*
G36*
X1031750Y1079250D02*
X1030250D01*
Y1087250D01*
X1031750D01*
Y1079250D01*
D02*
G37*
G36*
X1035750D02*
X1034250D01*
Y1087250D01*
X1035750D01*
Y1079250D01*
D02*
G37*
G36*
X1039750D02*
X1038250D01*
Y1087250D01*
X1039750D01*
Y1079250D01*
D02*
G37*
G36*
X1019750D02*
X1018250D01*
Y1087250D01*
X1019750D01*
Y1079250D01*
D02*
G37*
G36*
X1023750D02*
X1022250D01*
Y1087250D01*
X1023750D01*
Y1079250D01*
D02*
G37*
G36*
X1027750D02*
X1026250D01*
Y1087250D01*
X1027750D01*
Y1079250D01*
D02*
G37*
G36*
X1055750D02*
X1054250D01*
Y1087250D01*
X1055750D01*
Y1079250D01*
D02*
G37*
G36*
X1059750D02*
X1058250D01*
Y1087250D01*
X1059750D01*
Y1079250D01*
D02*
G37*
G36*
X1063750D02*
X1062250D01*
Y1087250D01*
X1063750D01*
Y1079250D01*
D02*
G37*
G36*
X1043750D02*
X1042250D01*
Y1087250D01*
X1043750D01*
Y1079250D01*
D02*
G37*
G36*
X1047750D02*
X1046250D01*
Y1087250D01*
X1047750D01*
Y1079250D01*
D02*
G37*
G36*
X1051750D02*
X1050250D01*
Y1087250D01*
X1051750D01*
Y1079250D01*
D02*
G37*
G36*
X1031750Y1138750D02*
X1030250D01*
Y1146750D01*
X1031750D01*
Y1138750D01*
D02*
G37*
G36*
X1035750D02*
X1034250D01*
Y1146750D01*
X1035750D01*
Y1138750D01*
D02*
G37*
G36*
X1039750D02*
X1038250D01*
Y1146750D01*
X1039750D01*
Y1138750D01*
D02*
G37*
G36*
X1019750D02*
X1018250D01*
Y1146750D01*
X1019750D01*
Y1138750D01*
D02*
G37*
G36*
X1023750D02*
X1022250D01*
Y1146750D01*
X1023750D01*
Y1138750D01*
D02*
G37*
G36*
X1027750D02*
X1026250D01*
Y1146750D01*
X1027750D01*
Y1138750D01*
D02*
G37*
G36*
X1055750D02*
X1054250D01*
Y1146750D01*
X1055750D01*
Y1138750D01*
D02*
G37*
G36*
X1059750D02*
X1058250D01*
Y1146750D01*
X1059750D01*
Y1138750D01*
D02*
G37*
G36*
X1063750D02*
X1062250D01*
Y1146750D01*
X1063750D01*
Y1138750D01*
D02*
G37*
G36*
X1043750D02*
X1042250D01*
Y1146750D01*
X1043750D01*
Y1138750D01*
D02*
G37*
G36*
X1047750D02*
X1046250D01*
Y1146750D01*
X1047750D01*
Y1138750D01*
D02*
G37*
G36*
X1051750D02*
X1050250D01*
Y1146750D01*
X1051750D01*
Y1138750D01*
D02*
G37*
G36*
X1074750Y1118250D02*
X1066750D01*
Y1119750D01*
X1074750D01*
Y1118250D01*
D02*
G37*
G36*
X1015250Y1122250D02*
X1007250D01*
Y1123750D01*
X1015250D01*
Y1122250D01*
D02*
G37*
G36*
X1074750D02*
X1066750D01*
Y1123750D01*
X1074750D01*
Y1122250D01*
D02*
G37*
G36*
X1015250Y1114250D02*
X1007250D01*
Y1115750D01*
X1015250D01*
Y1114250D01*
D02*
G37*
G36*
X1074750D02*
X1066750D01*
Y1115750D01*
X1074750D01*
Y1114250D01*
D02*
G37*
G36*
X1015250Y1118250D02*
X1007250D01*
Y1119750D01*
X1015250D01*
Y1118250D01*
D02*
G37*
G36*
X1074750Y1130250D02*
X1066750D01*
Y1131750D01*
X1074750D01*
Y1130250D01*
D02*
G37*
G36*
X1015250Y1134250D02*
X1007250D01*
Y1135750D01*
X1015250D01*
Y1134250D01*
D02*
G37*
G36*
X1074750D02*
X1066750D01*
Y1135750D01*
X1074750D01*
Y1134250D01*
D02*
G37*
G36*
Y1126250D02*
X1066750D01*
Y1127750D01*
X1074750D01*
Y1126250D01*
D02*
G37*
G36*
X1015250Y1126250D02*
X1007250D01*
Y1127750D01*
X1015250D01*
Y1126250D01*
D02*
G37*
G36*
Y1130250D02*
X1007250D01*
Y1131750D01*
X1015250D01*
Y1130250D01*
D02*
G37*
D21*
X1299992Y1263000D02*
D03*
X1324008D02*
D03*
D22*
X649226Y1084100D02*
D03*
Y1071400D02*
D03*
Y1058700D02*
D03*
Y1046000D02*
D03*
Y1033300D02*
D03*
Y1020600D02*
D03*
Y1007900D02*
D03*
X588774D02*
D03*
Y1020600D02*
D03*
Y1033300D02*
D03*
Y1046000D02*
D03*
Y1058700D02*
D03*
Y1071400D02*
D03*
Y1084100D02*
D03*
X395226Y1100100D02*
D03*
Y1087400D02*
D03*
Y1074700D02*
D03*
Y1062000D02*
D03*
Y1049300D02*
D03*
Y1036600D02*
D03*
Y1023900D02*
D03*
X334774D02*
D03*
Y1036600D02*
D03*
Y1049300D02*
D03*
Y1062000D02*
D03*
Y1074700D02*
D03*
Y1087400D02*
D03*
Y1100100D02*
D03*
X525774Y935100D02*
D03*
Y922400D02*
D03*
Y909700D02*
D03*
Y897000D02*
D03*
Y884300D02*
D03*
Y871600D02*
D03*
Y858900D02*
D03*
X586226D02*
D03*
Y871600D02*
D03*
Y884300D02*
D03*
Y897000D02*
D03*
Y909700D02*
D03*
Y922400D02*
D03*
Y935100D02*
D03*
D23*
X650060Y1142300D02*
D03*
Y1155000D02*
D03*
Y1167700D02*
D03*
Y1180400D02*
D03*
X705940D02*
D03*
Y1167700D02*
D03*
Y1155000D02*
D03*
Y1142300D02*
D03*
D26*
X1128557Y1168000D02*
D03*
X1105443Y1158475D02*
D03*
Y1177525D02*
D03*
D31*
X1356000Y1299008D02*
D03*
Y1274992D02*
D03*
X1232000Y1343008D02*
D03*
Y1318992D02*
D03*
Y1285008D02*
D03*
Y1260992D02*
D03*
D38*
X359290Y754500D02*
D03*
Y729100D02*
D03*
X290710Y754500D02*
D03*
Y729100D02*
D03*
X359290Y830700D02*
D03*
Y805300D02*
D03*
Y779900D02*
D03*
X290710Y830700D02*
D03*
Y805300D02*
D03*
Y881500D02*
D03*
Y906900D02*
D03*
X359290Y856100D02*
D03*
Y881500D02*
D03*
Y906900D02*
D03*
X1359020Y751700D02*
D03*
Y726300D02*
D03*
X1291710D02*
D03*
Y751700D02*
D03*
X1359290Y852400D02*
D03*
Y827000D02*
D03*
Y801600D02*
D03*
X1290710Y852400D02*
D03*
Y827000D02*
D03*
D39*
X434000Y703710D02*
D03*
X408600D02*
D03*
X459400Y772290D02*
D03*
X434000D02*
D03*
X408600D02*
D03*
X1336300Y905710D02*
D03*
X1361700D02*
D03*
Y973020D02*
D03*
X1336300D02*
D03*
D42*
X902250Y1151250D02*
D03*
X922250D02*
D03*
D73*
X924798Y841552D02*
D03*
X932798Y785552D02*
D03*
Y793552D02*
D03*
Y801552D02*
D03*
Y809552D02*
D03*
Y817552D02*
D03*
Y825552D02*
D03*
Y833552D02*
D03*
Y841552D02*
D03*
Y849552D02*
D03*
Y857552D02*
D03*
Y865552D02*
D03*
Y873552D02*
D03*
Y881552D02*
D03*
Y889552D02*
D03*
Y897552D02*
D03*
Y905552D02*
D03*
X924798Y785552D02*
D03*
Y793552D02*
D03*
Y801552D02*
D03*
Y809552D02*
D03*
Y817552D02*
D03*
Y825552D02*
D03*
Y833552D02*
D03*
Y849552D02*
D03*
Y857552D02*
D03*
Y865552D02*
D03*
Y873552D02*
D03*
Y881552D02*
D03*
Y889552D02*
D03*
Y897552D02*
D03*
Y905552D02*
D03*
X916798Y785552D02*
D03*
Y793552D02*
D03*
Y801552D02*
D03*
Y809552D02*
D03*
Y817552D02*
D03*
Y825552D02*
D03*
Y849552D02*
D03*
Y857552D02*
D03*
Y865552D02*
D03*
Y873552D02*
D03*
Y881552D02*
D03*
Y889552D02*
D03*
Y897552D02*
D03*
Y905552D02*
D03*
X884798Y785552D02*
D03*
Y793552D02*
D03*
Y801552D02*
D03*
Y809552D02*
D03*
Y817552D02*
D03*
Y825552D02*
D03*
Y833552D02*
D03*
Y841552D02*
D03*
Y849552D02*
D03*
Y873552D02*
D03*
Y881552D02*
D03*
Y889552D02*
D03*
Y897552D02*
D03*
Y905552D02*
D03*
X876798Y785552D02*
D03*
Y793552D02*
D03*
Y801552D02*
D03*
Y809552D02*
D03*
Y817552D02*
D03*
Y825552D02*
D03*
Y833552D02*
D03*
Y841552D02*
D03*
Y849552D02*
D03*
Y857552D02*
D03*
Y865552D02*
D03*
Y873552D02*
D03*
Y881552D02*
D03*
Y889552D02*
D03*
Y897552D02*
D03*
Y905552D02*
D03*
X868798Y785552D02*
D03*
Y793552D02*
D03*
Y801552D02*
D03*
Y809552D02*
D03*
Y817552D02*
D03*
Y825552D02*
D03*
Y833552D02*
D03*
Y841552D02*
D03*
Y849552D02*
D03*
Y857552D02*
D03*
Y865552D02*
D03*
Y873552D02*
D03*
Y881552D02*
D03*
Y889552D02*
D03*
Y897552D02*
D03*
Y905552D02*
D03*
X884798Y865552D02*
D03*
Y857552D02*
D03*
X916798Y841552D02*
D03*
Y833552D02*
D03*
D112*
X965652Y1040500D02*
D03*
Y1047000D02*
D03*
Y1053500D02*
D03*
X942348D02*
D03*
Y1040500D02*
D03*
D113*
X897000Y1001000D02*
D03*
Y1006000D02*
D03*
Y1011000D02*
D03*
Y1016000D02*
D03*
Y1021000D02*
D03*
Y1026000D02*
D03*
Y1031000D02*
D03*
Y1036000D02*
D03*
Y1041000D02*
D03*
Y1046000D02*
D03*
Y1051000D02*
D03*
Y1056000D02*
D03*
Y1061000D02*
D03*
Y1066000D02*
D03*
Y1071000D02*
D03*
Y1076000D02*
D03*
Y1081000D02*
D03*
Y1086000D02*
D03*
Y1091000D02*
D03*
Y1096000D02*
D03*
Y1101000D02*
D03*
Y1106000D02*
D03*
Y1111000D02*
D03*
Y1116000D02*
D03*
X694000Y1001000D02*
D03*
Y1006000D02*
D03*
Y1011000D02*
D03*
Y1016000D02*
D03*
Y1021000D02*
D03*
Y1026000D02*
D03*
Y1031000D02*
D03*
Y1036000D02*
D03*
Y1041000D02*
D03*
Y1046000D02*
D03*
Y1051000D02*
D03*
Y1056000D02*
D03*
Y1061000D02*
D03*
Y1066000D02*
D03*
Y1071000D02*
D03*
Y1076000D02*
D03*
Y1081000D02*
D03*
Y1086000D02*
D03*
Y1091000D02*
D03*
Y1096000D02*
D03*
Y1101000D02*
D03*
Y1106000D02*
D03*
Y1111000D02*
D03*
Y1116000D02*
D03*
D114*
X960169Y747127D02*
D03*
X977949D02*
D03*
X982669Y1028127D02*
D03*
X1000449D02*
D03*
D115*
X954000Y710127D02*
D03*
X976000D02*
D03*
X721000Y796000D02*
D03*
X743000D02*
D03*
D116*
X949300Y840500D02*
D03*
X967300D02*
D03*
X468000Y984000D02*
D03*
X450000D02*
D03*
X551000Y992000D02*
D03*
X533000D02*
D03*
X489000Y1017000D02*
D03*
X471000D02*
D03*
X1016000Y1181000D02*
D03*
X998000D02*
D03*
X503000Y854000D02*
D03*
X485000D02*
D03*
X468000Y962000D02*
D03*
X450000D02*
D03*
X595000Y986000D02*
D03*
X577000D02*
D03*
X595000Y968000D02*
D03*
X577000D02*
D03*
X466000Y809000D02*
D03*
X448000D02*
D03*
X940750Y1150500D02*
D03*
X958750D02*
D03*
X949100Y821500D02*
D03*
X967100D02*
D03*
X652000Y978750D02*
D03*
X634000D02*
D03*
D117*
X832250Y732750D02*
D03*
Y750750D02*
D03*
X429000Y1034000D02*
D03*
Y1052000D02*
D03*
X301000Y1103000D02*
D03*
Y1085000D02*
D03*
X429000Y1103000D02*
D03*
Y1085000D02*
D03*
X304500Y1037500D02*
D03*
Y1055500D02*
D03*
X562000Y1067000D02*
D03*
Y1085000D02*
D03*
X618000Y903000D02*
D03*
Y885000D02*
D03*
D118*
X450000Y1001000D02*
D03*
X468000D02*
D03*
X533000Y975000D02*
D03*
X551000D02*
D03*
X995000Y1055000D02*
D03*
X1013000D02*
D03*
X1211000Y1183000D02*
D03*
X1193000D02*
D03*
X448000Y824000D02*
D03*
X466000D02*
D03*
X410000Y809000D02*
D03*
X428000D02*
D03*
X1069000Y1169000D02*
D03*
X1051000D02*
D03*
X1064000Y1053000D02*
D03*
X1082000D02*
D03*
D119*
X706827Y780435D02*
D03*
X716987D02*
D03*
X706840Y769000D02*
D03*
X717000D02*
D03*
X767080Y764250D02*
D03*
X756920D02*
D03*
X801670Y748250D02*
D03*
X811830D02*
D03*
X938170Y1029250D02*
D03*
X948330D02*
D03*
D120*
X696000Y711000D02*
D03*
Y693000D02*
D03*
X677000Y711000D02*
D03*
Y693000D02*
D03*
X658000Y711000D02*
D03*
Y693000D02*
D03*
X982000Y1076000D02*
D03*
Y1094000D02*
D03*
X1033000Y1185000D02*
D03*
Y1167000D02*
D03*
X1292000Y1125000D02*
D03*
Y1107000D02*
D03*
X486000Y906000D02*
D03*
Y888000D02*
D03*
X504000Y906000D02*
D03*
Y888000D02*
D03*
X618000Y841000D02*
D03*
Y859000D02*
D03*
Y941000D02*
D03*
Y923000D02*
D03*
X1098000Y1108000D02*
D03*
Y1126000D02*
D03*
X1044000Y1061000D02*
D03*
Y1043000D02*
D03*
X758000Y724000D02*
D03*
Y706000D02*
D03*
D121*
X535242Y1049500D02*
D03*
Y1056000D02*
D03*
Y1062500D02*
D03*
Y1069000D02*
D03*
Y1075500D02*
D03*
Y1082000D02*
D03*
Y1088500D02*
D03*
X472758Y1088500D02*
D03*
Y1082000D02*
D03*
Y1075500D02*
D03*
Y1069000D02*
D03*
Y1062500D02*
D03*
Y1056000D02*
D03*
Y1049500D02*
D03*
X352242Y948500D02*
D03*
Y955000D02*
D03*
Y961500D02*
D03*
Y968000D02*
D03*
Y974500D02*
D03*
Y981000D02*
D03*
Y987500D02*
D03*
X289758Y987500D02*
D03*
Y981000D02*
D03*
Y974500D02*
D03*
Y968000D02*
D03*
Y961500D02*
D03*
Y955000D02*
D03*
Y948500D02*
D03*
D122*
X994600Y935000D02*
D03*
X1197800D02*
D03*
X1210500D02*
D03*
X1185100D02*
D03*
X1172400D02*
D03*
X1159700D02*
D03*
X1147000D02*
D03*
X1134300D02*
D03*
X1121600D02*
D03*
X1108900D02*
D03*
X1096200D02*
D03*
X1083500D02*
D03*
X1070800D02*
D03*
X1058100D02*
D03*
X1045400D02*
D03*
X1032700D02*
D03*
X1020000D02*
D03*
X1007300D02*
D03*
X994600Y989000D02*
D03*
X1007300D02*
D03*
X1020000D02*
D03*
X1032700D02*
D03*
X1045400D02*
D03*
X1058100D02*
D03*
X1070800D02*
D03*
X1083500D02*
D03*
X1096200D02*
D03*
X1108900D02*
D03*
X1121600D02*
D03*
X1134300D02*
D03*
X1147000D02*
D03*
X1159700D02*
D03*
X1172400D02*
D03*
X1197800D02*
D03*
X1210500D02*
D03*
X1185100D02*
D03*
X1223200Y935000D02*
D03*
Y989000D02*
D03*
X1235900D02*
D03*
Y935000D02*
D03*
D123*
X1011250Y1135000D02*
D03*
Y1131000D02*
D03*
Y1127000D02*
D03*
Y1123000D02*
D03*
Y1119000D02*
D03*
Y1115000D02*
D03*
Y1111000D02*
D03*
Y1107000D02*
D03*
Y1103000D02*
D03*
Y1099000D02*
D03*
Y1095000D02*
D03*
Y1091000D02*
D03*
X1070750D02*
D03*
Y1095000D02*
D03*
Y1099000D02*
D03*
Y1103000D02*
D03*
Y1107000D02*
D03*
Y1111000D02*
D03*
Y1115000D02*
D03*
Y1119000D02*
D03*
Y1123000D02*
D03*
Y1127000D02*
D03*
Y1131000D02*
D03*
Y1135000D02*
D03*
D124*
X1019000Y1083250D02*
D03*
X1023000D02*
D03*
X1027000D02*
D03*
X1031000D02*
D03*
X1035000D02*
D03*
X1039000D02*
D03*
X1043000D02*
D03*
X1047000D02*
D03*
X1051000D02*
D03*
X1055000D02*
D03*
X1059000D02*
D03*
X1063000D02*
D03*
Y1142750D02*
D03*
X1059000D02*
D03*
X1055000D02*
D03*
X1051000D02*
D03*
X1047000D02*
D03*
X1043000D02*
D03*
X1039000D02*
D03*
X1035000D02*
D03*
X1031000D02*
D03*
X1027000D02*
D03*
X1023000D02*
D03*
X1019000D02*
D03*
D125*
X1333230Y1127500D02*
D03*
Y1118000D02*
D03*
Y1108500D02*
D03*
X1366770D02*
D03*
Y1127500D02*
D03*
D126*
X628750Y702000D02*
D03*
X491250D02*
D03*
Y785000D02*
D03*
X628750D02*
D03*
D127*
X592000Y728000D02*
D03*
X515000D02*
D03*
X581000D02*
D03*
X548000D02*
D03*
X559000D02*
D03*
X537000D02*
D03*
X526000D02*
D03*
X570000D02*
D03*
D128*
X1019000Y903000D02*
D03*
X1024000D02*
D03*
X1029000D02*
D03*
X1034000D02*
D03*
X1039000D02*
D03*
X1044000D02*
D03*
X1049000D02*
D03*
X1054000D02*
D03*
X1059000D02*
D03*
X1064000D02*
D03*
X1069000D02*
D03*
X1074000D02*
D03*
X1079000D02*
D03*
X1084000D02*
D03*
X1089000D02*
D03*
X1094000D02*
D03*
X1099000D02*
D03*
X1104000D02*
D03*
X1109000D02*
D03*
X1114000D02*
D03*
X1119000D02*
D03*
X1124000D02*
D03*
X1129000D02*
D03*
X1134000D02*
D03*
X1139000D02*
D03*
X1144000D02*
D03*
X1149000D02*
D03*
X1154000D02*
D03*
X1159000D02*
D03*
X1164000D02*
D03*
X1169000D02*
D03*
X1174000D02*
D03*
X1179000D02*
D03*
X1184000D02*
D03*
X1189000D02*
D03*
X1194000D02*
D03*
X1199000D02*
D03*
X1204000D02*
D03*
X1209000D02*
D03*
X1214000D02*
D03*
D129*
X994870Y887760D02*
D03*
X1238130D02*
D03*
D130*
X1049000Y1326060D02*
D03*
Y1227000D02*
D03*
D131*
X1350530Y1199000D02*
D03*
X1251470D02*
D03*
X1350530Y1044000D02*
D03*
X1251470D02*
D03*
X1156470Y1123000D02*
D03*
X1255530D02*
D03*
D132*
X290710Y779900D02*
D03*
Y856100D02*
D03*
X1290710Y801600D02*
D03*
D133*
X459400Y703710D02*
D03*
D134*
X409000Y890250D02*
D03*
Y877250D02*
D03*
Y864250D02*
D03*
Y857750D02*
D03*
Y870750D02*
D03*
Y883750D02*
D03*
Y942250D02*
D03*
Y929250D02*
D03*
Y916250D02*
D03*
Y903250D02*
D03*
Y896750D02*
D03*
Y909750D02*
D03*
Y922750D02*
D03*
Y935750D02*
D03*
X465000Y857750D02*
D03*
Y864250D02*
D03*
Y896750D02*
D03*
Y909750D02*
D03*
Y916250D02*
D03*
Y903250D02*
D03*
Y877250D02*
D03*
Y890250D02*
D03*
Y883750D02*
D03*
Y870750D02*
D03*
Y929250D02*
D03*
Y942250D02*
D03*
Y935750D02*
D03*
Y922750D02*
D03*
D135*
X1175400Y1029000D02*
D03*
Y1045000D02*
D03*
X1124600Y1029000D02*
D03*
Y1045000D02*
D03*
D136*
X733000Y748400D02*
D03*
X717000D02*
D03*
X733000Y697600D02*
D03*
X717000D02*
D03*
D137*
X849500Y721500D02*
D03*
X794500D02*
D03*
X849500Y698500D02*
D03*
X794500D02*
D03*
M02*
